<svg xmlns="http://www.w3.org/2000/svg" viewBox="0 0 760 640" enable-background="new 0 0 760 640"><g><g><path fill="none" stroke="#999" stroke-width="2" stroke-miterlimit="10" d="M20.5 601h340M400.5 601h340"/><path fill="#999" d="M19.5 593h2v16h-2zM739.5 593h2v16h-2z"/><path d="M375.2 610v-4.2H368v-1.4l7-10h2.3v9.7h2.2v1.7h-2.2v4.2h-2.1zm0-5.9v-5.2c0-.8 0-1.6.1-2.4h-.1c-.5.9-.9 1.6-1.3 2.3L370 604h5.2zM390.2 596.2h-6l-.6 4c.4 0 .7-.1 1.3-.1 1.2 0 2.4.3 3.4.8 1.2.7 2.2 2 2.2 4 0 3-2.4 5.3-5.8 5.3-1.7 0-3.1-.5-3.9-1l.5-1.6c.6.4 1.9.9 3.3.9 2 0 3.7-1.3 3.7-3.4 0-2-1.4-3.5-4.5-3.5-.9 0-1.6.1-2.2.2l1-7.5h7.5v1.9z"/></g><g><path fill="none" stroke="#999" stroke-width="2" stroke-miterlimit="10" d="M20.5 578h220M280.5 578h220"/><path fill="#999" d="M19.5 570h2v16h-2zM499.5 570h2v16h-2z"/><path d="M249.1 584.6c.6.4 2 1 3.5 1 2.7 0 3.6-1.7 3.5-3 0-2.2-2-3.1-4-3.1h-1.2v-1.6h1.2c1.5 0 3.5-.8 3.5-2.6 0-1.2-.8-2.4-2.7-2.4-1.2 0-2.4.6-3.1 1l-.6-1.5c.8-.6 2.4-1.2 4.1-1.2 3.1 0 4.5 1.8 4.5 3.7 0 1.6-1 3-2.9 3.7 1.9.4 3.5 1.8 3.5 4 0 2.5-1.9 4.7-5.7 4.7-1.8 0-3.3-.6-4.1-1.1l.5-1.6zM271.3 579c0 5.3-2 8.2-5.4 8.2-3 0-5.1-2.9-5.2-8 0-5.2 2.3-8.1 5.4-8.1 3.3 0 5.2 3 5.2 7.9zm-8.5.3c0 4.1 1.2 6.4 3.2 6.4 2.2 0 3.2-2.5 3.2-6.5 0-3.8-1-6.4-3.2-6.4-1.8 0-3.2 2.2-3.2 6.5z"/></g><g><path fill="none" stroke="#999" stroke-width="2" stroke-miterlimit="10" d="M500.5 578h100M640.5 578h100"/><path fill="#999" d="M499.5 570h2v16h-2zM739.5 570h2v16h-2z"/><path d="M613.2 573.4l-2.8 1.5-.4-1.6 3.4-1.8h1.8V587h-2v-13.6zM630.2 573.2h-6l-.6 4c.4 0 .7-.1 1.3-.1 1.2 0 2.4.3 3.4.8 1.2.7 2.2 2 2.2 4 0 3-2.4 5.3-5.8 5.3-1.7 0-3.1-.5-3.9-1l.5-1.6c.6.4 1.9.9 3.3.9 2 0 3.7-1.3 3.7-3.4 0-2-1.4-3.5-4.5-3.5-.9 0-1.6.1-2.2.2l1-7.5h7.5v1.9z"/></g></g><g><g><path fill="none" stroke="#999" stroke-width="2" stroke-miterlimit="10" d="M660.5 58h30M710.5 58h30"/><path fill="#999" d="M659.5 50h2v16h-2zM739.5 50h2v16h-2z"/><path fill="none" d="M694.5 46.5h13.9v30.4h-13.9z"/><path d="M704.9 52.8h-6l-.6 4c.4 0 .7-.1 1.3-.1 1.2 0 2.4.3 3.4.8 1.2.7 2.2 2 2.2 4 0 3-2.4 5.3-5.8 5.3-1.7 0-3.1-.5-3.9-1l.5-1.6c.6.4 1.9.9 3.3.9 2 0 3.7-1.3 3.7-3.4 0-2-1.4-3.5-4.5-3.5-.9 0-1.6.1-2.2.2l1-7.5h7.5v1.9z"/></g><g><path fill="none" stroke="#999" stroke-width="2" stroke-miterlimit="10" d="M516.5 58h62M598.5 58h62"/><path fill="#999" d="M515.5 50h2v16h-2zM659.5 50h2v16h-2z"/><path d="M583.8 65.5c.5 0 1 0 1.7-.1 1.2-.2 2.4-.7 3.3-1.5 1-.9 1.8-2.3 2.1-4.2h-.1c-.9 1.1-2.1 1.7-3.7 1.7-2.8 0-4.6-2.1-4.6-4.8 0-3 2.1-5.5 5.3-5.5s5.2 2.6 5.2 6.6c0 3.4-1.2 5.8-2.7 7.3-1.2 1.2-2.9 1.9-4.5 2.1-.8.1-1.4.1-1.9.1v-1.7zm.8-9c0 1.9 1.2 3.3 3 3.3 1.4 0 2.5-.7 3.1-1.6.1-.2.2-.4.2-.8 0-2.7-1-4.7-3.2-4.7-1.8 0-3.1 1.6-3.1 3.8z"/></g></g><g><g><path fill="#eee" d="M516.5 401.1h144v144h-144z"/><path fill="none" stroke="#999" stroke-width="2" stroke-miterlimit="10" d="M516.5 545h144M516.5 401h144"/></g><g><path fill="#eee" d="M516.5 257.1h144v144h-144z"/><path fill="none" stroke="#999" stroke-width="2" stroke-miterlimit="10" d="M516.5 401h144M516.5 257h144"/></g><g><path fill="#eee" d="M516.5 113.1h144v144h-144z"/><path fill="none" stroke="#999" stroke-width="2" stroke-miterlimit="10" d="M516.5 257h144M516.5 113h144"/></g><g><path fill="#eee" d="M660.5 368.1h80v80h-80z"/><path fill="none" stroke="#999" stroke-width="2" stroke-miterlimit="10" d="M660.5 368h80M660.5 448h80"/></g><g fill="none" stroke="#999" stroke-width="2" stroke-miterlimit="10"><path d="M660.5 128M516.5 128M660.5 160M516.5 160"/></g><g fill="none" stroke="#ccc" stroke-miterlimit="10"><path d="M180 560V80M341 560V80M20.5 239.5h480M20.5 400.5h480"/></g><g fill="none" stroke="#999" stroke-width="2" stroke-miterlimit="10"><path d="M20.5 80.1h720v480h-720z"/><path d="M20.5 80.1h480v480h-480z"/><path d="M660.5 560V80M516.5 560V80"/></g></g><g><g><path d="M705.6 496.3v1.4l-6.8 13.9h-2.2l6.8-13.5h-7.6v-1.7h9.8z"/><path fill="none" stroke="#29ABE2" stroke-width="2" stroke-miterlimit="10" d="M700.5 449v40M700.5 519v39"/><path fill="#29ABE2" d="M692.3 455.6l1.5 1.4 6.7-7.2 6.7 7.2 1.5-1.4-8.2-8.8zM692.3 551.4l1.5-1.4 6.7 7.2 6.7-7.2 1.5 1.4-8.2 8.8z"/></g><g fill="#6D6D6D"><path d="M709.2 286.8c0 .1 0 .2-.2.2h-8v6.9c0 .1 0 .2-.2.2h-1.1c-.1 0-.2 0-.2-.2V287h-7.9c-.1 0-.2 0-.2-.2v-.9c0-.1 0-.2.2-.2h7.9v-7.3H692.6c-.1 0-.2 0-.2-.2v-.9c0-.1 0-.2.2-.2H708c.1 0 .2 0 .2.2v.9c0 .1 0 .2-.2.2h-7v7.3h8c.1 0 .2 0 .2.2v.9zm-14.5-7.3c.2-.1.2-.1.3 0 .9 1.3 1.7 2.8 2.3 4.4 0 .1 0 .2-.2.2l-.7.3c-.3.1-.3.1-.4-.1-.6-1.6-1.2-2.9-2.2-4.3-.1-.1-.1-.2.2-.3l.7-.2zm12.2.8c-.1.1-.2.2-.4.5-.6 1.2-1.3 2.4-2.2 3.6-.1.2-.2.3-.3.3-.1 0-.1-.1-.3-.2-.2-.2-.4-.3-.7-.3 1-1.3 1.8-2.6 2.4-3.9.1-.3.2-.6.3-1 .4.1.9.3 1.2.5.1.1.2.1.2.2s-.1.2-.2.3zM709 312.7c0 .1 0 .2-.2.2h-16.7c-.1 0-.2 0-.2-.2v-1c0-.1 0-.2.2-.2h7.1v-12.2c0-1.5 0-2.1-.1-2.9.5 0 1 .1 1.4.1.1 0 .3.1.3.2s0 .2-.1.4-.1.7-.1 1.9v3.8h6.6c.1 0 .2 0 .2.2v1c0 .1 0 .2-.2.2h-6.6v7.5h8.3c.1 0 .2 0 .2.2v.8zM709.1 325.8c0 .1 0 .2-.2.2H700c-.8 2.1-1.7 4-2.7 5.7 2.7-.3 5.5-.6 7.7-1-.6-.8-1.3-1.6-2-2.3-.1-.1-.1-.2.1-.3l.5-.3c.2-.1.2-.1.3 0 1.7 1.6 2.9 3.3 4.1 5.1.1.1.1.2-.1.3l-.6.4c-.3.2-.3.2-.4 0-.4-.6-.7-1.2-1.2-1.8-3.4.6-7.3 1.1-10.5 1.4-1 .1-1.4.2-1.5.3-.1.1-.2.1-.3.1s-.2-.1-.2-.3c-.1-.4-.2-.8-.3-1.3h2l.9-.1c1.1-1.9 2-3.7 2.8-5.8H692c-.1 0-.2 0-.2-.2v-.9c0-.1 0-.2.2-.2H699.7v-3.7h-5.8c-.1 0-.1 0-.1-.2v-.9c0-.1 0-.2.1-.2h5.8v-1.3c0-1.4 0-1.9-.1-2.5.6 0 1 0 1.4.1.1 0 .2.1.2.2s0 .2-.1.4-.1.7-.1 1.8v1.4h6.1s.1 0 .1.2v.9c0 .1 0 .2-.1.2H701v3.7h7.9c.1 0 .2 0 .2.2v.7zM700 342.8v1c0 .1 0 .2-.2.2h-6c-.2.9-.6 1.7-1.3 2.4-.1.1-.2.2-.3.2-.1 0-.1 0-.3-.1-.2-.2-.4-.3-.6-.4 1.3-1.1 1.6-2.4 1.6-4.2v-.7c0-.1 0-.2.2-.2H699.9c.1 0 .2 0 .2.2v1.6zm5.6 8.8c1.2-.1 2.5-.2 3.7-.3-.1.1-.1.3-.1.5-.1.4-.1.4-.5.4-.8.1-1.9.2-3.1.2v1.5c0 .1 0 .2-.2.2h-.9c-.2 0-.2 0-.2-.2v-1.4c-1.4.1-3 .1-4.4.2-2.9.1-4.8.2-7.1.2-.4 0-.7 0-.9.1-.1.1-.2.1-.3.1-.1 0-.1-.1-.2-.2-.1-.3-.2-.6-.2-1 .5 0 1.1.1 2.2.1h1.7v-4.7h-2.3c-.1 0-.2 0-.2-.2v-.6c0-.1 0-.2.2-.2H708.4c.1 0 .2 0 .2.2v.6c0 .1 0 .2-.2.2H705.5v4.3zm-4.8-13.7c0 .1 0 .2-.2.2h-3.8v1.1h3.1c.1 0 .2 0 .2.2v.6c0 .1 0 .2-.2.2H692.8c-.2 0-.2 0-.2-.2v-.6c0-.1 0-.2.2-.2h3v-1.1h-3.9c-.1 0-.2 0-.2-.2v-.6c0-.1 0-.1.2-.1h3.9v-.1c0-.4 0-.9-.1-1.3.5 0 .8.1 1.1.1.1 0 .2.1.2.2s0 .1-.1.2c-.1.2-.1.3-.1.8h3.7c.1 0 .2 0 .2.2v.6zm-4.7 3.8H694v.1c0 .5 0 .9-.1 1.3h2.2v-1.4zm8.4 5.5h-8v.9h8v-.9zm0 1.7h-8v1h8v-1zm0 1.8h-8v1.2h2.2c1.9 0 3.9-.1 5.9-.2v-1zm-5.4-9H697v1.5h2.1v-1.5zm7.4-.9c.2 0 .3 0 .4-.1h.2c.1 0 .2 0 .5.3s.4.4.4.5c0 .1 0 .2-.2.2l-.6.6c-.5.6-1.1 1.1-1.7 1.6 1.2.6 2.6.9 4.1 1.1-.2.2-.3.4-.4.6-.2.4-.2.4-.6.3-1.5-.2-2.9-.7-4.1-1.4-1.1.6-2.4 1-4 1.4-.3.1-.4.1-.5-.2-.1-.3-.2-.4-.4-.6 1.5-.2 2.9-.6 4-1.2-.8-.6-1.5-1.3-1.9-2.2h-.9c-.2 0-.2 0-.2-.2v-.6c0-.1 0-.2.2-.2h5.7zm-.1-2.4c0 .2 0 .4.2.5.1.1.4.1.8.1.5 0 .7-.1.9-.3.1-.2.1-.5.2-1.2.2.2.4.3.7.4.3.1.3.1.3.5-.1.8-.3 1-.5 1.2-.2.2-.8.4-1.6.4-.6 0-1.1 0-1.3-.1-.4-.1-.6-.4-.6-1v-1.3H703c0 1.6-.4 2.4-1.6 3-.3.1-.3.1-.5-.2-.2-.2-.3-.4-.5-.5 1.4-.4 1.6-1 1.6-2.3v-.7c0-.1 0-.2.2-.2h4.2s.2 0 .2.2v1.5zm-3.7 3.2c.5.7 1.1 1.2 1.9 1.7.8-.5 1.4-1.1 1.9-1.7h-3.8z"/></g><g><path fill="#1197CC" d="M700.5 371v76"/><path fill="none" stroke="#29ABE2" stroke-width="2" stroke-miterlimit="10" d="M700.5 371v25M700.5 422v25"/><path fill="#29ABE2" d="M692.3 377.6l1.4 1.4 6.8-7.2 6.7 7.2 1.4-1.4-8.1-8.8zM692.3 440.4l1.4-1.4 6.8 7.2 6.7-7.2 1.4 1.4-8.1 8.8z"/><path d="M704.7 402.4h-6l-.6 4c.4 0 .7-.1 1.3-.1 1.2 0 2.4.3 3.4.8 1.2.7 2.2 2 2.2 4 0 3-2.4 5.3-5.8 5.3-1.7 0-3.1-.5-3.9-1l.5-1.6c.6.4 1.9.9 3.3.9 2 0 3.7-1.3 3.7-3.4 0-2-1.4-3.5-4.5-3.5-.9 0-1.6.1-2.2.2l1-7.5h7.5v1.9z"/></g></g><g><g><path fill="none" stroke="#29ABE2" stroke-width="2" stroke-miterlimit="10" d="M587.5 403v57M587.5 486v57"/><path fill="#29ABE2" d="M579.3 409.6l1.4 1.4 6.8-7.2 6.7 7.2 1.4-1.4-8.1-8.8zM579.3 536.4l1.4-1.4 6.8 7.2 6.7-7.2 1.4 1.4-8.1 8.8z"/><path d="M583.6 478.8c.5 0 1 0 1.7-.1 1.2-.2 2.4-.7 3.3-1.5 1-.9 1.8-2.3 2.1-4.2h-.1c-.9 1.1-2.1 1.7-3.7 1.7-2.8 0-4.6-2.1-4.6-4.8 0-3 2.1-5.5 5.3-5.5s5.2 2.6 5.2 6.6c0 3.4-1.2 5.8-2.7 7.3-1.2 1.2-2.9 1.9-4.5 2.1-.8.1-1.4.1-1.9.1v-1.7zm.8-9c0 1.9 1.2 3.3 3 3.3 1.4 0 2.5-.7 3.1-1.6.1-.2.2-.4.2-.8 0-2.7-1-4.7-3.2-4.7-1.8 0-3.1 1.6-3.1 3.8z"/></g><g><path fill="none" stroke="#29ABE2" stroke-width="2" stroke-miterlimit="10" d="M587.5 259v57M587.5 342v57"/><path fill="#29ABE2" d="M579.3 265.6l1.4 1.4 6.8-7.2 6.7 7.2 1.4-1.4-8.1-8.8zM579.3 392.4l1.4-1.4 6.8 7.2 6.7-7.2 1.4 1.4-8.1 8.8z"/><path d="M583.6 334.8c.5 0 1 0 1.7-.1 1.2-.2 2.4-.7 3.3-1.5 1-.9 1.8-2.3 2.1-4.2h-.1c-.9 1.1-2.1 1.7-3.7 1.7-2.8 0-4.6-2.1-4.6-4.8 0-3 2.1-5.5 5.3-5.5s5.2 2.6 5.2 6.6c0 3.4-1.2 5.8-2.7 7.3-1.2 1.2-2.9 1.9-4.5 2.1-.8.1-1.4.1-1.9.1v-1.7zm.8-9c0 1.9 1.2 3.3 3 3.3 1.4 0 2.5-.7 3.1-1.6.1-.2.2-.4.2-.8 0-2.7-1-4.7-3.2-4.7-1.8 0-3.1 1.6-3.1 3.8z"/></g><g><path fill="none" stroke="#29ABE2" stroke-width="2" stroke-miterlimit="10" d="M587.5 115v57M587.5 198v57"/><path fill="#29ABE2" d="M579.3 121.6l1.4 1.4 6.8-7.2 6.7 7.2 1.4-1.4-8.1-8.8zM579.3 248.4l1.4-1.4 6.8 7.2 6.7-7.2 1.4 1.4-8.1 8.8z"/><path d="M583.6 190.8c.5 0 1 0 1.7-.1 1.2-.2 2.4-.7 3.3-1.5 1-.9 1.8-2.3 2.1-4.2h-.1c-.9 1.1-2.1 1.7-3.7 1.7-2.8 0-4.6-2.1-4.6-4.8 0-3 2.1-5.5 5.3-5.5s5.2 2.6 5.2 6.6c0 3.4-1.2 5.8-2.7 7.3-1.2 1.2-2.9 1.9-4.5 2.1-.8.1-1.4.1-1.9.1v-1.7zm.8-9c0 1.9 1.2 3.3 3 3.3 1.4 0 2.5-.7 3.1-1.6.1-.2.2-.4.2-.8 0-2.7-1-4.7-3.2-4.7-1.8 0-3.1 1.6-3.1 3.8z"/></g><g><path fill="none" stroke="#29ABE2" stroke-width="2" stroke-miterlimit="10" d="M587.5 82v28"/><path fill="#29ABE2" d="M579.3 88.9l1.5 1.3 6.7-7.2 6.7 7.2 1.5-1.3-8.2-8.8zM579.3 103.3l1.5-1.4 6.7 7.2 6.7-7.2 1.5 1.4-8.2 8.8z"/><path d="M565.7 103.7v-1.3l1.7-1.6c4-3.7 5.8-5.6 5.8-7.9 0-1.5-.8-3-3.1-3-1.4 0-2.6.7-3.3 1.3l-.7-1.4c1.1-.9 2.6-1.5 4.4-1.5 3.4 0 4.8 2.2 4.8 4.4 0 2.8-2.1 5-5.4 8.1l-1.2 1.1h7v1.7h-10z"/></g><g fill="#6D6D6D"><path d="M549.5 293c.1-.2.2-.2.3-.1.9.5 1.9 1.2 2.8 2.1.1.1.1.1-.1.3l-.4.6c-.1.2-.2.2-.3.1-.9-.9-1.7-1.6-2.7-2.2-.1-.1-.1-.1 0-.3l.4-.5zm1.4 11.1c-.2.4-.4.7-.4.8 0 .1-.1.2-.2.2s-.1 0-.3-.1c-.3-.2-.6-.5-.9-.7.4-.4.7-.8 1.1-1.6.7-1.3 1.3-2.5 2.1-4.4.1.2.3.4.6.6.3.2.3.2.2.6-.7 1.7-1.3 3.1-2.2 4.6zm-.2-15.9c.1-.2.2-.2.3-.1.9.6 1.9 1.4 2.7 2.2.1.1.1.1-.1.3l-.4.5c-.1.2-.2.2-.3.1-.9-.9-1.7-1.6-2.7-2.3-.1-.1-.1-.1 0-.3l.5-.4zm15.9 16.3c0 .1 0 .2-.2.2h-13c-.1 0-.2 0-.2-.2v-.9c0-.1 0-.2.2-.2H559.1v-5.2h-4.2c-.1 0-.1 0-.1-.2v-.9c0-.1 0-.2.1-.2h4.2V293h-4.7c-.1 0-.2 0-.2-.2v-.8c0-.1 0-.2.2-.2h11.3c.1 0 .2 0 .2.2v.9c0 .1 0 .2-.2.2h-5.3v4.2h4.6c.2 0 .2 0 .2.2v.9c0 .1 0 .2-.2.2h-4.6v5.2h6c.1 0 .2 0 .2.2v.5zm-8.5-16.8c.2-.2.2-.2.3-.1 1 .6 2.2 1.4 3.2 2.3.1.1.1.2-.1.3l-.4.5c-.2.2-.2.2-.4.1-1-1-2.1-1.8-3.2-2.4-.1-.1-.1-.1.1-.3l.5-.4zM566.6 315.2c0 .1 0 .2-.2.2H549c-.1 0-.2 0-.2-.2v-.9c0-.1 0-.2.2-.2H554.3c-.3-1-.6-1.7-1.1-2.6-.1-.1 0-.1.2-.2l.6-.2c.2-.1.2 0 .3.1.5.8.9 1.8 1.2 2.9h3.8c.4-.8.7-1.6.9-2.2.1-.3.2-.6.2-1 .4.1.9.2 1.2.3.2.1.2.1.2.2s-.1.2-.1.3c-.1.1-.2.2-.3.4-.3.6-.6 1.3-.9 1.9H566.3c.1 0 .2 0 .2.2v1zm-1.4-4.7c0 .2 0 .2-.2.2h-14.8c-.1 0-.2 0-.2-.2v-.8c0-.1 0-.2.2-.2H556.9v-.1c0-1 0-1.5-.1-2 .5 0 .9 0 1.3.1.2 0 .2.1.2.2s0 .2-.1.4-.1.5-.1 1.4v.1h7c.1 0 .2 0 .2.2v.7zm-2 11.1v3.7c0 .1 0 .2-.2.2h-.9c-.1 0-.2 0-.2-.2v-.9h-8.7v1c0 .1 0 .1-.2.1h-.9c-.1 0-.2 0-.2-.1v-8.2c0-.1 0-.2.2-.2h10.8c.1 0 .2 0 .2.2v4.4zm-1.2-3.5h-8.7v2h8.7v-2zm0 3.1h-8.7v2.2h8.7v-2.2zM557.5 330.4c0 .1 0 .2-.2.2h-3c.4.6.6 1.2.9 2 0 .1 0 .2-.2.2l-.7.2c-.3.1-.3.1-.3-.1-.2-.8-.6-1.6-.9-2.3h-1.6c-.5.8-1.2 1.6-1.8 2.3-.1.1-.2.2-.3.2-.1 0-.1-.1-.3-.2-.2-.2-.4-.4-.6-.5 1.3-1.2 2.2-2.5 2.8-3.9.2-.4.2-.7.3-1 .5.1.9.2 1.2.3.1 0 .2.1.2.2s-.1.2-.2.2c-.1.1-.2.2-.3.5-.1.3-.3.6-.4.8H557.4c.1 0 .2 0 .2.2v.7zm-5.7 9.3v-2.5c-.6.8-1.4 1.6-2.1 2.2-.1.1-.2.2-.3.2-.1 0-.2-.1-.3-.3-.2-.3-.3-.5-.5-.6 1.9-1.5 3.2-3.1 4.1-4.8.2-.4.4-.8.5-1.1.4.2.8.3 1.1.5l.2.2c0 .1 0 .2-.2.2-.1.1-.3.3-.5.6-.2.4-.5.9-.8 1.4v9.6c0 .1 0 .1-.1.1h-1c-.1 0-.2 0-.2-.1v-5.6zm14.7-3.2c0 .1 0 .2-.2.2H563.2v6.9c0 .7-.1 1.2-.6 1.4-.5.3-1.2.3-2.8.3-.4 0-.4 0-.5-.4-.1-.4-.2-.7-.4-.9.6.1 1.1.1 1.8.1 1.1 0 1.3-.1 1.3-.8v-6.6h-7.7c-.1 0-.2 0-.2-.2v-.9c0-.1 0-.2.2-.2h7.7v-.1c0-1.2 0-1.8-.1-2.4.5 0 .9.1 1.3.1.1 0 .3.1.3.2s-.1.2-.1.4c-.1.2-.1.6-.1 1.7v.1H566.4c.1 0 .2 0 .2.2v.9zm-10 1.6c.2-.1.2-.1.3 0 1 .9 1.7 1.8 2.4 3 .1.1 0 .2-.1.3l-.5.4c-.2.2-.3.2-.4 0-.7-1.2-1.4-2.2-2.3-3-.1-.1-.1-.2.1-.3l.5-.4zm9.9-7.7c0 .1 0 .2-.1.2h-3.9c.4.5.7 1.1.9 1.8 0 .1 0 .2-.2.2l-.6.2c-.3.1-.3.1-.4-.1-.2-.7-.6-1.4-1-2.1h-1.7c-.4.7-.9 1.5-1.5 2.2-.1.1-.2.2-.3.2s-.2-.1-.3-.2c-.2-.2-.4-.3-.7-.4 1.2-1.3 1.9-2.5 2.4-3.9.1-.2.2-.6.2-.9.4.1.9.2 1.2.3.1 0 .2.1.2.2s-.1.2-.2.3c-.1.1-.1.2-.3.5-.1.3-.2.5-.3.8h6.3c.1 0 .1 0 .1.2v.5zM555.9 356.3c0 .1 0 .2-.2.2H552l-.6 2.1h3.3c.1 0 .2 0 .2.2-.1.3-.1.7-.1 1-.2 2.1-.4 3.5-.8 4.5-.3.6-.8.9-1.6.9-.3 0-.7 0-1-.1-.3 0-.3-.1-.4-.4-.1-.3-.2-.7-.3-.8.6.1 1 .2 1.4.2.5 0 .8-.1.9-.5.3-.9.5-2.4.6-4h-2.7l-.3.8c-.1.1-.1.1-.3.1l-.6-.1c-.2-.1-.2-.1-.2-.2.5-1.2.9-2.5 1.2-3.7h-2c-.1 0-.1 0-.1-.2v-.8c0-.1 0-.2.1-.2H555.5c.1 0 .2 0 .2.2v.8zm-.8-4.4v1.6c0 .1 0 .2-.2.2h-5.1c-.1 0-.2 0-.2-.2v-4.9c0-.1 0-.2.2-.2H554.9c.1 0 .2 0 .2.2v3.3zm-1.1-2.4h-3.2v3.2h3.2v-3.2zm11.2 2c.2 0 .3 0 .3-.1s.2-.1.2-.1c.2 0 .3.1.6.3.3.2.4.4.4.5 0 .1-.1.2-.2.2-.1.1-.2.2-.3.5-.2.4-.5.9-.9 1.6-.1.2-.2.2-.2.2s-.1 0-.3-.1c-.2-.1-.5-.2-.7-.3.5-.6.8-1.2 1.1-1.7h-7.5v2.3c0 1.6 0 3.5-.2 5.2-.2 1.7-.7 3.5-1.7 5.1l-.2.2c-.1 0-.1-.1-.3-.2-.2-.2-.5-.4-.7-.5 1.2-1.5 1.6-3.2 1.8-5 .2-1.5.2-3.2.2-4.9v-3.1c0-.1 0-.2.1-.2h3.7v-2.6c0-.6 0-1.1-.1-1.5.5 0 .8 0 1.2.1.1 0 .2.1.2.2s-.1.2-.1.3c-.1.1-.1.5-.1 1v.1h3.5c.1 0 .2 0 .2.2v.7c0 .2 0 .2-.2.2h-3.5v1.4h3.7zm-4.3 8.2c-.1.2-.1.5-.1 1-.2 2-.8 3.5-2.9 4.7-.1.1-.2.1-.3.1-.1 0-.2-.1-.3-.2-.2-.2-.4-.4-.6-.5 2.1-.9 2.8-2.1 2.9-4.1v-1.6c.4 0 .8.1 1.1.1.2 0 .3.1.3.2 0 0-.1.2-.1.3zm.2-3.4c0 .5.1.7.3.8.2.1.7.1 1.4.1.8 0 1.4-.1 1.7-.3.3-.2.4-.7.4-1.6.2.2.5.3.7.4.3.1.3.1.3.4-.1.8-.3 1.2-.6 1.5-.3.3-1.2.5-2.4.5-1 0-1.8-.1-2.1-.2-.3-.2-.6-.4-.6-1.3v-1l-1.7.2c-.1 0-.1 0-.2-.1l-.1-.7c0-.1 0-.1.1-.1s.5 0 1.8-.2v-.4c0-.6-.1-1.2-.1-1.4.4 0 .8.1 1.1.1.1 0 .2.1.2.2s0 .1-.1.2-.1.3-.1.9v.2l.8-.1c1.3-.1 1.7-.2 1.8-.3.1 0 .1 0 .1.1l.1.7c0 .1 0 .2-.1.2l-1.8.2-.9.1v.9zm2.3 7.2c0 .4 0 .5.2.6.2.1.4.1.9.1.7 0 .9-.1 1.1-.4.2-.3.3-.9.3-2.1.2.1.4.2.7.4.3.1.3.1.3.5-.1 1.3-.2 1.8-.5 2.1-.3.3-.5.6-1.9.6-.8 0-1.3 0-1.7-.2-.3-.2-.5-.5-.5-1.3v-2.4c0-1 0-1.7-.1-2.2.4 0 .8.1 1.2.1.1 0 .2.1.2.2s-.1.2-.1.4c-.1.2-.1.4-.1 1.5v2.1z"/></g></g></svg>