<svg xmlns="http://www.w3.org/2000/svg" viewBox="0 0 760 640" enable-background="new 0 0 760 640"><g stroke-miterlimit="10"><g fill="#eee" stroke="#999"><path d="M516.5 257.1h144v144h-144z"/><path stroke-width="2" d="M516.5 401h144M516.5 257h144"/></g><g fill="#eee" stroke="#999"><path d="M660.5 336.1h80v80h-80z"/><path stroke-width="2" d="M660.5 336h80M660.5 416h80"/></g><g fill="none" stroke="#ccc"><path d="M180 560V80M341 560V80M20.5 239.5h480M20.5 400.5h480"/></g><g fill="none" stroke="#999" stroke-width="2"><path d="M20.5 80.1h720v480h-720z"/><path d="M20.5 80.1h480v480h-480z"/><path d="M660.5 560V80M516.5 560V80"/></g></g><g><g><path fill="none" stroke="#999" stroke-width="2" stroke-miterlimit="10" d="M20.5 601h340M400.5 601h340"/><path fill="#999" d="M19.5 593h2v16h-2zM739.5 593h2v16h-2z"/><path d="M375.2 610v-4.2H368v-1.4l7-10h2.3v9.7h2.2v1.7h-2.2v4.2h-2.1zm0-5.9v-5.2c0-.8 0-1.6.1-2.4h-.1c-.5.9-.9 1.6-1.3 2.3L370 604h5.2zM390.2 596.2h-6l-.6 4c.4 0 .7-.1 1.3-.1 1.2 0 2.4.3 3.4.8 1.2.7 2.2 2 2.2 4 0 3-2.4 5.3-5.8 5.3-1.7 0-3.1-.5-3.9-1l.5-1.6c.6.4 1.9.9 3.3.9 2 0 3.7-1.3 3.7-3.4 0-2-1.4-3.5-4.5-3.5-.9 0-1.6.1-2.2.2l1-7.5h7.5v1.9z"/></g><g><path fill="none" stroke="#999" stroke-width="2" stroke-miterlimit="10" d="M20.5 578h220M280.5 578h220"/><path fill="#999" d="M19.5 570h2v16h-2zM499.5 570h2v16h-2z"/><path d="M249.1 584.6c.6.4 2 1 3.5 1 2.7 0 3.6-1.7 3.5-3 0-2.2-2-3.1-4-3.1h-1.2v-1.6h1.2c1.5 0 3.5-.8 3.5-2.6 0-1.2-.8-2.4-2.7-2.4-1.2 0-2.4.6-3.1 1l-.6-1.5c.8-.6 2.4-1.2 4.1-1.2 3.1 0 4.5 1.8 4.5 3.7 0 1.6-1 3-2.9 3.7 1.9.4 3.5 1.8 3.5 4 0 2.5-1.9 4.7-5.7 4.7-1.8 0-3.3-.6-4.1-1.1l.5-1.6zM271.3 579c0 5.3-2 8.2-5.4 8.2-3 0-5.1-2.9-5.2-8 0-5.2 2.3-8.1 5.4-8.1 3.3 0 5.2 3 5.2 7.9zm-8.5.3c0 4.1 1.2 6.4 3.2 6.4 2.2 0 3.2-2.5 3.2-6.5 0-3.8-1-6.4-3.2-6.4-1.8 0-3.2 2.2-3.2 6.5z"/></g><g><path fill="none" stroke="#999" stroke-width="2" stroke-miterlimit="10" d="M500.5 578h100M640.5 578h100"/><path fill="#999" d="M499.5 570h2v16h-2zM739.5 570h2v16h-2z"/><path d="M613.2 573.4l-2.8 1.5-.4-1.6 3.4-1.8h1.8V587h-2v-13.6zM630.2 573.2h-6l-.6 4c.4 0 .7-.1 1.3-.1 1.2 0 2.4.3 3.4.8 1.2.7 2.2 2 2.2 4 0 3-2.4 5.3-5.8 5.3-1.7 0-3.1-.5-3.9-1l.5-1.6c.6.4 1.9.9 3.3.9 2 0 3.7-1.3 3.7-3.4 0-2-1.4-3.5-4.5-3.5-.9 0-1.6.1-2.2.2l1-7.5h7.5v1.9z"/></g></g><g><g><path fill="none" stroke="#999" stroke-width="2" stroke-miterlimit="10" d="M660.5 58h30M710.5 58h30"/><path fill="#999" d="M659.5 50h2v16h-2zM739.5 50h2v16h-2z"/><path fill="none" d="M694.5 46.5h13.9v30.4h-13.9z"/><path d="M704.9 52.8h-6l-.6 4c.4 0 .7-.1 1.3-.1 1.2 0 2.4.3 3.4.8 1.2.7 2.2 2 2.2 4 0 3-2.4 5.3-5.8 5.3-1.7 0-3.1-.5-3.9-1l.5-1.6c.6.4 1.9.9 3.3.9 2 0 3.7-1.3 3.7-3.4 0-2-1.4-3.5-4.5-3.5-.9 0-1.6.1-2.2.2l1-7.5h7.5v1.9z"/></g><g><path fill="none" stroke="#999" stroke-width="2" stroke-miterlimit="10" d="M516.5 58h62M598.5 58h62"/><path fill="#999" d="M515.5 50h2v16h-2zM659.5 50h2v16h-2z"/><path d="M583.8 65.5c.5 0 1 0 1.7-.1 1.2-.2 2.4-.7 3.3-1.5 1-.9 1.8-2.3 2.1-4.2h-.1c-.9 1.1-2.1 1.7-3.7 1.7-2.8 0-4.6-2.1-4.6-4.8 0-3 2.1-5.5 5.3-5.5s5.2 2.6 5.2 6.6c0 3.4-1.2 5.8-2.7 7.3-1.2 1.2-2.9 1.9-4.5 2.1-.8.1-1.4.1-1.9.1v-1.7zm.8-9c0 1.9 1.2 3.3 3 3.3 1.4 0 2.5-.7 3.1-1.6.1-.2.2-.4.2-.8 0-2.7-1-4.7-3.2-4.7-1.8 0-3.1 1.6-3.1 3.8z"/></g></g><g><g fill="#1197CC"><path d="M700.8 225.2c-.7.6-1.5 1.2-2.3 1.7-.2.1-.3.2-.4.2-.1 0-.2-.2-.4-.5-.2-.4-.4-.7-.7-1-.2.5-.4.9-.6 1.4 1.3 1.7 1.5 2.7 1.5 4.1 0 1.6-.7 2.4-2.5 2.7-.6.1-.6.1-.7-.6-.1-.6-.2-.9-.4-1.2 1.2.1 1.7-.2 1.7-1.4 0-.9-.5-2-1.6-3.5.8-1.6 1.1-2.8 1.6-4.3h-1.9v15.7c0 .2 0 .2-.2.2h-1.6c-.2 0-.2 0-.2-.2v-17.4c0-.2 0-.2.2-.2h4.2c.2 0 .3 0 .4-.1.1 0 .2-.1.3-.1.2 0 .3.1.8.7.4.5.5.6.5.8 0 .2-.1.2-.2.3-.2.2-.3.4-.4.6-.3.8-.6 1.5-.8 2.2 2-1.1 3.4-2.3 4.9-4.2.2-.3.4-.6.5-1 .6.1 1.3.2 1.9.4.2.1.2.1.2.2s0 .2-.2.3l-.2.1c1.6 1.8 3.4 3 5.8 3.9-.2.3-.5.7-.7 1.2-.1.4-.2.5-.4.5-.1 0-.2-.1-.5-.2-.9-.5-1.8-1-2.6-1.6v.9c0 .2 0 .2-.2.2h-4.7c-.2 0-.2 0-.2-.2v-.6zm-.4 9.2h-2.5c-.2 0-.2 0-.2-.2V233c0-.2 0-.2.2-.2H709.3c.2 0 .2 0 .2.2v1.2c0 .2 0 .2-.2.2h-3c1.1 1 1.8 1.9 2.6 3.1.1.2.1.3-.1.4l-1.2.7c-.1.1-.2.1-.2.1-.1 0-.1 0-.1-.1-.2-.4-.4-.7-.7-1.1-2.4.3-5 .5-7.5.7-.5 0-.7.1-.9.2-.1 0-.2.1-.3.1s-.2-.1-.3-.3c-.2-.5-.3-1.1-.4-1.7h2.3c.5-.8.8-1.4 1.1-2h-.2zm1.1-2.6H699c-.2 0-.2 0-.2-.2v-1.2c0-.2 0-.2.2-.2h4.6c.4-.5.7-.9 1.1-1.5h-5.3c-.2 0-.2 0-.2-.2v-1.2c0-.2 0-.2.2-.2h6.3c.2 0 .3 0 .3-.1s.1-.1.2-.1c.2 0 .3.1.8.5s.5.6.5.7-.1.2-.2.3c-.2.1-.3.2-.6.6-.3.4-.6.8-.8 1.1h2.4c.2 0 .2 0 .2.2v1.2c0 .2 0 .2-.2.2h-6.8zm2.6-7.1h1.3c-.8-.6-1.5-1.3-2.2-2.1-.6.8-1.2 1.5-1.9 2.1h2.8zm-1.5 9.7c-.3.7-.6 1.3-1 1.9 1.3-.1 2.6-.1 3.8-.3l-.7-.8c-.1-.2-.1-.2.1-.4l1-.5h-3.2zM704 250.7l-2.4 2.3-4.6-4.9 2.3-2 4.7 4.6zM696.5 261c.2 0 .3 0 .4-.1.1 0 .2-.1.3-.1.2 0 .3 0 .8.6.4.5.5.6.5.8 0 .2-.1.2-.2.4-.2.2-.3.4-.4.6-.5 1.4-.8 2.1-1.5 3.5 1.2 1.2 1.5 2.8 1.5 4 0 1.5-.7 2.4-2.4 2.7-.6.1-.6.1-.7-.6-.1-.6-.2-.9-.4-1.2 1.2.1 1.6-.3 1.6-1.4 0-.9-.4-2-1.6-3.4.8-1.6 1.1-2.5 1.6-4h-1.9v15.7c0 .2 0 .2-.2.2h-1.6c-.2 0-.2 0-.2-.2v-17.4c0-.2 0-.2.2-.2h4.2zm7.1 11.5c-1.1 1.9-2.5 3.2-4.3 4.3-.2.1-.3.2-.4.2-.1 0-.2-.1-.5-.4-.2-.2-.7-.5-1-.6 1.9-.9 3.3-2 4.3-3.5h-1.1c-.7.8-1.5 1.4-2.3 2-.2.1-.4.2-.5.2-.1 0-.3-.1-.5-.4-.2-.3-.7-.6-1-.7 1.4-.7 2.5-1.6 3.5-2.9.2-.3.3-.6.5-.9h-1.8c-.2 0-.2 0-.2-.2v-1.3c0-.2 0-.2.2-.2h11c.2 0 .2 0 .2.2v1.3c0 .2 0 .2-.2.2H701.4l.6.2c.3.1.3.2.3.3 0 .1 0 .2-.1.2l-.3.3h7c.2 0 .3 0 .3.2-.1.6-.1 1.3-.1 1.9-.1 1.9-.3 3.1-.5 4-.3 1.1-.9 1.5-2.1 1.5h-.9c-.5 0-.5 0-.6-.7-.1-.5-.3-1-.5-1.3.7.1.9.1 1.4.1.5 0 .7-.2.9-.6.2-.5.3-1.3.4-3.4h-.6c-1 2.5-2.3 4.4-4.7 5.8-.2.1-.4.2-.5.2-.1 0-.2-.1-.5-.4-.2-.2-.7-.5-.9-.7 2.2-1.1 3.7-2.7 4.7-5h-1.1zm1.8-11.4h2.3c.2 0 .2 0 .2.2v5.8c0 .2 0 .2-.2.2h-8.1c-.2 0-.2 0-.2-.2v-5.8c0-.2 0-.2.2-.2h5.8zm-4.2 2.4h4.8v-.9h-4.8v.9zm4.8 1.4h-4.8v.9h4.8v-.9zM699.5 281.5h2c.2 0 .3 0 .3.2 0 .7 0 1.3.1 2.2.6 5.4 3.1 9.5 7.8 12.4-.4.3-.8.8-1.2 1.5-.2.3-.2.5-.4.5-.1 0-.2-.1-.5-.3-3.6-2.7-5.9-5.9-6.9-9.9-1.1 4.1-3.7 7.7-7.4 10-.2.1-.4.2-.5.2-.1 0-.2-.2-.4-.5-.3-.5-.8-1-1.2-1.3 5-2.4 7.8-7.2 8-12.9h-4.5c-.2 0-.2 0-.2-.2v-1.7c0-.2 0-.2.2-.2h4.8zM693.9 308.5h-2.3c-.2 0-.2 0-.2-.2V307c0-.2 0-.2.2-.2H696.3c.2-.6.5-1.3.6-1.7.1-.4.1-.5.2-1 .6.1 1.1.2 1.6.3.2.1.3.1.3.2s-.1.2-.2.3c-.1.1-.2.2-.3.4-.2.4-.3.9-.5 1.4h1.7c.2 0 .2 0 .2.2v1.4c0 .2 0 .2-.2.2h-5.8zm.3-4.6H692c-.2 0-.2 0-.2-.2v-1.3c0-.2 0-.2.2-.2h2.6v-.2c0-.7 0-1.3-.1-1.7.8 0 1.4.1 2.1.1.2 0 .3.1.3.2s-.1.2-.1.4c-.1.2-.1.4-.1 1.1v.2h2.7c.2 0 .2 0 .2.2v1.3c0 .2 0 .2-.2.2h-5.2zm4.8 13.3c1.2-.4 2-.8 2.9-1.5.3-.2.5-.4.7-.6.5.3.9.5 1.3.8.2.1.2.2.2.3 0 .1-.1.2-.2.3-.2.1-.3.2-.5.3-.9.7-1.8 1.3-3.1 1.8-.2.1-.4.1-.5.1-.2 0-.2-.1-.4-.5s-.5-.7-.7-.9h-1.3c-.2 0-.2 0-.2-.2v-.4h-3.1v.9c0 .2 0 .2-.2.2h-1.4c-.2 0-.2 0-.2-.2v-8.1c0-.2 0-.2.2-.2h6.3c.2 0 .2 0 .2.2v7.7zm-5.1-13.1c.3-.1.3 0 .4.2.2.5.5 1 .7 1.8.1.2 0 .2-.3.3l-1.1.3c-.3 0-.3 0-.4-.2-.2-.7-.4-1.2-.6-1.8-.1-.2-.1-.2.2-.3l1.1-.3zm.2 6.8v1.4h3.1v-1.4h-3.1zm3.1 4.4v-1.5h-3.1v1.5h3.1zm5.8-.2h-2.3c-.2 0-.2 0-.2-.2v-8.6c0-.2 0-.2.2-.2H708.6c.2 0 .2 0 .2.2v8.6c0 .2 0 .2-.2.2H703zm3.1-14.1h2.2c.2 0 .2 0 .2.2v3.8c0 .2 0 .2-.2.2H701c-.2 0-.2 0-.2-.2v-3.8c0-.2 0-.2.2-.2h5.1zm-3.7 6.6v1.1h4.5v-1.1h-4.5zm4.5 3.5V310h-4.5v1.1h4.5zm0 1.4h-4.5v1.1h4.5v-1.1zm-.3-10.1h-3.9v1.3h3.9v-1.3zm-.3 13c.1-.1.2-.1.3-.1.1 0 .1 0 .2.1.9.8 2 1.4 3.4 1.8-.2.3-.5.6-.7 1-.2.4-.2.5-.4.5-.1 0-.3-.1-.5-.2-1.3-.6-2.3-1.3-3.2-2.1-.2-.2-.1-.2.1-.4l.8-.6z"/></g><g><path fill="none" stroke="#1197CC" stroke-width="5" stroke-miterlimit="10" d="M700 336v25M700 391v25"/><path fill="#1197CC" d="M684.5 334h32v5h-32zM684.5 414h32v5h-32z"/><path d="M704.7 369.4h-6l-.6 4c.4 0 .7-.1 1.3-.1 1.2 0 2.4.3 3.4.8 1.2.7 2.2 2 2.2 4 0 3-2.4 5.3-5.8 5.3-1.7 0-3.1-.5-3.9-1l.5-1.6c.6.4 1.9.9 3.3.9 2 0 3.7-1.3 3.7-3.4 0-2-1.4-3.5-4.5-3.5-.9 0-1.6.1-2.2.2l1-7.5h7.5v1.9z"/></g><g><path fill="none" stroke="#1197CC" stroke-width="5" stroke-miterlimit="10" d="M700 416v57M700 503v57"/><path fill="#1197CC" d="M684.5 414h32v5h-32zM684.5 558h32v5h-32z"/><path d="M696.6 493.8c.5 0 1 0 1.7-.1 1.2-.2 2.4-.7 3.3-1.5 1-.9 1.8-2.3 2.1-4.2h-.1c-.9 1.1-2.1 1.7-3.7 1.7-2.8 0-4.6-2.1-4.6-4.8 0-3 2.1-5.5 5.3-5.5s5.2 2.6 5.2 6.6c0 3.4-1.2 5.8-2.7 7.3-1.2 1.2-2.9 1.9-4.5 2.1-.8.1-1.4.1-1.9.1v-1.7zm.8-9c0 1.9 1.2 3.3 3 3.3 1.4 0 2.5-.7 3.1-1.6.1-.2.2-.4.2-.8 0-2.7-1-4.7-3.2-4.7-1.8 0-3.1 1.6-3.1 3.8z"/></g></g><g><g fill="#6c6"><path d="M550.5 293.9c.2-.2.2-.2.4-.1 1 .5 1.9 1.2 2.8 2 .1.1.1.1.1.2s0 .1-.1.2l-.9 1.3c-.1.1-.1.1-.2.1 0 0-.1 0-.2-.1-.9-.8-1.8-1.6-2.8-2.2l-.1-.1c0-.1 0-.1.1-.2l.9-1.1zm.1 9.7c.6-1.1 1.3-2.7 2-4.6.3.3.7.7 1.1 1 .3.2.4.3.4.5 0 .1 0 .2-.1.5-.6 1.6-1.3 3.1-1.9 4.4-.2.3-.3.6-.3.8 0 .2-.1.3-.3.3-.1 0-.2 0-.4-.1-.5-.3-1-.6-1.5-1.1.4-.7.7-1.1 1-1.7zm.8-14.8c.2-.2.2-.2.4-.1 1 .6 2 1.3 2.9 2.1.1.1.1.1.1.2s0 .1-.1.2l-.9 1.2c-.2.2-.2.2-.3.1-.9-.8-2-1.7-2.9-2.3l-.1-.1c0-.1 0-.1.1-.2l.8-1.1zm5.7 17h-2.8c-.2 0-.2 0-.2-.2v-1.5c0-.2 0-.2.2-.2h5.3v-4.3H555.7c-.2 0-.2 0-.2-.2v-1.5c0-.2 0-.2.2-.2H559.6v-3.5h-4.4c-.2 0-.2 0-.2-.2v-1.5c0-.2 0-.2.2-.2h11.5c.2 0 .2 0 .2.2v1.5c0 .2 0 .2-.2.2h-4.9v3.5h4.3c.2 0 .2 0 .2.2v1.5c0 .2 0 .2-.2.2h-4.3v4.3h5.6c.2 0 .2 0 .2.2v1.5c0 .2 0 .2-.2.2h-10.3zm2-17.3c.2-.2.2-.2.4-.1 1 .4 2.4 1.3 3.4 2.1.1.1.1.1.1.2s0 .1-.2.2l-1 1.2c-.2.2-.2.2-.4.1-.9-.9-2.3-1.7-3.4-2.2-.2-.1-.2-.1 0-.3l1.1-1.2zM552.3 316.6h-2.5c-.2 0-.2 0-.2-.2V315c0-.2 0-.2.2-.2h4.7c-.2-.8-.4-1.3-.8-2-.1-.2 0-.2.2-.3l1.4-.4c.2-.1.3 0 .4.2.4.7.6 1.4 1 2.4h3.4c.3-.7.5-1.1.7-1.7.1-.3.2-.6.2-1 .7.1 1.3.3 1.9.5.2.1.3.1.3.2s-.1.2-.2.3c-.1.1-.2.3-.3.5l-.5 1.2h5.2c.2 0 .2 0 .2.2v1.4c0 .2 0 .2-.2.2h-15.1zm1.3-4.6h-2.7c-.2 0-.2 0-.2-.2v-1.4c0-.2 0-.2.2-.2h6.4c0-.8 0-1.3-.1-1.8.7 0 1.4 0 2.2.1.2 0 .3.1.3.2s-.1.2-.1.4c-.1.2-.1.4-.1 1.1h6.6c.2 0 .2 0 .2.2v1.4c0 .2 0 .2-.2.2h-12.5zm-.8 14.7c-.2 0-.2 0-.2-.2V318.1c0-.2 0-.2.2-.2h11.5c.2 0 .2 0 .2.2V326.5c0 .2 0 .2-.2.2h-1.6c-.2 0-.2 0-.2-.2v-.7h-7.8v.8c0 .2 0 .2-.2.2h-1.7zm1.8-5.8h7.8v-1.3h-7.8v1.3zm7.8 3.1v-1.5h-7.8v1.5h7.8zM552.2 341.6v-2.3c-.5.5-.9 1-1.4 1.4-.2.2-.3.3-.4.3-.1 0-.2-.1-.4-.5-.3-.5-.5-.9-.8-1.3 1.8-1.3 2.9-2.7 3.8-4.2.3-.5.6-1.1.7-1.5.3.1.6.2.8.3-.2-.7-.5-1.4-.8-2h-1.1c-.5.7-1.1 1.4-1.7 2.1-.2.2-.3.3-.4.3-.1 0-.2-.1-.4-.4-.3-.4-.6-.7-1-.9 1.2-1 2.1-2.3 2.7-3.5.2-.4.3-.7.4-1.2.7.1 1.3.2 1.9.4.2 0 .3.1.3.3 0 .1-.1.2-.2.3-.1.1-.2.2-.3.5l-.2.5h4.4c.2 0 .2 0 .2.2v1.3c0 .2 0 .2-.2.2h-2.2c.3.5.5 1 .8 1.5.1.2.1.3-.2.3l-1.5.3.5.3c.2.1.3.2.3.3 0 .1 0 .2-.2.3-.1.1-.3.3-.5.7-.2.4-.5.8-.8 1.2v9.7c0 .2 0 .2-.2.2h-1.6c-.2 0-.2 0-.2-.2v-4.9zm6-3.5h-2.7c-.2 0-.2 0-.2-.2v-1.5c0-.2 0-.2.2-.2H562.6c0-.9 0-1.5-.2-2.3.8 0 1.4.1 2.1.2.2 0 .3.1.3.2 0 .2-.1.3-.1.4-.1.2-.1.6-.1 1.5h2.7c.2 0 .2 0 .2.2v1.5c0 .2 0 .2-.2.2h-2.7v2.5c0 1.4.1 2.4.1 3.6 0 .9-.1 1.5-.7 1.9-.6.3-1.3.5-3 .5-.6 0-.6 0-.8-.6-.1-.6-.4-1.2-.6-1.6.8.1 1.3.1 2 .1.9 0 1-.1 1-.6v-5.7h-4.4zm-.7.9c.1-.1.2-.1.2-.1.1 0 .1 0 .2.1.9.9 1.6 1.7 2.4 2.9.1.2.1.2-.1.4l-1.1.8c-.1.1-.2.1-.3.1-.1 0-.1 0-.2-.1-.7-1.1-1.4-2.1-2.3-3-.2-.2-.1-.2.1-.4l1.1-.7zm3.2-7.1c-.4.7-.8 1.3-1.4 1.9-.2.2-.3.3-.4.3-.1 0-.2-.1-.4-.4-.3-.4-.7-.7-1-.9 1.1-1.1 1.9-2.3 2.4-3.5.1-.3.2-.7.3-1.1.6.1 1.4.2 1.8.3.2.1.3.1.3.3 0 .1-.1.2-.2.3-.1.1-.2.2-.3.6-.1.1-.1.3-.2.4h5.6c.2 0 .2 0 .2.2v1.3c0 .2 0 .2-.2.2H564c.3.4.5.8.7 1.3.1.2 0 .3-.2.3l-1.3.2c-.3 0-.3.1-.4-.2-.2-.6-.5-1.1-.8-1.7h-1.3zM553.1 357.8c-.1.5-.3 1-.4 1.6h3c.2 0 .2 0 .2.3-.1.4-.1.9-.1 1.3-.2 2.5-.4 3.8-.8 4.7-.3.6-.8.9-1.8.9h-.9c-.5 0-.5-.1-.6-.6-.1-.6-.2-1.1-.4-1.4.6.1 1 .2 1.4.2.4 0 .6-.1.8-.4.3-.6.4-1.6.4-3.1h-1.8c-.1.3-.2.5-.3.7-.1.2-.1.2-.4.2l-1.3-.2c-.2 0-.3-.1-.2-.3.5-1.2.9-2.5 1.2-3.7h-1.6c-.2 0-.2 0-.2-.2v-1.4c0-.2 0-.2.2-.2H556.3c.2 0 .2 0 .2.2v1.4c0 .2 0 .2-.2.2h-3.2zm.9-8.7h1.8c.2 0 .2 0 .2.2v5.2c0 .2 0 .2-.2.2h-5.4c-.2 0-.2 0-.2-.2v-5.2c0-.2 0-.2.2-.2h3.6zm.2 1.7H552v2.2h2.2v-2.2zm6.5 6.4c-1.1.1-1.5.1-1.7.2 0 1.4-.1 2.6-.2 3.9-.2 1.7-.7 3.4-1.6 4.9-.1.2-.2.3-.4.3-.1 0-.2-.1-.4-.3-.4-.4-.7-.7-1.1-.9 1.1-1.3 1.5-2.8 1.7-4.5.2-1.4.2-3.1.2-5.3v-2.9c0-.2 0-.2.2-.2h3.3v-2.3c0-.6 0-1.1-.1-1.6.8 0 1.2.1 2 .1.2 0 .3.1.3.2s-.1.2-.1.3c-.1.1-.1.3-.1.7h3.5c.2 0 .2 0 .2.2v1.2c0 .2 0 .2-.2.2h-3.5v1h3c.2 0 .3 0 .4-.1.1 0 .2-.1.3-.1.2 0 .3.1.8.4.5.3.6.5.6.6 0 .2-.1.3-.2.4-.1.1-.1.2-.3.5-.2.4-.4 1-.9 1.7-.1.2-.2.3-.3.3-.1 0-.2-.1-.4-.2-.4-.2-.7-.3-1-.4l.1 1.3c0 .2-.1.2-.2.2-.2 0-.5 0-1.7.1l-.6.1v.2c0 .4.1.5.2.6.2.1.6.1 1.2.1.8 0 1.1 0 1.3-.2.2-.2.3-.5.4-1.3.3.2.8.4 1.2.5.5.1.5.1.4.6-.1.8-.3 1.2-.7 1.5-.4.3-1.2.5-2.6.5-1.2 0-2.1-.1-2.5-.3-.4-.2-.6-.6-.6-1.5v-.7zm-.4 4.4c0-.5 0-1-.1-1.6.6 0 1.3.1 1.8.2.2 0 .3.1.3.3 0 .1-.1.3-.1.4-.1.2-.1.6-.1 1-.1 2.2-.8 3.6-2.6 4.6-.2.1-.3.2-.4.2-.1 0-.2-.1-.4-.3-.3-.5-.7-.8-1-1 1.9-.9 2.5-1.8 2.6-3.8zm.4-6.1c0-.5 0-1-.1-1.3.5 0 1.3.1 1.7.1.2 0 .3.1.3.2s0 .1-.1.2-.1.3-.1.8l.5-.1c1.1-.1 1.5-.2 1.8-.2.4-.5.6-1 .8-1.4H559v2l1.7-.2v-.1zm4.2 8.6c0 .4 0 .5.1.6.1.1.2.1.4.1s.4-.1.6-.3c.2-.3.2-.7.2-2 .3.2.8.3 1.2.5.4.1.4.2.4.6-.1 1.4-.3 1.9-.5 2.3-.3.4-.7.6-2 .6-.9 0-1.4 0-1.8-.3-.3-.2-.5-.6-.5-1.4v-2.4c0-.9 0-1.5-.1-2.2.5 0 1.4.1 1.8.1.2 0 .3.1.3.2 0 .2-.1.2-.1.4-.1.2-.1.4-.1 1.1v2.1z"/></g><g><path fill="none" stroke="#6c6" stroke-width="5" stroke-miterlimit="10" d="M588 257v57M588 344v57"/><path fill="#6c6" d="M572.5 255h32v5h-32zM572.5 399h32v5h-32z"/><path d="M584.6 334.8c.5 0 1 0 1.7-.1 1.2-.2 2.4-.7 3.3-1.5 1-.9 1.8-2.3 2.1-4.2h-.1c-.9 1.1-2.1 1.7-3.7 1.7-2.8 0-4.6-2.1-4.6-4.8 0-3 2.1-5.5 5.3-5.5s5.2 2.6 5.2 6.6c0 3.4-1.2 5.8-2.7 7.3-1.2 1.2-2.9 1.9-4.5 2.1-.8.1-1.4.1-1.9.1v-1.7zm.8-9c0 1.9 1.2 3.3 3 3.3 1.4 0 2.5-.7 3.1-1.6.1-.2.2-.4.2-.8 0-2.7-1-4.7-3.2-4.7-1.8 0-3.1 1.6-3.1 3.8z"/></g><g><path fill="none" stroke="#6c6" stroke-width="5" stroke-miterlimit="10" d="M588 400v65M588 495v65"/><path fill="#6c6" d="M572.5 558h32v5h-32z"/><path d="M581 472.9l-3.1 1.6-.5-1.8 3.8-2h2V488H581v-15.1zM601.1 479.2c0 5.9-2.2 9.1-6 9.1-3.4 0-5.7-3.2-5.7-8.9 0-5.8 2.5-9 6-9 3.6 0 5.7 3.3 5.7 8.8zm-9.5.3c0 4.5 1.4 7.1 3.5 7.1 2.4 0 3.5-2.8 3.5-7.2 0-4.3-1.1-7.1-3.5-7.1-2-.1-3.5 2.4-3.5 7.2z"/></g></g></svg>