<?xml version="1.0" encoding="utf-8"?>
<svg version="1.1" id="レイヤー_1" xmlns="http://www.w3.org/2000/svg" xmlns:xlink="http://www.w3.org/1999/xlink" x="0px"
	 y="0px" viewBox="0 0 510.5 177.6" style="enable-background:new 0 0 510.5 177.6;" xml:space="preserve">
<g>
	<path d="M119.4,6.7c0,0,0,1.2,0,1.7c-0.6,15.4-1.2,20.8-2.5,22.5c-0.8,1-1.5,1.4-2.6,1.6c-1,0.1-2.4,0.1-4,0.1c0-1-0.4-2.4-1-3.4
		c1.4,0.1,2.7,0.1,3.3,0.1c0.5,0,0.9-0.1,1.3-0.6c0.9-1.1,1.5-5.8,2-18.6h-4.4c-0.4,9-1.7,17.7-6.1,23.3c-0.6-0.8-1.8-1.8-2.7-2.4
		c4-4.9,5.1-12.7,5.5-20.9h-4.6V6.8h4.7c0-2.1,0-4.3,0-6.3h3.4c0,2.1,0,4.2-0.1,6.3h7.8V6.7z M134.4,4.6v27.9h-3.5v-2.3h-6v2.6h-3.3
		V4.6H134.4z M130.9,26.9V7.8h-6v19.1H130.9z"/>
	<path d="M158.8,0.8C170.1,9,169.4,22,181.1,29.2c-0.6,0.9-1.4,2.8-1.6,3.8c-7.8-4.4-10.6-12.2-14.4-19.1
		c-2.7,8.8-7.2,15.1-14.1,19.2c-0.6-0.7-2.2-2.1-3.1-2.7c7.8-4,12.3-11.1,14.5-20.9c-1.5-2.2-3.3-4.1-5.7-5.7L158.8,0.8z"/>
	<path d="M224.4,2v31.5h-3.5v-1.6h-23v1.6h-3.3V2C194.6,2,224.4,2,224.4,2z M220.9,28.7V5.1h-23v23.6H220.9z M211,12.9v3.6h6.2v9.4
		h-15.3v-9.4h5.9v-3.6h-8v-2.7h8V6.4h3.1v3.8h8.2v2.7H211z M214.1,19h-9.2v4.2h9.2V19z"/>
	<path d="M256.1,29.1c1.6,0.3,3.3,0.4,5.1,0.4c1.6,0,7.6,0,9.6,0c-0.5,0.8-1.1,2.4-1.2,3.4H261c-7.1,0-12.2-1.2-15.5-6.9
		c-1.2,3.1-2.9,5.6-5.1,7.6c-0.5-0.6-1.9-1.8-2.7-2.3c3.9-3,5.8-8,6.5-14.3l3.4,0.4c-0.2,1.6-0.5,3.1-0.8,4.5
		c1.3,3.4,3.3,5.3,5.8,6.4V14.6h-8.3v-3.2h20.3v3.2h-8.5v5.2h10.3v3.1h-10.3V29.1z M242.7,12.5h-3.3V4.3H253c-0.4-1-0.9-2.3-1.4-3.3
		l3.3-1c0.8,1.3,1.6,3,2,4.2h12.6v8.2h-3.4V7.3h-23.4L242.7,12.5L242.7,12.5z"/>
	<path d="M315.7,29.9v2.6h-32.4v-2.6h14.5v-1.7h-11.5v-2.3h11.4v-1.6h-10.5v-9h24.7v9H301v1.6h11.6v2.3H301v1.7H315.7z M315.6,13.9
		h-32.1v-2.4h32.1V13.9z M310.9,10.1h-23.1V1.4h23.1V10.1z M290.4,18.9h7.4v-1.7h-7.4V18.9z M297.8,22.4v-1.7h-7.4v1.7H297.8z
		 M307.6,3.3h-16.5v1.6h16.5V3.3z M307.6,6.6h-16.5v1.7h16.5V6.6z M308.6,17.2H301v1.7h7.6V17.2z M308.6,20.7H301v1.7h7.6V20.7z"/>
	<path d="M359.9,5.9c0,0,0,1.2,0,1.6c-0.5,16.2-0.9,21.8-2.4,23.6c-0.9,1.2-1.8,1.5-3.1,1.7c-1.3,0.1-3.4,0.1-5.4,0
		c-0.1-0.9-0.5-2.3-1.1-3.2c2.3,0.2,4.4,0.2,5.3,0.2c0.7,0,1.1-0.1,1.5-0.6c1.2-1.2,1.6-6.6,2.1-20.2h-8.5c-1,2.3-2.1,4.4-3.3,6
		c-0.5-0.5-1.8-1.4-2.6-1.9v16.5h-9.8v2.7h-3.1V6h4c0.5-1.7,1-4.1,1.3-5.8l3.6,0.6c-0.6,1.8-1.3,3.7-1.9,5.2h5.8v6.8
		c2.4-3.1,4.3-7.9,5.4-12.6l3.2,0.8c-0.4,1.7-0.9,3.3-1.5,4.9L359.9,5.9L359.9,5.9z M332.6,9v6.8h6.7V9C339.3,9,332.6,9,332.6,9z
		 M339.3,26.7v-8h-6.7v8H339.3z M351.3,23.9c-1-2.2-3.3-5.7-5.3-8.3l2.6-1.5c1.9,2.5,4.4,5.9,5.4,8L351.3,23.9z"/>
	<path d="M404.8,4.5v7.6h-3.5V7.6h-23.9v5.3h-3.3V4.6h13.8c-0.5-1.2-1-2.4-1.5-3.5l3.5-1c0.7,1.3,1.5,3.1,2.1,4.5L404.8,4.5
		L404.8,4.5z M391.1,29.1h13.6v3h-30.4v-3h13.3V21h-9.3v-3h22.6v3h-9.7v8.1H391.1z M387.5,11.4c-3,2.6-7.1,5.2-11.2,6.9l-1.9-3
		c4-1.4,7.8-3.6,10.7-6L387.5,11.4z M402.3,17.9c-2.4-1.7-7.3-4.4-10.9-6.2l2.1-2.3c3.5,1.7,8.5,4.2,11.1,5.9L402.3,17.9z"/>
	<path d="M447.5,5.8v27.4H444v-2.4h-19.2v2.5h-3.3V5.8h8.9c0.7-1.8,1.4-4,1.8-5.7l4.3,0.7c-0.7,1.7-1.5,3.5-2.3,5H447.5z M424.8,9.2
		v7.4H444V9.2H424.8z M444,27.5v-7.6h-19.2v7.6H444z"/>
	<path d="M119.4,54.7c0,0,0,1.2,0,1.7c-0.6,15.4-1.2,20.8-2.5,22.5c-0.8,1-1.5,1.4-2.6,1.6c-1,0.1-2.4,0.1-4,0.1c0-1-0.4-2.4-1-3.4
		c1.4,0.1,2.7,0.1,3.3,0.1c0.5,0,0.9-0.1,1.3-0.6c0.9-1.1,1.5-5.8,2-18.6h-4.4c-0.4,9-1.7,17.7-6.1,23.3c-0.6-0.8-1.8-1.8-2.7-2.4
		c4-4.9,5.1-12.7,5.5-20.9h-4.6v-3.3h4.7c0-2.1,0-4.3,0-6.3h3.4c0,2.1,0,4.2-0.1,6.3h7.8V54.7z M134.4,52.6v27.9h-3.5v-2.3h-6v2.6
		h-3.3V52.6H134.4z M130.9,74.9V55.8h-6v19.1H130.9z"/>
	<path d="M161.8,48.8c11.3,8.2,10.6,21.2,22.3,28.4c-0.6,0.9-1.4,2.8-1.6,3.8c-7.8-4.4-10.6-12.2-14.4-19.1
		c-2.7,8.8-7.2,15.1-14.1,19.2c-0.6-0.7-2.2-2.1-3.1-2.7c7.8-4,12.3-11.1,14.5-20.9c-1.5-2.2-3.3-4.1-5.7-5.7L161.8,48.8z"/>
	<path d="M230.4,50v31.5h-3.5v-1.6h-23v1.6h-3.3V50H230.4z M226.9,76.7V53.1h-23v23.6H226.9z M217,60.9v3.6h6.2v9.4h-15.3v-9.4h5.9
		v-3.6h-8v-2.7h8v-3.8h3.1v3.8h8.2v2.7H217z M220.1,67h-9.2v4.2h9.2V67z"/>
	<path d="M265.1,77.1c1.6,0.3,3.3,0.4,5.1,0.4c1.6,0,7.6,0,9.6,0c-0.5,0.8-1.1,2.4-1.2,3.4H270c-7.1,0-12.2-1.2-15.5-6.9
		c-1.2,3.1-2.9,5.6-5.1,7.6c-0.5-0.6-1.9-1.8-2.7-2.3c3.9-3,5.8-8,6.5-14.3l3.4,0.4c-0.2,1.6-0.5,3.1-0.8,4.5
		c1.3,3.4,3.3,5.3,5.8,6.4V62.6h-8.3v-3.2h20.3v3.2h-8.5v5.2h10.3v3.1h-10.3V77.1z M251.7,60.5h-3.3v-8.2H262
		c-0.4-1-0.9-2.3-1.4-3.3l3.3-1c0.8,1.3,1.6,3,2,4.2h12.6v8.2h-3.4v-5.1h-23.4L251.7,60.5L251.7,60.5z"/>
	<path d="M327.7,77.9v2.6h-32.4v-2.6h14.5v-1.7h-11.5v-2.3h11.4v-1.6h-10.5v-9h24.7v9H313v1.6h11.6v2.3H313v1.7H327.7z M327.5,61.9
		h-32.1v-2.4h32.1V61.9z M322.9,58.1h-23.1v-8.7h23.1V58.1z M302.3,66.9h7.4v-1.7h-7.4V66.9z M309.7,70.4v-1.7h-7.4v1.7H309.7z
		 M319.5,51.3H303v1.6h16.5V51.3z M319.5,54.6H303v1.7h16.5V54.6z M320.6,65.2H313v1.7h7.6V65.2z M320.6,68.7H313v1.7h7.6V68.7z"/>
	<path d="M374.8,53.9c0,0,0,1.2,0,1.6c-0.5,16.2-0.9,21.8-2.4,23.6c-0.9,1.2-1.8,1.5-3.1,1.7c-1.3,0.1-3.4,0.1-5.4,0
		c-0.1-0.9-0.5-2.3-1.1-3.2c2.3,0.2,4.4,0.2,5.3,0.2c0.7,0,1.1-0.1,1.5-0.6c1.2-1.2,1.6-6.6,2.1-20.2h-8.5c-1,2.3-2.1,4.4-3.3,6
		c-0.5-0.5-1.8-1.4-2.6-1.9v16.5h-9.8v2.7h-3.1V54h4c0.5-1.7,1-4.1,1.3-5.8l3.6,0.6c-0.6,1.8-1.3,3.7-1.9,5.2h5.8v6.8
		c2.4-3.1,4.3-7.9,5.4-12.6l3.2,0.8c-0.4,1.7-0.9,3.3-1.5,4.9L374.8,53.9L374.8,53.9z M347.5,57v6.8h6.7V57H347.5z M354.2,74.7v-8
		h-6.7v8H354.2z M366.2,71.9c-1-2.2-3.3-5.7-5.3-8.3l2.6-1.5c1.9,2.5,4.4,5.9,5.4,8L366.2,71.9z"/>
	<path d="M422.7,52.5v7.6h-3.4v-4.5h-23.9v5.3h-3.3v-8.3h13.8c-0.5-1.2-1-2.4-1.5-3.5l3.5-1c0.7,1.3,1.5,3.1,2.1,4.5h12.7V52.5z
		 M409,77.1h13.6v3h-30.5v-3h13.3V69h-9.3v-3h22.6v3H409L409,77.1L409,77.1z M405.4,59.4c-3,2.6-7.1,5.2-11.2,6.9l-1.9-3
		c4-1.4,7.8-3.6,10.7-6L405.4,59.4z M420.2,65.9c-2.4-1.7-7.3-4.4-10.9-6.2l2.1-2.3c3.5,1.7,8.5,4.2,11.1,5.9L420.2,65.9z"/>
	<path d="M468.4,53.8v27.4h-3.5v-2.4h-19.2v2.5h-3.4V53.8h8.9c0.7-1.8,1.4-4,1.8-5.7l4.3,0.7c-0.7,1.7-1.5,3.5-2.3,5H468.4z
		 M445.7,57.2v7.4h19.2v-7.4H445.7z M464.9,75.5v-7.6h-19.2v7.6H464.9z"/>
	<path d="M119.4,102.7c0,0,0,1.2,0,1.7c-0.6,15.4-1.2,20.8-2.5,22.5c-0.8,1-1.5,1.4-2.6,1.6c-1,0.1-2.4,0.1-4,0.1c0-1-0.4-2.4-1-3.4
		c1.4,0.1,2.7,0.1,3.3,0.1c0.5,0,0.9-0.1,1.3-0.6c0.9-1.1,1.5-5.8,2-18.6h-4.4c-0.4,9-1.7,17.7-6.1,23.3c-0.6-0.8-1.8-1.8-2.7-2.4
		c4-4.9,5.1-12.7,5.5-20.9h-4.6v-3.3h4.7c0-2.1,0-4.3,0-6.3h3.4c0,2.1,0,4.2-0.1,6.3h7.8V102.7z M134.4,100.6v27.9h-3.5v-2.3h-6v2.6
		h-3.3v-28.2H134.4z M130.9,122.9v-19.1h-6v19.1H130.9z"/>
	<path d="M167.8,96.8c11.3,8.2,10.6,21.2,22.3,28.4c-0.6,0.9-1.4,2.8-1.6,3.8c-7.8-4.4-10.6-12.2-14.4-19.1
		c-2.7,8.8-7.2,15.1-14.1,19.2c-0.6-0.7-2.2-2.1-3.1-2.7c7.8-4,12.3-11.1,14.5-20.9c-1.5-2.2-3.3-4.1-5.7-5.7L167.8,96.8z"/>
	<path d="M242.4,98v31.5h-3.5v-1.6h-23v1.6h-3.3V98H242.4z M238.9,124.7v-23.6h-23v23.6H238.9z M229,108.9v3.6h6.2v9.4h-15.3v-9.4
		h5.9v-3.6h-8v-2.7h8v-3.8h3.1v3.8h8.2v2.7H229z M232.1,115h-9.2v4.2h9.2V115z"/>
	<path d="M283.1,125.1c1.6,0.3,3.3,0.4,5.1,0.4c1.6,0,7.6,0,9.6,0c-0.5,0.8-1.1,2.4-1.2,3.4H288c-7.1,0-12.2-1.2-15.5-6.9
		c-1.2,3.1-2.9,5.6-5.1,7.6c-0.5-0.6-1.9-1.8-2.7-2.3c3.9-3,5.8-8,6.5-14.3l3.4,0.4c-0.2,1.6-0.5,3.1-0.8,4.5
		c1.3,3.4,3.3,5.3,5.8,6.4v-13.7h-8.3v-3.2h20.3v3.2h-8.5v5.2h10.3v3.1h-10.3V125.1z M269.7,108.5h-3.3v-8.2H280
		c-0.4-1-0.9-2.3-1.4-3.3l3.3-1c0.8,1.3,1.6,3,2,4.2h12.6v8.2h-3.4v-5.1h-23.4L269.7,108.5L269.7,108.5z"/>
	<path d="M351.7,125.9v2.6h-32.4v-2.6h14.5v-1.7h-11.5v-2.3h11.4v-1.6h-10.5v-9h24.7v9H337v1.6h11.6v2.3H337v1.7H351.7z
		 M351.6,109.9h-32.1v-2.4h32.1V109.9z M346.9,106.1h-23.1v-8.7h23.1V106.1z M326.4,114.9h7.4v-1.7h-7.4V114.9z M333.8,118.4v-1.7
		h-7.4v1.7H333.8z M343.6,99.3h-16.5v1.6h16.5V99.3z M343.6,102.6h-16.5v1.7h16.5V102.6z M344.6,113.2H337v1.7h7.6V113.2z
		 M344.6,116.7H337v1.7h7.6V116.7z"/>
	<path d="M404.9,101.9c0,0,0,1.2,0,1.6c-0.5,16.2-0.9,21.8-2.4,23.6c-0.9,1.2-1.8,1.5-3.1,1.7c-1.3,0.1-3.4,0.1-5.4,0
		c-0.1-0.9-0.5-2.3-1.1-3.2c2.3,0.2,4.4,0.2,5.3,0.2c0.7,0,1.1-0.1,1.5-0.6c1.2-1.2,1.6-6.6,2.1-20.2h-8.5c-1,2.3-2.1,4.4-3.3,6
		c-0.5-0.5-1.8-1.4-2.6-1.9v16.5h-9.8v2.7h-3.1V102h4c0.5-1.7,1-4.1,1.3-5.8l3.6,0.6c-0.6,1.8-1.3,3.7-1.9,5.2h5.8v6.8
		c2.4-3.1,4.3-7.9,5.4-12.6l3.2,0.8c-0.4,1.7-0.9,3.3-1.5,4.9L404.9,101.9L404.9,101.9z M377.6,105v6.8h6.7V105H377.6z M384.3,122.7
		v-8h-6.7v8H384.3z M396.3,119.9c-1-2.2-3.3-5.7-5.3-8.3l2.6-1.5c1.9,2.5,4.4,5.9,5.4,8L396.3,119.9z"/>
	<path d="M458.8,100.5v7.6h-3.5v-4.5h-23.9v5.3h-3.3v-8.3h13.8c-0.5-1.2-1-2.4-1.5-3.5l3.5-1c0.7,1.3,1.5,3.1,2.1,4.5h12.8V100.5z
		 M445.1,125.1h13.6v3h-30.4v-3h13.3V117h-9.3v-3h22.6v3h-9.7L445.1,125.1L445.1,125.1z M441.5,107.4c-3,2.6-7.1,5.2-11.2,6.9
		l-1.9-3c4-1.4,7.8-3.6,10.7-6L441.5,107.4z M456.3,113.9c-2.4-1.7-7.3-4.4-10.9-6.2l2.1-2.3c3.5,1.7,8.5,4.2,11.1,5.9L456.3,113.9z
		"/>
	<path d="M510.5,101.8v27.4H507v-2.4h-19.2v2.5h-3.3v-27.5h8.9c0.7-1.8,1.4-4,1.8-5.7l4.3,0.7c-0.7,1.7-1.5,3.5-2.3,5H510.5z
		 M487.8,105.2v7.4H507v-7.4H487.8z M507,123.5v-7.6h-19.2v7.6H507z"/>
	<path d="M119.4,150.7c0,0,0,1.2,0,1.7c-0.6,15.4-1.2,20.8-2.5,22.5c-0.8,1-1.5,1.4-2.6,1.6c-1,0.1-2.4,0.1-4,0.1c0-1-0.4-2.4-1-3.4
		c1.4,0.1,2.7,0.1,3.3,0.1c0.5,0,0.9-0.1,1.3-0.6c0.9-1.1,1.5-5.8,2-18.6h-4.4c-0.4,9-1.7,17.7-6.1,23.3c-0.6-0.8-1.8-1.8-2.7-2.4
		c4-4.9,5.1-12.7,5.5-20.9h-4.6v-3.3h4.7c0-2.1,0-4.3,0-6.3h3.4c0,2.1,0,4.2-0.1,6.3h7.8V150.7z M134.4,148.6v27.9h-3.5v-2.3h-6v2.6
		h-3.3v-28.2H134.4z M130.9,170.9v-19.1h-6v19.1H130.9z"/>
	<path d="M185.8,144.8c11.3,8.2,10.6,21.2,22.3,28.4c-0.6,0.9-1.4,2.8-1.6,3.8c-7.8-4.4-10.6-12.2-14.4-19.1
		c-2.7,8.8-7.2,15.1-14.1,19.2c-0.6-0.7-2.2-2.1-3.1-2.7c7.8-4,12.3-11.1,14.5-20.9c-1.5-2.2-3.3-4.1-5.7-5.7L185.8,144.8z"/>
	<path d="M278.4,146v31.5h-3.5v-1.6h-23v1.6h-3.3V146H278.4z M274.9,172.7v-23.6h-23v23.6H274.9z M265,156.9v3.6h6.2v9.4h-15.3v-9.4
		h5.9v-3.6h-8v-2.7h8v-3.8h3.1v3.8h8.2v2.7H265z M268.1,163h-9.2v4.2h9.2V163z"/>
	<path d="M337.1,173.1c1.6,0.3,3.3,0.4,5.1,0.4c1.6,0,7.6,0,9.6,0c-0.5,0.8-1.1,2.4-1.2,3.4H342c-7.1,0-12.2-1.2-15.5-6.9
		c-1.2,3.1-2.9,5.6-5.1,7.6c-0.5-0.6-1.9-1.8-2.7-2.3c3.9-3,5.8-8,6.5-14.3l3.4,0.4c-0.2,1.6-0.5,3.1-0.8,4.5
		c1.3,3.4,3.3,5.3,5.8,6.4v-13.7h-8.3v-3.2h20.3v3.2h-8.5v5.2h10.3v3.1h-10.3V173.1z M323.7,156.5h-3.3v-8.2H334
		c-0.4-1-0.9-2.3-1.4-3.3l3.3-1c0.8,1.3,1.6,3,2,4.2h12.6v8.2h-3.4v-5.1h-23.4L323.7,156.5L323.7,156.5z"/>
	<path d="M423.7,173.9v2.6h-32.4v-2.6h14.5v-1.7h-11.5v-2.3h11.4v-1.6h-10.5v-9h24.7v9H409v1.6h11.6v2.3H409v1.7H423.7z
		 M423.6,157.9h-32.1v-2.4h32.1V157.9z M418.9,154.1h-23.1v-8.7h23.1V154.1z M398.4,162.9h7.4v-1.7h-7.4V162.9z M405.8,166.4v-1.7
		h-7.4v1.7H405.8z M415.6,147.3h-16.5v1.6h16.5V147.3z M415.6,150.6h-16.5v1.7h16.5V150.6z M416.6,161.2H409v1.7h7.6V161.2z
		 M416.6,164.7H409v1.7h7.6V164.7z"/>
</g>
<g>
	<path d="M-0.1,10.4C-0.1,8.3,1.3,7,2.8,7c1.6,0,2.6,1.2,2.6,3c0,0.2,0,0.4,0,0.6H1C1.1,12,1.9,13,3.2,13c0.6,0,1.2-0.2,1.6-0.5
		l0.4,0.6c-0.6,0.4-1.2,0.7-2.1,0.7C1.3,13.8-0.1,12.5-0.1,10.4z M4.5,9.9c0-1.4-0.6-2.1-1.7-2.1c-1,0-1.8,0.8-1.9,2.1H4.5z"/>
	<path d="M8.2,10.2l-2-3.1h1.1l0.9,1.5C8.4,9,8.6,9.3,8.9,9.7l0,0C9.1,9.3,9.3,9,9.5,8.6l0.9-1.5h1l-2,3.2l2.1,3.3h-1.1l-1-1.6
		c-0.2-0.4-0.5-0.8-0.7-1.2H8.6c-0.2,0.4-0.5,0.8-0.7,1.2L7,13.6H6L8.2,10.2z"/>
	<path d="M12.4,11.9c0-1.4,1.2-2.1,4-2.4c0-0.9-0.3-1.7-1.4-1.7c-0.8,0-1.5,0.4-2,0.7l-0.4-0.7c0.6-0.4,1.5-0.9,2.5-0.9
		c1.6,0,2.2,1.1,2.2,2.6v4h-0.8l-0.1-0.8l0,0c-0.6,0.5-1.4,0.9-2.2,0.9C13.3,13.8,12.4,13.1,12.4,11.9z M16.5,12.1v-1.9
		c-2.3,0.3-3.1,0.8-3.1,1.7c0,0.8,0.5,1.1,1.2,1.1C15.2,13,15.8,12.7,16.5,12.1z"/>
	<path d="M19.6,7.1h0.8l0.1,1l0,0c0.6-0.6,1.3-1.1,2-1.1c1,0,1.5,0.5,1.8,1.3C25,7.6,25.7,7,26.5,7c1.3,0,2,0.9,2,2.5v4.1h-1v-4
		c0-1.2-0.4-1.8-1.3-1.8c-0.5,0-1.1,0.3-1.7,1.1v4.7h-1v-4c0-1.2-0.4-1.8-1.3-1.8c-0.5,0-1.1,0.3-1.7,1.1v4.7h-1V7.1H19.6z"/>
	<path d="M30.6,7.1h0.8l0.1,0.8l0,0C32.1,7.4,32.8,7,33.6,7c1.7,0,2.6,1.3,2.6,3.3c0,2.2-1.3,3.5-2.8,3.5c-0.6,0-1.2-0.3-1.8-0.8
		v1.1v2.2h-1L30.6,7.1L30.6,7.1z M35.2,10.3c0-1.5-0.5-2.5-1.8-2.5c-0.6,0-1.2,0.3-1.8,0.9v3.5c0.6,0.5,1.2,0.7,1.7,0.7
		C34.3,12.9,35.2,11.9,35.2,10.3z"/>
	<path d="M38,12.4V4h1v8.4c0,0.3,0.1,0.5,0.3,0.5c0.1,0,0.1,0,0.2,0l0.1,0.8c-0.2,0-0.3,0.1-0.6,0.1C38.3,13.8,38,13.3,38,12.4z"/>
	<path d="M40.8,10.4c0-2.1,1.4-3.4,2.9-3.4c1.6,0,2.6,1.2,2.6,3c0,0.2,0,0.4,0,0.6h-4.4C42,12,42.8,13,44.1,13
		c0.6,0,1.2-0.2,1.6-0.5l0.4,0.6c-0.6,0.4-1.2,0.7-2.1,0.7C42.2,13.8,40.8,12.5,40.8,10.4z M45.4,9.9c0-1.4-0.6-2.1-1.7-2.1
		c-1,0-1.8,0.8-1.9,2.1H45.4z"/>
	<path d="M50.1,10.4c0-2.2,1.4-3.4,3-3.4s3,1.2,3,3.4c0,2.1-1.4,3.4-3,3.4S50.1,12.5,50.1,10.4z M55,10.4c0-1.5-0.8-2.6-2-2.6
		s-2,1-2,2.6c0,1.5,0.8,2.6,2,2.6C54.2,12.9,55,11.9,55,10.4z"/>
	<path d="M60.6,4.9c-0.3-0.1-0.5-0.2-0.7-0.2C59.3,4.7,59,5.2,59,6v1.1h1.4v0.8H59v5.7h-1V7.9h-0.9V7.2L58,7.1V6
		c0-1.3,0.6-2.1,1.8-2.1c0.4,0,0.7,0.1,1,0.2L60.6,4.9z"/>
	<path d="M0.4,27.8h2v-6.7H0.9v-0.6c0.8-0.1,1.3-0.3,1.8-0.6h0.7v8h1.8v0.8H0.5v-0.9H0.4z"/>
	<path d="M9.7,19.1h0.7L6.7,30.7H6L9.7,19.1z"/>
	<path d="M16.8,26.2h-1.2v2.4h-0.9v-2.4h-3.8v-0.6l3.7-5.7h1v5.6h1.2C16.8,25.5,16.8,26.2,16.8,26.2z M14.7,25.4v-2.9
		c0-0.4,0-1.1,0.1-1.6h-0.1c-0.2,0.4-0.5,0.9-0.7,1.3l-2.1,3.1L14.7,25.4L14.7,25.4z"/>
	<path d="M20.5,25.4c0-2.1,1.4-3.4,2.9-3.4c1.6,0,2.6,1.2,2.6,3c0,0.2,0,0.4,0,0.6h-4.4c0.1,1.4,0.9,2.4,2.2,2.4
		c0.6,0,1.2-0.2,1.6-0.5l0.4,0.6c-0.6,0.4-1.2,0.7-2.1,0.7C21.9,28.8,20.5,27.5,20.5,25.4z M25.1,24.9c0-1.4-0.6-2.1-1.7-2.1
		c-1,0-1.8,0.8-1.9,2.1H25.1z"/>
	<path d="M27.6,22.1h0.8l0.1,1l0,0c0.6-0.6,1.3-1.1,2-1.1c1,0,1.5,0.5,1.8,1.3c0.7-0.7,1.4-1.3,2.2-1.3c1.3,0,2,0.9,2,2.5v4.1h-1v-4
		c0-1.2-0.4-1.8-1.3-1.8c-0.5,0-1.1,0.3-1.7,1.1v4.7h-1v-4c0-1.2-0.4-1.8-1.3-1.8c-0.5,0-1.1,0.3-1.7,1.1v4.7h-1L27.6,22.1
		L27.6,22.1z"/>
	<path d="M40.5,27.9l0.5-0.7c0.6,0.5,1.1,0.8,2,0.8s1.3-0.5,1.3-1.1c0-0.7-0.8-1-1.5-1.3c-0.9-0.3-2-0.8-2-1.9c0-1,0.8-1.8,2.2-1.8
		c0.8,0,1.5,0.3,2,0.7l-0.5,0.6c-0.4-0.3-0.9-0.6-1.5-0.6c-0.9,0-1.3,0.5-1.3,1c0,0.6,0.7,0.9,1.5,1.2c0.9,0.4,2,0.7,2,2
		c0,1-0.8,1.9-2.3,1.9C42,28.8,41.1,28.4,40.5,27.9z"/>
	<path d="M46.8,22.1h0.8l0.1,0.8l0,0c0.6-0.5,1.3-0.9,2.1-0.9c1.7,0,2.6,1.3,2.6,3.3c0,2.2-1.3,3.5-2.8,3.5c-0.6,0-1.2-0.3-1.8-0.8
		v1.1v2.2h-1L46.8,22.1L46.8,22.1z M51.4,25.3c0-1.5-0.5-2.5-1.8-2.5c-0.6,0-1.2,0.3-1.8,0.9v3.5c0.6,0.5,1.2,0.7,1.7,0.7
		C50.6,27.9,51.4,26.9,51.4,25.3z"/>
	<path d="M53.8,26.9c0-1.4,1.2-2.1,4-2.4c0-0.9-0.3-1.7-1.4-1.7c-0.8,0-1.5,0.4-2,0.7L54,22.8c0.6-0.4,1.5-0.9,2.5-0.9
		c1.6,0,2.2,1.1,2.2,2.6v4h-0.8l-0.1-0.8l0,0c-0.6,0.5-1.4,0.9-2.2,0.9C54.6,28.8,53.8,28.1,53.8,26.9z M57.8,27.1v-1.9
		c-2.3,0.3-3.1,0.8-3.1,1.7c0,0.8,0.5,1.1,1.2,1.1C56.6,28,57.2,27.7,57.8,27.1z"/>
	<path d="M60.4,25.4c0-2.2,1.4-3.4,3.1-3.4c0.9,0,1.4,0.4,1.9,0.8l-0.5,0.6c-0.4-0.4-0.8-0.6-1.3-0.6c-1.2,0-2.1,1-2.1,2.6
		c0,1.5,0.8,2.6,2.1,2.6c0.6,0,1.2-0.3,1.6-0.7l0.4,0.6c-0.6,0.5-1.3,0.8-2.1,0.8C61.7,28.8,60.4,27.5,60.4,25.4z"/>
	<path d="M66.5,25.4c0-2.1,1.4-3.4,2.9-3.4c1.6,0,2.6,1.2,2.6,3c0,0.2,0,0.4,0,0.6h-4.4c0.1,1.4,0.9,2.4,2.2,2.4
		c0.6,0,1.2-0.2,1.6-0.5l0.4,0.6c-0.6,0.4-1.2,0.7-2.1,0.7C67.9,28.8,66.5,27.5,66.5,25.4z M71.1,24.9c0-1.4-0.6-2.1-1.7-2.1
		c-1,0-1.8,0.8-1.9,2.1H71.1z"/>
</g>
<g>
	<path d="M-0.1,105.7c0-2.1,1.4-3.4,2.9-3.4c1.6,0,2.6,1.2,2.6,3c0,0.2,0,0.4,0,0.6H1c0.1,1.4,0.9,2.4,2.2,2.4
		c0.6,0,1.2-0.2,1.6-0.5l0.4,0.6c-0.6,0.4-1.2,0.7-2.1,0.7C1.3,109.1-0.1,107.8-0.1,105.7z M4.5,105.2c0-1.4-0.6-2.1-1.7-2.1
		c-1,0-1.8,0.8-1.9,2.1H4.5z"/>
	<path d="M8.2,105.6l-2-3.1h1.1l0.9,1.5c0.2,0.4,0.4,0.7,0.7,1.1l0,0c0.2-0.4,0.4-0.7,0.6-1.1l0.9-1.5h1l-2,3.2l2.1,3.3h-1.1l-1-1.6
		c-0.2-0.4-0.5-0.8-0.7-1.2H8.6c-0.2,0.4-0.5,0.8-0.7,1.2L7,109H6L8.2,105.6z"/>
	<path d="M12.4,107.3c0-1.4,1.2-2.1,4-2.4c0-0.9-0.3-1.7-1.4-1.7c-0.8,0-1.5,0.4-2,0.7l-0.4-0.7c0.6-0.4,1.5-0.9,2.5-0.9
		c1.6,0,2.2,1.1,2.2,2.6v4h-0.8l-0.1-0.8l0,0c-0.6,0.5-1.4,0.9-2.2,0.9C13.3,109.1,12.4,108.4,12.4,107.3z M16.5,107.4v-1.9
		c-2.3,0.3-3.1,0.8-3.1,1.7c0,0.8,0.5,1.1,1.2,1.1C15.2,108.3,15.8,108,16.5,107.4z"/>
	<path d="M19.6,102.5h0.8l0.1,1l0,0c0.6-0.6,1.3-1.1,2-1.1c1,0,1.5,0.5,1.8,1.3c0.7-0.7,1.4-1.3,2.2-1.3c1.3,0,2,0.9,2,2.5v4.1h-1
		v-4c0-1.2-0.4-1.8-1.3-1.8c-0.5,0-1.1,0.3-1.7,1.1v4.7h-1v-4c0-1.2-0.4-1.8-1.3-1.8c-0.5,0-1.1,0.3-1.7,1.1v4.7h-1v-6.5H19.6z"/>
	<path d="M30.6,102.5h0.8l0.1,0.8l0,0c0.6-0.5,1.3-0.9,2.1-0.9c1.7,0,2.6,1.3,2.6,3.3c0,2.2-1.3,3.5-2.8,3.5c-0.6,0-1.2-0.3-1.8-0.8
		v1.1v2.2h-1L30.6,102.5L30.6,102.5z M35.2,105.6c0-1.5-0.5-2.5-1.8-2.5c-0.6,0-1.2,0.3-1.8,0.9v3.5c0.6,0.5,1.2,0.7,1.7,0.7
		C34.3,108.3,35.2,107.2,35.2,105.6z"/>
	<path d="M38,107.7v-8.4h1v8.4c0,0.3,0.1,0.5,0.3,0.5c0.1,0,0.1,0,0.2,0l0.1,0.8c-0.2,0-0.3,0.1-0.6,0.1
		C38.3,109.1,38,108.6,38,107.7z"/>
	<path d="M40.8,105.7c0-2.1,1.4-3.4,2.9-3.4c1.6,0,2.6,1.2,2.6,3c0,0.2,0,0.4,0,0.6h-4.4c0.1,1.4,0.9,2.4,2.2,2.4
		c0.6,0,1.2-0.2,1.6-0.5l0.4,0.6c-0.6,0.4-1.2,0.7-2.1,0.7C42.2,109.1,40.8,107.8,40.8,105.7z M45.4,105.2c0-1.4-0.6-2.1-1.7-2.1
		c-1,0-1.8,0.8-1.9,2.1H45.4z"/>
	<path d="M50.1,105.7c0-2.2,1.4-3.4,3-3.4s3,1.2,3,3.4c0,2.1-1.4,3.4-3,3.4S50.1,107.8,50.1,105.7z M55,105.7c0-1.5-0.8-2.6-2-2.6
		s-2,1-2,2.6c0,1.5,0.8,2.6,2,2.6C54.2,108.3,55,107.2,55,105.7z"/>
	<path d="M60.6,100.2c-0.3-0.1-0.5-0.2-0.7-0.2c-0.6,0-0.9,0.5-0.9,1.3v1.1h1.4v0.8H59v5.7h-1v-5.7h-0.9v-0.7l0.9-0.1v-1.1
		c0-1.3,0.6-2.1,1.8-2.1c0.4,0,0.7,0.1,1,0.2L60.6,100.2z"/>
	<path d="M0.4,123.1h2v-6.7H0.9v-0.6c0.8-0.1,1.3-0.3,1.8-0.6h0.7v8h1.8v0.8H0.5v-0.9H0.4z"/>
	<path d="M9.7,114.4h0.7L6.7,126H6L9.7,114.4z"/>
	<path d="M11.1,123.3c2.8-2.4,4.1-4.2,4.1-5.7c0-1-0.5-1.8-1.7-1.8c-0.7,0-1.4,0.5-1.9,1l-0.6-0.6c0.7-0.8,1.5-1.3,2.6-1.3
		c1.6,0,2.5,1,2.5,2.6c0,1.8-1.4,3.6-3.5,5.6c0.5,0,1-0.1,1.4-0.1h2.5v0.8h-5.4V123.3z"/>
	<path d="M20.5,120.7c0-2.1,1.4-3.4,2.9-3.4c1.6,0,2.6,1.2,2.6,3c0,0.2,0,0.4,0,0.6h-4.4c0.1,1.4,0.9,2.4,2.2,2.4
		c0.6,0,1.2-0.2,1.6-0.5l0.4,0.6c-0.6,0.4-1.2,0.7-2.1,0.7C21.9,124.1,20.5,122.8,20.5,120.7z M25.1,120.2c0-1.4-0.6-2.1-1.7-2.1
		c-1,0-1.8,0.8-1.9,2.1H25.1z"/>
	<path d="M27.6,117.5h0.8l0.1,1l0,0c0.6-0.6,1.3-1.1,2-1.1c1,0,1.5,0.5,1.8,1.3c0.7-0.7,1.4-1.3,2.2-1.3c1.3,0,2,0.9,2,2.5v4.1h-1
		v-4c0-1.2-0.4-1.8-1.3-1.8c-0.5,0-1.1,0.3-1.7,1.1v4.7h-1v-4c0-1.2-0.4-1.8-1.3-1.8c-0.5,0-1.1,0.3-1.7,1.1v4.7h-1L27.6,117.5
		L27.6,117.5z"/>
	<path d="M40.5,123.2l0.5-0.7c0.6,0.5,1.1,0.8,2,0.8s1.3-0.5,1.3-1.1c0-0.7-0.8-1-1.5-1.3c-0.9-0.3-2-0.8-2-1.9c0-1,0.8-1.8,2.2-1.8
		c0.8,0,1.5,0.3,2,0.7l-0.5,0.6c-0.4-0.3-0.9-0.6-1.5-0.6c-0.9,0-1.3,0.5-1.3,1c0,0.6,0.7,0.9,1.5,1.2c0.9,0.4,2,0.7,2,2
		c0,1-0.8,1.9-2.3,1.9C42,124.1,41.1,123.7,40.5,123.2z"/>
	<path d="M46.8,117.5h0.8l0.1,0.8l0,0c0.6-0.5,1.3-0.9,2.1-0.9c1.7,0,2.6,1.3,2.6,3.3c0,2.2-1.3,3.5-2.8,3.5c-0.6,0-1.2-0.3-1.8-0.8
		v1.1v2.2h-1L46.8,117.5L46.8,117.5z M51.4,120.6c0-1.5-0.5-2.5-1.8-2.5c-0.6,0-1.2,0.3-1.8,0.9v3.5c0.6,0.5,1.2,0.7,1.7,0.7
		C50.6,123.3,51.4,122.2,51.4,120.6z"/>
	<path d="M53.8,122.3c0-1.4,1.2-2.1,4-2.4c0-0.9-0.3-1.7-1.4-1.7c-0.8,0-1.5,0.4-2,0.7l-0.4-0.7c0.6-0.4,1.5-0.9,2.5-0.9
		c1.6,0,2.2,1.1,2.2,2.6v4h-0.8l-0.1-0.8l0,0c-0.6,0.5-1.4,0.9-2.2,0.9C54.6,124.1,53.8,123.4,53.8,122.3z M57.8,122.4v-1.9
		c-2.3,0.3-3.1,0.8-3.1,1.7c0,0.8,0.5,1.1,1.2,1.1C56.6,123.3,57.2,123,57.8,122.4z"/>
	<path d="M60.4,120.7c0-2.2,1.4-3.4,3.1-3.4c0.9,0,1.4,0.4,1.9,0.8l-0.5,0.6c-0.4-0.4-0.8-0.6-1.3-0.6c-1.2,0-2.1,1-2.1,2.6
		c0,1.5,0.8,2.6,2.1,2.6c0.6,0,1.2-0.3,1.6-0.7l0.4,0.6c-0.6,0.5-1.3,0.8-2.1,0.8C61.7,124.1,60.4,122.8,60.4,120.7z"/>
	<path d="M66.5,120.7c0-2.1,1.4-3.4,2.9-3.4c1.6,0,2.6,1.2,2.6,3c0,0.2,0,0.4,0,0.6h-4.4c0.1,1.4,0.9,2.4,2.2,2.4
		c0.6,0,1.2-0.2,1.6-0.5l0.4,0.6c-0.6,0.4-1.2,0.7-2.1,0.7C67.9,124.1,66.5,122.8,66.5,120.7z M71.1,120.2c0-1.4-0.6-2.1-1.7-2.1
		c-1,0-1.8,0.8-1.9,2.1H71.1z"/>
</g>
<g>
	<path d="M-0.1,153.4c0-2.1,1.4-3.4,2.9-3.4c1.6,0,2.6,1.2,2.6,3c0,0.2,0,0.4,0,0.6H1c0.1,1.4,0.9,2.4,2.2,2.4
		c0.6,0,1.2-0.2,1.6-0.5l0.4,0.6c-0.6,0.4-1.2,0.7-2.1,0.7C1.3,156.8-0.1,155.5-0.1,153.4z M4.5,152.9c0-1.4-0.6-2.1-1.7-2.1
		c-1,0-1.8,0.8-1.9,2.1H4.5z"/>
	<path d="M8.2,153.2l-2-3.1h1.1l0.9,1.5c0.2,0.4,0.4,0.7,0.7,1.1l0,0c0.2-0.4,0.4-0.7,0.6-1.1l0.9-1.5h1l-2,3.2l2.1,3.3h-1.1l-1-1.6
		c-0.2-0.4-0.5-0.8-0.7-1.2H8.6c-0.2,0.4-0.5,0.8-0.7,1.2L7,156.6H6L8.2,153.2z"/>
	<path d="M12.4,154.9c0-1.4,1.2-2.1,4-2.4c0-0.9-0.3-1.7-1.4-1.7c-0.8,0-1.5,0.4-2,0.7l-0.4-0.7c0.6-0.4,1.5-0.9,2.5-0.9
		c1.6,0,2.2,1.1,2.2,2.6v4h-0.8l-0.1-0.8l0,0c-0.6,0.5-1.4,0.9-2.2,0.9C13.3,156.8,12.4,156.1,12.4,154.9z M16.5,155.1v-1.9
		c-2.3,0.3-3.1,0.8-3.1,1.7c0,0.8,0.5,1.1,1.2,1.1C15.2,156,15.8,155.7,16.5,155.1z"/>
	<path d="M19.6,150.1h0.8l0.1,1l0,0c0.6-0.6,1.3-1.1,2-1.1c1,0,1.5,0.5,1.8,1.3c0.7-0.7,1.4-1.3,2.2-1.3c1.3,0,2,0.9,2,2.5v4.1h-1
		v-4c0-1.2-0.4-1.8-1.3-1.8c-0.5,0-1.1,0.3-1.7,1.1v4.7h-1v-4c0-1.2-0.4-1.8-1.3-1.8c-0.5,0-1.1,0.3-1.7,1.1v4.7h-1v-6.5H19.6z"/>
	<path d="M30.6,150.1h0.8l0.1,0.8l0,0c0.6-0.5,1.3-0.9,2.1-0.9c1.7,0,2.6,1.3,2.6,3.3c0,2.2-1.3,3.5-2.8,3.5c-0.6,0-1.2-0.3-1.8-0.8
		v1.1v2.2h-1L30.6,150.1L30.6,150.1z M35.2,153.3c0-1.5-0.5-2.5-1.8-2.5c-0.6,0-1.2,0.3-1.8,0.9v3.5c0.6,0.5,1.2,0.7,1.7,0.7
		C34.3,155.9,35.2,154.9,35.2,153.3z"/>
	<path d="M38,155.4V147h1v8.4c0,0.3,0.1,0.5,0.3,0.5c0.1,0,0.1,0,0.2,0l0.1,0.8c-0.2,0-0.3,0.1-0.6,0.1
		C38.3,156.8,38,156.3,38,155.4z"/>
	<path d="M40.8,153.4c0-2.1,1.4-3.4,2.9-3.4c1.6,0,2.6,1.2,2.6,3c0,0.2,0,0.4,0,0.6h-4.4c0.1,1.4,0.9,2.4,2.2,2.4
		c0.6,0,1.2-0.2,1.6-0.5l0.4,0.6c-0.6,0.4-1.2,0.7-2.1,0.7C42.2,156.8,40.8,155.5,40.8,153.4z M45.4,152.9c0-1.4-0.6-2.1-1.7-2.1
		c-1,0-1.8,0.8-1.9,2.1H45.4z"/>
	<path d="M50.1,153.4c0-2.2,1.4-3.4,3-3.4s3,1.2,3,3.4c0,2.1-1.4,3.4-3,3.4C51.5,156.8,50.1,155.5,50.1,153.4z M55,153.4
		c0-1.5-0.8-2.6-2-2.6s-2,1-2,2.6c0,1.5,0.8,2.6,2,2.6C54.2,155.9,55,154.9,55,153.4z"/>
	<path d="M60.6,147.9c-0.3-0.1-0.5-0.2-0.7-0.2c-0.6,0-0.9,0.5-0.9,1.3v1.1h1.4v0.8H59v5.7h-1v-5.7h-0.9v-0.7l0.9-0.1V149
		c0-1.3,0.6-2.1,1.8-2.1c0.4,0,0.7,0.1,1,0.2L60.6,147.9z"/>
	<path d="M0.4,170.8h2v-6.7H0.9v-0.6c0.8-0.1,1.3-0.3,1.8-0.6h0.7v8h1.8v0.8H0.5v-0.9H0.4z"/>
	<path d="M9.2,168.4c0-2.1,1.4-3.4,2.9-3.4c1.6,0,2.6,1.2,2.6,3c0,0.2,0,0.4,0,0.6h-4.4c0.1,1.4,0.9,2.4,2.2,2.4
		c0.6,0,1.2-0.2,1.6-0.5l0.4,0.6c-0.6,0.4-1.2,0.7-2.1,0.7C10.6,171.8,9.2,170.5,9.2,168.4z M13.8,167.9c0-1.4-0.6-2.1-1.7-2.1
		c-1,0-1.8,0.8-1.9,2.1H13.8z"/>
	<path d="M16.3,165.1h0.8l0.1,1l0,0c0.6-0.6,1.3-1.1,2-1.1c1,0,1.5,0.5,1.8,1.3c0.7-0.7,1.4-1.3,2.2-1.3c1.3,0,2,0.9,2,2.5v4.1h-1
		v-4c0-1.2-0.4-1.8-1.3-1.8c-0.5,0-1.1,0.3-1.7,1.1v4.7h-1v-4c0-1.2-0.4-1.8-1.3-1.8c-0.5,0-1.1,0.3-1.7,1.1v4.7h-1v-6.5H16.3z"/>
	<path d="M29.2,170.9l0.5-0.7c0.6,0.5,1.1,0.8,2,0.8c0.9,0,1.3-0.5,1.3-1.1c0-0.7-0.8-1-1.5-1.3c-0.9-0.3-2-0.8-2-1.9
		c0-1,0.8-1.8,2.2-1.8c0.8,0,1.5,0.3,2,0.7l-0.5,0.6c-0.4-0.3-0.9-0.6-1.5-0.6c-0.9,0-1.3,0.5-1.3,1c0,0.6,0.7,0.9,1.5,1.2
		c0.9,0.4,2,0.7,2,2c0,1-0.8,1.9-2.3,1.9C30.7,171.8,29.9,171.4,29.2,170.9z"/>
	<path d="M35.6,165.1h0.8l0.1,0.8l0,0c0.6-0.5,1.3-0.9,2.1-0.9c1.7,0,2.6,1.3,2.6,3.3c0,2.2-1.3,3.5-2.8,3.5c-0.6,0-1.2-0.3-1.8-0.8
		v1.1v2.2h-1L35.6,165.1L35.6,165.1z M40.1,168.3c0-1.5-0.5-2.5-1.8-2.5c-0.6,0-1.2,0.3-1.8,0.9v3.5c0.6,0.5,1.2,0.7,1.7,0.7
		C39.3,170.9,40.1,169.9,40.1,168.3z"/>
	<path d="M42.5,169.9c0-1.4,1.2-2.1,4-2.4c0-0.9-0.3-1.7-1.4-1.7c-0.8,0-1.5,0.4-2,0.7l-0.4-0.7c0.6-0.4,1.5-0.9,2.5-0.9
		c1.6,0,2.2,1.1,2.2,2.6v4h-0.8l-0.1-0.8l0,0c-0.6,0.5-1.4,0.9-2.2,0.9C43.3,171.8,42.5,171.1,42.5,169.9z M46.5,170.1v-1.9
		c-2.3,0.3-3.1,0.8-3.1,1.7c0,0.8,0.5,1.1,1.2,1.1C45.3,171,45.9,170.7,46.5,170.1z"/>
	<path d="M49.1,168.4c0-2.2,1.4-3.4,3.1-3.4c0.9,0,1.4,0.4,1.9,0.8l-0.5,0.6c-0.4-0.4-0.8-0.6-1.3-0.6c-1.2,0-2.1,1-2.1,2.6
		c0,1.5,0.8,2.6,2.1,2.6c0.6,0,1.2-0.3,1.6-0.7l0.4,0.6c-0.6,0.5-1.3,0.8-2.1,0.8C50.4,171.8,49.1,170.5,49.1,168.4z"/>
	<path d="M55.2,168.4c0-2.1,1.4-3.4,2.9-3.4c1.6,0,2.6,1.2,2.6,3c0,0.2,0,0.4,0,0.6h-4.4c0.1,1.4,0.9,2.4,2.2,2.4
		c0.6,0,1.2-0.2,1.6-0.5l0.4,0.6c-0.6,0.4-1.2,0.7-2.1,0.7C56.6,171.8,55.2,170.5,55.2,168.4z M59.8,167.9c0-1.4-0.6-2.1-1.7-2.1
		c-1,0-1.8,0.8-1.9,2.1H59.8z"/>
</g>
<g>
	<path d="M-0.1,58c0-2.1,1.4-3.4,2.9-3.4c1.6,0,2.6,1.2,2.6,3c0,0.2,0,0.4,0,0.6H1c0.1,1.4,0.9,2.4,2.2,2.4c0.6,0,1.2-0.2,1.6-0.5
		l0.4,0.6c-0.6,0.4-1.2,0.7-2.1,0.7C1.3,61.4-0.1,60.2-0.1,58z M4.5,57.5c0-1.4-0.6-2.1-1.7-2.1c-1,0-1.8,0.8-1.9,2.1H4.5z"/>
	<path d="M8.2,57.9l-2-3.1h1.1l0.9,1.5c0.2,0.4,0.4,0.7,0.7,1.1l0,0c0.2-0.4,0.4-0.7,0.6-1.1l0.9-1.5h1l-2,3.2l2.1,3.3h-1.1l-1-1.6
		c-0.2-0.4-0.5-0.8-0.7-1.2H8.6c-0.2,0.4-0.5,0.8-0.7,1.2L7,61.3H6L8.2,57.9z"/>
	<path d="M12.4,59.6c0-1.4,1.2-2.1,4-2.4c0-0.9-0.3-1.7-1.4-1.7c-0.8,0-1.5,0.4-2,0.7l-0.4-0.7c0.6-0.4,1.5-0.9,2.5-0.9
		c1.6,0,2.2,1.1,2.2,2.6v4h-0.8l-0.1-0.8l0,0c-0.6,0.5-1.4,0.9-2.2,0.9C13.3,61.4,12.4,60.8,12.4,59.6z M16.5,59.7v-1.9
		c-2.3,0.3-3.1,0.8-3.1,1.7c0,0.8,0.5,1.1,1.2,1.1C15.2,60.6,15.8,60.3,16.5,59.7z"/>
	<path d="M19.6,54.8h0.8l0.1,1l0,0c0.6-0.6,1.3-1.1,2-1.1c1,0,1.5,0.5,1.8,1.3c0.7-0.7,1.4-1.3,2.2-1.3c1.3,0,2,0.9,2,2.5v4.1h-1v-4
		c0-1.2-0.4-1.8-1.3-1.8c-0.5,0-1.1,0.3-1.7,1.1v4.7h-1v-4c0-1.2-0.4-1.8-1.3-1.8c-0.5,0-1.1,0.3-1.7,1.1v4.7h-1v-6.5H19.6z"/>
	<path d="M30.6,54.8h0.8l0.1,0.8l0,0c0.6-0.5,1.3-0.9,2.1-0.9c1.7,0,2.6,1.3,2.6,3.3c0,2.2-1.3,3.5-2.8,3.5c-0.6,0-1.2-0.3-1.8-0.8
		v1.1V64h-1L30.6,54.8L30.6,54.8z M35.2,57.9c0-1.5-0.5-2.5-1.8-2.5c-0.6,0-1.2,0.3-1.8,0.9v3.5c0.6,0.5,1.2,0.7,1.7,0.7
		C34.3,60.6,35.2,59.6,35.2,57.9z"/>
	<path d="M38,60.1v-8.4h1v8.4c0,0.3,0.1,0.5,0.3,0.5c0.1,0,0.1,0,0.2,0l0.1,0.8c-0.2,0-0.3,0.1-0.6,0.1C38.3,61.4,38,60.9,38,60.1z"
		/>
	<path d="M40.8,58c0-2.1,1.4-3.4,2.9-3.4c1.6,0,2.6,1.2,2.6,3c0,0.2,0,0.4,0,0.6h-4.4c0.1,1.4,0.9,2.4,2.2,2.4
		c0.6,0,1.2-0.2,1.6-0.5l0.4,0.6c-0.6,0.4-1.2,0.7-2.1,0.7C42.2,61.4,40.8,60.2,40.8,58z M45.4,57.5c0-1.4-0.6-2.1-1.7-2.1
		c-1,0-1.8,0.8-1.9,2.1H45.4z"/>
	<path d="M50.1,58c0-2.2,1.4-3.4,3-3.4s3,1.2,3,3.4c0,2.1-1.4,3.4-3,3.4C51.5,61.4,50.1,60.2,50.1,58z M55,58c0-1.5-0.8-2.6-2-2.6
		s-2,1-2,2.6c0,1.5,0.8,2.6,2,2.6S55,59.6,55,58z"/>
	<path d="M60.6,52.5c-0.3-0.1-0.5-0.2-0.7-0.2c-0.6,0-0.9,0.5-0.9,1.3v1.1h1.4v0.8H59v5.7h-1v-5.6h-0.9v-0.7l0.9-0.1v-1.1
		c0-1.3,0.6-2.1,1.8-2.1c0.4,0,0.7,0.1,1,0.2L60.6,52.5z"/>
	<path d="M0.4,75.5h2v-6.7H0.9v-0.6c0.8-0.1,1.3-0.3,1.8-0.6h0.7v8h1.8v0.8H0.5v-0.9H0.4z"/>
	<path d="M9.7,66.8h0.7L6.7,78.4H6L9.7,66.8z"/>
	<path d="M11,75.2l0.5-0.6c0.5,0.5,1.2,1,2.2,1c1.1,0,1.8-0.7,1.8-1.7c0-1.1-0.7-1.8-2.8-1.8v-0.8c1.8,0,2.5-0.8,2.5-1.7
		s-0.6-1.5-1.5-1.5c-0.7,0-1.4,0.4-1.8,0.9l-0.5-0.6c0.6-0.6,1.4-1,2.4-1c1.4,0,2.5,0.8,2.5,2.2c0,1.1-0.6,1.8-1.6,2.1l0,0
		c1,0.2,1.9,1,1.9,2.2c0,1.6-1.2,2.5-2.8,2.5C12.4,76.4,11.5,75.8,11,75.2z"/>
	<path d="M20.5,73c0-2.1,1.4-3.4,2.9-3.4c1.6,0,2.6,1.2,2.6,3c0,0.2,0,0.4,0,0.6h-4.4c0.1,1.4,0.9,2.4,2.2,2.4
		c0.6,0,1.2-0.2,1.6-0.5l0.4,0.6c-0.6,0.4-1.2,0.7-2.1,0.7C21.9,76.4,20.5,75.2,20.5,73z M25.1,72.5c0-1.4-0.6-2.1-1.7-2.1
		c-1,0-1.8,0.8-1.9,2.1H25.1z"/>
	<path d="M27.6,69.8h0.8l0.1,1l0,0c0.6-0.6,1.3-1.1,2-1.1c1,0,1.5,0.5,1.8,1.3c0.7-0.7,1.4-1.3,2.2-1.3c1.3,0,2,0.9,2,2.5v4.1h-1v-4
		c0-1.2-0.4-1.8-1.3-1.8c-0.5,0-1.1,0.3-1.7,1.1v4.7h-1v-4c0-1.2-0.4-1.8-1.3-1.8c-0.5,0-1.1,0.3-1.7,1.1v4.7h-1L27.6,69.8
		L27.6,69.8z"/>
	<path d="M40.5,75.5l0.5-0.7c0.6,0.5,1.1,0.8,2,0.8s1.3-0.5,1.3-1.1c0-0.7-0.8-1-1.5-1.3c-0.9-0.3-2-0.8-2-1.9c0-1,0.8-1.8,2.2-1.8
		c0.8,0,1.5,0.3,2,0.7l-0.5,0.6c-0.4-0.3-0.9-0.6-1.5-0.6c-0.9,0-1.3,0.5-1.3,1c0,0.6,0.7,0.9,1.5,1.2c0.9,0.4,2,0.7,2,2
		c0,1-0.8,1.9-2.3,1.9C42,76.4,41.1,76,40.5,75.5z"/>
	<path d="M46.8,69.8h0.8l0.1,0.8l0,0c0.6-0.5,1.3-0.9,2.1-0.9c1.7,0,2.6,1.3,2.6,3.3c0,2.2-1.3,3.5-2.8,3.5c-0.6,0-1.2-0.3-1.8-0.8
		v1.1V79h-1L46.8,69.8L46.8,69.8z M51.4,72.9c0-1.5-0.5-2.5-1.8-2.5c-0.6,0-1.2,0.3-1.8,0.9v3.5c0.6,0.5,1.2,0.7,1.7,0.7
		C50.6,75.6,51.4,74.6,51.4,72.9z"/>
	<path d="M53.8,74.6c0-1.4,1.2-2.1,4-2.4c0-0.9-0.3-1.7-1.4-1.7c-0.8,0-1.5,0.4-2,0.7L54,70.5c0.6-0.4,1.5-0.9,2.5-0.9
		c1.6,0,2.2,1.1,2.2,2.6v4h-0.8l-0.1-0.8l0,0c-0.6,0.5-1.4,0.9-2.2,0.9C54.6,76.4,53.8,75.8,53.8,74.6z M57.8,74.7v-1.9
		c-2.3,0.3-3.1,0.8-3.1,1.7c0,0.8,0.5,1.1,1.2,1.1C56.6,75.6,57.2,75.3,57.8,74.7z"/>
	<path d="M60.4,73c0-2.2,1.4-3.4,3.1-3.4c0.9,0,1.4,0.4,1.9,0.8L64.9,71c-0.4-0.4-0.8-0.6-1.3-0.6c-1.2,0-2.1,1-2.1,2.6
		c0,1.5,0.8,2.6,2.1,2.6c0.6,0,1.2-0.3,1.6-0.7l0.4,0.6c-0.6,0.5-1.3,0.8-2.1,0.8C61.7,76.4,60.4,75.2,60.4,73z"/>
	<path d="M66.5,73c0-2.1,1.4-3.4,2.9-3.4c1.6,0,2.6,1.2,2.6,3c0,0.2,0,0.4,0,0.6h-4.4c0.1,1.4,0.9,2.4,2.2,2.4
		c0.6,0,1.2-0.2,1.6-0.5l0.4,0.6c-0.6,0.4-1.2,0.7-2.1,0.7C67.9,76.4,66.5,75.2,66.5,73z M71.1,72.5c0-1.4-0.6-2.1-1.7-2.1
		c-1,0-1.8,0.8-1.9,2.1H71.1z"/>
</g>
</svg>
