<svg xmlns="http://www.w3.org/2000/svg" viewBox="0 0 61.638 180.75"><defs><style>.cls-1{fill:#231815}.cls-2,.cls-3{fill:none}.cls-2{stroke:#b6d278;stroke-width:.75px}.cls-3{stroke:#231815;stroke-width:.5px}</style></defs><g id="レイヤー_2" data-name="レイヤー 2"><g id="レイヤー_1-2" data-name="レイヤー 1"><path class="cls-1" d="M34.717 7.763s0 1.152-.036 1.584c-.504 16.234-.936 21.814-2.375 23.613a4.014 4.014 0 0 1-3.132 1.692 38.662 38.662 0 0 1-5.436 0 7.836 7.836 0 0 0-1.08-3.24c2.304.18 4.392.216 5.292.216a1.614 1.614 0 0 0 1.512-.611c1.151-1.188 1.62-6.624 2.088-20.194h-8.495a36.24 36.24 0 0 1-3.276 6.047 17.648 17.648 0 0 0-2.628-1.872V31.52H7.396v2.736h-3.06V7.943h4.032a42.177 42.177 0 0 0 1.26-5.83l3.636.611c-.612 1.8-1.296 3.708-1.872 5.22h5.76v6.803c2.376-3.096 4.283-7.884 5.363-12.635l3.24.756c-.432 1.656-.9 3.312-1.476 4.895ZM7.397 10.86v6.84h6.695v-6.84Zm6.695 17.71v-7.955H7.396v7.955Zm11.986-2.808a58.62 58.62 0 0 0-5.255-8.315l2.627-1.476a64.605 64.605 0 0 1 5.436 8.027ZM21.219 68.42c-8.028 0-13.823-5.003-13.823-13.642 0-8.567 5.94-13.822 13.823-13.822a12.786 12.786 0 0 1 8.999 3.383l-2.412 2.7a9.268 9.268 0 0 0-6.444-2.447c-5.579 0-9.646 3.887-9.646 10.078 0 6.228 3.743 10.116 9.934 10.116a9.21 9.21 0 0 0 5.076-1.332v-6.12h-6.263v-3.456h10.079v11.446a13.658 13.658 0 0 1-9.323 3.096ZM10.15 77.892h6.876c8.135 0 12.778 4.5 12.778 13.138 0 8.604-4.643 13.355-12.562 13.355H10.15Zm6.588 23.073c5.686 0 8.746-3.348 8.746-9.935 0-6.623-3.06-9.755-8.746-9.755h-2.412v19.69ZM9.988 113.424h8.927c6.839 0 11.339 2.051 11.339 8.026 0 5.796-4.571 8.495-11.16 8.495h-4.93v10.043H9.988Zm8.675 13.137c4.968 0 7.451-1.583 7.451-5.11 0-3.564-2.7-4.68-7.63-4.68h-4.32v9.79ZM21.255 175.304c1.115.108 2.376.144 3.67.144 1.585.036 8.784 0 10.908-.036a11.488 11.488 0 0 0-1.152 3.167h-9.935c-6.875 0-11.446-1.008-14.398-5.579a17.54 17.54 0 0 1-5.328 6.3 19.576 19.576 0 0 0-2.483-2.376c3.672-2.34 5.903-6.299 6.803-11.303l3.347.468a29.023 29.023 0 0 1-.899 3.384 8.753 8.753 0 0 0 6.12 5.255v-10.079h-14.4v-2.952h31.533v2.952H21.255v3.42H32.7v2.915H21.255Zm10.043-15.694H7.072v-12.094h24.226Zm-3.384-9.611H10.312v2.412h17.602Zm0 4.752H10.312v2.411h17.602Z"/><path class="cls-2" d="M.375 144.375h36v36h-36zM.375 108.375h36v36h-36zM.375 72.375h36v36h-36zM.375 36.375h36v36h-36zM.375.375h36v36h-36z"/><path class="cls-3" d="m43.876 7.117-7.248 4.186 7.248 4.184M36.628 11.303h13"/><path class="cls-1" d="M52.338 7.82a2.745 2.745 0 0 1 .858-2.165 3.52 3.52 0 0 1 2.418-.762 3.951 3.951 0 0 1 1.818.384 2.673 2.673 0 0 1 1.14 1.074 3.201 3.201 0 0 1 .39 1.602 4.27 4.27 0 0 1-.084.87 3.329 3.329 0 0 1-.227.714l-.601-.192a3.378 3.378 0 0 0 .3-1.392 2.143 2.143 0 0 0-.732-1.74 3.012 3.012 0 0 0-1.992-.612 3.232 3.232 0 0 0-1.944.54 1.922 1.922 0 0 0-.744 1.668 4.005 4.005 0 0 0 .096.9 3.744 3.744 0 0 0 .252.756h-.612a3.15 3.15 0 0 1-.246-.72 4.336 4.336 0 0 1-.09-.924ZM61.578 11.649H58.65q-.48 0-.912-.036v.048a2.024 2.024 0 0 1 .876.792 2.52 2.52 0 0 1 .348 1.368 2.31 2.31 0 0 1-.564 1.674 2.365 2.365 0 0 1-1.765.582h-4.175v-.684h4.128a1.884 1.884 0 0 0 1.344-.414 1.61 1.61 0 0 0 .432-1.218q0-2.113-2.424-2.112h-3.48v-.672h9.12ZM58.95 20.385a2.185 2.185 0 0 1-.528 1.608 2.28 2.28 0 0 1-1.668.528h-4.296v-.516l1.08-.132v-.024a2.77 2.77 0 0 1-.87-.84 2.526 2.526 0 0 1-.33-1.393 2.154 2.154 0 0 1 .456-1.445 1.653 1.653 0 0 1 1.332-.534 1.63 1.63 0 0 1 1.452.773 4.538 4.538 0 0 1 .564 2.274l.06 1.164h.445a1.899 1.899 0 0 0 1.338-.377 1.478 1.478 0 0 0 .39-1.11 3.545 3.545 0 0 0-.127-.949 4.55 4.55 0 0 0-.366-.911l.552-.217a4.893 4.893 0 0 1 .372.984 4.288 4.288 0 0 1 .144 1.117Zm-3.276 1.464-.048-1.08a3.881 3.881 0 0 0-.414-1.824 1.202 1.202 0 0 0-1.098-.6 1.091 1.091 0 0 0-.894.372 1.558 1.558 0 0 0-.306 1.02 2.047 2.047 0 0 0 .563 1.542 2.267 2.267 0 0 0 1.584.57ZM58.95 27.177a3.026 3.026 0 0 1-.108.864l-.624-.096a3.319 3.319 0 0 0 .072-.384 3.378 3.378 0 0 0 .024-.408 1.689 1.689 0 0 0-.642-1.398 2.669 2.669 0 0 0-1.71-.51h-3.504v-.684h6.384v.576l-1.2.072v.036a2.421 2.421 0 0 1 .925.726 1.886 1.886 0 0 1 .383 1.206ZM58.95 31.545a2.185 2.185 0 0 1-.528 1.608 2.28 2.28 0 0 1-1.668.528h-4.296v-.516l1.08-.132v-.024a2.772 2.772 0 0 1-.87-.84 2.526 2.526 0 0 1-.33-1.392 2.154 2.154 0 0 1 .456-1.446 1.653 1.653 0 0 1 1.332-.534 1.63 1.63 0 0 1 1.452.774 4.538 4.538 0 0 1 .564 2.274l.06 1.164h.445a1.898 1.898 0 0 0 1.338-.378 1.478 1.478 0 0 0 .39-1.11 3.545 3.545 0 0 0-.127-.949 4.549 4.549 0 0 0-.366-.911l.552-.216a4.89 4.89 0 0 1 .372.983 4.287 4.287 0 0 1 .144 1.117Zm-3.276 1.464-.048-1.08a3.881 3.881 0 0 0-.414-1.824 1.202 1.202 0 0 0-1.098-.6 1.091 1.091 0 0 0-.894.372 1.559 1.559 0 0 0-.306 1.02 2.047 2.047 0 0 0 .563 1.542 2.267 2.267 0 0 0 1.584.57ZM52.338 38.277a2.745 2.745 0 0 1 .858-2.166 3.52 3.52 0 0 1 2.418-.762 3.95 3.95 0 0 1 1.818.384 2.672 2.672 0 0 1 1.14 1.074 3.201 3.201 0 0 1 .39 1.602 4.271 4.271 0 0 1-.084.87 3.33 3.33 0 0 1-.227.714l-.6-.192a3.377 3.377 0 0 0 .3-1.392 2.143 2.143 0 0 0-.732-1.74 3.012 3.012 0 0 0-1.992-.611 3.233 3.233 0 0 0-1.945.54 1.922 1.922 0 0 0-.743 1.668 4.006 4.006 0 0 0 .096.9 3.746 3.746 0 0 0 .252.756h-.613a3.152 3.152 0 0 1-.246-.72 4.335 4.335 0 0 1-.09-.925ZM52.914 43.233a3 3 0 0 0 .042.51 2.546 2.546 0 0 0 .102.413h-.552a2.727 2.727 0 0 1-.12-.45 3.205 3.205 0 0 1-.048-.57 1.617 1.617 0 0 1 .45-1.223 2.036 2.036 0 0 1 1.446-.432h4.056v-.949h.384l.216.949 1.476.24v.431h-1.524v1.969h-.552v-1.968h-4.032q-1.344 0-1.344 1.08ZM58.962 47.937a2.366 2.366 0 0 1-.378 1.368 2.3 2.3 0 0 1-1.038.828 3.891 3.891 0 0 1-1.512.276h-.48v-4.56a2.869 2.869 0 0 0-1.937.588 2.118 2.118 0 0 0-.678 1.692 4.958 4.958 0 0 0 .096 1.044 4.817 4.817 0 0 0 .336.972h-.624a4.522 4.522 0 0 1-.313-.948 5.528 5.528 0 0 1-.096-1.092 2.764 2.764 0 0 1 .876-2.196 3.495 3.495 0 0 1 2.388-.768 4.32 4.32 0 0 1 1.734.33 2.733 2.733 0 0 1 1.195.954 2.59 2.59 0 0 1 .43 1.512Zm-.576-.012a1.852 1.852 0 0 0-.588-1.422 2.732 2.732 0 0 0-1.668-.642v3.828a2.843 2.843 0 0 0 1.632-.426 1.506 1.506 0 0 0 .624-1.338ZM58.95 54.753a3.026 3.026 0 0 1-.108.864l-.624-.096a3.323 3.323 0 0 0 .072-.384 3.378 3.378 0 0 0 .024-.408 1.689 1.689 0 0 0-.642-1.398 2.669 2.669 0 0 0-1.71-.51h-3.504v-.684h6.384v.576l-1.2.072v.036a2.422 2.422 0 0 1 .925.725 1.887 1.887 0 0 1 .383 1.207ZM58.29 62.469v-1.525h-5.832v-.683h5.832v-1.176h.372l.204 1.176h.624a2.37 2.37 0 0 1 1.626.473 1.844 1.844 0 0 1 .522 1.435 3.182 3.182 0 0 1-.054.611 4.728 4.728 0 0 1-.126.505l-.576-.156a3.784 3.784 0 0 0 .12-.462 2.572 2.572 0 0 0 .048-.498 1.12 1.12 0 0 0-.366-.937 1.925 1.925 0 0 0-1.182-.288h-.66v1.525ZM58.95 66.309a3.026 3.026 0 0 1-.108.864l-.624-.096a3.184 3.184 0 0 0 .096-.792 1.689 1.689 0 0 0-.642-1.398 2.671 2.671 0 0 0-1.71-.51h-3.504v-.685h6.384v.576l-1.2.073v.036a2.423 2.423 0 0 1 .925.725 1.887 1.887 0 0 1 .383 1.207ZM58.95 70.676a2.185 2.185 0 0 1-.528 1.608 2.282 2.282 0 0 1-1.668.529h-4.296v-.517l1.08-.132v-.023a2.768 2.768 0 0 1-.87-.841 2.525 2.525 0 0 1-.33-1.392 2.156 2.156 0 0 1 .456-1.446 1.655 1.655 0 0 1 1.332-.533 1.63 1.63 0 0 1 1.452.773 4.539 4.539 0 0 1 .564 2.275l.06 1.164h.445a1.899 1.899 0 0 0 1.338-.378 1.48 1.48 0 0 0 .39-1.11 3.542 3.542 0 0 0-.127-.948 4.586 4.586 0 0 0-.366-.913l.552-.215a4.886 4.886 0 0 1 .372.984 4.275 4.275 0 0 1 .144 1.115Zm-3.276 1.465-.048-1.08a3.88 3.88 0 0 0-.414-1.825 1.202 1.202 0 0 0-1.098-.6 1.09 1.09 0 0 0-.894.372 1.56 1.56 0 0 0-.306 1.02 2.047 2.047 0 0 0 .563 1.541 2.267 2.267 0 0 0 1.584.57ZM58.962 81.523a1.99 1.99 0 0 1-.54 1.483 2.348 2.348 0 0 1-1.704.534h-4.26v-.672h4.223a1.808 1.808 0 0 0 1.273-.384 1.384 1.384 0 0 0 .408-1.056 1.817 1.817 0 0 0-.534-1.405 2.373 2.373 0 0 0-1.65-.49h-3.72v-.673h4.224a1.808 1.808 0 0 0 1.272-.385 1.38 1.38 0 0 0 .408-1.055 1.773 1.773 0 0 0-.558-1.405 2.55 2.55 0 0 0-1.722-.492h-3.624v-.672h6.384v.553l-1.008.096v.048a2.092 2.092 0 0 1 1.128 1.968 2.179 2.179 0 0 1-.3 1.176 1.594 1.594 0 0 1-.9.672v.048a1.91 1.91 0 0 1 .889.815 2.59 2.59 0 0 1 .31 1.296ZM58.962 88.004a2.364 2.364 0 0 1-.378 1.367 2.294 2.294 0 0 1-1.038.828 3.882 3.882 0 0 1-1.512.277h-.48v-4.56a2.867 2.867 0 0 0-1.937.588 2.115 2.115 0 0 0-.678 1.692 4.955 4.955 0 0 0 .096 1.044 4.831 4.831 0 0 0 .336.972h-.624a4.535 4.535 0 0 1-.313-.948 5.534 5.534 0 0 1-.096-1.092 2.765 2.765 0 0 1 .876-2.196 3.493 3.493 0 0 1 2.388-.768 4.328 4.328 0 0 1 1.734.33 2.741 2.741 0 0 1 1.195.954 2.59 2.59 0 0 1 .43 1.512Zm-.576-.013a1.853 1.853 0 0 0-.588-1.422 2.728 2.728 0 0 0-1.668-.641v3.828a2.84 2.84 0 0 0 1.632-.427 1.505 1.505 0 0 0 .624-1.338Z"/></g></g></svg>