<svg xmlns="http://www.w3.org/2000/svg" viewBox="0 0 62.272 196.011"><defs><style>.cls-1{fill:#231815}.cls-2,.cls-3{fill:none}.cls-2{stroke:#b6d278;stroke-width:.75px}.cls-3{stroke:#231815;stroke-width:.5px}</style></defs><g id="レイヤー_2" data-name="レイヤー 2"><g id="レイヤー_1-2" data-name="レイヤー 1"><path class="cls-1" d="M33.85 7.65s0 1.153-.036 1.585c-.503 16.234-.935 21.813-2.374 23.613a4.014 4.014 0 0 1-3.132 1.692 38.662 38.662 0 0 1-5.436 0 7.836 7.836 0 0 0-1.08-3.24c2.304.18 4.392.216 5.292.216a1.614 1.614 0 0 0 1.512-.612c1.151-1.188 1.619-6.624 2.088-20.194h-8.495a36.232 36.232 0 0 1-3.276 6.048 17.652 17.652 0 0 0-2.628-1.872v16.522H6.53v2.735H3.47V7.831h4.032A42.19 42.19 0 0 0 8.762 2l3.635.612c-.612 1.8-1.295 3.707-1.872 5.219h5.76v6.803C18.661 11.54 20.568 6.751 21.648 2l3.24.756c-.432 1.656-.9 3.311-1.476 4.895ZM6.53 10.747v6.84h6.695v-6.84Zm6.695 17.71v-7.955H6.53v7.955Zm11.987-2.807a58.612 58.612 0 0 0-5.255-8.315l2.627-1.476a64.594 64.594 0 0 1 5.436 8.027ZM14.99 47.32c6.443 0 10.439 4.392 10.439 9.035 0 5.255-3.78 8.063-9.396 8.063a10.659 10.659 0 0 1-2.087-.18v-12.85c-3.78.323-6.048 2.7-6.048 6.118a8.407 8.407 0 0 0 1.476 4.717l-2.627 1.44a12.002 12.002 0 0 1-2.088-6.695c0-5.364 3.816-9.648 10.33-9.648Zm1.8 13.534c3.42 0 5.399-1.548 5.399-4.427 0-2.484-1.908-4.68-5.4-5.075ZM14.99 67.732c6.443 0 10.439 4.068 10.439 8.495a7.638 7.638 0 0 1-2.233 5.328l3.277-.18h7.342v4.14H5.127V82.13l2.231-.36v-.108a8.301 8.301 0 0 1-2.699-5.76c0-4.968 3.78-8.17 10.33-8.17Zm-4.5 13.643h9.683a6.21 6.21 0 0 0 1.8-4.356c0-2.771-2.628-5.003-6.911-5.003-4.5 0-6.984 1.763-6.984 4.859a5.822 5.822 0 0 0 2.412 4.5ZM24.925 91.744v4.104H5.127v-4.104Zm6.155-.576a2.432 2.432 0 0 1 2.447 2.628 2.454 2.454 0 1 1-2.447-2.628ZM11.606 102.724h10.007v-2.88h3.096l.216 3.06 5.47.468v3.491h-5.47v5.148h-3.312v-5.148H11.57c-2.376 0-3.6.828-3.6 2.88a5.906 5.906 0 0 0 .468 2.124l-3.06.756a12.662 12.662 0 0 1-.72-3.888c.001-4.463 2.773-6.011 6.948-6.011ZM14.99 114.928c6.623 0 10.439 4.427 10.439 9.323s-3.816 9.322-10.44 9.322c-6.55 0-10.33-4.426-10.33-9.322s3.78-9.323 10.33-9.323Zm0 14.398c4.211 0 7.02-1.943 7.02-5.075 0-3.096-2.808-5.04-7.02-5.04-4.176 0-6.947 1.944-6.947 5.04 0 3.132 2.772 5.075 6.946 5.075ZM24.925 138.435v3.384l-3.564.324v.108c2.556 1.403 4.068 3.491 4.068 5.615a4.92 4.92 0 0 1-.433 2.232l-3.6-.756a5.833 5.833 0 0 0 .324-1.98c0-1.62-1.115-3.564-4.247-4.823H5.127v-4.104ZM20.389 189.626c1.115.108 2.376.144 3.67.144 1.585.037 8.784 0 10.908-.036a11.487 11.487 0 0 0-1.152 3.167H23.88c-6.875 0-11.446-1.008-14.399-5.579a17.539 17.539 0 0 1-5.327 6.3 19.575 19.575 0 0 0-2.483-2.376c3.672-2.34 5.903-6.3 6.803-11.303l3.347.468a29.028 29.028 0 0 1-.899 3.384 8.753 8.753 0 0 0 6.119 5.255v-10.078H2.643v-2.952h31.532v2.952H20.389v3.42h11.446v2.915H20.389Zm10.043-15.693H6.206v-12.095h24.226Zm-3.384-9.612H9.446v2.412h17.602Zm0 4.752H9.446v2.411h17.602Z"/><path class="cls-2" d="M.375 159.636h36v36h-36zM.375 45.763h36v21.154h-36zM.375 66.917h36v20.477h-36zM.375 87.394h36v10.508h-36z"/><path class="cls-2" d="M.375 97.901h36v16.51h-36zM.375 114.649h36v21.366h-36zM.375 136.015h36v16.018h-36z"/><path class="cls-3" d="m44.51 7.005-7.248 4.185 7.248 4.185M37.262 11.19h13"/><path class="cls-1" d="M52.972 7.708a2.745 2.745 0 0 1 .858-2.166 3.52 3.52 0 0 1 2.418-.761 3.951 3.951 0 0 1 1.817.383 2.674 2.674 0 0 1 1.141 1.075 3.202 3.202 0 0 1 .39 1.602 4.27 4.27 0 0 1-.084.87 3.323 3.323 0 0 1-.228.714l-.6-.192a3.378 3.378 0 0 0 .3-1.392 2.143 2.143 0 0 0-.732-1.74 3.012 3.012 0 0 0-1.992-.612 3.232 3.232 0 0 0-1.944.54 1.922 1.922 0 0 0-.744 1.668 4.005 4.005 0 0 0 .096.9 3.744 3.744 0 0 0 .252.756h-.612a3.15 3.15 0 0 1-.246-.72 4.342 4.342 0 0 1-.09-.924ZM62.212 11.537h-2.928q-.48 0-.912-.037v.049a2.024 2.024 0 0 1 .876.792 2.52 2.52 0 0 1 .348 1.368 2.31 2.31 0 0 1-.564 1.674 2.365 2.365 0 0 1-1.764.581h-4.176v-.683h4.128a1.884 1.884 0 0 0 1.344-.414 1.61 1.61 0 0 0 .432-1.219q0-2.112-2.423-2.111h-3.48v-.672h9.12ZM59.584 20.272a2.185 2.185 0 0 1-.528 1.608 2.28 2.28 0 0 1-1.668.529h-4.296v-.516l1.08-.133v-.024a2.769 2.769 0 0 1-.87-.84 2.526 2.526 0 0 1-.33-1.392 2.154 2.154 0 0 1 .456-1.446 1.653 1.653 0 0 1 1.332-.534 1.63 1.63 0 0 1 1.452.774 4.536 4.536 0 0 1 .564 2.274l.06 1.164h.444a1.899 1.899 0 0 0 1.338-.378 1.478 1.478 0 0 0 .39-1.11 3.545 3.545 0 0 0-.126-.948 4.546 4.546 0 0 0-.366-.912l.552-.216a4.899 4.899 0 0 1 .372.984 4.292 4.292 0 0 1 .144 1.116Zm-3.276 1.464-.048-1.08a3.881 3.881 0 0 0-.414-1.823 1.202 1.202 0 0 0-1.098-.6 1.091 1.091 0 0 0-.894.372 1.558 1.558 0 0 0-.306 1.02 2.047 2.047 0 0 0 .563 1.542 2.267 2.267 0 0 0 1.584.57ZM59.584 27.064a3.023 3.023 0 0 1-.108.865l-.624-.096a3.319 3.319 0 0 0 .072-.384 3.358 3.358 0 0 0 .024-.409 1.689 1.689 0 0 0-.642-1.398 2.669 2.669 0 0 0-1.71-.51h-3.504v-.684h6.384v.576l-1.2.072v.036a2.421 2.421 0 0 1 .924.726 1.886 1.886 0 0 1 .384 1.206ZM59.584 31.433a2.185 2.185 0 0 1-.528 1.608 2.28 2.28 0 0 1-1.668.528h-4.296v-.516l1.08-.133v-.024a2.77 2.77 0 0 1-.87-.84 2.525 2.525 0 0 1-.33-1.392 2.154 2.154 0 0 1 .456-1.445 1.653 1.653 0 0 1 1.332-.535 1.63 1.63 0 0 1 1.452.774 4.536 4.536 0 0 1 .564 2.274l.06 1.164h.444a1.898 1.898 0 0 0 1.338-.378 1.478 1.478 0 0 0 .39-1.11 3.545 3.545 0 0 0-.126-.948 4.543 4.543 0 0 0-.366-.911l.552-.217a4.896 4.896 0 0 1 .372.984 4.291 4.291 0 0 1 .144 1.117Zm-3.276 1.464-.048-1.08a3.881 3.881 0 0 0-.414-1.824 1.202 1.202 0 0 0-1.098-.6 1.091 1.091 0 0 0-.894.372 1.559 1.559 0 0 0-.306 1.02 2.047 2.047 0 0 0 .563 1.542 2.267 2.267 0 0 0 1.584.57ZM52.972 38.164a2.745 2.745 0 0 1 .858-2.166 3.52 3.52 0 0 1 2.418-.761 3.95 3.95 0 0 1 1.817.384 2.672 2.672 0 0 1 1.141 1.074 3.202 3.202 0 0 1 .39 1.602 4.271 4.271 0 0 1-.084.87 3.324 3.324 0 0 1-.227.714l-.601-.192a3.377 3.377 0 0 0 .3-1.392 2.143 2.143 0 0 0-.731-1.74 3.013 3.013 0 0 0-1.993-.612 3.233 3.233 0 0 0-1.944.54 1.922 1.922 0 0 0-.743 1.668 4.006 4.006 0 0 0 .096.9 3.746 3.746 0 0 0 .252.756h-.613a3.152 3.152 0 0 1-.246-.72 4.341 4.341 0 0 1-.09-.925ZM53.548 43.12a3 3 0 0 0 .042.51 2.546 2.546 0 0 0 .101.414h-.551a2.737 2.737 0 0 1-.12-.45 3.205 3.205 0 0 1-.048-.57 1.617 1.617 0 0 1 .45-1.224 2.036 2.036 0 0 1 1.447-.432h4.055v-.948h.384l.216.948 1.476.24v.432h-1.524v1.968h-.552V42.04h-4.032q-1.344 0-1.344 1.08ZM59.596 47.825a2.366 2.366 0 0 1-.378 1.368 2.3 2.3 0 0 1-1.038.828 3.89 3.89 0 0 1-1.512.276h-.48v-4.56a2.87 2.87 0 0 0-1.937.588 2.118 2.118 0 0 0-.678 1.692 4.958 4.958 0 0 0 .096 1.043 4.817 4.817 0 0 0 .335.973h-.624a4.528 4.528 0 0 1-.313-.948 5.528 5.528 0 0 1-.095-1.092 2.764 2.764 0 0 1 .876-2.196 3.495 3.495 0 0 1 2.388-.768 4.319 4.319 0 0 1 1.734.33 2.733 2.733 0 0 1 1.194.953 2.59 2.59 0 0 1 .432 1.513Zm-.576-.013a1.853 1.853 0 0 0-.588-1.421 2.732 2.732 0 0 0-1.668-.642v3.828a2.843 2.843 0 0 0 1.631-.426 1.506 1.506 0 0 0 .625-1.339ZM59.584 54.64a3.023 3.023 0 0 1-.108.865l-.624-.096a3.323 3.323 0 0 0 .072-.384 3.358 3.358 0 0 0 .024-.408 1.689 1.689 0 0 0-.642-1.398 2.669 2.669 0 0 0-1.71-.51h-3.504v-.684h6.384v.575l-1.2.072v.037a2.422 2.422 0 0 1 .924.725 1.886 1.886 0 0 1 .384 1.207ZM58.924 62.356v-1.524h-5.832v-.684h5.832v-1.175h.372l.204 1.175h.624a2.37 2.37 0 0 1 1.626.474 1.844 1.844 0 0 1 .521 1.435 3.182 3.182 0 0 1-.053.61 4.728 4.728 0 0 1-.126.506l-.576-.156a3.784 3.784 0 0 0 .12-.462 2.572 2.572 0 0 0 .048-.498 1.12 1.12 0 0 0-.367-.937 1.925 1.925 0 0 0-1.181-.288h-.66v1.524ZM59.584 66.196a3.022 3.022 0 0 1-.108.864l-.624-.095a3.184 3.184 0 0 0 .096-.792 1.689 1.689 0 0 0-.642-1.399 2.671 2.671 0 0 0-1.71-.51h-3.504v-.684h6.384v.576l-1.2.072v.037a2.423 2.423 0 0 1 .924.725 1.887 1.887 0 0 1 .384 1.206ZM59.584 70.563a2.185 2.185 0 0 1-.528 1.609 2.282 2.282 0 0 1-1.668.528h-4.296v-.516l1.08-.132v-.024a2.766 2.766 0 0 1-.87-.84 2.524 2.524 0 0 1-.33-1.392 2.156 2.156 0 0 1 .456-1.446 1.655 1.655 0 0 1 1.332-.534 1.63 1.63 0 0 1 1.452.774 4.537 4.537 0 0 1 .564 2.274l.06 1.164h.444a1.899 1.899 0 0 0 1.338-.378 1.48 1.48 0 0 0 .39-1.11 3.542 3.542 0 0 0-.126-.948 4.58 4.58 0 0 0-.366-.912l.552-.216a4.892 4.892 0 0 1 .372.985 4.28 4.28 0 0 1 .144 1.114Zm-3.276 1.465-.048-1.08a3.88 3.88 0 0 0-.414-1.824 1.202 1.202 0 0 0-1.098-.6 1.09 1.09 0 0 0-.894.371 1.56 1.56 0 0 0-.306 1.02 2.047 2.047 0 0 0 .563 1.542 2.267 2.267 0 0 0 1.584.57ZM59.596 81.411a1.99 1.99 0 0 1-.54 1.483 2.348 2.348 0 0 1-1.704.534h-4.26v-.672h4.223a1.808 1.808 0 0 0 1.273-.384 1.384 1.384 0 0 0 .408-1.057 1.817 1.817 0 0 0-.534-1.404 2.373 2.373 0 0 0-1.65-.491h-3.72v-.672h4.223a1.808 1.808 0 0 0 1.273-.385 1.38 1.38 0 0 0 .408-1.055 1.773 1.773 0 0 0-.559-1.405 2.55 2.55 0 0 0-1.721-.492h-3.624v-.672h6.384v.553l-1.008.096v.048a2.092 2.092 0 0 1 1.128 1.967 2.179 2.179 0 0 1-.3 1.177 1.594 1.594 0 0 1-.9.672v.048a1.91 1.91 0 0 1 .888.815 2.59 2.59 0 0 1 .312 1.296ZM59.596 87.892a2.364 2.364 0 0 1-.378 1.367 2.294 2.294 0 0 1-1.038.828 3.881 3.881 0 0 1-1.512.276h-.48v-4.56a2.867 2.867 0 0 0-1.937.589 2.115 2.115 0 0 0-.678 1.691 4.955 4.955 0 0 0 .096 1.044 4.831 4.831 0 0 0 .335.973h-.624a4.541 4.541 0 0 1-.313-.949 5.534 5.534 0 0 1-.095-1.092 2.765 2.765 0 0 1 .876-2.196 3.493 3.493 0 0 1 2.388-.768 4.328 4.328 0 0 1 1.734.33 2.741 2.741 0 0 1 1.194.954 2.59 2.59 0 0 1 .432 1.513Zm-.576-.013a1.853 1.853 0 0 0-.588-1.422 2.728 2.728 0 0 0-1.668-.642v3.829a2.84 2.84 0 0 0 1.631-.427 1.505 1.505 0 0 0 .625-1.338Z"/><path class="cls-2" d="M.51.375h36v36h-36z"/></g></g></svg>