<?xml version="1.0" encoding="UTF-8"?><svg id="a" xmlns="http://www.w3.org/2000/svg" viewBox="0 0 289.1 166.56"><defs><style>.b{fill:#231916;}.c{stroke:#231916;stroke-width:.5px;}.c,.d{fill:none;}.d{stroke:#90c423;stroke-width:.75px;}</style></defs><path class="b" d="m27.94,84.77c-.5.65-1.08.86-2.59.43-4.54,3.46-12.96,7.49-20.67,9.65l-.72-.94c6.77-3.24,14.4-8.71,18.07-12.89l5.9,3.74Zm-14.98-29.67c0,.58-2.02,1.8-3.74,1.8h-.65v-23.4l7.06.72c-.14,1.01-.79,1.73-2.66,2.02v18.87Zm52.64-19.15c-.43.65-1.22.79-2.95.86-2.81,4.32-6.55,7.99-11.31,11.02,5.04,2.38,10.87,3.96,17.35,4.68v.79c-1.94.43-3.53,1.87-3.82,4.1-7.06-1.51-12.89-3.82-17.64-7.27-3.67,1.8-7.78,3.38-12.31,4.54l4.32,2.95c-.43.58-1.44,1.15-3.1.58-3.82,2.09-9.86,4.68-15.84,6.77,5.76-.36,13.47-.94,21.39-1.51,4.03-2.02,7.42-3.82,9.87-5.4l5.4,4.39c-.5.58-1.66.94-3.31.22-7.99,3.82-22.54,9.07-35.86,12.75,8.78-.29,21.89-.86,35.86-1.51-2.3-2.02-4.9-3.74-7.06-5.04l.65-.79c19.15,4.46,17.93,15.63,12.67,13.25-.86-1.94-2.59-3.89-4.61-5.9-4.68.58-10.37,1.3-16.85,1.87v13.18c0,3.6-.86,5.69-6.62,6.26-.14-1.15-.43-2.3-1.15-2.88-.86-.72-2.3-1.15-4.97-1.51v-1.08s5.47.43,6.77.43c1.08,0,1.37-.43,1.37-1.22v-12.67c-6.19.65-13.03,1.3-20.31,1.94-.43.65-1.01,1.08-1.51,1.22l-2.3-5.83s1.58-.07,2.38-.29c7.56-2.02,16.56-5.4,24.27-8.93-5.62.94-12.53,2.09-19.95,3.02-.43.72-1.01,1.15-1.51,1.37l-2.16-5.4s1.15-.22,1.73-.43c5.9-1.66,13.18-6.05,17.43-9.15-1.01.22-2.09.43-3.17.65l-.5-1.15c6.19-1.66,11.81-3.89,16.49-6.7-3.53-3.17-6.41-7.06-8.5-11.81h-5.04l-.58-2.09h26.79l3.17-2.95,5.04,4.68Zm-39.1,19.59c0,.65-2.09,1.87-3.82,1.87h-.72v-26.86l7.2.72c-.14,1.01-.86,1.66-2.66,1.94v22.32Zm11.38-19.23c2.52,3.89,5.9,7.13,10.01,9.65,3.89-2.74,6.91-5.98,9.14-9.65h-19.15Zm6.98,46.16c23.33,2.95,23.98,14.83,17.79,13.18-3.53-4.46-12.17-9.65-18.36-12.24l.58-.94Z"/><path class="b" d="m94.54,46.54c-.29.86-1.01,1.58-2.67,1.58-.43,24.55-.07,39.1-16.71,48.68l-1.01-1.3c13.68-10.08,13.47-23.91,13.54-50.69l6.84,1.73Zm5.11-12.53l5.11,4.03c-.43.5-1.22.94-2.81,1.22v32.98c0,.36-1.73,1.44-3.6,1.44h-.65v-34.85h-15.48v34.35c0,.36-1.37,1.37-3.53,1.37h-.65v-40.04l5.04,2.23h14.33l2.23-2.74Zm-7.92,41.91c15.91,7.92,12.03,19.3,7.13,15.41-.65-4.97-4.61-11.02-7.99-14.83l.86-.58Zm44.21-32.4s3.38,2.81,5.54,4.9c-.14.79-.94,1.15-1.87,1.15h-16.78v14.91h8.28l2.38-2.74,5.18,3.96c-.5.58-1.29,1.01-2.74,1.22v27.44c0,.36-1.8,1.44-3.82,1.44h-.72v-4.9h-20.09v4.1c0,.43-1.51,1.44-3.74,1.44h-.65v-34.28l5.18,2.3h6.19V31.13l7.2.79c-.22,1.01-.86,1.73-2.66,2.02v13.47h10.15l2.95-3.89Zm-24.62,23.04v22.18h20.09v-22.18h-20.09Z"/><path class="b" d="m176.76,31.49s3.74,2.88,6.05,5.04c-.22.79-.87,1.15-1.87,1.15h-11.09v10.08h4.32l2.59-2.81,5.54,4.32c-.43.58-1.66,1.15-3.1,1.44v42.77c-.07.43-2.16,1.58-3.67,1.58h-.65v-5.18h-21.67v4.75c0,.5-1.58,1.66-3.53,1.66h-.79v-50.76l4.61,2.23h4.18v-10.08h-10.15l-.5-2.09h26.43l3.31-4.1Zm-7.56,35.72c-2.88,0-3.31-1.01-3.31-3.24v-14.11h-4.39v3.1c0,5.18-.58,12.89-7.56,18.07l-.72-.86v5.69h21.67v-8.86c-.86.14-2.02.22-3.6.22h-2.09Zm-15.99-17.35v20.02c4.54-5.54,4.82-11.88,4.82-16.99v-3.02h-4.82Zm21.67,37.88v-9.79h-21.67v9.79h21.67Zm-9-50.04h-4.39v10.08h4.39v-10.08Zm3.6,12.17v12.96c0,.72.14.94.79.94h3.17c.29,0,.72-.07,1.01-.22h.43v-13.68h-5.4Zm42.48,39.39c1.51.58,1.94,1.15,1.94,2.02,0,2.16-2.38,2.95-13.82,2.95h-7.92c-5.76,0-7.06-1.08-7.06-4.97v-36.22l5.33,2.3h13.61v-17.71h-19.08l-.65-2.16h18.87l2.74-3.02,6.19,4.75c-.5.65-1.94,1.3-3.6,1.58v23.55c-.07.43-2.3,1.51-3.74,1.51h-.72v-6.34h-14.47v30.67c0,1.37.43,1.8,3.31,1.8h7.2c3.46,0,6.05,0,6.98-.14.86-.07,1.15-.29,1.44-1.01.5-1.3,1.44-6.12,2.3-11.02h.94l.22,11.45Z"/><path class="b" d="m278.72,87.51s3.96,3.02,6.48,5.26c-.22.79-.87,1.15-1.87,1.15h-63.65l-.65-2.16h13.03v-33.7l5.47,2.3h9.29c.29-1.58.58-3.38.87-5.33h-26.86l-.58-2.09h27.72c.29-1.66.5-3.24.65-4.68l7.78,1.15c-.22.94-1.15,1.58-2.66,1.73l-.65,1.8h21.31l2.66-3.38c-.79.43-1.87.65-2.66.65h-.72v-3.02h-42.12v2.16c0,.43-2.09,1.37-3.89,1.37h-.65v-18.43l5.04,2.23h40.9l2.59-2.74,5.69,4.32c-.36.5-1.58,1.15-2.95,1.44v11.23c0,.07-.07.14-.14.22,1.01.79,3.96,3.1,5.98,4.9-.14.79-.87,1.15-1.87,1.15h-29.88c-.72,1.87-1.51,3.67-2.23,5.33h17.57l2.52-3.24,6.27,4.68c-.43.72-1.44,1.15-3.24,1.37v28.59h2.02l3.46-4.25Zm-47.16-42.48h10.87v-8.42h-10.87v8.42Zm5.18,17.5v5.9h31.75v-5.9h-31.75Zm31.75,7.99h-31.75v5.47h31.75v-5.47Zm-31.75,7.56v5.47h31.75v-5.47h-31.75Zm0,13.68h31.75v-6.05h-31.75v6.05Zm10.08-55.16v8.42h11.09v-8.42h-11.09Zm26.86,8.42v-8.42h-11.38v8.42h11.38Z"/><rect class="d" x=".58" y="26.81" width="72" height="72"/><rect class="d" x="72.58" y="26.81" width="72" height="72"/><rect class="d" x="144.66" y="26.81" width="72" height="72"/><rect class="d" x="216.73" y="26.81" width="72" height="72"/><polyline class="c" points="80.3 22.69 72.89 26.56 73.24 18.2"/><polyline class="c" points="72.89 26.56 81.15 13.57 160.96 13.57"/><path class="b" d="m84.63,8.36c.11.54.31.91.61,1.13.29.22.71.33,1.25.33.26,0,.49-.03.68-.1.19-.06.35-.15.47-.26s.22-.23.28-.37c.06-.14.1-.28.1-.43,0-.3-.1-.53-.29-.68s-.44-.26-.74-.35c-.3-.08-.62-.16-.96-.22-.34-.06-.67-.15-.96-.27s-.54-.29-.74-.52c-.2-.22-.29-.54-.29-.95,0-.52.19-.95.57-1.28.38-.33.92-.5,1.61-.5s1.22.15,1.64.45c.42.3.67.8.76,1.51h-.73c-.06-.48-.25-.82-.55-1.01s-.68-.29-1.13-.29-.8.1-1.04.29-.36.45-.36.77c0,.28.1.49.29.64s.44.27.74.36c.3.09.62.17.96.25.34.07.66.17.96.31.3.13.54.31.74.53.2.22.29.54.29.94,0,.3-.06.56-.19.79s-.3.42-.53.57c-.22.15-.49.27-.8.34-.31.08-.65.11-1.01.11s-.69-.05-.98-.16c-.28-.11-.53-.26-.73-.45-.2-.19-.36-.42-.47-.67-.11-.26-.18-.53-.19-.83h.73Z"/><path class="b" d="m92.68,10.48c-.4,0-.77-.08-1.12-.22-.35-.14-.65-.34-.91-.61-.26-.27-.47-.61-.62-1.02-.15-.41-.23-.88-.23-1.43,0-.46.06-.88.18-1.28s.3-.74.54-1.04.54-.53.9-.7c.36-.17.78-.26,1.26-.26s.91.09,1.27.26c.36.17.66.4.9.7.24.29.42.64.53,1.04.12.4.17.83.17,1.28,0,.5-.07.94-.2,1.34-.14.4-.33.74-.58,1.03s-.56.51-.91.67c-.36.16-.75.23-1.18.23Zm2.11-3.28c0-.37-.04-.71-.12-1.03-.08-.32-.2-.6-.37-.83-.17-.24-.38-.42-.65-.56-.26-.14-.59-.2-.97-.2s-.7.07-.97.22c-.27.15-.49.34-.65.59s-.29.52-.37.84-.12.64-.12.98c0,.38.05.74.14,1.06.09.32.23.6.4.83s.4.41.66.54c.26.13.57.19.91.19.38,0,.7-.07.97-.22.27-.15.49-.35.65-.59s.29-.53.37-.84.12-.64.12-.97Z"/><path class="b" d="m96.98,10.31V1.67h.72v8.64h-.72Z"/><path class="b" d="m99.61,2.74v-1.07h.79v1.07h-.79Zm.04,7.57v-6.22h.72v6.22h-.72Z"/><path class="b" d="m107.01,1.67h.72v8.64h-.72v-1.09h-.02c-.1.21-.24.39-.4.55-.16.16-.34.29-.54.39-.2.1-.4.18-.61.24-.21.06-.41.08-.61.08-.5,0-.93-.08-1.28-.25-.35-.17-.64-.4-.87-.69-.23-.29-.39-.64-.5-1.04-.1-.4-.16-.83-.16-1.28,0-.43.06-.85.17-1.25.11-.4.28-.75.51-1.05.23-.3.52-.54.86-.72.35-.18.76-.27,1.23-.27.44,0,.86.1,1.27.29.4.2.72.49.95.87V1.67Zm0,5.51c0-.35-.05-.69-.14-1-.1-.32-.23-.59-.41-.83-.18-.24-.4-.42-.66-.56-.26-.14-.55-.21-.88-.21-.38,0-.7.07-.97.22-.27.15-.5.35-.67.61-.18.26-.3.55-.38.89-.08.34-.11.71-.1,1.1,0,.39.05.74.16,1.04.11.3.26.55.45.76.19.21.42.37.67.47s.54.16.84.16c.34,0,.64-.07.9-.2.26-.14.48-.32.66-.56.18-.24.31-.52.4-.84.09-.32.14-.67.14-1.05Z"/><path class="b" d="m113.29,8.36c.11.54.31.91.61,1.13.29.22.71.33,1.25.33.26,0,.49-.03.68-.1.19-.06.35-.15.47-.26s.22-.23.28-.37c.06-.14.1-.28.1-.43,0-.3-.1-.53-.29-.68s-.44-.26-.74-.35c-.3-.08-.62-.16-.96-.22-.34-.06-.67-.15-.96-.27s-.54-.29-.74-.52c-.2-.22-.29-.54-.29-.95,0-.52.19-.95.57-1.28.38-.33.92-.5,1.61-.5s1.22.15,1.64.45c.42.3.67.8.76,1.51h-.73c-.06-.48-.25-.82-.55-1.01s-.68-.29-1.13-.29-.8.1-1.04.29-.36.45-.36.77c0,.28.1.49.29.64s.44.27.74.36c.3.09.62.17.96.25.34.07.66.17.96.31.3.13.54.31.74.53.2.22.29.54.29.94,0,.3-.06.56-.19.79s-.3.42-.53.57c-.22.15-.49.27-.8.34-.31.08-.65.11-1.01.11s-.69-.05-.98-.16c-.28-.11-.53-.26-.73-.45-.2-.19-.36-.42-.47-.67-.11-.26-.18-.53-.19-.83h.73Z"/><path class="b" d="m119.32,7.37c0,.34.04.65.13.95.09.3.22.56.39.78.17.22.39.4.65.53.26.13.57.2.91.2.47,0,.88-.12,1.21-.37s.56-.6.67-1.06h.8c-.09.3-.2.57-.35.82-.14.25-.32.47-.54.66s-.47.33-.77.44c-.3.1-.64.16-1.03.16-.5,0-.92-.08-1.28-.25-.36-.17-.66-.4-.89-.69-.23-.29-.4-.64-.52-1.03s-.17-.82-.17-1.28.07-.88.2-1.28c.13-.4.32-.75.56-1.05s.54-.54.89-.71c.35-.17.75-.26,1.2-.26.86,0,1.53.29,2.02.88.49.59.73,1.44.72,2.56h-4.82Zm4.06-.6c0-.3-.04-.59-.13-.86s-.21-.5-.37-.7c-.16-.2-.37-.35-.62-.47-.25-.12-.53-.17-.85-.17s-.6.06-.85.18c-.24.12-.45.28-.62.48-.17.2-.31.43-.41.7-.1.26-.17.54-.2.84h4.06Z"/><path class="b" d="m127.73,10.33c-.09.02-.2.04-.35.08-.14.04-.3.06-.48.06-.36,0-.63-.09-.82-.27-.19-.18-.28-.5-.28-.97v-4.55h-.88v-.6h.88v-1.73h.72v1.73h1.16v.6h-1.16v4.26c0,.15,0,.28.01.4,0,.11.03.2.07.28.04.07.1.12.19.16.08.03.2.05.35.05.1,0,.19,0,.29-.02s.2-.04.29-.06v.59Z"/><path class="b" d="m131.06,10.33c-.09.02-.2.04-.35.08-.14.04-.3.06-.48.06-.36,0-.63-.09-.82-.27-.19-.18-.28-.5-.28-.97v-4.55h-.88v-.6h.88v-1.73h.72v1.73h1.16v.6h-1.16v4.26c0,.15,0,.28.01.4,0,.11.03.2.07.28.04.07.1.12.19.16.08.03.2.05.35.05.1,0,.19,0,.29-.02s.2-.04.29-.06v.59Z"/><path class="b" d="m132.29,2.74v-1.07h.79v1.07h-.79Zm.04,7.57v-6.22h.72v6.22h-.72Z"/><path class="b" d="m135.6,10.31h-.72v-6.22h.72v.86c.29-.3.59-.55.89-.74.31-.19.68-.29,1.11-.29.38,0,.74.07,1.07.2s.6.36.83.69c.15.22.24.45.27.69.03.24.04.48.04.74v4.07h-.72v-4.06c0-.56-.12-.98-.37-1.26-.25-.28-.66-.42-1.24-.42-.22,0-.43.03-.61.1-.18.07-.35.16-.5.27-.15.11-.27.24-.38.38-.1.14-.18.3-.24.46-.07.2-.12.39-.13.58-.02.18-.02.38-.02.6v3.35Z"/><path class="b" d="m146.35,4.09h.72v5.62c0,.42-.04.81-.13,1.19-.08.38-.23.71-.45,1-.22.29-.51.52-.89.69-.38.17-.86.26-1.45.26-.46,0-.85-.06-1.18-.17-.33-.12-.6-.26-.8-.44-.21-.18-.37-.37-.47-.58-.11-.21-.17-.41-.17-.59h.77c.06.23.14.42.26.57.12.15.26.26.43.35s.35.14.55.17c.2.03.41.05.62.05.49,0,.88-.08,1.18-.25s.52-.39.67-.66c.15-.27.25-.58.29-.92s.06-.7.05-1.06c-.23.38-.55.67-.95.87s-.83.29-1.27.29c-.47,0-.88-.09-1.23-.27s-.64-.42-.86-.72c-.23-.3-.4-.65-.51-1.05-.11-.4-.17-.82-.17-1.25,0-.46.05-.88.16-1.28.1-.4.27-.75.5-1.04.23-.29.52-.52.87-.69.35-.17.78-.25,1.28-.25.2,0,.4.03.61.08.21.06.41.14.61.24.2.1.38.24.54.4.16.16.3.34.4.54h.02v-1.09Zm0,3.13c0-.38-.05-.73-.14-1.05-.09-.32-.23-.6-.4-.84-.18-.24-.4-.42-.66-.56-.26-.14-.56-.2-.9-.2-.3,0-.58.05-.84.16-.26.11-.48.27-.67.47-.19.21-.34.46-.45.76-.11.3-.16.65-.16,1.04-.02.39.02.76.1,1.1.08.34.21.64.38.89.18.26.4.46.67.61.27.15.6.22.97.22.33,0,.62-.07.88-.21.26-.14.48-.33.66-.56.18-.24.32-.51.41-.83.1-.32.14-.65.14-1Z"/></svg>