<?xml version="1.0" encoding="UTF-8"?><svg id="a" xmlns="http://www.w3.org/2000/svg" viewBox="0 0 289.1 179.92"><defs><style>.b{fill:#231916;}.c{stroke:#231916;stroke-width:.5px;}.c,.d{fill:none;}.d{stroke:#90c423;stroke-width:.75px;}</style></defs><path class="b" d="m38.38,67.38c2.59,13.61,10.22,28.15,31.61,37.95l-.14.79c-2.52.29-4.25,1.22-4.97,3.96-20.02-11.02-25.78-28.23-27.87-42.63-2.02,16.78-8.64,31.68-33.34,42.56l-.79-1.3c21.03-11.23,27.22-25.27,29.09-41.33H4.25l-.65-2.09h28.59c.58-6.7.58-13.75.58-21.1l7.7.79c-.22,1.08-.79,1.8-2.45,2.09-.14,6.19-.22,12.31-.79,18.22h20.74l3.96-4.97s4.39,3.46,7.06,5.9c-.14.79-.79,1.15-1.87,1.15h-28.73Z"/><path class="b" d="m97.35,64.07c-.22.86-.86,1.3-2.81,1.22-3.24,9.72-9.36,23.47-18.72,32.62l-.86-.72c7.2-10.08,12.31-25.13,14.55-35.64l7.85,2.52Zm16.49-18.43c-.22,1.08-.86,1.73-2.66,1.94v54.72c0,4.1-.94,6.84-8.86,7.63-.21-1.66-.79-2.95-2.02-3.67-1.37-.94-3.6-1.66-7.78-2.23v-1.22s9.72.72,11.52.72c1.66,0,2.16-.43,2.16-1.73v-57.03l7.63.86Zm21.31,48.46c-.94-9.94-8.5-22.68-14.76-30.96l1.08-.5c24.27,19.08,20.31,37.23,13.68,31.47Z"/><path class="b" d="m206.28,99.5s4.25,3.24,6.77,5.62c-.22.79-.79,1.15-1.87,1.15h-63.58l-.58-2.16h28.44v-59.33l7.49.79c-.22,1.01-.79,1.73-2.59,2.02v23.33h16.56l3.74-4.68s4.1,3.31,6.62,5.62c-.22.79-.79,1.15-1.8,1.15h-25.13v31.11h22.18l3.74-4.61Z"/><path class="b" d="m278.14,45.63s4.39,3.38,7.13,5.83c-.21.79-.86,1.15-2.02,1.15h-30.53v14.26c28.87,7.85,28.51,21.53,21.67,18.72-3.96-5.83-13.97-12.89-21.67-17.21v39.82c0,.5-1.66,1.66-3.96,1.66h-.87v-57.25h-28.3l-.65-2.16h55.3l3.89-4.82Z"/><rect class="d" x=".58" y="40.17" width="72" height="72"/><rect class="d" x="72.58" y="40.17" width="72" height="72"/><rect class="d" x="144.66" y="40.17" width="72" height="72"/><rect class="d" x="216.73" y="40.17" width="72" height="72"/><polyline class="c" points="80.3 36.04 72.89 39.92 73.24 31.56"/><polyline class="c" points="72.89 39.92 81.15 26.93 160.96 26.93"/><path class="b" d="m84.63,21.72c.11.54.31.91.61,1.13.29.22.71.33,1.25.33.26,0,.49-.03.68-.1.19-.06.35-.15.47-.26s.22-.23.28-.37c.06-.14.1-.28.1-.43,0-.3-.1-.53-.29-.68s-.44-.26-.74-.35c-.3-.08-.62-.16-.96-.22-.34-.06-.67-.15-.96-.27s-.54-.29-.74-.52c-.2-.22-.29-.54-.29-.95,0-.52.19-.95.57-1.28.38-.33.92-.5,1.61-.5s1.22.15,1.64.45c.42.3.67.8.76,1.51h-.73c-.06-.48-.25-.82-.55-1.01s-.68-.29-1.13-.29-.8.1-1.04.29-.36.45-.36.77c0,.28.1.49.29.64s.44.27.74.36c.3.09.62.17.96.25.34.07.66.17.96.31.3.13.54.31.74.53.2.22.29.54.29.94,0,.3-.06.56-.19.79s-.3.42-.53.57c-.22.15-.49.27-.8.34-.31.08-.65.11-1.01.11s-.69-.05-.98-.16c-.28-.11-.53-.26-.73-.45-.2-.19-.36-.42-.47-.67-.11-.26-.18-.53-.19-.83h.73Z"/><path class="b" d="m92.68,23.83c-.4,0-.77-.08-1.12-.22-.35-.14-.65-.34-.91-.61-.26-.27-.47-.61-.62-1.02-.15-.41-.23-.88-.23-1.43,0-.46.06-.88.18-1.28s.3-.74.54-1.04.54-.53.9-.7c.36-.17.78-.26,1.26-.26s.91.09,1.27.26c.36.17.66.4.9.7.24.29.42.64.53,1.04.12.4.17.83.17,1.28,0,.5-.07.94-.2,1.34-.14.4-.33.74-.58,1.03s-.56.51-.91.67c-.36.16-.75.23-1.18.23Zm2.11-3.28c0-.37-.04-.71-.12-1.03-.08-.32-.2-.6-.37-.83-.17-.24-.38-.42-.65-.56-.26-.14-.59-.2-.97-.2s-.7.07-.97.22c-.27.15-.49.34-.65.59s-.29.52-.37.84-.12.64-.12.98c0,.38.05.74.14,1.06.09.32.23.6.4.83s.4.41.66.54c.26.13.57.19.91.19.38,0,.7-.07.97-.22.27-.15.49-.35.65-.59s.29-.53.37-.84.12-.64.12-.97Z"/><path class="b" d="m96.98,23.66v-8.64h.72v8.64h-.72Z"/><path class="b" d="m99.61,16.09v-1.07h.79v1.07h-.79Zm.04,7.57v-6.22h.72v6.22h-.72Z"/><path class="b" d="m107.01,15.02h.72v8.64h-.72v-1.09h-.02c-.1.21-.24.39-.4.55-.16.16-.34.29-.54.39-.2.1-.4.18-.61.24-.21.06-.41.08-.61.08-.5,0-.93-.08-1.28-.25-.35-.17-.64-.4-.87-.69-.23-.29-.39-.64-.5-1.04-.1-.4-.16-.83-.16-1.28,0-.43.06-.85.17-1.25.11-.4.28-.75.51-1.05.23-.3.52-.54.86-.72.35-.18.76-.27,1.23-.27.44,0,.86.1,1.27.29.4.2.72.49.95.87v-3.42Zm0,5.51c0-.35-.05-.69-.14-1-.1-.32-.23-.59-.41-.83-.18-.24-.4-.42-.66-.56-.26-.14-.55-.21-.88-.21-.38,0-.7.07-.97.22-.27.15-.5.35-.67.61-.18.26-.3.55-.38.89-.08.34-.11.71-.1,1.1,0,.39.05.74.16,1.04.11.3.26.55.45.76.19.21.42.37.67.47s.54.16.84.16c.34,0,.64-.07.9-.2.26-.14.48-.32.66-.56.18-.24.31-.52.4-.84.09-.32.14-.67.14-1.05Z"/><path class="b" d="m113.29,21.72c.11.54.31.91.61,1.13.29.22.71.33,1.25.33.26,0,.49-.03.68-.1.19-.06.35-.15.47-.26s.22-.23.28-.37c.06-.14.1-.28.1-.43,0-.3-.1-.53-.29-.68s-.44-.26-.74-.35c-.3-.08-.62-.16-.96-.22-.34-.06-.67-.15-.96-.27s-.54-.29-.74-.52c-.2-.22-.29-.54-.29-.95,0-.52.19-.95.57-1.28.38-.33.92-.5,1.61-.5s1.22.15,1.64.45c.42.3.67.8.76,1.51h-.73c-.06-.48-.25-.82-.55-1.01s-.68-.29-1.13-.29-.8.1-1.04.29-.36.45-.36.77c0,.28.1.49.29.64s.44.27.74.36c.3.09.62.17.96.25.34.07.66.17.96.31.3.13.54.31.74.53.2.22.29.54.29.94,0,.3-.06.56-.19.79s-.3.42-.53.57c-.22.15-.49.27-.8.34-.31.08-.65.11-1.01.11s-.69-.05-.98-.16c-.28-.11-.53-.26-.73-.45-.2-.19-.36-.42-.47-.67-.11-.26-.18-.53-.19-.83h.73Z"/><path class="b" d="m119.32,20.72c0,.34.04.65.13.95.09.3.22.56.39.78.17.22.39.4.65.53.26.13.57.2.91.2.47,0,.88-.12,1.21-.37s.56-.6.67-1.06h.8c-.09.3-.2.57-.35.82-.14.25-.32.47-.54.66s-.47.33-.77.44c-.3.1-.64.16-1.03.16-.5,0-.92-.08-1.28-.25-.36-.17-.66-.4-.89-.69-.23-.29-.4-.64-.52-1.03s-.17-.82-.17-1.28.07-.88.2-1.28c.13-.4.32-.75.56-1.05s.54-.54.89-.71c.35-.17.75-.26,1.2-.26.86,0,1.53.29,2.02.88.49.59.73,1.44.72,2.56h-4.82Zm4.06-.6c0-.3-.04-.59-.13-.86s-.21-.5-.37-.7c-.16-.2-.37-.35-.62-.47-.25-.12-.53-.17-.85-.17s-.6.06-.85.18c-.24.12-.45.28-.62.48-.17.2-.31.43-.41.7-.1.26-.17.54-.2.84h4.06Z"/><path class="b" d="m127.73,23.69c-.09.02-.2.04-.35.08-.14.04-.3.06-.48.06-.36,0-.63-.09-.82-.27-.19-.18-.28-.5-.28-.97v-4.55h-.88v-.6h.88v-1.73h.72v1.73h1.16v.6h-1.16v4.26c0,.15,0,.28.01.4,0,.11.03.2.07.28.04.07.1.12.19.16.08.03.2.05.35.05.1,0,.19,0,.29-.02s.2-.04.29-.06v.59Z"/><path class="b" d="m131.06,23.69c-.09.02-.2.04-.35.08-.14.04-.3.06-.48.06-.36,0-.63-.09-.82-.27-.19-.18-.28-.5-.28-.97v-4.55h-.88v-.6h.88v-1.73h.72v1.73h1.16v.6h-1.16v4.26c0,.15,0,.28.01.4,0,.11.03.2.07.28.04.07.1.12.19.16.08.03.2.05.35.05.1,0,.19,0,.29-.02s.2-.04.29-.06v.59Z"/><path class="b" d="m132.29,16.09v-1.07h.79v1.07h-.79Zm.04,7.57v-6.22h.72v6.22h-.72Z"/><path class="b" d="m135.6,23.66h-.72v-6.22h.72v.86c.29-.3.59-.55.89-.74.31-.19.68-.29,1.11-.29.38,0,.74.07,1.07.2s.6.36.83.69c.15.22.24.45.27.69.03.24.04.48.04.74v4.07h-.72v-4.06c0-.56-.12-.98-.37-1.26-.25-.28-.66-.42-1.24-.42-.22,0-.43.03-.61.1-.18.07-.35.16-.5.27-.15.11-.27.24-.38.38-.1.14-.18.3-.24.46-.07.2-.12.39-.13.58-.02.18-.02.38-.02.6v3.35Z"/><path class="b" d="m146.35,17.45h.72v5.62c0,.42-.04.81-.13,1.19-.08.38-.23.71-.45,1-.22.29-.51.52-.89.69-.38.17-.86.26-1.45.26-.46,0-.85-.06-1.18-.17-.33-.12-.6-.26-.8-.44-.21-.18-.37-.37-.47-.58-.11-.21-.17-.41-.17-.59h.77c.06.23.14.42.26.57.12.15.26.26.43.35s.35.14.55.17c.2.03.41.05.62.05.49,0,.88-.08,1.18-.25s.52-.39.67-.66c.15-.27.25-.58.29-.92s.06-.7.05-1.06c-.23.38-.55.67-.95.87s-.83.29-1.27.29c-.47,0-.88-.09-1.23-.27s-.64-.42-.86-.72c-.23-.3-.4-.65-.51-1.05-.11-.4-.17-.82-.17-1.25,0-.46.05-.88.16-1.28.1-.4.27-.75.5-1.04.23-.29.52-.52.87-.69.35-.17.78-.25,1.28-.25.2,0,.4.03.61.08.21.06.41.14.61.24.2.1.38.24.54.4.16.16.3.34.4.54h.02v-1.09Zm0,3.13c0-.38-.05-.73-.14-1.05-.09-.32-.23-.6-.4-.84-.18-.24-.4-.42-.66-.56-.26-.14-.56-.2-.9-.2-.3,0-.58.05-.84.16-.26.11-.48.27-.67.47-.19.21-.34.46-.45.76-.11.3-.16.65-.16,1.04-.02.39.02.76.1,1.1.08.34.21.64.38.89.18.26.4.46.67.61.27.15.6.22.97.22.33,0,.62-.07.88-.21.26-.14.48-.33.66-.56.18-.24.32-.51.41-.83.1-.32.14-.65.14-1Z"/><path class="b" d="m110.85,3.29c-1.84,2.23-4.95,3.69-8.02,4.59-.11-.2-.37-.57-.54-.76,3.11-.76,6.14-2.18,7.8-4.21l.76.38Zm-6.1.97c-.39.75-.92,1.67-1.62,2.25l-.73-.44c.7-.53,1.28-1.41,1.62-2.14l.74.33Zm8.18-2.75v2.35h-.91v-1.54h-8.38v1.54h-.88V1.52h10.17Zm-8.28,6.69v1.92h6.95v.85h-7.83v-2.76h.88Zm1.62-4.47v2.3c0,.34.13.4.84.4h2.44c.58,0,.68-.17.73-1.33.19.13.53.25.76.3-.11,1.42-.38,1.77-1.43,1.77h-2.55c-1.28,0-1.61-.23-1.61-1.13v-2.31h.82Zm.24-1.23c.74.33,1.64.86,2.09,1.26l-.48.58c-.44-.42-1.33-.98-2.07-1.32l.45-.53Zm1.48-2.14c.2.45.38,1.05.44,1.42l-.9.18c-.05-.38-.21-.99-.38-1.46l.85-.14Zm.27,7.2v3.01h-.91v-3.01h.91Zm2.97-3.58c.76.64,1.66,1.56,2.06,2.2l-.69.5c-.38-.63-1.25-1.59-2.02-2.26l.65-.44Zm.75,4.12v3.39h-.9v-3.39h.9Z"/><path class="b" d="m118.21,5.77l.11.82c-1.32.4-2.71.81-3.79,1.12l-.18-.88c.99-.24,2.46-.66,3.86-1.06Zm-.03-2.87v.85h-3.69v-.85h3.69Zm-1.29-2.42v9.91c0,.48-.1.72-.4.86-.3.15-.76.17-1.49.17-.04-.23-.16-.59-.27-.82.5.01.96.01,1.09.01.16,0,.21-.06.21-.21V.49h.86Zm4.01,7.04v.82h-2.49v-.82h2.49Zm.07-4.99v.81h-2.31v-.81h2.31Zm-.13,2.49v.8h-2.15v-.8h2.15Zm.47-4.46v10.94h-.87V.57h.87Zm1.98,0v10.96h-.87V.57h.87Zm1.95,1.98v.81h-2.43v-.81h2.43Zm-.1,2.49v.8h-2.28v-.8h2.28Zm.24,2.53v.82h-2.49v-.82h2.49Z"/></svg>