<svg xmlns="http://www.w3.org/2000/svg" viewBox="0 0 760 640"><path fill="none" stroke="#999" stroke-width="2" stroke-miterlimit="10" d="M20.5 601h340m40 0h340"/><path fill="#999" d="M19.5 593h2v16h-2zm720 0h2v16h-2z"/><path d="M375.2 610v-4.2H368v-1.4l7-10h2.3v9.7h2.2v1.7h-2.2v4.2h-2.1zm0-5.9v-5.2c0-.8 0-1.6.1-2.4h-.1c-.5.9-.9 1.6-1.3 2.3L370 604h5.2zm15-7.9h-6l-.6 4c.4 0 .7-.1 1.3-.1 1.2 0 2.4.3 3.4.8 1.2.7 2.2 2 2.2 4 0 3-2.4 5.3-5.8 5.3-1.7 0-3.1-.5-3.9-1l.5-1.6c.6.4 1.9.9 3.3.9 2 0 3.7-1.3 3.7-3.4 0-2-1.4-3.5-4.5-3.5-.9 0-1.6.1-2.2.2l1-7.5h7.5v1.9z"/><path fill="none" stroke="#999" stroke-width="2" stroke-miterlimit="10" d="M20.5 578h220m40 0h220"/><path fill="#999" d="M19.5 570h2v16h-2zm480 0h2v16h-2z"/><path d="M249.1 584.6c.6.4 2 1 3.5 1 2.7 0 3.6-1.7 3.5-3 0-2.2-2-3.1-4-3.1h-1.2v-1.6h1.2c1.5 0 3.5-.8 3.5-2.6 0-1.2-.8-2.4-2.7-2.4-1.2 0-2.4.6-3.1 1l-.6-1.5c.8-.6 2.4-1.2 4.1-1.2 3.1 0 4.5 1.8 4.5 3.7 0 1.6-1 3-2.9 3.7 1.9.4 3.5 1.8 3.5 4 0 2.5-1.9 4.7-5.7 4.7-1.8 0-3.3-.6-4.1-1.1l.5-1.6zm22.2-5.6c0 5.3-2 8.2-5.4 8.2-3 0-5.1-2.9-5.2-8 0-5.2 2.3-8.1 5.4-8.1 3.3 0 5.2 3 5.2 7.9zm-8.5.3c0 4.1 1.2 6.4 3.2 6.4 2.2 0 3.2-2.5 3.2-6.5 0-3.8-1-6.4-3.2-6.4-1.8 0-3.2 2.2-3.2 6.5z"/><g><path fill="none" stroke="#999" stroke-width="2" stroke-miterlimit="10" d="M500.5 578h100m40 0h100"/><path fill="#999" d="M499.5 570h2v16h-2zm240 0h2v16h-2z"/><path d="M613.2 573.4l-2.8 1.5-.4-1.6 3.4-1.8h1.8V587h-2v-13.6zm17-.2h-6l-.6 4c.4 0 .7-.1 1.3-.1 1.2 0 2.4.3 3.4.8 1.2.7 2.2 2 2.2 4 0 3-2.4 5.3-5.8 5.3-1.7 0-3.1-.5-3.9-1l.5-1.6c.6.4 1.9.9 3.3.9 2 0 3.7-1.3 3.7-3.4 0-2-1.4-3.5-4.5-3.5-.9 0-1.6.1-2.2.2l1-7.5h7.5v1.9z"/></g><g><path fill="none" stroke="#999" stroke-width="2" stroke-miterlimit="10" d="M660.5 58h30m20 0h30"/><path fill="#999" d="M659.5 50h2v16h-2zm80 0h2v16h-2z"/><path fill="none" d="M694.5 46.5h13.9v30.4h-13.9z"/><path d="M704.9 52.8h-6l-.6 4c.4 0 .7-.1 1.3-.1 1.2 0 2.4.3 3.4.8 1.2.7 2.2 2 2.2 4 0 3-2.4 5.3-5.8 5.3-1.7 0-3.1-.5-3.9-1l.5-1.6c.6.4 1.9.9 3.3.9 2 0 3.7-1.3 3.7-3.4 0-2-1.4-3.5-4.5-3.5-.9 0-1.6.1-2.2.2l1-7.5h7.5v1.9z"/><g><path fill="none" stroke="#999" stroke-width="2" stroke-miterlimit="10" d="M516.5 58h62m20 0h62"/><path fill="#999" d="M515.5 50h2v16h-2zm144 0h2v16h-2z"/><path d="M583.8 65.5c.5 0 1 0 1.7-.1 1.2-.2 2.4-.7 3.3-1.5 1-.9 1.8-2.3 2.1-4.2h-.1c-.9 1.1-2.1 1.7-3.7 1.7-2.8 0-4.6-2.1-4.6-4.8 0-3 2.1-5.5 5.3-5.5s5.2 2.6 5.2 6.6c0 3.4-1.2 5.8-2.7 7.3-1.2 1.2-2.9 1.9-4.5 2.1-.8.1-1.4.1-1.9.1v-1.7zm.8-9c0 1.9 1.2 3.3 3 3.3 1.4 0 2.5-.7 3.1-1.6.1-.2.2-.4.2-.8 0-2.7-1-4.7-3.2-4.7-1.8 0-3.1 1.6-3.1 3.8z"/></g></g><g><path fill="#eee" d="M516.5 401.1h144v144h-144z"/><path fill="none" stroke="#999" stroke-width="2" stroke-miterlimit="10" d="M516.5 545h144m-144-144h144"/><path fill="#eee" d="M516.5 257.1h144v144h-144z"/><path fill="none" stroke="#999" stroke-width="2" stroke-miterlimit="10" d="M516.5 401h144m-144-144h144"/><path fill="#eee" d="M516.5 113.1h144v144h-144z"/><path fill="none" stroke="#999" stroke-width="2" stroke-miterlimit="10" d="M516.5 257h144m-144-144h144"/><path fill="#eee" d="M660.5 368.1h80v80h-80z"/><path fill="none" stroke="#999" stroke-width="2" stroke-miterlimit="10" d="M660.5 368h80m-80 80h80"/><g fill="none" stroke="#999" stroke-width="2" stroke-miterlimit="10"><path d="M516.5 160"/></g><g fill="none" stroke="#ccc" stroke-miterlimit="10"><path d="M180 560V80m161 480V80M20.5 239.5h480m-480 161h480"/></g><g fill="none" stroke="#999" stroke-width="2" stroke-miterlimit="10"><path d="M20.5 80.1h720v480h-720z"/><path d="M20.5 80.1h480v480h-480zM660.5 560V80m-144 480V80"/></g></g><g><path d="M558.4 419.6c3.4 2.1 5.1 3.9 5.1 5.5 0 .7-.6 2.1-1.5 4.2-1.1 1.5-2.2 4.2-3.2 7.7-4.6 18-7 28.1-7 30.2 0 2.2 1.5 3.4 4.5 3.4 1.4 0 14.9-1.5 40.5-4.8 15.9-2.4 24.8-4.2 26.7-5.2 1.8-1.3 3.4-1.8 4.8-1.8 1.5 0 3.8 1.7 6.8 5.2s4.5 6 4.5 7.7c0 1-1 2.4-2.8 3.9-2.7 2.4-4.9 5.6-6.9 10-6.3 11.1-12.1 19.5-17.3 25.6-5.2 5.9-11.4 11.2-18.6 15.9-.4 0-.6-.1-.6-.6 12.2-17 20.8-30.8 25.6-41.3 2.8-4.9 4.2-8.4 4.2-10.7 0-.7-1.3-1.1-3.9-1.1-6.9 0-18 .8-33.3 2.7s-25.2 3.4-29.5 4.8c-3.8 1-6.2 1.5-6.9 1.5-3 0-5.5-.7-7.9-2.1-2.7-1.8-3.9-3.9-3.9-6.3 0-1.8.7-4.2 2.2-7.3 2.7-6.2 4.6-12.5 6.2-19 1.8-7.2 2.8-12.9 2.8-17 0-3-.3-5.5-.8-7.6l-.8-4.2c0-1.5.7-2.2 2.2-2.2 2.2 0 5.2 1 8.8 2.9zM546.6 148c3.1 0 7.7-.6 13.9-1.7 12.5-2.7 27.3-4.9 44-7 12.7-1.7 19.8-3.1 21.4-4.4.8-.3 2.1-.4 3.9-.4 1.5 0 3.1.6 4.9 1.8 3.8 2.8 5.8 5.2 5.8 7.3 0 1-.7 1.5-2.2 1.5-.1 0-1.7-.1-4.5-.3-2.4-.4-3.7-.7-3.9-.7-6.5 0-17.2 1-32.2 3.1 2 2.1 3 3.9 3 5.2s-.3 2.8-.7 4.6c-1.1 3.9-1.4 18.4-.8 43.3.4 21 .1 33.3-.6 37-.8 2.8-2 4.2-3.5 4.2-1.3 0-3-2.1-4.9-6.2s-3-7.5-3-9.8c0-1.3.4-3.7 1.3-7 .7-2.2 1-17.2 1-44.6 0-11.4-1.1-19.7-3.2-25-13.2 2.1-22.8 4.2-28.8 6.6-3.1 1.3-5.2 2-6.2 2-2.4 0-5.5-1.3-9.6-3.7-3.4-2.4-5.1-4.4-5.1-5.9 0-.7.6-1.1 1.7-1.1h1.7c2.6.8 4.9 1.2 6.6 1.2zM110 322.6c.6 6.4.6 13.8 0 22-.6 8.3-1.9 15.5-3.8 21.6s-4.3 12-7.1 17.6c-2.9 5.6-6.2 9.9-9.8 12.8-3.7 2.9-6.6 4.3-8.8 4.1-3.4 0-6.6-1.9-9.4-5.7-2.8-3.8-4.6-8-5.4-12.7-.8-4.6-1.3-9.3-1.4-13.9-.2-4.7.3-8.4 1.4-11 .3-.8 1.7-2.8 4.1-6.2 2.4-3.4 5-7.8 7.9-13.4 2.8-5.5 4.8-9.7 6-12.5s2.5-7.1 4.1-13c1.6-5.9 2.5-10.6 2.8-14.2.3-3.6 1-6.1 2-7.4 1-1.3 2.4-2 4.1-2 1.7.2 3.8 3.2 6.2 9.1 2.4 5.9 4.1 10.7 5 14.4.9 3.7 1.6 7.2 2.1 10.4zm242.6 15.7l23.7 27.4c5.2 6.1 10 10.8 14.6 14.2 4.6 3.4 9.5 6.7 14.6 10l14.1 9.6c3.9 2.8 6.7 5.4 8.3 7.9 1.6 2.4 2.3 5.6 2 9.5-.3 2.7-1.3 5.4-2.8 8.2-1.6 2.8-6.6 6.8-15.1 12.1-8.5 5.2-21.4 9.7-38.6 13.4-17.2 3.7-34.3 5.5-51.3 5.5-16.1.2-31.3-1.2-45.5-4.1-14.2-2.9-26.4-6.6-36.6-11-10.2-4.5-19.1-9.6-27-15.6-7.8-5.9-14.9-12.8-21.2-20.6-6.3-7.8-11.7-16.2-16.2-25.2s-7.7-16.5-9.7-22.6c-2-6.1-3.9-12.8-5.6-20.2l-6.1-24.6c-.6-1.9-2-5.4-4.1-10.7-2.1-5.2-2.8-8.5-2-9.7.8-1.2 1.9-2.1 3.4-2.6s3.5-.2 6 .7c1.9.9 4.1 2.4 6.6 4.5 2.5 2 4.2 3.8 5 5.3.9 1.5 2 5 3.4 10.7l4.9 22c2.2 10 5.1 18.4 8.7 25.2 3.6 6.8 8.2 13.7 13.9 20.6 5.7 7 12.2 13.2 19.6 18.9 7.3 5.6 15.1 10.1 23.2 13.4 8.1 3.3 16 5.5 23.6 6.7 7.6 1.2 16.4 1.9 26.5 2.1s19.2.2 27.3-.1c10.3-.3 18.6-1.7 25-4.1 6.3-2.4 10.1-5 11.4-7.9 1.2-2.8 2-6.1 2.3-10 .3-3.8-.7-9.5-3-17l-11.7-36.3c-1.3-3.8-.9-6.4 1.2-7.9 1.9-1.6 4.4-.8 7.2 2.3zM216.2 236.2l-6.1-8.9c-1.7-2.3-2-4.2-.9-5.6 1.1-1.4 2.5-2 4.2-1.6l12.2 2.6c2 .5 5.9 1.7 11.6 3.6 5.7 2 10.1 3.5 13.2 4.6 3.1 1.1 6.7 2.7 10.7 4.7 4 2 7.1 4.4 9.3 7 2.2 2.7 3.9 6.3 5.2 11 1.2 4.7 1.1 10.3-.5 16.9-1.4 5.6-3.3 9.6-5.7 12.1-2.4 2.4-4.9 3.9-7.4 4.3-2.5.5-6.1-1.7-10.8-6.6-3.1-3-6.2-6.3-9.1-10.1-3-3.8-7.4-9.5-13.4-17.1-6.1-7.7-10.2-13.3-12.5-16.9zm189.3 59.5l-27-35.4-21.8-23.9c-1.9-3-2.4-5-1.6-6 .8-1 2.3-1.6 4.6-1.9 2.3-.2 6.5 1 12.8 3.6l32.8 14.3c11.4 5 20.9 10.6 28.4 16.8 7.5 6.2 12.4 11.9 14.8 17.2 2.3 5.3 3.4 11 3.3 17.1-.3 5.3-1.4 9.8-3.3 13.5-1.9 3.7-4 6.1-6.3 7.3s-4.6 1.8-6.8 1.9c-2.2.1-5.8-1.5-10.9-4.7-5.2-3.2-11.5-9.8-19-19.8zm191.3 22.8c17-1.8 28.1-3.7 33.2-5.5 2.5-1.3 4.1-1.7 4.5-1.5 1.1-.1 3.5 1.3 7 4.4 2.5 2.5 3.8 4.4 3.8 5.5l.1.3c0 1-.6 1.4-1.8 1.4h-2.4c-1.7-.1-3.7.4-5.8.4-5.3-.1-14.2.6-26.7 2-19.3 2.1-36.1 3.8-50.9 4.9-6.3.1-11 1-14.2 2.2-2.1.6-3.2.8-3.7.8-2 0-4.4-1.4-7.2-4.4s-4.2-5.5-4.4-7.6l-.1-.4c-.1-1.4.3-2.1 1.5-2.1l.1-.1c.1 0 1.7.3 2.4.4 3.2 1.3 9 2 17.4 2 14.4 0 30.2-.9 47.2-2.7z"/></g></svg>