<svg xmlns="http://www.w3.org/2000/svg" width="286.755" height="111.92" viewBox="0 0 286.755 111.92"><path d="M20.253 19.728c-.048 1.704-.24 4.728-.36 5.616-.336 2.616-.624 3.24-1.512 4.32-.742.912-1.222.744-1.294.023-.048-.432-.816-1.752-1.152-2.16-.336-.432-.192-.624.336-.336 1.392.818 1.68.746 2.135-1.246.504-2.16.6-6.072.552-8.064-.024-1.13-.168-1.25-.984-1.153-.528.072-1.944.336-2.785.553 1.32.792 1.344.912 1.104 1.536-.096.264-.192.575-.264 1.104.864-.19 1.344-.168 1.584-.048.576.288.48.624-.384.792-.504.072-.888.145-1.368.264-.096.816-.216 1.56-.408 2.448 1.608-.336 1.872-.312 2.256-.216.576.145.672.624-.36.72-.432.05-1.176.17-2.064.385-.72 3.145-2.064 5.017-4.73 6.744-.407.263-.575.022-.143-.386 1.875-1.824 3.24-4.248 3.698-6.097-.408.12-.864.24-1.296.36-.84.264-1.32.216-1.823-.288-.553-.53-.48-.96.647-.745.432.096 1.368.024 2.665-.24.192-.912.36-1.752.456-2.448-1.44.288-1.873.312-2.256.168-.792-.288-.648-.48.168-.6.576-.072 1.272-.24 2.208-.528.12-1.272.072-2.184-.192-2.81-.984.218-1.248.17-1.992-.215-.36-.19-.336-.432.216-.456 1.104-.048 4.656-.552 5.376-.912.624-.312.984-.408 1.632-.048 1.32.744 1.32.984.816 1.536-.238.24-.43 1.2-.48 2.425zm7.8 9.288c-.695-.768-1.68-1.656-2.64-2.184-.575-.312-.43-.504.073-.385 2.76.673 3 .288 2.52-1.296-.263-.886-1.44-2.374-2.687-3.094-.65-.36-.65-.553-.266-1.2.312-.553 1.2-2.28 1.536-3.192.265-.624.05-.792-.383-.672-1.08.29-1.872.433-2.592.457.12 4.2.168 8.495.168 12.36 0 2.184-.384 4.584-.624 5.256-.36.96-.674.937-.72 0-.05-1.08 0-2.76.046-4.345.12-3.41.048-7.296-.024-10.513-.048-1.656-.192-2.448-.384-2.736-.6-.814-.48-1.175 1.007-.575 1.248-.12 2.736-.6 3.096-.863.77-.552 1.08-.695 1.97-.144 1.37.77 1.392 1.008.65 1.512-.674.505-1.634 1.465-3.266 3.648-.312.433-.264.504.144.648 3.91 1.464 4.775 4.68 3.48 7.104-.386.674-.674.7-1.106.218zM54.5 25.392c-1.895.696-4.75 1.8-5.207 2.064-.936.552-1.08.552-1.896-.168-.744-.648-.648-1.08.624-.937.24.026.986-.142 1.946-.382-.096-3.36-.312-4.44-.648-4.992-.672-1.08-.432-1.368.768-.792.984.504 1.032.695.792 1.536-.048.143-.048 1.007 0 4.007.672-.168 1.368-.36 2.04-.576 0-6.814-.095-7.32-.55-8.04-.745-1.175-.337-1.415.91-.72 1.153.65 1.273.865.865 2.065-.096.24-.192 1.128-.216 1.92 1.536-.744 1.92-.84 2.448-.624.504.193.576.53-.144.84-.695.313-1.535.457-2.303.41v3.84c2.136-.77 2.977-.84 3.072-.648.07.146-.05.266-2.498 1.202zm8.114 6.913c-1.2-.192-3.528-.217-6.24.048-1.705.19-3.193.384-4.393.624-1.415.288-1.63.264-2.59-.24-.912-.48-.89-.84.384-.744.576.048 3.29-.144 4.68-.312 1.513-.166 4.13-.477 5.377-.74 1.945-.457 2.69-.36 3.793.286 1.176.72.936 1.416-1.008 1.08zm-3.48-3.72c-.672.143-1.608.31-2.424.455-1.896.336-3.36.312-3.936-.048-.528-.312-.504-.48.312-.528.6-.048 2.544-.408 3.264-.552 2.064-.48 2.424-.456 2.952-.168.456.24.384.72-.168.84zm5.28-2.16c-1.055.287-2.928.335-4.27.095-2.042-.336-2.473-1.944-2.425-4.128.094-4.56.022-6.553-.17-6.913-.67-1.273-.384-1.514.77-.914 1.294.672 1.342.89.79 1.944-.144.265-.336 2.186-.408 4.394 2.33-1.128 3.216-1.824 3.504-2.376.312-.624.696-.816 1.536-.024.864.792.768.984-.048 1.176-.624.145-2.496.89-5.017 1.776-.096 3.145.36 3.744 2.256 3.864.84.048 1.656 0 2.472-.19.72-.193 1.392-1.058 1.8-2.233.216-.672.408-.576.48-.024.12.864.216 1.416.384 2.232.143.67-.12.936-1.656 1.32zm24.766-2.857c-.407.6-.815 1.152-1.247 1.704.48.48.696.84.744 1.176.072.36.024 4.417-.048 6.025-.026.336-.194 1.27-.36 1.487-.218.265-.434.217-.65-.096-.504-.792-.6-1.44-.168-2.64.168-.457.216-2.28.192-4.44 0-.24-.048-.624-.144-1.01-1.343 1.514-2.855 2.737-4.63 3.577-.577.29-.77-.046-.29-.382 1.706-1.224 3.53-2.977 4.826-5.017.72-1.127 1.032-2.087.984-2.83-.048-.65.192-.793.768-.41.888.625 1.2 1.25.96 1.514-.17.193-.673.937-.937 1.345zm10.274-6c-.912-.072-2.832-.12-4.272-.05-.504 1.105-1.128 2.065-1.656 2.522-.336.336-.6.145-.336-.288.192-.312.504-1.008.937-2.136-.912.12-2.208.36-3.672.552.048.384.096.816.144 1.32.046.408-.074.624-.29.696-.216.096-.48-.168-.55-.553-.098-.502-.17-.934-.218-1.32-1.032.17-2.472.435-2.736.507-1.2.384-1.848.288-2.352-.192-.576-.528-.48-.672.144-.648.503.024 2.495-.19 4.775-.432-.264-1.248-.552-1.776-1.176-2.52-.265-.29-.193-.625.575-.577 1.128.072 1.68.385 1.584 1.08-.05.312-.05.864.047 1.896 1.44-.168 2.688-.36 3.96-.528.528-1.656.648-2.64.408-3.023-.335-.553-.023-.937 1.13-.36 1.055.48 1.103.647.743 1.248-.216.36-.696 1.177-1.104 1.97.935-.12 1.655-.24 2.015-.337 1.223-.288 1.75-.312 2.303-.048 1.295.575 1.055 1.367-.41 1.224zm1.224 14.737c-1.632.6-4.68.575-5.904-.072-1.68-.864-1.992-1.465-1.92-5.16-.984.552-1.968.936-2.688 1.128-.432.12-.48-.19-.168-.334.624-.312 1.944-1.104 2.88-1.73.096-3.216.096-4.392-.216-4.87-.336-.506-.168-.697.432-.506 1.392.407 1.68.815 1.248 1.584-.096.168-.288 1.512-.408 3.048 2.304-1.872 3.36-3.288 3.265-3.864-.074-.432.214-.648.694-.384 1.392.768 1.608 1.344 1.056 1.632-.215.096-.72.456-1.607 1.272-.937.863-2.232 1.775-3.528 2.52-.168 3.072.072 3.864 1.32 4.37.792.31 3.384.335 4.632-.146 1.176-.48 1.56-.96 2.136-3.912.12-.672.408-.696.432.12.024.912.36 2.808.552 3.168.288.48-.12 1.416-2.21 2.137zm28.992-8.52c.48-.12 1.128-.145 1.344-.07.336.07.456.046.552-.314.144-.48.336-1.44.504-2.374-.336.023-.72.072-1.104.216-.768.193-1.608.12-2.352-.31-.24-.145-.192-.288.144-.313.456-.025.72-.073 1.368-.193.888-.216 1.56-.288 2.088-.216.12-.53.168-1.056.192-1.44.048-.89-.144-.983-.888-.815-1.248.24-1.92.216-2.353-.072-.432-.24-.384-.408.024-.432.6-.05 1.894-.335 2.71-.77.72-.36.984-.43 2.112.17 1.152.624 1.272.937.744 1.416-.48.408-1.008 1.608-1.44 3.937-.192.984-.648 2.208-1.128 2.856-.29.407-.6.31-.817-.097-.095-.192-.19-.288-.407-.312-.264-.023-.936-.023-1.92.025 1.488.744 1.464 1.032 1.128 1.872-.12.288-.24 2.448-.143 3.77.07 1.03.6 1.63 1.87 1.92.913.215 2.666.143 3.48-.146 1.37-.48 1.61-.743 2.017-3.24.168-1.03.264-1.127.456 0 .336 1.753.624 2.594.768 2.81.313.456.17.816-1.08 1.56-.84.505-2.88.744-5.04.505-2.328-.265-3.36-1.177-3.552-3.36-.12-1.177-.168-2.616-.12-3.72.048-.96 0-1.537-.36-1.92-.792.047-1.752.12-2.856.24 1.416.862 1.464 1.318 1.056 1.727-.096.098-.408.602-.768 1.394-1.272 2.616-4.2 4.8-7.272 5.52-.576.12-.6-.24-.048-.48 1.584-.72 3.672-2.28 5.064-4.03 1.584-1.993 2.017-3.41 1.488-4.058-.432.048-.864.097-1.344.145-.192.937-.456.96-.72.625-.288-.408-.432-.937-.552-2.4-.096-1.152-.84-3.696-1.608-4.633-.384-.456-.24-.695.336-.672.288.024.792.097 1.248.168 2.088-1.823 2.928-2.927 2.904-3.36-.048-.96.312-1.007 1.584-.406 1.056.528 1.08.816.6 1.032-.168.072-.624.36-1.272.89-.84.646-2.016 1.463-3.265 2.135 0 .41.097 1.417.265 2.546 2.448-.696 3.072-.673 3.433-.433.48.36.336.527 0 .647-.336.096-.792.216-1.056.264-.84.193-1.536.24-2.304.146.096 1.008.24 2.063.36 2.712 2.497-.222 5.474-.558 5.93-.654zM37.584 24.044c.09.108.144.198.144.27 0 .127-.126.217-.27.27-.234.11-.234.146-.972.865-.306.305-.54.52-.99.772.053.055.07.108.07.18 0 .055-.017.145-.035.27-.034.325-.052.703-.052 1.08 0 .38.018.758.054 1.1.055.433-.125.685-.305.774-.054.036-.108.036-.18.036-.162 0-.342-.126-.324-.47.02-.772.037-1.35.037-1.8 0-.306-.018-.54-.036-.773-.017-.11-.017-.18-.035-.253-.037-.02-.09-.055-.127-.09-.29-.198-.72-.667-1.01-.955-.45-.45-.737-.756-.936-.936-.108-.09-.144-.162-.144-.234 0-.09.072-.145.252-.18.09-.02.162-.02.234-.02.34 0 .503.182.79.505l1.136 1.333c.09.108.18.145.234.09.288-.27.54-.485.792-.79.305-.344.72-.9.863-1.153.18-.307.27-.414.414-.27l.396.377zm-1.098-6.374c.09.09.126.162.126.234 0 .108-.09.216-.198.307-.18.164-1.134 1.136-1.278 1.226-.018.02-.036.055-.036.072 0 .054.054.108.216.09.504-.054 1.08-.107 1.404-.216.144-.053.288-.107.414-.107.108 0 .216.055.288.162.144.234.378.414.378.595 0 .072-.036.126-.108.18-.45.36-1.044 2.323-1.854 2.88-.234.163-.432.325-.63.325-.126 0-.234-.054-.36-.234-.342-.484-.594-.772-.684-.863-.108-.126-.144-.197-.144-.233 0-.055.054-.072.162-.055.054.018.108.035.18.07.288.11.685.29.9.29.234 0 .504-.27.882-.883.342-.487.486-1.046.432-1.244-.018-.107-.162-.16-.36-.16-.324 0-.792.106-1.278.18-.162.017-.324.125-.504.125-.09 0-.198-.036-.306-.11-.18-.142-.486-.556-.486-.664 0-.144.27-.144.504-.288.396-.198.99-.918 1.098-1.08.054-.054.072-.108.072-.145 0-.054-.072-.054-.18-.035-.09 0-.18.018-.288.035-.504.108-.972.27-1.296.27-.126 0-.234-.035-.306-.09-.252-.197-.558-.468-.558-.61 0-.055.036-.09.162-.09.234 0 .738.035.954.035.612-.036 1.747-.18 2.107-.343.145-.073.38.143.577.376zm5.147 7.996c.702.666.522 1.152-.09.666-.468-.378-1.117-.918-2-1.603-.413-.326-.936-.687-1.368-.975-.45-.324-.144-1.638.612-.9.812.81 2.432 2.432 2.846 2.81zm32.637-9.814c0 .108-.127.198-.487.198-.252 0-1.224.09-1.89.145.018.035.018.07.018.107 0 .055-.016.108-.034.162-.054.145-.126.883-.126 1.1-.02.36-.02.9-.02 1.403 0 .414.037 1.188.055 1.404 0 .218-.288.885-.504.885-.196 0-.394-.63-.36-1.28.038-.34.128-1.53.128-2.52 0-.468-.018-.882-.072-1.152-.45.072-1.17.198-1.674.324-.305.09-.737-.288-.863-.432-.073-.072-.127-.162-.127-.217 0-.09.11-.162.38-.162.467 0 .97-.035 1.332-.07 1.152-.11 2.178-.253 2.737-.36.323-.073.54-.11.7-.11.127 0 .235.02.325.073.195.11.484.34.484.503zm.017 7.51c0 .125-.144.197-.558.16-.11-.018-.218-.018-.344-.018-.576 0-1.404.09-2.088.18-.325.036-1.315.18-1.982.36-.306.072-.738-.288-.864-.432-.072-.072-.126-.18-.126-.252 0-.108.09-.198.36-.198.468 0 .972-.036 1.333-.072 1.152-.126 2.106-.252 2.683-.378.198-.036.378-.072.576-.072.18 0 .36.036.503.126.196.145.503.414.503.595zm-.037 4.914c0 .108-.09.198-.432.198-.288 0-.666.018-1.098.054-.072.288-.126.54-.162.648-.144.396-.162.594-.432 1.044-.126.198-.234.343-.324.396-.036.018-.072.018-.09.018-.072 0-.108-.07-.108-.233 0-.106.018-.27.072-.484.126-.486.216-.918.306-1.314-.486.055-1.008.11-1.458.18.054.65.126 1.298.162 1.532.108.54.342.792.666.846.144.02.288.036.432.036.432 0 .83-.09 1.314-.252.108-.036.198-.054.27-.054.18 0 .324.09.414.306.126.288-.144.433-.522.54-.234.072-.774.145-1.35.145-.36 0-.757-.036-1.063-.126-.522-.162-.774-.576-.864-1.01-.09-.52-.144-1.098-.198-1.8-.162.036-.306.072-.432.108-.072.02-.126.037-.18.037-.324 0-.54-.27-.684-.434-.09-.107-.146-.216-.146-.288 0-.09.072-.144.216-.144l.577.036c.09 0 .324-.02.612-.036-.02-.378-.038-.864-.09-1.01-.056-.143-.164-.323-.164-.45s.072-.16.162-.16c.16 0 .377.107.395.107.126.07.36.18.486.34.036.038.054.093.054.147 0 .144-.126.324-.126.468l.017.486c.522-.07 1.117-.143 1.64-.233l.053-.233c.09-.396.144-.666.144-.9 0-.126-.018-.234-.054-.342-.036-.107-.072-.197-.072-.27 0-.145.072-.216.216-.18.072.018.162.07.27.144l.504.36c.108.09.144.162.144.234 0 .16-.216.288-.27.485l-.162.577c.162-.018.288-.054.396-.07.072-.02.126-.02.18-.02.27 0 .45.162.612.288.073.054.162.18.162.288zm35.154-2.7c-.162.035-.396-.09-.504-.27-.18-.253-.252-.38-.648-.793-.144-.162-.288-.288-.414-.414l-.18.16c-.972.74-2.017 1.242-2.485 1.404-.306.107-.468.07-.504.07-.056 0-.074-.053-.02-.106.18-.163.63-.487.954-.703.378-.252 1.026-.738 1.603-1.26-.162-.108-.414-.307-.774-.595-.306-.234-.774-.612-1.135-.81-.18-.11-.253-.217-.253-.29s.054-.107.144-.107c.306 0 .56.09.864.217.486.216 1.188.666 1.73 1.044.16-.18.287-.342.395-.504.34-.522.287-.738.287-1.045 0-.144.054-.197.144-.197.073 0 .18.054.29.144.18.108.323.216.503.45.09.108.162.234.162.342 0 .108-.108.27-.288.396-.252.18-.594.54-.918.864l.07.054c.613.54.973.81 1.243 1.278.234.397-.108.632-.27.668zm1.045-9.634c0 .127-.11.234-.47.27-.27.02-1.836.11-3.17.307h-.035c.162.16.252.25.216.34-.125.29-.197.775-.233 1.1-.126.846-.432 1.62-.576 1.944-.18.414-.665 1.008-1.08 1.296-.07.056-.125.073-.16.073-.055 0-.055-.072-.037-.162.054-.196.234-.54.378-.826.433-.864.523-1.675.613-2.09.036-.18.09-.63.09-1.043 0-.16-.018-.306-.036-.432h-.126c-.18 0-.34-.036-.503-.144-.342-.216-.594-.47-.594-.595 0-.07.072-.127.252-.108.576.037 1.404-.035 1.53-.035.09-.02.828-.09 1.026-.108.595-.073 1.243-.2 1.837-.29.126-.02.234-.036.324-.036.18 0 .307.055.45.145s.308.25.308.393zm-.578 10.533c.09.108.144.198.144.27 0 .127-.126.217-.27.272-.234.107-.234.144-.973.864-.306.308-.54.523-.99.775.054.055.072.108.072.18 0 .055-.018.145-.036.27-.037.344-.055.703-.055 1.082 0 .378.018.756.054 1.098.053.433-.127.685-.307.774-.054.035-.108.035-.18.035-.162 0-.342-.126-.324-.468.017-.774.035-1.35.035-1.8 0-.308-.018-.54-.036-.775-.02-.107-.02-.18-.037-.25-.036-.02-.09-.055-.126-.09-.288-.2-.72-.668-1.008-.956-.45-.45-.74-.756-.938-.936-.108-.09-.144-.162-.144-.234 0-.09.07-.144.25-.18.09-.02.163-.02.235-.02.342 0 .504.182.792.505l1.134 1.333c.09.107.18.144.234.09.288-.27.54-.486.792-.792.306-.342.72-.9.864-1.15.18-.308.27-.415.415-.27l.398.376zm32.148-4.735c.234.108.396.252.288.396-.108.144-.18.522-.162.774.036.324-.072 1.008-.198 1.477-.18.684-.414 1.224-1.026 1.926-.288.307-.63.54-.774.54-.072 0-.09-.07 0-.233.036-.072.09-.145.144-.234.846-1.188.936-1.836 1.008-2.503.054-.414.072-.792.072-1.098 0-.307-.018-.56-.072-.72-.054-.163-.09-.27-.09-.36 0-.127.072-.18.252-.145.27.072.377.108.558.18zm1.728-.378c.198.162.324.27.288.396-.072.252-.162.468-.216 1.026-.018.233-.09 1.17-.09 1.944 0 .522.036.954.144 1.08.126.145.252.198.396.198.126 0 .252-.054.414-.09s.27-.055.378-.055c.144 0 .234.038.342.093.18.09.342.252.342.396 0 .09-.054.16-.198.215-.252.09-.738.162-1.207.162-.232 0-.45-.018-.63-.07-.18-.056-.54-.235-.646-.632-.036-.126-.054-.342-.054-.63v-.234c0-.81.053-1.96.053-2.682 0-.324 0-.558-.036-.666-.054-.16-.108-.36-.108-.52 0-.145.034-.234.18-.234.18 0 .52.216.647.306zm110.402-1.58l-1.552.276s-.81.135-1.037.158l-1.1.152-.264.79s-.225.605-.428 1.073-.44.93-.71 1.38-.585.876-.948 1.282-.71.74-1.038 1.003-.62.46-.88.592l-.48.246c-.25.142-.388.165-.415.07s.014-.19.123-.292l.492-.47c.18-.17.42-.43.72-.777s.595-.723.88-1.125.562-.885.832-1.447.486-1.07.65-1.522l.21-.586c-.093.015-.302.054-.626.116s-.525.094-.604.094c-.203.008-.402-.012-.598-.06s-.363-.1-.504-.163-.252-.138-.334-.224-.115-.16-.1-.223.094-.104.234-.128l.62-.082.61-.094 1.02-.106.55-.08c.08-.337.134-.577.165-.722s.094-.47.188-.98l.164-.89c-.236.047-.465.09-.688.13s-.428.077-.615.116-.332.06-.434.06c-.164.007-.32-.007-.47-.042s-.327-.1-.538-.193-.34-.19-.387-.282-.056-.17-.024-.23.13-.1.293-.12l.444-.048c.063 0 .224-.028.48-.083l1.208-.177.88-.128.082-.69s.053-.583.064-.95.002-.633-.03-.797l-.128-.645c-.375.078-.7.156-.98.234s-.474.113-.59.105c-.15 0-.308-.036-.476-.106s-.346-.168-.533-.293-.302-.224-.34-.298-.048-.13-.024-.164.055-.06.094-.075h.316l.785-.105 1.173-.13c.376-.038.7-.077.974-.116s.768-.114 1.482-.228 1.172-.193 1.37-.24.472-.113.815-.2.585-.145.72-.18.25-.05.336-.042c.078.016.252.096.52.24s.458.252.563.322.246.19.422.357.266.306.27.415-.05.254-.158.434c-.125.202-.22.374-.287.515s-.146.363-.24.668-.188.81-.28 1.512l-.27 1.934-.26 1.805c-.194 1.328-.364 2.377-.51 3.146s-.354 1.51-.632 2.216-.568 1.266-.873 1.676-.613.7-.926.868-.53.225-.656.17c-.093-.03-.206-.152-.34-.363s-.286-.438-.462-.68-.33-.44-.463-.598l-.492-.55c-.102-.104-.14-.176-.11-.22s.118-.05.274-.02l.785.178c.14.04.318.086.533.14s.385.063.51.024.275-.17.45-.397.337-.543.48-.95.308-.958.487-1.657.336-1.385.47-2.057l.1-.466zm-2.928 48.81c.195.234.355.424.48.57s.2.254.223.332.035.152.035.223c-.008.094-.05.293-.123.598s-.115.633-.123.984l-.094 4.23c-.023.86-.045 1.34-.064 1.44s-.072.26-.158.47-.168.356-.246.44-.156.127-.234.14-.176-.058-.293-.206c-.125-.14-.223-.31-.293-.51s-.137-.424-.2-.674-.09-.45-.08-.6c0-.1.042-.296.128-.585s.17-.67.252-1.143.13-.85.146-1.13l.082-1.91c.008-.33 0-.728-.023-1.196l-.047-.75c-.29.305-.545.568-.768.79s-.53.493-.926.81-.73.564-1.008.744-.658.398-1.143.656l-.504.27c-.17.094-.28.107-.332.04s-.03-.138.064-.216l.587-.457c.163-.125.472-.414.925-.867s.86-.877 1.225-1.27.7-.8 1.008-1.214.598-.836.867-1.266.45-.754.54-.973.183-.477.28-.773.15-.54.158-.727.034-.293.077-.316.107-.035.193-.035c.102.016.217.053.346.11s.3.153.51.282.395.283.556.463.23.32.205.422c-.015.053-.054.115-.116.186l-.34.328c-.155.148-.417.477-.784.984l-.703.925-.28.376zm-2.848-27.41l-.094-.645c-.047-.297-.123-.523-.23-.68s-.163-.266-.175-.328.02-.138.1-.224.297-.086.656 0c.424.117.69.195.8.234s.226.112.35.222.19.197.194.264-.01.143-.04.23c-.103.25-.16.41-.17.48s-.026.22-.042.45-.02.38-.01.45l.198 3.95 2.027-.598-.105-5.86c-.008-.272-.033-.663-.076-1.17s-.076-.862-.1-1.062-.082-.408-.176-.627-.148-.367-.164-.44 0-.147.047-.218.11-.115.19-.135.17-.02.28-.006c.086.017.318.08.697.194s.646.23.803.346.238.22.246.306-.03.238-.118.457c-.048.11-.1.303-.153.58s-.095.504-.118.68-.04.51-.047 1.002l-.035 1.324c.352-.158.646-.28.885-.365s.475-.137.71-.152c.132 0 .245.01.34.03s.224.065.392.14.285.152.352.234.095.162.087.24c-.023.117-.172.2-.445.252s-.537.11-.79.175-.464.113-.628.14-.285.034-.363.02l-.55-.06-.024 3.69 1.828-.573c.25-.078.473-.123.668-.135s.337-.004.423.023.145.062.176.1.045.087.04.142-.032.12-.087.2-.363.202-.926.374l-5.73 1.816c-.406.133-.773.29-1.102.47s-.535.28-.62.304-.157.035-.212.035c-.078.01-.18-.01-.305-.057s-.354-.23-.686-.55-.513-.52-.544-.6-.047-.142-.047-.192.01-.095.03-.134.08-.07.18-.094c.095-.015.265.005.51.06s.468.082.663.082c.148.008.383-.016.703-.07l.832-.13-.493-4.59zm4.805 52.113c-.416.047-.678.062-.787.047l-.398-.034c-.047.312-.105.523-.176.633s-.134.17-.19.18-.116-.004-.187-.05c-.11-.063-.22-.224-.334-.48s-.183-.493-.206-.704l-.363-3.13c-.046-.35-.122-.81-.23-1.376s-.2-.925-.285-1.073-.186-.295-.3-.44-.212-.26-.298-.35-.133-.167-.14-.23.01-.12.058-.176.098-.092.152-.115c.11-.047.258-.047.445 0l.75.176c.367-.327.674-.61.92-.843s.527-.52.844-.855.557-.63.72-.884.296-.484.394-.69.163-.386.194-.534.062-.246.094-.293.082-.086.152-.117.215-.008.434.07c.32.125.564.232.732.322s.35.203.545.34.334.27.41.398.107.225.084.287c-.023.07-.12.132-.293.187s-.317.11-.44.164-.39.234-.807.535-.885.617-1.4.95-.992.61-1.43.837l-.727.388c.133.094.223.176.27.246s.078.248.094.533l.034.632s.027.396.06.78l.034.48.984-.376c.523-.195.86-.303 1.014-.322s.305.002.457.064.29.14.41.234.188.156.2.188.013.066.005.105c-.016.062-.04.117-.07.164s-.086.087-.164.122-.242.072-.492.11-.523.1-.82.177-.5.116-.61.116l-.772.07.27 2.695c.71-.047 1.21-.084 1.5-.11s.896-.09 1.822-.183 1.58-.174 1.963-.24.627-.102.732-.105.238.005.398.024.28.053.357.1l.316.2.867-3.165-1.418.27c-.47.094-.785.14-.95.135s-.343-.03-.538-.076-.348-.118-.453-.21-.156-.174-.152-.236.092-.12.264-.176l.81-.094.947-.27.504-.152c.134-.015.294-.007.48.024l.657.117.28-2.003c.017-.133-.003-.266-.058-.398s-.105-.222-.147-.265-.113-.066-.21-.07-.272.02-.522.076l-1.31.306c-.267.06-.48.09-.646.087s-.322-.027-.475-.07-.25-.12-.288-.23-.04-.183 0-.222.184-.07.434-.094l.527-.034c.102 0 .36-.055.773-.164l.398-.095c.28-.07.584-.174.908-.31s.545-.214.662-.23c.164-.016.314-.004.45.035s.376.11.716.217.605.214.792.327.293.244.316.393-.068.383-.275.703-.357.638-.45.95l-1.126 3.562-.586 2.062c-.07.14-.143.256-.22.346s-.18.158-.306.205-.215.066-.27.06c-.117-.01-.21-.067-.28-.177l-.33-.397c-.335-.016-.522-.023-.56-.023l-1.103.094c.228.134.425.265.593.394s.252.264.252.404c-.008.062-.03.145-.07.246l-.2.434c-.1.242-.196.557-.286.943s-.16.774-.206 1.16-.066.75-.06 1.085c0 .39.052.75.153 1.078s.28.62.533.873.6.454 1.042.6 1.068.21 1.88.192c.813-.008 1.485-.09 2.017-.246s.904-.356 1.123-.603.385-.527.498-.844.198-.605.253-.86.102-.53.14-.81l.083-.716c.008-.062.053-.096.135-.1s.14.04.17.135l.224.88c.078.342.184.7.316 1.07s.282.693.446.967.248.464.252.57-.01.2-.04.286c-.048.117-.187.29-.417.52s-.752.51-1.57.833-1.96.49-3.437.497c-1.133.016-1.98-.098-2.537-.34s-1-.527-1.324-.855-.552-.672-.685-1.03-.24-.778-.322-1.255-.12-.797-.11-.96l.104-2.38c0-.125-.005-.37-.013-.732s-.047-.61-.117-.743l-.258-.538-1.723.116c.11.1.26.233.45.397s.316.342.375.533.053.36-.018.51c-.03.055-.14.166-.328.334s-.366.367-.534.598-.443.584-.826 1.06-.703.858-.96 1.144-.638.63-1.138 1.03-1.03.774-1.594 1.114-1.064.586-1.506.738-.904.28-1.39.38l-.327.07c-.125.032-.205.02-.24-.04s-.018-.107.053-.146l.328-.164c.188-.094.47-.244.844-.45s.896-.565 1.564-1.073 1.26-1.024 1.775-1.552.956-1.045 1.323-1.553.64-.948.815-1.32.29-.704.346-1l.11-.526zm-.366-32.496l1.688-.27c.195-.024.312.02.352.13s.027.19-.035.25-.126.096-.19.11l-1.675.528.27 1.383c.016.11-.004.255-.06.435s-.122.285-.204.316-.183-.007-.304-.116-.217-.27-.287-.48l-.41-1.22-1.407.435c-.28.085-.494.165-.64.24s-.284.15-.42.23-.23.12-.276.127c-.07.016-.18-.002-.328-.053s-.296-.14-.44-.264-.283-.267-.416-.423-.232-.29-.3-.404-.093-.203-.08-.27.032-.113.063-.14.102-.042.21-.042c.11.01.22.02.33.037l.315.047c.14.023.29.03.45.018s.41-.044.745-.1l1.863-.304-.128-.31-.234-.534s-.223-.496-.293-.645-.162-.29-.275-.43-.193-.254-.24-.352-.04-.19.018-.28.162-.15.31-.183c.134-.023.364-.012.692.035l.47.07c.163.03.286.063.368.1s.154.08.217.134.11.113.14.176l-.01.492.104 1.277.044.247zm-4.57-8.766h.82c.22 0 .71-.03 1.477-.094l1.923-.13c.414-.023 1.078-.078 1.992-.164s1.824-.168 2.73-.246 1.578-.145 2.016-.2l1.56-.187c.117-.008.33-.025.64-.053s.52-.04.64-.04c.217.015.437.063.66.145s.477.207.762.375.484.322.598.463.153.268.118.38-.143.175-.322.183l-.75.047c-.148.016-.537.008-1.166-.023s-1.256-.04-1.88-.023l-2.462.082c-.82.02-1.316.037-1.488.045s-.67.045-1.494.11-1.314.108-1.47.124-.562.07-1.214.17-1.12.18-1.4.245-.48.096-.598.088c-.094 0-.236-.02-.428-.06s-.38-.104-.568-.198l-.645-.352c-.18-.094-.31-.195-.393-.305s-.102-.202-.06-.276.18-.11.405-.11zm6.035-32.953c.03-.163.07-.39.116-.673s.098-.627.152-1.025l.14-1.112c-.195.03-.34.055-.434.07l-.996.2-1.383.198-.61.094c-.06.29-.132.63-.21 1.02s-.16.766-.246 1.125l-.105.434c.22-.04.383-.07.492-.094l.492-.105c.397-.077.655-.134.772-.17s.26-.083.428-.145.292-.098.37-.105.19.007.34.046.293.086.434.14l.246.104zm.48-3.433l.06-.703s.02-.342.034-.674.037-.632.064-.897.022-.48-.013-.64-.096-.276-.182-.35-.3-.097-.645-.065c-.023.008-.23.023-.62.047s-.692.055-.903.094l-1.57.28c.234.11.416.202.545.28s.238.174.328.287.133.2.13.264-.036.16-.095.294-.107.28-.146.445l-.153.632-.13.855c.384-.094.722-.168 1.015-.223s.546-.12.76-.193.356-.112.423-.116.193.016.38.06.345.1.47.17l.245.15zm2.203 31.922c.477-.11.754-.17.832-.177.078 0 .2.023.363.07s.34.113.532.2.34.177.445.274.146.2.123.31c-.023.08-.072.142-.146.19s-.172.077-.293.093-.406.077-.855.187-1.002.207-1.658.293l-1.535.21c-.57.08-1.027.118-1.37.118-.5.008-.853-.035-1.056-.13s-.36-.185-.47-.274-.167-.156-.175-.2-.007-.083 0-.122c0-.03.005-.057.013-.076s.04-.043.094-.07.145-.053.27-.076l1.418-.13c.148-.015.594-.09 1.336-.228s1.146-.213 1.208-.23l.924-.234zm.07 21.972c.61-.147 1.16-.282 1.652-.403s.938-.245 1.336-.37l.985-.293.727-.223c.102-.016.19-.027.27-.035.11 0 .22.02.334.06s.346.123.697.256.56.244.62.334.087.158.07.205c-.015.03-.056.068-.122.11s-.122.07-.17.077l-.796.117-1.652.233c-.258.048-.78.147-1.57.3s-1.297.256-1.523.31-.364.075-.41.06l-.458-.047-.06 2.543c-.015.655.058 1.157.218 1.505s.44.64.84.88.843.374 1.335.41.97.048 1.43.04c.602 0 1.092-.025 1.47-.076s.71-.136.99-.253.528-.297.74-.54.366-.493.468-.755.19-.573.27-.933l.223-1.02c.055-.267.127-.39.217-.37s.146.107.17.264l.117.89c.07.57.152.968.246 1.19s.21.473.352.75.217.475.23.592-.007.234-.054.352c-.102.25-.307.46-.615.627s-.668.316-1.074.445-.852.232-1.336.31-1.02.122-1.604.13c-.82.023-1.607-.027-2.36-.152s-1.37-.332-1.847-.62-.838-.622-1.08-.997-.396-.783-.463-1.225-.092-.877-.076-1.307l.06-3.14c.03-1.83.04-2.84.03-3.036s-.054-.397-.124-.608l-.117-.316c-.04-.102-.05-.19-.036-.264s.055-.143.117-.205.224-.056.48.022c.103.04.304.12.605.246s.51.248.627.37.186.23.205.327.002.24-.053.428l-.176.517c-.07.22-.126.5-.165.844l-.19 1.44zm2.473-9.164l1.453-.34.83-.234c.118-.008.235.004.353.035s.293.1.527.204.394.195.476.27.123.154.123.24c-.01.102-.053.176-.13.223s-.194.088-.347.123-.256.053-.31.053l-.622.07-2.144.27c-.21.032-.332.048-.363.048l-.363.07c-.116.228-.196.378-.24.45s-.175.293-.397.65-.377.596-.463.705l-.293.375c-.18.227-.324.31-.434.252s-.113-.23-.012-.51l.576-1.665c-.297.117-.51.174-.64.17s-.228-.018-.298-.04-.16-.063-.27-.118-.203-.105-.28-.147-.163-.108-.253-.198-.12-.168-.094-.234.12-.106.276-.122l.375-.035c.024 0 .368-.06 1.03-.176l.46-.082.06-.223c.1-.36.172-.63.215-.81s.09-.393.14-.64.09-.462.112-.65c.023-.25.016-.478-.023-.685s-.04-.357-.006-.45.11-.16.223-.2.288-.008.52.094c.26.133.46.246.6.34s.295.23.463.404.254.31.258.404-.05.22-.157.375c-.102.148-.172.252-.21.31s-.08.132-.118.218l-.597 1.207zm-1.02-20.203c.688-.18 1.238-.322 1.652-.428s.796-.215 1.147-.328.613-.17.785-.17c.21.007.457.067.738.18s.46.213.54.3.116.17.116.257c-.008.125-.072.227-.193.305s-.384.153-.79.224l-2.074.375c-.266.047-.527.084-.785.11s-.476.02-.655-.017l-.55-.094-.06 1.124c-.03.492-.045.912-.04 1.26s.05.627.14.838.195.38.316.505.4.242.833.352 1.018.163 1.752.163c.523.01.986-.026 1.39-.104s.728-.218.978-.417.44-.42.568-.662.23-.515.3-.82l.13-.644.117-.516c.023-.125.086-.2.188-.223s.16.05.176.223l.06.75c.008.148.04.324.094.527s.125.432.21.686.18.457.282.61.16.27.176.35-.027.206-.13.37c-.054.086-.17.22-.345.398s-.61.394-1.3.64-1.647.37-2.866.37c-1.116.007-1.92-.095-2.407-.306s-.83-.413-1.025-.608-.345-.416-.446-.662-.18-.57-.234-.973-.074-.85-.06-1.34l.165-5.708.035-.902c0-.344-.027-.695-.082-1.055-.04-.218-.098-.433-.176-.644s-.102-.362-.07-.456c.016-.063.057-.122.123-.177s.19-.074.37-.06c.17.024.394.09.667.2s.492.223.656.34.275.21.334.28.09.147.094.23-.037.213-.123.393c-.1.195-.19.416-.263.662s-.128.576-.16.99l-.293 3.305zm1.395-27.2c-.06.173-.11.315-.14.43s-.074.347-.13.702-.08.64-.08.85l-.353 11.438c-.03.883-.06 1.434-.082 1.652l-.152 1.066c-.055.485-.137.835-.246 1.05s-.21.314-.305.3c-.094-.01-.18-.12-.258-.335s-.117-.553-.117-1.014l-.06-1.147c-.007-.07-.003-.383.013-.938l.212-12.177c0-.415-.004-.778-.012-1.09l-.035-.575c-.023-.266-.066-.498-.13-.697s-.08-.333-.052-.403.076-.127.146-.17.213-.037.432.018c.266.086.44.148.527.188l.55.293 1.69-.504.66-.206s.643-.223.84-.328.322-.166.385-.182c.094-.008.213.01.357.053s.37.13.674.263.512.23.62.288.214.14.312.247.145.197.145.275c-.008.07-.072.16-.193.274s-.297.31-.527.586-.354.428-.37.45l-1.84 2.685c.235.18.458.35.67.51s.458.385.743.674.545.615.78.98.43.784.585 1.265.22 1.03.19 1.646c-.04.58-.158 1.06-.357 1.448s-.38.623-.545.71-.29.13-.376.134-.25-.122-.492-.38c-.094-.086-.328-.29-.703-.61l-.704-.585-.773-.54-.527-.386c-.125-.086-.176-.154-.152-.205s.134-.064.33-.04l.702.104.69.13.657.092c.194.032.33.026.403-.017s.125-.174.152-.393.014-.504-.04-.855c-.07-.422-.146-.746-.224-.973s-.22-.502-.42-.826-.36-.55-.476-.68-.27-.297-.47-.504-.302-.342-.31-.404.062-.31.21-.738l.833-2.508c.078-.25.12-.414.123-.492s-.02-.152-.07-.223-.14-.12-.264-.153-.333-.016-.622.047l-2.026.432zm14.365 6.765c.09.11.145.2.145.272 0 .126-.126.216-.27.27-.234.108-.234.145-.973.865-.307.306-.54.52-.99.773.055.055.072.108.072.18 0 .055-.02.145-.038.27-.036.325-.054.703-.054 1.082 0 .378.017.756.053 1.098.055.433-.125.685-.305.774-.055.036-.108.036-.18.036-.163 0-.344-.126-.325-.468.02-.774.036-1.35.036-1.8 0-.308-.018-.54-.036-.775-.02-.108-.02-.18-.036-.252-.035-.02-.09-.054-.126-.09-.288-.198-.72-.666-1.01-.954-.448-.45-.736-.755-.935-.935-.107-.09-.145-.162-.145-.234 0-.09.072-.143.252-.18.09-.02.162-.02.234-.02.342 0 .504.183.793.507l1.133 1.332c.09.107.18.143.234.09.288-.27.54-.487.792-.793.306-.342.72-.9.863-1.152.18-.307.27-.414.413-.27l.398.377zm-1.098-6.372c.09.09.126.162.126.233 0 .11-.09.22-.198.31-.18.16-1.135 1.133-1.278 1.223-.018.02-.036.055-.036.072 0 .055.057.108.22.09.503-.054 1.08-.107 1.403-.216.144-.055.287-.108.414-.108.107 0 .216.055.288.162.144.234.378.415.378.595 0 .07-.036.125-.107.18-.45.36-1.045 2.322-1.855 2.88-.233.162-.43.324-.63.324-.125 0-.232-.054-.36-.234-.34-.485-.593-.773-.683-.864-.108-.126-.145-.197-.145-.233 0-.054.056-.07.163-.054.055.02.107.035.18.07.29.11.685.29.9.29.234 0 .504-.27.883-.883.342-.486.486-1.045.432-1.242-.018-.108-.162-.162-.36-.162-.323 0-.792.107-1.278.18-.162.018-.324.126-.504.126-.09 0-.197-.037-.307-.11-.18-.143-.485-.557-.485-.665 0-.144.27-.144.504-.288.395-.198.99-.918 1.1-1.08.052-.054.07-.108.07-.144 0-.055-.07-.055-.18-.036-.09 0-.18.018-.29.036-.503.107-.972.27-1.296.27-.125 0-.233-.036-.305-.09-.254-.198-.56-.468-.56-.612 0-.053.035-.09.162-.09.235 0 .74.037.955.037.612-.036 1.747-.18 2.106-.343.146-.073.38.143.577.378zm5.148 7.994c.702.666.522 1.152-.09.666-.468-.378-1.116-.918-2-1.603-.413-.324-.935-.685-1.367-.973-.45-.323-.144-1.638.612-.9.81.81 2.43 2.432 2.845 2.81zm-3.51 14.36c0 .108-.125.198-.485.198-.252 0-1.225.09-1.89.145.017.036.017.072.017.108 0 .054-.018.107-.035.16-.055.146-.127.884-.127 1.1-.018.36-.018.9-.018 1.404 0 .414.036 1.188.055 1.404 0 .22-.29.885-.505.885-.198 0-.396-.63-.36-1.278.037-.343.127-1.53.127-2.52 0-.47-.02-.884-.072-1.153-.45.07-1.17.197-1.675.323-.306.09-.738-.288-.864-.432-.072-.072-.126-.162-.126-.216 0-.09.108-.163.378-.163.47 0 .973-.036 1.332-.072 1.152-.108 2.18-.252 2.737-.36.324-.072.54-.107.702-.107.126 0 .234.018.324.07.198.11.486.344.486.506zm.02 7.51c0 .126-.145.2-.56.162-.107-.018-.215-.018-.34-.018-.578 0-1.406.09-2.09.18-.324.036-1.314.18-1.98.36-.307.07-.738-.288-.865-.433-.07-.072-.125-.18-.125-.252 0-.107.09-.197.36-.197.468 0 .972-.036 1.33-.072 1.153-.125 2.108-.25 2.685-.377.197-.036.378-.07.576-.07.18 0 .36.034.504.125.198.144.504.414.504.594zm-.036 4.915c0 .108-.093.198-.435.198-.288 0-.667.02-1.1.055-.07.287-.125.54-.16.646-.145.396-.163.595-.433 1.045-.127.2-.234.344-.324.398-.037.02-.073.02-.09.02-.073 0-.11-.073-.11-.235 0-.108.02-.27.073-.486.127-.486.217-.918.307-1.314-.487.055-1.01.108-1.46.18.055.648.127 1.297.163 1.53.108.54.342.793.666.847.143.018.287.035.432.035.432 0 .828-.09 1.314-.252.107-.036.197-.054.27-.054.18 0 .324.09.414.304.126.288-.145.433-.52.54-.235.072-.776.145-1.353.145-.36 0-.756-.037-1.062-.127-.52-.162-.772-.576-.862-1.01-.09-.52-.145-1.097-.198-1.8-.162.037-.306.072-.433.108-.07.02-.124.037-.18.037-.323 0-.54-.27-.683-.432-.09-.108-.145-.217-.145-.288 0-.09.07-.145.215-.145l.576.036c.09 0 .325-.02.613-.037-.018-.377-.036-.863-.09-1.007-.055-.145-.162-.324-.162-.45s.073-.162.163-.162c.162 0 .378.108.396.108.124.072.36.18.485.343.035.037.053.09.053.145 0 .145-.124.324-.124.47l.018.484c.52-.07 1.116-.144 1.64-.233l.053-.234c.09-.396.144-.666.144-.9 0-.126-.018-.234-.053-.342-.037-.107-.072-.197-.072-.27 0-.144.072-.216.216-.18.07.018.16.07.27.144l.506.36c.107.09.144.162.144.234 0 .16-.215.287-.27.485l-.162.576c.162-.02.29-.055.396-.07.072-.02.127-.02.18-.02.27 0 .45.16.613.287.07.055.162.18.162.288zm-.992 21.473c-.162.036-.396-.09-.505-.27-.18-.253-.252-.38-.647-.793-.145-.162-.29-.288-.414-.414l-.18.162c-.973.738-2.018 1.242-2.486 1.404-.306.106-.468.07-.504.07-.054 0-.072-.054-.018-.108.18-.162.63-.485.954-.702.378-.25 1.026-.737 1.603-1.26-.16-.107-.412-.306-.772-.594-.306-.233-.774-.612-1.134-.81-.18-.108-.252-.217-.252-.288 0-.072.055-.108.145-.108.306 0 .558.09.864.216.486.216 1.188.666 1.73 1.045.16-.18.287-.34.395-.503.342-.52.287-.738.287-1.044 0-.145.056-.198.146-.198.072 0 .18.054.288.145.18.106.324.215.505.45.09.106.16.232.16.34 0 .108-.107.27-.287.397-.252.18-.594.54-.918.864l.072.057c.61.54.973.81 1.242 1.278.233.395-.11.63-.27.666zm1.043-9.633c0 .126-.105.234-.465.27-.27.02-1.838.108-3.17.307h-.035c.16.162.25.252.214.342-.125.288-.197.774-.233 1.1-.124.846-.43 1.62-.574 1.943-.18.412-.666 1.007-1.08 1.295-.072.054-.126.07-.162.07-.054 0-.054-.07-.036-.16.055-.198.234-.54.378-.83.433-.863.522-1.673.612-2.087.036-.182.09-.632.09-1.046 0-.162-.018-.306-.035-.432h-.127c-.18 0-.342-.036-.504-.145-.34-.216-.593-.468-.593-.594 0-.07.07-.125.25-.107.576.036 1.404-.036 1.53-.036.09-.02.828-.09 1.026-.108.594-.073 1.242-.2 1.836-.29.128-.02.235-.035.325-.035.18 0 .307.054.45.144.145.09.306.25.306.394zm-.574 10.533c.09.108.145.198.145.27 0 .127-.125.217-.27.27-.233.11-.233.146-.972.865-.307.306-.54.522-.99.774.055.052.072.105.072.18 0 .053-.02.143-.037.27-.036.34-.054.7-.054 1.08s.016.755.052 1.1c.054.43-.126.682-.306.772-.055.035-.108.035-.18.035-.163 0-.344-.126-.325-.468.02-.775.037-1.35.037-1.8 0-.308-.018-.54-.036-.776-.02-.107-.02-.18-.035-.252-.035-.018-.09-.054-.126-.09-.29-.198-.72-.666-1.01-.954-.45-.45-.737-.757-.936-.938-.107-.09-.145-.162-.145-.233 0-.092.07-.146.25-.182.09-.018.163-.018.235-.018.342 0 .504.18.793.504l1.133 1.333c.09.108.18.145.235.09.288-.27.54-.485.792-.792.306-.34.72-.9.863-1.15.18-.307.27-.415.414-.27l.398.377zm-3.493 18.718c.234.108.396.252.288.396-.106.144-.18.522-.16.774.036.324-.072 1.008-.2 1.477-.18.684-.412 1.224-1.024 1.926-.288.31-.63.543-.774.543-.07 0-.09-.072 0-.234.037-.073.09-.146.146-.235.846-1.188.936-1.836 1.008-2.503.055-.413.072-.79.072-1.097 0-.307-.018-.56-.072-.72-.054-.163-.09-.27-.09-.36 0-.127.072-.18.252-.145.27.072.377.11.557.18zm1.728-.378c.2.162.326.27.29.396-.072.252-.162.468-.216 1.026-.02.233-.09 1.17-.09 1.944 0 .522.035.954.144 1.08.126.145.252.198.396.198.127 0 .252-.054.414-.09s.27-.055.38-.055c.143 0 .233.034.34.09.18.09.343.25.343.395 0 .09-.053.162-.196.216-.252.09-.738.163-1.207.163-.234 0-.45-.018-.63-.07-.18-.056-.54-.235-.648-.632-.037-.125-.055-.34-.055-.63v-.233c0-.81.054-1.962.054-2.683 0-.324 0-.558-.037-.666-.054-.163-.107-.36-.107-.523 0-.144.035-.233.18-.233.178 0 .52.216.646.306zM16.03 79.62c.542.095 1.135.263 1.775.503 2.288.832 3.976 1.367 5.064 1.607 1.086.24 2.23.36 3.43.36 1.2 0 2.21-.01 3.024-.024l2.184-.07c.463 0 .695.062.695.19 0 .224-.836.632-2.508 1.225-1.672.594-2.772.89-3.3.89-.256 0-.516-.036-.78-.11-.264-.07-1.353-.474-3.264-1.21-1.91-.736-3.415-1.344-4.51-1.824-1.096-.48-1.99-.72-2.688-.72-.696 0-1.548.256-2.556.77-.144.062-.288.095-.432.095-.32 0-.616-.146-.888-.443-.272-.296-.408-.512-.408-.647s.175-.205.527-.205.888-.092 1.608-.276c.72-.186 1.204-.277 1.452-.277s.508.008.78.023c-.08-.8-.296-1.52-.648-2.16-.273-.544-.41-1.052-.41-1.523s.077-.92.23-1.345c.15-.424.227-.673.227-.744 0-.072-.032-.108-.096-.108-.127 0-.455.136-.983.408-.128.063-.32.096-.576.096s-.568-.056-.936-.168c-.368-.11-.552-.228-.552-.348s.112-.212.336-.276c.975-.24 1.75-.567 2.327-.984.288-.207.528-.308.72-.3.192.01.536.16 1.032.456.495.297.743.564.743.804 0 .097-.048.2-.144.312-.77.85-1.153 1.632-1.153 2.352 0 .288.056.585.168.89.416 1.082.584 2.01.505 2.78zm.863-11.09c0 .288-.06.553-.18.792-.12.24-.308.36-.564.36s-.7-.464-1.334-1.392-.948-1.477-.948-1.645.103-.252.31-.252c.513 0 1.093.192 1.74.576s.973.904.973 1.56zm8.735 1.272c.288-.032.792-.14 1.512-.324s1.252-.275 1.596-.275c.344 0 .672.116.984.348.312.234.468.446.468.638s-.132.336-.396.433c-.264.097-.592.125-.984.085s-.82-.06-1.284-.06-1.096.04-1.896.12c.064 2.16.124 3.79.18 4.895.056 1.103.084 1.814.084 2.135 0 .848-.16 1.568-.48 2.16-.32.592-.584.888-.792.888-.208 0-.408-.12-.6-.36-.512-.624-1.088-1.248-1.728-1.872-.176-.174-.264-.302-.264-.382s.072-.12.216-.12.375.032.696.097c.32.063.596.096.828.096s.4-.067.504-.203.18-1.036.228-2.7c.048-1.664.064-3.15.048-4.464-1.024.192-2.265.44-3.72.744-.32.08-.644.12-.972.12s-.676-.108-1.044-.324-.552-.384-.552-.504.264-.197.792-.23c1.904-.16 3.736-.4 5.496-.72-.096-2.576-.376-4.2-.84-4.87-.16-.226-.24-.413-.24-.565s.124-.23.372-.23.696.13 1.344.385c.648.256.972.575.972.96 0 .144-.04.336-.12.575-.272.83-.408 2.008-.408 3.527zm-5.807 3.025c.306 0 .77.195 1.394.588.624.392.936.86.936 1.403 0 .288-.077.528-.23.72-.15.192-.3.29-.443.29s-.264-.04-.36-.12c-.096-.08-.268-.313-.516-.697s-.47-.794-.67-1.234c-.2-.44-.3-.708-.3-.804s.063-.143.19-.143zm32.257.023c.752 0 1.432.18 2.04.54.608.36.912.684.912.972 0 .353-.44.528-1.32.528-.24 0-.578-.023-1.01-.072-.43-.048-1.064-.07-1.896-.07-1.856 0-3.957.127-6.3.383s-4.42.594-6.228 1.01c-.336.08-.664.12-.984.12-.32 0-.76-.172-1.32-.516-.56-.345-.84-.637-.84-.876 0-.272.284-.38.852-.324s1.172.084 1.812.084c1.312 0 3.516-.2 6.612-.6 3.095-.4 5.023-.696 5.783-.89s1.39-.287 1.885-.287zm16.8-6.576c2.03 2.05 3.6 3.536 4.703 4.464 1.104.93 2.08 1.604 2.928 2.028.848.424 2.016.868 3.504 1.332.528.16.792.304.792.432 0 .05-.072.097-.216.145-.144.048-.68.1-1.608.156-.928.058-1.62.086-2.076.086s-.824-.052-1.104-.156c-.28-.105-.584-.31-.912-.613-.328-.304-1.26-1.352-2.796-3.144-1.536-1.792-2.688-3.2-3.456-4.225-1.088 1.97-2.38 3.748-3.876 5.34-1.497 1.593-2.853 2.732-4.068 3.42-1.216.69-1.976 1.032-2.28 1.032-.128 0-.192-.048-.192-.144s.104-.2.312-.312c1.728-1.056 3.38-2.495 4.956-4.32 1.576-1.823 2.672-3.363 3.288-4.62.616-1.255.892-2.1.828-2.53-.016-.112-.024-.21-.024-.29 0-.287.116-.43.348-.43.23 0 .608.143 1.128.43.52.29.78.553.78.793s-.16.425-.48.552c-.127.06-.288.254-.48.573zm-2.23 11.28c-1.09.144-1.838.256-2.246.336-.406.08-.78.12-1.114.12s-.716-.088-1.14-.264-.636-.324-.636-.444.235-.18.707-.18 1.836-.156 4.092-.47c2.254-.31 3.85-.582 4.786-.814.936-.23 1.588-.35 1.956-.35.368 0 .792.094 1.272.277.48.185.72.372.72.564 0 .302-.624.477-1.872.525-1.248.048-3.264.257-6.048.624.944.4 1.416.76 1.416 1.08 0 .16-.155.31-.467.443s-1.516 1.14-3.612 3.012c1.554-.224 3.818-.48 6.794-.768-.48-.8-.796-1.312-.948-1.536-.152-.223-.228-.38-.228-.467s.04-.133.12-.133c.224 0 .77.294 1.644.877.873.585 1.504 1.137 1.897 1.656.39.52.587 1.116.587 1.788s-.184 1.01-.552 1.01c-.176 0-.344-.092-.504-.275-.16-.185-.72-.996-1.68-2.437-1.89.288-3.504.616-4.85.984-1.342.37-2.254.705-2.734 1.01s-.812.455-.996.455c-.185 0-.35-.232-.493-.696s-.216-.776-.216-.936c0-.16.074-.292.218-.396.144-.104.512-.243 1.104-.42.29-.096.87-.647 1.74-1.656.873-1.007 1.31-1.774 1.31-2.303-.002-.078-.01-.15-.025-.214zm5.014-4.752c0 .128-.102.256-.31.384-.21.13-.864.312-1.97.552-1.102.24-2.042.36-2.82.36-.774 0-1.286-.067-1.534-.204-.248-.136-.372-.243-.372-.324 0-.128.144-.19.432-.19s.748-.07 1.38-.205c.632-.136 1.164-.276 1.596-.42 1.01-.336 1.737-.504 2.185-.504.448 0 .796.06 1.044.18s.37.245.37.373zm19.152-3.262c0 .127-.032.307-.096.54-.064.23-.144 1.055-.24 2.47s-.276 2.83-.54 4.237-.78 2.584-1.548 3.527c-.768.944-1.64 1.68-2.616 2.208-.976.528-1.584.792-1.824.792-.128 0-.192-.044-.192-.132s.104-.212.312-.372c2.032-1.424 3.38-2.884 4.044-4.38.664-1.496.996-3.748.996-6.756 0-1.488-.192-2.432-.576-2.832-.144-.16-.216-.312-.216-.456s.116-.216.348-.216.564.112.996.336.732.404.9.54.252.3.252.493zm11.737 7.294c.08 0 .14.196.18.588.04.393.12.916.24 1.572s.234 1.144.346 1.464.168.56.168.72c0 .48-.468.892-1.404 1.236-.935.344-2.05.516-3.347.516-1.296 0-2.264-.192-2.904-.576-.64-.384-1.126-.932-1.454-1.644s-.492-1.668-.492-2.868.036-2.9.108-5.1c.072-2.2.108-3.38.108-3.54 0-1.137-.11-1.845-.335-2.124-.224-.28-.336-.508-.336-.685 0-.176.13-.264.394-.264s.724.174 1.38.526c.656.352.984.688.984 1.008 0 .128-.045.26-.133.396-.088.138-.228.537-.42 1.2s-.364 1.91-.516 3.733c-.15 1.823-.228 3.224-.228 4.2 0 1.52.244 2.575.732 3.167.488.593 1.428.89 2.82.89.912 0 1.624-.113 2.136-.337.513-.225.88-.588 1.105-1.093.224-.504.448-1.38.672-2.628.048-.237.11-.358.192-.358zM16.25 60.852c-.347.378-.893.566-1.637.566-.216 0-.437-.023-.662-.072-.223-.048-.427-.126-.61-.233-.183-.108-.335-.25-.455-.423-.12-.175-.186-.388-.198-.64h.765c.007.14.05.255.13.352.082.096.18.174.298.233.117.06.245.104.383.13.14.028.27.04.397.04.252 0 .465-.042.64-.13.173-.086.317-.206.43-.36.115-.15.198-.336.25-.553.05-.216.076-.452.076-.71v-.307h-.018c-.132.288-.332.5-.6.635-.266.135-.55.202-.85.202-.348 0-.65-.062-.91-.188-.257-.126-.473-.296-.647-.51-.173-.212-.304-.46-.39-.746s-.13-.587-.13-.904c0-.276.035-.56.107-.85.072-.292.192-.556.36-.793s.39-.43.666-.583c.276-.153.615-.23 1.017-.23.294 0 .564.065.81.194.246.13.438.323.576.58h.01v-.665h.72v4.257c0 .764-.173 1.333-.522 1.712zm-.975-2.093c.177-.107.32-.245.428-.416s.188-.364.238-.58c.053-.217.08-.433.08-.648 0-.204-.025-.405-.073-.604-.048-.197-.125-.376-.23-.535-.104-.16-.24-.286-.41-.383-.167-.096-.37-.144-.61-.144-.247 0-.457.048-.63.14-.175.094-.317.22-.428.374-.11.156-.193.336-.244.54s-.077.417-.077.64c0 .21.02.42.062.63s.115.4.217.57.236.31.404.415c.168.102.378.155.63.155s.466-.052.643-.157zm5.872.778V58.8h-.018c-.164.288-.37.5-.623.635s-.55.202-.89.202c-.307 0-.563-.04-.766-.12-.203-.082-.37-.197-.494-.348-.126-.15-.214-.33-.266-.537-.05-.207-.075-.437-.075-.688v-3.06h.765v3.15c0 .287.084.515.252.683s.4.25.693.25c.234 0 .437-.034.607-.106s.313-.174.427-.307c.112-.132.2-.286.255-.463.057-.177.085-.37.085-.58v-2.63h.766v4.654h-.72zm1.863-3.28c.096-.298.24-.556.432-.775.192-.22.43-.392.71-.518.283-.126.607-.188.973-.188.372 0 .697.062.977.188s.514.3.707.518c.19.22.334.478.43.774.096.297.144.616.144.958s-.048.66-.144.954c-.095.292-.24.55-.43.77-.193.217-.43.39-.708.51-.28.124-.604.186-.977.186-.366 0-.69-.062-.972-.185-.282-.12-.52-.293-.71-.512s-.337-.477-.433-.77c-.096-.295-.144-.613-.144-.955s.05-.66.144-.958zm.78 1.71c.074.22.177.4.31.55.132.145.286.26.463.336.177.078.364.116.562.116.198 0 .385-.038.562-.116.177-.078.332-.19.463-.338.132-.146.235-.33.31-.55s.114-.47.114-.75c0-.282-.038-.533-.113-.752s-.177-.403-.31-.554-.286-.264-.462-.342c-.177-.078-.365-.117-.562-.117-.198 0-.386.04-.562.12-.177.077-.332.19-.463.34-.13.15-.235.336-.31.555-.075.22-.113.47-.113.75 0 .284.038.535.113.753zm-.023-5.36l1.26 1.46h.576l-.864-1.46h-.974zM60.937 60.16c-.09.227-.178.42-.265.575-.087.155-.183.283-.288.382-.105.1-.222.172-.35.217s-.28.067-.446.067c-.09 0-.18-.004-.27-.017-.09-.012-.177-.033-.26-.062v-.7c.065.03.142.055.228.075.087.02.16.032.22.032.157 0 .287-.038.392-.113s.185-.182.24-.32l.314-.782-1.845-4.625h.864l1.36 3.808h.02l1.304-3.808h.81l-2.026 5.274zm1.665-6.76h3.07v.495H62.6V53.4zm1.143 6.138v-4.653h.765v4.653h-.765zm3.13-6.426v2.457h.02c.06-.147.143-.268.25-.367.11-.1.23-.18.366-.242.137-.062.278-.11.425-.14s.29-.044.428-.044c.306 0 .56.042.765.126s.37.2.495.35c.126.15.214.33.266.537.05.206.076.436.076.687v3.06H69.2v-3.15c0-.288-.084-.516-.252-.684s-.4-.252-.693-.252c-.234 0-.436.037-.607.11-.17.07-.313.173-.427.305-.112.132-.2.286-.255.463-.057.177-.085.37-.085.58v2.628h-.766V53.11h.762zm7.445 6.426V58.8h-.02c-.16.288-.368.5-.62.635s-.55.202-.89.202c-.307 0-.563-.04-.766-.12-.204-.082-.37-.197-.495-.348-.128-.15-.216-.33-.268-.537-.05-.207-.076-.437-.076-.688v-3.06h.765v3.15c0 .287.085.515.253.683s.4.25.693.25c.234 0 .437-.034.607-.106s.313-.174.427-.307c.115-.132.2-.286.258-.463.057-.177.085-.37.085-.58v-2.63h.765v4.654h-.72zm2.123-5.472l-.927-1.287h.747l.62.89.63-.89h.694l-.927 1.285h-.837zm.036 5.472h.763v-4.653h-.765v4.653zm2.897-4.654v.98h.018c.186-.377.414-.656.684-.836.27-.18.61-.265 1.024-.252v.81c-.306 0-.567.042-.783.126-.215.084-.39.207-.52.37s-.23.357-.29.59c-.06.23-.09.495-.09.795v2.07h-.764v-4.653h.72zM204.227 58.88c-.128.064-.288.257-.48.576 2.032 2.05 3.6 3.536 4.704 4.464 1.106.93 2.08 1.604 2.93 2.028.85.424 2.017.868 3.505 1.332.528.16.792.304.792.432 0 .05-.072.097-.217.145-.145.048-.68.1-1.608.156-.928.056-1.62.084-2.076.084-.455 0-.824-.052-1.104-.156-.28-.102-.584-.306-.912-.61-.328-.304-1.26-1.352-2.796-3.144s-2.688-3.2-3.456-4.225c-1.088 1.97-2.38 3.75-3.876 5.34-1.497 1.594-2.853 2.733-4.068 3.42-1.216.69-1.976 1.033-2.28 1.033-.128 0-.19-.048-.19-.144s.103-.2.31-.313c1.73-1.056 3.38-2.495 4.956-4.32s2.672-3.363 3.288-4.62.892-2.1.828-2.53c-.017-.112-.024-.21-.024-.29 0-.287.116-.43.35-.43.23 0 .607.143 1.127.43s.777.553.777.793-.162.422-.48.55zm-5.832-36.863c.416 1.088.584 2.016.505 2.784.543.098 1.135.266 1.775.506 2.287.832 3.976 1.367 5.064 1.607 1.086.24 2.23.36 3.43.36 1.2 0 2.21-.01 3.023-.024l2.185-.07c.463 0 .695.06.695.19 0 .223-.837.63-2.508 1.224-1.673.59-2.772.888-3.3.888-.257 0-.517-.035-.78-.107-.265-.07-1.354-.476-3.265-1.212-1.912-.735-3.416-1.343-4.512-1.823-1.097-.48-1.992-.72-2.688-.72-.695 0-1.548.256-2.556.77-.144.062-.288.095-.433.095-.32 0-.614-.147-.887-.444-.272-.295-.407-.51-.407-.646s.176-.203.527-.203.89-.09 1.607-.275c.72-.183 1.205-.275 1.453-.275s.508.01.78.024c-.08-.8-.297-1.52-.65-2.16-.27-.545-.406-1.053-.406-1.524s.074-.92.227-1.345c.152-.423.23-.67.23-.742 0-.072-.033-.108-.097-.108-.13 0-.457.136-.984.408-.13.063-.32.096-.576.096s-.568-.057-.936-.17c-.37-.11-.552-.227-.552-.347s.113-.212.337-.276c.977-.24 1.752-.567 2.328-.984.288-.207.528-.308.72-.3.192.01.536.16 1.032.456.496.296.744.563.744.803 0 .097-.048.2-.144.312-.77.85-1.152 1.632-1.152 2.352.002.285.057.58.17.885zm12.55 20.016c.753 0 1.433.18 2.042.54.607.36.912.684.912.972 0 .353-.443.528-1.32.528-.24 0-.578-.024-1.01-.072-.433-.046-1.064-.07-1.896-.07-1.856 0-3.957.13-6.3.385s-4.42.592-6.23 1.008c-.335.08-.663.12-.982.12-.32 0-.76-.172-1.32-.517-.56-.344-.84-.636-.84-.876 0-.272.283-.38.852-.324.568.056 1.172.084 1.812.084 1.312 0 3.516-.2 6.61-.6 3.097-.4 5.025-.696 5.785-.89s1.39-.287 1.885-.287zm-9.262 44.688c0 .13-.032.31-.096.54-.064.233-.145 1.058-.24 2.474s-.275 2.828-.54 4.236c-.265 1.406-.78 2.583-1.548 3.526-.77.944-1.643 1.68-2.618 2.208-.976.528-1.584.792-1.823.792-.13 0-.193-.044-.193-.132s.104-.212.312-.372c2.03-1.424 3.38-2.884 4.044-4.38.663-1.496.995-3.748.995-6.756 0-1.488-.193-2.432-.576-2.832-.145-.16-.217-.312-.217-.456 0-.145.116-.216.348-.216.232 0 .564.112.996.336.434.224.733.404.9.54s.25.3.25.493zm-.145-15.766c0-.08-.008-.15-.023-.216-1.088.144-1.836.256-2.244.336s-.777.12-1.113.12-.717-.088-1.14-.264c-.425-.178-.637-.325-.637-.445s.234-.18.707-.18c.472 0 1.836-.156 4.092-.47 2.254-.31 3.85-.583 4.786-.814.937-.23 1.588-.347 1.956-.347.367 0 .792.093 1.27.276.48.184.722.37.722.563 0 .304-.625.48-1.873.527-1.246.047-3.263.256-6.046.623.943.4 1.416.76 1.416 1.08 0 .16-.155.31-.468.444-.312.136-1.516 1.14-3.61 3.012 1.55-.226 3.814-.48 6.79-.77-.48-.8-.795-1.31-.947-1.536s-.23-.38-.23-.468.04-.133.122-.133c.223 0 .77.293 1.644.876.874.584 1.505 1.136 1.898 1.655s.588 1.116.588 1.788-.184 1.008-.552 1.008c-.177 0-.345-.09-.504-.274-.16-.185-.72-.996-1.682-2.437-1.887.287-3.504.615-4.848.983s-2.256.704-2.736 1.008c-.48.305-.812.457-.995.457-.187 0-.35-.232-.494-.696s-.216-.775-.216-.935c0-.16.073-.292.217-.396.144-.105.512-.244 1.104-.42.29-.097.87-.648 1.74-1.657.874-1.005 1.31-1.773 1.31-2.3zm-1.775-57.24c0 .287-.06.552-.18.79-.12.24-.31.36-.564.36s-.7-.463-1.334-1.39-.947-1.478-.947-1.646.103-.252.31-.252c.513 0 1.093.192 1.74.576.647.387.97.907.97 1.562zm6.767 52.272c0 .128-.104.256-.312.384s-.864.31-1.968.55c-1.104.24-2.045.36-2.82.36-.776 0-1.288-.066-1.536-.203-.248-.136-.372-.243-.372-.324 0-.128.145-.19.432-.19.29 0 .748-.07 1.38-.205.633-.136 1.165-.276 1.597-.42 1.01-.336 1.738-.504 2.186-.504.448 0 .797.06 1.045.18s.37.243.37.37zm2.377-54.528c-.273.832-.408 2.01-.408 3.528.285-.032.79-.14 1.51-.324.72-.183 1.252-.274 1.596-.274s.672.116.984.348c.313.232.47.444.47.636s-.133.336-.397.433c-.264.096-.592.124-.984.084s-.82-.06-1.286-.06-1.096.04-1.896.12c.062 2.16.122 3.79.18 4.894.055 1.104.083 1.816.083 2.137 0 .848-.16 1.568-.48 2.16s-.583.888-.79.888c-.21 0-.41-.12-.6-.36-.513-.624-1.09-1.248-1.728-1.872-.177-.176-.264-.304-.264-.384s.07-.12.214-.12c.145 0 .376.033.696.098.32.063.597.096.828.096s.4-.068.504-.204.18-1.036.228-2.7c.05-1.664.064-3.15.05-4.464-1.025.192-2.266.44-3.722.744-.32.08-.644.12-.972.12s-.676-.108-1.044-.324-.552-.384-.552-.504.264-.196.792-.23c1.904-.158 3.735-.398 5.496-.72-.096-2.575-.377-4.2-.84-4.87-.16-.225-.24-.412-.24-.564s.123-.23.372-.23c.247 0 .696.13 1.344.385.647.257.972.576.972.96 0 .142-.04.334-.12.574zm-6.217 6.552c.305 0 .768.194 1.393.587.623.392.936.86.936 1.403 0 .288-.078.528-.23.72-.15.192-.3.29-.444.29s-.264-.04-.36-.12c-.096-.08-.268-.313-.516-.697s-.47-.796-.67-1.236c-.2-.44-.3-.708-.3-.804s.062-.144.19-.144zm10.537 76.366c.048-.24.112-.36.192-.36s.14.197.18.59.12.915.24 1.57c.117.657.234 1.145.346 1.465s.168.56.168.72c0 .48-.468.894-1.404 1.238-.935.344-2.05.516-3.347.516-1.296 0-2.264-.192-2.904-.576-.64-.384-1.126-.932-1.453-1.644-.328-.712-.492-1.668-.492-2.868s.035-2.9.107-5.1c.072-2.2.108-3.38.108-3.54 0-1.137-.11-1.845-.335-2.124-.224-.28-.336-.507-.336-.684 0-.176.13-.264.394-.264s.725.176 1.38.527c.656.353.984.688.984 1.01 0 .127-.045.26-.133.395-.088.137-.23.536-.42 1.2-.192.664-.364 1.908-.516 3.732-.15 1.823-.23 3.224-.23 4.2 0 1.52.245 2.575.733 3.167.487.593 1.428.89 2.82.89.91 0 1.623-.113 2.135-.337.51-.225.88-.588 1.103-1.093.226-.503.45-1.378.675-2.627zM218.015 17.26c-.378-.35-.566-.895-.566-1.64 0-.215.02-.436.07-.66.05-.226.126-.43.233-.613.108-.183.25-.335.423-.455.175-.12.388-.186.64-.198v.765c-.14.004-.255.047-.352.13-.096.08-.174.18-.233.295-.06.117-.103.245-.13.383-.027.137-.04.27-.04.395 0 .252.043.465.13.64.087.173.207.317.36.43.15.115.337.198.554.25.216.05.452.076.71.076h.307v-.018c-.287-.132-.5-.332-.634-.6-.135-.266-.202-.55-.202-.85 0-.348.062-.65.188-.91.126-.257.296-.473.51-.647.212-.174.46-.305.746-.392s.586-.13.903-.13c.277 0 .56.036.85.108.293.073.557.193.794.36s.433.39.585.667c.153.276.23.615.23 1.017 0 .294-.065.564-.194.81-.13.246-.322.438-.58.576v.01h.666v.72h-4.257c-.763 0-1.332-.173-1.71-.52zm2.092-.977c.105.177.243.32.414.428s.366.19.583.24c.216.05.432.077.647.077.203 0 .404-.024.603-.072.197-.048.376-.125.535-.23.16-.104.286-.24.383-.41.098-.167.146-.37.146-.61 0-.247-.047-.457-.14-.63-.093-.175-.218-.317-.373-.428-.156-.11-.336-.192-.54-.243s-.417-.077-.64-.077c-.21 0-.42.02-.63.063s-.4.113-.57.215-.31.237-.415.405c-.104.168-.157.378-.157.63s.054.466.158.643zm-.777 5.872h.737v-.018c-.288-.162-.5-.37-.635-.62s-.202-.55-.202-.892c0-.306.04-.562.12-.765.082-.204.197-.37.348-.495.15-.126.328-.214.535-.266.207-.053.437-.078.688-.078h3.063v.765h-3.15c-.288 0-.516.084-.684.252s-.253.4-.253.692c0 .234.035.437.107.607s.174.312.307.426c.133.114.287.2.464.257.177.057.37.085.58.085h2.63v.764h-4.654v-.72zm3.28 1.863c.296.096.554.24.773.432.22.192.392.43.518.71.128.283.19.607.19.973 0 .372-.062.697-.19.977-.124.28-.297.514-.516.707-.22.192-.478.336-.774.432-.298.094-.617.142-.96.142s-.66-.048-.953-.144c-.294-.097-.55-.24-.77-.433-.22-.192-.39-.428-.513-.707-.123-.28-.185-.604-.185-.977 0-.365.06-.69.183-.97.122-.28.294-.52.513-.71s.476-.337.77-.433c.294-.096.612-.144.954-.144s.662.048.96.144zm-1.71.78c-.22.074-.403.177-.55.31-.147.132-.26.286-.338.463-.078.18-.116.366-.116.564 0 .198.038.385.116.562.078.177.19.332.338.463.146.13.33.234.55.31s.47.113.75.113c.282 0 .533-.038.752-.113s.403-.18.554-.312.264-.287.342-.463c.078-.177.117-.365.117-.562 0-.198-.04-.386-.117-.562-.078-.175-.19-.33-.342-.46-.15-.133-.335-.237-.554-.31-.22-.077-.47-.115-.75-.115-.283 0-.534.038-.753.113zm5.36-.024l-1.46 1.26v.576l1.46-.864v-.972zM218.708 62.944c-.228-.09-.42-.178-.576-.265-.155-.09-.283-.185-.382-.29-.1-.105-.172-.223-.217-.35s-.067-.28-.067-.447c0-.09.006-.18.02-.27.01-.09.032-.178.06-.262h.703c-.03.067-.058.144-.078.23-.02.087-.032.16-.032.22 0 .157.04.287.114.393s.182.185.32.238l.782.316 4.626-1.845v.864l-3.808 1.36v.017l3.808 1.307v.81l-5.274-2.024zm.622 2.808h4.652v.766h-4.653v-.766zm6.137-1.142v3.068h-.495V64.61h.495zm.288 4.274h-2.457v.02c.145.06.266.143.365.25.1.108.18.23.242.365.063.133.11.274.14.42s.045.29.045.43c0 .305-.042.56-.126.764s-.2.37-.35.495c-.15.125-.33.214-.537.265s-.437.076-.688.076h-3.06v-.764h3.15c.286 0 .514-.084.682-.252s.252-.4.252-.693c0-.232-.036-.436-.108-.606-.07-.17-.174-.313-.306-.427-.13-.115-.285-.2-.462-.258-.178-.058-.37-.086-.58-.086h-2.63v-.765h6.427v.763zm-6.425 7.443h.737v-.018c-.288-.164-.5-.37-.635-.623s-.202-.55-.202-.89c0-.308.04-.563.12-.767.082-.202.197-.368.348-.493.15-.127.328-.215.535-.266s.437-.074.688-.074h3.063v.764h-3.15c-.288 0-.516.083-.684.25s-.253.4-.253.694c0 .234.035.438.107.607.072.174.174.316.307.43.133.114.287.2.464.257.177.057.37.085.58.085h2.63v.767h-4.654v-.72zm4.652 2.16v.766h-4.653v-.766h4.65zm.82.8l1.286.93v-.694l-.89-.63.89-.62v-.748l-1.287.928v.835zm-.82 2.098h-.98v.018c.377.187.656.414.836.685.18.27.265.612.252 1.026h-.81c0-.307-.042-.567-.126-.783-.084-.215-.207-.39-.37-.52s-.357-.23-.59-.29c-.23-.06-.495-.09-.795-.09h-2.07v-.764h4.65v.72z" fill="#231815"/></svg>