<svg xmlns="http://www.w3.org/2000/svg" viewBox="0 0 800 380"><path d="M113.918 232.065c-.064.064-.1.128-.127.16a1.513 1.513 0 0 0-.289.384c-.352.416-1.6 1.825-2.015 2.176.32.288.384.384.7.7a12.382 12.382 0 0 0 1.953-2.464l2.271 1.409c-.192.191-.192.191-.48.511a43.713 43.713 0 0 1-3.775 3.648c1.376-.064 1.568-.1 2.464-.16a8.021 8.021 0 0 0-.608-1.056l2.015-.8a20.039 20.039 0 0 1 2.016 4.319l-2.144.96a11.418 11.418 0 0 0-.384-1.311c-1.28.191-3.3.351-4.831.447a17.969 17.969 0 0 0-2.272.193l-1.12.416a14.88 14.88 0 0 0-.128 1.856c-.1 2.655-.768 4.319-2.176 5.5a11.281 11.281 0 0 1-3.648 1.76A7.191 7.191 0 0 0 99.551 248c2.3-.512 3.3-.928 4.032-1.76h-1.855a18.628 18.628 0 0 0-2.145.1 9.233 9.233 0 0 0 .1-1.728v-1.055a7.455 7.455 0 0 0-.129-1.633h2.912a5.228 5.228 0 0 0-.128 1.408v.512h1.984a7.225 7.225 0 0 0 .032-.8 9.462 9.462 0 0 0-.1-1.536h1.92c-.064-.288-.1-.384-.192-.736a98.041 98.041 0 0 1-6.016.479c-.511.033-.608.033-1.152.1l-.352-2.624a6.513 6.513 0 0 0 1.281.095c.991-.863 1.183-1.023 1.695-1.5a16.207 16.207 0 0 0-2.938-2.472l1.792-2.016a6.835 6.835 0 0 0 .575.447 12.183 12.183 0 0 0 1.376-1.984h-4.32v15.519a27.536 27.536 0 0 0 .192 3.9H94.4a28.607 28.607 0 0 0 .192-3.968v-21.082a36.475 36.475 0 0 0-.128-3.648 28.077 28.077 0 0 0 3.264.128h5.823a27.381 27.381 0 0 0 3.264-.128c-.064.864-.1 1.759-.1 3.007v3.584c0 1.313.032 2.048.1 2.785a39.03 39.03 0 0 0-2.944-.1h-.352l1.408.736a32.06 32.06 0 0 1-2.368 2.783c.256.225.352.353.672.673a12.427 12.427 0 0 0 1.824-2.4l2.272 1.375a2.978 2.978 0 0 0-.288.32 33.153 33.153 0 0 1-4 3.968c1.12-.064 1.376-.064 2.272-.128-.192-.48-.256-.641-.512-1.216l1.984-.768a23.974 23.974 0 0 1 1.568 3.935l-.288-1.951c.416.031.512.031.8.031.864-.735.991-.863 1.535-1.375a16.943 16.943 0 0 0-2.943-2.4l1.792-2.016.512.416a17.812 17.812 0 0 0 1.5-1.951c-1.056.031-1.76.031-2.336.1.032-.832.064-1.5.064-2.784v-3.617c0-1.248-.032-2.143-.1-3.007a27.727 27.727 0 0 0 3.264.128h6.271a29.064 29.064 0 0 0 3.3-.128 28.967 28.967 0 0 0-.16 3.648v21.215c0 1.663-.32 2.527-1.12 3.039a6.339 6.339 0 0 1-3.2.48c-.416 0-.512 0-2.208-.064a12.4 12.4 0 0 0-.8-3.3 25.332 25.332 0 0 0 2.784.224c1.024 0 1.216-.127 1.216-.864V231.33h-5.6zm-16-6.368h5.632v-1.183h-5.631zm0 3.361h5.632v-1.248h-5.631zm13.632 19.006a11 11 0 0 0 .159 2.4h-3.2a12.242 12.242 0 0 0 .16-2.4v-5.056a6.735 6.735 0 0 0-.128-1.5h3.136a6.925 6.925 0 0 0-.128 1.5v.961h2.176v-.609a5.732 5.732 0 0 0-.128-1.407h2.911a6.915 6.915 0 0 0-.128 1.631v1.216a12.008 12.008 0 0 0 .1 1.727 19.238 19.238 0 0 0-2.144-.1h-2.783zm.672-22.367h6.015v-1.183h-6.015zm0 3.361h6.015v-1.248h-6.015zM145.918 232.065c-.064.064-.1.128-.127.16a1.513 1.513 0 0 0-.289.384c-.352.416-1.6 1.825-2.015 2.176.32.288.384.384.7.7a12.382 12.382 0 0 0 1.953-2.464l2.271 1.409c-.192.191-.192.191-.48.511a43.713 43.713 0 0 1-3.775 3.648c1.376-.064 1.568-.1 2.464-.16a8.021 8.021 0 0 0-.608-1.056l2.015-.8a20.039 20.039 0 0 1 2.016 4.319l-2.144.96a11.418 11.418 0 0 0-.384-1.311c-1.28.191-3.295.351-4.831.447a17.969 17.969 0 0 0-2.272.193l-1.12.416a14.88 14.88 0 0 0-.128 1.856c-.1 2.655-.768 4.319-2.176 5.5a11.281 11.281 0 0 1-3.648 1.76 7.191 7.191 0 0 0-1.792-2.72c2.3-.512 3.3-.928 4.032-1.76h-1.855a18.628 18.628 0 0 0-2.145.1 9.233 9.233 0 0 0 .1-1.728v-1.055a7.455 7.455 0 0 0-.129-1.633h2.912a5.228 5.228 0 0 0-.128 1.408v.512h1.984a7.225 7.225 0 0 0 .032-.8 9.462 9.462 0 0 0-.1-1.536h1.92c-.064-.288-.1-.384-.192-.736a98.041 98.041 0 0 1-6.016.479c-.511.033-.608.033-1.152.1l-.352-2.624a6.513 6.513 0 0 0 1.281.095c.991-.863 1.183-1.023 1.695-1.5a16.207 16.207 0 0 0-2.943-2.462l1.792-2.016a6.835 6.835 0 0 0 .575.447 12.183 12.183 0 0 0 1.376-1.984h-4.32v15.519a27.536 27.536 0 0 0 .192 3.9H126.4a28.607 28.607 0 0 0 .192-3.968v-21.085a36.475 36.475 0 0 0-.128-3.648 28.077 28.077 0 0 0 3.264.128h5.823a27.381 27.381 0 0 0 3.264-.128c-.064.864-.1 1.759-.1 3.007v3.584c0 1.313.032 2.048.1 2.785a39.03 39.03 0 0 0-2.944-.1h-.352l1.408.736a32.06 32.06 0 0 1-2.368 2.783c.256.225.352.353.672.673a12.427 12.427 0 0 0 1.824-2.4l2.272 1.375a2.978 2.978 0 0 0-.288.32 33.153 33.153 0 0 1-4 3.968c1.12-.064 1.376-.064 2.272-.128-.192-.48-.256-.641-.512-1.216l1.984-.768a23.974 23.974 0 0 1 1.568 3.935l-.288-1.951c.416.031.512.031.8.031.864-.735.991-.863 1.535-1.375a16.943 16.943 0 0 0-2.943-2.4l1.792-2.016.512.416a17.812 17.812 0 0 0 1.5-1.951c-1.056.031-1.76.031-2.336.1.032-.832.064-1.5.064-2.784v-3.617c0-1.248-.032-2.143-.1-3.007a27.727 27.727 0 0 0 3.264.128h6.271a29.064 29.064 0 0 0 3.3-.128 28.967 28.967 0 0 0-.16 3.648v21.215c0 1.663-.32 2.527-1.12 3.039a6.339 6.339 0 0 1-3.2.48c-.416 0-.512 0-2.208-.064a12.4 12.4 0 0 0-.8-3.3 25.332 25.332 0 0 0 2.784.224c1.024 0 1.216-.127 1.216-.864V231.33h-5.6zm-16-6.368h5.632v-1.183h-5.632zm0 3.361h5.632v-1.248h-5.632zm13.632 19.006a11 11 0 0 0 .159 2.4h-3.2a12.242 12.242 0 0 0 .16-2.4v-5.056a6.735 6.735 0 0 0-.128-1.5h3.136a6.925 6.925 0 0 0-.128 1.5v.961h2.176v-.609a5.732 5.732 0 0 0-.128-1.407h2.911a6.915 6.915 0 0 0-.128 1.631v1.216a12.008 12.008 0 0 0 .1 1.727 19.238 19.238 0 0 0-2.144-.1h-2.783zm.672-22.367h6.015v-1.183h-6.015zm0 3.361h6.015v-1.248h-6.015zM181.566 245.984h2.144a19.275 19.275 0 0 0 3.168-.16v3.584a28.426 28.426 0 0 0-3.232-.16h-9.023v1.536h-3.488a23.784 23.784 0 0 0 .192-3.36v-11.807c0-1.12 0-1.888.064-2.56-.448.576-.64.8-1.216 1.44a9.532 9.532 0 0 0-1.248-2.048v10.463c.512-.16.8-.256 1.536-.543v3.231a77.021 77.021 0 0 1-10.911 3.295c-.7.161-1.28.321-1.856.512l-.64-3.775a21.37 21.37 0 0 0 1.792-.225v-18.622c0-1.823-.032-2.463-.1-3.519a16.751 16.751 0 0 0 2.4.129h5.471a17.339 17.339 0 0 0 2.4-.129c-.064.864-.1 1.536-.1 3.519v3.872a21.792 21.792 0 0 0 3.84-6.208 16.911 16.911 0 0 0 1.12-3.519l3.519.7c-.159.351-.159.351-.511 1.31-.353.9-.9 2.145-1.537 3.553h3.1a23.626 23.626 0 0 0 1.984-5.279l3.3.735a36.265 36.265 0 0 1-1.952 4.544h1.418a21.237 21.237 0 0 0 3.232-.192v3.456a21.058 21.058 0 0 0-3.232-.16h-1.632v3.359h1.632a13.524 13.524 0 0 0 2.624-.16v3.3a16.619 16.619 0 0 0-2.592-.129h-1.664v3.333h1.632a13.033 13.033 0 0 0 2.592-.16v3.3a17.131 17.131 0 0 0-2.624-.128h-1.6zm-15.807-15.615v-3.775h-3.712v3.775zm0 6.72v-3.743h-3.712v3.743zm-3.712 7.68a69.802 69.802 0 0 0 3.712-.929v-3.776h-3.712zm16.415-15.169h-3.839v3.359h3.839zm0 6.367h-3.839v3.333h3.839zm-3.839 6.336v3.679h3.839v-3.679zM192.448 224.354a18.123 18.123 0 0 0-.16-2.624h3.392a29.181 29.181 0 0 0-.16 3.967v2.017h2.08a17.249 17.249 0 0 0 2.144-.1c-.064.609-.1 1.313-.128 2.592l-.064 9.119c0 .16.1.257.32.257a.28.28 0 0 0 .288-.192 32.629 32.629 0 0 0 .192-3.455c0-.225 0-.512-.032-.928a16.2 16.2 0 0 0 1.856 1.279c-.192 4.256-.192 4.384-.48 5.119-.32.928-1.024 1.313-2.432 1.313-2.015 0-2.592-.416-2.592-1.825l.1-10.111h-1.281a52.337 52.337 0 0 1-.863 9.568 23.608 23.608 0 0 1-3.584 8.448 16.157 16.157 0 0 0-2.24-3.233 14.828 14.828 0 0 0 2.72-5.983 38.119 38.119 0 0 0 .832-6.432v-2.368a18.661 18.661 0 0 0-3.072.16v-3.391a17.866 17.866 0 0 0 2.944.16h.16zm10.463 19.134a20.922 20.922 0 0 1-2.336 7.039l-2.656-1.823a16.1 16.1 0 0 0 2.4-6.048zm3.616-19.711a11.7 11.7 0 0 0 .992-2.623l3.487.512c-.352.8-.7 1.5-1.024 2.111h3.264a24.759 24.759 0 0 0 3.1-.127c-.064.736-.1 1.408-.1 2.528v5.279c0 1.152.032 1.889.1 2.624a47.531 47.531 0 0 0-2.528-.063h-7.871v1.282h9.535a20.174 20.174 0 0 0 3.136-.16v2.847c-.96-.095-1.952-.127-3.136-.127h-9.535v1.34h9.887a22.531 22.531 0 0 0 2.528-.1c-.064.48-.16 1.568-.256 3.264-.416 6.848-1.184 8.192-4.64 8.192-.64 0-2.048-.065-3.008-.129a13.5 13.5 0 0 0-.608-3.135l-1.7.512a24.85 24.85 0 0 0-.832-4.481l2.3-.607a20.467 20.467 0 0 1 1.152 4.319l-.767.224a14.845 14.845 0 0 0 2.879.32c1.568 0 1.824-.7 2.048-5.6h-9.855c-1.376 0-1.632 0-2.5.065.064-.672.1-1.536.1-2.5v-13.5a18.108 18.108 0 0 0-.128-2.4 24.759 24.759 0 0 0 3.1.127zm-.256 19.264a28.475 28.475 0 0 1 .543 6.176l-3.007.479a17.51 17.51 0 0 0 .1-2.143 31.145 31.145 0 0 0-.224-4.032zm6.687-15.264v-1.408h-7.071v1.408zm-7.071 3.776h7.071v-1.471h-7.071zm6.655 10.88a10.863 10.863 0 0 1 1.376 3.007l-2.176.9a16.655 16.655 0 0 0-1.152-3.232zM246.622 225.186a28.047 28.047 0 0 0 3.84-.192v3.744a30.882 30.882 0 0 0-3.84-.193h-13.183a35.43 35.43 0 0 1-4.191 6.687v11.776a27.4 27.4 0 0 0 .159 3.712h-3.9a27.987 27.987 0 0 0 .193-3.712v-7.9a21.244 21.244 0 0 1-2.432 2.143 11.055 11.055 0 0 0-2.4-3.167 31.936 31.936 0 0 0 4.832-4.224c-.064-1.248-.064-1.248-.129-1.792h1.629a24.648 24.648 0 0 0 2.3-3.52h-3.9a30.528 30.528 0 0 0-3.84.193v-3.744a28.047 28.047 0 0 0 3.84.192h5.5a18.808 18.808 0 0 0 1.28-4.256l3.968.768a12.439 12.439 0 0 0-.512 1.281c-.256.767-.544 1.5-.832 2.207zm-1.056 10.271a23.4 23.4 0 0 0 3.424-.191v3.615a25.52 25.52 0 0 0-3.424-.16h-4v7.519h5.088a24.184 24.184 0 0 0 3.552-.191v3.68a31.243 31.243 0 0 0-3.584-.193h-12.8a27.875 27.875 0 0 0-3.584.193v-3.68a26.716 26.716 0 0 0 3.552.191h4.224v-7.519h-3.328a25.749 25.749 0 0 0-3.456.16v-3.615a23.1 23.1 0 0 0 3.424.191h3.36v-2.048a21.4 21.4 0 0 0-.161-3.327h3.873a19.976 19.976 0 0 0-.161 3.391v1.984zM255.168 229.058a34.71 34.71 0 0 1 5.823 4.159l-2.079 2.976a26.585 26.585 0 0 0-5.856-4.448zm5.695 11.039a49.08 49.08 0 0 1-4.575 10.4l-3.1-2.752c1.472-1.632 3.295-5.344 4.768-9.695zm-.96-11.679a29.311 29.311 0 0 0-5.663-4.576l2.208-2.464a36.215 36.215 0 0 1 5.215 3.84v-2.784a28.6 28.6 0 0 0 3.776.192h13.439a31.318 31.318 0 0 0 3.872-.192v3.648a19.326 19.326 0 0 0-2.3-.129v21.087c0 2.56-1.12 3.36-4.7 3.36-.639 0-2.431-.095-3.583-.192a10.624 10.624 0 0 0-.9-3.424 29.142 29.142 0 0 0 4.063.32c1.44 0 1.632-.1 1.632-.9v-20.251h-11.555c-1.44 0-2.688.065-3.679.16zm11.584.768c1.183 0 1.727-.033 2.5-.1a20.066 20.066 0 0 0-.128 2.655v8a19.767 19.767 0 0 0 .128 2.656 25.718 25.718 0 0 0-2.5-.095h-5.056v2.752h-3.424a29.056 29.056 0 0 0 .16-3.264v-10.08a20.8 20.8 0 0 0-.128-2.623c.768.063 1.376.1 2.528.1zm-5.056 10.014h4.069v-6.943h-4.064zM297.7 224.227a15.883 15.883 0 0 0-.192-2.721h4.032a16.153 16.153 0 0 0-.192 2.721v2.462h6.047a17.718 17.718 0 0 0 2.976-.16l1.984 2.241c-.224.288-.224.288-1.344 1.855a52.709 52.709 0 0 1-14.143 12.992c2.112 1.7 4.991 2.4 9.887 2.4a61.533 61.533 0 0 0 8.576-.639c-.608 1.567-.64 1.663-.768 2.047a10.956 10.956 0 0 0-.352 1.248c-.032.192-.128.448-.224.832-1.792.1-4.288.192-6.24.192-4.543 0-6.815-.288-8.927-1.089a10 10 0 0 1-6.336-5.982 22.482 22.482 0 0 1-4.031 7.743l-2.912-2.88a16.259 16.259 0 0 0 2.048-2.527 23.448 23.448 0 0 0 2.048-3.776 15.7 15.7 0 0 0 1.023-3.2h3.264a17.912 17.912 0 0 0 .8 2.785 42.525 42.525 0 0 0 6.624-4.96 33.027 33.027 0 0 0 5.247-5.7H291.3a31.844 31.844 0 0 0-3.9.193v-3.84a29.4 29.4 0 0 0 3.967.223h6.333zM318.88 229.313a27.11 27.11 0 0 1 5.023 3.968l-2.207 2.848a19.53 19.53 0 0 0-4.928-4.256zm4.7 10.976a41.058 41.058 0 0 1-3.839 10.238L316.9 248.1c1.472-1.824 2.784-5.088 3.968-9.759zm-3.711-18.848a25.376 25.376 0 0 1 5.215 4.256l-2.367 2.689a21.038 21.038 0 0 0-5.12-4.544zm7.711 8.577c-.384 4.383-.7 6.015-1.824 8.927l-2.847-1.312a17.734 17.734 0 0 0 1.887-8.223zm5.536-.641a35.555 35.555 0 0 1 1.792 4.736v-7.967a21.941 21.941 0 0 0-.161-3.457h3.521a23.548 23.548 0 0 0-.161 3.424v4.256l1.728-.9a22.749 22.749 0 0 1 2.208 4.8v-8.859a21.651 21.651 0 0 0-.192-3.744h3.712a23.531 23.531 0 0 0-.192 3.712v21.214a30.946 30.946 0 0 0 .192 3.969h-3.712a28.634 28.634 0 0 0 .192-3.969v-9.6l-1.952 1.056a28.048 28.048 0 0 0-1.984-5.791v13.215a28.463 28.463 0 0 0 .192 3.647h-3.583a29.9 29.9 0 0 0 .192-3.647v-8.064l-1.888.991a36.162 36.162 0 0 0-1.728-6.079 41.456 41.456 0 0 1-1.376 11.583 17.947 17.947 0 0 1-1.952 4.256 18.767 18.767 0 0 1-2.08 2.688 8.672 8.672 0 0 0-2.623-2.656 13.34 13.34 0 0 0 3.327-5.248c1.024-2.88 1.44-6.3 1.44-12.094v-5.472a31.059 31.059 0 0 0-.192-3.776h3.616a33.12 33.12 0 0 0-.16 3.712v4.864zM105.6 297.023c-.192-.7-.256-.927-.416-1.5-2.464.544-3.168.672-9.087 1.5-.928.129-1.28.194-1.92.321l-.9-3.615c.608.031.8.031 1.024.031.1 0 .16 0 .96-.031 1.888-1.825 1.888-1.825 3.007-3.041a38.152 38.152 0 0 0-4.8-4.991l2.272-2.24 1.312 1.313a21.375 21.375 0 0 0 3.232-4.352 19.64 19.64 0 0 1-3.681 1.215 10.811 10.811 0 0 0-1.759-2.783c4.672-.641 7.2-1.985 8.351-4.481H97.6v3.264h-3.456a13.048 13.048 0 0 0 .16-2.4v-1.7a15.093 15.093 0 0 0-.128-2.239 35.285 35.285 0 0 0 3.552.128h8.127v-.222a13.2 13.2 0 0 0-.16-2.016h3.936a12.777 12.777 0 0 0-.16 1.984v.256h8.929c1.536 0 2.56-.031 3.552-.128a13.67 13.67 0 0 0-.128 2.176v1.792a13.583 13.583 0 0 0 .16 2.463h-2.528a2.156 2.156 0 0 1-1.568 1.6 14.545 14.545 0 0 1-4.095.287c-4.288 0-4.96-.256-4.96-1.855v-3.393h-2.464a9.274 9.274 0 0 1-5.088 5.569l2.3 1.343a20.784 20.784 0 0 0-1.312 1.729 37.282 37.282 0 0 1-3.2 3.935c.737.864.865.992 1.248 1.471a27.722 27.722 0 0 0 3.712-5.343l2.816 2.048a33.784 33.784 0 0 0-2.5 3.168 56.441 56.441 0 0 1-4.671 5.119 51.439 51.439 0 0 0 4.607-.672 22.029 22.029 0 0 0-1.152-2.591l2.688-.9a31.838 31.838 0 0 1 2.112 5.12c1.984-1.983 2.815-4.063 3.264-8.031h-1.216a22.151 22.151 0 0 0-2.816.16v-3.424a19.618 19.618 0 0 0 3.1.159h1.12v-.7a14.075 14.075 0 0 0-.128-2.271h3.455a14.363 14.363 0 0 0-.159 2.974h4.063a26.212 26.212 0 0 0 3.136-.159 28.573 28.573 0 0 0-.192 3.648 77.14 77.14 0 0 1-.736 7.871c-.32 1.664-.672 2.368-1.408 2.881a5.164 5.164 0 0 1-2.944.638 24.852 24.852 0 0 1-2.751-.159 12.163 12.163 0 0 0-.8-3.456 16.025 16.025 0 0 0 3.2.448c.928 0 1.312-.32 1.568-1.408a42.95 42.95 0 0 0 .672-7.2H114.4a20.331 20.331 0 0 1-1.567 6.624 13.8 13.8 0 0 1-4.576 5.631 9.14 9.14 0 0 0-1.792-1.92zm6.432-20.734c0 .608.223.672 1.984.672 2.431 0 2.463-.031 2.559-1.856a8.119 8.119 0 0 0 1.952.8v-1.537h-6.495zM138.335 280.674a23.169 23.169 0 0 0-.16 2.815c-.064 3.743-.32 5.568-1.024 7.552a10.59 10.59 0 0 1-4.9 5.823 18.79 18.79 0 0 1-4.863 1.888 12.249 12.249 0 0 0-2.144-3.264 12.612 12.612 0 0 0 6.432-2.336 6.447 6.447 0 0 0 2.079-2.559 59.4 59.4 0 0 1-5.823 1.76 10.228 10.228 0 0 0-1.248.383l-1.024-3.424a38.466 38.466 0 0 0 9.087-1.984 23.98 23.98 0 0 0 .224-3.9 16.029 16.029 0 0 0-.16-2.752zm-.544-9.408a8.968 8.968 0 0 0-.192-2.016h4a9.04 9.04 0 0 0-.16 1.984v.384h9.023a34.189 34.189 0 0 0 3.488-.128 18.1 18.1 0 0 0-.1 2.176v1.824a13.226 13.226 0 0 0 .16 2.432h-2.368c-.256.992-.48 1.408-1.056 1.664-.672.352-2.208.512-5.12.512-2.143 0-3.263-.129-3.839-.449a1.967 1.967 0 0 1-.832-1.856v-3.2h-2.3a8.219 8.219 0 0 1-2.912 4.287 15.822 15.822 0 0 1-5.983 2.881 32.572 32.572 0 0 1 4.447 3.263l-2.08 2.5a21.889 21.889 0 0 0-5.151-3.776l1.632-1.823a10.849 10.849 0 0 0-1.792-2.721c4.895-.7 7.359-2.08 8.319-4.607h-5.6v3.263h-3.423a13.059 13.059 0 0 0 .16-2.4v-1.73a19.331 19.331 0 0 0-.1-2.24 33.781 33.781 0 0 0 3.487.128h8.288zm14.879 20.607a9.573 9.573 0 0 0 2.016.575c-.192 2.816-.576 4.032-1.408 4.8-.768.7-2.368.928-6.208.928-2.719 0-4.256-.224-5.119-.768-.608-.385-.864-1.056-.864-2.271v-11.52a20.651 20.651 0 0 0-.16-2.943h3.552a14.455 14.455 0 0 0-.161 2.592v10.814c0 .832.513.992 3.3.992 3.2 0 3.52-.16 3.776-2.08a37.836 37.836 0 0 0-6.528-3.552l1.664-2.239-1.728-2.336a17.756 17.756 0 0 0 5.792-4l2.336 2.624a30.706 30.706 0 0 1-5.856 3.68 47.8 47.8 0 0 1 6.464 3.136zM144 276.9c0 .544.288.64 2.175.64 2.24 0 2.368-.1 2.368-2.143a7.922 7.922 0 0 0 2.048.735v-1.535H144zM163.295 288.129a41.417 41.417 0 0 1-2.623 8.159c-.193.448-.32.735-.576 1.28-.16.352-.16.352-.288.64l-2.912-2.3c1.376-1.855 2.624-5.055 3.744-9.567zm-1.471-4.065a20.721 20.721 0 0 0-4.864-4.1l2.016-2.528a26.962 26.962 0 0 1 4.863 3.808v-1.7a15.109 15.109 0 0 0 3.072.192h1.216v-7.263a18.134 18.134 0 0 0-.192-2.912h3.584a18.245 18.245 0 0 0-.16 2.848v1.088h.96a14.337 14.337 0 0 0 2.72-.16v3.359a22.614 22.614 0 0 0-2.784-.127h-.9v3.167h2.592a13.732 13.732 0 0 0 2.272-.128v3.328a12.535 12.535 0 0 0-2.176-.129H171.9v12.416c0 1.536-.16 2.08-.736 2.5a4.377 4.377 0 0 1-2.56.511c-.384 0-.384 0-2.4-.1a9.985 9.985 0 0 0-.7-3.264 8.442 8.442 0 0 0-2.56-1.185 25.8 25.8 0 0 0 1.856-9.119l2.848.672a42.184 42.184 0 0 1-1.792 9.695 14.973 14.973 0 0 0 2.08.224c.576 0 .768-.16.768-.64v-11.701h-1.792a15.652 15.652 0 0 0-3.072.194v-1.569zm-1.761-14.558a25.364 25.364 0 0 1 5.056 4.191l-2.271 2.689a21.187 21.187 0 0 0-5.088-4.544zm15.137 15.167c.384 1.248.575 1.983.96 3.712.031.16.223 1.279.575 3.391l-2.719 1.088a38.977 38.977 0 0 0-1.344-7.583zm8.447-13.439a14.831 14.831 0 0 0 2.656-.16c-.064.576-.064.576-.192 2.08-.192 2.56-.64 6.272-1.024 8.255a32.044 32.044 0 0 1-2.432 7.68 18.357 18.357 0 0 0 4.928 5.888 18.316 18.316 0 0 0-1.856 3.647 30.034 30.034 0 0 1-4.832-6.239 25.8 25.8 0 0 1-5.151 6.207 9.551 9.551 0 0 0-2.3-2.783 18.928 18.928 0 0 0 5.791-6.817 48.1 48.1 0 0 1-2.976-13.535l2.88-.959a50.3 50.3 0 0 0 1.76 10.5 41.164 41.164 0 0 0 1.728-10.591h-4.256a20.181 20.181 0 0 0-2.687.127v-3.455a18.2 18.2 0 0 0 2.88.16zM215.358 298.784a61.91 61.91 0 0 0-9.279-6.239 22.393 22.393 0 0 1-6.912 4.1 33.817 33.817 0 0 1-7.871 1.92 12.869 12.869 0 0 0-1.7-3.457 27.13 27.13 0 0 0 7.871-1.664 24.691 24.691 0 0 0 5.216-2.688 57.668 57.668 0 0 0-6.112-2.655c-.512.7-.575.8-1.119 1.567a31.727 31.727 0 0 0-3.584-1.535 39.582 39.582 0 0 0 5.535-8.8h-4a29.844 29.844 0 0 0-3.776.191v-3.714a31.059 31.059 0 0 0 3.776.192h5.439a36.127 36.127 0 0 0 2.016-6.688l4.16.577a20.362 20.362 0 0 0-.8 2.239 87.483 87.483 0 0 1-1.344 3.872h11.967a29.282 29.282 0 0 0 3.776-.192v3.711a29.951 29.951 0 0 0-3.68-.191h-1.76a23.939 23.939 0 0 1-4.576 10.494 74.8 74.8 0 0 1 9.312 5.889zM201.5 279.33a52.032 52.032 0 0 1-3.072 5.856 62.064 62.064 0 0 1 6.944 2.974 18.83 18.83 0 0 0 4.063-8.83zM246.686 281.377a28.066 28.066 0 0 0 .128 3.264c-.672-.064-1.408-.1-3.04-.1h-11.039a23.121 23.121 0 0 1-1.312 2.367h13.439a20.245 20.245 0 0 0 2.88-.127c-.064.672-.1 1.472-.1 2.912v5.535a27.706 27.706 0 0 0 .16 3.52h-3.552v-1.44h-12.763v1.44h-3.551a27.168 27.168 0 0 0 .191-3.455v-4.16a29.566 29.566 0 0 1-4.991 4.191 12.2 12.2 0 0 0-2.112-3.072 20.721 20.721 0 0 0 8.159-7.711h-1.791c-1.537 0-2.336.032-3.488.128v-3.3a25.576 25.576 0 0 0 3.455.16h3.2a19.814 19.814 0 0 0 .736-2.5h-6.079a28.423 28.423 0 0 0-3.52.192v-3.456a23.169 23.169 0 0 0 3.52.193h6.684c.128-.929.16-1.281.256-2.433h-4.223a26.529 26.529 0 0 0-3.457.16v-3.39a30.516 30.516 0 0 0 3.712.191h15.263c1.824 0 2.464-.032 3.36-.1a27.8 27.8 0 0 0-.128 3.232v2.336h1.12a18.126 18.126 0 0 0 2.88-.193v3.456a19.284 19.284 0 0 0-2.912-.192h-1.088zm-15.2 12.832h12.767v-4.289h-12.766zm3.232-15.168a20.453 20.453 0 0 1-.736 2.5h9.279v-2.5zm8.543-3.071v-2.433h-7.711c-.1 1.152-.16 1.664-.256 2.433zM266.527 280.481c0-1.024-.032-1.7-.1-2.432h1.673a28.063 28.063 0 0 0 5.44-4.1h-12.772a31.64 31.64 0 0 0-3.872.193v-3.772a31.452 31.452 0 0 0 3.839.192h14.5a13.163 13.163 0 0 0 2.784-.16l2.08 2.336c-.832.768-.832.768-3.008 2.848a43.687 43.687 0 0 1-6.815 4.928v1.375h7.839a35.836 35.836 0 0 0 4.352-.192v3.871a39.551 39.551 0 0 0-4.352-.191h-7.839v9.344c0 2.815-1.088 3.519-5.344 3.519-.64 0-1.28-.032-3.584-.129a12.921 12.921 0 0 0-.991-3.839 28.1 28.1 0 0 0 4.639.384c1.312 0 1.536-.128 1.536-.832v-8.447h-8.608a41.2 41.2 0 0 0-4.351.191V281.7a38.819 38.819 0 0 0 4.448.192h8.511zM296.735 295.936a35.506 35.506 0 0 0-3.168-3.264 21.418 21.418 0 0 1-6.047 5.952 17.389 17.389 0 0 0-2.3-2.976 17.375 17.375 0 0 0 5.727-5.215 39.439 39.439 0 0 0-4.895-3.424 53.806 53.806 0 0 0 2.784-8.64h-.769a17.145 17.145 0 0 0-2.3.16v-3.455a14.192 14.192 0 0 0 2.816.192h.9a42.216 42.216 0 0 0 .672-5.76v-.352l3.775.287a14.782 14.782 0 0 0-.352 2.049 72.633 72.633 0 0 1-.64 3.776h2.784a21.252 21.252 0 0 0 2.688-.128c-.032.639-.032.639-.128 1.952a34.051 34.051 0 0 1-2.912 12.478 36.289 36.289 0 0 1 3.584 3.264zm-4.48-17.567c-.1.481-.1.481-.352 1.441a60.822 60.822 0 0 1-1.759 5.855c1.279.864 1.759 1.216 2.527 1.76a25.98 25.98 0 0 0 2.3-9.056zm16.031 16.671c0 2.815-.832 3.456-4.384 3.456-.927 0-1.919-.032-3.327-.128a12.165 12.165 0 0 0-.864-3.616 27.169 27.169 0 0 0 3.616.352c1.119 0 1.376-.1 1.376-.608v-8.575h-3.232a24.726 24.726 0 0 0-3.264.192v-3.648a18.227 18.227 0 0 0 3.168.16h3.325v-1.088a23.1 23.1 0 0 0-.192-3.039h1.28a18.233 18.233 0 0 0 3.807-4.352h-7.1c-1.28 0-2.5.064-3.456.16v-3.648a24.615 24.615 0 0 0 3.552.192h7.391a14.18 14.18 0 0 0 2.784-.161l1.76 2.241a5.821 5.821 0 0 0-.64.767 37.673 37.673 0 0 1-5.6 6.657v2.271h3.9a21.941 21.941 0 0 0 3.168-.191v3.679a22.574 22.574 0 0 0-3.168-.192h-3.9zM324.8 292.225c.288.255.513.416.64.544a6.376 6.376 0 0 0 2.944 1.631c1.472.416 3.424.544 7.263.544a101.742 101.742 0 0 0 11.68-.576 14.407 14.407 0 0 0-.992 3.616c-3.1.192-5.28.224-10.943.224a30.26 30.26 0 0 1-7.584-.576 6.451 6.451 0 0 1-3.488-1.919 2.171 2.171 0 0 0-1.119-.705c-.416 0-.992.48-1.888 1.568-.128.16-.64.832-1.536 1.985l-2.5-2.881 1.472-1.471a12.634 12.634 0 0 1 2.815-2.177v-7.2h-1.951a9.308 9.308 0 0 0-2.048.16v-3.456a11.792 11.792 0 0 0 2.464.16h2.559a16.511 16.511 0 0 0 2.336-.128 27.236 27.236 0 0 0-.128 3.136zm-5.023-22.239a29.23 29.23 0 0 1 5.279 4.032l-2.143 2.752a21.641 21.641 0 0 0-5.152-4.288zm14.335 16.319a41.278 41.278 0 0 1-5.984 4c-.576.32-.9.544-1.312.8l-1.44-3.295a26.168 26.168 0 0 0 7.648-4.32zm4.127-6.3c.9.8.992.863 1.632 1.5a17 17 0 0 0 3.264-4.256l2.656 2.047c-.352.416-.352.416-.7.8a31.049 31.049 0 0 1-3.2 3.423 99.063 99.063 0 0 1 5.12 5.7l-2.56 2.752a98.9 98.9 0 0 0-6.88-8.512v7.264c0 1.439-.224 2.048-.863 2.464-.672.416-1.473.544-3.584.544-.96 0-1.472-.033-2.528-.1a8.947 8.947 0 0 0-.832-3.233 24.961 24.961 0 0 0 3.2.321c1.12 0 1.375-.128 1.375-.768v-12.99h-5.279a26.818 26.818 0 0 0-3.488.192v-3.583a26.955 26.955 0 0 0 3.648.192h5.119v-1.344a19.767 19.767 0 0 0-.191-3.168h3.615a20.144 20.144 0 0 0-.192 3.136v1.376h4.352a19.449 19.449 0 0 0-3.04-2.5l2.176-1.888a26.754 26.754 0 0 1 3.744 3.136l-1.536 1.248a24.724 24.724 0 0 0 3.264-.192v3.583a26.673 26.673 0 0 0-3.68-.192h-5.28v2.433zm-9.439-2.656a31.493 31.493 0 0 1 4 4.767l-2.56 2.016a19.816 19.816 0 0 0-3.9-4.928z"/><path d="M134.15 317.531a12.494 12.494 0 0 0-.128 2.049v8.627a12.667 12.667 0 0 0 .128 2.064h-2.385a12.162 12.162 0 0 0 .129-2.064v-3.617h-6.435v3.617a12.55 12.55 0 0 0 .128 2.064H123.2a12.057 12.057 0 0 0 .128-2.064V319.6a12.2 12.2 0 0 0-.128-2.065h2.385a13.118 13.118 0 0 0-.128 2.049v3.089h6.435V319.6a12.069 12.069 0 0 0-.129-2.065zM138.626 317.531v2.033h-2.353v-2.033zm-.016 3.553a14.582 14.582 0 0 0-.111 2.1v4.994a16.241 16.241 0 0 0 .111 2.1h-2.337a14.217 14.217 0 0 0 .129-2.08v-5.026a13.034 13.034 0 0 0-.129-2.081zM146.756 323.1a4.746 4.746 0 0 0-1.424-.256 2.287 2.287 0 0 0-1.857.783 2.587 2.587 0 0 0-.657 1.6v2.961a16.8 16.8 0 0 0 .113 2.08h-2.289a17.542 17.542 0 0 0 .111-2.08v-5.026a12.679 12.679 0 0 0-.111-2.081h2.176v1.5a3.064 3.064 0 0 1 3.01-1.681 8.391 8.391 0 0 1 1.488.176zM154.564 329.232a3.468 3.468 0 0 1-1.7 1.008 5.661 5.661 0 0 1-1.488.192c-1.953 0-3.137-1.008-3.137-2.689a2.84 2.84 0 0 1 1.808-2.593 12.116 12.116 0 0 1 4.514-.64v-.817c0-.927-.624-1.408-1.841-1.408a2.887 2.887 0 0 0-1.664.464 1.739 1.739 0 0 0-.641 1.024l-2.048-.368a3.343 3.343 0 0 1 1.264-1.776 4.794 4.794 0 0 1 3.057-.817 4.161 4.161 0 0 1 3.154.945 2.689 2.689 0 0 1 .752 2.209v4.305a12.86 12.86 0 0 0 .128 2h-2.161zm0-3.33c-3.057.065-4.257.592-4.257 1.841 0 .753.56 1.216 1.456 1.216a3.247 3.247 0 0 0 2.225-.848 1.907 1.907 0 0 0 .576-1.408zM160.034 330.641a2.711 2.711 0 0 0 2.481 1.216 2.877 2.877 0 0 0 2.625-1.2 4.364 4.364 0 0 0 .416-2.129 3.642 3.642 0 0 1-3.137 1.457c-2.545 0-4.178-1.745-4.178-4.482 0-2.77 1.681-4.562 4.274-4.562a3.375 3.375 0 0 1 3.057 1.41 3.881 3.881 0 0 1-.032-.53v-.736h2.145a14.9 14.9 0 0 0-.112 2v5.361c0 1.921-.416 3.154-1.344 3.938a6.047 6.047 0 0 1-3.778 1.024 4.643 4.643 0 0 1-4.018-1.665zm1.04-2.881a2.46 2.46 0 0 0 1.7.719 2.68 2.68 0 0 0 2.226-1.264 3.389 3.389 0 0 0 .448-1.824 2.949 2.949 0 0 0-.961-2.37 2.418 2.418 0 0 0-1.552-.576c-1.6 0-2.593 1.2-2.593 3.106a3.094 3.094 0 0 0 .732 2.209zM172.05 317.531v2.033h-2.35v-2.033zm-.016 3.553a14.412 14.412 0 0 0-.112 2.1v4.994a16.046 16.046 0 0 0 .112 2.1H169.7a14.361 14.361 0 0 0 .128-2.08v-5.026a13.164 13.164 0 0 0-.128-2.081zM174.033 330.271a13.264 13.264 0 0 0 .128-2.08v-5.026a13.164 13.164 0 0 0-.128-2.081h2.177v.849a6.252 6.252 0 0 1-.032.688 3.659 3.659 0 0 1 3.265-1.7 3.16 3.16 0 0 1 2.721 1.185 3.559 3.559 0 0 1 .544 2.241v3.841a12.628 12.628 0 0 0 .128 2.08h-2.32a16.99 16.99 0 0 0 .111-2.08v-3.553a2.632 2.632 0 0 0-.272-1.409 1.5 1.5 0 0 0-1.344-.656c-1.153 0-2.1.8-2.8 2.385v3.233a14.218 14.218 0 0 0 .128 2.08zM184.417 325.694a4.755 4.755 0 1 1 9.508-.032c0 2.961-1.873 4.914-4.722 4.914a4.5 4.5 0 0 1-4.786-4.882zm2.064 0c0 1.969 1.025 3.185 2.69 3.185s2.689-1.2 2.689-3.152c0-2.065-.977-3.25-2.673-3.25s-2.706 1.216-2.706 3.217zM202.882 326.3a2.293 2.293 0 0 0 .448 1.408 2.841 2.841 0 0 0 2.337.944c1.6 0 2.561-.719 2.561-1.921a1.625 1.625 0 0 0-.8-1.472 10.1 10.1 0 0 0-2.785-.783 5.692 5.692 0 0 1-2.417-.977 3.152 3.152 0 0 1-1.233-2.594c0-2.224 1.793-3.666 4.546-3.666a4.719 4.719 0 0 1 3.985 1.617 4.323 4.323 0 0 1 .785 1.858l-2.289.271a2.067 2.067 0 0 0-.48-1.136 2.53 2.53 0 0 0-2-.768c-1.393 0-2.337.7-2.337 1.744a1.523 1.523 0 0 0 1.088 1.457 13.569 13.569 0 0 0 2.257.576 7.041 7.041 0 0 1 2.609.977 3.16 3.16 0 0 1 1.329 2.753 3.727 3.727 0 0 1-1.008 2.721 5.31 5.31 0 0 1-3.826 1.216 6.424 6.424 0 0 1-3.361-.833 3.758 3.758 0 0 1-1.409-1.824 5.469 5.469 0 0 1-.3-1.328zM218.371 329.232a3.47 3.47 0 0 1-1.7 1.008 5.674 5.674 0 0 1-1.489.192c-1.953 0-3.137-1.008-3.137-2.689a2.84 2.84 0 0 1 1.808-2.593 12.12 12.12 0 0 1 4.514-.64v-.817c0-.927-.624-1.408-1.841-1.408a2.887 2.887 0 0 0-1.664.464 1.739 1.739 0 0 0-.64 1.024l-2.049-.368a3.343 3.343 0 0 1 1.264-1.776 4.8 4.8 0 0 1 3.058-.817 4.16 4.16 0 0 1 3.153.945 2.689 2.689 0 0 1 .752 2.209v4.305a12.86 12.86 0 0 0 .128 2h-2.161zm0-3.33c-3.057.065-4.258.592-4.258 1.841 0 .753.561 1.216 1.457 1.216a3.247 3.247 0 0 0 2.225-.848 1.907 1.907 0 0 0 .576-1.408zM222.433 330.271a13.264 13.264 0 0 0 .128-2.08v-5.026a13.164 13.164 0 0 0-.128-2.081h2.177v.849a6.252 6.252 0 0 1-.032.688 3.659 3.659 0 0 1 3.265-1.7 3.16 3.16 0 0 1 2.721 1.185 3.559 3.559 0 0 1 .544 2.241v3.841a12.628 12.628 0 0 0 .128 2.08h-2.32a16.99 16.99 0 0 0 .111-2.08v-3.553a2.632 2.632 0 0 0-.272-1.409 1.5 1.5 0 0 0-1.344-.656c-1.153 0-2.1.8-2.8 2.385v3.233a14.218 14.218 0 0 0 .128 2.08zM234.993 327.391c.272 1.088.864 1.521 2.113 1.521 1.185 0 1.921-.465 1.921-1.217a.975.975 0 0 0-.417-.8c-.3-.208-.4-.224-1.68-.512a9.721 9.721 0 0 1-2.305-.689 2.291 2.291 0 0 1-1.409-2.129 2.394 2.394 0 0 1 .5-1.489 3.864 3.864 0 0 1 3.2-1.248 4.362 4.362 0 0 1 3.009.929 3.118 3.118 0 0 1 .865 1.585l-2.113.271c-.176-.881-.721-1.263-1.761-1.263-.993 0-1.665.447-1.665 1.119a.864.864 0 0 0 .5.753 6.739 6.739 0 0 0 1.6.48 6.893 6.893 0 0 1 2.817.976 2.275 2.275 0 0 1 .929 1.985 2.574 2.574 0 0 1-.785 1.809 4.724 4.724 0 0 1-3.313 1.04 4.231 4.231 0 0 1-3.57-1.424 3.611 3.611 0 0 1-.624-1.425zM259.044 326.383a6.113 6.113 0 0 1-1.072 2.4 5.448 5.448 0 0 1-4.37 1.745 5.508 5.508 0 0 1-4.114-1.536 8.094 8.094 0 0 1 .129-10.2 5.562 5.562 0 0 1 4-1.52 5.664 5.664 0 0 1 3.073.768 4.909 4.909 0 0 1 1.7 1.745 5.681 5.681 0 0 1 .5 1.233l-2.225.512a3.332 3.332 0 0 0-.688-1.377 2.9 2.9 0 0 0-2.337-.992c-2.273 0-3.649 1.776-3.649 4.722 0 2.928 1.408 4.754 3.649 4.754a3.058 3.058 0 0 0 2.593-1.185 3.268 3.268 0 0 0 .528-1.473zM269.187 330.271a16.137 16.137 0 0 0-1.024-1.711l-4.13-6.227c-.3-.48-.7-1.169-1.088-1.921.016.225.016.225.064.817.016.3.048 1.024.048 1.392v5.25a17.709 17.709 0 0 0 .128 2.4h-2.337a17.3 17.3 0 0 0 .128-2.416V319.6a13.35 13.35 0 0 0-.128-2.065h2.5a8.774 8.774 0 0 0 .976 1.7l4.05 6.1c.384.576.9 1.408 1.249 2.049a25.275 25.275 0 0 1-.113-2.257v-5.387a13.875 13.875 0 0 0-.128-2.209h2.337a14.011 14.011 0 0 0-.128 2.209v8.467a12.057 12.057 0 0 0 .128 2.064zM275.873 326.3a2.293 2.293 0 0 0 .448 1.408 2.843 2.843 0 0 0 2.337.944c1.6 0 2.561-.719 2.561-1.921a1.625 1.625 0 0 0-.8-1.472 10.1 10.1 0 0 0-2.785-.783 5.692 5.692 0 0 1-2.417-.977 3.152 3.152 0 0 1-1.233-2.594c0-2.224 1.793-3.666 4.546-3.666a4.722 4.722 0 0 1 3.986 1.617 4.322 4.322 0 0 1 .784 1.858l-2.289.271a2.067 2.067 0 0 0-.48-1.136 2.53 2.53 0 0 0-2-.768c-1.393 0-2.337.7-2.337 1.744a1.523 1.523 0 0 0 1.088 1.457 13.566 13.566 0 0 0 2.258.576 7.042 7.042 0 0 1 2.608.977 3.158 3.158 0 0 1 1.329 2.753 3.727 3.727 0 0 1-1.008 2.721 5.31 5.31 0 0 1-3.826 1.216 6.427 6.427 0 0 1-3.361-.833 3.764 3.764 0 0 1-1.409-1.824 5.469 5.469 0 0 1-.3-1.328zM300.644 330.271a16.629 16.629 0 0 0-.384-1.616l-1.713-5.954a19.917 19.917 0 0 1-.464-2.049 24.093 24.093 0 0 1-.48 2.049l-1.7 5.954a13.49 13.49 0 0 0-.368 1.616h-2.129c-.08-.4-.08-.4-.432-1.648l-2.545-9.187a16.044 16.044 0 0 0-.64-1.9h2.561a8.669 8.669 0 0 0 .288 1.729l1.488 6.1c.112.5.288 1.313.384 1.872.208-.992.32-1.439.448-1.888l1.777-6.178a10.207 10.207 0 0 0 .352-1.633h1.969a11.428 11.428 0 0 0 .368 1.6l1.793 6.162c.112.417.192.736.448 1.936.08-.367.08-.367.176-.927.048-.256.176-.881.208-1.025l1.489-6.034a8.542 8.542 0 0 0 .272-1.713h2.561a14.751 14.751 0 0 0-.624 1.9l-2.562 9.171c-.111.449-.191.737-.223.881a3.843 3.843 0 0 0-.176.783zM314.754 320.652a2.014 2.014 0 0 0-2.145-1.617 2.662 2.662 0 0 0-2.509 1.665 7.046 7.046 0 0 0-.656 2.833 3.716 3.716 0 0 1 3.426-1.6 4.162 4.162 0 0 1 3.713 1.905 4.6 4.6 0 0 1 .576 2.4 4.312 4.312 0 0 1-4.642 4.323 5.043 5.043 0 0 1-3.249-1.057c-1.184-1.025-1.857-2.945-1.857-5.362a8.718 8.718 0 0 1 1.313-4.947 4.546 4.546 0 0 1 3.9-1.9 4.407 4.407 0 0 1 3.282 1.217 4.606 4.606 0 0 1 1.008 1.633zm-4.994 5.586a2.709 2.709 0 0 0 4.9 1.408 2.725 2.725 0 0 0 .368-1.456 2.309 2.309 0 0 0-2.528-2.512 2.583 2.583 0 0 0-2.74 2.56z" fill="#178217"/><path d="M469.888 47.712a23.079 23.079 0 0 0 3.52-6.656 6.522 6.522 0 0 0 2.079 1.184c.321.107.48.23.48.368s-.17.3-.512.5a4.605 4.605 0 0 0-1.184 1.12q-.671.833-2.335 3.456 4.031-.032 7.808-.256V49.6q-3.041-.255-10.848-.256a42.391 42.391 0 0 1-.32 6.976h3.455q6.368 0 9.377-.257v2.3q-3.456-.288-9.377-.288h-2.752a17.767 17.767 0 0 0 5.008 6.064 20.935 20.935 0 0 0 7.568 3.248 4.121 4.121 0 0 0-1.536 2.272 25.7 25.7 0 0 1-7.423-4.112 20.577 20.577 0 0 1-4.96-6.256q-2.209 7.2-11.329 10.656a3.219 3.219 0 0 0-1.759-1.824 21 21 0 0 0 7.824-3.936 11.687 11.687 0 0 0 3.664-6.112h-1.889q-6.078 0-9.376.288v-2.3q3.424.258 9.376.257h2.208a27.259 27.259 0 0 0 .257-3.856q0-2.064-.064-3.12-6.657 0-10.241.256v-2.176q3.426.288 13.281.288zm-4-1.632-1.952 1.088a19.1 19.1 0 0 0-3.136-4.608l1.7-1.088q1.691 2.081 3.388 4.608zM501.888 47.712a23.079 23.079 0 0 0 3.52-6.656 6.522 6.522 0 0 0 2.079 1.184c.321.107.48.23.48.368s-.17.3-.512.5a4.605 4.605 0 0 0-1.184 1.12q-.671.833-2.335 3.456 4.031-.032 7.808-.256V49.6q-3.041-.255-10.848-.256a42.391 42.391 0 0 1-.32 6.976h3.455q6.368 0 9.377-.257v2.3q-3.456-.288-9.377-.288h-2.752a17.767 17.767 0 0 0 5.008 6.064 20.935 20.935 0 0 0 7.568 3.248 4.121 4.121 0 0 0-1.536 2.272 25.7 25.7 0 0 1-7.423-4.112 20.577 20.577 0 0 1-4.96-6.256q-2.209 7.2-11.329 10.656a3.219 3.219 0 0 0-1.759-1.824 21 21 0 0 0 7.824-3.936 11.687 11.687 0 0 0 3.664-6.112h-1.889q-6.078 0-9.376.288v-2.3q3.424.258 9.376.257h2.208a27.259 27.259 0 0 0 .257-3.856q0-2.064-.064-3.12-6.657 0-10.241.256v-2.176q3.426.288 13.281.288zm-4-1.632-1.952 1.088a19.1 19.1 0 0 0-3.136-4.608l1.7-1.088q1.691 2.081 3.388 4.608zM528.607 51.936v13.28l2.657-.512a4.745 4.745 0 0 0-.128 1.024 5.3 5.3 0 0 0 .1.96 112.572 112.572 0 0 0-13.087 1.6 5.7 5.7 0 0 0-.705-2.4q.736.064 2.528.064V47.9a39.345 39.345 0 0 0-.192-4.64 35.747 35.747 0 0 0 9.057 0 37.2 37.2 0 0 0-.225 4.64v3.46a14.857 14.857 0 0 0 3.52-4.7 15.157 15.157 0 0 0 1.889-5.6 14.039 14.039 0 0 0 2.208.96c.276.107.416.255.416.448s-.182.384-.544.576q-.768.384-1.985 3.1v1.664h5.184q6.273 0 7.009-.128v1.76q-.705-.129-5.569-.128v4.672a42.843 42.843 0 0 0 4.9-.16v1.728a42.843 42.843 0 0 0-4.9-.16v4.416a49.318 49.318 0 0 0 4.96-.128v1.728q-.735-.127-4.96-.128v4.928a51.516 51.516 0 0 0 5.888-.16V67.9q-1.152-.16-7.008-.16h-5.5v2.24h-2.28a65.281 65.281 0 0 0 .351-6.656V50.048a21.266 21.266 0 0 1-1.824 2.688 2.578 2.578 0 0 0-1.76-.8zm-6.656-.864h4.736V44.96h-4.736zm4.736 1.472h-4.736v5.44h4.736zm-4.736 6.912v6.432l4.736-.416v-6.016zm16.9-10.144h-4.737v4.672h4.737zm0 6.08h-4.737v4.416h4.737zm0 10.816V61.28h-4.737v4.928zm3.679-20.64-1.664 1.152a24.989 24.989 0 0 0-3.3-4.32l1.409-1.184a53.343 53.343 0 0 1 3.552 4.352zM555.359 48.288q3.426-.448 5.537-.8-.544 4.32-.9 14.56a14.876 14.876 0 0 0 2.623-2.56 2.294 2.294 0 0 0 1.088 1.44L560.7 63.68a7.378 7.378 0 0 0-1.695 2.048 6.878 6.878 0 0 0-1.729-1.44 4.594 4.594 0 0 0 .657-1.216 8.089 8.089 0 0 0 .24-1.856l.639-11.744-3.487.383a76.359 76.359 0 0 1-1.009 11.057 37.852 37.852 0 0 1-2.735 8.56 4.407 4.407 0 0 0-2.24-.832 23.639 23.639 0 0 0 3.183-7.9 54.677 54.677 0 0 0 1.008-10.688 39.987 39.987 0 0 0-4.256.672v-1.86q1.567-.065 4.256-.385a39.419 39.419 0 0 0-.351-7.1 11.711 11.711 0 0 0 2.591.32q.481 0 .481.24a.608.608 0 0 1-.32.464q-.481.352-.512 2.592zm18.4 16.064a39.493 39.493 0 0 0-5.649-.32 38.766 38.766 0 0 0-5.615.32v-2.144a33.652 33.652 0 0 0 5.6.352 34.9 34.9 0 0 0 5.664-.352zM568.352 44.9h4.448a16.984 16.984 0 0 0 3.392-.224q-.318 2.976-.576 7.072a3.507 3.507 0 0 1-.527 1.776 3.255 3.255 0 0 1-1.616 1.12 14.04 14.04 0 0 1-3.3.656 3.491 3.491 0 0 0-.928-2.208 16.519 16.519 0 0 0 2.127.16 3.426 3.426 0 0 0 1.424-.24 1.379 1.379 0 0 0 .721-.752 9.209 9.209 0 0 0 .368-2.08q.159-1.568.192-3.744H565.7v10.908h5.025a47.008 47.008 0 0 0 6.719-.32q-.1 2.433-.368 5.728t-.448 4.208a4.512 4.512 0 0 1-.576 1.552 3.055 3.055 0 0 1-1.168 1.056 6.819 6.819 0 0 1-2.031.64 26.552 26.552 0 0 1-3.217.32 4.431 4.431 0 0 0-1.184-2.272q1.5.127 2.865.128a5.261 5.261 0 0 0 2.16-.368 2.009 2.009 0 0 0 1.088-1.12 14.312 14.312 0 0 0 .511-3.088q.225-2.336.224-4.96h-4.58a36.659 36.659 0 0 0-7.073.448 27.129 27.129 0 0 0 .193-2.912v-8.736a19.376 19.376 0 0 0-.193-2.912 22.461 22.461 0 0 0 2.785.16 9.607 9.607 0 0 0 1.5-4.064 8 8 0 0 0 2.271.8q.448.1.448.384t-.415.448a6.178 6.178 0 0 0-1.884 2.436zm3.584 5.5-1.249 1.408a15.752 15.752 0 0 0-3.679-2.848l1.119-1.28q2.241 1.472 3.809 2.72zM591.52 47.1q-5.568.063-8.352.256v-2.172q3.2.224 8.959.32a24.765 24.765 0 0 0 1.185-4.768 7.172 7.172 0 0 0 1.343.688 3.291 3.291 0 0 0 1.009.144c.373 0 .56.1.56.3s-.15.39-.449.56q-.639.416-1.695 3.072h9.791q2.177 0 5.408-.32v2.18q-3.967-.288-5.408-.288h-10.4a28.869 28.869 0 0 1-3.841 6.72v9.984q0 2.688.16 6.176h-2.3q.192-4.159.193-6.176v-7.744a52.941 52.941 0 0 1-4.8 4.48 2.368 2.368 0 0 0-1.951-1.92A25.055 25.055 0 0 0 591.52 47.1zm9.312 8.608a65.637 65.637 0 0 0 6.815-.32v2.176a63.266 63.266 0 0 0-6.815-.288v8.768q6.24 0 9.472-.32v2.144q-3.552-.288-9.921-.288t-9.823.288v-2.14q2.975.288 8.255.32V57.28a64.876 64.876 0 0 0-6.752.384v-2.272a66.9 66.9 0 0 0 6.752.32 47.379 47.379 0 0 0-.288-6.016 6.67 6.67 0 0 0 1.04.224 6.907 6.907 0 0 0 .88.064l.672-.032c.32 0 .481.128.481.384q0 .288-.385.512t-.383 1.728zM621.567 53.536l-1.28 1.632a23.18 23.18 0 0 0-6.016-3.9l1.024-1.664a53.979 53.979 0 0 1 6.272 3.932zm1.6 5.088q-3.167 4.385-6.815 10.688a7.157 7.157 0 0 0-2.016-1.632 56.317 56.317 0 0 0 7.1-10.624 4.754 4.754 0 0 0 1.732 1.568zm-.448-12.992-1.248 1.6a34.347 34.347 0 0 0-5.857-3.872l1.057-1.505q3.201 1.826 6.049 3.777zm14.784-.448h-8.992a41.226 41.226 0 0 0-5.248.288V43.2q3.262.288 9.792.288t9.567-.288v2.272a16.174 16.174 0 0 0-3.1-.288v21.184a3.678 3.678 0 0 1-.449 2 2.945 2.945 0 0 1-1.632 1.072 19.171 19.171 0 0 1-3.615.64 4.068 4.068 0 0 0-1.089-2.624 22.561 22.561 0 0 0 2.5.16 3.75 3.75 0 0 0 1.681-.3 1.315 1.315 0 0 0 .592-1.3zm-10.175 15.744v3.2h-2.177a32.7 32.7 0 0 0 .257-4.192v-8.192a18.452 18.452 0 0 0-.129-2.528 40.332 40.332 0 0 0 4.561.16 39.338 39.338 0 0 0 4.527-.16 17.037 17.037 0 0 0-.127 2.528v7.392q0 2.081.192 4.192h-2.016v-2.4zm5.088-1.632v-8.288h-5.088V59.3zM674.047 66.4a5.791 5.791 0 0 0-.768 2.848q-2.944.063-6.031.064t-5.328-.212a16.747 16.747 0 0 1-3.553-.64 12.625 12.625 0 0 1-2.88-1.456 5.2 5.2 0 0 0-2.7-1.024 3.623 3.623 0 0 0-2.191.784 16.124 16.124 0 0 0-2.529 2.544 11.034 11.034 0 0 0-1.823-1.888 72.522 72.522 0 0 1 7.088-5.153 61.2 61.2 0 0 0 7.808-6.047 35.677 35.677 0 0 0 5.776-6.176h-10.853a74.4 74.4 0 0 0-8.639.352v-2.172q1.054.192 11.3.192T670.976 48v2.208a5.868 5.868 0 0 0-3.808 2.464 62.6 62.6 0 0 1-13.28 11.584 27.75 27.75 0 0 0 3.551 1.807 14.139 14.139 0 0 0 3.04.961 23.278 23.278 0 0 0 3.584.208 60.578 60.578 0 0 0 9.984-.832zm-11.711-19.872-1.76 1.088a18.905 18.905 0 0 0-4.416-5.345l1.631-1.151a40.13 40.13 0 0 1 4.545 5.408zM685.472 58.528q-3.137 6.144-5.5 11.327l-2.528-1.183a31.618 31.618 0 0 0 3.6-5.312 30.933 30.933 0 0 0 2.641-6.08 4.085 4.085 0 0 0 1.787 1.248zm-1.441-5.376-1.279 1.6a26.433 26.433 0 0 0-5.185-3.936l1.153-1.6a63.246 63.246 0 0 1 5.311 3.936zm1.857-7.52-1.345 1.5a23.267 23.267 0 0 0-5.056-3.9l1.089-1.44a43.96 43.96 0 0 1 5.312 3.84zm2.88-3.361a9.533 9.533 0 0 0 1.695.161l.865-.032c.234 0 .352.091.352.272a.52.52 0 0 1-.208.432c-.14.107-.251.56-.336 1.36a33.292 33.292 0 0 0-.128 3.344v4.255q0 8.418-1.057 11.841a16.526 16.526 0 0 1-4.031 6.528 3.749 3.749 0 0 0-2.24-1.024 12.654 12.654 0 0 0 4.351-6.176q1.248-3.775 1.248-11.136a59.623 59.623 0 0 0-.511-9.825zm-.577 8.161a42.606 42.606 0 0 1-1.215 6.848l-2.048-.512a15.726 15.726 0 0 0 1.376-6.56zM695.359 56l-1.7.8a16.192 16.192 0 0 0-2.433-5.12l1.441-.8a27.317 27.317 0 0 1 2.692 5.12zm.1-12.9a9.07 9.07 0 0 0 2.433.32q.511 0 .511.192c0 .128-.112.262-.336.4a1.03 1.03 0 0 0-.432.736 11.584 11.584 0 0 0-.1 1.808V62.5q0 2.848.32 6.048h-2.4q.288-3.1.289-6.048V48.224a27.668 27.668 0 0 0-.289-5.124zm6.752 12.864-1.631.768a20.512 20.512 0 0 0-2.625-5.344l1.377-.96a25.342 25.342 0 0 1 2.875 5.54zm-.031-14.24a10.861 10.861 0 0 0 2.064.224c.608 0 .911.064.911.192 0 .043-.047.1-.143.176l-.305.24a1.524 1.524 0 0 0-.384 1.248v20.8a48.508 48.508 0 0 0 .288 5.952h-2.431a48.542 48.542 0 0 0 .287-5.952v-18.5a26.154 26.154 0 0 0-.291-4.376zM461.728 107.008l-2.913.352a17.8 17.8 0 0 0-3.135.544 3.394 3.394 0 0 0-.576-1.92q2.432-.992 5.695-6.528a4.465 4.465 0 0 0 1.744 1.04c.416.075.625.2.625.384s-.134.325-.4.432a11 11 0 0 0-1.936 1.536 28.1 28.1 0 0 0-2.977 3.136l4.832-.384a19.841 19.841 0 0 0 1.632-2.912 5.2 5.2 0 0 0 2.08 1.056c.321.064.48.2.48.416s-.139.373-.416.48a3.412 3.412 0 0 0-1.055.816q-.642.657-2.753 3.12l-4.575 5.472q2.974-.192 6.08-.448a26.03 26.03 0 0 0-1.408-2.88l1.664-.865a39.378 39.378 0 0 1 2.463 5.569l-1.76.928q-.128-.48-.447-1.44l-4.8.512a35.234 35.234 0 0 0-4.7.8 3.388 3.388 0 0 0-.513-2.176 7.34 7.34 0 0 0 2.56-1.808q1.34-1.36 4.509-5.232zm5.664-14.848a12.545 12.545 0 0 0-2.624-2.208l1.472-1.5a24.239 24.239 0 0 1 3.551 3.712q8.544-.031 11.3-.32v6.4H479.2v-4.612h-22.432v4.8h-1.792V91.84q3.006.321 12.416.32zm-2.208 1.856a3.843 3.843 0 0 0 1.471 1.248.289.289 0 0 1 .193.256.613.613 0 0 1-.113.335c-.075.119-.294.177-.655.177a4.784 4.784 0 0 0-1.953.9 26.716 26.716 0 0 1-5.695 2.72 2.04 2.04 0 0 0-1.248-1.568 20.662 20.662 0 0 0 8-4.068zm8.544 11.616q-.48 8.193-6.113 12.864a3.68 3.68 0 0 0-2.367-.832 12.037 12.037 0 0 0 4.752-4.656 19.534 19.534 0 0 0 1.967-7.376q-2.751.064-4.256.256v-2.016a26.24 26.24 0 0 0 4.352.288 27.27 27.27 0 0 0-.16-4.48 6.91 6.91 0 0 0 1.664.224l.7-.032c.278 0 .416.107.416.32a.8.8 0 0 1-.351.608q-.353.288-.512 3.36a53.614 53.614 0 0 0 6.207-.256l-.895 10.24a5.5 5.5 0 0 1-.544 2.192 2.4 2.4 0 0 1-1.553 1.024 14.038 14.038 0 0 1-3.5.272 2.587 2.587 0 0 0-.176-1.312 4.406 4.406 0 0 0-.816-1.12 15.934 15.934 0 0 0 2.785.352 2.626 2.626 0 0 0 1.44-.32 1.817 1.817 0 0 0 .576-1.408l.7-8.192zm5.248-6.528-1.216 1.6a55.943 55.943 0 0 0-7.809-5.184l1.12-1.44a65.141 65.141 0 0 1 7.905 5.02zM496.416 107.456q.126-1.28.127-4.128a24.365 24.365 0 0 0-.383-4.736 5.769 5.769 0 0 0 1.6.288l.96-.128c.276 0 .416.117.416.352a.82.82 0 0 1-.3.624 1.458 1.458 0 0 0-.353 1.008q-.048.736-.047 3.872a20.5 20.5 0 0 1-.993 7.424 8.834 8.834 0 0 1-3.04 3.84 27.83 27.83 0 0 1-5.407 2.88 5.328 5.328 0 0 0-2.016-2.016 17.632 17.632 0 0 0 6.571-2.736 7.406 7.406 0 0 0 2.609-4.56q-3.585 1.44-8.352 3.616a4.9 4.9 0 0 0-1.728-2.24 30.663 30.663 0 0 0 5.344-1.312 32.358 32.358 0 0 0 4.992-2.048zm-.576-12.928a4.508 4.508 0 0 0 1.072 1.216q.56.416.56.672c0 .235-.177.373-.529.416a8.75 8.75 0 0 0-2.191.944q-1.664.88-6.625 3.888a4.045 4.045 0 0 0-1.827-1.984 20.766 20.766 0 0 0 5.247-2.032 16.163 16.163 0 0 0 4.293-3.12zm3.136-2.016a20.681 20.681 0 0 0-2.72-2.016l1.6-1.568a29.705 29.705 0 0 1 3.553 3.584q8.575 0 11.9-.32v4.96h-1.92v-3.136h-22.333v3.648h-1.888v-5.472q2.687.32 11.808.32zm-3.521 12.388-1.279 1.5a26.827 26.827 0 0 0-5.217-3.552l.992-1.376a43.086 43.086 0 0 1 5.504 3.428zm8.416 4.192v3.9q0 2.145 1.088 2.56a9.066 9.066 0 0 0 3.1.416q2.786 0 3.648-.688a3.885 3.885 0 0 0 1.024-2.8 3.408 3.408 0 0 0 2.208 1.025 6.22 6.22 0 0 1-1.967 3.5 7.929 7.929 0 0 1-4.224.816 18.434 18.434 0 0 1-4.433-.384 2.907 2.907 0 0 1-1.9-1.28 5.605 5.605 0 0 1-.5-2.656V100.96a12.975 12.975 0 0 0-.256-2.816 9.868 9.868 0 0 0 2.5.224q.416 0 .416.288a.7.7 0 0 1-.352.544q-.354.256-.353 1.632v6.624a67.2 67.2 0 0 1 8.576 2.88l-1.055 1.824a30.766 30.766 0 0 0-7.52-3.072zm9.568-9.568-1.312 1.76a40.176 40.176 0 0 0-9.44-5.217l.9-1.471q5.052 2.268 9.852 4.924zm-3.488 1.5a5.321 5.321 0 0 0 1.536 1.376c.257.15.384.309.384.48 0 .3-.207.448-.623.448a3.335 3.335 0 0 0-1.6.592q-.977.592-3.823 2.768a2.812 2.812 0 0 0-1.312-1.44 15.835 15.835 0 0 0 5.438-4.224zM522.815 106.5q-1.664 4.641-3.456 10.656a6.148 6.148 0 0 0-2.24-.96 45.846 45.846 0 0 0 3.809-10.688 3.594 3.594 0 0 0 1.887.992zm.544-4.768-1.215 1.568a29.968 29.968 0 0 0-4.705-3.84l1.121-1.408a40.116 40.116 0 0 1 4.799 3.676zm1.569-7.744-1.377 1.568a22.534 22.534 0 0 0-4.608-3.808l1.217-1.536a49.287 49.287 0 0 1 4.768 3.772zm.9 10.688a5.81 5.81 0 0 0 1.856.928c.3.107.447.219.447.336s-.111.246-.336.384a1.632 1.632 0 0 0-.576.7q-.239.5-1.071 2.592a40.034 40.034 0 0 1-2.113 4.432 3.953 3.953 0 0 0-2.143-.928 16.854 16.854 0 0 0 2.559-4.016 14.939 14.939 0 0 0 1.373-4.432zm4.48-3.456a41.49 41.49 0 0 0 5.6-.288v2.048a38.138 38.138 0 0 0-4.96-.288v12.828a2.9 2.9 0 0 1-.3 1.5 2.025 2.025 0 0 1-1.281.72 17.963 17.963 0 0 1-3.152.336 3.392 3.392 0 0 0-.928-2.208 16.076 16.076 0 0 0 2.176.191 2.121 2.121 0 0 0 1.232-.287q.4-.288.4-1.344v-11.74a46.734 46.734 0 0 0-5.152.288v-2.048a37.384 37.384 0 0 0 4.576.288V91.9a10.332 10.332 0 0 0-.256-2.816 13.5 13.5 0 0 0 2.4.1c.236 0 .353.053.353.16s-.117.246-.353.416-.351.715-.351 1.632v3.456a31.1 31.1 0 0 0 4.575-.224v1.92a26.147 26.147 0 0 0-4.575-.256zm6.272 10.432-1.824.8a45.27 45.27 0 0 0-3.008-7.264l1.6-.8q1.787 3.712 3.228 7.26zm3.743-.224a27.563 27.563 0 0 1-6.079 7.232 3.168 3.168 0 0 0-2.08-1.632 23.7 23.7 0 0 0 4.352-3.344 17.583 17.583 0 0 0 2.975-4.144q-2.048-5.056-2.847-16.352-1.185.065-1.792.128v-1.892q2.655.192 5.248.192t5.312-.192q-1.217 12.321-4 17.952a19.317 19.317 0 0 0 5.44 7.136 3.907 3.907 0 0 0-2.016 1.6 32.667 32.667 0 0 1-4.517-6.688zm.257-4.192a51.9 51.9 0 0 0 2.688-14.112h-4.9a49.714 49.714 0 0 0 2.208 14.108zM557.951 97.855q-6.016 0-8.479.193v-2.016q2.624.192 9.12.192a32.832 32.832 0 0 0 2.3-7.584 6.991 6.991 0 0 0 1.967.88c.629.16.945.326.945.5s-.161.347-.48.528a3.137 3.137 0 0 0-1.009 1.28 41.038 41.038 0 0 0-1.712 4.4h8.737q6.846 0 9.408-.192v2.016q-1.953-.192-6.369-.193-2.465 7.842-6.112 11.617a88.755 88.755 0 0 1 9.5 5.728 3.448 3.448 0 0 0-1.6 1.792 57.7 57.7 0 0 0-9.313-6.144q-4.352 3.873-13.471 6.784a3.469 3.469 0 0 0-1.6-2.048q8.7-1.824 13.377-5.632-4.353-2.271-9.024-4.256a26.534 26.534 0 0 0 3.815-7.845zm12.385 0h-10.4l-3.008 7.1q3.9 1.7 7.712 3.68a22.765 22.765 0 0 0 5.696-10.78zM593.119 92.832q-5.408.033-7.328.192v-2.112q3.616.351 10.849.352a83.623 83.623 0 0 0 9.664-.352 10.584 10.584 0 0 0-.257 2.368v3.36q2.625-.063 4.289-.224v2.208q-2.4-.192-4.289-.224v3.136a13.826 13.826 0 0 0 .257 2.592q-2.624-.257-14.048-.256a16.962 16.962 0 0 1-1.985 3.392q3.617.065 8.176.064t8.208-.064a8.8 8.8 0 0 0-.1 1.728v6.08a18.871 18.871 0 0 0 .192 2.912h-2.176v-1.856h-13.34v2.172h-2.08a23.3 23.3 0 0 0 .193-2.88v-6.912a34.76 34.76 0 0 1-6.016 5.856 3.313 3.313 0 0 0-2.08-1.568 19.248 19.248 0 0 0 4.912-3.728 22.861 22.861 0 0 0 3.984-5.168q-3.3.033-4.993.224v-2.24q2.018.192 5.792.224a27.676 27.676 0 0 0 1.217-3.808q-6.209 0-9.824.32v-2.204q3.744.321 10.176.32.416-2.143.607-3.904zm11.457 21.632v-5.536h-13.345v5.536zm-11.68-12.32h11.264V98.3h-10.08q-.321 1.317-1.18 3.844zm11.264-5.408v-3.9h-9.121q-.19 1.7-.607 3.9zM627.328 102.112V99.1l7.808-6.016h-10.817q-4.671 0-6.88.16v-2.012q1.76.127 10.8.128t10.575-.128v1.984a5.245 5.245 0 0 0-2.272 1.12l-7.134 5.564v2.208q9.15 0 13.215-.32v2.4q-4.064-.319-13.215-.32v11.456a2.359 2.359 0 0 1-.432 1.5 3.233 3.233 0 0 1-1.777.864 19.864 19.864 0 0 1-4.031.352 3.486 3.486 0 0 0-.961-2.784 21.879 21.879 0 0 0 3.185.352 2.634 2.634 0 0 0 1.487-.32q.448-.32.449-1.408v-10.008q-10.336 0-13.824.32v-2.4q3.486.321 13.824.32zM654.4 108.64a59.327 59.327 0 0 1 5.121 4.416 4.091 4.091 0 0 0-1.889 1.856 32.533 32.533 0 0 0-4.352-4.48 29.958 29.958 0 0 1-6.143 6.656 3.533 3.533 0 0 0-2.433-1.28 22.294 22.294 0 0 0 7.105-6.624 48.822 48.822 0 0 0-4.513-3.2 40.185 40.185 0 0 0 2.721-8.1 37.754 37.754 0 0 0-4.065.256v-2.077a29.009 29.009 0 0 0 4.448.257 35.766 35.766 0 0 0 1.216-7.52 10.112 10.112 0 0 0 2.465.576c.276.021.416.139.416.352a.872.872 0 0 1-.4.64 3.29 3.29 0 0 0-.768 1.536q-.369 1.217-1.041 4.416a36.907 36.907 0 0 0 5.729-.257q-.994 8.066-3.617 12.577zm-2.463-10.752a70.42 70.42 0 0 1-2.208 7.456q1.823 1.152 3.135 2.144a25.234 25.234 0 0 0 2.977-9.6zm15.679 6.24v10.848a3.044 3.044 0 0 1-.367 1.632 2.542 2.542 0 0 1-1.52.9 15.179 15.179 0 0 1-3.552.351 4.122 4.122 0 0 0-1.217-2.559 15.894 15.894 0 0 0 2.705.32 2.465 2.465 0 0 0 1.455-.352q.48-.353.481-1.568v-9.568q-4.706 0-7.073.224V102.3q3.042.224 7.073.224v-4.1l4.8-4.864h-5.12q-3.488 0-6.111.192v-1.88q3.135.16 7.279.16t7.248-.16v1.6a5.342 5.342 0 0 0-1.279.784 12.242 12.242 0 0 0-1.057.88l-3.744 3.84v3.552q3.871 0 6.848-.224v2.048q-2.978-.223-6.85-.224zM683.936 112.384a31.481 31.481 0 0 1 3.072 2.048 7.144 7.144 0 0 0 2.88.784 50.684 50.684 0 0 0 6.368.3q4.128 0 10.623-.544a3.671 3.671 0 0 0-.7 2.528q-8.321 0-12.4-.16a37.47 37.47 0 0 1-5.6-.5 6.268 6.268 0 0 1-2.385-.976 13.872 13.872 0 0 0-1.9-1.28 2.659 2.659 0 0 0-1.168-.288 2.3 2.3 0 0 0-1.376.688 21.089 21.089 0 0 0-2.24 2.448 4.358 4.358 0 0 0-1.632-1.792 21.241 21.241 0 0 1 4.544-3.36v-9.92a41.578 41.578 0 0 0-4.161.128v-1.952a23.661 23.661 0 0 0 3.393.224 14.792 14.792 0 0 0 2.912-.224 25.727 25.727 0 0 0-.224 3.808zm.863-16.16-1.823 1.12a22.563 22.563 0 0 0-4.128-5.856l1.6-1.217a44.789 44.789 0 0 1 4.352 5.953zm9.888-.192q-4.865 0-8.255.256v-2.08q3.36.257 8.255.256a39.374 39.374 0 0 0-.351-5.056 6.707 6.707 0 0 0 1.631.192l.768-.032q.544 0 .544.384a.308.308 0 0 1-.191.288q-.577.32-.576 1.408v2.816q5.951 0 8.8-.256v2.08q-2.88-.256-8.8-.256v6.208l.863.576a16.69 16.69 0 0 0 4.9-5.28 16.541 16.541 0 0 0 1.645 1.164q.624.368.623.656c0 .192-.182.31-.543.352a3.783 3.783 0 0 0-1.984 1.056q-2.114 1.888-3.424 2.912 2.816 1.92 6.687 4.8l-1.632 1.729a54.451 54.451 0 0 0-7.135-6.4v7.712a1.843 1.843 0 0 1-1.168 1.9 10.79 10.79 0 0 1-3.7.464 4.2 4.2 0 0 0-.8-2.272 12.654 12.654 0 0 0 2.208.256 2.221 2.221 0 0 0 1.231-.272 1.131 1.131 0 0 0 .4-1.008v-6.656q-5.5 4-7.872 5.919a7.166 7.166 0 0 0-1.664-2.079 50.049 50.049 0 0 0 9.536-5.728zm-2.175 5.024-1.184 1.376a23.494 23.494 0 0 0-4.513-3.424l1.025-1.408q2.91 1.985 4.672 3.456zm10.464-8.32-1.248 1.152a21.51 21.51 0 0 0-3.1-3.168l1.185-1.12a40.213 40.213 0 0 1 3.163 3.136z"/><path d="M551.76 139.984a15.521 15.521 0 0 1-2.1 2 1.994 1.994 0 0 0-.9-.7 13.287 13.287 0 0 0 2.711-2.28 7.732 7.732 0 0 0 1.417-2.52 1.855 1.855 0 0 0 .872.44c.24.027.359.083.359.168s-.088.166-.264.24a1.368 1.368 0 0 0-.544.561c-.186.3-.382.586-.584.863v6.444h-1.151a31.131 31.131 0 0 0 .176-3.232zm4.719 6.657q4.065 0 6.72-.208v1.215q-2.655-.207-6.72-.208v1.472a15.633 15.633 0 0 0 .161 2.145h-1.248a16.409 16.409 0 0 0 .128-2.145v-1.472q-3.936.017-6.577.208v-1.215q2.64.192 6.577.208a12.908 12.908 0 0 0-.128-1.969 4.022 4.022 0 0 0 .944.128l.336-.016c.148 0 .224.037.224.112s-.059.158-.176.249a.538.538 0 0 0-.208.376 11.13 11.13 0 0 0-.033 1.12zm.833-5.617v1.745a1.019 1.019 0 0 0 .12.551.833.833 0 0 0 .544.272 7.315 7.315 0 0 0 1.352.089 3.255 3.255 0 0 0 1.959-.369 2.054 2.054 0 0 0 .473-1.344 2.781 2.781 0 0 0 1.055.576 3.229 3.229 0 0 1-.9 1.56 4.88 4.88 0 0 1-2.584.424 14.156 14.156 0 0 1-1.752-.08 1.761 1.761 0 0 1-.921-.352 1.54 1.54 0 0 1-.319-1.168v-1.455q-1.008.462-2.481 1.023a1.729 1.729 0 0 0-.656-.928 17.3 17.3 0 0 0 3.137-1.024v-1.952q0-1.359-.065-1.92a7.394 7.394 0 0 0 1.3.1c.15 0 .224.034.224.1a.192.192 0 0 1-.127.168c-.235.117-.352.422-.352.912v2.128a12.424 12.424 0 0 0 3.664-2.592 2.227 2.227 0 0 0 .671.752c.171.117.256.227.256.328s-.12.152-.36.152a2.086 2.086 0 0 0-1.016.448 26.822 26.822 0 0 1-3.222 1.856zM574.56 140.192h-4.7q-2.463 0-4.607.128v-1.055q2.11.127 6.744.128t6.76-.128v1.055q-1.281-.111-3.217-.112a16.783 16.783 0 0 1-2.975 6.16 15.78 15.78 0 0 0 6.8 3.2 1.926 1.926 0 0 0-.832 1.056 22.584 22.584 0 0 1-6.591-3.632 22.724 22.724 0 0 1-6.512 3.84 1.948 1.948 0 0 0-.848-.976 16.392 16.392 0 0 0 6.7-3.44 14.756 14.756 0 0 1-3.5-5.04l.848-.4a12.872 12.872 0 0 0 3.265 4.783 13.962 13.962 0 0 0 2.665-5.567zm-1.5-1.744-.752.672a12.063 12.063 0 0 0-2.48-2.24l.639-.672a17.366 17.366 0 0 1 2.589 2.24zM586.735 147.552a2.555 2.555 0 0 0-.063.544 4.176 4.176 0 0 0 .031.512 23.1 23.1 0 0 0-5.359 1.2 1.96 1.96 0 0 0-.5-1.2 26.953 26.953 0 0 0 5.891-1.056zm-2.559-5.376-1.777.1a2.68 2.68 0 0 0-1.024.24 2.6 2.6 0 0 0-.463-1.2 4 4 0 0 0 1.407-1.631 17.008 17.008 0 0 0 1.521-3.361 6.88 6.88 0 0 0 1.1.5c.15.054.225.139.225.256s-.092.23-.272.336a3.383 3.383 0 0 0-.792.936q-.521.775-1.833 3.16l2.384-.1a7.658 7.658 0 0 0 .849-1.92l.975.48c.181.1.273.181.273.257s-.088.175-.265.3a4.19 4.19 0 0 0-.688.72q-.423.53-2.84 4.048a20.348 20.348 0 0 0 3.408-.384 3.4 3.4 0 0 0-.015.368 3.508 3.508 0 0 0 .047.544l-3.135.336a6.414 6.414 0 0 0-1.713.352 1.981 1.981 0 0 0-.48-1.024 2.886 2.886 0 0 0 1.416-.952 21.644 21.644 0 0 0 1.692-2.361zm4.351 6.912v1.52h-1.168a9.609 9.609 0 0 0 .208-1.872v-8.912a9.127 9.127 0 0 0-.159-1.92q1.279.127 3.816.128t3.832-.128a12.6 12.6 0 0 0-.128 1.92v8.08a20.788 20.788 0 0 0 .111 2.5h-1.056v-1.312zm0-6.016h2.256v-4.32h-2.256zm2.256.784h-2.256v4.444h2.256zm.928-.784h2.272v-4.32h-2.272zm2.272.784h-2.272v4.444h2.272zM600.08 148.336a15.28 15.28 0 0 1-2.033 2.721l-.863-.561a8.077 8.077 0 0 0 2.047-2.7zm4.512-3.472v1.68q3.679 0 6.16-.128v1.008q-2.64-.128-6.736-.128t-6.737.128v-1.008q2.545.129 6.352.128v-1.68q-3.039 0-4.879.1v-.928q1.822.1 4.879.1v-1.5q-3.1 0-4.879.1.111-1.088.111-2.7t-.111-2.721q1.9.1 5.408.1t5.407-.1q-.094 1.2-.1 2.721t.1 2.687q-1.44-.079-4.975-.08v1.5q3.056 0 4.912-.1v.928q-1.857-.107-4.912-.107zm-.961-2.992v-3.712h-3.84v3.712zm-.575-.848-.9.416a9.657 9.657 0 0 0-1.52-2.32l.752-.512a13.854 13.854 0 0 1 1.668 2.416zm.672 9.312-.993.368a6.62 6.62 0 0 0-1.151-2.4l.815-.4a16.516 16.516 0 0 1 1.329 2.432zm.864-12.176v3.712h3.951v-3.712zm2.623 11.9-.9.432a7.709 7.709 0 0 0-1.36-2.176l.785-.48a14.862 14.862 0 0 1 1.475 2.228zm.545-10.944a13 13 0 0 0-1.84 2.384l-.8-.48a11.077 11.077 0 0 0 1.777-2.448zm3.3 11.025-.88.671a13.461 13.461 0 0 0-2.016-2.576l.688-.559a21.963 21.963 0 0 1 2.204 2.468z" fill="#178217"/><path d="M105.983 57.633a26.877 26.877 0 0 1 1.728 3.487l-1.152.448h.32v2.848c0 2.4-.576 4.576-4.544 5.983a6 6 0 0 0-1.152-1.407c2.048-.64 3.072-1.5 3.552-2.465h-4.256v-4.478h1.632v2.974h3.008a4.275 4.275 0 0 0 .032-.639v-2.816h1.216c-.1-.256-.256-.608-.384-.992-5.056.481-5.824.641-6.3.8a7.236 7.236 0 0 0-.48-1.567 3.731 3.731 0 0 0 1.727-.9 16.972 16.972 0 0 0 1.92-1.664 11.433 11.433 0 0 0-2.975.385 14.118 14.118 0 0 0-.547-1.63 2.046 2.046 0 0 0 1.055-.575 15.523 15.523 0 0 0 2.272-2.912h-5.5v18.11H94.88V42.754h11.647v9.759H103.2l1.088.576a17.263 17.263 0 0 1-2.5 2.911l2.367-.1a16.757 16.757 0 0 0 1.408-1.664l1.408.928a38.383 38.383 0 0 1-4.832 4.416l3.232-.256c-.224-.447-.448-.9-.672-1.279zm-8.831-13.152v2.4h7.135v-2.4zm0 6.272h7.135V48.48h-7.135zm24.158 16.862c0 1.313-.256 2.049-1.12 2.432a10.416 10.416 0 0 1-4.16.48 10.672 10.672 0 0 0-.736-2.367c1.408.064 2.752.064 3.168.031.416 0 .544-.16.544-.576v-15.1h-7.168l1.184.608a22.881 22.881 0 0 1-2.5 2.912l2.378-.135c.511-.543.959-1.088 1.407-1.664l1.376.9a32.881 32.881 0 0 1-4.831 4.447l3.2-.256c-.224-.447-.447-.9-.671-1.279l1.215-.416a29.131 29.131 0 0 1 1.856 3.455l-1.279.576a10.662 10.662 0 0 0-.513-1.088c-5.023.512-5.823.608-6.239.832a14.409 14.409 0 0 0-.48-1.6 3.851 3.851 0 0 0 1.7-.865c.352-.256 1.056-.9 1.952-1.7-2.208.16-2.72.256-3.008.416a10 10 0 0 0-.585-1.625 1.841 1.841 0 0 0 1.056-.576 15.762 15.762 0 0 0 2.3-2.944h-1.983v-9.759h11.937zm-7.519-.095v-.993h-3.072v3.617h-1.792v-8.576h1.792v3.455h3.072V62.08h1.7v5.44zm-2.145-23.039v2.4h7.36v-2.4zm7.36 6.272V48.48h-7.36v2.273zM137.983 57.633a26.877 26.877 0 0 1 1.728 3.487l-1.152.448h.32v2.848c0 2.4-.576 4.576-4.544 5.983a6 6 0 0 0-1.152-1.407c2.048-.64 3.072-1.5 3.552-2.465h-4.256v-4.478h1.632v2.974h3.008a4.275 4.275 0 0 0 .032-.639v-2.816h1.216c-.1-.256-.256-.608-.384-.992-5.056.481-5.824.641-6.3.8a7.236 7.236 0 0 0-.48-1.567 3.731 3.731 0 0 0 1.727-.9 16.972 16.972 0 0 0 1.92-1.664 11.433 11.433 0 0 0-2.975.385 14.118 14.118 0 0 0-.547-1.63 2.046 2.046 0 0 0 1.055-.575 15.523 15.523 0 0 0 2.272-2.912h-5.5v18.11h-2.275V42.754h11.647v9.759H135.2l1.088.576a17.263 17.263 0 0 1-2.5 2.911l2.367-.1a16.757 16.757 0 0 0 1.408-1.664l1.408.928a38.383 38.383 0 0 1-4.832 4.416l3.232-.256c-.224-.447-.448-.9-.672-1.279zm-8.831-13.152v2.4h7.135v-2.4zm0 6.272h7.135V48.48h-7.135zm24.158 16.862c0 1.313-.256 2.049-1.12 2.432a10.416 10.416 0 0 1-4.16.48 10.672 10.672 0 0 0-.736-2.367c1.408.064 2.752.064 3.168.031.416 0 .544-.16.544-.576v-15.1h-7.168l1.184.608a22.881 22.881 0 0 1-2.5 2.912l2.378-.135c.511-.543.959-1.088 1.407-1.664l1.376.9a32.881 32.881 0 0 1-4.831 4.447l3.2-.256c-.224-.447-.447-.9-.671-1.279l1.215-.416a29.131 29.131 0 0 1 1.856 3.455l-1.279.576a10.662 10.662 0 0 0-.513-1.088c-5.023.512-5.823.608-6.239.832a14.409 14.409 0 0 0-.48-1.6 3.851 3.851 0 0 0 1.7-.865c.352-.256 1.056-.9 1.952-1.7-2.208.16-2.72.256-3.008.416a10 10 0 0 0-.585-1.625 1.841 1.841 0 0 0 1.056-.576 15.762 15.762 0 0 0 2.3-2.944h-1.983v-9.759h11.937zm-7.519-.095v-.993h-3.072v3.617h-1.792v-8.576h1.792v3.455h3.072V62.08h1.695v5.44zm-2.145-23.039v2.4h7.36v-2.4zm7.36 6.272V48.48h-7.36v2.273zM170.015 62.271l.224 2.081c-4.447 1.12-9.152 2.271-12.607 3.1l-.416-2.367 1.856-.384V42.945h9.055v19.743zm-8.831-17.15v4.641h4.767v-4.641zm0 11.424h4.767v-4.672h-4.767zm0 7.68c1.471-.289 3.1-.672 4.767-1.057v-4.48h-4.767zm25.182 4.095h-12.9v2.335h-2.208v-18.43a23.65 23.65 0 0 1-1.92 2.591 12.946 12.946 0 0 0-1.152-2.015 34.571 34.571 0 0 0 5.6-11.231l2.24.608a52.005 52.005 0 0 1-1.984 4.959h11.935v2.175h-5.408v4.033h4.7v2.176h-4.7v4.095h4.768v2.144h-4.768v4.351h5.792zm-8-19.008h-4.9v4.033h4.9zm0 6.209h-4.9v4.095h4.9zm-4.9 10.59h4.9V61.76h-4.9zm5.919-19.006a23.089 23.089 0 0 0-2.24-4.736l1.984-.8a20.15 20.15 0 0 1 2.336 4.608zM201.567 59.713a13.823 13.823 0 0 0 .64 1.76c-3.712 3.2-4.384 3.806-4.7 4.319a7.427 7.427 0 0 0-1.087-1.728 3.01 3.01 0 0 0 1.247-2.56V50.4h-2.656c-.223 8.065-1.024 13.856-4.191 17.631a5.321 5.321 0 0 0-1.568-1.471c2.88-3.423 3.584-8.736 3.775-16.16h-3.295v-2.111h3.328c.031-1.888.031-3.9.031-6.016h2.009c0 2.112 0 4.128-.033 6.016h4.576v12.959zm-1.7 9.183a33.191 33.191 0 0 0 2.368-6.3l1.792.767a44.676 44.676 0 0 1-2.272 6.4zm5.152-11.616v1.92h12.831s-.032.64-.064.929c-.448 6.431-.864 8.8-1.664 9.662a2.227 2.227 0 0 1-1.824.8 26.025 26.025 0 0 1-3.168 0 4.579 4.579 0 0 0-.511-1.824c1.247.128 2.4.16 2.815.16.512 0 .768-.065.992-.321.48-.544.928-2.559 1.248-7.583h-12.859V44.354h3.872a28.048 28.048 0 0 0 1.023-3.041l2.464.449c-.416.9-.832 1.791-1.248 2.592h7.168v9.31h-11.071v1.857h13.567v1.759zm0-11.2v2.112h8.9v-2.111zm8.9 5.857v-2.175h-8.9v2.176zM206.75 63.1a26.164 26.164 0 0 1 .737 5.183l-1.633.225a29.082 29.082 0 0 0-.671-5.184zm2.913-.543a19.007 19.007 0 0 1 1.567 4.351l-1.536.447a21.731 21.731 0 0 0-1.471-4.416zm3.295 3.519a21.254 21.254 0 0 0-1.76-3.712l1.312-.448a16.738 16.738 0 0 1 1.856 3.584zM249.918 46.338v2.271h-17.439a41.752 41.752 0 0 1-3.872 6.528v15.326h-2.336v-12.51a23.743 23.743 0 0 1-3.711 3.231 10.063 10.063 0 0 0-1.216-2.143 27.477 27.477 0 0 0 8.448-10.432h-7.68v-2.271h8.735a43.264 43.264 0 0 0 1.7-4.961l2.432.608c-.416 1.441-.96 2.912-1.536 4.353zm-8.448 21.277h8.448v2.24h-19.231v-2.24h8.413v-8.99h-7.168v-2.24h7.168v-6.112h2.367v6.112h7.2v2.24h-7.2zM259.007 55.713a57.306 57.306 0 0 0-5.887-3.456l1.312-1.728a64.983 64.983 0 0 1 5.887 3.232zm-4.959 12.863a82.691 82.691 0 0 0 6.052-10.208l1.728 1.568a110.093 110.093 0 0 1-5.76 10.208zm28.638-22.847h-2.464v21.439c0 1.728-.48 2.527-1.7 2.912-1.248.416-3.52.447-7.039.447a9.541 9.541 0 0 0-.928-2.5c2.783.1 5.535.065 6.335.065.736-.033.992-.256.992-.96V45.729h-15.931v-.448l-1.376 1.889c-1.344-.961-3.968-2.528-5.951-3.617l1.344-1.7c1.951.993 4.575 2.464 5.983 3.36v-1.787h20.735zM266.047 61.7v2.2h-2.176V50.145h10.015V61.7zm0-9.376v7.233h5.632V52.32zM311.71 48.77a62.962 62.962 0 0 1-17.567 16.509 8.959 8.959 0 0 0 .832.576c2.016 1.281 4.608 1.5 8.192 1.5 3.711 0 8.447-.255 11.519-.576a8.7 8.7 0 0 0-.7 2.561c-2.368.16-7.839.351-10.911.351-3.84 0-6.464-.383-8.576-1.727-1.312-.832-2.3-1.857-3.008-1.857-1.024 0-2.528 1.857-4.031 3.969L285.7 67.9c2.112-2.3 4.192-4.032 5.824-4.032a1.621 1.621 0 0 1 .416.064 56.762 56.762 0 0 0 15.71-13.918h-20.322v-2.3h22.078l.512-.16zm-11.039-1.088a39.183 39.183 0 0 0-3.328-5.376l2.048-1.056a36.2 36.2 0 0 1 3.456 5.184zM322.72 55.265A38.379 38.379 0 0 0 317.344 52l1.344-1.728a38.033 38.033 0 0 1 5.407 3.039zm-4.736 13.694a97.964 97.964 0 0 0 4.416-10.175l1.889 1.28c-1.184 3.329-2.785 7.232-4.16 10.143zm5.855-22.014a30.251 30.251 0 0 0-5.119-3.519l1.408-1.7a32.751 32.751 0 0 1 5.151 3.328zm5.28-4.832h2.24v11.1c0 6.24-.48 12.478-4.608 17.406a12.4 12.4 0 0 0-1.983-1.407c3.9-4.544 4.351-10.272 4.351-16zm-2.144 16.831a37.16 37.16 0 0 0-2.176-7.583l1.792-.608a41.233 41.233 0 0 1 2.3 7.519zm6.24-8.094a31.05 31.05 0 0 1 2.176 7.07l-1.728.641a37.7 37.7 0 0 0-2.048-7.136zm11.967-8.768v28.51h-2.272V57.856l-1.664.769a40.353 40.353 0 0 0-3.039-7.137v18.4h-2.24V42.562h2.24v8.415l1.439-.577a36.644 36.644 0 0 1 3.264 7.1V42.082zM105.375 116.063c-.16-.448-.416-.991-.7-1.6-8.031 1.44-9.087 1.7-9.7 2.079a11.128 11.128 0 0 0-.736-2.111 6.086 6.086 0 0 0 2.528-1.825 35.214 35.214 0 0 0 3.711-4.031c-4.511.481-5.279.641-5.791.863a16.31 16.31 0 0 0-.7-2.111 3.569 3.569 0 0 0 1.728-1.344 29.61 29.61 0 0 0 4.512-6.08l2.111.961a39.154 39.154 0 0 1-5.119 6.207l4.767-.447a34.282 34.282 0 0 0 1.792-2.592l2.016 1.055a57.432 57.432 0 0 1-7.647 8.672l5.759-.96c-.448-.9-.928-1.792-1.376-2.624l1.76-.7a61.889 61.889 0 0 1 2.944 5.759zm16.607-24V96.9h-2.368v-2.915h-7.647v3.2c0 .7.128.991.928.991h4.735a15.214 15.214 0 0 0 2.528-.193c.064.609.1 1.248.192 1.825a11.533 11.533 0 0 1-2.56.16h-5.311c-2.336 0-2.848-.864-2.848-2.817v-3.166h-3.648c-.608 4.16-2.848 5.856-10.335 6.688a5.3 5.3 0 0 0-1.024-1.792c6.688-.576 8.575-1.695 9.151-4.9h-7.1v3.167h-2.3v-5.083h12.543c-.256-.768-.576-1.6-.864-2.3l2.56-.512c.384.863.864 1.983 1.184 2.815zm-.9 12.959c-.384 8.192-.768 11.167-1.632 12.192a2.76 2.76 0 0 1-2.08.991 32.542 32.542 0 0 1-3.9-.031 6.091 6.091 0 0 0-.672-2.208c1.568.159 3.008.192 3.584.192a1.209 1.209 0 0 0 1.12-.416c.576-.576.928-3.168 1.248-9.695h-5.567c-.544 5.535-1.889 9.982-5.984 12.734a5.466 5.466 0 0 0-1.5-1.6c3.552-2.4 4.736-6.272 5.183-11.135h-4v-2.08h4.16c.064-1.088.1-2.208.128-3.393h2.33c-.032 1.153-.1 2.305-.16 3.393h7.744zM135.391 101.408h2.3v5.892c0 4.607-1.28 8.927-10.623 11.422a7.1 7.1 0 0 0-1.344-1.856c6.175-1.631 8.479-3.935 9.247-6.5-2.944.96-5.983 1.952-8.415 2.655l-.8-2.046c2.432-.577 6.048-1.569 9.6-2.592.032-.353.032-.769.032-1.153zm9.088-1.248c-2.336 0-2.848-.894-2.848-2.879v-3.3h-3.264c-.672 4.352-2.88 6.24-10.335 7.136a5.871 5.871 0 0 0-1.056-1.824c6.687-.672 8.575-1.951 9.087-5.312h-7.391v3.167h-2.3v-5.083h12.543a39.868 39.868 0 0 0-.864-2.336l2.368-.511a29.934 29.934 0 0 1 1.184 2.847h12.383V96.9h-2.368v-2.915h-7.647v3.3c0 .768.128 1.056.928 1.056h4.735a15.328 15.328 0 0 0 2.528-.192c.064.64.1 1.28.192 1.824a11.242 11.242 0 0 1-2.56.191zm-15.647 2.34a23.153 23.153 0 0 1 5.759 3.328l-1.376 1.569a26.8 26.8 0 0 0-5.7-3.52zm23.678 10.176a7.058 7.058 0 0 0 1.92.767c-.288 3.553-.992 4.544-3.456 4.544h-5.439c-3.008 0-3.808-.7-3.808-3.36v-13.219h2.335v7.744l.9-1.408a59.524 59.524 0 0 1 8.48 3.328zm-1.728 3.232c1.152 0 1.376-.512 1.536-3.041a63.155 63.155 0 0 0-8.256-3.487v5.247c0 1.057.225 1.281 1.7 1.281zm-5.882-10.052a38 38 0 0 0 5.727-3.807l1.952 1.152a44.735 44.735 0 0 1-6.048 3.776zM158.592 98.625a28.128 28.128 0 0 1 4.767 3.2l-1.376 1.824a25.13 25.13 0 0 0-4.735-3.423zm-1.024 18.275a94.771 94.771 0 0 0 4.128-9.919l1.663 1.248c-1.119 3.231-2.623 7.071-3.935 9.919zm5.6-21.886a38.594 38.594 0 0 0-4.511-3.872l1.568-1.472a45.627 45.627 0 0 1 4.544 3.68zm4.512 9.919a34.066 34.066 0 0 1-2.464 8.51 17.073 17.073 0 0 0-1.823-1.023 27.277 27.277 0 0 0 2.239-7.871zm3.584-2.912v13.758c0 1.217-.192 1.825-1.024 2.176a9.461 9.461 0 0 1-3.776.416 9.607 9.607 0 0 0-.7-2.176c1.312.033 2.528.033 2.848 0 .384 0 .512-.095.512-.447v-13.731h-5.375v-2.24h4.927v-10.24h2.208v4.032h4.216v2.144h-4.224v4.064h5.375v2.24zm3.456 9.663a42.691 42.691 0 0 0-2.4-6.656l1.856-.671a43.932 43.932 0 0 1 2.495 6.4zm11.039-19.518c-.576 7.295-1.984 13.086-4.128 17.534a16.768 16.768 0 0 0 5.152 7.232 6.882 6.882 0 0 0-1.632 1.824 18.24 18.24 0 0 1-4.832-6.624 20.593 20.593 0 0 1-6.015 6.464 8.578 8.578 0 0 0-1.472-1.76 18.559 18.559 0 0 0 6.463-7.328 68.022 68.022 0 0 1-2.976-15.263l.513-.063h-1.376v-2.24h8.607l.416-.1zm-7.487 2.016a67.02 67.02 0 0 0 2.3 12.606 47.1 47.1 0 0 0 2.976-12.606zM212.478 99.521c-1.216 4.576-2.912 8.255-5.471 11.135a83.733 83.733 0 0 1 10.4 5.823l-1.92 2.113a76.188 76.188 0 0 0-10.4-6.048c-3.264 2.784-7.648 4.7-13.567 5.952a8.223 8.223 0 0 0-1.44-2.272c5.376-1.025 9.407-2.624 12.447-4.96-2.816-1.344-5.792-2.592-8.767-3.743a85.589 85.589 0 0 0 3.935-8h-7.679v-2.5h8.7a71.522 71.522 0 0 0 2.752-7.935l2.528.384c-.672 2.368-1.568 4.991-2.528 7.551h8.959c.224-.961.416-1.984.608-3.04l2.464.64c-.128.8-.288 1.6-.448 2.4h5.056v2.5zm-12.031 0a100.32 100.32 0 0 1-3.1 6.911c2.432.928 4.832 1.953 7.2 3.041a23.119 23.119 0 0 0 5.248-9.952zM232.159 104a21.682 21.682 0 0 1-2.016 3.3h17.407v11.358h-2.464v-1.536h-14.207v1.569h-2.368v-9.376a22.387 22.387 0 0 1-5.759 4.48 21.285 21.285 0 0 0-1.472-1.888 20.333 20.333 0 0 0 8.191-7.9h-4.639v-2.047h5.727a25.623 25.623 0 0 0 1.408-3.488h-10.143v-2.118h10.815c.288-1.121.576-2.273.768-3.424h-8.191v-2.049h21.566v5.473h3.456v2.111h-3.456V104zm-1.28 5.439v5.569h14.207v-5.569zm3.621-10.974a88.8 88.8 0 0 1-1.312 3.488h11.231v-3.488zm1.44-5.535c-.256 1.151-.544 2.3-.832 3.424h9.311V92.93zM282.4 105.92h-13.057v9.535c0 1.6-.416 2.336-1.632 2.689-1.184.416-3.2.448-6.272.448a9.385 9.385 0 0 0-1.023-2.432c2.591.1 4.927.064 5.631.031.64-.031.864-.191.864-.767v-9.5h-13.183v-2.367h13.183v-4.612a39.251 39.251 0 0 0 8-5.056H256.9v-2.336h20.6l.512-.127 1.792 1.344a45.256 45.256 0 0 1-10.463 7.39v3.393H282.4zM296.959 98.369a28.338 28.338 0 0 1-2.688 12.127 44.054 44.054 0 0 1 4.032 3.871l-1.568 1.985a43.386 43.386 0 0 0-3.68-3.776 23.74 23.74 0 0 1-5.951 6.112 8.92 8.92 0 0 0-1.664-1.632 21.653 21.653 0 0 0 5.855-6.048 95.46 95.46 0 0 0-5.151-4.224c.64-2.079 1.312-4.927 1.952-7.9l-2.528.128-.256-2.272c.928-.032 2.016-.1 3.2-.128.447-2.431.8-4.96 1.024-7.135l2.336.128c-.257 2.144-.641 4.543-1.057 6.912l3.9-.225v-2.339h2.24v2.208l1.856-.1-.032 2.176zm-6.56.384a124.628 124.628 0 0 1-1.663 7.231c1.216.928 2.5 1.92 3.711 2.976a24.905 24.905 0 0 0 2.24-10.463zm24.191 6.4h-7.04v10.623c0 1.409-.352 2.08-1.343 2.465a16.31 16.31 0 0 1-5.024.383 9.418 9.418 0 0 0-.864-2.271c1.888.064 3.648.064 4.127.032.512 0 .7-.16.7-.609v-10.624h-7.391v-2.271h7.391v-3.649a28.679 28.679 0 0 0 4.672-5.279h-10.651v-2.207h12.287l.544-.129 1.632 1.183a36.888 36.888 0 0 1-6.08 7.008v3.072h7.04zM325.407 105.024a31.382 31.382 0 0 1-1.824 6.912c2.048 3.584 6.08 4.095 12.16 4.095 3.36 0 8-.127 11.231-.416a6.476 6.476 0 0 0-.768 2.209c-3.008.192-7.008.256-10.5.256-6.5 0-10.527-.641-13.023-4.256a13.831 13.831 0 0 1-4.031 4.831 6.933 6.933 0 0 0-1.568-1.632c2.88-1.984 4.959-5.5 5.952-10.431h-3.1a3.112 3.112 0 0 0-1.856.449v-.033a15.967 15.967 0 0 0-.9-2.144 2.888 2.888 0 0 0 1.5-.927 60.083 60.083 0 0 0 3.808-5.216h-4.9V96.77h6.239l.48-.193 1.568.735c-1.248 1.857-3.583 5.184-5.311 7.329h3.36l.416-.065zm-2.907-9.439a39.427 39.427 0 0 0-3.744-5.151l1.824-1.024a46.928 46.928 0 0 1 3.807 4.928zm3.263 14.3c1.888-1.217 4.8-3.3 7.52-5.344l.9 1.823c-2.464 1.857-5.088 3.84-7.2 5.344zm9.337-13.244h-8.48v-2.112h8.48V89.41h2.3v5.119h8.928v2.112H337.4v4.64c.737.64 1.472 1.344 2.272 2.047a38.1 38.1 0 0 0 4.1-5.407l2.112 1.088a59.05 59.05 0 0 1-4.832 5.407l-.64-.383a64.2 64.2 0 0 1 5.856 6.335l-1.824 1.376a70.423 70.423 0 0 0-7.04-7.775v7.519c0 1.28-.32 1.824-1.119 2.207a11.465 11.465 0 0 1-4.128.416 8.1 8.1 0 0 0-.832-2.047c1.44.032 2.784.032 3.168 0 .447-.033.608-.128.608-.576zm-3.968 7.584a20.751 20.751 0 0 0-4.032-4.959l1.664-1.089a19.9 19.9 0 0 1 4.128 4.832zm12.671-10.368a25.115 25.115 0 0 0-4.448-3.328l1.408-1.279a25.228 25.228 0 0 1 4.512 3.2z"/><path d="M88.233 149.92a11.832 11.832 0 0 0 1.745-3.811l1.056.37a13.25 13.25 0 0 1-1.729 4zm12.677-5.363H89.77v-7.17h11.14zm-10.02-4.1h3.889v-2.016H90.89zm0 3.042h3.889v-2.032H90.89zm6.434 6.37c.785 0 .913-.256.993-2.049a3.7 3.7 0 0 0 1.1.449c-.16 2.161-.544 2.706-2 2.706H94.2c-1.713 0-2.161-.353-2.161-1.618v-3.17h1.185v3.155c0 .447.16.527 1.056.527zm-.5-1.936a15.6 15.6 0 0 0-3.313-2.337l.784-.721a14.329 14.329 0 0 1 3.346 2.258zm2.913-9.492h-3.789v2.016h3.793zm0 3.026h-3.789v2.033h3.793zm.561 4.465a15.869 15.869 0 0 1 2.257 3.906l-1.153.512a15.667 15.667 0 0 0-2.161-3.986zM106.746 143.693a26.624 26.624 0 0 0-2.689-1.713l.688-.832c.864.481 2.081 1.153 2.7 1.584zm1.008 2.256a60.248 60.248 0 0 1-2.305 5.123l-1.056-.656a50.646 50.646 0 0 0 2.433-5.123zm-.256-6.433c-.608-.481-1.793-1.265-2.657-1.826l.688-.816a30.578 30.578 0 0 1 2.673 1.7zm2.5 2.32c0 2.785-.272 6.739-2.161 9.412a3.631 3.631 0 0 0-.976-.624c1.809-2.562 1.969-6.163 1.969-8.788v-4.369h9.732v1.088H110zm2.545 5.234a15.876 15.876 0 0 1-2.017 3.282 8.857 8.857 0 0 0-.96-.608 10.842 10.842 0 0 0 1.905-2.962zm2.369-1.184v4.177c0 .593-.1.9-.544 1.074a6.439 6.439 0 0 1-2.177.159 4.281 4.281 0 0 0-.336-1.025c.768.033 1.472.016 1.648.016.208-.016.272-.063.272-.24v-4.161h-2.865V140.4h2.417a16.269 16.269 0 0 0 .465-1.617l1.328.272c-.224.465-.448.928-.656 1.345h3.489v5.49zm-2.932-3.186h4.866v-1.392h-4.866zm0 2.273h4.866v-1.41h-4.866zm5.026 1.68c.624.977 1.425 2.289 1.825 3.057l-1.089.48a31.437 31.437 0 0 0-1.761-3.136zM134.479 147.551h-14.134v-1.057h6.45v-1.44h-5.138v-.977h5.143v-1.312h-4.866v-5.474h10.9v5.474h-4.866v1.312h5.17v.977h-5.17v1.44h6.515zm-14.118 3.3a7.136 7.136 0 0 0 1.777-2.657l1.136.272a8.373 8.373 0 0 1-1.809 2.913zm6.434-9.092V138.3h-3.729v3.457zm-2.048-3.057a8.364 8.364 0 0 1 1.04 2.337l-.832.319a9.6 9.6 0 0 0-.993-2.384zm1.216 9.812a12.226 12.226 0 0 1 .352 2.546l-1.169.159a15.134 15.134 0 0 0-.288-2.625zm5.683-10.212h-3.682v3.457h3.682zm-2.4 10.1a14.881 14.881 0 0 1 .913 2.53l-1.169.288a18.65 18.65 0 0 0-.848-2.593zm-.56-7.186a16.821 16.821 0 0 0 1.233-2.528l.928.351c-.448.864-.976 1.858-1.392 2.5zm3.762 6.979a15.185 15.185 0 0 1 2.113 2.689l-1.153.448a16.086 16.086 0 0 0-2.033-2.769zM141.659 141.676h.688v2.289h-.736v6.135c0 .511-.1.767-.448.944a5.4 5.4 0 0 1-1.793.16 4.544 4.544 0 0 0-.336-.913 50.48 50.48 0 0 0 1.344.017c.177 0 .225-.064.225-.224v-2.1c-.753.465-1.473.913-2.145 1.3l-.449-.847c.689-.289 1.617-.77 2.594-1.282v-2.705h-2.514v2.145a8.655 8.655 0 0 1-1.1 4.769 3.628 3.628 0 0 0-.832-.639 7.414 7.414 0 0 0 .928-4.13v-2.625h-.785v-2.289h.656v-4.418h4.706zm-.256.865h-4.194v1.059h4.191zm-3.474-.865h.993V139.2h1.745v-1.024h-2.738zm1.953 5.33a13.413 13.413 0 0 0-1.7-1.408l.543-.544a11.434 11.434 0 0 1 1.746 1.3zm.785-5.33v-1.729h-1.041v1.729zm10.036 8.387v.929h-8.276v-.929h2.289a12.2 12.2 0 0 0-.56-1.5l.928-.272c.24.544.528 1.264.688 1.776h1.537c.24-.559.528-1.312.689-1.825l1.088.321c-.272.5-.56 1.056-.8 1.5zm-.144-5.585h-7.972v-.9h7.972zm-.4-1.73h-7.219v-4.817h1.985v-1.216h.976v1.216h1.153v-1.216h.976v1.216h2.129zm-6.786 5.459v-2.961h6.4v2.961zm.5-8.291h1.227v-1.137h-1.232zm0 1.984h1.227v-1.184h-1.232zm.56 5.506h4.242v-1.344h-4.242zm2.673-7.49v-1.137h-1.2v1.137zm-1.2.8v1.184h1.2v-1.184zm3.3-1.937h-1.3v1.137h1.3zm0 1.937h-1.3v1.184h1.3zM165.71 136.378l.96.5a10.01 10.01 0 0 0 0 14.246l-.96.5a10.705 10.705 0 0 1 0-15.238zM181.406 138.891a7.622 7.622 0 0 1-1.713 2.881 7.671 7.671 0 0 0 3.057 1.6 4.186 4.186 0 0 0-.688.9 8.4 8.4 0 0 1-3.089-1.809 10.173 10.173 0 0 1-2.737 1.553 4.136 4.136 0 0 0-.656-.785v.192h-.945a1.19 1.19 0 0 1-.288.559.765.765 0 0 1-.256.209c.384-.175.752-.352 1.1-.544l.721.656a22.1 22.1 0 0 1-2.753 1.072l2.817-.08c.7-.319 1.409-.64 2.065-.992l.656.736a40.663 40.663 0 0 1-5.73 2.289l6.1-.351c-.352-.289-.736-.561-1.072-.8l.784-.464a30.607 30.607 0 0 1 3.233 2.481l-.816.543c-.288-.287-.72-.639-1.184-1.039l-3.938.256v2.209c0 .592-.128.863-.608 1.024a8.785 8.785 0 0 1-2.369.175 3.405 3.405 0 0 0-.416-.992 15.472 15.472 0 0 0 1.936.017c.24-.017.3-.064.3-.24v-2.113c-4.482.3-5.073.367-5.458.5a11.418 11.418 0 0 0-.272-.945 10.914 10.914 0 0 0 2.1-.512c.448-.144 1.44-.465 2.625-.927a17.28 17.28 0 0 0-3.409.24 7.156 7.156 0 0 0-.273-.945 5.3 5.3 0 0 0 1.233-.256 17.372 17.372 0 0 0 2.417-.912 1.181 1.181 0 0 1-.352.064c-.256 0-.7 0-1.153-.033a1.952 1.952 0 0 0-.191-.656c.447.033.832.048 1.008.048a.5.5 0 0 0 .416-.144.84.84 0 0 0 .08-.128h-4.578c.1-.528.192-1.233.288-1.969h-1.2v-.72h1.28c.064-.576.128-1.169.176-1.681a5.821 5.821 0 0 1-.784.768 5.658 5.658 0 0 0-.864-.559 6.76 6.76 0 0 0 2.113-2.625l.976.223c-.1.208-.192.4-.3.609h4.882v.767H170.3a6.082 6.082 0 0 1-.5.657h5.363s-.017.272-.033.4a82.197 82.197 0 0 1-.095 1.441h.976v.72h-1.04c-.049.513-.113.912-.16 1.249h.768v.512a9.4 9.4 0 0 0 2.721-1.457 8.876 8.876 0 0 1-1.217-1.889 7.777 7.777 0 0 1-.816.929 5.953 5.953 0 0 0-.784-.753 6.886 6.886 0 0 0 2-3.361l1.025.192c-.112.384-.24.753-.384 1.12h4.4v.9zm-8.206 10.084a16.708 16.708 0 0 1-4.018 2.065 7.3 7.3 0 0 0-.88-.8 14.307 14.307 0 0 0 3.857-1.7zm-2.9-7.571c-.047.464-.111.9-.159 1.3h2.545a39.02 39.02 0 0 0-1.473-.976l.3-.321zm.193-1.824c-.032.383-.08.8-.128 1.2h2.545a11.926 11.926 0 0 0-1.457-.9l.3-.3zm3.393 3.121a12.233 12.233 0 0 0 .176-1.3h-2.273a15.422 15.422 0 0 1 1.393.881l-.352.416zm.24-1.922c.032-.351.064-.752.1-1.2h-2.161a12.209 12.209 0 0 1 1.3.735l-.368.464zm4.226 7.684a22.275 22.275 0 0 1 3.953 1.793l-.9.687a20.672 20.672 0 0 0-3.906-1.855zm-.672-9.524a7.218 7.218 0 0 0 1.328 2.145 5.932 5.932 0 0 0 1.312-2.193h-2.625zM189.659 141.676h.688v2.289h-.736v6.135c0 .511-.1.767-.448.944a5.4 5.4 0 0 1-1.793.16 4.544 4.544 0 0 0-.336-.913 50.48 50.48 0 0 0 1.344.017c.177 0 .225-.064.225-.224v-2.1c-.753.465-1.473.913-2.145 1.3l-.449-.847c.689-.289 1.617-.77 2.594-1.282v-2.705h-2.514v2.145a8.655 8.655 0 0 1-1.1 4.769 3.628 3.628 0 0 0-.832-.639 7.414 7.414 0 0 0 .928-4.13v-2.625h-.785v-2.289h.656v-4.418h4.706zm-.256.865h-4.194v1.059h4.191zm-3.474-.865h.993V139.2h1.745v-1.024h-2.738zm1.953 5.33a13.413 13.413 0 0 0-1.7-1.408l.543-.544a11.434 11.434 0 0 1 1.746 1.3zm.785-5.33v-1.729h-1.041v1.729zm10.036 8.387v.929h-8.276v-.929h2.289a12.2 12.2 0 0 0-.56-1.5l.928-.272c.24.544.528 1.264.688 1.776h1.537c.24-.559.528-1.312.689-1.825l1.088.321c-.272.5-.56 1.056-.8 1.5zm-.144-5.585h-7.972v-.9h7.972zm-.4-1.73h-7.219v-4.817h1.985v-1.216h.976v1.216h1.153v-1.216h.976v1.216h2.129zm-6.786 5.459v-2.961h6.4v2.961zm.5-8.291h1.227v-1.137h-1.232zm0 1.984h1.227v-1.184h-1.232zm.56 5.506h4.242v-1.344h-4.242zm2.673-7.49v-1.137h-1.2v1.137zm-1.2.8v1.184h1.2v-1.184zm3.3-1.937h-1.3v1.137h1.3zm0 1.937h-1.3v1.184h1.3zM213.79 139.531v7.491h-1.216v-.913h-4.594v5.191h-1.232v-5.187h-4.579v.994H201v-7.572h5.747v-2.849h1.232v2.849zm-7.042 5.41V140.7h-4.579v4.242zm5.826 0V140.7h-4.594v4.242zM228.094 140.668a16.9 16.9 0 0 1-3.746 6.194 15.706 15.706 0 0 0 6.466 3.249 5.507 5.507 0 0 0-.816 1.105 16.178 16.178 0 0 1-6.562-3.5 18.411 18.411 0 0 1-6.659 3.569 6.585 6.585 0 0 0-.736-1.1 17.2 17.2 0 0 0 6.53-3.314 18.044 18.044 0 0 1-3.842-6.194h-2.464V139.5h14.341v1.168zm-8.132 0a16.156 16.156 0 0 0 3.49 5.361 14.676 14.676 0 0 0 3.3-5.361zm3.393-1.2a12.421 12.421 0 0 0-1.184-2.513l1.233-.352a13.134 13.134 0 0 1 1.248 2.449zM246.254 144.334h-13.7v-.673h13.7zM254.779 138.459h-6.338v-.832h6.338v-.945h1.169v.945h6.45v.832h-6.45v.832h5.266v.785h-11.6v-.785h5.17zm7.619 11.6v.88h-13.957v-.88h6.338v-.848h-4.8v-.783h4.8v-.786a22 22 0 0 0-3.889.208 8.7 8.7 0 0 0-.272-.864 2.884 2.884 0 0 0 .864-.208 11.437 11.437 0 0 0 1.569-.784H250.3v-.736h10.149V146h-1.825a16.716 16.716 0 0 1 2.273 1.568l-.736.625a9.871 9.871 0 0 0-.785-.656l-3.425.08v.817h5.01v.783h-5.01v.848zm-1.44-4.049v-1.441h-11.141v1.441h-1.072v-2.273h13.333v2.273zm-.416-5.266v2.32H250.33v-2.32zm-1.169.7h-7.939v.912h7.939zM254.459 146a12.486 12.486 0 0 1-1.681.928l5.587-.08a17.136 17.136 0 0 0-1.233-.72l.144-.128zM266.33 143.613a10.4 10.4 0 0 0-2.289-1.681l.672-.8a9.931 9.931 0 0 1 2.337 1.585zm-1.985 6.883a52.5 52.5 0 0 0 2-5.09l.928.623c-.528 1.666-1.232 3.618-1.857 5.075zm2.257-11.029a10.567 10.567 0 0 0-2.209-1.777l.688-.784a9.5 9.5 0 0 1 2.241 1.7zm1.776 3.121a8.73 8.73 0 0 1-.7 2.209 5.7 5.7 0 0 0-.592-.384 7.009 7.009 0 0 0 .608-1.984zm2.145-.623a5.32 5.32 0 0 0-.192-.513 11.29 11.29 0 0 0-2.769.5 2.981 2.981 0 0 0-.272-.624c.24-.032.464-.24.736-.56a8.282 8.282 0 0 0 .993-1.2 6 6 0 0 0-1.473.224 3.373 3.373 0 0 0-.272-.607c.192-.034.32-.177.48-.416a7.749 7.749 0 0 0 .993-1.969l.752.271a8.877 8.877 0 0 1-1.073 1.873l1.073-.08c.144-.24.288-.464.416-.72l.72.32a14.934 14.934 0 0 1-1.968 2.561l1.408-.176c-.1-.176-.208-.352-.3-.529l.592-.208a6.617 6.617 0 0 1 .768 1.569zm7.427 6.146a2.6 2.6 0 0 1-.064.48c-.3 1.377-.624 2.081-1.056 2.4a1.869 1.869 0 0 1-1.2.3c-.48.016-1.44 0-2.449-.064a2.249 2.249 0 0 0-.336-.912c1.025.1 2.065.112 2.465.112a1.062 1.062 0 0 0 .672-.128c.272-.177.481-.593.689-1.376h-8.42a22.054 22.054 0 0 0 .688-2.386h7.22v-.832h-7.8v-.769h8.9v2.37h-7.411c-.064.271-.144.543-.224.8zm-8.883-3.586a8.642 8.642 0 0 0-.353-1.968l.625-.161a7.736 7.736 0 0 1 .384 1.905zm1.424-2.384a6.714 6.714 0 0 1 .576 1.713l-.608.271a9.059 9.059 0 0 0-.56-1.793zm4.258-3.121h-3.842v-.737h1.7a6.186 6.186 0 0 0-.624-1.265l.816-.207a8.256 8.256 0 0 1 .688 1.263l-.7.209h1.969zm-3.409 2.992h3.009v2.353h-3.009zm2.993-1.76h-2.945v-.672h2.945zm-2.945.512h2.945v.656h-2.945zm.736 2.945h1.409v-1.057h-1.409zm3.666-1.185a9.4 9.4 0 0 1-.689 2.209 4.7 4.7 0 0 0-.624-.416 6.209 6.209 0 0 0 .624-1.953zM278 142c-.048-.176-.144-.367-.24-.607a18.213 18.213 0 0 0-2.785.5 3.341 3.341 0 0 0-.272-.625c.256-.031.464-.224.752-.528a11.471 11.471 0 0 0 .977-1.2 4.531 4.531 0 0 0-1.473.225 3.494 3.494 0 0 0-.272-.625c.192-.016.3-.176.464-.4a7.386 7.386 0 0 0 1.009-1.968l.752.272a8.756 8.756 0 0 1-1.073 1.857l1.057-.064q.24-.36.432-.72l.736.32a15.567 15.567 0 0 1-1.968 2.545l1.392-.176c-.1-.177-.192-.353-.288-.513l.56-.207a6.359 6.359 0 0 1 .848 1.68zm-1.5 2.657a8.853 8.853 0 0 0-.4-2.129l.64-.16a8.6 8.6 0 0 1 .4 2.081zm1.392-2.545a8.122 8.122 0 0 1 .7 2l-.624.288a8.7 8.7 0 0 0-.656-2.1zM281.1 151.616l-.96-.5a10.01 10.01 0 0 0 0-14.246l.96-.5a10.705 10.705 0 0 1 0 15.238zM297 138.331h3.682c2.384 0 4.1.864 4.1 3.314a3.181 3.181 0 0 1-2.657 3.3l3.009 5.139h-1.68L300.6 145.1h-2.11v4.978H297zm3.457 5.569c1.841 0 2.85-.736 2.85-2.255 0-1.553-1.009-2.1-2.85-2.1h-1.967v4.355zM306.217 145.742c0-2.817 1.905-4.578 3.921-4.578 2.209 0 3.458 1.6 3.458 4.082a5.827 5.827 0 0 1-.064.832h-5.859a2.881 2.881 0 0 0 2.882 3.041 3.752 3.752 0 0 0 2.176-.687l.529.959a5.17 5.17 0 0 1-2.882.9c-2.305-.004-4.161-1.684-4.161-4.549zm6.1-.721c0-1.744-.8-2.689-2.161-2.689a2.67 2.67 0 0 0-2.5 2.689zM314.9 151.744a2.441 2.441 0 0 1 1.28-1.969v-.064a1.571 1.571 0 0 1-.8-1.424 2.12 2.12 0 0 1 .976-1.617v-.07a3.045 3.045 0 0 1-1.136-2.335 3.1 3.1 0 0 1 3.265-3.106 3.545 3.545 0 0 1 1.217.225h3.025v1.119h-1.777a2.485 2.485 0 0 1 .705 1.793 3.123 3.123 0 0 1-4.466 2.721 1.3 1.3 0 0 0-.561 1.04c0 .561.352.946 1.521.946h1.7c2.017 0 3.041.639 3.041 2.064 0 1.616-1.713 3.009-4.4 3.009-2.129.005-3.59-.827-3.59-2.332zm6.562-.448c0-.8-.624-1.072-1.777-1.072h-1.5a4.9 4.9 0 0 1-1.121-.144 1.81 1.81 0 0 0-.88 1.473c0 .927.944 1.536 2.513 1.536 1.666 0 2.77-.88 2.77-1.789zm-1.12-7.026a1.865 1.865 0 1 0-3.714 0 1.867 1.867 0 1 0 3.714 0zM324.457 146.9v-5.506h1.456v5.33c0 1.616.481 2.3 1.633 2.3.9 0 1.52-.432 2.353-1.472v-6.162h1.456v8.691h-1.216l-.112-1.361h-.048a3.726 3.726 0 0 1-2.881 1.568c-1.825-.001-2.641-1.188-2.641-3.388zM334.281 148.352v-11.014h1.456v11.109c0 .448.192.624.416.624a1.29 1.29 0 0 0 .305-.032l.208 1.121a2.25 2.25 0 0 1-.849.127c-1.088 0-1.536-.703-1.536-1.935zM338.3 147.822c0-1.888 1.649-2.832 5.347-3.249 0-1.12-.369-2.192-1.793-2.192a4.79 4.79 0 0 0-2.609.928l-.576-1.008a6.527 6.527 0 0 1 3.425-1.137c2.113 0 3.009 1.424 3.009 3.569v5.347h-1.2l-.128-1.041h-.048a4.652 4.652 0 0 1-2.881 1.248 2.357 2.357 0 0 1-2.546-2.465zm5.347.145v-2.434c-2.93.353-3.922 1.072-3.922 2.194 0 .992.673 1.392 1.537 1.392a3.555 3.555 0 0 0 2.381-1.152zM347.865 141.389h1.2l.128 1.584h.048a3 3 0 0 1 2.465-1.809 1.869 1.869 0 0 1 .929.191l-.273 1.282a2.039 2.039 0 0 0-.848-.145c-.72 0-1.617.513-2.193 2v5.587h-1.456z" fill="#178217"/><path d="M467.838 243.3c-2.272 3.456-6.4 6.336-12.318 8.672l-2.081-3.776c7.584-2.72 10.623-5.536 11.711-8.223h-10.911v-3.808h11.488v-4.128h-10.016v-3.712h5.824c-1.377-1.759-2.944-3.84-3.1-3.967l3.295-2.112c1.439 1.823 3.9 4.768 4.064 5.056l-1.568 1.023h4.863c1.7-2.048 3.809-4.863 4.8-6.367l3.616 2.111c-.864 1.153-2.176 2.785-3.393 4.256h5.729v3.712h-9.984v4.128h11.519v3.808h-11.042c1.824 3.743 5.728 6.463 11.9 8.031l-1.92 3.9c-5.724-1.696-10.014-4.604-12.476-8.604zM499.838 243.3c-2.272 3.456-6.4 6.336-12.318 8.672l-2.081-3.776c7.584-2.72 10.623-5.536 11.711-8.223h-10.911v-3.808h11.488v-4.128h-10.016v-3.712h5.824c-1.377-1.759-2.944-3.84-3.1-3.967l3.295-2.112c1.439 1.823 3.9 4.768 4.064 5.056l-1.568 1.023h4.863c1.7-2.048 3.809-4.863 4.8-6.367l3.616 2.111c-.864 1.153-2.176 2.785-3.393 4.256h5.729v3.712h-9.984v4.128h11.519v3.808h-11.042c1.824 3.743 5.728 6.463 11.9 8.031l-1.92 3.9c-5.724-1.696-10.014-4.604-12.476-8.604zM534.174 249.92v1.38h-3.615v-14.339l-.512.735-1.152-1.535v9.055l1.12-.192.192 3.776c-2.145.223-10.176 1.311-12.32 1.7l-.32-3.776 1.408-.16v-21.827h9.92v7.712a44.085 44.085 0 0 0 3.359-9.567l3.808.512q-.48 2.207-1.056 4.127h3.775c-.638-1.152-1.439-2.368-2.111-3.423l2.816-1.728c.832 1.119 2.079 3.039 2.752 4.1l-1.856 1.055h5.6v3.648h-4.608v2.56h4.1v3.456h-4.1v2.656h4.1v3.455h-4.1v2.976h4.992v3.648zm-11.615-18.431h2.816v-3.168h-2.816zm0 6.848h2.816V235.1h-2.816zm2.816 7.392v-3.777h-2.816v4.16zm8.8-12h3.553v-2.56h-3.553zm0 6.112h3.553v-2.656h-3.553zm0 6.431h3.553V243.3h-3.553zM555.486 228.129h4.993v16.959l1.248-.863v-2.145h11.519v3.328h-10.783l.64 1.984a41.978 41.978 0 0 0-4.32 3.1l-2.24-2.592a2.277 2.277 0 0 0 .607-1.952v-14.363h-1.664c-.063 10.048-.832 13.631-3.646 19.455l-3.105-1.76c2.4-4.768 3.105-8.095 3.327-17.695h-2.3v-3.456h2.367c0-2.016.032-4.287.032-5.279h3.327zm15.328 19.807c2.336 0 2.688-.288 2.816-1.824.063-.7.319-4.927.319-5.7h-11.775v-15.23h3.969c.32-.9.607-1.953.767-2.624l3.776.383c-.127.576-.384 1.441-.64 2.241h6.208c-.1.864-.353 7.551-.385 7.967-.1 2.88-.959 3.52-4.223 3.52h-2.816l-.544-3.04h1.025c-.929-1.088-2.209-2.432-3.233-3.487l1.729-1.7h-2.176v8.863h12.158c-.031.481-.384 8.128-.447 9.024-.256 4.063-1.313 4.992-5.632 4.992h-4.384l-.736-3.392zm-1.312-14.3h.736c1.535 0 2.016-.224 2.047-1.184l.256-4h-3.967a94.542 94.542 0 0 1 3.2 3.3zM594.846 225.985h14.783v3.648h-16.318a38.8 38.8 0 0 1-3.968 6.687v14.751h-3.808v-10.335q-1.248 1.2-2.592 2.4l-2.3-3.3a34.906 34.906 0 0 0 8.255-10.208h-7.008v-3.648h8.767a37.111 37.111 0 0 0 1.313-3.584l3.807.9c-.322.93-.611 1.826-.931 2.689zm6.688 13.343v6.688h8.066v3.648h-19.873v-3.648h8.031v-6.688H591.1v-3.615h6.655v-4.544h3.776v4.544h6.88v3.615zM613.088 233.057l2.239-3.136c1.568 1.024 4.416 3.1 6.144 4.351l-2.272 3.265c-1.76-1.376-4.672-3.488-6.111-4.48zm4.478 17.951-3.838-1.28c.639-1.6 3.423-9.44 3.9-10.912l3.775 1.281c-.476 1.603-3.324 9.695-3.837 10.911zm-2.751-24.958 2.24-3.072c1.343.96 4.384 3.1 5.824 4.223l-2.24 3.2c-1.375-1.12-4.287-3.263-5.824-4.351zm25.31 2.111v18.5c0 3.552-1.088 4.7-5.184 4.7h-4.191l-.7-3.711h3.935c1.952 0 2.3-.256 2.3-2.047v-17.44H622.91v-3.615h19.36v3.615zm-6.3 2.817v13.31h-10.786v-13.31zm-7.2 9.854h3.743v-6.4h-3.743zM661.566 250.144c-5.312 0-7.423-.48-9.471-2.752a3.8 3.8 0 0 0-1.184-.96 2.925 2.925 0 0 0-.992.928l-2.176 2.848-2.815-3.3c.959-1.28 2.4-3.072 3.391-4.16a2.965 2.965 0 0 1 2.368-1.247 2.409 2.409 0 0 1 .928.191 137.679 137.679 0 0 0 15.391-10.047h-18.591v-3.807h10.5c-.672-1.313-1.76-3.233-2.207-4.1l3.711-1.28c.672 1.152 2.208 3.968 2.816 5.088l-.864.288h10.271v3.807a98.937 98.937 0 0 1-18.014 12.927c1.567 1.44 3.135 1.728 6.623 1.728h13.215l-.768 3.84zM677.088 232.865l2.176-2.816c1.408 1.024 3.966 3.008 5.439 4.128l-2.176 2.944c-1.568-1.28-4.095-3.264-5.439-4.256zm21.277 1.184v16.222h-3.327v-11.23l-1.983.672c-.449-1.664-.9-3.616-1.377-5.408-.1 9.151-1.024 12.8-4.287 17.47l-3.455-2.079c3.2-3.936 4.191-7.168 4.382-14.207-.447 1.728-.927 3.52-1.408 5.056l-2.592-.864c-.735 2.368-2.752 9.023-3.295 11.039l-3.456-1.024c.7-2.144 2.945-9.248 3.488-11.263l2.816.767a64.8 64.8 0 0 0 2.207-8.735l2.273.544v-7.871h3.327v7.967l1.92-.671c.416 1.439.961 3.359 1.44 5.183v-11.552h3.327v7.1l1.92-.64 1.6 5.632v-13.052h3.327v27.807h-3.327V239.1l-2.048.577c-.447-1.724-.959-3.772-1.472-5.628zm-19.806-8.255 2.08-2.816c1.5.992 4.192 3.072 5.664 4.192l-2.272 2.943a66.072 66.072 0 0 0-5.472-4.319zM454.719 273.346h11.488c-.353-.64-.7-1.281-.929-1.632l3.521-1.536c.191.448 1.119 2.08 1.76 3.168h10.846v5.471h-2.847l3.071 1.056-1.088 3.52c-2.56-1.056-8.639-3.232-11.423-4.127l1.088-2.624H465.6l1.12 2.687c-1.473.576-3.168 1.248-4.928 1.888l1.216.8a22.3 22.3 0 0 1-3.521 4.1l3.008-.159c1.025-1.248 1.985-2.432 2.561-3.265l2.24 1.6v-.32h2.176c.031-1.248.063-2.56.095-3.04h3.584c0 .448-.064 1.759-.095 3.04h7.711l-.608 10.911c-.16 3.1-1.345 4.032-4.961 4.032h-3.519l-.737-3.584h3.358c1.887 0 2.239-.16 2.336-1.664.128-1.248.383-5.632.416-6.079h-4.193c-.416 5.983-2.111 8.607-6.783 12.223l-2.879-2.624c.64-.48 1.215-.9 1.728-1.312-2.689.224-7.361.672-9.152 1.024l-1.023-3.648a6.057 6.057 0 0 0 2.079-1.12 27.216 27.216 0 0 0 3.008-3.071c-1.728.095-3.712.255-4.735.416l-.768-3.136a2.9 2.9 0 0 0 1.76-.96 75.218 75.218 0 0 0 2.718-3.105 71.16 71.16 0 0 1-3.23 1.025l-1.057-3.584 2.944-.9h-2.752zm9.088 3.3h-5.248v1.823c1.824-.579 3.616-1.22 5.248-1.827zm5.535 10.943H467.3v-2.528c-1.984 2.752-5.889 7.135-7.233 8.063l3.84-.384-1.119-1.887 2.592-1.473c.64.992 1.535 2.4 2.336 3.712a9.287 9.287 0 0 0 1.626-5.507zm8.16-9.12v-1.823h-5.376c1.536.54 3.52 1.179 5.374 1.819zM486.559 273.281h11.456l-.993-1.983 3.777-1.152c.256.416.991 1.952 1.567 3.135h10.944v5.76h-3.424c1.28.448 2.495.864 3.424 1.152l-1.216 3.392-1.184-.416 1.375 1.952a54.064 54.064 0 0 1-5.248 3.039c1.729.736 3.681 1.569 5.121 2.208l-.609 1.153 2.976.576-.16 3.007c-.16 3.007-1.408 3.872-4.832 3.872h-4.063c-3.136 0-4.511-1.024-4.511-4.192v-13.343h3.841v3.968a40.249 40.249 0 0 0 5.056-2.624c-2.944-1.024-6.752-2.336-8.832-2.975l1.248-3.265h-11.745v2.464c2.368-.8 4.832-1.663 6.751-2.432l1.345 3.136a149.413 149.413 0 0 1-8.641 3.136c1.473.768 3.68 1.92 4.9 2.591v-4.031h3.647v6.207c0 6.848-2.143 9.312-9.758 12.447l-2.624-3.327c5.5-1.92 7.583-3.168 8.35-5.6-2.623.8-7.039 2.111-7.711 2.335l-.832-3.52c.641-.1 3.9-.992 6.592-1.76-1.439-.927-3.775-2.271-5.119-3.04l1.311-1.92c-.352.129-.736.225-1.088.321l-1.024-3.328c1.152-.32 2.4-.736 3.68-1.152h-3.744zm8.32 14.24v-1.888L493.215 288c.607-.191 1.185-.319 1.664-.479zm14.463-8.64v-2.336h-7.072c1.63.513 4.448 1.473 7.072 2.336zm-3.712 8.64-.832-1.44v1.219l.063-.128c.225.128.513.221.769.349zm-.832 3.167v3.041c0 1.215.32 1.727 1.727 1.727h2.241c1.6 0 1.984-.288 1.984-1.632 0-.256.031-.512.031-.768l-.223.416c-1.601-.736-3.872-1.888-5.758-2.784zM531.295 277.857v3.3h4.543v3.643h-3.648v2.176l2.432-.96c.48 1.152 1.664 3.775 2.5 5.631.416-.576.831-1.184 1.184-1.792a44.634 44.634 0 0 1-3.1-13.663h-.16v-3.616H545.6v3.616a44.252 44.252 0 0 1-3.553 13.7 27.372 27.372 0 0 0 5.217 6.847l-2.752 2.751a43.075 43.075 0 0 1-4.416-6.079 42.985 42.985 0 0 1-5.088 6.367l-2.752-2.687a35.036 35.036 0 0 0 3.872-4.1l-1.536.672L532.19 288v7.263c0 2.88-1.055 3.776-4 3.776h-2.59l-.7-3.616h.384l-3.04-1.344-1.248 4.832-3.52-1.057c.449-1.695 2.591-9.567 2.976-11.134l3.328 1.055c-.192.928-.9 3.712-1.536 6.3a54.484 54.484 0 0 0 3.1-8.224l3.1 1.088a76.749 76.749 0 0 1-2.976 8.48h1.376c1.6 0 1.759-.352 1.759-1.5V284.8h-4.448v-1.952l-1.951 2.624c-1.535-1.344-3.936-3.392-5.248-4.352l2.272-2.815c1.281.927 3.488 2.655 4.927 3.775v-.928h3.488v-10.014h3.649v3.072h3.391v3.647zm-12.672-3.839 2.24-2.816c1.313 1.024 3.9 2.944 5.344 4.127l-2.271 3.105c-1.345-1.216-4.065-3.424-5.313-4.416zm21.631 11.519a48.864 48.864 0 0 0 2.016-9.344h-3.9a48.562 48.562 0 0 0 1.884 9.344zM565.246 294.272c-3.2 2.08-7.615 3.744-14.015 5.631l-1.856-3.9a51.314 51.314 0 0 0 11.52-4c-2.72-1.376-5.312-2.655-7.616-3.68a88.173 88.173 0 0 0 3.424-7.711h-6.88v-3.9h8.255a71.021 71.021 0 0 0 1.729-6.239l4.16.832c-.448 1.76-.961 3.584-1.536 5.407H578.4v3.9h-4.864c-1.119 4.768-2.5 8.16-4.894 10.815 3.039 1.536 6.207 3.232 9.087 4.736l-2.369 3.776a218.486 218.486 0 0 0-10.114-5.667zm4.1-13.663h-8.256a70.408 70.408 0 0 1-2.432 5.984c1.7.735 3.744 1.695 5.985 2.815 2.332-2.176 3.707-4.959 4.699-8.799zM607.229 271.842v5.376h3.2v3.263h-3.2v5.44h-15.454a14.239 14.239 0 0 1-.865 1.888h16.832v11.455H603.9v-.993h-13.086v.993h-3.839v-6.272a59.102 59.102 0 0 1-3.967 3.615l-2.112-3.3c3.2-2.56 5.311-4.8 6.687-7.391H583.2v-3.3h5.632a14.265 14.265 0 0 0 .416-2.144h-7.264v-3.263h7.583c.065-.737.1-1.441.129-2.08h-5.633v-3.3zm-16.415 23.134H603.9V291.1h-13.086zm1.92-12.351h10.592v-2.144h-10.24a19.743 19.743 0 0 1-.352 2.144zm.641-5.407h9.951v-2.08h-9.791c-.035.639-.097 1.343-.16 2.08zM630.238 287.169v7.647c0 3.328-1.023 4.288-4.863 4.288H620.9l-.768-3.808h3.968c1.823 0 2.112-.256 2.112-1.824v-6.3H614.08v-3.776h12.127v-2.5l8.1-4.9h-17.828v-3.775h24.607v3.807l-10.848 6.528v.832h11.711v3.776zM662.366 295.392c1.441 0 1.76-.256 1.76-1.6v-6.815h-6.3v-3.392a26.337 26.337 0 0 1-2.143 7.3l3.84 3.04-2.624 3.2c-.993-.9-2.145-1.888-3.36-2.944a35.487 35.487 0 0 1-5.76 5.311l-2.943-2.783a29.046 29.046 0 0 0 5.663-5.023 110.663 110.663 0 0 0-4.159-3.168 82.484 82.484 0 0 0 1.92-8.864h-2.24v-3.844h2.815c.192-1.6.384-3.264.544-5.056l3.808.256c-.128 1.344-.32 3.008-.576 4.8h5.824v3.679c-.193 1.312-.353 2.528-.544 3.648h6.239V279.9l5.024-3.807h-9.984v-3.803h15.1v3.775l-6.3 5.184v1.888h6.527v3.84h-6.527v8.159c0 3.1-1.056 4.063-4.448 4.063h-3.36l-.767-3.807zm-9.823-6.944a29.713 29.713 0 0 0 2.271-8.8H652c-.416 2.528-.96 5.12-1.536 7.263zM691.519 298.72c-4.289 0-6.4-.576-8.705-3.328l-3.679 3.807-2.176-3.775 3.9-3.424v-7.52h-3.2v-3.647h6.91v11.135c1.7 2.4 3.616 3.1 7.52 3.1h14.463l-.736 3.648zm-13.056-25.439 3.072-2.3c1.024 1.248 3.168 4.032 4.32 5.6l-3.1 2.5c-.932-1.448-3.204-4.424-4.292-5.8zm19.3 1.76h2.937l-2.336-2.079 2.176-2.5a89.472 89.472 0 0 1 3.713 3.231l-1.185 1.344h2.945v3.584h-2.785l2.369 1.984c-1.344 1.5-3.233 3.424-4.8 4.959 1.952 1.536 4.415 3.552 5.792 4.609l-2.432 2.879-6.4-5.5v3.712c0 2.687-1.088 3.423-4.543 3.423h-2.881l-.735-3.36H692c1.729 0 2.049-.384 2.049-1.472v-2.431c-2.305 1.632-4.928 3.455-7.008 4.831l-2.049-3.327a104.171 104.171 0 0 0 9.057-5.792v-4.512h-4.832c1.056 1.056 2.815 3.008 3.775 3.968l-2.783 2.559c-.9-1.088-2.944-3.423-3.969-4.511l2.241-2.016h-1.792v-3.584h7.36v-4.1h3.711zm1.888 9.632-1.568-1.569a35.371 35.371 0 0 0 4.576-4.479h-4.9v6.275l.9-.991z"/><path d="m535.447 323.148 1.137-1.568a40.487 40.487 0 0 1 3.3 2.4l-1.216 1.665c-.916-.736-2.451-1.968-3.221-2.497zm2.066 9.157-1.857-.961c.512-.9 2.24-4.466 2.576-5.266l1.826.864c-.433.832-2.158 4.466-2.545 5.363zm-1.313-12.837 1.216-1.553c.753.544 2.369 1.809 3.121 2.385l-1.248 1.633c-.752-.641-2.272-1.873-3.089-2.465zm13.222-.849v1.969a16.667 16.667 0 0 1-3.121 6.8 23.023 23.023 0 0 0 4.144 3.073l-1.279 1.969a23.388 23.388 0 0 1-4.322-3.457 26.973 26.973 0 0 1-4.754 3.521l-1.248-1.921a23.342 23.342 0 0 0 4.64-3.2 17.369 17.369 0 0 1-2.832-6.531l.737-.224h-.85v-2zm-4.5 7.219a13.264 13.264 0 0 0 2.385-5.218h-4.69a13.7 13.7 0 0 0 2.307 5.218zM560.955 329.2a23.637 23.637 0 0 1-4.609 3.186l-.961-1.489V332h-1.9v-6.61c-.335.464-.687.944-1.072 1.408l-1.137-2.112a17.76 17.76 0 0 0 3.538-6.8l1.953.544c-.16.544-.321 1.056-.5 1.552l1.777-.591a16.14 16.14 0 0 0 2.912 6.883c1.361-1.761 2.049-3.922 2.578-7.188l1.92.416c-.752 3.778-1.633 6.259-3.169 8.244a18.187 18.187 0 0 0 4.13 2.945l-1.041 1.825a22.729 22.729 0 0 1-4.419-3.316zm-1.344-1.5a18.514 18.514 0 0 1-3.377-7.619c-.256.7-.545 1.393-.849 2.049v8.436a23.426 23.426 0 0 0 4.226-2.872zm-.785-8.947 1.73-.881c.448.817 1.376 2.594 1.808 3.474l-1.808.929c-.417-.951-1.249-2.664-1.73-3.528zM575.259 320.523a2.138 2.138 0 0 1-.224.3h1.1v.736h2.849v-.736h1.761v.736h1.04V323h-1.04v4.738h1.345v1.536h-2.69a250.3 250.3 0 0 1 2.9 1.745l-.929 1.473c-.928-.641-2.465-1.633-3.346-2.129l.673-1.089h-2.3l.688 1.073a53.541 53.541 0 0 1-3.554 2.1l-.736-1.44c-.257.544-.8.736-1.616.736h-1.089l-.368-1.568a17.013 17.013 0 0 1-.912 2l-1.553-.8c1.3-2.385 1.408-3.394 1.584-7.459.016-.192.016-1.36.033-2.32h-.961v-1.7h2.209c-.225-.544-.545-1.152-.785-1.6l1.762-.624c.32.656.687 1.44.943 2.081l-.4.143h1.52v.544a9.564 9.564 0 0 0 1.744-2.736l1.65.544-.337.672h5.795v1.6zm-4.786 4.243a17.119 17.119 0 0 1-.721 5.314h.816c.673 0 .753-.144.8-.656s.145-4.147.145-4.658zm.032-3.169c-.017.431 0 .944 0 1.471h2.657l-.16 7a2.454 2.454 0 0 1-.128.753 17.955 17.955 0 0 0 2.817-1.537h-2.5v-1.536h1.154v-4.738h-.929v-1.441h.576l-.832-.576v.609zm5.634 2.064h2.849v-.656h-2.849zm0 2.049h2.849v-.641h-2.849zm0 2.033h2.849v-.593h-2.849zM596.973 318.363v6h-5.138v.689h5.2v1.633h-5.2v.7h6.1v1.632h-1.6a36.18 36.18 0 0 1 1.633 2.417l-1.665.96a39.231 39.231 0 0 0-1.649-2.72l1.217-.657h-2.914a23.86 23.86 0 0 1 1.2 2.545l-1.824.544c-.225-.591-.689-1.841-1.041-2.512l1.664-.577h-6.994l1.168.5a15.658 15.658 0 0 1-1.568 2.945l-1.793-.961a13.567 13.567 0 0 0 1.617-2.481h-1.442v-1.632h6.1v-.7h-5.219v-1.633h5.219v-.689h-5.154v-6zm-10.26 4.369h1.553c-.449-.671-1.153-1.68-1.473-2.064l1.1-.7h-1.184zm1.217 6.788 1.76-.369c.224.657.593 1.969.752 2.625l-1.921.353c-.127-.753-.416-1.953-.591-2.609zm.7-6.788h1.409v-2.768H588.3c.384.5 1.1 1.488 1.473 2.016zm4.93-2.768h-1.729v2.768h1.233l-1.041-.784a19.812 19.812 0 0 0 1.541-1.984zm.047 2.768h1.537v-2.768h-1.1l1.04.7a41.564 41.564 0 0 1-1.473 2.068zM606.249 324.958a3.033 3.033 0 0 1-1.969-2.626c0-1.92 1.552-3.345 4.21-3.345 2.593 0 4.161 1.376 4.161 3.345a2.9 2.9 0 0 1-1.952 2.626 3.048 3.048 0 0 1 2.336 2.9c0 2.578-2.16 3.619-4.545 3.619-2.4 0-4.53-1.041-4.53-3.619a3.134 3.134 0 0 1 2.289-2.9zm2.241 4.657a2 2 0 0 0 2.193-1.856c.016-1.217-.96-1.841-2.193-1.841s-2.178.641-2.193 1.841a1.97 1.97 0 0 0 2.193 1.856zm0-5.538a1.638 1.638 0 0 0 1.809-1.616 1.848 1.848 0 1 0-1.809 1.616zM619.545 318.987c2.226 0 4.723 1.649 4.723 6.242s-2.4 6.244-4.723 6.244c-2.273 0-4.7-1.633-4.7-6.244s2.475-6.242 4.7-6.242zm0 10.4c1.441 0 2.369-1.5 2.369-4.163s-.943-4.177-2.369-4.177-2.353 1.5-2.353 4.177.929 4.168 2.353 4.168z" fill="#178217"/></svg>