<svg xmlns="http://www.w3.org/2000/svg" viewBox="0 0 62.292 180.75"><defs><style>.cls-1{fill:#231815}.cls-2,.cls-3{fill:none}.cls-2{stroke:#b6d278;stroke-width:.75px}.cls-3{stroke:#231815;stroke-width:.5px}</style></defs><g id="レイヤー_2" data-name="レイヤー 2"><g id="レイヤー_1-2" data-name="レイヤー 1"><path class="cls-1" d="M34.717 7.763s0 1.152-.036 1.584c-.504 16.234-.936 21.814-2.375 23.613a4.014 4.014 0 0 1-3.132 1.692 38.662 38.662 0 0 1-5.436 0 7.836 7.836 0 0 0-1.08-3.24c2.304.18 4.392.216 5.292.216a1.614 1.614 0 0 0 1.512-.611c1.151-1.188 1.62-6.624 2.088-20.194h-8.495a36.24 36.24 0 0 1-3.276 6.047 17.648 17.648 0 0 0-2.628-1.872V31.52H7.396v2.736h-3.06V7.943h4.032a42.177 42.177 0 0 0 1.26-5.83l3.636.611c-.612 1.8-1.296 3.708-1.872 5.22h5.76v6.803c2.376-3.096 4.283-7.884 5.363-12.635l3.24.756c-.432 1.656-.9 3.312-1.476 4.895ZM7.397 10.86v6.84h6.695v-6.84Zm6.695 17.71v-7.955H7.396v7.955Zm11.986-2.808a58.62 58.62 0 0 0-5.255-8.315l2.627-1.476a64.605 64.605 0 0 1 5.436 8.027ZM21.219 68.42c-8.028 0-13.823-5.003-13.823-13.642 0-8.567 5.94-13.822 13.823-13.822a12.786 12.786 0 0 1 8.999 3.383l-2.412 2.7a9.268 9.268 0 0 0-6.444-2.447c-5.579 0-9.646 3.887-9.646 10.078 0 6.228 3.743 10.116 9.934 10.116a9.21 9.21 0 0 0 5.076-1.332v-6.12h-6.263v-3.456h10.079v11.446a13.658 13.658 0 0 1-9.323 3.096ZM10.15 77.892h6.876c8.135 0 12.778 4.5 12.778 13.138 0 8.604-4.643 13.355-12.562 13.355H10.15Zm6.588 23.073c5.686 0 8.746-3.348 8.746-9.935 0-6.623-3.06-9.755-8.746-9.755h-2.412v19.69ZM9.988 113.424h8.927c6.839 0 11.339 2.051 11.339 8.026 0 5.796-4.571 8.495-11.16 8.495h-4.93v10.043H9.988Zm8.675 13.137c4.968 0 7.451-1.583 7.451-5.11 0-3.564-2.7-4.68-7.63-4.68h-4.32v9.79ZM21.255 175.304c1.115.108 2.376.144 3.67.144 1.585.036 8.784 0 10.908-.036a11.488 11.488 0 0 0-1.152 3.167h-9.935c-6.875 0-11.446-1.008-14.398-5.579a17.54 17.54 0 0 1-5.328 6.3 19.576 19.576 0 0 0-2.483-2.376c3.672-2.34 5.903-6.299 6.803-11.303l3.347.468a29.023 29.023 0 0 1-.899 3.384 8.753 8.753 0 0 0 6.12 5.255v-10.079h-14.4v-2.952h31.533v2.952H21.255v3.42H32.7v2.915H21.255Zm10.043-15.694H7.072v-12.094h24.226Zm-3.384-9.611H10.312v2.412h17.602Zm0 4.752H10.312v2.411h17.602Z"/><path class="cls-2" d="M.375 144.375h36v36h-36zM.375 108.375h36v36h-36zM.375 72.375h36v36h-36zM.375 36.375h36v36h-36zM.375.375h36v36h-36z"/><path class="cls-3" d="m43.876 7.117-7.248 4.186 7.248 4.184M36.628 11.303h13"/><path class="cls-1" d="M60.253 7.717a12.659 12.659 0 0 1-2.807 4.641 11.78 11.78 0 0 0 4.846 2.435 4.134 4.134 0 0 0-.612.828 12.13 12.13 0 0 1-4.917-2.627 13.784 13.784 0 0 1-4.99 2.674 4.964 4.964 0 0 0-.551-.827 12.894 12.894 0 0 0 4.893-2.483 13.526 13.526 0 0 1-2.879-4.641H51.39V6.84h10.746v.876Zm-6.093 0a12.134 12.134 0 0 0 2.614 4.018 11.004 11.004 0 0 0 2.471-4.018Zm2.543-.9a9.395 9.395 0 0 0-.888-1.882l.924-.265a9.887 9.887 0 0 1 .936 1.835ZM61.848 24.01h-4.654v2.58c0 .527-.132.79-.551.923a7.15 7.15 0 0 1-2.038.155 3.628 3.628 0 0 0-.409-.875c.816.024 1.583.024 1.787.012.228-.012.289-.06.289-.228v-2.566h-4.678v-.852h4.677v-.744a9.953 9.953 0 0 0 2.087-1.403h-4.797v-.84h5.697l.191-.048.612.456a12.076 12.076 0 0 1-2.867 2.135v.444h4.654Zm-9.235-3.574h-.876V17.99h4.726a7.202 7.202 0 0 0-.623-1.055l.851-.288a6.64 6.64 0 0 1 .803 1.343h4.235v2.447h-.913V18.84h-8.203ZM56.427 30.517l.612.205c-.624 4.7-2.47 7.52-5.014 8.922a3.25 3.25 0 0 0-.731-.731 8 8 0 0 0 3.406-3.418 18.676 18.676 0 0 0-1.943-2.015 8.94 8.94 0 0 1-.755 1.115 4.926 4.926 0 0 0-.733-.563 11.897 11.897 0 0 0 2.28-5.302l.875.168a22.47 22.47 0 0 1-.432 1.667h2.255Zm-2.723.888a12.24 12.24 0 0 1-.575 1.355 21.186 21.186 0 0 1 1.978 1.871 14.96 14.96 0 0 0 .888-3.226Zm5.602.936a24.042 24.042 0 0 1 2.962 2.71l-.707.611a21.705 21.705 0 0 0-2.58-2.495v6.513h-.911V28.743h.911v3.862ZM53.872 44.46c.372.408 1.32 1.524 1.535 1.787l-.468.768c-.203-.348-.683-1.031-1.067-1.572v6.213h-.827v-5.709a12.803 12.803 0 0 1-1.487 3.239 4.806 4.806 0 0 0-.456-.852 12.038 12.038 0 0 0 1.883-4.294h-1.691v-.827h1.75v-2.507h.828v2.507h1.32v.827h-1.32Zm8.36 5.84v.816h-6.728v-9.678h6.536v.827h-5.685v8.036Zm-3.43-1.942v-1.859h-1.715v-.756h1.715v-1.667h-1.92v-.78h4.882v.78h-2.122v1.667h1.87v.756h-1.87v1.859h2.23v.78h-5.098v-.78Z"/></g></g></svg>