<svg xmlns="http://www.w3.org/2000/svg" viewBox="0 0 62.926 196.011"><defs><style>.cls-1{fill:#231815}.cls-2,.cls-3{fill:none}.cls-2{stroke:#b6d278;stroke-width:.75px}.cls-3{stroke:#231815;stroke-width:.5px}</style></defs><g id="レイヤー_2" data-name="レイヤー 2"><g id="レイヤー_1-2" data-name="レイヤー 1"><path class="cls-1" d="M33.85 7.65s0 1.153-.036 1.585c-.504 16.234-.935 21.813-2.375 23.613a4.014 4.014 0 0 1-3.131 1.692 38.662 38.662 0 0 1-5.436 0 7.836 7.836 0 0 0-1.08-3.24c2.304.18 4.392.216 5.292.216a1.614 1.614 0 0 0 1.512-.612c1.151-1.188 1.619-6.624 2.088-20.194h-8.495a36.24 36.24 0 0 1-3.276 6.048 17.648 17.648 0 0 0-2.628-1.872v16.522H6.53v2.735H3.47V7.831h4.032A42.177 42.177 0 0 0 8.762 2l3.635.612c-.612 1.8-1.295 3.707-1.872 5.219h5.76v6.803C18.661 11.54 20.568 6.751 21.648 2l3.24.756c-.432 1.656-.9 3.311-1.476 4.895ZM6.53 10.747v6.84h6.695v-6.84Zm6.695 17.71v-7.955H6.53v7.955Zm11.987-2.807a58.612 58.612 0 0 0-5.255-8.315l2.627-1.476a64.605 64.605 0 0 1 5.436 8.027ZM14.99 47.32c6.443 0 10.439 4.392 10.439 9.035 0 5.255-3.78 8.063-9.396 8.063a10.659 10.659 0 0 1-2.087-.18v-12.85c-3.78.323-6.048 2.7-6.048 6.118a8.407 8.407 0 0 0 1.476 4.717l-2.627 1.44a12.002 12.002 0 0 1-2.088-6.695c0-5.364 3.816-9.648 10.33-9.648Zm1.8 13.534c3.42 0 5.399-1.548 5.399-4.427 0-2.484-1.908-4.68-5.4-5.075ZM14.99 67.732c6.443 0 10.439 4.068 10.439 8.495a7.638 7.638 0 0 1-2.233 5.328l3.277-.18h7.342v4.14H5.127V82.13l2.231-.36v-.108a8.301 8.301 0 0 1-2.699-5.76c0-4.968 3.78-8.17 10.33-8.17Zm-4.5 13.643h9.683a6.21 6.21 0 0 0 1.8-4.356c0-2.771-2.628-5.003-6.911-5.003-4.5 0-6.984 1.763-6.984 4.859a5.822 5.822 0 0 0 2.412 4.5ZM24.925 91.744v4.104H5.127v-4.104Zm6.155-.576a2.432 2.432 0 0 1 2.447 2.628 2.454 2.454 0 1 1-2.447-2.628ZM11.606 102.724h10.007v-2.88h3.096l.216 3.06 5.47.468v3.491h-5.47v5.148h-3.312v-5.148H11.57c-2.376 0-3.6.828-3.6 2.88a5.906 5.906 0 0 0 .468 2.124l-3.06.756a12.659 12.659 0 0 1-.72-3.888c.001-4.463 2.773-6.011 6.948-6.011ZM14.99 114.928c6.623 0 10.439 4.427 10.439 9.323s-3.816 9.322-10.44 9.322c-6.55 0-10.33-4.426-10.33-9.322s3.78-9.323 10.33-9.323Zm0 14.398c4.211 0 7.02-1.943 7.02-5.075 0-3.096-2.808-5.04-7.02-5.04-4.176 0-6.947 1.944-6.947 5.04 0 3.132 2.771 5.075 6.946 5.075ZM24.925 138.435v3.384l-3.564.324v.108c2.556 1.403 4.068 3.491 4.068 5.615a4.92 4.92 0 0 1-.433 2.232l-3.6-.756a5.833 5.833 0 0 0 .324-1.98c0-1.62-1.115-3.564-4.247-4.823H5.127v-4.104ZM20.389 189.626c1.115.108 2.376.144 3.67.144 1.584.037 8.784 0 10.908-.036a11.49 11.49 0 0 0-1.153 3.167H23.88c-6.875 0-11.446-1.008-14.399-5.579a17.539 17.539 0 0 1-5.327 6.3 19.575 19.575 0 0 0-2.483-2.376c3.672-2.34 5.903-6.3 6.803-11.303l3.347.468a29.028 29.028 0 0 1-.899 3.384 8.753 8.753 0 0 0 6.119 5.255v-10.078H2.643v-2.952h31.532v2.952H20.389v3.42h11.446v2.915H20.389Zm10.043-15.693H6.206v-12.095h24.226Zm-3.384-9.612H9.446v2.412h17.602Zm0 4.752H9.446v2.411h17.602Z"/><path class="cls-2" d="M.375 159.636h36v36h-36zM.375 45.763h36v21.154h-36zM.375 66.917h36v20.477h-36zM.375 87.394h36v10.508h-36z"/><path class="cls-2" d="M.375 97.901h36v16.51h-36zM.375 114.649h36v21.366h-36zM.375 136.015h36v16.018h-36z"/><path class="cls-3" d="m44.51 7.005-7.248 4.185 7.248 4.185M37.262 11.19h13"/><path class="cls-1" d="M60.887 7.604a12.659 12.659 0 0 1-2.807 4.642 11.78 11.78 0 0 0 4.846 2.435 4.134 4.134 0 0 0-.613.827 12.13 12.13 0 0 1-4.917-2.626 13.784 13.784 0 0 1-4.989 2.674 4.964 4.964 0 0 0-.552-.827 12.894 12.894 0 0 0 4.894-2.483 13.526 13.526 0 0 1-2.879-4.642h-1.847V6.73H62.77v.875Zm-6.093 0a12.134 12.134 0 0 0 2.614 4.018 11.004 11.004 0 0 0 2.47-4.018Zm2.543-.899a9.395 9.395 0 0 0-.888-1.883l.924-.264a9.887 9.887 0 0 1 .936 1.835ZM62.481 23.898h-4.653v2.579c0 .527-.132.791-.552.923a7.15 7.15 0 0 1-2.038.156 3.628 3.628 0 0 0-.408-.875c.816.024 1.583.024 1.787.012.228-.012.288-.06.288-.228v-2.567h-4.678v-.851h4.678v-.744a9.953 9.953 0 0 0 2.087-1.403h-4.798v-.84h5.698l.191-.048.612.456a12.076 12.076 0 0 1-2.867 2.135v.444h4.653Zm-9.234-3.574h-.876v-2.447h4.726a7.202 7.202 0 0 0-.623-1.055l.851-.288a6.64 6.64 0 0 1 .803 1.343h4.234v2.447h-.912V18.73h-8.203ZM57.06 30.405l.613.204c-.636 4.69-2.507 7.484-5.062 8.875a2.97 2.97 0 0 0-.72-.731 7.918 7.918 0 0 0 3.406-3.358 17.233 17.233 0 0 0-1.943-1.512l.54-.587a16.085 16.085 0 0 1 1.787 1.295 13.928 13.928 0 0 0 .936-3.298h-2.28a11.438 11.438 0 0 1-1.701 3.19 4.926 4.926 0 0 0-.733-.564 11.897 11.897 0 0 0 2.28-5.3l.875.167a22.47 22.47 0 0 1-.432 1.667h2.255Zm2.88 1.823a24.042 24.042 0 0 1 2.961 2.71l-.707.612a21.705 21.705 0 0 0-2.579-2.495v6.513h-.91V28.63h.91v3.862ZM54.506 44.348c.372.407 1.32 1.523 1.535 1.787l-.468.767c-.203-.347-.683-1.03-1.067-1.571v6.213h-.827v-5.71a12.803 12.803 0 0 1-1.488 3.24 4.806 4.806 0 0 0-.456-.852 12.038 12.038 0 0 0 1.884-4.294h-1.691V43.1h1.75v-2.507h.828V43.1h1.32v.827h-1.32Zm8.36 5.84v.816h-6.728v-9.679h6.536v.828h-5.685v8.035Zm-3.43-1.942v-1.86H57.72v-.755h1.715v-1.667h-1.92v-.78h4.881v.78h-2.122v1.667h1.871v.756h-1.87v1.859h2.23v.78h-5.098v-.78Z"/><path class="cls-2" d="M.51.375h36v36h-36z"/></g></g></svg>