<?xml version="1.0" encoding="utf-8"?>
<svg version="1.1" id="レイヤー_1" xmlns="http://www.w3.org/2000/svg" xmlns:xlink="http://www.w3.org/1999/xlink" x="0px"
	 y="0px" viewBox="0 0 576 105.7" style="enable-background:new 0 0 576 105.7;" xml:space="preserve">
<g>
	<path d="M25.5,9.7c-1.7,4.8-4.1,8.7-7.1,11.9c3.4,2.8,7.6,4.9,12.5,6.1c-0.7,0.6-1.5,1.9-2,2.8c-5.1-1.4-9.3-3.6-12.8-6.7
		c-3.6,3-7.9,5.2-13.1,6.8c-0.4-0.8-1.2-2.1-1.9-2.8c5.2-1.4,9.3-3.4,12.7-6.1c-3.1-3.3-5.5-7.3-7.3-12H1.7V6.8h13.9
		c-0.4-1.3-1.3-3.3-2.1-4.8l3.1-0.9c0.9,1.5,2,3.6,2.4,4.9l-2.8,0.9h14.4v2.9H25.5z M9.7,9.7c1.5,3.8,3.7,7.1,6.4,9.9
		c2.6-2.7,4.6-6,6-9.9H9.7z"/>
	<path d="M61.7,21.2H49.6v6c0,1.7-0.4,2.5-1.7,2.9c-1.3,0.5-3.1,0.5-5.8,0.5c-0.2-0.9-0.8-2.2-1.3-3c2,0.1,4.2,0.1,4.8,0
		c0.6,0,0.8-0.2,0.8-0.6v-5.9H34.3v-2.8h12.1v-1.9c1.6-0.8,3.4-2,4.8-3.3H39.6v-2.8h14.7l0.7-0.2l2,1.5c-2,2-4.6,4.1-7.4,5.6v0.9
		h12.1V21.2z M37.5,11.3h-2.9V4.5h12.2c-0.4-0.8-0.9-1.8-1.4-2.5l2.9-0.9c0.8,1.1,1.6,2.4,2,3.4h11.1v6.8h-3v-4H37.5V11.3z"/>
	<path d="M79,6l2.1,0.6c-1.6,12.6-6.5,20.2-13.4,23.8c-0.5-0.7-1.7-2-2.5-2.5c3.7-1.8,6.7-4.4,8.8-8.3c-1.3-1.2-3.2-2.7-4.7-3.7
		l1.8-2c1.3,0.9,2.9,2,4.2,3.1c1-2.4,1.7-5,2.2-8.1h-5.5c-1.2,3.3-2.7,6.1-4.4,8.3c-0.5-0.5-1.8-1.4-2.5-1.9c2.9-3.3,4.8-8.5,5.9-14
		l3,0.5C73.8,3.3,73.4,4.7,73,6h5.4L79,6z M87.4,10.9c2.5,2.1,5.9,5.2,7.5,7.2l-2.5,2c-1.3-1.7-3.8-4.3-6.1-6.4v16.9h-3.1V1.3h3.1
		v10.4L87.4,10.9z"/>
	<path d="M104.6,11.3c1,1,3.4,3.8,3.9,4.5l-1.5,2.6c-0.5-0.9-1.5-2.4-2.4-3.8v15.9h-2.8v-14c-1,2.9-2.2,5.6-3.5,7.4
		c-0.3-0.8-0.9-2.1-1.4-2.9c2-2.3,3.8-6.7,4.8-10.6h-4.2V7.7h4.4V1.2h2.8v6.5h3.2v2.8h-3.2V11.3z M126.8,26.5v2.7h-18.2v-26h17.7
		v2.7h-14.8v20.6H126.8z M117.5,21.4v-4.3h-4.3v-2.5h4.3v-3.9h-4.8V8.2h12.8v2.5h-5.2v3.9h4.6v2.5h-4.6v4.3h5.5v2.5h-13.3v-2.5
		H117.5z"/>
	<path d="M158.6,14v3.3h-29.1V14H158.6z"/>
	<path d="M176.4,8.3c-0.7,1.8-1.5,3.7-2.2,5.2h4.2v2.7h-16.7v-2.7h4.5c-0.3-1.4-1.1-3.5-1.8-5.1l2.6-0.7c0.8,1.6,1.6,3.7,2,5.1
		l-2.3,0.7h4.7c0.8-1.7,1.7-4.1,2.1-5.9L176.4,8.3z M177.6,7.6h-15.1V5h6.3c-0.3-1-0.8-2.1-1.2-3.1l2.7-0.8c0.6,1.2,1.2,2.7,1.6,3.8
		h5.7V7.6z M163.3,18.8H177v11.5H174v-1.2h-7.9v1.5h-2.8V18.8z M166.1,21.5v5h7.9v-5H166.1z M190.5,4.1c-1.1,3-2.5,6.6-3.8,9.5
		c2.7,2.9,3.3,5.4,3.3,7.5c0,2-0.4,3.6-1.5,4.4c-0.5,0.4-1.2,0.6-2,0.7c-0.8,0.1-1.7,0.1-2.7,0.1c0-0.8-0.3-2-0.7-2.8
		c0.8,0.1,1.6,0.1,2.1,0.1c0.5,0,0.9-0.1,1.2-0.3c0.6-0.4,0.8-1.3,0.8-2.4c0-1.9-0.8-4.2-3.4-6.9c1.1-2.6,2.2-5.9,3-8.4h-4.4v25
		h-2.6V2.9h8.1l0.4-0.1L190.5,4.1z"/>
	<path d="M213.7,1.8c2,4.2,5.8,9,9.1,11.5c-0.8,0.6-1.9,1.7-2.4,2.5c-0.8-0.7-1.6-1.5-2.4-2.4c0,0.4,0,0.8,0,1.1
		c-0.4,9.6-0.9,13.3-1.9,14.5c-0.8,0.9-1.5,1.2-2.7,1.2c-1.1,0.1-3,0.1-5,0c-0.1-0.9-0.4-2.1-1-3c1.9,0.2,3.8,0.2,4.5,0.2
		c0.6,0,1-0.1,1.3-0.4c0.7-0.7,1.1-3.7,1.5-11H207c-0.8,6.2-2.9,11.8-11,14.7c-0.3-0.8-1.2-2-1.9-2.6c7.3-2.4,9.1-7,9.7-12.1h-5.6
		V14c-0.8,0.8-1.5,1.5-2.3,2.1c-0.5-0.6-1.8-1.8-2.5-2.3c3.7-2.7,7-7.2,8.8-12l3.2,0.9c-1.6,3.8-3.8,7.5-6.4,10.4h18.8
		c-2.6-2.9-5.1-6.7-6.8-10.2L213.7,1.8z"/>
	<path d="M254.3,27.3v2.4h-28.6v-2.4h12.6v-2.3h-10.2v-2.3h10.2v-1.8h-9.2v-10h9.2V9.3h-12.4V6.9h12.4V5.1c-3.2,0.2-6.5,0.3-9.4,0.4
		c0-0.7-0.4-1.7-0.6-2.3c7.4-0.2,16.2-0.8,21.3-1.7l1.5,2.3c-2.8,0.5-6.2,0.8-9.8,1.1v2.1h12.8v2.4h-12.8v1.6h9.8v10h-9.8v1.8h10.9
		v2.3h-10.9v2.3H254.3z M232,15h6.3v-2H232V15z M238.4,18.8v-2H232v2H238.4z M241.3,13v2h6.7v-2H241.3z M248.1,16.9h-6.7v2h6.7V16.9
		z"/>
	<path d="M286.1,28.3v2h-28.2v-2h5.2v-9.1h17.6v9.1H286.1z M269.4,15.7c-1.1-0.5-2.4-1.1-3.9-1.7c-2,0.8-4.2,1.3-6.4,1.7
		c-0.3-0.5-0.8-1.2-1.2-1.5c1.7-0.3,3.4-0.6,5-1.1c-1.1-0.4-2.2-0.7-3.4-0.9l0.8-1.3c1.7,0.4,3.4,0.8,5,1.3c1-0.4,1.8-0.9,2.6-1.5
		h-9.1V9.1h10.9l0.4-0.1l1.4,0.7c-0.9,1.3-2.3,2.4-3.9,3.4c1,0.4,2,0.8,2.7,1.2L269.4,15.7z M282.8,20.4v-2.5h-21.5v2.5h-2.7V16h27
		v4.4H282.8z M281.2,9.1c-2-0.8-4.5-1.5-7.4-2.1c-3.5,1-7.5,1.5-11.6,1.8c-0.2-0.6-0.6-1.3-1-1.8c2.7-0.1,5.4-0.4,8-0.8
		c-1.9-0.3-3.9-0.5-5.9-0.7l0.7-1.4c3.1,0.2,6.3,0.6,9.2,1.2c1.3-0.4,2.6-0.9,3.6-1.4h-14.8V2.1h17.2l0.5-0.1l1.4,1
		c-1.2,1.2-2.7,2.2-4.5,3c2.1,0.5,3.9,1,5.4,1.6L281.2,9.1z M265.9,21.1v1.2h11.9v-1.2H265.9z M277.8,24h-11.9v1.3h11.9V24z
		 M265.9,28.3h11.9v-1.4h-11.9V28.3z M271.9,9.1h11.4l0.4-0.1l1.5,0.8c-0.9,1.3-2.2,2.4-3.8,3.3c1.4,0.4,2.7,0.8,3.7,1.3l-1.1,1.4
		c-1.3-0.6-2.9-1.2-4.8-1.7c-2,0.8-4.2,1.3-6.4,1.7c-0.3-0.5-0.8-1.2-1.2-1.6c1.5-0.2,3.1-0.5,4.5-0.9c-1.2-0.3-2.4-0.6-3.6-0.9
		l0.9-1.3c1.8,0.4,3.6,0.8,5.4,1.2c1-0.4,1.8-0.9,2.6-1.4h-9.5V9.1z"/>
	<path d="M317.8,6.3c0,0,0,1,0,1.4c-0.4,14.4-0.8,19.4-2.1,21c-0.8,1.1-1.6,1.3-2.8,1.5c-1.1,0.1-3,0.1-4.8,0c-0.1-0.8-0.4-2-1-2.9
		c2,0.2,3.9,0.2,4.7,0.2c0.6,0,1-0.1,1.3-0.5c1-1.1,1.4-5.9,1.9-18h-7.6c-0.9,2-1.9,3.9-2.9,5.4c-0.5-0.4-1.6-1.2-2.3-1.7v14.7h-8.7
		v2.4h-2.7V6.4h3.6c0.4-1.5,0.9-3.6,1.1-5.2l3.2,0.5c-0.5,1.6-1.2,3.3-1.7,4.6h5.1v6c2.1-2.8,3.8-7,4.8-11.2l2.9,0.7
		c-0.4,1.5-0.8,2.9-1.3,4.4H317.8z M293.5,9v6.1h6V9H293.5z M299.4,24.8v-7.1h-6v7.1H299.4z M310.1,22.3c-0.9-2-3-5.1-4.7-7.4
		l2.3-1.3c1.7,2.2,3.9,5.2,4.8,7.1L310.1,22.3z"/>
	<path d="M336.6,6.8c-0.7,6.3-2.1,11.3-4.2,15.2c3.5,3.9,8,4.8,12.6,4.8c1.1,0,4.5,0,5.9,0c-0.5,0.8-1,2.3-1.2,3.1h-4.9
		c-5.3,0-10.3-1-14.1-5.3c-2,2.8-4.4,4.8-7.2,6.2c-0.5-0.7-1.7-1.8-2.5-2.3c3.1-1.4,5.7-3.6,7.7-6.5c-1.1-1.8-2-4-2.9-6.6
		c-0.6,1.2-1.2,2.4-1.9,3.3c-0.5-0.5-1.6-1.3-2.4-1.7c2.4-3.2,4.4-9.3,5.2-15.6l3.1,0.7c-0.3,1.4-0.5,2.8-0.9,4.2h5l0.5-0.1
		L336.6,6.8z M328.4,9.1c-0.3,0.8-0.5,1.7-0.8,2.5c0.8,3.2,1.7,5.7,2.9,7.7c1.3-2.8,2.2-6.1,2.8-10.1H328.4z M342.5,24.8h-3.2V1.3
		h3.2v8.1l0.9-0.5c2.4,2.6,5.3,6.2,6.7,8.5l-2.7,1.6c-1-1.9-3-4.5-5-7V24.8z"/>
	<path d="M363.9,24.2c-3.5,1.2-7.2,2.5-10.1,3.4l-0.7-3c1.2-0.3,2.6-0.7,4.1-1.2v-8.1h-3.5v-2.8h3.5V6.1h-3.8V3.3h10.2v2.8h-3.6v6.4
		h3v2.8h-3v7.2c1.1-0.4,2.2-0.7,3.3-1.1L363.9,24.2z M382.8,26.9v2.7h-20.4v-2.7h9.3v-3.8h-6.9v-2.7h6.9v-3.3H365V2.8h16.4v14.4
		h-6.7v3.3h7.1v2.7h-7.1v3.8H382.8z M367.7,8.7h4.2V5.3h-4.2V8.7z M367.7,14.6h4.2v-3.5h-4.2V14.6z M378.6,5.3h-4.1v3.5h4.1V5.3z
		 M378.6,11.1h-4.1v3.5h4.1V11.1z"/>
	<path d="M397.8,9.5c-0.1,1.5-0.2,3-0.4,4.5H411c0,0,0,0.9-0.1,1.3c-0.6,8.8-1.2,12.4-2.5,13.7c-0.9,0.9-1.7,1.1-3,1.2
		c-1.2,0.1-3.3,0.1-5.4-0.1c0-0.9-0.4-2.1-1.1-2.9c2.3,0.2,4.4,0.2,5.3,0.2c0.7,0,1.1-0.1,1.5-0.4c0.9-0.7,1.5-3.7,2-10.2H397
		c-1,5.5-3.4,10.7-9.3,13.9c-0.4-0.8-1.4-1.8-2.2-2.4c7.9-4,8.7-11.8,9-18.8h-8.4V6.6h13.7c-0.4-1.3-1.3-3.1-2-4.5l2.9-1.1
		c0.8,1.4,1.8,3.4,2.3,4.6l-2.1,0.9H414v2.9H397.8z"/>
	<path d="M437.2,9.9c0.7,10.1,2.9,17.7,5.7,17.7c0.8,0,1.2-1.7,1.3-5.9c0.7,0.7,1.8,1.4,2.6,1.7c-0.5,5.8-1.6,7.3-4.2,7.3
		c-5.3,0-7.8-9.3-8.6-20.8h-16.2V7h16c-0.1-1.8-0.1-3.7-0.1-5.5h3.2c0,1.9,0,3.7,0.1,5.5h9.2v2.9H437.2z M427.3,25
		c2.1-0.4,4.3-0.8,6.4-1.3l0.2,2.7c-5.3,1.2-11,2.5-15.1,3.4l-0.9-3c1.7-0.3,3.9-0.7,6.4-1.2v-8.6H419v-2.9h13.9v2.9h-5.6V25z
		 M440.6,1.5c1.6,1,3.5,2.6,4.4,3.7L443,7c-0.9-1.1-2.8-2.8-4.3-3.9L440.6,1.5z"/>
	<path d="M471.5,8.2v19.1c0,1.5-0.3,2.3-1.3,2.8c-0.9,0.4-2.4,0.5-4.4,0.5c-0.2-0.8-0.6-2.1-1.1-2.8c1.4,0.1,2.8,0.1,3.2,0
		c0.4,0,0.6-0.1,0.6-0.5V8.2h-2.6c-0.9,2.3-1.8,4.3-2.9,5.8c-0.4-0.3-1.3-0.9-2-1.3v0.4h-3.9v1c0.9,0.9,3.5,3.7,4.1,4.4l-1.7,2.4
		c-0.5-0.9-1.5-2.5-2.4-3.8v13.6h-2.7V17.6c-1.2,2.9-2.6,5.7-4,7.5c-0.3-0.8-1-1.9-1.4-2.6c1.9-2.1,3.8-6,5-9.4h-4.3v-2.8h4.7V5.8
		c-1.2,0.3-2.5,0.4-3.7,0.6c-0.1-0.6-0.4-1.6-0.8-2.2c3.4-0.6,7.3-1.5,9.7-2.6l1.7,2.4c-1.2,0.5-2.7,0.9-4.2,1.3v5.2h3.9v1.4
		c1.8-2.7,3.1-6.5,3.9-10.4l2.8,0.5c-0.3,1.2-0.5,2.3-0.9,3.5h9.5l0.4-0.1l1.9,0.5c-0.7,2.1-1.7,4.4-2.6,6.3l-2.6-0.7
		c0.5-1,1-2.2,1.5-3.3H471.5z M466.7,14.3c-0.8,4.3-2.2,8.5-4,11.3c-0.5-0.4-1.7-1.2-2.4-1.5c1.7-2.5,2.9-6.4,3.6-10.3L466.7,14.3z
		 M475.4,13.5c1.4,3.5,2.7,8,3.2,11l-2.8,0.9c-0.4-3-1.7-7.6-3-11.1L475.4,13.5z"/>
	<path d="M508.9,8.9c0,0,0,1.1,0,1.5c-0.5,12.5-0.9,17-2.1,18.5c-0.8,1-1.6,1.3-2.8,1.5c-1.2,0.2-3.1,0.1-5.1,0
		c-0.1-0.9-0.5-2.2-1.1-3.1c2.1,0.2,4,0.2,4.8,0.2c0.7,0,1-0.1,1.4-0.5c0.9-0.9,1.4-5,1.8-15.1h-10.2C494.7,18,492,25,484.2,30.2
		c-0.5-0.6-1.6-1.7-2.4-2.1c7.2-4.6,9.7-10.8,10.6-16.2h-9.7v-3h10.1c0.1-1.2,0.1-2.4,0.1-3.5v-4h3v4c0,1.1,0,2.3-0.1,3.5H508.9z
		 M488.1,8.1c-0.6-1.3-2-3.3-3.1-4.8l2.6-1.1c1.2,1.4,2.7,3.4,3.3,4.7L488.1,8.1z M499.8,22.7c-0.8-1.7-2.5-4.3-4.1-6.1l2.5-1.2
		c1.6,1.8,3.4,4.3,4.2,6L499.8,22.7z"/>
	<path d="M523.9,25.3c-2.1,1.9-5.2,3.8-7.7,5c-0.5-0.5-1.6-1.6-2.2-2c2.6-1,5.4-2.5,7.2-4.1L523.9,25.3z M540.7,3.1
		c-1,2.9-2.8,5.2-4.9,7c1.8,1,4,1.7,6.4,2c-0.6,0.6-1.5,1.8-1.9,2.6c-2.8-0.6-5.1-1.6-7.1-2.9c-2,1.1-4.4,2-6.9,2.5
		c-1.1,0.8-2.3,1.6-3.5,2.3l5.6-0.1c1.3-0.7,2.6-1.4,3.8-2.2l2,2.1c-3.2,1.9-6.6,3.5-10,4.8l11-0.5c-0.7-0.6-1.4-1.1-2.1-1.6l2-1.4
		c2.3,1.5,5.1,3.7,6.5,5.4l-2.2,1.6c-0.4-0.6-1-1.2-1.7-1.9l-7.7,0.4v4.5c0,1.4-0.3,2.1-1.5,2.5c-1.1,0.4-2.7,0.4-5,0.4
		c-0.2-0.8-0.7-1.9-1.1-2.6c1.7,0.1,3.4,0.1,3.8,0.1c0.5,0,0.6-0.1,0.6-0.5v-4.2c-8.4,0.5-9.8,0.6-10.8,1c-0.1-0.6-0.5-2-0.8-2.8
		c1.1-0.1,2.3-0.5,4.1-1.2c0.8-0.3,2.2-0.8,3.9-1.6c-3.8,0.2-4.5,0.3-5.1,0.4c-0.1-0.6-0.6-1.9-0.9-2.6c0.6-0.1,1.2-0.4,2-0.8
		c0.5-0.3,1.8-1.1,3.2-2h-1.8v-12h2.7v11.2c0.4-0.3,0.7-0.6,1-0.9l1.2,0.9c-0.3-0.5-0.6-0.9-0.9-1.2c2.2-0.4,4.3-1.1,6.1-2
		c-1.4-1.3-2.5-3-3.3-4.9h-1.9V2.5h12.6l0.5-0.1L540.7,3.1z M518.1,12.8h-2.7V3.3h2.7V12.8z M530.4,5.1c0.8,1.3,1.8,2.5,3,3.5
		c1.4-1,2.5-2.1,3.4-3.5H530.4z M534.3,24.3c2.4,1.2,5.6,3.1,7.3,4.4l-2.3,1.7c-1.6-1.3-4.7-3.3-7.2-4.5L534.3,24.3z"/>
	<path d="M556,17.9l-3.6,1v8.3c0,1.5-0.3,2.2-1.2,2.7c-0.9,0.5-2.2,0.5-4.2,0.5c-0.1-0.7-0.5-1.9-0.9-2.7c1.2,0,2.5,0,2.8,0
		c0.4,0,0.6-0.2,0.6-0.6v-7.5l-3.7,1l-0.5-2.9c1.2-0.3,2.7-0.6,4.2-1v-6.4h-3.9V7.6h3.9V1.3h2.8v6.2h3.2v2.8h-3.2V16l3.2-0.8
		L556,17.9z M561.2,1.6h2.8v29.1h-2.8v-8.1h-5.1v-2.7h5.1v-4h-4.4v-2.6h4.4v-4h-4.4V6.6h4.4V1.6z M574.7,22.7h-5.2v8.1h-2.8V1.6h2.8
		v5h4.8v2.7h-4.8v4h4.5v2.6h-4.5V20h5.2V22.7z"/>
	<path d="M25.5,53.7c-1.7,4.8-4.1,8.7-7.1,11.9c3.4,2.8,7.6,4.9,12.5,6.1c-0.7,0.6-1.5,1.9-2,2.8c-5.1-1.4-9.3-3.6-12.8-6.7
		c-3.6,3-7.9,5.2-13.1,6.8c-0.4-0.8-1.2-2.1-1.9-2.8c5.2-1.4,9.3-3.4,12.7-6.1c-3.1-3.3-5.5-7.3-7.3-12H1.7v-2.9h13.9
		c-0.4-1.3-1.3-3.3-2.1-4.8l3.1-0.9c0.9,1.5,2,3.6,2.4,4.9l-2.8,0.9h14.4v2.9H25.5z M9.7,53.7c1.5,3.8,3.7,7.1,6.4,9.9
		c2.6-2.7,4.6-6,6-9.9H9.7z"/>
	<path d="M59.7,65.2H47.6v6c0,1.7-0.4,2.5-1.7,2.9c-1.3,0.5-3.1,0.5-5.8,0.5c-0.2-0.9-0.8-2.2-1.3-3c2,0.1,4.2,0.1,4.8,0
		c0.6,0,0.8-0.2,0.8-0.6v-5.9H32.3v-2.8h12.1v-1.9c1.6-0.8,3.4-2,4.8-3.3H37.6v-2.8h14.7l0.7-0.2l2,1.5c-2,2-4.6,4.1-7.4,5.6v0.9
		h12.1V65.2z M35.5,55.3h-2.9v-6.8h12.2c-0.4-0.8-0.9-1.8-1.4-2.5l2.9-0.9c0.8,1.1,1.6,2.4,2,3.4h11.1v6.8h-3v-4H35.5V55.3z"/>
	<path d="M75,50l2.1,0.6c-1.6,12.6-6.5,20.2-13.4,23.8c-0.5-0.7-1.7-2-2.5-2.5c3.7-1.8,6.7-4.4,8.8-8.3c-1.3-1.2-3.2-2.7-4.7-3.7
		l1.8-2c1.3,0.9,2.9,2,4.2,3.1c1-2.4,1.7-5,2.2-8.1H68c-1.2,3.3-2.7,6.1-4.4,8.3c-0.5-0.5-1.8-1.4-2.5-1.9c2.9-3.3,4.8-8.5,5.9-14
		l3,0.5c-0.3,1.4-0.7,2.8-1.1,4.2h5.4L75,50z M83.4,54.9c2.5,2.1,5.9,5.2,7.5,7.2l-2.5,2c-1.3-1.7-3.8-4.3-6.1-6.4v16.9h-3.1V45.3
		h3.1v10.4L83.4,54.9z"/>
	<path d="M98.5,55.3c1,1,3.4,3.8,3.9,4.5l-1.5,2.6c-0.5-0.9-1.5-2.4-2.4-3.8v15.9h-2.8v-14c-1,2.9-2.2,5.6-3.5,7.4
		c-0.3-0.8-0.9-2.1-1.4-2.9c2-2.3,3.8-6.7,4.8-10.6h-4.2v-2.8h4.4v-6.5h2.8v6.5h3.2v2.8h-3.2V55.3z M120.7,70.5v2.7h-18.2v-26h17.7
		v2.7h-14.8v20.6H120.7z M111.4,65.4v-4.3h-4.3v-2.5h4.3v-3.9h-4.8v-2.5h12.8v2.5h-5.2v3.9h4.6v2.5h-4.6v4.3h5.5v2.5h-13.3v-2.5
		H111.4z"/>
	<path d="M150.6,58v3.3h-29.1V58H150.6z"/>
	<path d="M166.3,52.3c-0.7,1.8-1.5,3.7-2.2,5.2h4.2v2.7h-16.7v-2.7h4.5c-0.3-1.4-1.1-3.5-1.8-5.1l2.6-0.7c0.8,1.6,1.6,3.7,2,5.1
		l-2.3,0.7h4.7c0.8-1.7,1.7-4.1,2.1-5.9L166.3,52.3z M167.6,51.6h-15.1V49h6.3c-0.3-1-0.8-2.1-1.2-3.1l2.7-0.8
		c0.6,1.2,1.2,2.7,1.6,3.8h5.7V51.6z M153.2,62.8h13.6v11.5h-2.9v-1.2h-7.9v1.5h-2.8V62.8z M156.1,65.5v5h7.9v-5H156.1z M180.4,48.1
		c-1.1,3-2.5,6.6-3.8,9.5c2.7,2.9,3.3,5.4,3.3,7.5c0,2-0.4,3.6-1.5,4.4c-0.5,0.4-1.2,0.6-2,0.7c-0.8,0.1-1.7,0.1-2.7,0.1
		c0-0.8-0.3-2-0.7-2.8c0.8,0.1,1.6,0.1,2.1,0.1c0.5,0,0.9-0.1,1.2-0.3c0.6-0.4,0.8-1.3,0.8-2.4c0-1.9-0.8-4.2-3.4-6.9
		c1.1-2.6,2.2-5.9,3-8.4h-4.4v25h-2.6V46.9h8.1l0.4-0.1L180.4,48.1z"/>
	<path d="M201.6,45.8c2,4.2,5.8,9,9.1,11.5c-0.8,0.6-1.9,1.7-2.4,2.5c-0.8-0.7-1.6-1.5-2.4-2.4c0,0.4,0,0.8,0,1.1
		c-0.4,9.6-0.9,13.3-1.9,14.5c-0.8,0.9-1.5,1.2-2.7,1.2c-1.1,0.1-3,0.1-5,0c-0.1-0.9-0.4-2.1-1-3c1.9,0.2,3.8,0.2,4.5,0.2
		c0.6,0,1-0.1,1.3-0.4c0.7-0.7,1.1-3.7,1.5-11h-7.8c-0.8,6.2-2.9,11.8-11,14.7c-0.3-0.8-1.2-2-1.9-2.6c7.3-2.4,9.1-7,9.7-12.1h-5.6
		V58c-0.8,0.8-1.5,1.5-2.3,2.1c-0.5-0.6-1.8-1.8-2.5-2.3c3.7-2.7,7-7.2,8.8-12l3.2,0.9c-1.6,3.8-3.8,7.5-6.4,10.4h18.8
		c-2.6-2.9-5.1-6.7-6.8-10.2L201.6,45.8z"/>
	<path d="M240.2,71.3v2.4h-28.6v-2.4h12.6v-2.3H214v-2.3h10.2v-1.8H215v-10h9.2v-1.6h-12.4v-2.4h12.4v-1.9c-3.2,0.2-6.5,0.3-9.4,0.4
		c0-0.7-0.4-1.7-0.6-2.3c7.4-0.2,16.2-0.8,21.3-1.7l1.5,2.3c-2.8,0.5-6.2,0.8-9.8,1.1v2.1H240v2.4h-12.8v1.6h9.8v10h-9.8v1.8h10.9
		v2.3h-10.9v2.3H240.2z M217.9,59h6.3v-2h-6.3V59z M224.3,62.8v-2h-6.3v2H224.3z M227.2,57v2h6.7v-2H227.2z M234,60.9h-6.7v2h6.7
		V60.9z"/>
	<path d="M270,72.3v2h-28.2v-2h5.2v-9.1h17.6v9.1H270z M253.3,59.7c-1.1-0.5-2.4-1.1-3.9-1.7c-2,0.8-4.2,1.3-6.4,1.7
		c-0.3-0.5-0.8-1.2-1.2-1.5c1.7-0.3,3.4-0.6,5-1.1c-1.1-0.4-2.2-0.7-3.4-0.9l0.8-1.3c1.7,0.4,3.4,0.8,5,1.3c1-0.4,1.8-0.9,2.6-1.5
		h-9.1v-1.7h10.9l0.4-0.1l1.4,0.7c-0.9,1.3-2.3,2.4-3.9,3.4c1,0.4,2,0.8,2.7,1.2L253.3,59.7z M266.6,64.4v-2.5h-21.5v2.5h-2.7V60h27
		v4.4H266.6z M265.1,53.1c-2-0.8-4.5-1.5-7.4-2.1c-3.5,1-7.5,1.5-11.6,1.8c-0.2-0.6-0.6-1.3-1-1.8c2.7-0.1,5.4-0.4,8-0.8
		c-1.9-0.3-3.9-0.5-5.9-0.7l0.7-1.4c3.1,0.2,6.3,0.6,9.2,1.2c1.3-0.4,2.6-0.9,3.6-1.4H246v-1.7h17.2l0.5-0.1l1.4,1
		c-1.2,1.2-2.7,2.2-4.5,3c2.1,0.5,3.9,1,5.4,1.6L265.1,53.1z M249.8,65.1v1.2h11.9v-1.2H249.8z M261.7,68h-11.9v1.3h11.9V68z
		 M249.8,72.3h11.9v-1.4h-11.9V72.3z M255.8,53.1h11.4l0.4-0.1l1.5,0.8c-0.9,1.3-2.2,2.4-3.8,3.3c1.4,0.4,2.7,0.8,3.7,1.3l-1.1,1.4
		c-1.3-0.6-2.9-1.2-4.8-1.7c-2,0.8-4.2,1.3-6.4,1.7c-0.3-0.5-0.8-1.2-1.2-1.6c1.5-0.2,3.1-0.5,4.5-0.9c-1.2-0.3-2.4-0.6-3.6-0.9
		l0.9-1.3c1.8,0.4,3.6,0.8,5.4,1.2c1-0.4,1.8-0.9,2.6-1.4h-9.5V53.1z"/>
	<path d="M299.6,50.3c0,0,0,1,0,1.4c-0.4,14.4-0.8,19.4-2.1,21c-0.8,1.1-1.6,1.3-2.8,1.5c-1.1,0.1-3,0.1-4.8,0c-0.1-0.8-0.4-2-1-2.9
		c2,0.2,3.9,0.2,4.7,0.2c0.6,0,1-0.1,1.3-0.5c1-1.1,1.4-5.9,1.9-18h-7.6c-0.9,2-1.9,3.9-2.9,5.4c-0.5-0.4-1.6-1.2-2.3-1.7v14.7h-8.7
		v2.4h-2.7V50.4h3.6c0.4-1.5,0.9-3.6,1.1-5.2l3.2,0.5c-0.5,1.6-1.2,3.3-1.7,4.6h5.1v6c2.1-2.8,3.8-7,4.8-11.2l2.9,0.7
		c-0.4,1.5-0.8,2.9-1.3,4.4H299.6z M275.3,53v6.1h6V53H275.3z M281.3,68.8v-7.1h-6v7.1H281.3z M291.9,66.3c-0.9-2-3-5.1-4.7-7.4
		l2.3-1.3c1.7,2.2,3.9,5.2,4.8,7.1L291.9,66.3z"/>
	<path d="M316.4,50.8c-0.7,6.3-2.1,11.3-4.2,15.2c3.5,3.9,8,4.8,12.6,4.8c1.1,0,4.5,0,5.9,0c-0.5,0.8-1,2.3-1.2,3.1h-4.9
		c-5.3,0-10.3-1-14.1-5.3c-2,2.8-4.4,4.8-7.2,6.2c-0.5-0.7-1.7-1.8-2.5-2.3c3.1-1.4,5.7-3.6,7.7-6.5c-1.1-1.8-2-4-2.9-6.6
		c-0.6,1.2-1.2,2.4-1.9,3.3c-0.5-0.5-1.6-1.3-2.4-1.7c2.4-3.2,4.4-9.3,5.2-15.6l3.1,0.7c-0.3,1.4-0.5,2.8-0.9,4.2h5l0.5-0.1
		L316.4,50.8z M308.2,53.1c-0.3,0.8-0.5,1.7-0.8,2.5c0.8,3.2,1.7,5.7,2.9,7.7c1.3-2.8,2.2-6.1,2.8-10.1H308.2z M322.3,68.8h-3.2
		V45.3h3.2v8.1l0.9-0.5c2.4,2.6,5.3,6.2,6.7,8.5l-2.7,1.6c-1-1.9-3-4.5-5-7V68.8z"/>
	<path d="M341.8,68.2c-3.5,1.2-7.2,2.5-10.1,3.4l-0.7-3c1.2-0.3,2.6-0.7,4.1-1.2v-8.1h-3.5v-2.8h3.5v-6.4h-3.8v-2.8h10.2v2.8h-3.6
		v6.4h3v2.8h-3v7.2c1.1-0.4,2.2-0.7,3.3-1.1L341.8,68.2z M360.7,70.9v2.7h-20.4v-2.7h9.3v-3.8h-6.9v-2.7h6.9v-3.3h-6.7V46.8h16.4
		v14.4h-6.7v3.3h7.1v2.7h-7.1v3.8H360.7z M345.6,52.7h4.2v-3.5h-4.2V52.7z M345.6,58.6h4.2v-3.5h-4.2V58.6z M356.4,49.3h-4.1v3.5
		h4.1V49.3z M356.4,55.1h-4.1v3.5h4.1V55.1z"/>
	<path d="M373.6,53.5c-0.1,1.5-0.2,3-0.4,4.5h13.6c0,0,0,0.9-0.1,1.3c-0.6,8.8-1.2,12.4-2.5,13.7c-0.9,0.9-1.7,1.1-3,1.2
		c-1.2,0.1-3.3,0.1-5.4-0.1c0-0.9-0.4-2.1-1.1-2.9c2.3,0.2,4.4,0.2,5.3,0.2c0.7,0,1.1-0.1,1.5-0.4c0.9-0.7,1.5-3.7,2-10.2h-10.8
		c-1,5.5-3.4,10.7-9.3,13.9c-0.4-0.8-1.4-1.8-2.2-2.4c7.9-4,8.7-11.8,9-18.8h-8.4v-2.9h13.7c-0.4-1.3-1.3-3.1-2-4.5l2.9-1.1
		c0.8,1.4,1.8,3.4,2.3,4.6l-2.1,0.9h13.2v2.9H373.6z"/>
	<path d="M411,53.9c0.7,10.1,2.9,17.7,5.7,17.7c0.8,0,1.2-1.7,1.3-5.9c0.7,0.7,1.8,1.4,2.6,1.7c-0.5,5.8-1.6,7.3-4.2,7.3
		c-5.3,0-7.8-9.3-8.6-20.8h-16.2V51h16c-0.1-1.8-0.1-3.7-0.1-5.5h3.2c0,1.9,0,3.7,0.1,5.5h9.2v2.9H411z M401.1,69
		c2.1-0.4,4.3-0.8,6.4-1.3l0.2,2.7c-5.3,1.2-11,2.5-15.1,3.4l-0.9-3c1.7-0.3,3.9-0.7,6.4-1.2v-8.6h-5.3v-2.9h13.9v2.9h-5.6V69z
		 M414.4,45.5c1.6,1,3.5,2.6,4.4,3.7l-2.1,1.9c-0.9-1.1-2.8-2.8-4.3-3.9L414.4,45.5z"/>
	<path d="M443.2,52.2v19.1c0,1.5-0.3,2.3-1.3,2.8c-0.9,0.4-2.4,0.5-4.4,0.5c-0.2-0.8-0.6-2.1-1.1-2.8c1.4,0.1,2.8,0.1,3.2,0
		c0.4,0,0.6-0.1,0.6-0.5V52.2h-2.6c-0.9,2.3-1.8,4.3-2.9,5.8c-0.4-0.3-1.3-0.9-2-1.3v0.4h-3.9v1c0.9,0.9,3.5,3.7,4.1,4.4l-1.7,2.4
		c-0.5-0.9-1.5-2.5-2.4-3.8v13.6h-2.7V61.6c-1.2,2.9-2.6,5.7-4,7.5c-0.3-0.8-1-1.9-1.4-2.6c1.9-2.1,3.8-6,5-9.4h-4.3v-2.8h4.7v-4.6
		c-1.2,0.3-2.5,0.4-3.7,0.6c-0.1-0.6-0.4-1.6-0.8-2.2c3.4-0.6,7.3-1.5,9.7-2.6l1.7,2.4c-1.2,0.5-2.7,0.9-4.2,1.3v5.2h3.9v1.4
		c1.8-2.7,3.1-6.5,3.9-10.4l2.8,0.5c-0.3,1.2-0.5,2.3-0.9,3.5h9.5l0.4-0.1l1.9,0.5c-0.7,2.1-1.7,4.4-2.6,6.3l-2.6-0.7
		c0.5-1,1-2.2,1.5-3.3H443.2z M438.5,58.3c-0.8,4.3-2.2,8.5-4,11.3c-0.5-0.4-1.7-1.2-2.4-1.5c1.7-2.5,2.9-6.4,3.6-10.3L438.5,58.3z
		 M447.2,57.5c1.4,3.5,2.7,8,3.2,11l-2.8,0.9c-0.4-3-1.7-7.6-3-11.1L447.2,57.5z"/>
	<path d="M478.6,52.9c0,0,0,1.1,0,1.5c-0.5,12.5-0.9,17-2.1,18.5c-0.8,1-1.6,1.3-2.8,1.5c-1.2,0.2-3.1,0.1-5.1,0
		c-0.1-0.9-0.5-2.2-1.1-3.1c2.1,0.2,4,0.2,4.8,0.2c0.7,0,1-0.1,1.4-0.5c0.9-0.9,1.4-5,1.8-15.1h-10.2C464.4,62,461.8,69,454,74.2
		c-0.5-0.6-1.6-1.7-2.4-2.1c7.2-4.6,9.7-10.8,10.6-16.2h-9.7v-3h10.1c0.1-1.2,0.1-2.4,0.1-3.5v-4h3v4c0,1.1,0,2.3-0.1,3.5H478.6z
		 M457.9,52.1c-0.6-1.3-2-3.3-3.1-4.8l2.6-1.1c1.2,1.4,2.7,3.4,3.3,4.7L457.9,52.1z M469.5,66.7c-0.8-1.7-2.5-4.3-4.1-6.1l2.5-1.2
		c1.6,1.8,3.4,4.3,4.2,6L469.5,66.7z"/>
	<path d="M491.6,69.3c-2.1,1.9-5.2,3.8-7.7,5c-0.5-0.5-1.6-1.6-2.2-2c2.6-1,5.4-2.5,7.2-4.1L491.6,69.3z M508.4,47.1
		c-1,2.9-2.8,5.2-4.9,7c1.8,1,4,1.7,6.4,2c-0.6,0.6-1.5,1.8-1.9,2.6c-2.8-0.6-5.1-1.6-7.1-2.9c-2,1.1-4.4,2-6.9,2.5
		c-1.1,0.8-2.3,1.6-3.5,2.3l5.6-0.1c1.3-0.7,2.6-1.4,3.8-2.2l2,2.1c-3.2,1.9-6.6,3.5-10,4.8l11-0.5c-0.7-0.6-1.4-1.1-2.1-1.6l2-1.4
		c2.3,1.5,5.1,3.7,6.5,5.4l-2.2,1.6c-0.4-0.6-1-1.2-1.7-1.9l-7.7,0.4v4.5c0,1.4-0.3,2.1-1.5,2.5c-1.1,0.4-2.7,0.4-5,0.4
		c-0.2-0.8-0.7-1.9-1.1-2.6c1.7,0.1,3.4,0.1,3.8,0.1c0.5,0,0.6-0.1,0.6-0.5v-4.2c-8.4,0.5-9.8,0.6-10.8,1c-0.1-0.6-0.5-2-0.8-2.8
		c1.1-0.1,2.3-0.5,4.1-1.2c0.8-0.3,2.2-0.8,3.9-1.6c-3.8,0.2-4.5,0.3-5.1,0.4c-0.1-0.6-0.6-1.9-0.9-2.6c0.6-0.1,1.2-0.4,2-0.8
		c0.5-0.3,1.8-1.1,3.2-2h-1.8v-12h2.7v11.2c0.4-0.3,0.7-0.6,1-0.9l1.2,0.9c-0.3-0.5-0.6-0.9-0.9-1.2c2.2-0.4,4.3-1.1,6.1-2
		c-1.4-1.3-2.5-3-3.3-4.9h-1.9v-2.6h12.6l0.5-0.1L508.4,47.1z M485.9,56.8h-2.7v-9.5h2.7V56.8z M498.2,49.1c0.8,1.3,1.8,2.5,3,3.5
		c1.4-1,2.5-2.1,3.4-3.5H498.2z M502.1,68.3c2.4,1.2,5.6,3.1,7.3,4.4l-2.3,1.7c-1.6-1.3-4.7-3.3-7.2-4.5L502.1,68.3z"/>
	<path d="M521.7,61.9l-3.6,1v8.3c0,1.5-0.3,2.2-1.2,2.7c-0.9,0.5-2.2,0.5-4.2,0.5c-0.1-0.7-0.5-1.9-0.9-2.7c1.2,0,2.5,0,2.8,0
		c0.4,0,0.6-0.2,0.6-0.6v-7.5l-3.7,1l-0.5-2.9c1.2-0.3,2.7-0.6,4.2-1v-6.4h-3.9v-2.8h3.9v-6.2h2.8v6.2h3.2v2.8h-3.2V60l3.2-0.8
		L521.7,61.9z M526.9,45.6h2.8v29.1h-2.8v-8.1h-5.1v-2.7h5.1v-4h-4.4v-2.6h4.4v-4h-4.4v-2.7h4.4V45.6z M540.4,66.7h-5.2v8.1h-2.8
		V45.6h2.8v5h4.8v2.7h-4.8v4h4.5v2.6h-4.5V64h5.2V66.7z"/>
</g>
</svg>
