<?xml version="1.0" encoding="UTF-8"?><svg id="a" xmlns="http://www.w3.org/2000/svg" viewBox="0 0 289.1 163.87"><defs><style>.b{fill:#231916;}.c{stroke:#231916;stroke-width:.5px;}.c,.d{fill:none;}.d{stroke:#8fc421;stroke-width:.75px;}</style></defs><path class="b" d="m28.51,82.37c-.5.65-1.15.94-2.66.5-4.75,3.67-13.25,7.56-21.31,9.65l-.72-1.01c6.84-3.31,14.4-9,18.07-13.32l6.62,4.18Zm-14.69-30.17c0,.79-2.52,2.23-4.54,2.23h-.79v-23.98l7.99.72c-.14,1.08-.79,1.73-2.66,2.02v19.01Zm52.06-18.87c-.58.65-1.3.86-2.88.94-2.74,4.25-6.34,7.85-10.87,10.8,4.9,2.16,10.58,3.53,16.63,4.18v.79c-2.23.58-4.03,2.45-4.54,5.11-6.84-1.51-12.53-3.82-17.07-7.27-3.53,1.73-7.42,3.17-11.74,4.32l4.46,3.1c-.43.58-1.51,1.08-3.17.5-3.74,1.94-9.94,4.25-15.99,6.12,5.47-.29,12.67-.72,20.16-1.22,3.96-2.02,7.42-3.89,9.72-5.47l6.41,4.75c-.36.65-1.58,1.08-3.24.36-7.99,3.82-22.32,8.71-35.43,12.02,8.64-.22,21.39-.65,34.92-1.22-2.3-2.02-4.75-3.89-6.91-5.18l.65-.72c20.09,3.6,18.51,15.91,12.46,13.25-.94-1.87-2.59-3.89-4.61-5.83-4.39.65-9.65,1.3-15.7,2.02v12.6c0,4.1-1.01,6.48-7.63,7.06-.14-1.51-.43-2.74-1.22-3.53-.79-.79-2.16-1.37-4.97-1.73v-1.08s5.47.43,6.84.43c1.01,0,1.3-.43,1.3-1.22v-11.88c-6.12.65-12.82,1.37-19.95,2.09-.5.72-1.08,1.08-1.66,1.22l-2.66-6.48s1.73-.07,2.66-.36c7.27-1.73,15.91-4.97,23.47-8.42-5.54.94-12.24,2.09-19.37,3.02-.43.72-1.01,1.08-1.51,1.3l-2.38-5.83s1.22-.22,1.87-.36c5.47-1.44,12.24-5.26,16.71-8.35l-1.3.29-.5-1.08c5.83-1.66,11.09-3.96,15.55-6.84-3.38-3.1-6.05-7.13-8.06-11.88h-4.68l-.65-2.16h25.56l3.53-3.31,5.76,5.18Zm-38.52,19.08c0,.79-2.59,2.23-4.68,2.23h-.79v-27.07l8.14.79c-.14,1.01-.79,1.73-2.66,2.02v22.03Zm10.66-18.79c2.45,3.74,5.83,6.91,10.08,9.36,3.38-2.74,6.19-5.83,8.21-9.36h-18.29Zm6.77,46.16c24.27,2.02,24.55,15.19,17.57,13.47-3.6-4.61-12.02-9.94-18.15-12.6l.58-.86Z"/><path class="b" d="m95.11,43.7c-.29.86-1.01,1.58-2.74,1.58-.43,24.99.07,39.82-17.28,49.04l-.94-1.22c13.61-10.01,13.32-24.12,13.39-51.2l7.56,1.8Zm4.68-12.67l5.54,4.39c-.5.58-1.22,1.08-2.81,1.3v32.83c0,.29-1.87,1.51-4.25,1.51h-.79v-34.78h-14.76v34.27c0,.43-1.58,1.58-4.1,1.58h-.79V31.75l5.69,2.38h13.61l2.66-3.1Zm-8.28,42.12c17.14,7.49,12.67,19.8,7.2,15.55-.79-5.04-4.68-11.16-7.99-15.05l.79-.5Zm44.07-32.55s3.89,2.95,6.05,5.26c-.14.79-.86,1.15-1.73,1.15h-16.13v14.69h6.98l2.74-3.24,5.83,4.46c-.5.65-1.3,1.01-2.81,1.3v27.58c0,.36-2.02,1.51-4.54,1.51h-.94v-5.04h-18.79v4.1c0,.43-1.66,1.58-4.39,1.58h-.86v-34.78l6.12,2.52h5.11V28.29l8.21.86c-.22,1.01-.86,1.73-2.66,2.02v13.68h8.57l3.24-4.25Zm-23.33,23.19v22.39h18.79v-22.39h-18.79Z"/><path class="b" d="m176.62,28.5s4.03,3.17,6.55,5.47c-.22.72-.94,1.08-1.94,1.08h-11.09v10.22h3.53l2.81-3.17,6.05,4.75c-.43.58-1.58,1.08-2.95,1.37v42.7c-.07.5-2.59,1.73-4.39,1.73h-.79v-5.26h-20.59v4.61c0,.58-1.94,1.87-4.18,1.87h-.86v-51.2l5.4,2.59h3.31v-10.22h-10.08l-.58-2.09h26.35l3.46-4.46Zm-7.42,36.44c-2.95,0-3.46-1.08-3.46-3.46v-14.11h-3.89v2.95c0,5.18-.58,12.96-7.34,18.22l-.72-.86v5.69h20.59v-8.64c-.86.14-1.87.22-3.24.22h-1.94Zm-15.41-17.57v19.8c4.03-5.4,4.25-11.81,4.25-16.85v-2.95h-4.25Zm20.59,37.95v-9.86h-20.59v9.86h20.59Zm-8.64-50.26h-3.89v10.22h3.89v-10.22Zm3.82,12.31v12.75c0,.72.14.94.72.94h3.02c.29-.07.72-.14,1.08-.22v-13.46h-4.82Zm42.41,38.52c1.66.65,2.09,1.37,2.09,2.38,0,2.52-2.59,3.53-13.97,3.53h-7.56c-5.98,0-7.42-1.22-7.42-5.62v-36.22l6.26,2.66h12.1v-17.71h-18.43l-.65-2.02h18.22l2.95-3.46,6.7,5.18c-.43.65-1.73,1.3-3.38,1.58v23.33c-.07.5-2.81,1.66-4.54,1.66h-.86v-6.48h-12.89v30.1c0,1.37.29,1.8,3.03,1.8h6.77c3.1,0,5.4,0,6.41-.14.86-.07,1.15-.29,1.51-1.01.58-1.3,1.58-5.9,2.52-10.73h.94l.22,11.16Z"/><path class="b" d="m278.5,84.67s4.32,3.17,7.06,5.62c-.22.79-.94,1.15-1.87,1.15h-64.01l-.58-2.09h12.75v-34.35l6.48,2.66h8.43c.21-1.58.5-3.46.72-5.4h-26.93l-.65-2.09h27.79c.21-1.73.43-3.38.58-4.9l8.86,1.22c-.21,1.01-1.15,1.66-2.66,1.8l-.72,1.87h20.02l2.52-3.1c-.65.22-1.51.36-2.23.36h-.94v-3.1h-40.97v2.09c0,.5-2.59,1.73-4.75,1.73h-.79v-18.87l6.05,2.52h39.75l2.95-3.1,6.34,4.75c-.43.58-1.58,1.15-2.95,1.44v10.87c0,.14-.22.29-.43.43,1.37,1.01,4.11,3.17,6.05,4.9-.14.79-.94,1.15-1.94,1.15h-29.38c-.79,1.87-1.58,3.74-2.3,5.4h15.91l2.88-3.67,7.13,5.11c-.5.72-1.44,1.08-3.31,1.37v28.87h1.37l3.82-4.68Zm-46.37-42.41h9.87v-8.35h-9.87v8.35Zm5.4,17.5v5.98h29.88v-5.98h-29.88Zm29.88,8.14h-29.88v5.47h29.88v-5.47Zm-29.88,7.56v5.54h29.88v-5.54h-29.88Zm0,13.9h29.88v-6.26h-29.88v6.26Zm9.72-55.44v8.35h10.15v-8.35h-10.15Zm25.85,8.35v-8.35h-10.44v8.35h10.44Z"/><rect class="d" x=".58" y="24.19" width="72" height="72"/><rect class="d" x="72.58" y="24.19" width="72" height="72"/><rect class="d" x="144.66" y="24.19" width="72" height="72"/><rect class="d" x="216.73" y="24.19" width="72" height="72"/><polyline class="c" points="78.78 20.86 72.89 23.94 73.17 17.3"/><polyline class="c" points="72.89 23.94 79.45 13.62 110.68 13.62"/><path class="b" d="m91.87,3.29c-1.84,2.23-4.95,3.69-8.02,4.59-.11-.2-.37-.57-.54-.76,3.11-.76,6.14-2.18,7.8-4.21l.76.38Zm-6.1.97c-.39.75-.92,1.67-1.62,2.25l-.73-.44c.7-.53,1.28-1.41,1.62-2.14l.74.33Zm8.18-2.75v2.35h-.91v-1.54h-8.38v1.54h-.88V1.52h10.17Zm-8.28,6.69v1.92h6.95v.85h-7.83v-2.76h.88Zm1.62-4.47v2.3c0,.34.13.4.84.4h2.44c.58,0,.68-.17.73-1.33.19.13.53.25.76.3-.11,1.42-.38,1.77-1.43,1.77h-2.55c-1.28,0-1.61-.23-1.61-1.13v-2.31h.82Zm.24-1.23c.74.33,1.64.86,2.09,1.26l-.48.58c-.44-.42-1.33-.98-2.07-1.32l.45-.53Zm1.48-2.14c.2.45.38,1.05.44,1.42l-.9.18c-.05-.38-.21-.99-.38-1.46l.85-.14Zm.27,7.2v3.01h-.91v-3.01h.91Zm2.97-3.58c.76.64,1.66,1.56,2.06,2.2l-.69.5c-.38-.63-1.25-1.59-2.02-2.26l.65-.44Zm.75,4.12v3.39h-.9v-3.39h.9Z"/><path class="b" d="m99.23,5.77l.11.82c-1.32.4-2.71.81-3.79,1.12l-.18-.88c.99-.24,2.46-.66,3.86-1.06Zm-.03-2.87v.85h-3.69v-.85h3.69Zm-1.29-2.42v9.91c0,.48-.1.72-.4.86-.3.15-.76.17-1.49.17-.04-.23-.16-.59-.27-.82.5.01.96.01,1.09.01.16,0,.21-.06.21-.21V.49h.86Zm4.01,7.04v.82h-2.49v-.82h2.49Zm.07-4.99v.81h-2.31v-.81h2.31Zm-.13,2.49v.8h-2.15v-.8h2.15Zm.47-4.46v10.94h-.87V.57h.87Zm1.98,0v10.96h-.87V.57h.87Zm1.95,1.98v.81h-2.43v-.81h2.43Zm-.1,2.49v.8h-2.28v-.8h2.28Zm.24,2.53v.82h-2.49v-.82h2.49Z"/></svg>