<?xml version="1.0" encoding="UTF-8"?><svg id="a" xmlns="http://www.w3.org/2000/svg" viewBox="0 0 289.1 163.87"><defs><style>.b{fill:#231916;}.c{stroke:#231916;stroke-width:.5px;}.c,.d{fill:none;}.d{stroke:#8fc421;stroke-width:.75px;}</style></defs><path class="b" d="m27.58,83.01c-.5.65-1.08.94-2.66.5-4.61,3.46-12.89,7.34-20.81,9.22l-.58-.94c6.62-3.17,14.04-8.64,17.64-12.89l6.41,4.1Zm39.68-49.11c-.43.58-1.22.86-2.81.94-1.87,5.26-4.82,10.08-8.79,14.19,4.03,2.74,8.64,4.68,13.75,6.12l-.14.72c-2.16.36-3.82,1.94-4.46,4.32-4.9-2.02-9.07-4.68-12.67-8.06-3.67,3.02-8.21,5.47-13.61,7.34l-.58-.94c4.68-2.38,8.64-5.4,11.74-8.86-3.6-4.18-6.41-9.22-8.21-15.41h-2.66l-.36-1.22c-.29.43-.86.65-1.66.65h-11.74v5.33h5.83l2.59-2.74,5.69,4.25c-.36.5-1.44,1.08-2.74,1.37v7.63c-.07.43-2.45,1.51-4.03,1.51h-.86v-2.23h-6.48v6.05h6.84l2.95-3.67s3.38,2.59,5.4,4.61c-.14.79-.79,1.15-1.8,1.15h-6.19l5.26,3.31c-.36.65-1.51,1.22-3.38.58-3.67,1.51-9.5,3.17-14.98,4.39,4.61.07,10.87,0,17.28-.07,4.97-2.3,9.36-4.68,12.17-6.48l4.75,5.33c-.5.5-1.8.65-3.24-.22-7.13,3.38-20.38,8.06-32.83,11.23,8.5-.14,21.17-.58,34.78-1.15-2.52-2.02-5.26-3.82-7.63-5.11l.65-.79c20.59,2.74,19.15,14.11,13.11,11.95-1.01-1.37-2.59-2.95-4.32-4.54-4.32.5-9.43,1.08-15.12,1.73v10.66c0,3.96-1.01,6.12-7.99,6.7-.07-1.44-.43-2.52-1.22-3.31-.94-.65-2.45-1.3-5.47-1.66v-1.01s6.05.36,7.49.36c1.22,0,1.51-.36,1.51-1.22v-10.01c-6.19.65-13.03,1.3-20.23,1.94-.58.65-1.15,1.08-1.73,1.22l-1.94-6.05s1.51-.07,2.38-.36c6.26-1.51,13.47-4.18,20.02-6.98-4.61.5-10.3,1.15-16.13,1.66-.43.5-.86.79-1.3.94l-2.02-5.47s1.08-.14,1.66-.36c6.05-1.01,13.54-4.9,17.21-7.2H12.96l-2.09,2.59-6.34-3.53c.58-.58,1.66-1.22,2.59-1.73v-25.63l6.12,2.88h16.78l3.1-3.67s3.02,2.3,5.11,4.32h20.16l3.31-3.24,5.54,4.97Zm-47.09-.22h-7.85v5.33h7.85v-5.33Zm-7.85,7.42v5.54h19.23v-5.54H12.31Zm7.85,7.7h-7.85v6.05h7.85v-6.05Zm22.75-14.55c2.16,4.9,5.4,9,9.36,12.31,2.81-3.74,4.9-7.92,6.19-12.31h-15.55Zm1.01,45.58c23.26,1.22,23.19,14.26,16.2,12.46-3.38-4.18-11.02-9.14-16.78-11.67l.58-.79Z"/><path class="b" d="m99.22,28.86l5.98,4.75c-.5.65-1.3,1.08-2.88,1.3v40.9c0,.36-2.09,1.58-4.82,1.58h-.79v-3.67h-12.6v2.95l7.63,3.6c-.43.72-1.01,1.15-2.66.86-2.95,4.39-8.06,9.72-13.97,12.96l-.79-.94c4.18-4.18,7.92-10.87,9.58-15.84-.5.5-2.02,1.3-4.25,1.3h-.94V29.73l6.26,2.59h11.45l2.81-3.46Zm-15.12,5.62v10.8h12.6v-10.8h-12.6Zm0,12.89v11.02h12.6v-11.02h-12.6Zm12.6,24.27v-11.16h-12.6v11.16h12.6Zm-3.89,5.76c16.06,5.98,10.58,17.79,4.9,13.25-.36-4.39-3.1-9.58-5.69-12.89l.79-.36Zm31.61-30.46v15.91h7.56l2.74-3.24,5.76,4.46c-.43.58-1.15,1.01-2.66,1.22v26.64c0,.29-2.02,1.51-4.75,1.51h-.79v-5.47h-19.66v4.32c0,.36-1.66,1.58-4.46,1.58h-.86v-33.56l6.19,2.52h5.26V28.43l8.28.86c-.22,1.01-.87,1.73-2.59,2.02v13.47h7.42l3.6-4.9s4.11,3.46,6.48,5.9c-.14.79-.86,1.15-1.87,1.15h-15.63Zm-11.81,18v20.95h19.66v-20.95h-19.66Z"/><path class="b" d="m175.68,28.58s3.96,3.1,6.34,5.4c-.22.79-.94,1.15-1.87,1.15h-10.73v10.23h2.52l2.88-3.1,5.98,4.75c-.36.58-1.51,1.15-2.95,1.44v42.34c-.07.58-2.59,1.8-4.39,1.8h-.79v-4.75h-18.22v4.18c0,.65-1.94,1.87-4.1,1.87h-.86v-50.91l5.4,2.38h2.66v-10.23h-10.01l-.58-2.09h25.27l3.46-4.46Zm-3.02,57.17v-19.59c-.65.07-1.44.07-2.38.07h-1.87c-2.81,0-3.31-1.08-3.31-3.31v-15.48h-3.24v3.1c0,5.4-.5,13.54-7.13,19.01l-.29-.29v16.49h18.22Zm-18.22-38.31v20.16c3.67-5.62,3.74-12.03,3.74-17.14v-3.02h-3.74Zm12.46,22.9s2.59,2.16,4.25,3.96c-.22.79-.86,1.15-1.8,1.15h-12.46l-.58-2.09h8.21l2.38-3.02Zm-1.8-35.21h-3.24v10.23h3.24v-10.23Zm3.75,12.31v14.19c0,.72.14.94.65.94h2.74c.14,0,.29,0,.43-.07v-15.05h-3.82Zm42.92,38.24c1.87.65,2.3,1.37,2.3,2.38,0,2.52-2.74,3.53-14.62,3.53h-8.06c-6.26,0-7.71-1.3-7.71-5.69v-35.36l6.34,2.66h13.25v-18h-19.3l-.65-2.16h19.15l3.02-3.31,6.7,5.04c-.5.65-1.8,1.37-3.53,1.66v23.69c-.07.43-2.74,1.66-4.54,1.66h-.86v-6.48h-14.19v29.38c0,1.3.43,1.8,3.31,1.8h7.34c3.31,0,5.83-.07,6.84-.14.86-.07,1.22-.29,1.51-1.08.65-1.3,1.66-5.69,2.59-10.58h.94l.14,11.02Z"/><path class="b" d="m278.5,84.67s4.32,3.17,7.06,5.62c-.22.79-.94,1.15-1.87,1.15h-64.01l-.58-2.09h12.75v-34.35l6.48,2.66h8.43c.21-1.58.5-3.46.72-5.4h-26.93l-.65-2.09h27.79c.21-1.73.43-3.38.58-4.9l8.86,1.22c-.21,1.01-1.15,1.66-2.66,1.8l-.72,1.87h20.02l2.52-3.1c-.65.22-1.51.36-2.23.36h-.94v-3.1h-40.97v2.09c0,.5-2.59,1.73-4.75,1.73h-.79v-18.87l6.05,2.52h39.75l2.95-3.1,6.34,4.75c-.43.58-1.58,1.15-2.95,1.44v10.87c0,.14-.22.29-.43.43,1.37,1.01,4.11,3.17,6.05,4.9-.14.79-.94,1.15-1.94,1.15h-29.38c-.79,1.87-1.58,3.74-2.3,5.4h15.91l2.88-3.67,7.13,5.11c-.5.72-1.44,1.08-3.31,1.37v28.87h1.37l3.82-4.68Zm-46.37-42.41h9.87v-8.35h-9.87v8.35Zm5.4,17.5v5.98h29.88v-5.98h-29.88Zm29.88,8.14h-29.88v5.47h29.88v-5.47Zm-29.88,7.56v5.54h29.88v-5.54h-29.88Zm0,13.9h29.88v-6.26h-29.88v6.26Zm9.72-55.44v8.35h10.15v-8.35h-10.15Zm25.85,8.35v-8.35h-10.44v8.35h10.44Z"/><rect class="d" x=".58" y="24.19" width="72" height="72"/><rect class="d" x="72.58" y="24.19" width="72" height="72"/><rect class="d" x="144.66" y="24.19" width="72" height="72"/><rect class="d" x="216.73" y="24.19" width="72" height="72"/><polyline class="c" points="78.78 20.86 72.89 23.94 73.17 17.3"/><polyline class="c" points="72.89 23.94 79.45 13.62 110.68 13.62"/><path class="b" d="m91.87,3.29c-1.84,2.23-4.95,3.69-8.02,4.59-.11-.2-.37-.57-.54-.76,3.11-.76,6.14-2.18,7.8-4.21l.76.38Zm-6.1.97c-.39.75-.92,1.67-1.62,2.25l-.73-.44c.7-.53,1.28-1.41,1.62-2.14l.74.33Zm8.18-2.75v2.35h-.91v-1.54h-8.38v1.54h-.88V1.52h10.17Zm-8.28,6.69v1.92h6.95v.85h-7.83v-2.76h.88Zm1.62-4.47v2.3c0,.34.13.4.84.4h2.44c.58,0,.68-.17.73-1.33.19.13.53.25.76.3-.11,1.42-.38,1.77-1.43,1.77h-2.55c-1.28,0-1.61-.23-1.61-1.13v-2.31h.82Zm.24-1.23c.74.33,1.64.86,2.09,1.26l-.48.58c-.44-.42-1.33-.98-2.07-1.32l.45-.53Zm1.48-2.14c.2.45.38,1.05.44,1.42l-.9.18c-.05-.38-.21-.99-.38-1.46l.85-.14Zm.27,7.2v3.01h-.91v-3.01h.91Zm2.97-3.58c.76.64,1.66,1.56,2.06,2.2l-.69.5c-.38-.63-1.25-1.59-2.02-2.26l.65-.44Zm.75,4.12v3.39h-.9v-3.39h.9Z"/><path class="b" d="m98.9,5.57l.12.83c-1.25.43-2.57.85-3.59,1.18l-.23-.87c.93-.27,2.34-.7,3.7-1.14Zm.1-2.67v.84h-3.64v-.84h3.64Zm-1.3-2.41v9.98c0,.49-.11.74-.41.88-.28.14-.75.17-1.51.17-.03-.21-.14-.59-.26-.84.52.02.98.02,1.13,0,.14,0,.21-.04.21-.21V.49h.84Zm3.51,6.87l.13.7c-.83.32-1.69.63-2.42.89l-.35-.78c.69-.18,1.66-.5,2.64-.81Zm.75-6.88v5.07c0,2.4-.28,4.51-2.46,5.98-.14-.18-.44-.46-.64-.6,2.03-1.34,2.27-3.22,2.27-5.38V.48h.82Zm-.46,2.05v.83h-2.33v-.83h2.33Zm.03,2.52v.81h-2.28v-.81h2.28Zm2.53-4.56v11.02h-.85V.48h.85Zm2.31,7.17v.83h-2.73v-.83h2.73Zm-.21-5.13v.83h-2.51v-.83h2.51Zm-.12,2.52v.81h-2.34v-.81h2.34Z"/></svg>