<svg xmlns="http://www.w3.org/2000/svg" viewBox="0 0 722.04 560.26"><defs><style>.a,.b{fill:none;stroke-miterlimit:10}.a{stroke:#ccc}.b{stroke:#999;stroke-width:2px}.c{fill:#999}</style></defs><path d="M558.75 143.17c.15-.2.22-.2.4-.1a18.47 18.47 0 0 1 3.45 2.6c.12.13.1.18-.08.4l-.52.7c-.18.23-.23.25-.4.08a18.21 18.21 0 0 0-3.35-2.7c-.15-.1-.1-.18 0-.38zM560.6 157a8.4 8.4 0 0 0-.53 1c-.05.18-.1.28-.25.28a.7.7 0 0 1-.32-.15c-.4-.28-.8-.6-1.15-.9a8.68 8.68 0 0 0 1.42-2 46.24 46.24 0 0 0 2.58-5.55 3.41 3.41 0 0 0 .72.78c.4.3.4.3.25.75a58 58 0 0 1-2.72 5.79zm-.33-19.94c.18-.2.23-.23.38-.13a19.66 19.66 0 0 1 3.42 2.78c.13.12.1.17-.07.39l-.5.63c-.18.23-.3.23-.43.08a20.12 20.12 0 0 0-3.32-2.83c-.18-.12-.18-.17 0-.4zm20 20.44c0 .18 0 .2-.2.2s-1-.05-3.55-.05h-9.32c-2.55 0-3.43.05-3.55.05s-.2 0-.2-.2v-1.1c0-.17 0-.2.2-.2s1 .05 3.55.05h3.67v-6.52h-1.9c-2.4 0-3.17.05-3.32.05s-.18 0-.18-.2v-1.08c0-.17 0-.2.18-.2s.92.05 3.32.05h1.9v-5.3h-2.47c-2.48 0-3.28.05-3.4.05s-.2 0-.2-.2v-1.07c0-.18 0-.2.2-.2h14.07c.15 0 .2 0 .2.2v1.07c0 .18 0 .2-.2.2s-1-.05-3.45-.05h-3.12v5.3h2.47c2.4 0 3.17-.05 3.3-.05s.22 0 .22.2v1.08c0 .17 0 .2-.22.2s-.9-.05-3.3-.05h-2.47v6.52h4c2.55 0 3.42-.05 3.55-.05s.2 0 .2.2zm-10.67-21c.2-.2.25-.2.4-.12a21.6 21.6 0 0 1 4 2.92c.15.13.1.23-.1.43l-.55.62c-.2.22-.3.28-.45.12a20.54 20.54 0 0 0-4-3c-.15-.1-.15-.15.1-.4zM580.12 170.88c0 .17 0 .2-.2.2s-.9-.05-3.22-.05h-15.28c-2.3 0-3.07.05-3.2.05s-.2 0-.2-.2v-1.08c0-.17 0-.2.2-.2s.9.05 3.2.05h3.43a18 18 0 0 0-1.33-3.2c-.07-.15 0-.17.25-.3l.78-.25c.2-.07.27-.05.37.13a16.63 16.63 0 0 1 1.5 3.62h4.7c.5-1.05.93-2 1.18-2.72a4.76 4.76 0 0 0 .27-1.2 10.66 10.66 0 0 1 1.48.37c.2.08.27.15.27.28a.41.41 0 0 1-.17.32 1.68 1.68 0 0 0-.35.53c-.35.8-.7 1.65-1.1 2.42h4c2.32 0 3.09-.05 3.22-.05s.2 0 .2.2zm-1.68-5.88c0 .2 0 .22-.19.22s-1-.05-3.45-.05h-11.65c-2.53 0-3.33.05-3.48.05s-.2 0-.2-.22v-1c0-.18 0-.2.2-.2s1 .05 3.48.05h4.87v-.15a10.16 10.16 0 0 0-.17-2.5 11 11 0 0 1 1.65.1c.2 0 .3.12.3.2a1 1 0 0 1-.13.47 5.31 5.31 0 0 0-.12 1.73v.15h5.22c2.52 0 3.32-.05 3.48-.05s.19 0 .19.2zm-2.47 13.8v4.64c0 .12 0 .2-.2.2h-1.15c-.17 0-.2 0-.2-.2v-1.15h-10.9v1.25c0 .15 0 .18-.2.18h-1.15c-.17 0-.2 0-.2-.18s.05-.77.05-4.72v-2.32c0-2.35-.05-3-.05-3.15s0-.2.2-.2h13.6c.15 0 .2 0 .2.2v2.82zm-1.5-4.3h-10.9v2.52h10.93zm0 3.8h-10.9v2.7h10.93zM568.82 189.85c0 .18 0 .2-.2.2s-.75-.05-2.7-.05h-1a14.27 14.27 0 0 1 1.15 2.45c.05.18 0 .23-.23.3l-.82.23c-.33.1-.38.07-.43-.13a14.23 14.23 0 0 0-1.19-2.85h-2a21.87 21.87 0 0 1-2.28 2.93c-.15.15-.25.25-.32.25s-.18-.1-.37-.28a2.24 2.24 0 0 0-.8-.57 14.91 14.91 0 0 0 3.52-4.88 4.17 4.17 0 0 0 .37-1.3 13 13 0 0 1 1.5.35c.18.05.25.15.25.28a.43.43 0 0 1-.2.3 1.46 1.46 0 0 0-.4.6c-.17.35-.32.72-.52 1h6.52c.15 0 .2 0 .2.2zm-7.2 11.6v-3.07a20 20 0 0 1-2.67 2.77c-.18.15-.28.23-.35.23s-.2-.1-.33-.33a2.75 2.75 0 0 0-.67-.8 18.89 18.89 0 0 0 5.15-6 5.25 5.25 0 0 0 .57-1.42 10.65 10.65 0 0 1 1.38.62c.15.1.25.2.25.3s0 .2-.23.3a2.51 2.51 0 0 0-.6.73c-.3.52-.65 1.1-1 1.7v12.07c0 .15 0 .17-.17.17h-1.23c-.17 0-.2 0-.2-.17v-3.15zm18.45-3.92c0 .17 0 .2-.2.2h-3.85v4.85c0 1.37.05 2.52.05 3.72 0 .9-.17 1.45-.75 1.77s-1.45.43-3.47.43c-.5 0-.5 0-.63-.48a3.34 3.34 0 0 0-.52-1.17 16.26 16.26 0 0 0 2.2.15c1.4 0 1.62-.18 1.62-1v-8.29h-9.65c-.13 0-.2 0-.2-.2v-1.08c0-.17 0-.2.2-.2s1 .05 3.48.05h6.15v-.07a15.81 15.81 0 0 0-.17-3c.62 0 1.12.08 1.65.15.17 0 .32.1.32.23s-.1.27-.17.45a6.63 6.63 0 0 0-.13 2.17v.1h.38c2.49 0 3.34-.05 3.47-.05s.2 0 .2.2zm-12.57 2c.2-.15.25-.12.37 0a17.69 17.69 0 0 1 3 3.75c.1.15 0 .23-.17.38l-.63.44c-.27.21-.35.23-.47 0a17.13 17.13 0 0 0-2.9-3.77c-.15-.15-.13-.2.12-.38zm12.44-9.7c0 .18 0 .2-.17.2s-.85-.05-3-.05h-1.88a11 11 0 0 1 1.17 2.2c.06.15 0 .23-.25.3l-.74.23c-.33.1-.38.1-.45-.1a12 12 0 0 0-1.28-2.63h-2.15a17.52 17.52 0 0 1-1.85 2.73c-.15.17-.22.27-.32.27s-.2-.1-.38-.25a3 3 0 0 0-.85-.5 14.3 14.3 0 0 0 3.05-4.9 5 5 0 0 0 .28-1.17 11.88 11.88 0 0 1 1.45.32c.17.05.27.15.27.25s-.07.23-.22.35-.18.23-.35.65-.28.68-.43 1h7.93c.13 0 .17 0 .17.2zM566.85 222.3c0 .18 0 .2-.2.2s-.73-.05-2.68-.05h-2c-.22.85-.47 1.78-.75 2.68h2.43c.72 0 1.37 0 1.77-.05.18 0 .23.05.23.25a11.92 11.92 0 0 0-.13 1.3 20.86 20.86 0 0 1-1 5.67 2 2 0 0 1-2 1.17 10.14 10.14 0 0 1-1.23-.07c-.42 0-.42-.08-.5-.5a3.55 3.55 0 0 0-.35-1 8.59 8.59 0 0 0 1.8.22c.63 0 1-.17 1.18-.65a19.52 19.52 0 0 0 .77-5h-3.35l-.35 1c-.07.17-.12.17-.4.12l-.8-.15c-.27-.07-.27-.15-.2-.3a28.5 28.5 0 0 0 1.55-4.65c-1.77 0-2.35.05-2.47.05s-.18 0-.18-.2v-1.05c0-.17 0-.2.18-.2s.72.05 2.67.05h3.2c1.95 0 2.55-.05 2.68-.05s.2 0 .2.2zm-1.05-5.52c0 1.42.05 1.87.05 2s0 .2-.2.2-.6-.05-2.18-.05h-2c-1.55 0-2.05.05-2.2.05s-.2 0-.2-.2.05-.6.05-2v-2.18c0-1.4-.05-1.87-.05-2s0-.2.2-.2.65.05 2.2.05h2c1.58 0 2-.05 2.18-.05s.2 0 .2.2-.05.6-.05 2zm-1.38-3h-3.92v4h3.95zm14.05 2.5a.83.83 0 0 0 .42-.08.64.64 0 0 1 .28-.07c.2 0 .32.07.7.37s.45.45.45.58-.08.2-.2.3a1.41 1.41 0 0 0-.35.6 17.63 17.63 0 0 1-1.15 2c-.13.2-.23.28-.3.28a.66.66 0 0 1-.32-.15 3 3 0 0 0-.88-.35 10.29 10.29 0 0 0 1.38-2.26h-9.4v2.85a56.74 56.74 0 0 1-.3 6.45 14.64 14.64 0 0 1-2.15 6.37c-.13.18-.2.28-.28.28s-.17-.1-.35-.25a2.58 2.58 0 0 0-.82-.6 11.77 11.77 0 0 0 2.22-6.25 52.39 52.39 0 0 0 .28-6.15c0-2.6-.05-3.7-.05-3.82s0-.2.17-.2 1 .05 3.2.05h1.33V213a6.76 6.76 0 0 0-.18-1.88 13.47 13.47 0 0 1 1.53.13c.17 0 .3.1.3.2a1.07 1.07 0 0 1-.15.35 3.44 3.44 0 0 0-.13 1.3v.12h2.53c1.42 0 1.79-.05 1.92-.05s.2 0 .2.2v.85c0 .2 0 .23-.2.23s-.5-.05-1.92-.05h-2.53v1.8zm-5.45 10.27a6.34 6.34 0 0 0-.15 1.25 6.58 6.58 0 0 1-3.57 5.87 1.19 1.19 0 0 1-.35.13c-.13 0-.2-.08-.35-.28a2.66 2.66 0 0 0-.78-.67c2.58-1.15 3.48-2.6 3.68-5.1a9.23 9.23 0 0 0 0-2.05 12.94 12.94 0 0 1 1.35.15c.2 0 .37.1.37.25a1.83 1.83 0 0 1-.2.4zm.33-4.2c0 .65.07.88.32 1a5.4 5.4 0 0 0 1.75.17 3.6 3.6 0 0 0 2.1-.37c.32-.28.45-.93.5-2a3.73 3.73 0 0 0 .9.5c.37.15.37.15.32.55a2.88 2.88 0 0 1-.8 1.9 5 5 0 0 1-3 .62 8.33 8.33 0 0 1-2.6-.27c-.42-.2-.8-.53-.8-1.6v-1.2l-2.17.25c-.15 0-.18 0-.2-.13l-.08-.9c0-.15 0-.17.15-.17s.63 0 2.3-.2v-.5a11.55 11.55 0 0 0-.12-1.75 10 10 0 0 1 1.42.15c.15 0 .25.07.25.2a.47.47 0 0 1-.1.27c-.1.15-.12.43-.12 1.18v.27l1-.12c1.62-.18 2.1-.3 2.3-.33s.14 0 .17.15l.1.85c0 .15 0 .2-.17.2l-2.28.25-1.12.13zm2.77 8.9c0 .47 0 .67.22.8a2.12 2.12 0 0 0 1.16.17c.82 0 1.17-.1 1.42-.45s.37-1.1.37-2.64a5.16 5.16 0 0 0 .88.44c.35.16.37.18.35.58-.08 1.57-.3 2.22-.65 2.62s-.65.73-2.4.73a4.32 4.32 0 0 1-2.07-.28c-.38-.2-.63-.62-.63-1.6v-3a20.34 20.34 0 0 0-.12-2.8 10.11 10.11 0 0 1 1.45.15c.17 0 .3.12.3.2a1.19 1.19 0 0 1-.15.45c-.1.22-.13.45-.13 1.85zM576.4 244.45a1.18 1.18 0 0 0 .49-.07.79.79 0 0 1 .28-.1c.2 0 .33.1.7.47s.45.55.45.68-.07.2-.23.27a1.88 1.88 0 0 0-.5.85 20.26 20.26 0 0 1-4.42 6.95 28.12 28.12 0 0 0 7.4 3.72 5.28 5.28 0 0 0-.78 1c-.15.28-.2.4-.32.4a1.21 1.21 0 0 1-.38-.12 29.93 29.93 0 0 1-7.09-4 22.3 22.3 0 0 1-7.58 4c-.47.15-.47.15-.72-.33a2.72 2.72 0 0 0-.88-.85 22.16 22.16 0 0 0 8-3.82 18.72 18.72 0 0 1-5.32-9.6 25.6 25.6 0 0 1-.88 5.33 18.56 18.56 0 0 1-5.4 8.84c-.17.18-.27.25-.37.25s-.2-.07-.38-.27a2.62 2.62 0 0 0-.95-.7 16 16 0 0 0 5.58-8.57 31.93 31.93 0 0 0 1.07-9.4h-1.27c-2.48 0-3.28.05-3.43.05s-.2 0-.2-.2v-1.15c0-.18 0-.2.2-.2s1 .05 3.43.05h8.92a1.82 1.82 0 0 0 .73-.08.47.47 0 0 1 .25-.07c.15 0 .35.1.7.42s.5.58.45.7 0 .25-.18.35a1 1 0 0 0-.45.63 46.74 46.74 0 0 1-1.25 4.57zm-4.85 1.33c-.13.37-.25.75-.4 1.12-.08.2-.1.2-.88.13s-.8-.08-.7-.33a46.57 46.57 0 0 0 2.2-7.32h-6.12c.8 5.9 2.77 10.07 6.32 13.17a17.58 17.58 0 0 0 4.23-6.77zM566.82 265.23c0 .17 0 .2-.2.2s-.82-.05-3-.05h-.5v2.17h.22c1.9 0 2.55-.05 2.68-.05s.2 0 .2.2-.05.73-.05 2.35v3.35c0 1.63.05 2.23.05 2.35s0 .2-.2.2-.78-.05-2.68-.05h-.22v2.22h3.45c.1 0 .2 0 .2.2v.9c0 .17 0 .2-.2.2s-.82-.05-3-.05h-.45v4.22c0 .13 0 .2-.2.2h-1c-.17 0-.2 0-.2-.2v-4.22h-.85c-2.17 0-2.9.05-3 .05s-.2 0-.2-.2v-.9c0-.18 0-.2.2-.2h3.85v-2.22h-.15c-1.9 0-2.6.05-2.72.05s-.2 0-.2-.2v-5.7-2.35c0-.13 0-.2.2-.2s.82.05 2.72.05h.15v-2.17H561c-2.15 0-2.88.05-3 .05s-.2 0-.2-.2v-.9c0-.18 0-.2.2-.2s.85.05 3 .05h.72a15 15 0 0 0-.17-2.93 11.81 11.81 0 0 1 1.47.13c.2 0 .3.1.3.22a1.72 1.72 0 0 1-.12.4 8.29 8.29 0 0 0-.15 2.13v.05h.5c2.2 0 2.87-.05 3-.05s.2 0 .2.2zm-5 3.4h-1.83v2.47h1.83zm0 3.52h-1.83v2.68h1.83zm3.15-3.52h-1.88v2.47h1.88zm0 3.52h-1.88v2.68h1.88zm15.53 10.52c0 .18 0 .21-.2.21s-.9-.06-3.25-.06h-7.42c-2.35 0-3.15.06-3.28.06s-.2 0-.2-.21v-1.05c0-.17 0-.2.2-.2s.9.05 3.28.05h2.92v-4.64h-1.9c-2.22 0-2.95.05-3.07.05s-.18 0-.18-.2v-1c0-.17 0-.2.18-.2s.85.05 3.07.05h5.73c2.24 0 2.94-.05 3.09-.05s.2 0 .2.2v1c0 .17 0 .2-.2.2s-.85-.05-3.09-.05H574v4.64h3.05c2.35 0 3.12-.05 3.25-.05s.2 0 .2.2zm-10.4-8.12c-.27.13-.32.18-.42 0a19.41 19.41 0 0 0-2.55-4.38.58.58 0 0 1-.18-.32c0-.1 0-.2.2-.38a17.28 17.28 0 0 0 2.1-3.3 3.55 3.55 0 0 0 .4-1.15 10.65 10.65 0 0 1 1.23.5c.2.1.3.18.3.3s-.18.23-.28.35a8.73 8.73 0 0 0-.57.9 25.14 25.14 0 0 1-1.85 2.7 23.28 23.28 0 0 1 2.5 4.1c.1.18.07.28-.15.38zm10-10.57c0 .17 0 .2-.17.2s-.9-.05-3.2-.05h-6.15c-2.27 0-3 .05-3.15.05s-.2 0-.2-.2v-1.05c0-.18 0-.2.2-.2h12.5c.13 0 .17 0 .17.2zm-5.44 10.5c-.3.15-.33.2-.43 0a19.52 19.52 0 0 0-2.82-4.33c-.13-.17-.2-.25-.2-.35s.07-.2.2-.37a19.79 19.79 0 0 0 2.1-3.28 4.75 4.75 0 0 0 .4-1.17 8.72 8.72 0 0 1 1.22.5c.2.1.33.17.33.3s-.16.22-.28.35a5.26 5.26 0 0 0-.6.9 28.25 28.25 0 0 1-1.85 2.75 28.39 28.39 0 0 1 2.78 4c.1.18 0 .25-.18.35zm4.32.15c-.23.12-.3.2-.4 0a22.91 22.91 0 0 0-3.07-4.55c-.13-.15-.18-.23-.18-.35a.6.6 0 0 1 .18-.35 21.16 21.16 0 0 0 2.07-3.3 6.51 6.51 0 0 0 .4-1.18 10 10 0 0 1 1.2.5c.22.13.3.18.3.3s-.13.25-.28.38a3.32 3.32 0 0 0-.52.82 20 20 0 0 1-1.85 2.78 28.83 28.83 0 0 1 3 4.25c.1.17 0 .22-.17.35zM568.5 294.75a12.33 12.33 0 0 0 0 1.25c0 .18 0 .2-.2.2s-.75-.05-2.68-.05h-4.92a5.89 5.89 0 0 1-1.6 3.05c-.15.15-.23.23-.33.23a.58.58 0 0 1-.32-.18 3 3 0 0 0-.78-.47c1.63-1.4 2-3 2-5.3 0-.5-.05-.75-.05-.9s0-.2.2-.2.77.05 2.7.05h3.07c1.93 0 2.55-.05 2.68-.05s.2 0 .2.2v1.22zm7 10.95c1.55-.1 3.12-.2 4.67-.35a5.26 5.26 0 0 0-.15.6c-.1.5-.1.5-.6.55-1 .1-2.39.2-3.92.3 0 1.25.05 1.8.05 1.87s0 .2-.2.2h-1.1c-.2 0-.22 0-.22-.2v-1.79c-1.8.09-3.73.17-5.53.24-3.65.13-6 .2-8.9.26a2.48 2.48 0 0 0-1.07.14.54.54 0 0 1-.33.08c-.1 0-.17-.1-.22-.28-.1-.37-.2-.8-.28-1.27.68.05 1.4.07 2.75.07h2.1v-5.84c-2 0-2.77.05-2.9.05s-.2 0-.2-.2v-.78c0-.17 0-.2.2-.2s.93.05 3.35.05h12.75c2.4 0 3.2-.05 3.35-.05s.2 0 .2.2v.78c0 .17 0 .2-.2.2s-1-.05-3.35-.05h-.3zm-6-17c0 .17 0 .2-.2.2s-.85-.05-3.07-.05h-1.58v1.4h1.15c2 0 2.6-.05 2.73-.05s.2 0 .2.2v.7c0 .17 0 .2-.2.2h-8.9c-.12 0-.23 0-.23-.2v-.7c0-.18 0-.2.23-.2s.75.05 2.72.05h1v-1.4h-1.85c-2.23 0-3 .05-3.08.05s-.2 0-.2-.2v-.78c0-.12 0-.15.23-.15s.85.05 3.07.05h1.75v-.07a6.24 6.24 0 0 0-.17-1.63c.57 0 1 .08 1.42.13.18 0 .28.07.28.2a.63.63 0 0 1-.1.28c-.13.22-.13.42-.13 1v.05h1.6c2.23 0 2.93-.05 3.05-.05s.2 0 .2.2zm-5.9 4.7h-2.7v.15a16.7 16.7 0 0 1-.08 1.67h2.68zm10.48 6.9h-10v1.17h10zm0 2.12h-10v1.25h10zm0 2.2h-10v1.5c.85 0 1.77 0 2.72-.05 2.4-.05 4.88-.13 7.33-.25zm-6.73-11.22h-2.62v1.82h2.62zm9.3-1.1a.89.89 0 0 0 .45-.08.59.59 0 0 1 .25-.05c.1 0 .23 0 .57.35s.48.48.48.6-.05.2-.2.3a3 3 0 0 0-.7.7 10.38 10.38 0 0 1-2.13 1.95 16.81 16.81 0 0 0 5.13 1.35 2.22 2.22 0 0 0-.45.73c-.2.47-.2.5-.7.42a15.41 15.41 0 0 1-5.17-1.75 18.71 18.71 0 0 1-5 1.73c-.42.07-.45.07-.65-.3a2.41 2.41 0 0 0-.52-.7 18.45 18.45 0 0 0 5.05-1.48 8.59 8.59 0 0 1-2.43-2.72h-1.12c-.12 0-.23 0-.23-.2v-.72c0-.18 0-.2.23-.2h2.7zm-.12-3c0 .3 0 .47.2.57a2.06 2.06 0 0 0 1 .15c.65 0 .92-.07 1.12-.37a3.48 3.48 0 0 0 .23-1.5 2 2 0 0 0 .82.45c.38.15.38.17.33.57a2.27 2.27 0 0 1-.6 1.48 3 3 0 0 1-2 .5 5.14 5.14 0 0 1-1.67-.18c-.45-.17-.72-.47-.72-1.3V288h-3c0 2-.48 3-2 3.7-.35.15-.42.15-.67-.22a2.35 2.35 0 0 0-.63-.63c1.7-.45 2-1.22 2-2.9v-.87c0-.15 0-.2.2-.2s.48.05 1.8.05h1.56c1.32 0 1.7-.05 1.84-.05s.21 0 .21.2v1.3zm-4.65 4a8 8 0 0 0 2.32 2.13 8 8 0 0 0 2.3-2.13zM565.82 317.05c0 .2 0 .23-.2.23h-7.45c-.13 0-.2 0-.2-.23V316c0-.17 0-.17.2-.17s.65.05 2.5.05h2.45c1.83 0 2.38-.05 2.5-.05s.2 0 .2.17zm-.72-3.35c0 .18 0 .2-.2.2h-5.85c-.1 0-.2 0-.2-.2v-1c0-.18 0-.2.2-.2s.57.05 2.1.05h1.65c1.52 0 2-.05 2.1-.05s.2 0 .2.2zm-.13 16.3v1.88c0 .13 0 .22-.17.2s-.6-.05-2-.05h-2.5v1.42c0 .17 0 .2-.17.2h-1c-.17 0-.2 0-.2-.2s.05-.57.05-2.77v-2.25c0-1.6-.05-2.13-.05-2.28s0-.2.2-.2.65.05 2.15.05h1.55c1.43 0 1.88-.05 2-.05s.17 0 .17.2v1.93zm-.2-9.57c0 .17 0 .2-.22.2s-.5-.05-1.88-.05h-1.45c-1.4 0-1.77.05-1.9.05s-.2 0-.2-.2v-1c0-.17 0-.2.2-.2s.5.05 1.9.05h1.45c1.38 0 1.75-.05 1.88-.05s.22 0 .22.2zm0 3.4c0 .15 0 .17-.22.17s-.5-.05-1.88-.05h-1.45c-1.4 0-1.77.05-1.9.05s-.2 0-.2-.17v-1c0-.18 0-.2.2-.2s.5.05 1.9.05h1.45c1.38 0 1.75-.05 1.88-.05s.22 0 .22.2zm-1.12 3.4h-3.33v3.6h3.33zm15.57.37v3.65a1.92 1.92 0 0 1-.68 1.67c-.34.3-.84.46-2.94.43-.38 0-.43 0-.5-.4a3.58 3.58 0 0 0-.48-1.17 18.68 18.68 0 0 0 2.28.1c.62 0 .84-.33.84-1.13v-17.12h-9.34v5.05c0 6.6-.35 11.35-2.1 14.52-.1.22-.2.32-.3.32s-.18-.07-.33-.22a3.09 3.09 0 0 0-.82-.58c1.95-3 2.15-8.07 2.15-14.19v-2.78-3.29c0-.14 0-.21.2-.21s.92.05 3.25.05h5.39c2.35 0 3.15-.05 3.28-.05s.2 0 .2.21v3.29zm-2.1-5.92c0 .17 0 .2-.17.2s-.73-.05-2.43-.05h-2.92c-1.55 0-2.15.05-2.28.05s-.2 0-.2-.2v-.8c0-.18 0-.2.2-.2s.73.05 2.28.05h.72v-2.6h-.4c-1.42 0-1.92.05-2.07.05s-.18 0-.18-.2v-.83c0-.17 0-.2.18-.2s.65.05 2.07.05h.4v-.35a11.13 11.13 0 0 0-.15-2.25c.48 0 1 .08 1.4.15.18 0 .28.1.28.23a.79.79 0 0 1-.13.37 3.77 3.77 0 0 0-.12 1.45v.4h.62c1.55 0 2-.05 2.2-.05s.2 0 .2.2v.85c0 .17 0 .2-.2.2s-.65-.05-2.2-.05h-.62v2.6h.9c1.7 0 2.27-.05 2.43-.05s.17 0 .17.2zM575.9 327c0 2.55.05 3 .05 3.13s0 .2-.2.2h-.88c-.17 0-.2 0-.2-.2v-.93h-3.47v1.2c0 .18 0 .2-.2.2h-.88c-.17 0-.2 0-.2-.2s.05-.57.05-3.27v-1.33c0-1.3-.05-1.77-.05-1.9s0-.2.2-.2.58.05 2 .05h1.65c1.4 0 1.83-.05 2-.05s.2 0 .2.2-.05.6-.05 1.63zm-1.23-2.05h-3.47V328h3.47zM566.85 347.3c0 .18 0 .2-.2.2s-.73-.05-2.68-.05h-2c-.22.85-.47 1.78-.75 2.68h2.43c.72 0 1.37 0 1.77-.05.18 0 .23.05.23.25a11.92 11.92 0 0 0-.13 1.3 20.86 20.86 0 0 1-1 5.67 2 2 0 0 1-2 1.17 10.14 10.14 0 0 1-1.23-.07c-.42 0-.42-.08-.5-.5a3.66 3.66 0 0 0-.35-1 8.68 8.68 0 0 0 1.8.23c.63 0 1-.18 1.18-.66a19.52 19.52 0 0 0 .77-5h-3.35l-.35 1c-.07.17-.12.17-.4.12l-.8-.15c-.27-.07-.27-.15-.2-.3a28.5 28.5 0 0 0 1.55-4.65c-1.77 0-2.35.05-2.47.05s-.18 0-.18-.2v-1.05c0-.17 0-.2.18-.2s.72.05 2.67.05h3.2c1.95 0 2.55-.05 2.68-.05s.2 0 .2.2zm-1.05-5.52c0 1.42.05 1.87.05 2s0 .2-.2.2-.6-.05-2.18-.05h-2c-1.55 0-2.05.05-2.2.05s-.2 0-.2-.2.05-.6.05-2v-2.18c0-1.39-.05-1.87-.05-2s0-.2.2-.2.65.06 2.2.06h2c1.58 0 2-.06 2.18-.06s.2 0 .2.2-.05.61-.05 2zm-1.38-3h-3.92v4h3.95zm14.05 2.5a.83.83 0 0 0 .42-.08.64.64 0 0 1 .28-.07c.2 0 .32.07.7.37s.45.45.45.58-.08.2-.2.3a1.41 1.41 0 0 0-.35.6 17.63 17.63 0 0 1-1.15 2c-.13.2-.23.28-.3.28a.66.66 0 0 1-.32-.15 3 3 0 0 0-.88-.35 10.29 10.29 0 0 0 1.38-2.26h-9.4v2.85a56.74 56.74 0 0 1-.3 6.45 14.64 14.64 0 0 1-2.15 6.37c-.13.18-.2.28-.28.28s-.17-.1-.35-.25a2.58 2.58 0 0 0-.82-.6 11.74 11.74 0 0 0 2.22-6.25 52.39 52.39 0 0 0 .28-6.15c0-2.6-.05-3.7-.05-3.82s0-.2.17-.2 1 .05 3.2.05h1.33V338a6.64 6.64 0 0 0-.18-1.87 13.6 13.6 0 0 1 1.53.12c.17 0 .3.1.3.2a1.07 1.07 0 0 1-.15.35 3.44 3.44 0 0 0-.13 1.3v.12H578.17c.13 0 .2 0 .2.19v.85c0 .2 0 .23-.2.23s-.5-.05-1.92-.05h-2.53v1.8zm-5.45 10.27a6.34 6.34 0 0 0-.15 1.25 6.58 6.58 0 0 1-3.57 5.87 1.19 1.19 0 0 1-.35.13c-.13 0-.2-.08-.35-.28a2.66 2.66 0 0 0-.78-.67c2.58-1.15 3.48-2.6 3.68-5.1a9.23 9.23 0 0 0 0-2.05 12.94 12.94 0 0 1 1.35.15c.2 0 .37.1.37.25a1.83 1.83 0 0 1-.2.4zm.33-4.2c0 .65.07.88.32 1a5.4 5.4 0 0 0 1.75.17 3.6 3.6 0 0 0 2.1-.37c.32-.28.45-.93.5-2a3.73 3.73 0 0 0 .9.5c.37.15.37.15.32.55a2.88 2.88 0 0 1-.8 1.9 5 5 0 0 1-3 .62 8.33 8.33 0 0 1-2.6-.27c-.42-.2-.8-.53-.8-1.6v-1.2l-2.17.25c-.15 0-.18 0-.2-.13l-.08-.9c0-.15 0-.17.15-.17s.63 0 2.3-.2v-.5a11.55 11.55 0 0 0-.12-1.75 10 10 0 0 1 1.42.15c.15 0 .25.07.25.2a.47.47 0 0 1-.1.27c-.1.15-.12.43-.12 1.18v.27l1-.12c1.62-.18 2.1-.3 2.3-.33s.14 0 .17.15l.1.85c0 .15 0 .2-.17.2l-2.28.25-1.12.13zm2.77 8.9c0 .47 0 .68.22.8a2.12 2.12 0 0 0 1.16.17c.82 0 1.17-.09 1.42-.45s.37-1.1.37-2.64a6 6 0 0 0 .88.45c.35.15.37.17.35.57-.08 1.57-.3 2.23-.65 2.62s-.65.73-2.4.73a4.32 4.32 0 0 1-2.07-.28c-.38-.2-.63-.62-.63-1.59v-3a20.34 20.34 0 0 0-.12-2.8 10.11 10.11 0 0 1 1.45.15c.17 0 .3.12.3.2a1.19 1.19 0 0 1-.15.45c-.1.22-.13.45-.13 1.85zM560.65 373.3c0-.95 0-2.4.05-3.6a27.26 27.26 0 0 1-2.32 3.18c-.13.15-.23.25-.28.25s-.13-.1-.22-.28a3.78 3.78 0 0 0-.63-1 25 25 0 0 0 5.1-8.83 6.45 6.45 0 0 0 .4-1.75 10.63 10.63 0 0 1 1.52.55c.18.08.28.15.28.28s-.08.22-.23.32a2 2 0 0 0-.5.95 41 41 0 0 1-1.67 3.75v12.5c0 2.65.05 3.77.05 3.9s0 .2-.18.2h-1.22c-.18 0-.2 0-.2-.2v-3.9zm19.69 8.9c0 .17 0 .2-.2.2h-16.07c-.15 0-.2 0-.2-.2v-1.1c0-.18 0-.2.2-.2s1 .05 3.55.05h5a72.35 72.35 0 0 0 2.4-8.45 13.07 13.07 0 0 0 .38-2.57 9.88 9.88 0 0 1 1.69.47c.21.08.28.15.28.28s-.1.22-.2.37a2.92 2.92 0 0 0-.42 1.15 86.81 86.81 0 0 1-2.58 8.75h2.5c2.55 0 3.4-.05 3.52-.05s.2 0 .2.2zm-.77-14.2c0 .17 0 .2-.23.2s-1-.05-3.47-.05h-7.62c-2.5 0-3.33.05-3.45.05s-.2 0-.2-.2v-1.1c0-.18 0-.2.2-.2s1 .05 3.45.05h2.62v-2.45a10.38 10.38 0 0 0-.17-2.55 14.9 14.9 0 0 1 1.67.15c.18 0 .33.1.33.23a.89.89 0 0 1-.13.4 4.13 4.13 0 0 0-.17 1.6v2.6h3.47c2.5 0 3.35-.05 3.47-.05s.23 0 .23.2zm-12.27 2.17c.22-.07.3-.07.37.13a54.86 54.86 0 0 1 2.18 8.3c0 .22 0 .3-.25.42l-.8.32c-.35.15-.4.1-.45-.17a52.56 52.56 0 0 0-2.13-8.42c-.05-.18 0-.23.3-.33zM579.64 394.33c0 .17 0 .2-.2.2h-9.87c-.15.6-.32 1.15-.47 1.65h4.15c2.32 0 3.12-.05 3.25-.05s.2 0 .2.2-.05.7-.05 2.4v3.77c0 1.7.05 2.25.05 2.37s0 .2-.2.2h-12.03c-.15 0-.2 0-.2-.2s.05-.67.05-2.37v-3.77c0-1.7-.05-2.28-.05-2.4s0-.2.2-.2.93.05 3.2.05c.15-.5.3-1.08.45-1.65h-9.45c-.13 0-.2 0-.2-.2v-.95c0-.18 0-.2.2-.2s1 .05 3.33.05h6.5c.12-.53.22-1.05.32-1.53h-6c-2.48 0-3.35.05-3.5.05s-.2 0-.2-.17V389v-1.5c0-.13 0-.22.2-.22H578.74c.15 0 .2 0 .2.22v4.05c0 .15 0 .17-.2.17s-1-.05-3.47-.05h-5c-.1.5-.23 1-.35 1.53h6.22c2.37 0 3.17-.05 3.32-.05s.2 0 .2.17zm.33 13.14c0 .18 0 .2-.2.2s-1-.05-3.5-.05H561.4v1c0 .17 0 .2-.2.2h-1.13c-.17 0-.2 0-.2-.2v-9.15a12.76 12.76 0 0 0-.17-2.7 10 10 0 0 1 1.62.13c.18 0 .33.12.33.22a1.09 1.09 0 0 1-.18.5 6.25 6.25 0 0 0-.12 1.85v6.87h14.87c2.52 0 3.37-.05 3.5-.05s.2 0 .2.2zM565.2 388.4h-4.6v2.2h4.6zm10 8.83h-9.47v1.47h9.47zm0 2.52h-9.47v1.48h9.47zm0 2.53h-9.47v1.6h9.47zm-4-13.88h-4.67v2.2h4.67zm6.2 0h-4.85v2.2h4.85zM691.94 174.7c0 .18 0 .2-.2.2s-.92-.05-3.27-.05h-6.77v8.64c0 .12 0 .2-.2.2h-1.33c-.17 0-.2 0-.2-.2s.05-.87.05-2.64v-6h-6.52c-2.33 0-3.12.05-3.25.05s-.2 0-.2-.2v-1.17c0-.18 0-.2.2-.2h9.82v-9.15h-5.17c-2.5 0-3.33.05-3.45.05s-.2 0-.2-.2v-1.15c0-.18 0-.2.2-.2s.95.05 3.45.05h12.37c2.48 0 3.3-.05 3.42-.05s.2 0 .2.2v1.15c0 .17 0 .2-.2.2s-.94-.05-3.42-.05h-5.57v9.15h10.07c.15 0 .2 0 .2.2zm-18.09-9c.22-.12.25-.1.35 0a24.47 24.47 0 0 1 2.92 5.53c0 .15 0 .2-.2.3l-.85.35c-.35.15-.37.15-.45-.08a23.64 23.64 0 0 0-2.7-5.42c-.12-.15-.07-.2.23-.35zm15.22.95a1.78 1.78 0 0 0-.45.68 29.53 29.53 0 0 1-2.72 4.55c-.18.22-.25.32-.35.32s-.18-.07-.38-.2a3 3 0 0 0-.9-.42 22.36 22.36 0 0 0 3-4.88 5.43 5.43 0 0 0 .38-1.25 12.23 12.23 0 0 1 1.47.63c.15.07.22.15.22.27s-.12.13-.27.25zM691.69 207.15c0 .17 0 .2-.2.2s-.92-.05-3.29-.05h-14.38c-2.37 0-3.17.05-3.3.05s-.2 0-.2-.2v-1.27c0-.18 0-.21.2-.21s.93.05 3.3.05h5.68v-15.29a24.51 24.51 0 0 0-.15-3.6 14 14 0 0 1 1.75.15c.18 0 .33.1.33.22a1.28 1.28 0 0 1-.13.48 8.81 8.81 0 0 0-.17 2.42v4.73h5c2.38 0 3.18-.05 3.3-.05s.2 0 .2.2v1.27c0 .18 0 .2-.2.2h-8.3v9.32h7.1c2.37 0 3.17-.05 3.29-.05s.2 0 .2.21zM691.79 223.55c0 .18 0 .2-.2.2s-.92-.05-3.3-.05h-7.79a52.3 52.3 0 0 1-3.35 7.1c3.4-.35 6.87-.8 9.65-1.25a32.87 32.87 0 0 0-2.55-2.9c-.15-.12-.15-.22.15-.42l.67-.43c.2-.12.28-.1.38 0a34.88 34.88 0 0 1 5.07 6.32c.1.15.12.25-.15.43l-.73.45c-.32.2-.39.22-.5.05-.44-.75-.92-1.53-1.44-2.28-4.25.75-9.1 1.4-13.13 1.78a6.1 6.1 0 0 0-1.9.32.5.5 0 0 1-.32.1c-.1 0-.23-.12-.3-.32a14.58 14.58 0 0 1-.4-1.58 20.89 20.89 0 0 0 2.55 0l1.15-.08a45.13 45.13 0 0 0 3.45-7.27h-5c-2.38 0-3.18.05-3.3.05s-.2 0-.2-.2v-1.1c0-.17 0-.2.2-.2s.92.05 3.3.05h6.4v-4.6h-3.75c-2.55 0-3.4.05-3.55.05s-.18 0-.18-.2v-1.1c0-.17 0-.2.18-.2s1 .05 3.55.05h3.75v-1.65a16 16 0 0 0-.18-3.17 14 14 0 0 1 1.7.12c.18 0 .28.1.28.23a1.32 1.32 0 0 1-.13.45 8.76 8.76 0 0 0-.15 2.27v1.75h4.18c2.54 0 3.4-.05 3.54-.05s.18 0 .18.2v1.1c0 .18 0 .2-.18.2s-1-.05-3.54-.05h-4.18v4.6h6.67c2.38 0 3.15-.05 3.3-.05s.2 0 .2.2zM679.5 238.08c1.7 0 2.2-.05 2.35-.05s.23.05.23.22a21.29 21.29 0 0 0 .22 3.05 20.18 20.18 0 0 0 9.92 15.52 4.26 4.26 0 0 0-.9 1c-.15.25-.22.35-.32.35a.7.7 0 0 1-.35-.17 21 21 0 0 1-9.22-14.4 20.26 20.26 0 0 1-9.65 14.4 1.14 1.14 0 0 1-.4.17c-.1 0-.18-.1-.35-.35a3.07 3.07 0 0 0-1-.85c6.45-3.24 10.1-9.64 10.45-17.42h-3.55c-1.73 0-2.23.05-2.35.05s-.2 0-.2-.2v-1.17c0-.18 0-.2.2-.2s.62.05 2.35.05zM680.5 269.75a12.33 12.33 0 0 0 0 1.25c0 .18 0 .2-.2.2s-.75-.05-2.68-.05h-4.92a5.89 5.89 0 0 1-1.6 3.05c-.15.15-.23.23-.33.23a.58.58 0 0 1-.32-.18 3 3 0 0 0-.78-.47c1.63-1.4 2-3 2-5.3 0-.5-.05-.75-.05-.9s0-.2.2-.2.77.05 2.7.05h3.07c1.93 0 2.55-.05 2.68-.05s.2 0 .2.2v1.22zm7 10.95c1.55-.1 3.12-.2 4.67-.35a5.26 5.26 0 0 0-.15.6c-.1.5-.1.5-.6.55-1 .1-2.39.2-3.92.3 0 1.25.05 1.8.05 1.87s0 .2-.2.2h-1.1c-.2 0-.22 0-.22-.2v-1.79c-1.8.09-3.73.17-5.53.24-3.65.13-6 .2-8.9.26a2.48 2.48 0 0 0-1.07.14.54.54 0 0 1-.33.08c-.1 0-.17-.1-.22-.28-.1-.37-.2-.8-.28-1.27.68.05 1.4.07 2.75.07h2.1v-5.84c-2 0-2.77.05-2.9.05s-.2 0-.2-.2v-.78c0-.17 0-.2.2-.2s.93.05 3.35.05h12.75c2.4 0 3.2-.05 3.35-.05s.2 0 .2.2v.78c0 .17 0 .2-.2.2s-1-.05-3.35-.05h-.3zm-6-17c0 .17 0 .2-.2.2s-.85-.05-3.07-.05h-1.58v1.4h1.15c2 0 2.6-.05 2.73-.05s.2 0 .2.2v.7c0 .17 0 .2-.2.2h-8.9c-.12 0-.23 0-.23-.2v-.7c0-.18 0-.2.23-.2s.75.05 2.72.05h1v-1.4h-1.85c-2.23 0-3 .05-3.08.05s-.2 0-.2-.2v-.78c0-.12 0-.15.23-.15s.85.05 3.07.05h1.75v-.07a6.24 6.24 0 0 0-.17-1.63c.57 0 1 .08 1.42.13.18 0 .28.07.28.2a.56.56 0 0 1-.1.27c-.13.23-.13.43-.13 1.05v.05h1.6c2.23 0 2.93-.05 3.05-.05s.2 0 .2.2zm-5.9 4.7h-2.7v.15a16.7 16.7 0 0 1-.08 1.67h2.68zm10.48 6.9h-10v1.17h10zm0 2.12h-10v1.25h10zm0 2.2h-10v1.5c.85 0 1.77 0 2.72-.05 2.4-.05 4.88-.13 7.33-.25zm-6.73-11.22h-2.62v1.82h2.62zm9.3-1.1a.89.89 0 0 0 .45-.08.59.59 0 0 1 .25-.05c.1 0 .23 0 .57.35s.48.48.48.6-.05.2-.2.3a3 3 0 0 0-.7.7 10.38 10.38 0 0 1-2.13 1.95 16.81 16.81 0 0 0 5.13 1.35 2.22 2.22 0 0 0-.45.73c-.2.47-.2.5-.7.42a15.41 15.41 0 0 1-5.17-1.75 18.71 18.71 0 0 1-5 1.73c-.42.07-.45.07-.65-.3a2.41 2.41 0 0 0-.52-.7 18.45 18.45 0 0 0 5.05-1.48 8.59 8.59 0 0 1-2.43-2.72h-1.12c-.12 0-.23 0-.23-.2v-.72c0-.18 0-.2.23-.2h2.7zm-.12-3c0 .3 0 .47.2.57a2.06 2.06 0 0 0 1 .15c.65 0 .92-.07 1.12-.37a3.48 3.48 0 0 0 .23-1.5 2 2 0 0 0 .82.45c.38.15.38.17.33.57a2.27 2.27 0 0 1-.6 1.48 3 3 0 0 1-2 .5 5.14 5.14 0 0 1-1.67-.18c-.45-.17-.72-.47-.72-1.3V263h-3c0 2-.48 3-2 3.7-.35.15-.42.15-.67-.22a2.35 2.35 0 0 0-.63-.63c1.7-.45 2-1.22 2-2.9v-.87c0-.15 0-.2.2-.2s.48.05 1.8.05h1.56c1.32 0 1.7-.05 1.84-.05s.21 0 .21.2v1.3zm-4.65 4a8 8 0 0 0 2.32 2.13 8 8 0 0 0 2.3-2.13zM677.82 292.05c0 .2 0 .23-.2.23h-7.45c-.13 0-.2 0-.2-.23V291c0-.17 0-.17.2-.17s.65.05 2.5.05h2.45c1.83 0 2.38-.05 2.5-.05s.2 0 .2.17zm-.72-3.35c0 .18 0 .2-.2.2h-5.85c-.1 0-.2 0-.2-.2v-1c0-.18 0-.2.2-.2s.57.05 2.1.05h1.65c1.52 0 2-.05 2.1-.05s.2 0 .2.2zm-.13 16.3v1.88c0 .13 0 .22-.17.19s-.6-.05-2-.05h-2.5v1.43c0 .17 0 .2-.17.2h-1c-.17 0-.2 0-.2-.2s.05-.57.05-2.78v-2.24c0-1.6-.05-2.13-.05-2.28s0-.2.2-.2.65.05 2.15.05h1.55c1.43 0 1.88-.05 2-.05s.17 0 .17.2v1.93zm-.2-9.57c0 .17 0 .2-.22.2s-.5-.05-1.88-.05h-1.45c-1.4 0-1.77.05-1.9.05s-.2 0-.2-.2v-1c0-.17 0-.2.2-.2s.5.05 1.9.05h1.45c1.38 0 1.75-.05 1.88-.05s.22 0 .22.2zm0 3.4c0 .15 0 .17-.22.17s-.5-.05-1.88-.05h-1.45c-1.4 0-1.77.05-1.9.05s-.2 0-.2-.17v-1c0-.18 0-.2.2-.2s.5.05 1.9.05h1.45c1.38 0 1.75-.05 1.88-.05s.22 0 .22.2zm-1.12 3.4h-3.33v3.59h3.33zm15.57.37v3.65a1.93 1.93 0 0 1-.68 1.67c-.34.3-.84.45-2.94.43-.38 0-.43 0-.5-.4a3.64 3.64 0 0 0-.48-1.18 16.83 16.83 0 0 0 2.28.11c.62 0 .84-.33.84-1.13v-17.12h-9.34v5.05c0 6.6-.35 11.35-2.1 14.52-.1.22-.2.32-.3.32s-.18-.07-.33-.22a3.09 3.09 0 0 0-.82-.58c1.95-3 2.15-8.07 2.15-14.19v-2.78-3.3c0-.15 0-.2.2-.2s.92.05 3.25.05h5.39c2.35 0 3.15-.05 3.28-.05s.2 0 .2.2v3.3zm-2.1-5.92c0 .17 0 .2-.17.2s-.73-.05-2.43-.05h-2.92c-1.55 0-2.15.05-2.28.05s-.2 0-.2-.2v-.8c0-.18 0-.2.2-.2s.73.05 2.28.05h.72v-2.6h-.4c-1.42 0-1.92.05-2.07.05s-.18 0-.18-.2v-.83c0-.17 0-.2.18-.2s.65.05 2.07.05h.4v-.35a11.13 11.13 0 0 0-.15-2.25c.48 0 1 .08 1.4.15.18 0 .28.1.28.23a.79.79 0 0 1-.13.37 3.77 3.77 0 0 0-.12 1.45v.4h.62c1.55 0 2-.05 2.2-.05s.2 0 .2.2v.85c0 .17 0 .2-.2.2s-.65-.05-2.2-.05h-.62v2.6h.9c1.7 0 2.27-.05 2.43-.05s.17 0 .17.2zM687.9 302c0 2.55.05 3 .05 3.13s0 .2-.2.2h-.88c-.17 0-.2 0-.2-.2v-.93h-3.47v1.2c0 .18 0 .2-.2.2h-.88c-.17 0-.2 0-.2-.2s.05-.57.05-3.27v-1.33c0-1.3-.05-1.77-.05-1.9s0-.2.2-.2.58.05 2 .05h1.65c1.4 0 1.83-.05 2-.05s.2 0 .2.2-.05.6-.05 1.63zm-1.23-2.05h-3.47V303h3.47zM678.85 322.3c0 .18 0 .2-.2.2s-.73-.05-2.68-.05h-2c-.22.85-.47 1.78-.75 2.68h2.43c.72 0 1.37 0 1.77-.05.18 0 .23.05.23.25a11.92 11.92 0 0 0-.13 1.3 20.86 20.86 0 0 1-1 5.67 2 2 0 0 1-2 1.17 10.14 10.14 0 0 1-1.23-.07c-.42 0-.42-.08-.5-.5a3.55 3.55 0 0 0-.35-1 8.59 8.59 0 0 0 1.8.22c.63 0 1-.17 1.18-.65a19.52 19.52 0 0 0 .77-5h-3.35l-.35 1c-.07.17-.12.17-.4.12l-.8-.15c-.27-.07-.27-.15-.2-.3a28.5 28.5 0 0 0 1.55-4.65c-1.77 0-2.35.05-2.47.05s-.18 0-.18-.2v-1.05c0-.17 0-.2.18-.2s.72.05 2.67.05h3.2c1.95 0 2.55-.05 2.68-.05s.2 0 .2.2zm-1.05-5.52c0 1.42.05 1.87.05 2s0 .2-.2.2-.6-.05-2.18-.05h-2c-1.55 0-2.05.05-2.2.05s-.2 0-.2-.2.05-.6.05-2v-2.18c0-1.4-.05-1.87-.05-2s0-.2.2-.2.65.05 2.2.05h2c1.58 0 2-.05 2.18-.05s.2 0 .2.2-.05.6-.05 2zm-1.38-3h-3.92v4h3.95zm14.05 2.5a.83.83 0 0 0 .42-.08.64.64 0 0 1 .28-.07c.2 0 .32.07.7.37s.45.45.45.58-.08.2-.2.3a1.41 1.41 0 0 0-.35.6 17.63 17.63 0 0 1-1.15 2c-.13.2-.23.28-.3.28a.66.66 0 0 1-.32-.15 3 3 0 0 0-.88-.35 10.29 10.29 0 0 0 1.38-2.26h-9.4v2.85a56.74 56.74 0 0 1-.3 6.45 14.64 14.64 0 0 1-2.15 6.37c-.13.18-.2.28-.28.28s-.17-.1-.35-.25a2.58 2.58 0 0 0-.82-.6 11.74 11.74 0 0 0 2.22-6.25 52.39 52.39 0 0 0 .28-6.15c0-2.6-.05-3.7-.05-3.82s0-.2.17-.2 1 .05 3.2.05h1.33V313a6.76 6.76 0 0 0-.18-1.88c.63 0 1 .06 1.53.13.17 0 .3.1.3.2a1.07 1.07 0 0 1-.15.35 3.44 3.44 0 0 0-.13 1.3v.12h2.53c1.42 0 1.79-.05 1.92-.05s.2 0 .2.2v.85c0 .2 0 .23-.2.23s-.5-.05-1.92-.05h-2.53v1.8zm-5.45 10.27a6.34 6.34 0 0 0-.15 1.25 6.58 6.58 0 0 1-3.57 5.87 1.19 1.19 0 0 1-.35.13c-.13 0-.2-.08-.35-.28a2.66 2.66 0 0 0-.78-.67c2.58-1.15 3.48-2.6 3.68-5.1a9.23 9.23 0 0 0 0-2.05 12.94 12.94 0 0 1 1.35.15c.2 0 .37.1.37.25a1.83 1.83 0 0 1-.2.4zm.33-4.2c0 .65.07.88.32 1a5.4 5.4 0 0 0 1.75.17 3.6 3.6 0 0 0 2.1-.37c.32-.28.45-.93.5-2a3.73 3.73 0 0 0 .9.5c.37.15.37.15.32.55a2.88 2.88 0 0 1-.8 1.9 5 5 0 0 1-3 .62 8.33 8.33 0 0 1-2.6-.27c-.42-.2-.8-.53-.8-1.6v-1.2l-2.17.25c-.15 0-.18 0-.2-.13l-.08-.9c0-.15 0-.17.15-.17s.63 0 2.3-.2v-.5a11.55 11.55 0 0 0-.12-1.75 10 10 0 0 1 1.42.15c.15 0 .25.07.25.2a.47.47 0 0 1-.1.27c-.1.15-.12.43-.12 1.18v.27l1-.12c1.62-.18 2.1-.3 2.3-.33s.14 0 .17.15l.1.85c0 .15 0 .2-.17.2l-2.28.25-1.12.13zm2.77 8.9c0 .47 0 .68.22.8a2.12 2.12 0 0 0 1.16.17c.82 0 1.17-.1 1.42-.45s.37-1.1.37-2.64a6 6 0 0 0 .88.45c.35.15.37.17.35.57-.08 1.57-.3 2.22-.65 2.62s-.65.73-2.4.73a4.32 4.32 0 0 1-2.07-.28c-.38-.2-.63-.62-.63-1.6v-3a20.34 20.34 0 0 0-.12-2.8 10.11 10.11 0 0 1 1.45.15c.17 0 .3.12.3.2a1.19 1.19 0 0 1-.15.45c-.1.22-.13.45-.13 1.85zM672.65 348.3c0-.95 0-2.4.05-3.6a27.26 27.26 0 0 1-2.32 3.18c-.13.15-.23.25-.28.25s-.13-.1-.22-.28a3.78 3.78 0 0 0-.63-1 25 25 0 0 0 5.1-8.83 6.45 6.45 0 0 0 .4-1.75 10.63 10.63 0 0 1 1.52.55c.18.08.28.15.28.28s-.08.22-.23.32a2 2 0 0 0-.5.95 41 41 0 0 1-1.67 3.75v12.5c0 2.65.05 3.77.05 3.9s0 .2-.18.2h-1.22c-.18 0-.2 0-.2-.2v-3.9zm19.69 8.9c0 .17 0 .2-.2.2h-16.07c-.15 0-.2 0-.2-.2v-1.1c0-.18 0-.2.2-.2s1 .05 3.55.05h5a72.35 72.35 0 0 0 2.4-8.45 13.07 13.07 0 0 0 .38-2.57 9.88 9.88 0 0 1 1.69.47c.21.08.28.15.28.28s-.1.22-.2.37a2.92 2.92 0 0 0-.42 1.15 86.81 86.81 0 0 1-2.58 8.75h2.5c2.55 0 3.4-.05 3.52-.05s.2 0 .2.2zm-.77-14.2c0 .17 0 .2-.23.2s-1-.05-3.47-.05h-7.62c-2.5 0-3.33.05-3.45.05s-.2 0-.2-.2v-1.1c0-.18 0-.2.2-.2s1 .05 3.45.05h2.62v-2.45a10.38 10.38 0 0 0-.17-2.55 14.9 14.9 0 0 1 1.67.15c.18 0 .33.1.33.23a.89.89 0 0 1-.13.4 4.13 4.13 0 0 0-.17 1.6v2.6h3.47c2.5 0 3.35-.05 3.47-.05s.23 0 .23.2zm-12.27 2.17c.22-.07.3-.07.37.13a54.86 54.86 0 0 1 2.18 8.3c0 .22 0 .3-.25.42l-.8.32c-.35.15-.4.1-.45-.17a52.56 52.56 0 0 0-2.13-8.42c-.05-.18 0-.23.3-.33zM691.64 369.33c0 .17 0 .2-.2.2h-9.87c-.15.6-.32 1.15-.47 1.65h4.15c2.32 0 3.12-.05 3.25-.05s.2 0 .2.2-.05.7-.05 2.4v3.77c0 1.7.05 2.25.05 2.37s0 .2-.2.2h-12.03c-.15 0-.2 0-.2-.2s.05-.67.05-2.37v-3.77c0-1.7-.05-2.28-.05-2.4s0-.2.2-.2.93.05 3.2.05c.15-.5.3-1.08.45-1.65h-9.45c-.13 0-.2 0-.2-.2v-.95c0-.18 0-.2.2-.2s1 .05 3.33.05h6.5c.12-.53.22-1.05.32-1.53h-6c-2.48 0-3.35.05-3.5.05s-.2 0-.2-.17V364v-1.5c0-.13 0-.22.2-.22H690.74c.15 0 .2 0 .2.22v4.05c0 .15 0 .17-.2.17s-1-.05-3.47-.05h-5c-.1.5-.23 1-.35 1.53h6.22c2.37 0 3.17-.05 3.32-.05s.2 0 .2.17zm.33 13.14c0 .18 0 .2-.2.2s-1-.05-3.5-.05H673.4v1c0 .17 0 .2-.2.2h-1.13c-.17 0-.2 0-.2-.2v-9.15a12.76 12.76 0 0 0-.17-2.7 10 10 0 0 1 1.62.13c.18 0 .33.12.33.22a1.09 1.09 0 0 1-.18.5 6.25 6.25 0 0 0-.12 1.85v6.87h14.87c2.52 0 3.37-.05 3.5-.05s.2 0 .2.2zM677.2 363.4h-4.6v2.2h4.6zm10 8.83h-9.47v1.47h9.47zm0 2.52h-9.47v1.48h9.47zm0 2.53h-9.47v1.6h9.47zm-4-13.88h-4.67v2.2h4.67zm6.2 0h-4.85v2.2h4.85z"/><path class="a" d="M160.5 510V30M321.5 510V30M1 189.5h480M1 350.5h480"/><path class="b" d="M1.04 30.06h720v480h-720z"/><path class="b" d="M1.04 30.06h480v480h-480zM641 510V30M497 510V30M1 551h340M381 551h340"/><path class="c" d="M0 543h2v16H0zM720 543h2v16h-2z"/><path d="M355.65 560v-4.25h-7.25v-1.39l7-10h2.28v9.7h2.19v1.65h-2.19V560zm0-5.9v-5.21c0-.82 0-1.64.07-2.45h-.07c-.48.91-.86 1.58-1.29 2.3l-3.86 5.31v.05zM370.75 546.17h-6l-.6 4a8.28 8.28 0 0 1 1.28-.09 6.55 6.55 0 0 1 3.36.84 4.45 4.45 0 0 1 2.23 4c0 3-2.42 5.32-5.81 5.32a7.67 7.67 0 0 1-3.89-1l.53-1.6a7 7 0 0 0 3.34.86 3.44 3.44 0 0 0 3.69-3.38c0-2-1.36-3.46-4.48-3.46a16.64 16.64 0 0 0-2.17.17l1-7.49h7.47z"/><path class="b" d="M1 528h220M261 528h220"/><path class="c" d="M0 520h2v16H0zM480 520h2v16h-2z"/><path d="M229.63 534.58a7.09 7.09 0 0 0 3.45 1c2.72 0 3.56-1.73 3.53-3 0-2.19-2-3.12-4-3.12h-1.21v-1.59h1.18c1.54 0 3.48-.79 3.48-2.64 0-1.25-.79-2.35-2.74-2.35a5.78 5.78 0 0 0-3.12 1l-.55-1.54a7.43 7.43 0 0 1 4.08-1.2c3.07 0 4.47 1.83 4.47 3.72a3.88 3.88 0 0 1-2.88 3.68v.05a4.06 4.06 0 0 1 3.48 4c0 2.5-1.95 4.68-5.69 4.68a8 8 0 0 1-4.06-1zM251.8 529c0 5.31-2 8.23-5.42 8.23-3.05 0-5.11-2.85-5.16-8s2.25-8.12 5.42-8.12 5.16 2.95 5.16 7.89zm-8.47.24c0 4.06 1.25 6.36 3.17 6.36 2.16 0 3.19-2.52 3.19-6.5s-1-6.36-3.17-6.36c-1.85.03-3.19 2.26-3.19 6.53z"/><path class="b" d="M481 528h100M621 528h100"/><path class="c" d="M480 520h2v16h-2zM720 520h2v16h-2z"/><path d="M593.71 523.37h-.05l-2.71 1.46-.41-1.61 3.41-1.82h1.8V537h-2zM610.75 523.17h-6l-.59 4a8 8 0 0 1 1.27-.09 6.55 6.55 0 0 1 3.36.84 4.45 4.45 0 0 1 2.23 4c0 3-2.42 5.32-5.81 5.32a7.67 7.67 0 0 1-3.89-1l.53-1.6a7 7 0 0 0 3.34.86 3.44 3.44 0 0 0 3.69-3.38c0-2-1.36-3.46-4.48-3.46a16.64 16.64 0 0 0-2.17.17l1-7.49h7.47z"/><path class="b" d="M641 8h30M691 8h30"/><path class="c" d="M640 0h2v16h-2zM720 0h2v16h-2z"/><path d="M685.39 2.77h-5.95l-.6 4a7.94 7.94 0 0 1 1.27-.1 6.55 6.55 0 0 1 3.36.84 4.45 4.45 0 0 1 2.23 4c0 3-2.42 5.33-5.81 5.33a7.67 7.67 0 0 1-3.89-1l.53-1.61a7 7 0 0 0 3.34.86 3.44 3.44 0 0 0 3.7-3.38c0-2-1.37-3.46-4.49-3.46a16.31 16.31 0 0 0-2.16.17l1-7.49h7.47z"/><path class="b" d="M497 8h62M579 8h62"/><path class="c" d="M496 0h2v16h-2zM640 0h2v16h-2z"/><path d="M564.35 15.51a8.76 8.76 0 0 0 1.7-.07 5.9 5.9 0 0 0 3.27-1.51 6.89 6.89 0 0 0 2.06-4.15h-.07a4.6 4.6 0 0 1-3.67 1.68 4.52 4.52 0 0 1-4.61-4.78 5.35 5.35 0 0 1 5.33-5.55c3.19 0 5.16 2.6 5.16 6.58a9.89 9.89 0 0 1-2.69 7.29 7.78 7.78 0 0 1-4.54 2.09 10.14 10.14 0 0 1-1.94.12zm.77-9a3 3 0 0 0 3 3.31 3.49 3.49 0 0 0 3.07-1.64 1.37 1.37 0 0 0 .19-.76c0-2.67-1-4.71-3.19-4.71-1.8.03-3.07 1.62-3.07 3.83z"/></svg>