<svg xmlns="http://www.w3.org/2000/svg" viewBox="0 0 760 640"><path fill="none" stroke="#999" stroke-width="2" stroke-miterlimit="10" d="M20.5 601h340m40 0h340"/><path fill="#999" d="M19.5 593h2v16h-2zm720 0h2v16h-2z"/><path d="M375.2 610v-4.2H368v-1.4l7-10h2.3v9.7h2.2v1.7h-2.2v4.2h-2.1zm0-5.9v-5.2c0-.8 0-1.6.1-2.4h-.1c-.5.9-.9 1.6-1.3 2.3L370 604h5.2zm15-7.9h-6l-.6 4c.4 0 .7-.1 1.3-.1 1.2 0 2.4.3 3.4.8 1.2.7 2.2 2 2.2 4 0 3-2.4 5.3-5.8 5.3-1.7 0-3.1-.5-3.9-1l.5-1.6c.6.4 1.9.9 3.3.9 2 0 3.7-1.3 3.7-3.4 0-2-1.4-3.5-4.5-3.5-.9 0-1.6.1-2.2.2l1-7.5h7.5v1.9z"/><path fill="none" stroke="#999" stroke-width="2" stroke-miterlimit="10" d="M20.5 578h220m40 0h220"/><path fill="#999" d="M19.5 570h2v16h-2zm480 0h2v16h-2z"/><path d="M249.1 584.6c.6.4 2 1 3.5 1 2.7 0 3.6-1.7 3.5-3 0-2.2-2-3.1-4-3.1h-1.2v-1.6h1.2c1.5 0 3.5-.8 3.5-2.6 0-1.2-.8-2.4-2.7-2.4-1.2 0-2.4.6-3.1 1l-.6-1.5c.8-.6 2.4-1.2 4.1-1.2 3.1 0 4.5 1.8 4.5 3.7 0 1.6-1 3-2.9 3.7 1.9.4 3.5 1.8 3.5 4 0 2.5-1.9 4.7-5.7 4.7-1.8 0-3.3-.6-4.1-1.1l.5-1.6zm22.2-5.6c0 5.3-2 8.2-5.4 8.2-3 0-5.1-2.9-5.2-8 0-5.2 2.3-8.1 5.4-8.1 3.3 0 5.2 3 5.2 7.9zm-8.5.3c0 4.1 1.2 6.4 3.2 6.4 2.2 0 3.2-2.5 3.2-6.5 0-3.8-1-6.4-3.2-6.4-1.8 0-3.2 2.2-3.2 6.5z"/><g><path fill="none" stroke="#999" stroke-width="2" stroke-miterlimit="10" d="M500.5 578h100m40 0h100"/><path fill="#999" d="M499.5 570h2v16h-2zm240 0h2v16h-2z"/><path d="M613.2 573.4l-2.8 1.5-.4-1.6 3.4-1.8h1.8V587h-2v-13.6zm17-.2h-6l-.6 4c.4 0 .7-.1 1.3-.1 1.2 0 2.4.3 3.4.8 1.2.7 2.2 2 2.2 4 0 3-2.4 5.3-5.8 5.3-1.7 0-3.1-.5-3.9-1l.5-1.6c.6.4 1.9.9 3.3.9 2 0 3.7-1.3 3.7-3.4 0-2-1.4-3.5-4.5-3.5-.9 0-1.6.1-2.2.2l1-7.5h7.5v1.9z"/></g><g><path fill="none" stroke="#999" stroke-width="2" stroke-miterlimit="10" d="M660.5 58h30m20 0h30"/><path fill="#999" d="M659.5 50h2v16h-2zm80 0h2v16h-2z"/><path fill="none" d="M694.5 46.5h13.9v30.4h-13.9z"/><path d="M704.9 52.8h-6l-.6 4c.4 0 .7-.1 1.3-.1 1.2 0 2.4.3 3.4.8 1.2.7 2.2 2 2.2 4 0 3-2.4 5.3-5.8 5.3-1.7 0-3.1-.5-3.9-1l.5-1.6c.6.4 1.9.9 3.3.9 2 0 3.7-1.3 3.7-3.4 0-2-1.4-3.5-4.5-3.5-.9 0-1.6.1-2.2.2l1-7.5h7.5v1.9z"/><g><path fill="none" stroke="#999" stroke-width="2" stroke-miterlimit="10" d="M516.5 58h62m20 0h62"/><path fill="#999" d="M515.5 50h2v16h-2zm144 0h2v16h-2z"/><path d="M583.8 65.5c.5 0 1 0 1.7-.1 1.2-.2 2.4-.7 3.3-1.5 1-.9 1.8-2.3 2.1-4.2h-.1c-.9 1.1-2.1 1.7-3.7 1.7-2.8 0-4.6-2.1-4.6-4.8 0-3 2.1-5.5 5.3-5.5s5.2 2.6 5.2 6.6c0 3.4-1.2 5.8-2.7 7.3-1.2 1.2-2.9 1.9-4.5 2.1-.8.1-1.4.1-1.9.1v-1.7zm.8-9c0 1.9 1.2 3.3 3 3.3 1.4 0 2.5-.7 3.1-1.6.1-.2.2-.4.2-.8 0-2.7-1-4.7-3.2-4.7-1.8 0-3.1 1.6-3.1 3.8z"/></g></g><g stroke-miterlimit="10"><g fill="#eee" stroke="#999"><path d="M516.5 257.1h144v144h-144z"/><path stroke-width="2" d="M516.5 401h144m-144-144h144"/></g><g fill="#eee" stroke="#999"><path d="M660.5 224.1h80v80h-80z"/><path stroke-width="2" d="M660.5 224h80m-80 80h80"/></g><g fill="#eee" stroke="#999"><path d="M516.5 209.1h144v32h-144z"/><path stroke-width="2" d="M516.5 209h144m-144 32h144"/></g><path d="M180 560V80m161 480V80M20.5 239.5h480m-480 161h480" fill="none" stroke="#ccc"/><g fill="none" stroke="#999" stroke-width="2"><path d="M20.5 80.1h720v480h-720z"/><path d="M20.5 80.1h480v480h-480zM660.5 560V80m-144 480V80"/></g></g><g><path d="M567.1 290.2c1 1 1.5 2.4 1.7 3.9 0 1.3-1.1 3.9-3.4 7.7-4.6 8-7.3 13.8-7.9 17.6 0 1.1.7 1.7 2.2 1.7 1 0 7.9-1.1 20.8-3.4 17.9-3.4 30.8-5.1 38.8-5.1 2.5 0 5.3 1.4 8.3 4.4 3.1 3 4.6 5.3 4.6 7.5 0 1.8-2.1 7.5-6.2 16.9-4.6 10.3-10 19.4-15.9 27.3-6.3 7.7-12.9 13.6-19.8 17.6-1.8 1.1-2.8 1.7-3.1 1.7-.4 0-.6-.3-.6-.7l1-1.5c7.5-8.3 14.9-19.7 22.4-34.3 5.8-12.8 8.7-21.5 8.7-26.3 0-2.7-1.5-3.9-4.5-3.9-5.5 0-15.9 1.3-31.2 3.9-15.2 2.5-24.6 4.5-28.1 5.9-1.8.6-3.1.8-3.7.8-.8 0-2.2-1.1-4.1-3.4s-2.7-4.1-2.7-5.3c0-1.1.7-2.5 2.1-4.4 2.1-2.4 3.7-4.9 4.6-7.5l5.9-13.1c1.3-3 2-4.8 2-5.6-3.9-1.8-7.7-4.1-11.4-7-.7-.4-1-.7-1-1 0-1.1.7-1.7 2.1-1.8 8.7-.3 19.8-1.5 33.5-3.7 13.6-2.2 22.9-4.2 27.7-6 1.7-.6 3-.8 3.7-.8 1.8 0 4.5 1.3 7.9 3.9 3.4 2.5 5.1 4.4 5.1 5.6 0 .7-1.3 2-3.8 3.7-2.4 1.7-6.6 7.5-12.8 17.4-2.4 3.5-4.1 5.3-4.8 5.3-1.1 0-1.7-.6-1.7-1.7 0-.6.3-1.5.7-3 .1 0 1.4-4.9 3.9-14.8.3-1.7.4-3 .4-3.7 0-2.2-1-3.4-2.8-3.4.6.1-12.3 2.9-38.6 8.6zm-338.3 42.3l73.4-4.2c1.1-6.2 1.5-10.9 1.2-14.1l-1.6-13.4c.2-1.7.7-3 1.6-4s2.8-1.3 5.6-1.1 5.4.9 7.7 1.9c2.3 1 5.9 2.9 10.7 5.6 4.8 2.7 8.3 5.4 10.5 8 2.3 2.6 3.2 4.5 2.9 5.7l-1.6 8.4 30.7-3.5 22.7-2.6c9.2-1.1 17-2.2 23.4-3.4 6.4-1.2 11-1.8 13.8-1.8 3.4.2 6.8.9 10.2 2.2 3.4 1.3 8 3.5 14.1 6.6 6 3 10.5 5.7 13.4 8 2.9 2.3 4.3 4.6 4.1 6.9-.3 1.7-1.2 3.1-2.6 4.2-1.4 1.1-4.1 1.6-8 1.6l-19.2.7-71.7-.7-37.7.7c-2.8 7-5.7 14.2-8.7 21.6-3 7.3-7.1 16.6-12.3 27.7-5.2 11.1-10.3 20.2-15.1 27.2l-5.9 8.7 27.2 13.4c10 5 18.3 9.5 25 13.5 6.6 4 13.2 9.5 19.6 16.4 6.4 7 10.8 13.5 13.1 19.6s3.5 11.5 3.5 16.2c-.2 3.6-.8 6.4-2 8.3-1.2 2-2.5 3.4-4.1 4.5-1.6 1-3.2 1.5-4.9 1.5-1.9.2-4.1-.4-6.8-1.5-2.7-1.2-5.9-3.2-9.6-6.1-3.8-2.9-11.7-10-23.8-21.3-12.1-11.3-23.3-20.8-33.6-28.5l-21.8-15.5c-9.2 8.6-17.5 15.7-24.7 21.4-7.3 5.7-16.4 11.4-27.3 17-10.9 5.6-22.9 10.2-36 13.8-13 3.6-23.9 5.6-32.7 6-8.8.4-15.7.4-20.9.1l-6.8-.2c-3.8 0-6.2-.4-7.3-1.2-1.1-.8-1.5-1.8-1.3-2.9s2.1-2.2 5.5-3.2l7.5-1.9c5.6-1.4 10.4-2.6 14.3-3.6 3.9-1 11.4-3.6 22.4-7.6 11-4.1 22.3-9.2 33.9-15.4 11.6-6.2 21.5-13.2 29.8-21.2l18.3-16.9-34-16.6c-7.8-3.8-15.2-6.8-22-9-6.9-2.3-11.7-4.4-14.4-6.4-2.7-2-4.2-4.2-4.3-6.6-.2-2.3.9-5.2 3-8.7.5-.8 3-4.1 7.6-10.1 4.6-5.9 8.1-11.2 10.4-15.9l3.8-8c-9.4.9-18.2 1.9-26.6 2.9-8.4 1-18.9 2.7-31.8 5l-23 4.5-18.5 4c-4.4.9-7.9 1.3-10.5 1.2-3.9 0-7.8-.8-11.7-2.3l-11.7-5.6c-6.3-2.8-10-5.6-11.4-8.4-1.3-2.8-1.5-4.8-.6-6.1.9-1.2 3.1-2 6.6-2.3l18.8-.9 37.3-1.4 54.6-4.7 35.9-2.8c2-6.1 4.1-12.2 6.1-18.4 2-6.2 3.6-12.7 4.8-19.5s1.9-13.9 2.2-21.4c.3-7.5.2-12.8-.2-15.9l-3-11.5c-.9-3.8-.9-6.1.1-7.1s3.1-1.5 6.2-1.5c3.6.2 7.5 1 11.8 2.5 4.3 1.5 9.1 3.9 14.4 7.3 5.3 3.4 9.2 6.4 11.6 9.3 2.4 2.8 3.6 5.3 3.4 7.5-.2 1.3-1.1 3.3-2.8 6.1-1.7 2.8-4.1 6.6-7.3 11.4-3.1 4.8-5.2 8.6-6.3 11.4L232 327l-3.2 5.5zm-72.2-131.7c29.7-.9 47.4-1.7 53.2-2.3l57-4.7c-4.5-4.1-7.7-7.3-9.4-9.8l-15-26c-4.5-7.2-6.9-12.1-7-14.8-.2-2.7.2-4.6.9-5.7.8-1.2 4.1-.9 10.1.8 8.9 3 16.2 5.5 21.9 7.6 5.7 2.1 10.6 5.5 14.6 10.3 4.1 4.8 6.6 9.8 7.5 15.1.8 5.2.6 9-.5 11.5l-3 8.2 66.1-8.2c10-1.1 17.6-2.5 22.9-4.2 5.2-1.7 8.5-2.6 9.7-2.6 2.8.2 6.2 1.4 10.3 3.9 4.1 2.4 10.3 7.2 18.8 14.4 8.4 7.2 13.9 13.2 16.5 18.2s3.3 8.5 2.2 10.7c-1.1 2-4.2 3.7-9.4 4.9l-12.4 2.8c-5 1.3-11.4 3.3-19.3 6.2-7.9 2.9-15 5.7-21.2 8.6l-12.7 5.6c-3.4 1.6-5.7 1.9-6.7.9-1-.9-.6-3 1.3-6.1l5.4-8.9c.9-1.6 3.3-5.2 7.1-10.8 3.8-5.6 6.8-10.6 8.8-14.9 2-4.3 2.3-7.5.9-9.6s-3.4-3.4-5.9-3.8c-2.5-.4-6.2-.5-11-.4l-27.4 1.6c-5 .3-17.8 1.7-38.3 4.1-20.5 2.4-32.3 3.9-35.3 4.3l-40.5 6.3-23 3.3c-13.1 2.7-19.9 3.9-20.4 3.8l-15.2-1.2c-.6 4.1-1.3 7.9-2 11.4s-2.7 9.1-5.9 16.6c-3.2 7.6-6.6 14.3-10.1 20-3.5 5.8-7.2 9-11 9.6-3.8.6-7.7-.7-11.5-4.1-3.8-3.4-5.8-7.8-5.9-13.4-.1-5.5.5-9.9 1.8-13l8.7-15.7 12.4-31.2 3.8-12.2c1.6-4.1 3.3-6.2 5.3-6.4 2-.2 3.9.8 5.7 3.2s3.4 5.3 4.7 8.9l2.4 7.2zM220.8 351l-17.1 30-6.1 9.4c0 1.9 1.4 3.8 4.2 5.6l15 5.2 46.4 16.9c3.9-5.5 7.3-10.5 10.2-15 2.9-4.5 6.4-10.7 10.7-18.5 4.2-7.8 7.3-14.5 9.1-19.9l6.8-19-79.2 5.3z"/></g></svg>