<svg xmlns="http://www.w3.org/2000/svg" viewBox="0 0 760 640"><g stroke-miterlimit="10"><g fill="none" stroke="#CCC"><path d="M180 560V80M341 560V80M20.5 239.5h480M20.5 400.5h480"/></g><g fill="none" stroke="#999" stroke-width="2"><path d="M20.5 80.1h720v480h-720z"/><path d="M20.5 80.1h480v480h-480zM620.5 560V80"/></g><g fill="#EEE" stroke="#999" stroke-width="2"><path d="M500.5 140.1h120v120h-120zM500.5 260.1h120v120h-120zM500.5 380h120M500.5 260h120M500.5 380.1h120v120h-120zM500.5 500h120M500.5 380h120"/></g><g fill="#EEE" stroke="#999" stroke-width="2"><path d="M620.5 320.1h120v120h-120zM620.5 440h120M620.5 320h120"/></g></g><path fill="none" stroke="#999" stroke-width="2" stroke-miterlimit="10" d="M20.5 601h330M410.5 601h330"/><path fill="#999" d="M19.5 593h2v16h-2zM739.5 593h2v16h-2z"/><path d="M361.2 596.4l-2.8 1.5-.4-1.6 3.4-1.8h1.8V610h-2v-13.6zM378.2 596.2h-6l-.6 4c.4 0 .7-.1 1.3-.1 1.2 0 2.4.3 3.4.8 1.2.7 2.2 2 2.2 4 0 3-2.4 5.3-5.8 5.3-1.7 0-3.1-.5-3.9-1l.5-1.6c.6.4 1.9.9 3.3.9 2 0 3.7-1.3 3.7-3.4 0-2-1.4-3.5-4.5-3.5-.9 0-1.6.1-2.2.2l1-7.5h7.5v1.9zM391.6 602c0 5.3-2 8.2-5.4 8.2-3 0-5.1-2.9-5.2-8 0-5.2 2.3-8.1 5.4-8.1 3.3 0 5.2 3 5.2 7.9zm-8.5.3c0 4.1 1.2 6.4 3.2 6.4 2.2 0 3.2-2.5 3.2-6.5 0-3.8-1-6.4-3.2-6.4-1.8 0-3.2 2.2-3.2 6.5zM403.9 602c0 5.3-2 8.2-5.4 8.2-3 0-5.1-2.9-5.2-8 0-5.2 2.3-8.1 5.4-8.1 3.4 0 5.2 3 5.2 7.9zm-8.4.3c0 4.1 1.2 6.4 3.2 6.4 2.2 0 3.2-2.5 3.2-6.5 0-3.8-1-6.4-3.2-6.4-1.9 0-3.2 2.2-3.2 6.5z"/><g><path fill="none" stroke="#999" stroke-width="2" stroke-miterlimit="10" d="M20.5 578h210M290.5 578h210"/><path fill="#999" d="M19.5 570h2v16h-2zM499.5 570h2v16h-2z"/><g><path d="M241.2 573.4l-2.8 1.5-.4-1.6 3.4-1.8h1.8V587h-2v-13.6zM259.3 579c0 5.3-2 8.2-5.4 8.2-3 0-5.1-2.9-5.2-8 0-5.2 2.3-8.1 5.4-8.1 3.3 0 5.2 3 5.2 7.9zm-8.5.3c0 4.1 1.2 6.4 3.2 6.4 2.2 0 3.2-2.5 3.2-6.5 0-3.8-1-6.4-3.2-6.4-1.8 0-3.2 2.2-3.2 6.5zM271.6 579c0 5.3-2 8.2-5.4 8.2-3 0-5.1-2.9-5.2-8 0-5.2 2.3-8.1 5.4-8.1 3.3 0 5.2 3 5.2 7.9zm-8.5.3c0 4.1 1.2 6.4 3.2 6.4 2.2 0 3.2-2.5 3.2-6.5 0-3.8-1-6.4-3.2-6.4-1.8 0-3.2 2.2-3.2 6.5zM283.9 579c0 5.3-2 8.2-5.4 8.2-3 0-5.1-2.9-5.2-8 0-5.2 2.3-8.1 5.4-8.1 3.4 0 5.2 3 5.2 7.9zm-8.4.3c0 4.1 1.2 6.4 3.2 6.4 2.2 0 3.2-2.5 3.2-6.5 0-3.8-1-6.4-3.2-6.4-1.9 0-3.2 2.2-3.2 6.5z"/></g></g><g><path fill="none" stroke="#999" stroke-width="2" stroke-miterlimit="10" d="M500.5 578h90M650.5 578h90"/><path fill="#999" d="M499.5 570h2v16h-2zM739.5 570h2v16h-2z"/><g><path d="M611.9 573.2h-6l-.6 4c.4 0 .7-.1 1.3-.1 1.2 0 2.4.3 3.4.8 1.2.7 2.2 2 2.2 4 0 3-2.4 5.3-5.8 5.3-1.7 0-3.1-.5-3.9-1l.5-1.6c.6.4 1.9.9 3.3.9 2 0 3.7-1.3 3.7-3.4 0-2-1.4-3.5-4.5-3.5-.9 0-1.6.1-2.2.2l1-7.5h7.5v1.9zM625.3 579c0 5.3-2 8.2-5.4 8.2-3 0-5.1-2.9-5.2-8 0-5.2 2.3-8.1 5.4-8.1 3.3 0 5.2 3 5.2 7.9zm-8.5.3c0 4.1 1.2 6.4 3.2 6.4 2.2 0 3.2-2.5 3.2-6.5 0-3.8-1-6.4-3.2-6.4-1.8 0-3.2 2.2-3.2 6.5zM637.6 579c0 5.3-2 8.2-5.4 8.2-3 0-5.1-2.9-5.2-8 0-5.2 2.3-8.1 5.4-8.1 3.3 0 5.2 3 5.2 7.9zm-8.5.3c0 4.1 1.2 6.4 3.2 6.4 2.2 0 3.2-2.5 3.2-6.5 0-3.8-1-6.4-3.2-6.4-1.8 0-3.2 2.2-3.2 6.5z"/></g></g><g><path fill="none" stroke="#999" stroke-width="2" stroke-miterlimit="10" d="M620.5 58h40M700.5 58h40"/><path fill="#999" d="M619.5 50h2v16h-2zM739.5 50h2v16h-2z"/><g><path d="M662.6 67v-1.3l1.7-1.6c4-3.8 5.8-5.8 5.8-8.2 0-1.6-.8-3-3.1-3-1.4 0-2.6.7-3.3 1.3l-.7-1.5c1.1-.9 2.6-1.6 4.4-1.6 3.4 0 4.8 2.3 4.8 4.5 0 2.9-2.1 5.2-5.4 8.4l-1.2 1.2h7V67h-10zM684.2 53.2h-6l-.6 4c.4 0 .7-.1 1.3-.1 1.2 0 2.4.3 3.4.8 1.2.7 2.2 2 2.2 4 0 3-2.4 5.3-5.8 5.3-1.7 0-3.1-.5-3.9-1l.5-1.6c.6.4 1.9.9 3.3.9 2 0 3.7-1.3 3.7-3.4 0-2-1.4-3.5-4.5-3.5-.9 0-1.6.1-2.2.2l1-7.5h7.5v1.9zM697.6 59c0 5.3-2 8.2-5.4 8.2-3 0-5.1-2.9-5.2-8 0-5.2 2.3-8.1 5.4-8.1 3.3 0 5.2 3 5.2 7.9zm-8.5.3c0 4.1 1.2 6.4 3.2 6.4 2.2 0 3.2-2.5 3.2-6.5 0-3.8-1-6.4-3.2-6.4-1.8 0-3.2 2.2-3.2 6.5z"/></g></g><g><path fill="none" stroke="#999" stroke-width="2" stroke-miterlimit="10" d="M500.5 58h40M580.5 58h40"/><path fill="#999" d="M499.5 50h2v16h-2zM619.5 50h2v16h-2z"/><g><path d="M542.6 67v-1.3l1.7-1.6c4-3.8 5.8-5.8 5.8-8.2 0-1.6-.8-3-3.1-3-1.4 0-2.6.7-3.3 1.3l-.7-1.5c1.1-.9 2.6-1.6 4.4-1.6 3.4 0 4.8 2.3 4.8 4.5 0 2.9-2.1 5.2-5.4 8.4l-1.2 1.2h7V67h-10zM564.2 53.2h-6l-.6 4c.4 0 .7-.1 1.3-.1 1.2 0 2.4.3 3.4.8 1.2.7 2.2 2 2.2 4 0 3-2.4 5.3-5.8 5.3-1.7 0-3.1-.5-3.9-1l.5-1.6c.6.4 1.9.9 3.3.9 2 0 3.7-1.3 3.7-3.4 0-2-1.4-3.5-4.5-3.5-.9 0-1.6.1-2.2.2l1-7.5h7.5v1.9zM577.6 59c0 5.3-2 8.2-5.4 8.2-3 0-5.1-2.9-5.2-8 0-5.2 2.3-8.1 5.4-8.1 3.3 0 5.2 3 5.2 7.9zm-8.5.3c0 4.1 1.2 6.4 3.2 6.4 2.2 0 3.2-2.5 3.2-6.5 0-3.8-1-6.4-3.2-6.4-1.8 0-3.2 2.2-3.2 6.5z"/></g></g><g><path d="M684.7 388.5c.9-.6 2.3-3 4.3-7.1s3.5-7.6 4.6-10.3l2.9-7.4c1.5-3.6 2.3-6.3 2.6-8.1l.5-3.2c.5-2.3.9-2.6 3.9-.6 2 1.8 3.3 3.6 4.1 5.6.9 2.2.7 3.4-1.8 6.7-2.2 3.2-4.7 7.6-7.4 13.6-1.5 3.6-3.4 7.5-5.5 11.6l-3.9 8.1c-2.2 4.3-4.5 6.4-6.7 6.1-2 0-3.8-2.1-5.3-6.3-1.5-4.6-3.4-8.7-5.6-12.3l-5.5-8.7c-3.6-5.4-6.9-9.6-9.8-12.5l-1.5-1.4c-.6-.6-.9-1.2-.9-1.5 0-.8 1.2-1.5 3.6-2 4.8 0 8.1.6 10.1 1.9s3.3 3.6 4.1 6.8c.5 1.8 1.2 3.8 2 6.1l2.8 7c1.8 4.3 3.2 6.9 4.3 7.9 1.3.8 2 1.3 2.2 1.3.1 0 .7-.4 1.9-1.3zM554.6 394.7c2 1.5 3 2.8 3 3.9s-.5 2.2-1.3 3.5c-.7 1.3-1.1 2.6-1.1 4.1 0 5.6 2.7 13.4 8.2 23.3 5.5 9.8 12.1 19 19.7 27.5 7.7 8.4 14.4 13.6 19.9 15.4 2.5.7 3.8 1.6 3.8 2.8 0 .7-1.8 1.8-5.3 3.3-3.4 1.5-6.1 2.3-7.9 2.3-2.2 0-5.9-2.7-11.1-8.1-7.3-7.6-14.1-17.2-20.4-28.8-6.2-11.6-10.4-22.6-12.4-32.8-1.1-6-2.1-8.9-3.4-8.9-1.2 0-6.3 2.5-15.6 7.3-3.2 1.8-5.6 2.6-7.4 2.6-1.5 0-3.5-.9-6-2.7-2.2-1.5-3.4-2.7-3.4-3.5s2.9-1.6 8.7-2.5c7.4-1.1 13.1-2.6 17.3-4.5 2.7-1.1 4.9-2.3 6.4-3.9 3-3.6 4.4-3.4 8.3-.3zM594.8 152.3c3.6 2.8 5.4 4.8 5.4 6.1 0 .1-.6.9-1.6 2.5-1.8 2.2-3.4 8-5 17.2-2.2 11.7-5.4 20.3-9.6 25.7-2.3 2.8-4.7 4.2-7.1 4.2-1.4 0-3.8-1.4-7.1-4.2-3.4-2.9-5-4.8-5-5.6 0-.4.1-.5.5-.5.5 0 1.6.2 3.4.7 1.6.6 3.3.8 5 .8 2.6 0 4.7-.9 6.2-2.7 1.1-1.1 2.3-5.5 4-13.1 2.2-9.7 3.4-17 3.4-21.8 0-2.8-1.3-4.2-3.8-4.2-2.1 0-11.4 1.4-27.7 4.2l-3.6.8V195c0 15.5.1 24.6.5 27.5.2 3.6.4 6.4.4 8.3 0 3.3-.5 6.2-1.5 8.8-.9 2.5-1.9 3.8-2.7 3.8-1.3 0-2.8-1.4-4.6-4.1-1.6-2.7-2.5-4.9-2.5-6.8 0-1.1.1-2.1.5-3.3.4-1.5.7-3.8 1.2-6.7.8-7.9 1.2-17.5 1.2-28.6 0-9.6-.2-19.6-.7-29.9l-4.7.8c-4.3 1.2-7.1 1.8-8.2 1.8-2 0-4.6-.9-7.6-2.7-3-1.9-4.6-3.4-4.6-4.6 0-.7.6-1.1 1.9-1.1 3.2.7 6 1.1 8.4 1.1 4.1 0 12.8-1.3 26-3.8s22.3-4.5 27.1-5.9c2-1.3 3.5-1.9 4.6-1.9 1.7.2 4.4 1.6 7.9 4.6zM91.9 333.4c-.2 3.8-.8 6.6-1.9 8.7-1.1 2-2.5 3.2-4.2 3.4-1.7.2-3.4-.6-5.2-2.5-1.6-1.4-2.9-4.3-4-8.8-1.1-4.5-1.9-8.6-2.3-12.5l-8.4-56c-.8-4.5-1.8-8.2-2.9-10.9-1.2-2.7-3-5.5-5.6-8.4-2.6-2.9-4.3-5.2-5-6.8-.8-1.6-.9-3-.2-4.2.6-1.2 2.5-1.8 5.6-2 2.5 0 6.1.3 10.8.9l8.7 1.4 22.7-4.9c.9-.2 4.1-1.1 9.5-2.9 5.4-1.8 8.8-3.1 10.2-3.9l12.9-7c2.3-.3 5.1 0 8.2.9 3.1.9 7.2 2.8 12.3 5.5 5.1 2.7 8.5 5 10.3 6.9 1.8 1.9 2.8 3.4 3 4.7.2 1.3 0 2.8-.6 4.7-.5 1.1-2 3.9-4.6 8.3s-4.5 8.4-5.6 11.8c-1.2 3.4-2.9 10.6-5.3 21.6l-8 35.4c4.5 1.7 7.8 3.8 9.7 6.2 2 2.4 2.7 4 2.1 4.7-.5.7-2 1.1-4.3 1.3l-49.2 5.4-8.7-1zm.7-14.7l30-5.4 5.9-56.2.7-8.9c.3-3.1.2-5.2-.5-6.2-.6-1-2.7-1.5-6.3-1.5-2 .2-4.6.5-7.7.9l-12 2.1-17.8 3.3 7.7 71.9zm99-93.1l-1.6-15.7c-.3-1.2-1.1-5.1-2.2-11.5-1.2-6.4-2.5-10.9-3.9-13.6l-5.4-8.9c-1.1-3-1.1-5.1-.1-6.4 1-1.3 3.3-1.9 6.9-1.8 2.3.2 6.1 1 11.4 2.5 5.2 1.5 9.3 2.8 12.1 4s4.5 2.6 5 4.2.4 4-.4 7.1c-1.6 5-2.5 8.5-2.8 10.4-.3 2-.6 5-.8 9.1-.2 4.1-.2 8.1.1 11.8l1.6 35.4 27.9-6.8-6.1-76.4c-.6-6.9-1.3-12.3-2.1-16.4-.8-4.1-2.1-8.2-4-12.4l-4.2-8.4c-1.6-3.4-2-5.7-1.2-6.8.8-1.1 2.6-1.8 5.4-2.1 2.3-.2 7.3.7 15 2.5s12.7 3.7 15 5.6c2.3 2 3.6 3.8 3.8 5.6.2 1.8-.4 4.8-1.6 9-.6 2-1.3 5.8-1.9 11.2-.6 5.5-.9 9.5-.7 12.2l.5 12.4c6.7-2.3 12.4-4.5 17-6.3 4.6-1.9 8.1-3 10.5-3.5 2.4-.5 4.9-.6 7.4-.5 2.7.3 6 1.3 10 2.9s6 3.5 6 5.5c-.2 1.4-1 2.8-2.6 4.2-1.6 1.4-3.8 2.3-6.6 2.8l-41.2 8 .7 45.5 30.5-8c7.2-1.9 12.4-2.8 15.6-2.7 3.2.1 5 .9 5.4 2.3.4 1.5-.4 3-2.5 4.6-2 1.6-5.5 3.3-10.5 5.2l-26.5 9.8c5.5 1.9 10 3.5 13.6 4.9 3.6 1.4 6.4 3.2 8.3 5.5 2 2.3 2.8 4.2 2.6 5.7-.2 1.6-1.5 3.3-3.9 5.3-2.3 2-5.1 4.7-8.2 8.1l-9.4 10.1c6.1-1.2 10.5-2.3 13.2-3 2.7-.8 8.1-2.5 16.1-5s13.8-4.8 17.5-6.8c3.7-2 6.2-3.1 7.6-3.4 2.2-.3 5.4.3 9.6 1.9 4.2 1.6 8.6 3.8 13.2 6.8s7 5.4 7 7.4c.1 2-1 3.9-3.2 6-.9.9-3.6 2.6-7.9 4.9-4.3 2.3-8.8 5.5-13.5 9.4l-10.1 8.7-11.2 9.6-14.8 13.9 31.4-4.2 10.8-1.4c5.2-.6 10-1.5 14.4-2.6 4.5-1.1 9.2-2.6 14.2-4.6 5-2 8.5-3 10.5-3.2 2.3 0 6.1 1.3 11.4 3.8 5.2 2.5 9.1 4.5 11.6 5.9 2.5 1.4 5 3.4 7.4 6.1 2.4 2.7 3.5 4.8 3.2 6.6-.2.6-1 2-2.5 4s-2.8 5.3-4 9.7-2 8-2.3 10.7c-.4 2.7-.6 7.7-.6 15l-.7 28.8c0 2.7.2 10.5.7 23.7s.7 25 .7 35.6c-.2 12.2-1 21.4-2.6 27.8-1.6 6.3-4.2 12.7-7.9 19.1-3.7 6.4-7.7 10.9-12.2 13.6-4.5 2.7-7.7 3.7-9.7 3-2-.3-4.3-2.3-6.8-5.9l-7-9.8c-2.3-3-4.9-6-7.6-9.1-2.7-3.1-6-6.7-9.7-10.8l-8.7-9c-1.7-1.7-2.2-2.9-1.5-3.6s2-1 3.9-.8l13.8 2.3c4.1.8 8.3 1.8 12.8 2.9s7.5 1.2 9.3.1c1.6-.9 2.7-3 3.5-6.2.8-3.2 1.5-8.4 2.2-15.5.7-7.1 1.1-10.8 1.3-11.1l.5-17.3c-7.7.6-13.4 1-17.1 1.2l-21.1 1.2c-1.9.2-11.1 1.2-27.8 3s-26.2 3-28.7 3.3l-23.7 4c-9.2 1.4-14.8 2.3-16.6 2.6-1.9.3-4.1.5-6.8.6-2.7.1-5.2-.9-7.5-2.9l-5.9-4.2c-1.9 6.7-3.8 12.9-5.6 18.6-1.9 5.7-4.3 11.2-7.3 16.4-3 5.2-6.8 11.1-11.6 17.6-4.8 6.5-9.1 11.1-13 13.7l-9.8 6.8c-1.4.9-2.5.9-3.3-.1-.8-1-.5-2.5.9-4.6l7.5-11.7c3.4-5.3 6.9-12.2 10.3-20.7 3.4-8.5 6.3-16.8 8.6-24.7 2.3-8 4.1-16.1 5.5-24.3s2.5-18.2 3.4-30.1c.9-11.9 1.3-21.8 1.3-29.8-.2-8.7-.9-15.5-2.3-20.4l-4.7-12.7c-.5-1.1-.6-2.1-.4-2.9.2-.9 1.1-1.7 2.5-2.5 1.1-.6 4.3-.3 9.6.9l17.3 4.9 50.9-4.9c7-9.8 12.1-17 15.4-21.6 3.2-4.5 5.9-8.6 8.1-12.3 2.2-3.7 3-6 2.6-6.9s-3.6-.9-9.4 0l-13.1 1.9c-5.9.9-9.7 1.4-11.2 1.4-3.8.2-6.3-.2-7.7-.9l-5.9-2.3c-5.6 5.2-10 8.9-13.2 11.1-3.2 2.3-8.3 5.3-15.4 9l-11.7 6.3c-3.3 1.7-5.5 2-6.6.7-1.1-1.2-.8-2.7.9-4.2l11.5-10.5c2.8-2.7 6.8-7.2 12.1-13.6 5.2-6.4 10.2-13 15-19.8 4.8-6.8 7.6-12.5 8.6-17L264 253l-38 14.8c-.8.3-4 1.8-9.7 4.5-5.7 2.7-9.8 5-12.3 7s-4.1 3.1-4.7 3.3c-1.4.5-3.6.2-6.6-.8-3-1-7-3.4-12.1-7.1-5.1-3.8-8.5-7.6-10.3-11.6-1.8-4-2.3-6.5-1.5-7.5.8-1 2.6-1.7 5.4-2 .3 0 3.8.2 10.5.7l10.5.9-3.6-29.6zm92.1 213.1l-.7-34c-22.5 3.6-38.3 4.8-47.3 3.8l-7-.7c-1.3 10.3-2 16.3-2.3 18l-3.8 20.9 61.1-8zm-1.4-49.7c-.5-4.8-.8-9.6-1.1-14.4-.2-4.8-.6-7.9-1.1-9.5l-2.8-8.9c-5.5.6-10.4 1.2-14.8 1.8-4.4.5-10.1 1.3-17.1 2.2l-13.8 1.9c-.3 9.4-.5 14.9-.5 16.6l-.7 16.4 51.9-6.1zm24.7-31.5c2.3 1.3 3.5 2.7 3.8 4.1s-.3 3.6-1.5 6.6c-1.4 3.4-2.3 6.9-2.6 10.3l-.7 6.6c8-1.2 15.6-2.4 22.9-3.5 7.3-1.1 12.9-2 17-2.6 4.1-.6 8.2-.8 12.3-.5 4.1.3 7.9 1.5 11.1 3.5l8 4.7-.5-16.6v-7.5l-.5-8c-.3-3.6-.9-5.7-1.8-6.4-.9-.7-3-1-6.4-.8l-21.8 1.4c-10.2.8-17 1.3-20.4 1.6l-26.2 3c2.6 1.4 5 2.7 7.3 4.1zm-4.1 78.1c5.8-.9 10.2-1.6 13.4-2.1l18.3-2.6c5.8-.8 10.5-1.6 14.3-2.3 3.8-.8 6.5-1.2 8.2-1.2 2 .3 4.3 1.1 6.7 2.2 2.4 1.2 4.5 2.2 6.2 3.2l7.3 4.7v-46.4c-3.8 1.3-6.9 2.2-9.5 2.9s-7.1 1.6-13.7 2.6-13.2 1.8-19.9 2.5l-15.7 1.6-13.1 1.6-2.5 33.3zm69.6-268.1c3.6-.9 7.5-2.2 11.8-3.9 4.3-1.6 7.4-2.5 9.3-2.7 1.9 0 3.7.3 5.4.9 1.7.6 4.2 1.8 7.5 3.4s5.4 3 6.4 4.2c1 1.2 1.5 2.1 1.5 2.9-.2 1.1-1.1 2.3-2.8 3.6-1.7 1.3-4.9 2.5-9.6 3.6l-16.4 4.2c-5.3 1.4-10.9 2.6-16.9 3.5-5.9.9-10.5 1.4-13.8 1.4-3.9.2-6.4-.1-7.5-.7l-7-2.6c-.5 7.2-.9 13.3-1.2 18.3-.3 5-.4 8.9-.2 11.7.3 8.4 2 14.3 5 17.5 3 3.2 7.7 5.4 14.1 6.7 6.3 1.3 14 1.8 23.1 1.6 7 0 13.4-.3 19-.9 5.6-.6 10.8-1.8 15.6-3.4 4.8-1.6 8.2-3.6 10.3-5.7 2.1-2.2 4.5-6.8 7.1-13.8 2.7-7 4.3-12.7 4.9-16.9l1.6-11.5c.3-3.1 1.4-4.8 3.3-5s3.1 1.1 3.8 4.1l2.6 13.1c.5 3.1 1.4 7.3 2.9 12.7 1.5 5.3 3 9.2 4.6 11.7l5.2 8.7c1.4 3 2 5.6 1.6 8-.3 2-1.2 4.1-2.7 6.1-1.5 2-4.6 4.5-9.4 7.5-4.8 3-12.5 5.8-23.2 8.4-10.7 2.7-23.4 4-38.1 4-13 .2-23.8-.7-32.6-2.7s-15.9-4.7-21.3-8.3c-5.5-3.6-9.8-8.5-13-14.6-3.2-6.2-4.8-13-4.9-20.6-.1-7.6.3-18.6 1.1-32.9l1.6-36.6c0-1.7-.1-4.9-.2-9.5-.2-4.6-1.2-9.3-3-13.9s-2.9-7.9-2.9-9.5c-.1-1.6.4-2.9 1.4-3.8 1-.9 2.9-1.1 5.7-.8 3 .5 7.3 1.8 13 4s9.9 4.3 12.5 6.2c2.7 2 4 3.7 4.1 5.2.1 1.5-.7 3.7-2.5 6.7-1.6 2.7-2.7 5.2-3.3 7.5-.6 2.3-1.4 7.3-2.3 15l-2.1 16.9 30.9-9zM581.1 273.5c2.9 2.9 4.5 5.4 4.5 7.4 0 .6-.7 1.3-2.1 2.1-1.6 1.3-3.4 5.6-5.4 12.9-3.6 10.4-7.1 19-10.5 25.5 7.4 5 15.8 11.8 25.5 20.6 4.1 3.9 6.1 7.9 6.1 12 0 5-.9 7.5-2.8 7.5-1.3 0-4.3-2.7-9.1-8.2-9.3-10.4-17.3-18.6-24-24.6-5.7 8.1-11 14.5-16.1 19.5-6 5.3-12.1 9.5-18.5 12.7-3.6 1.4-5.7 2.1-6.3 2.1h-.5c0-.6.5-1.3 1.4-1.9 10.3-8 18.3-15.7 23.9-23.2 3.2-4.2 6.3-9.1 9.6-14.9-9.5-8.1-18.8-15.1-27.7-21.1l-1.2-.9c0-.4.2-.5.8-.5 1.3 0 4.1.8 8.7 2.5 6 2.8 13.6 7.3 22.9 13.5l2.8-5.5c4.3-10.1 7.5-18.9 9.4-26.5 1.3-4.8 1.5-8.3.9-10.3-.6-1.4-.9-2.3-.9-2.8 0-.6.6-.8 1.9-.8 1.8-.2 4 .9 6.7 2.9z"/></g></svg>