<svg xmlns="http://www.w3.org/2000/svg" viewBox="0 0 760 640"><path fill="none" stroke="#999" stroke-width="2" stroke-miterlimit="10" d="M20.5 601h340m40 0h340"/><path fill="#999" d="M19.5 593h2v16h-2zm720 0h2v16h-2z"/><path d="M375.2 610v-4.2H368v-1.4l7-10h2.3v9.7h2.2v1.7h-2.2v4.2h-2.1zm0-5.9v-5.2c0-.8 0-1.6.1-2.4h-.1c-.5.9-.9 1.6-1.3 2.3L370 604h5.2zm15-7.9h-6l-.6 4c.4 0 .7-.1 1.3-.1 1.2 0 2.4.3 3.4.8 1.2.7 2.2 2 2.2 4 0 3-2.4 5.3-5.8 5.3-1.7 0-3.1-.5-3.9-1l.5-1.6c.6.4 1.9.9 3.3.9 2 0 3.7-1.3 3.7-3.4 0-2-1.4-3.5-4.5-3.5-.9 0-1.6.1-2.2.2l1-7.5h7.5v1.9z"/><path fill="none" stroke="#999" stroke-width="2" stroke-miterlimit="10" d="M20.5 578h220m40 0h220"/><path fill="#999" d="M19.5 570h2v16h-2zm480 0h2v16h-2z"/><path d="M249.1 584.6c.6.4 2 1 3.5 1 2.7 0 3.6-1.7 3.5-3 0-2.2-2-3.1-4-3.1h-1.2v-1.6h1.2c1.5 0 3.5-.8 3.5-2.6 0-1.2-.8-2.4-2.7-2.4-1.2 0-2.4.6-3.1 1l-.6-1.5c.8-.6 2.4-1.2 4.1-1.2 3.1 0 4.5 1.8 4.5 3.7 0 1.6-1 3-2.9 3.7 1.9.4 3.5 1.8 3.5 4 0 2.5-1.9 4.7-5.7 4.7-1.8 0-3.3-.6-4.1-1.1l.5-1.6zm22.2-5.6c0 5.3-2 8.2-5.4 8.2-3 0-5.1-2.9-5.2-8 0-5.2 2.3-8.1 5.4-8.1 3.3 0 5.2 3 5.2 7.9zm-8.5.3c0 4.1 1.2 6.4 3.2 6.4 2.2 0 3.2-2.5 3.2-6.5 0-3.8-1-6.4-3.2-6.4-1.8 0-3.2 2.2-3.2 6.5z"/><g><path fill="none" stroke="#999" stroke-width="2" stroke-miterlimit="10" d="M500.5 578h100m40 0h100"/><path fill="#999" d="M499.5 570h2v16h-2zm240 0h2v16h-2z"/><path d="M613.2 573.4l-2.8 1.5-.4-1.6 3.4-1.8h1.8V587h-2v-13.6zm17-.2h-6l-.6 4c.4 0 .7-.1 1.3-.1 1.2 0 2.4.3 3.4.8 1.2.7 2.2 2 2.2 4 0 3-2.4 5.3-5.8 5.3-1.7 0-3.1-.5-3.9-1l.5-1.6c.6.4 1.9.9 3.3.9 2 0 3.7-1.3 3.7-3.4 0-2-1.4-3.5-4.5-3.5-.9 0-1.6.1-2.2.2l1-7.5h7.5v1.9z"/></g><g><path fill="none" stroke="#999" stroke-width="2" stroke-miterlimit="10" d="M660.5 58h30m20 0h30"/><path fill="#999" d="M659.5 50h2v16h-2zm80 0h2v16h-2z"/><path fill="none" d="M694.5 46.5h13.9v30.4h-13.9z"/><path d="M704.9 52.8h-6l-.6 4c.4 0 .7-.1 1.3-.1 1.2 0 2.4.3 3.4.8 1.2.7 2.2 2 2.2 4 0 3-2.4 5.3-5.8 5.3-1.7 0-3.1-.5-3.9-1l.5-1.6c.6.4 1.9.9 3.3.9 2 0 3.7-1.3 3.7-3.4 0-2-1.4-3.5-4.5-3.5-.9 0-1.6.1-2.2.2l1-7.5h7.5v1.9z"/><g><path fill="none" stroke="#999" stroke-width="2" stroke-miterlimit="10" d="M516.5 58h62m20 0h62"/><path fill="#999" d="M515.5 50h2v16h-2zm144 0h2v16h-2z"/><path d="M583.8 65.5c.5 0 1 0 1.7-.1 1.2-.2 2.4-.7 3.3-1.5 1-.9 1.8-2.3 2.1-4.2h-.1c-.9 1.1-2.1 1.7-3.7 1.7-2.8 0-4.6-2.1-4.6-4.8 0-3 2.1-5.5 5.3-5.5s5.2 2.6 5.2 6.6c0 3.4-1.2 5.8-2.7 7.3-1.2 1.2-2.9 1.9-4.5 2.1-.8.1-1.4.1-1.9.1v-1.7zm.8-9c0 1.9 1.2 3.3 3 3.3 1.4 0 2.5-.7 3.1-1.6.1-.2.2-.4.2-.8 0-2.7-1-4.7-3.2-4.7-1.8 0-3.1 1.6-3.1 3.8z"/></g></g><g stroke-miterlimit="10"><g fill="#eee" stroke="#999"><path d="M660.5 336.1h80v80h-80z"/><path stroke-width="2" d="M660.5 336h80m-80 80h80"/></g><g fill="#eee" stroke="#999"><path d="M516.5 257.1h144v144h-144z"/><path stroke-width="2" d="M516.5 401h144m-144-144h144"/></g><path d="M180 560V80m161 480V80M20.5 239.5h480m-480 161h480" fill="none" stroke="#ccc"/><g fill="none" stroke="#999" stroke-width="2"><path d="M20.5 80.1h720v480h-720z"/><path d="M20.5 80.1h480v480h-480zM660.5 560V80m-144 480V80"/></g></g><g><path d="M596.8 318.5c17-1.8 28.1-3.7 33.2-5.5 2.5-1.3 4.1-1.7 4.5-1.5 1.1-.1 3.5 1.3 7 4.4 2.5 2.5 3.8 4.4 3.8 5.5l.1.3c0 1-.6 1.4-1.8 1.4h-2.4c-1.7-.1-3.7.4-5.8.4-5.3-.1-14.2.6-26.7 2-19.3 2.1-36.1 3.8-50.9 4.9-6.3.1-11 1-14.2 2.2-2.1.6-3.2.8-3.7.8-2 0-4.4-1.4-7.2-4.4s-4.2-5.5-4.4-7.6l-.1-.4c-.1-1.4.3-2.1 1.5-2.1l.1-.1c.1 0 1.7.3 2.4.4 3.2 1.3 9 2 17.4 2 14.4 0 30.2-.9 47.2-2.7zM686.7 345.1c1.9 1.9 2.9 3.4 2.9 4.3 0 .4-.6 1.1-1.8 2.3-.9.6-2.4 2.3-4.3 5.1s-2.9 4.8-2.9 5.6c0 .6.1 1 .4 1l2.5-.8c10-2.6 19.8-4.5 29.4-5.9 2.5-.4 4.6-.8 6.3-1.4 1.6-.8 2.8-1.1 3.5-1.1 1.5 0 3.3 1.4 5.3 4.1 1.8 2.8 2.6 4.5 2.6 5.3l-1 2c-.5.8-1 2.3-1.6 4.6-2.9 12.6-6.9 23.2-11.9 31.3-4 6.6-7.9 9.9-11.5 9.9-1.9 0-3.3-1.1-4-3.4-1-3.1-2.8-6.3-5.3-9.3l-.5-.2c0-.2.6-.4 1.9-.4l1.8.9c3.1 1.9 5.1 2.9 6.1 2.9 2.1 0 5.1-4.6 9.3-14 4.5-10.9 6.8-19.3 6.8-25 0-1.1-.6-1.8-1.9-1.8-3.5 0-9.8 1-18.9 2.9l-7.1 1.6c2.4 2 4.5 5.3 4.5 6.4 0 2-2 5.6-6 10.9-3.9 5.1-8 9.5-12.1 13-3.1 3.1-5.6 4.6-7.3 4.6-.9 0-1.3-.1-1.3-.4l.4-.9c4.3-4.3 8.5-9.9 12.8-16.9 3.1-5.4 4.6-10 4.6-13.9 0-.8-.1-1.3-.5-1.6l-7.9 2.5c-1.5 1-2.8 1.5-3.9 1.5-.9 0-2.1-.6-3.8-1.8-1.6-1.1-2.4-2-2.4-2.6 0-.1.8-1.3 2.1-3.4 3.9-6.8 6.1-11.6 6.8-14.6.6-1.9.8-3.6.4-5.1 0-.9.8-1.3 2.1-1.3 1.2.1 3 1.1 5.4 3.1zM123.1 315.8c-.5 3.4-1.8 8-3.9 13.7-2.1 5.7-4.2 10.4-6.2 14.2-2 3.8-4.9 8.1-8.7 13S97 365 93.5 366.9c-3.4 1.9-6.5 2.4-9.1 1.6-2.8-.6-5.4-2.7-7.7-6.1-2.3-3.4-3.7-7-4.1-10.8-.4-3.8-.4-6.7.1-8.9.5-1.9 1.9-4.6 4.2-8.1s6.5-10.5 12.4-21.1c5.9-10.5 9.6-17.6 11-21.2l4.9-15c1.2-3.1 2.7-4.9 4.2-5.3 1.6-.4 3.4.4 5.6 2.2 1.2 1.4 2.3 3 3.3 4.7l2.6 5.6c6.2.2 12.3.2 18 .1 5.8-.1 10.8-.2 15-.5s18.4-1.1 42.7-2.7l41-2.6c4.8-.3 20.5-1.8 46.9-4.3 26.4-2.6 40.8-4 43.1-4.3l29.3-3.3c15.9-1.4 24.7-2.3 26.4-2.6 1.6-.3 5.4-1 11.2-2 5.9-1 9.9-1.4 12.1-1.3 3 .5 6.2 1.8 9.7 3.9s8.9 6.1 16.2 12.1c7.3 5.9 12.3 10.3 15.2 13.1 2.9 2.8 5.5 6.1 7.7 10 2.3 3.8 3.1 6.8 2.5 8.8-.8 2.7-2.8 4.5-6 5.6-3.2 1.1-7.5 2-12.8 2.7-5.3.7-11.5 2-18.6 3.9-7.1 1.9-12.9 3.6-17.3 5-4.5 1.5-8.8 3.2-13 5.3l-16.2 8c-2.3 1.3-3.9 1.4-4.7.4-.8-1-.5-2.6.7-4.8l8.9-15c3.1-5.5 4.9-8.5 5.4-9.1l5.2-9.8c2.5-4.7 3.9-8.3 4.3-10.9.4-2.6.2-4.5-.6-5.6-.8-1.2-3.4-1.8-8-1.8h-13.8c-7 .2-20.5 1-40.5 2.6l-49 4c-2 .3-12.8 1.5-32.2 3.6s-36.4 3.8-51 5.2c-14.5 1.3-26.3 2.7-35.4 4-9.1 1.3-14.5 2.1-16.4 2.2-6.1.6-11.2.6-15.5 0l-7.3-.7c-.1 4.6-.5 8.7-1 12.1zm72 121.9c-.6-1.2-1.3-3-2.1-5.4-.8-2.3-1.7-6.3-2.8-12-1.1-5.6-2.1-10.5-3.2-14.6-1-4.1-2.5-9-4.5-14.5s-4.5-9.8-7.7-12.7c-3.2-2.9-5-5-5.4-6.2-.4-1.2-.3-2.5.4-3.6.6-1.2 2.6-1.9 5.9-2.2 4.7-.3 9.1.2 13.4 1.6l7.7 2.6c5.2-.8 9.1-1.4 11.7-1.9l25.3-3.8c8.4-1.2 18.9-2.9 31.5-5 12.6-2.1 21.5-3.6 26.7-4.3 5.2-.8 9.3-1.6 12.2-2.3 2.9-.8 4.9-1.2 6-1.4 2.7 0 5.8.8 9.4 2.3 3.6 1.6 7.7 3.7 12.2 6.3 4.5 2.7 8.1 5.4 10.7 8.2s3.6 5.2 2.9 7.3c-.5 1.1-1.3 2.2-2.6 3.3l-5.2 4c-2.5 2.2-5.7 6.2-9.7 12-4 5.8-6.4 9.6-7.4 11.5l-4.5 8.4c1.4.9 2.7 1.8 3.9 2.5s2.4 1.9 3.8 3.6c1.3 1.7 1.6 3.1.8 4.2-.5.6-1.3 1.1-2.6 1.4-1.3.3-3 .5-5.2.5h-13.1c3.3 1.9 5.8 3.4 7.6 4.5 1.8 1.1 3.8 2.5 6.1 4.3 2.3 1.8 4.9 4.5 7.9 8s4.2 6.1 3.6 7.9c-.5 1.7-2.6 3.9-6.2 6.6-3.6 2.7-6.5 5-8.7 7.1-2.2 2.1-5.4 5.6-9.7 10.5-4.3 4.9-6.9 7.9-7.9 9l-4.5 5.6c9.8-.6 17.8-1.2 23.9-1.6s15-1.2 26.7-2.1 20.3-1.8 25.7-2.5 9.3-1 11.8-.8c3 .3 6.8 1.4 11.5 3.2 4.7 1.8 9.6 4.2 14.8 7.3s8.2 6.1 9.3 9.3c1 3.1.9 5.3-.2 6.4s-3.3 1.8-6.4 1.8h-21.1l-43.1-.9c-11.1-.2-23.4 0-36.9.5s-26.8 1.2-40 2.1l-41 3.3c-19.1 1.6-31.6 2.7-37.5 3.3-5.9.6-13.2 1.6-21.7 2.9-8.5 1.3-15 2.7-19.6 4.1-4.5 1.4-7.6 2-9.1 1.9-2.7 0-6.4-1.1-11.1-3.2-4.8-2.1-8.7-4.2-11.7-6.3s-5.5-4.4-7.5-6.8c-2-2.4-2.6-4.3-1.9-5.6.7-1.3 2.9-2.1 6.7-2.2l17.6-.7 23.4-.9 26.7-2.8 20.2-1.9 10.8-1.4c-3-3.6-5.1-6.4-6.3-8.4l-10.5-18.5-8-13.4c-1.6-2.7-2.9-5.8-3.9-9.4-1-3.6-1-5.9.1-6.9s3.3-1.1 6.6-.1l8.2 2.3c-1.6-2.4-2.6-4-3.2-5.3zM242.2 163l-.5-14.1c-.5-3.4-1.2-7-2.2-10.7-1-3.7-2.3-7-3.9-9.8-1.6-2.9-2.7-5.2-3.3-6.9-.6-1.7-.5-3.1.5-4.2.9-1.1 2.8-1.8 5.6-2.1 3.6-.2 7.4.1 11.4.8s8.6 1.8 13.7 3.3c5.2 1.5 9.3 3.2 12.3 5s4.7 3.6 4.9 5.2c.2 1.6-.1 3.4-1.1 5.6l-2.8 6.6c-.8 2.2-1.4 4.8-2 8-.5 3.1-.9 6.6-1.1 10.3l-.9 12c6.9-.8 13-1.5 18.3-2.1 5.3-.6 11.9-1.6 19.7-2.8 7.8-1.2 14.3-2.5 19.5-3.6s8.9-1.8 11.2-1.8c2.7.2 5.9.8 9.6 2s7 2.7 9.7 4.5c2.7 1.8 4.7 3.6 6 5.4 1.2 1.8 1.9 3 1.9 3.6-.2 1.1-1.4 2.1-3.6 3-2.3.9-6.7 1.8-13.2 2.6l-16.4 2.8c-2.2.5-10 1.3-23.4 2.6l-24.8 2.8-15 1.2-.9 38.7c5-.9 9.7-1.8 14.1-2.5s8.4-1.4 12-2.2c3.6-.8 5.9-1.2 7-1.4 3-.2 7.1.4 12.3 1.5 5.2 1.2 10 2.6 14.4 4.3 4.4 1.7 6.6 3.5 6.6 5.4-.2 1.6-1 3-2.6 4.2-1.6 1.3-4.5 2.1-8.7 2.6l-16.2 2.8c-2.5.5-6.7 1.1-12.5 1.8s-15.7 2-29.4 3.8c-13.8 1.8-25.5 3.2-35.3 4.3-9.8 1.1-17.1 1.6-21.9 1.4-6.3 0-11.8-.6-16.5-1.9-4.8-1.2-8.1-3.2-10.1-5.7-2-2.6-2.7-4.4-2.2-5.4s2.7-1.8 6.8-2.2l16.4-1.9 20.9-2.8 19.5-2.3-1.4-39.1c-9.4 1.1-16.8 1.9-22.3 2.3-5.5.5-11.8.9-19 1.2-7.2.3-13.4.2-18.8-.2-6.6-.3-12.3-1.1-17.3-2.2-5-1.2-8.5-3.1-10.5-5.7-2-2.7-2.7-4.5-2-5.5.7-1 3.2-1.8 7.6-2.2l18.3-1.4c8.6-.6 16.4-1.2 23.3-1.9 7-.6 16-1.5 27.1-2.6l12-1.2-.8-13.2zm-55.8 162l13.6-1.9 18.3-1.9c6.4-.6 15.2-1.9 26.2-3.8 11.1-1.9 17.4-3 19-3.3l21.8-3.3c4.7-.8 8-1.2 9.8-1.4 4.2-.3 8.1-.2 11.7.5 3.6.6 7.7 1.5 12.2 2.6 4.5 1.1 7.6 2.3 9.3 3.6 1.6 1.3 2.5 2.7 2.6 4 .1 1.3-.7 2.6-2.5 3.9-1.6 1.1-4 1.8-7.4 2-3.4.2-9.3 1.3-17.8 3-8.5 1.8-18.7 3.3-30.5 4.6-11.8 1.3-22.3 2.4-31.4 3.5-9.1 1.1-16.2 1.9-21.1 2.3s-9.9.6-14.9.5c-5.8 0-10.7-.6-14.6-1.8s-7-2.9-8.9-5.2c-2-2.3-2.7-4-2.3-5.3.4-1 2.7-2 6.9-2.6zm46.4 92.9c7.3-.9 14.1-1.6 20.4-2.3 6.2-.7 13.2-1.7 21-2.9 7.7-1.2 12.1-2 13-2.1l8.4-.5 6.1-20.4 1.2-6.1 1.4-6.3c.2-2.7-.4-4.6-1.5-6-1.2-1.3-3.9-1.9-8.3-1.8-7.7.5-15.8 1.3-24.4 2.5-8.6 1.2-18.3 2.6-29.2 4.3-10.9 1.7-18.4 3-22.6 3.8l-13.1 2.6c.2 3 .4 5.6.6 8s.7 5.1 1.3 8.2l2.1 9.8 1.9 11.7c7.1-.8 14.4-1.6 21.7-2.5zm-13.7 36.8c4.5 3.2 7.9 7.5 10.3 12.9 2.4 5.4 3.9 9.6 4.5 12.5.5 3 .7 5.5.6 7.7l-.5 7c12-.8 19.4-1.3 22-1.6l20.2-1.4c3.4-6.3 5.9-11.2 7.5-15 1.6-3.8 3.6-9.8 6.1-18.3 2.5-8.4 3.8-13.5 4-15.2l1.9-15.2c-3.9.5-6.8.8-8.7.9l-21.3 1.9-25.3 2.6c-3 .3-8.8.7-17.6 1.2l-11.7.7c-.2 4.2-.6 6.6-1.4 7l-4.5 3.5c4.8 2.7 9.4 5.6 13.9 8.8z"/></g></svg>