<svg xmlns="http://www.w3.org/2000/svg" viewBox="0 0 760 640"><g stroke-miterlimit="10"><g fill="none" stroke="#CCC"><path d="M180 560V80M341 560V80M20.5 239.5h480M20.5 400.5h480"/></g><g fill="none" stroke="#999" stroke-width="2"><path d="M20.5 80.1h720v480h-720z"/><path d="M20.5 80.1h480v480h-480zM620.5 560V80"/></g><g fill="#EEE" stroke="#999" stroke-width="2"><path d="M500.5 140.1h120v120h-120zM500.5 260.1h120v120h-120zM500.5 380h120M500.5 260h120M500.5 380.1h120v120h-120zM500.5 500h120M500.5 380h120"/></g><g fill="#EEE" stroke="#999" stroke-width="2"><path d="M500.5 110h120v30h-120zM500.5 140h120M500.5 110h120"/></g></g><path fill="none" stroke="#999" stroke-width="2" stroke-miterlimit="10" d="M20.5 601h330M410.5 601h330"/><path fill="#999" d="M19.5 593h2v16h-2zM739.5 593h2v16h-2z"/><path d="M361.2 596.4l-2.8 1.5-.4-1.6 3.4-1.8h1.8V610h-2v-13.6zM378.2 596.2h-6l-.6 4c.4 0 .7-.1 1.3-.1 1.2 0 2.4.3 3.4.8 1.2.7 2.2 2 2.2 4 0 3-2.4 5.3-5.8 5.3-1.7 0-3.1-.5-3.9-1l.5-1.6c.6.4 1.9.9 3.3.9 2 0 3.7-1.3 3.7-3.4 0-2-1.4-3.5-4.5-3.5-.9 0-1.6.1-2.2.2l1-7.5h7.5v1.9zM391.6 602c0 5.3-2 8.2-5.4 8.2-3 0-5.1-2.9-5.2-8 0-5.2 2.3-8.1 5.4-8.1 3.3 0 5.2 3 5.2 7.9zm-8.5.3c0 4.1 1.2 6.4 3.2 6.4 2.2 0 3.2-2.5 3.2-6.5 0-3.8-1-6.4-3.2-6.4-1.8 0-3.2 2.2-3.2 6.5zM403.9 602c0 5.3-2 8.2-5.4 8.2-3 0-5.1-2.9-5.2-8 0-5.2 2.3-8.1 5.4-8.1 3.4 0 5.2 3 5.2 7.9zm-8.4.3c0 4.1 1.2 6.4 3.2 6.4 2.2 0 3.2-2.5 3.2-6.5 0-3.8-1-6.4-3.2-6.4-1.9 0-3.2 2.2-3.2 6.5z"/><g><path fill="none" stroke="#999" stroke-width="2" stroke-miterlimit="10" d="M20.5 578h210M290.5 578h210"/><path fill="#999" d="M19.5 570h2v16h-2zM499.5 570h2v16h-2z"/><g><path d="M241.2 573.4l-2.8 1.5-.4-1.6 3.4-1.8h1.8V587h-2v-13.6zM259.3 579c0 5.3-2 8.2-5.4 8.2-3 0-5.1-2.9-5.2-8 0-5.2 2.3-8.1 5.4-8.1 3.3 0 5.2 3 5.2 7.9zm-8.5.3c0 4.1 1.2 6.4 3.2 6.4 2.2 0 3.2-2.5 3.2-6.5 0-3.8-1-6.4-3.2-6.4-1.8 0-3.2 2.2-3.2 6.5zM271.6 579c0 5.3-2 8.2-5.4 8.2-3 0-5.1-2.9-5.2-8 0-5.2 2.3-8.1 5.4-8.1 3.3 0 5.2 3 5.2 7.9zm-8.5.3c0 4.1 1.2 6.4 3.2 6.4 2.2 0 3.2-2.5 3.2-6.5 0-3.8-1-6.4-3.2-6.4-1.8 0-3.2 2.2-3.2 6.5zM283.9 579c0 5.3-2 8.2-5.4 8.2-3 0-5.1-2.9-5.2-8 0-5.2 2.3-8.1 5.4-8.1 3.4 0 5.2 3 5.2 7.9zm-8.4.3c0 4.1 1.2 6.4 3.2 6.4 2.2 0 3.2-2.5 3.2-6.5 0-3.8-1-6.4-3.2-6.4-1.9 0-3.2 2.2-3.2 6.5z"/></g></g><g><path fill="none" stroke="#999" stroke-width="2" stroke-miterlimit="10" d="M500.5 578h90M650.5 578h90"/><path fill="#999" d="M499.5 570h2v16h-2zM739.5 570h2v16h-2z"/><g><path d="M611.9 573.2h-6l-.6 4c.4 0 .7-.1 1.3-.1 1.2 0 2.4.3 3.4.8 1.2.7 2.2 2 2.2 4 0 3-2.4 5.3-5.8 5.3-1.7 0-3.1-.5-3.9-1l.5-1.6c.6.4 1.9.9 3.3.9 2 0 3.7-1.3 3.7-3.4 0-2-1.4-3.5-4.5-3.5-.9 0-1.6.1-2.2.2l1-7.5h7.5v1.9zM625.3 579c0 5.3-2 8.2-5.4 8.2-3 0-5.1-2.9-5.2-8 0-5.2 2.3-8.1 5.4-8.1 3.3 0 5.2 3 5.2 7.9zm-8.5.3c0 4.1 1.2 6.4 3.2 6.4 2.2 0 3.2-2.5 3.2-6.5 0-3.8-1-6.4-3.2-6.4-1.8 0-3.2 2.2-3.2 6.5zM637.6 579c0 5.3-2 8.2-5.4 8.2-3 0-5.1-2.9-5.2-8 0-5.2 2.3-8.1 5.4-8.1 3.3 0 5.2 3 5.2 7.9zm-8.5.3c0 4.1 1.2 6.4 3.2 6.4 2.2 0 3.2-2.5 3.2-6.5 0-3.8-1-6.4-3.2-6.4-1.8 0-3.2 2.2-3.2 6.5z"/></g></g><g><path fill="none" stroke="#999" stroke-width="2" stroke-miterlimit="10" d="M620.5 58h40M700.5 58h40"/><path fill="#999" d="M619.5 50h2v16h-2zM739.5 50h2v16h-2z"/><g><path d="M662.6 67v-1.3l1.7-1.6c4-3.8 5.8-5.8 5.8-8.2 0-1.6-.8-3-3.1-3-1.4 0-2.6.7-3.3 1.3l-.7-1.5c1.1-.9 2.6-1.6 4.4-1.6 3.4 0 4.8 2.3 4.8 4.5 0 2.9-2.1 5.2-5.4 8.4l-1.2 1.2h7V67h-10zM684.2 53.2h-6l-.6 4c.4 0 .7-.1 1.3-.1 1.2 0 2.4.3 3.4.8 1.2.7 2.2 2 2.2 4 0 3-2.4 5.3-5.8 5.3-1.7 0-3.1-.5-3.9-1l.5-1.6c.6.4 1.9.9 3.3.9 2 0 3.7-1.3 3.7-3.4 0-2-1.4-3.5-4.5-3.5-.9 0-1.6.1-2.2.2l1-7.5h7.5v1.9zM697.6 59c0 5.3-2 8.2-5.4 8.2-3 0-5.1-2.9-5.2-8 0-5.2 2.3-8.1 5.4-8.1 3.3 0 5.2 3 5.2 7.9zm-8.5.3c0 4.1 1.2 6.4 3.2 6.4 2.2 0 3.2-2.5 3.2-6.5 0-3.8-1-6.4-3.2-6.4-1.8 0-3.2 2.2-3.2 6.5z"/></g></g><g><path fill="none" stroke="#999" stroke-width="2" stroke-miterlimit="10" d="M500.5 58h40M580.5 58h40"/><path fill="#999" d="M499.5 50h2v16h-2zM619.5 50h2v16h-2z"/><g><path d="M542.6 67v-1.3l1.7-1.6c4-3.8 5.8-5.8 5.8-8.2 0-1.6-.8-3-3.1-3-1.4 0-2.6.7-3.3 1.3l-.7-1.5c1.1-.9 2.6-1.6 4.4-1.6 3.4 0 4.8 2.3 4.8 4.5 0 2.9-2.1 5.2-5.4 8.4l-1.2 1.2h7V67h-10zM564.2 53.2h-6l-.6 4c.4 0 .7-.1 1.3-.1 1.2 0 2.4.3 3.4.8 1.2.7 2.2 2 2.2 4 0 3-2.4 5.3-5.8 5.3-1.7 0-3.1-.5-3.9-1l.5-1.6c.6.4 1.9.9 3.3.9 2 0 3.7-1.3 3.7-3.4 0-2-1.4-3.5-4.5-3.5-.9 0-1.6.1-2.2.2l1-7.5h7.5v1.9zM577.6 59c0 5.3-2 8.2-5.4 8.2-3 0-5.1-2.9-5.2-8 0-5.2 2.3-8.1 5.4-8.1 3.3 0 5.2 3 5.2 7.9zm-8.5.3c0 4.1 1.2 6.4 3.2 6.4 2.2 0 3.2-2.5 3.2-6.5 0-3.8-1-6.4-3.2-6.4-1.8 0-3.2 2.2-3.2 6.5z"/></g></g><g><path d="M561.5 130c-1.4 0-2.6-.5-3.6-1.4-1-1-1.4-2.2-1.4-3.6s.5-2.5 1.4-3.5c1-1 2.2-1.5 3.6-1.5s2.5.5 3.5 1.5 1.5 2.1 1.5 3.5-.5 2.6-1.5 3.6c-1 .9-2.1 1.4-3.5 1.4zM519.1 402.9c2 .4 4.1.5 6.6.5 2 0 4-.1 6.1-.5l52.5-6.1c3-.6 5.3-1.3 6.6-1.9 1.4-.6 2.8-.9 4.2-.9 1.3 0 3.2.9 5.4 2.9 2.3 1.9 3.5 3.3 3.5 4.2 0 .8-.6 1.3-1.9 1.3-.6 0-1.6-.1-3.4-.2l-3.2-.2c-7.5.4-15.5 1.1-23.9 1.9l-2.8.4c.1 10.4-.1 18.8-.7 24.8-.5 3.3-3.4 6.8-7.3 6.8-.6 0-1.5-.2-2.8-.7-1.2-.2-2.1-.4-2.8-.4-4.1 0-8 1.6-11.6 4.8-3.2 3.6-4.8 7.5-4.8 11.7 0 6 2.2 11.1 6.7 15.2 4.6 4.1 10.3 6.2 17.2 6.2 9.8 0 18.3-4.5 25.4-13.4 1.3-1.1 2.6-1.6 3.6-1.6 2.3 0 4.2 1.6 4.2 4 0 4.3-3.4 8.7-10.1 12.9-6.7 4.3-14.4 6.4-23.2 6.4-9.4 0-17.2-2.8-23.4-8.3-6.2-6.2-9.4-13.4-9.4-21.4 0-6.8 2.2-12.4 6.6-17 4.8-4.5 11-6.9 18.8-7.5 2.8-.6 4.1-2.2 3.8-4.7l-.9-16.8c-12.9 1.8-22.4 3.5-28.4 5.5-1.6.6-2.9.9-4 .9-1.5 0-3.9-1.3-7.3-4-2.3-2-3.5-3.4-3.5-4 0-.9.8-1.4 2.3-1.4.8.1 1.4.2 1.9.6zM594.8 153.3c3.6 2.8 5.4 4.8 5.4 6.1 0 .1-.6.9-1.6 2.5-1.8 2.2-3.4 8-5 17.2-2.2 11.7-5.4 20.3-9.6 25.7-2.3 2.8-4.7 4.2-7.1 4.2-1.4 0-3.8-1.4-7.1-4.2-3.4-2.9-5-4.8-5-5.6 0-.4.1-.5.5-.5.5 0 1.6.2 3.4.7 1.6.6 3.3.8 5 .8 2.6 0 4.7-.9 6.2-2.7 1.1-1.1 2.3-5.5 4-13.1 2.2-9.7 3.4-17 3.4-21.8 0-2.8-1.3-4.2-3.8-4.2-2.1 0-11.4 1.4-27.7 4.2l-3.6.8v32.7c0 15.5.1 24.6.5 27.5.2 3.6.4 6.4.4 8.3 0 3.3-.5 6.2-1.5 8.8-.9 2.5-1.9 3.8-2.7 3.8-1.3 0-2.8-1.4-4.6-4.1-1.6-2.7-2.5-4.9-2.5-6.8 0-1.1.1-2.1.5-3.3.4-1.5.7-3.8 1.2-6.7.8-7.9 1.2-17.5 1.2-28.6 0-9.6-.2-19.6-.7-29.9l-5 .9c-4.3 1.2-7.1 1.8-8.2 1.8-2 0-4.6-.9-7.6-2.7-3-1.9-4.6-3.4-4.6-4.6 0-.7.6-1.1 1.9-1.1 3.2.7 6 1.1 8.4 1.1 4.1 0 12.8-1.3 26-3.8s22.3-4.5 27.1-5.9c2-1.3 3.5-1.9 4.6-1.9 2 .1 4.7 1.5 8.2 4.4zM132.3 285.4c-3.6 4.8-9.4 11.9-17.3 21.2-8 9.3-15.4 17.2-22.3 23.7s-14.5 12.7-23 18.6c-8.4 5.9-14.7 10.1-18.8 12.4l-4.5 2.6c-1.9 1.1-3.5 1-4.9-.4-1.4-1.3-.5-3.6 2.8-6.7l2.8-2.6c4.1-3.8 9.1-9 15.2-15.8s12-13.6 17.8-20.4c5.8-6.8 12-14.5 18.5-23.1 6.6-8.6 13-17.8 19.5-27.5 6.4-9.8 12.3-19.5 17.6-29.1 5.3-9.6 10.2-19.3 14.8-29.1 4.5-9.8 7.8-17.4 9.8-23 2-5.5 3.5-10.3 4.5-14.2l1.4-7.7c.8-4.4.9-8 .5-11-.5-3-.5-5-.1-6.2.4-1.2 1.9-2 4.6-2.5.8 0 2.2.3 4.2.8s4 1.2 5.9 1.9 5.1 2.5 9.6 5.4c4.5 2.9 8.2 5.8 11.1 8.8 2.9 3 3.9 5.9 3.2 8.7-.3.9-.9 2-1.6 3l-7 8.2c-1.3 1.6-2.5 3.3-3.6 5.2s-3.8 6.3-7.9 13.4l-14.8 25.1-10.5 19-7 11.2c3.1 2.7 5.4 4.7 6.8 6.1l6.3 7.5c3.8 4.5 6 7.7 6.7 9.6s1.1 4.5 1.1 7.7c-.2 2-.7 6.1-1.6 12.3-.9 6.2-1.5 10.8-1.8 13.8s-.4 7.3-.4 12.8l-.9 36.3-.9 48.3-.7 27.9c0 5.3.2 11.3.7 18 .5 6.7.6 11.5.5 14.3-.3 3.8-1.1 7.8-2.5 12.1-1.3 4.3-2.8 8-4.3 11-1.6 3-3.1 5.3-4.6 6.8-1.5 1.5-2.8 2.3-4 2.5-1.2.2-2.7-1.2-4.6-4-1.9-2.2-3.6-5.2-5.3-9-1.6-3.8-2.8-6.8-3.4-8.8-.6-2-1.4-5.1-2.3-9.1-.9-4.1-1.4-7-1.5-8.9-.1-1.9.7-5.5 2.5-11 1.4-5.2 2.5-10 3.2-14.6.7-4.6 1.5-12.1 2.3-22.5.9-10.4 1.4-18 1.5-22.9l1.6-81.3c.2-10.2-.2-18-.9-23.4l-2.3-16.9c-4.3 5.5-8.2 10.6-11.7 15.5zm169.4-52.6c6.2-1.2 18.1-3.5 35.5-7s30-6.2 37.7-8.1 14.1-3.5 19-4.9 9.5-2.8 13.7-4.3c4.2-1.5 7.3-2.4 9.1-2.7 2.8-.2 6.2.3 10.3 1.4 4.1 1.1 8 2.3 11.7 3.6 3.8 1.3 7.1 3 10.1 5.2 3 2.1 5 4.1 6.1 5.9 1.1 1.8 1.7 3.4 1.8 4.7.1 1.3-.6 2.5-2 3.6-1.3.9-3.4 1.4-6.4 1.3-3-.1-9 .4-17.9 1.3l-25.1 1.6c-7.3.6-18.3 2.2-32.8 4.8s-23 4.2-25.5 4.8l-20.9 5.2c3.1 2.2 5.8 4.3 8.1 6.3s3.6 4 3.9 6c.3 2-.2 5.1-1.4 9.5-1.1 3.4-1.7 7.7-1.9 12.9l-.7 18.5-.9 21.3c10-2.3 18.8-4.4 26.5-6.2 7.7-1.8 13.2-3.2 16.6-4.1 3.4-.9 7.5-2.1 12.1-3.5s7.9-2.3 9.7-2.6c2.3-.2 4.8 0 7.4.4 2.6.4 6 1.3 10.2 2.6 4.2 1.3 7.3 2.9 9.3 4.6 2 1.7 2.8 3.6 2.7 5.6-.3 2-1.1 3.4-2.3 4.2-1.3.8-2.9 1.4-5 2-2.1.5-6.6 1.4-13.5 2.5l-27 4.5c-8.9 1.4-15.5 2.5-19.8 3.4-4.3.9-7.2 1.3-8.8 1.3-4.8.5-8.5.2-11-.7l-6.6-1.9-.7 66.6c9.1-1.7 18.6-3.6 28.5-5.7 9.9-2.1 19-4.4 27.3-6.9l12.4-3.8c4.2-1.2 8.1-1.8 11.6-1.8 3.5.1 7.1.6 10.9 1.6 3.8 1 7.2 2.2 10.4 3.6s5.8 2.9 7.9 4.5c2 1.6 3.1 3 3.2 4.3.1 1.3-.5 2.7-1.8 4.1-1.6 1.6-4.8 2.7-9.6 3.5l-15.9 3.5c-1.4.3-10.2 1.6-26.2 3.8l-16.2 2.3c-5.3.8-11.4 1.3-18.3 1.6-7.5.5-12.3.5-14.3 0l-10.1-1.9-1.2 64.7c-.2 3.1-.4 8.5-.7 16.2-.3 7.7-.7 14.1-1.3 19.3-.5 5.2-1.8 9.6-3.9 13-2 3.4-3.9 5.3-5.6 5.5-1.7.2-3.8-.8-6.1-3.2-2.7-2.3-4.6-4.9-5.7-7.7s-3.2-8.4-6.1-16.9c-2.9-8.4-4.5-14.1-4.8-17.1-.3-3 .3-7.3 1.9-13.1l2.6-9.4c1.1-4.2 2-9.7 2.7-16.5s1.3-14.6 1.9-23.6c.5-8.9.8-18.7.8-29.3l-.2-67.3c-.2-11.2-.4-21.2-.8-29.9s-.9-16.2-1.6-22.5-1.4-10.8-2.2-13.5l-2.1-7c-4.8 1.1-8.9 1.6-12.3 1.5-3.4-.1-6.4-.7-9.3-2l-9.6-3.8c-3 4.8-5.9 9.7-8.9 14.6s-6.4 10.2-10.3 15.9c-3.9 5.7-9.2 12.4-15.8 20-6.6 7.7-13.5 14.6-20.5 21s-13 11.1-18 14.4l-4.2 2.8c-1.7 1.1-3 1.2-3.9.2-.9-.9-.6-2.3.8-4.2l4.9-6.6c1.1-1.6 5.3-7.3 12.7-17.3 7.3-10 13.2-18.4 17.5-25.1 4.3-6.7 10.2-17.1 17.7-31.3 7.5-14.1 13.1-25.1 16.8-32.9 3.7-7.8 8.1-18.4 13.4-31.6 5.2-13.3 8.6-22.7 10.1-28.4 1.5-5.6 2.6-10.6 3.3-14.9.7-4.3 1.2-8 1.5-11 .3-3 .4-6.2.4-9.4-.1-3.2.3-5.3 1.2-6.3.9-1 2.4-1.7 4.6-2 1.7-.2 3.6.2 5.7.9 2.1.8 4.7 2.1 7.9 4 3.1 1.9 6.4 4.3 9.7 7.1 3.4 2.9 5.7 5.5 7.1 7.9s2 4.4 1.9 6.1c-.2 1.6-1.4 3.9-3.9 7-2.4 3.1-4.7 6.6-6.9 10.4-2.2 3.8-4.3 8.1-6.3 12.8l-8 18.5c-3.6 8-7.2 15.3-10.8 22l-10.5 19.7c9.1-1.4 17.1-2.9 23.3-4zM580.1 273.5c2.9 2.9 4.5 5.4 4.5 7.4 0 .6-.7 1.3-2.1 2.1-1.6 1.3-3.4 5.6-5.4 12.9-3.6 10.4-7.1 19-10.5 25.5 7.4 5 15.8 11.8 25.5 20.6 4.1 3.9 6.1 7.9 6.1 12 0 5-.9 7.5-2.8 7.5-1.3 0-4.3-2.7-9.1-8.2-9.3-10.4-17.3-18.6-24-24.6-5.7 8.1-11 14.5-16.1 19.5-6 5.3-12.1 9.5-18.5 12.7-3.6 1.4-5.7 2.1-6.3 2.1h-.5c0-.6.5-1.3 1.4-1.9 10.3-8 18.3-15.7 23.9-23.2 3.2-4.2 6.3-9.1 9.6-14.9-9.5-8.1-18.8-15.1-27.7-21.1l-1.2-.9c0-.4.2-.5.8-.5 1.3 0 4.1.8 8.7 2.5 6 2.8 13.6 7.3 22.9 13.5l2.8-5.5c4.3-10.1 7.5-18.9 9.4-26.5 1.3-4.8 1.5-8.3.9-10.3-.6-1.4-.9-2.3-.9-2.8 0-.6.6-.8 1.9-.8 1.8-.2 4 .9 6.7 2.9z"/></g></svg>