<svg xmlns="http://www.w3.org/2000/svg" viewBox="0 0 760 640"><g fill="none" stroke-miterlimit="10"><g stroke="#CCC"><path d="M180 560V80M341 560V80M20.5 239.5h480M20.5 400.5h480"/></g><g stroke="#999" stroke-width="2"><path d="M20.5 80.1h720v480h-720z"/><path d="M20.5 80.1h480v480h-480zM620.5 560V80"/></g></g><path fill="none" stroke="#999" stroke-width="2" stroke-miterlimit="10" d="M20.5 601h330M410.5 601h330"/><path fill="#999" d="M19.5 593h2v16h-2zM739.5 593h2v16h-2z"/><path d="M361.2 596.4l-2.8 1.5-.4-1.6 3.4-1.8h1.8V610h-2v-13.6zM378.2 596.2h-6l-.6 4c.4 0 .7-.1 1.3-.1 1.2 0 2.4.3 3.4.8 1.2.7 2.2 2 2.2 4 0 3-2.4 5.3-5.8 5.3-1.7 0-3.1-.5-3.9-1l.5-1.6c.6.4 1.9.9 3.3.9 2 0 3.7-1.3 3.7-3.4 0-2-1.4-3.5-4.5-3.5-.9 0-1.6.1-2.2.2l1-7.5h7.5v1.9zM391.6 602c0 5.3-2 8.2-5.4 8.2-3 0-5.1-2.9-5.2-8 0-5.2 2.3-8.1 5.4-8.1 3.3 0 5.2 3 5.2 7.9zm-8.5.3c0 4.1 1.2 6.4 3.2 6.4 2.2 0 3.2-2.5 3.2-6.5 0-3.8-1-6.4-3.2-6.4-1.8 0-3.2 2.2-3.2 6.5zM403.9 602c0 5.3-2 8.2-5.4 8.2-3 0-5.1-2.9-5.2-8 0-5.2 2.3-8.1 5.4-8.1 3.4 0 5.2 3 5.2 7.9zm-8.4.3c0 4.1 1.2 6.4 3.2 6.4 2.2 0 3.2-2.5 3.2-6.5 0-3.8-1-6.4-3.2-6.4-1.9 0-3.2 2.2-3.2 6.5z"/><path fill="none" stroke="#999" stroke-width="2" stroke-miterlimit="10" d="M20.5 578h210M290.5 578h210"/><path fill="#999" d="M19.5 570h2v16h-2zM499.5 570h2v16h-2z"/><path d="M241.2 573.4l-2.8 1.5-.4-1.6 3.4-1.8h1.8V587h-2v-13.6zM259.3 579c0 5.3-2 8.2-5.4 8.2-3 0-5.1-2.9-5.2-8 0-5.2 2.3-8.1 5.4-8.1 3.3 0 5.2 3 5.2 7.9zm-8.5.3c0 4.1 1.2 6.4 3.2 6.4 2.2 0 3.2-2.5 3.2-6.5 0-3.8-1-6.4-3.2-6.4-1.8 0-3.2 2.2-3.2 6.5zM271.6 579c0 5.3-2 8.2-5.4 8.2-3 0-5.1-2.9-5.2-8 0-5.2 2.3-8.1 5.4-8.1 3.3 0 5.2 3 5.2 7.9zm-8.5.3c0 4.1 1.2 6.4 3.2 6.4 2.2 0 3.2-2.5 3.2-6.5 0-3.8-1-6.4-3.2-6.4-1.8 0-3.2 2.2-3.2 6.5zM283.9 579c0 5.3-2 8.2-5.4 8.2-3 0-5.1-2.9-5.2-8 0-5.2 2.3-8.1 5.4-8.1 3.4 0 5.2 3 5.2 7.9zm-8.4.3c0 4.1 1.2 6.4 3.2 6.4 2.2 0 3.2-2.5 3.2-6.5 0-3.8-1-6.4-3.2-6.4-1.9 0-3.2 2.2-3.2 6.5z"/><path fill="none" stroke="#999" stroke-width="2" stroke-miterlimit="10" d="M500.5 578h90M650.5 578h90"/><path fill="#999" d="M499.5 570h2v16h-2zM739.5 570h2v16h-2z"/><path d="M611.9 573.2h-6l-.6 4c.4 0 .7-.1 1.3-.1 1.2 0 2.4.3 3.4.8 1.2.7 2.2 2 2.2 4 0 3-2.4 5.3-5.8 5.3-1.7 0-3.1-.5-3.9-1l.5-1.6c.6.4 1.9.9 3.3.9 2 0 3.7-1.3 3.7-3.4 0-2-1.4-3.5-4.5-3.5-.9 0-1.6.1-2.2.2l1-7.5h7.5v1.9zM625.3 579c0 5.3-2 8.2-5.4 8.2-3 0-5.1-2.9-5.2-8 0-5.2 2.3-8.1 5.4-8.1 3.3 0 5.2 3 5.2 7.9zm-8.5.3c0 4.1 1.2 6.4 3.2 6.4 2.2 0 3.2-2.5 3.2-6.5 0-3.8-1-6.4-3.2-6.4-1.8 0-3.2 2.2-3.2 6.5zM637.6 579c0 5.3-2 8.2-5.4 8.2-3 0-5.1-2.9-5.2-8 0-5.2 2.3-8.1 5.4-8.1 3.3 0 5.2 3 5.2 7.9zm-8.5.3c0 4.1 1.2 6.4 3.2 6.4 2.2 0 3.2-2.5 3.2-6.5 0-3.8-1-6.4-3.2-6.4-1.8 0-3.2 2.2-3.2 6.5z"/><g><path d="M550.2 191.2c.2-.2.2-.2.4-.1 1.2.7 2.3 1.5 3.4 2.6.1.1.1.2-.1.4l-.5.7c-.2.2-.2.2-.4.1-1.1-1.1-2.2-2-3.3-2.7-.2-.1-.1-.2 0-.4l.5-.6zm1.9 13.8c-.2.5-.5.9-.5 1 0 .2-.1.3-.2.3s-.2 0-.3-.1c-.4-.3-.8-.6-1.1-.9.5-.5.9-1 1.4-2 .9-1.6 1.6-3.1 2.6-5.5.2.3.4.5.7.8.4.3.4.3.2.7-.9 2-1.8 3.8-2.8 5.7zm-.3-19.9c.2-.2.2-.2.4-.1 1.1.7 2.4 1.7 3.4 2.8.1.1.1.2-.1.4l-.5.6c-.2.2-.3.2-.4.1-1.1-1.1-2.1-2-3.3-2.8-.2-.1-.2-.2 0-.4l.5-.6zm19.9 20.4c0 .2 0 .2-.2.2h-16.3c-.2 0-.2 0-.2-.2v-1.1c0-.2 0-.2.2-.2.1 0 1 .1 3.5.1h3.7v-6.5H557.2c-.1 0-.2 0-.2-.2v-1.1c0-.2 0-.2.2-.2H562.4V191h-5.9c-.2 0-.2 0-.2-.2v-1.1c0-.2 0-.2.2-.2h14c.2 0 .2 0 .2.2v1.1c0 .2 0 .2-.2.2h-6.6v5.3h5.8c.2 0 .2 0 .2.2v1.1c0 .2 0 .2-.2.2h-5.8v6.5h4c2.5 0 3.4-.1 3.5-.1.2 0 .2 0 .2.2v1.1zM561 184.6c.2-.2.2-.2.4-.1 1.3.7 2.8 1.8 4 2.9.2.1.1.2-.1.4l-.5.6c-.2.2-.3.3-.5.1-1.2-1.2-2.6-2.2-4-3-.1-.1-.1-.1.1-.4l.6-.5zM571.6 218.9c0 .2 0 .2-.2.2h-21.7c-.2 0-.2 0-.2-.2v-1.1c0-.2 0-.2.2-.2h6.6c-.4-1.3-.8-2.1-1.3-3.2-.1-.1 0-.2.2-.3l.8-.2c.2-.1.3 0 .4.1.6 1 1.1 2.2 1.5 3.6h4.7c.5-1 .9-2 1.2-2.7.2-.4.2-.7.3-1.2.5.1 1.1.2 1.5.4.2.1.3.1.3.3 0 .1-.1.2-.2.3-.1.1-.2.3-.3.5-.3.8-.7 1.6-1.1 2.4h7.2c.2 0 .2 0 .2.2v1.1zm-1.7-5.9c0 .2 0 .2-.2.2h-18.5c-.2 0-.2 0-.2-.2v-1c0-.2 0-.2.2-.2s1 .1 3.5.1h4.9v-.1c0-1.3 0-1.9-.2-2.5.6 0 1.1 0 1.6.1.2 0 .3.1.3.2 0 .2 0 .3-.1.5s-.1.6-.1 1.7v.1h5.2c2.5 0 3.3-.1 3.5-.1.2 0 .2 0 .2.2v1zm-2.4 13.8v4.6c0 .2 0 .2-.2.2h-1.1c-.2 0-.2 0-.2-.2v-1.1h-10.9v1.2c0 .1 0 .2-.2.2h-1.1c-.2 0-.2 0-.2-.2v-7-3.1c0-.2 0-.2.2-.2h13.5c.2 0 .2 0 .2.2v5.4zm-1.5-4.3h-10.9v2.5H566v-2.5zm0 3.8h-10.9v2.7H566v-2.7zM560.3 237.9c0 .2 0 .2-.2.2h-3.7c.4.7.8 1.5 1.1 2.4 0 .2 0 .2-.2.3l-.8.2c-.3.1-.4.1-.4-.1-.3-.9-.7-2-1.2-2.8h-2c-.7 1-1.4 2-2.3 2.9-.1.2-.2.2-.3.2-.1 0-.2-.1-.4-.3-.2-.3-.5-.4-.8-.6 1.6-1.4 2.7-3.1 3.5-4.9.2-.5.3-.8.4-1.3.6.1 1.1.2 1.5.3.2.1.2.1.2.3s-.1.2-.2.3c-.1.1-.2.2-.4.6-.2.4-.3.7-.5 1h6.5c.2 0 .2 0 .2.2v1.1zm-7.2 11.6v-3.1c-.8 1-1.7 2-2.7 2.8-.2.1-.3.2-.3.2-.1 0-.2-.1-.3-.3-.2-.4-.4-.6-.7-.8 2.3-1.8 4-3.9 5.1-6 .3-.5.5-1 .6-1.4.5.2 1 .4 1.4.6.2.1.2.2.2.3 0 .1 0 .2-.2.3-.2.1-.4.3-.6.7-.3.5-.6 1.1-1 1.7v8.9c0 2.1.1 3 .1 3.1 0 .2 0 .2-.2.2h-1.2c-.2 0-.2 0-.2-.2v-7zm18.5-4c0 .2 0 .2-.2.2h-3.9v8.5c0 .9-.2 1.4-.8 1.8-.6.3-1.4.4-3.5.4-.5 0-.5 0-.6-.5-.1-.5-.3-.8-.5-1.2.8.1 1.4.1 2.2.1 1.4 0 1.6-.2 1.6-1v-8.3h-9.7c-.2 0-.2 0-.2-.2v-1.1c0-.2 0-.2.2-.2.1 0 .9.1 3.5.1h6.2v-.1c0-1.5 0-2.2-.2-3 .6 0 1.1.1 1.6.1.2 0 .3.1.3.2 0 .2-.1.3-.2.5-.1.3-.1.7-.1 2.2v.1h.4c2.5 0 3.3-.1 3.5-.1.2 0 .2 0 .2.2v1.3zm-12.6 2.1c.2-.1.2-.1.4 0 1.2 1.1 2.1 2.3 3 3.7.1.1 0 .2-.2.4l-.6.4c-.3.2-.4.2-.5 0-.8-1.4-1.8-2.7-2.9-3.8-.1-.1-.1-.2.1-.4l.7-.3zm12.4-9.7c0 .2 0 .2-.2.2h-4.9c.5.7.8 1.4 1.2 2.2.1.1 0 .2-.2.3l-.7.2c-.3.1-.4.1-.5-.1-.3-.9-.7-1.8-1.3-2.6h-2.1c-.5.9-1.1 1.8-1.8 2.7-.2.2-.2.3-.3.3-.1 0-.2-.1-.4-.2-.3-.2-.5-.4-.8-.5 1.5-1.6 2.3-3.1 3-4.9.1-.3.2-.7.3-1.2.5.1 1.1.2 1.4.3.2.1.3.1.3.2s-.1.2-.2.4c-.1.1-.2.2-.3.6-.2.3-.3.7-.4 1h7.9c.1 0 .2 0 .2.2v.9zM558.3 270.3c0 .2 0 .2-.2.2-.1 0-.7-.1-2.7-.1h-2c-.2.9-.5 1.8-.8 2.7h4.2c.2 0 .2 0 .2.2-.1.4-.1.9-.1 1.3-.2 2.6-.5 4.4-1 5.7-.3.8-1 1.2-2 1.2-.4 0-.8 0-1.2-.1-.4-.1-.4-.1-.5-.5-.1-.4-.2-.8-.3-1 .8.1 1.2.2 1.8.2.6 0 1-.2 1.2-.6.4-1.1.7-3 .8-5h-3.3l-.4 1c-.1.2-.1.2-.4.1l-.8-.2c-.3-.1-.3-.1-.2-.3.7-1.5 1.2-3.2 1.5-4.6-1.8 0-2.3.1-2.5.1-.2 0-.2 0-.2-.2v-1c0-.2 0-.2.2-.2H558.2c.2 0 .2 0 .2.2v.9zm-1-5.5v2c0 .2 0 .2-.2.2-.1 0-.6-.1-2.2-.1h-2c-1.5 0-2 .1-2.2.1-.2 0-.2 0-.2-.2v-4.2-2c0-.2 0-.2.2-.2h6.4c.2 0 .2 0 .2.2v4.2zm-1.4-3.1H552v4h3.9v-4zm14.1 2.5c.2 0 .3 0 .4-.1s.2-.1.3-.1c.2 0 .3.1.7.4.4.3.5.5.5.6s-.1.2-.2.3-.2.2-.3.6c-.3.6-.6 1.1-1.2 2-.1.2-.2.3-.3.3-.1 0-.2 0-.3-.1-.3-.2-.7-.3-.9-.3.6-.8 1-1.5 1.3-2.2h-9.4v2.8c0 2 0 4.3-.3 6.4-.3 2.1-.8 4.4-2.1 6.4-.1.2-.2.3-.3.3-.1 0-.2-.1-.4-.2-.3-.3-.6-.5-.8-.6 1.4-1.8 2-4 2.2-6.2.2-1.9.3-4 .3-6.1v-3.8c0-.2 0-.2.2-.2s1 .1 3.2.1h1.3V261c0-.8 0-1.4-.2-1.9.6 0 1 0 1.5.1.2 0 .3.1.3.2s-.1.2-.2.4-.1.6-.1 1.3v.1h4.4c.2 0 .2 0 .2.2v.8c0 .2 0 .2-.2.2-.1 0-.5-.1-1.9-.1h-2.5v1.8h4.8zm-5.5 10.3c-.1.2-.1.7-.1 1.2-.2 2.4-1 4.4-3.6 5.9-.2.1-.3.1-.3.1-.1 0-.2-.1-.4-.3-.2-.3-.5-.5-.8-.7 2.6-1.1 3.5-2.6 3.7-5.1v-2c.5 0 1 .1 1.3.1.2 0 .4.1.4.2 0 .3-.1.5-.2.6zm.3-4.2c0 .6.1.9.3 1 .2.1.9.2 1.7.2 1 0 1.7-.1 2.1-.4.3-.3.5-.9.5-2 .2.2.6.4.9.5.4.1.4.1.3.5-.1.9-.3 1.5-.8 1.9-.4.4-1.5.6-3 .6-1.3 0-2.2-.1-2.6-.3-.4-.2-.8-.5-.8-1.6v-1.2l-2.2.2c-.1 0-.2 0-.2-.1l-.1-.9c0-.1 0-.2.1-.2s.6 0 2.3-.2v-.3c0-.8-.1-1.5-.1-1.7.4 0 1 .1 1.4.1.1 0 .2.1.2.2s0 .1-.1.3c-.1.2-.1.4-.1 1.2v.3l1-.1c1.6-.2 2.1-.3 2.3-.3.1 0 .1 0 .2.1l.1.8c0 .1 0 .2-.2.2l-2.3.2-1.1.1v.9zm2.8 8.9c0 .5 0 .7.2.8.2.1.5.2 1.2.2.8 0 1.2-.1 1.4-.4.3-.4.4-1.1.4-2.6.2.2.5.3.9.4.4.2.4.2.4.6-.1 1.6-.3 2.2-.7 2.6-.4.4-.6.7-2.4.7-1 0-1.6 0-2.1-.3-.4-.2-.6-.6-.6-1.6v-3c0-1.3 0-2.1-.1-2.8.5 0 1 .1 1.5.1.2 0 .3.1.3.2 0 .2-.1.3-.2.4-.1.2-.1.5-.1 1.8v2.9zM567.9 292.5c.2 0 .4 0 .5-.1.1 0 .2-.1.3-.1.2 0 .3.1.7.5.3.4.4.5.4.7 0 .1-.1.2-.2.3-.2.1-.3.4-.5.9-1.1 2.7-2.5 5-4.4 6.9 2 1.5 4.5 2.7 7.4 3.7-.4.4-.5.6-.8 1-.1.3-.2.4-.3.4-.1 0-.2-.1-.4-.1-2.8-1.2-5.2-2.4-7.1-4-2 1.6-4.4 3-7.6 4-.5.1-.5.1-.7-.3-.2-.4-.6-.7-.9-.8 3.3-.9 5.9-2.2 8-3.8-2.6-2.5-4.3-5.5-5.4-9.6-.2 2.3-.5 3.8-.9 5.3-.8 2.9-2.4 6.1-5.4 8.8-.2.2-.3.2-.4.2-.1 0-.2-.1-.4-.3-.3-.4-.6-.5-1-.7 3-2.4 4.6-5.2 5.6-8.6.8-2.7 1-5.1 1.1-9.4h-4.7c-.2 0-.2 0-.2-.2v-1.1c0-.2 0-.2.2-.2h12.3c.4 0 .6 0 .7-.1.1 0 .2-.1.2-.1.2 0 .3.1.7.4.4.4.5.6.4.7 0 .1 0 .2-.2.4-.1.1-.4.2-.5.6-.3 1.3-.7 2.8-1.2 4.6h4.7zm-4.9 1.3c-.1.4-.2.7-.4 1.1-.1.2-.1.2-.9.1s-.8-.1-.7-.3c1.1-2.9 1.7-5.1 2.2-7.3h-6.1c.8 5.9 2.8 10.1 6.3 13.2 1.9-1.8 3.2-4 4.2-6.8H563zM558.3 313.2c0 .2 0 .2-.2.2-.1 0-.8-.1-3-.1h-.5v2.2h.2c1.9 0 2.5-.1 2.7-.1.2 0 .2 0 .2.2V323.5c0 .2 0 .2-.2.2-.1 0-.8-.1-2.7-.1h-.2v2.2h3.4c.2 0 .2 0 .2.2v.9c0 .2 0 .2-.2.2h-3.4v4.2c0 .2 0 .2-.2.2h-1c-.2 0-.2 0-.2-.2v-4.2h-3.8c-.2 0-.2 0-.2-.2v-.9c0-.2 0-.2.2-.2h3.8v-2.2h-.1c-1.9 0-2.6.1-2.7.1-.2 0-.2 0-.2-.2v-5.6-2.3c0-.2 0-.2.2-.2.1 0 .8.1 2.7.1h.1v-2.2h-.7c-2.1 0-2.9.1-3 .1-.2 0-.2 0-.2-.2v-.9c0-.2 0-.2.2-.2h3.7c0-1.4 0-2.1-.2-2.9.6 0 1 .1 1.5.1.2 0 .3.1.3.2s-.1.2-.1.4c-.1.2-.1.8-.1 2.1h3.5c.2 0 .2 0 .2.2v1zm-5 3.4h-1.8v2.5h1.8v-2.5zm0 3.6h-1.8v2.7h1.8v-2.7zm3.1-3.6h-1.9v2.5h1.9v-2.5zm0 3.6h-1.9v2.7h1.9v-2.7zm15.6 10.5c0 .2 0 .2-.2.2-.1 0-.9-.1-3.2-.1h-7.4c-2.3 0-3.1.1-3.3.1-.2 0-.2 0-.2-.2v-1c0-.2 0-.2.2-.2H564.1v-4.6h-5c-.2 0-.2 0-.2-.2v-1c0-.2 0-.2.2-.2H571c.2 0 .2 0 .2.2v1c0 .2 0 .2-.2.2h-5.5v4.6h6.2c.2 0 .2 0 .2.2v1zm-10.4-8.1c-.3.1-.3.2-.4 0-.8-1.8-1.5-3-2.5-4.4-.1-.1-.2-.2-.2-.3 0-.1 0-.2.2-.4.8-1 1.5-2.2 2.1-3.3.2-.3.3-.7.4-1.1.5.2.9.3 1.2.5.2.1.3.2.3.3 0 .1-.2.2-.3.3-.2.2-.4.5-.6.9-.5.9-1.1 1.7-1.8 2.7.9 1.2 1.7 2.4 2.5 4.1.1.2.1.3-.1.4l-.8.3zm10-10.6c0 .2 0 .2-.2.2H559c-.2 0-.2 0-.2-.2v-1c0-.2 0-.2.2-.2.1 0 .9.1 3.1.1h6.1c2.3 0 3.1-.1 3.2-.1.2 0 .2 0 .2.2v1zm-5.5 10.5c-.3.2-.3.2-.4 0-.8-1.7-1.8-3.2-2.8-4.3-.1-.2-.2-.2-.2-.3 0-.1.1-.2.2-.4.9-1.1 1.5-2.1 2.1-3.3.2-.3.3-.8.4-1.2.5.2.9.3 1.2.5.2.1.3.2.3.3 0 .1-.2.2-.3.4-.2.1-.4.5-.6.9-.5.8-1.1 1.7-1.8 2.7 1 1.2 1.8 2.4 2.8 4 .1.2 0 .2-.2.3l-.7.4zm4.4.1c-.2.1-.3.2-.4 0-.8-1.7-2-3.3-3.1-4.5-.1-.2-.2-.2-.2-.4 0-.1 0-.2.2-.4.8-1 1.5-2.1 2.1-3.3.1-.3.3-.8.4-1.2.5.2.9.3 1.2.5.2.1.3.2.3.3 0 .1-.1.2-.3.4-.1.1-.3.4-.5.8-.5.9-1.1 1.8-1.8 2.8 1 1.2 2.1 2.6 3 4.2.1.2 0 .2-.2.4l-.7.4zM559.9 342.8v1.2c0 .2 0 .2-.2.2H552.1c-.2 1.1-.7 2.1-1.6 3-.2.2-.2.2-.3.2-.1 0-.2 0-.3-.2-.2-.2-.5-.4-.8-.5 1.6-1.4 2-3 2-5.3v-.9c0-.2 0-.2.2-.2h8.5c.2 0 .2 0 .2.2v2.3zm7 10.9c1.5-.1 3.1-.2 4.7-.3-.1.2-.1.4-.1.6-.1.5-.1.5-.6.6-1 .1-2.4.2-3.9.3 0 1.2.1 1.8.1 1.9 0 .2 0 .2-.2.2h-1.1c-.2 0-.2 0-.2-.2 0-.1 0-.6.1-1.8-1.8.1-3.7.2-5.5.2-3.6.1-6 .2-8.9.2-.5 0-.9 0-1.1.1-.2.1-.2.1-.3.1-.1 0-.2-.1-.2-.3-.1-.4-.2-.8-.3-1.3.7 0 1.4.1 2.7.1h2.1v-5.8h-2.9c-.2 0-.2 0-.2-.2v-.8c0-.2 0-.2.2-.2h19.3c.2 0 .2 0 .2.2v.8c0 .2 0 .2-.2.2H567v5.4zm-6-17c0 .2 0 .2-.2.2H556v1.4H559.8c.2 0 .2 0 .2.2v.7c0 .2 0 .2-.2.2H550.9c-.2 0-.2 0-.2-.2v-.7c0-.2 0-.2.2-.2h3.7v-1.4h-4.7c-.2 0-.2 0-.2-.2v-.8c0-.1 0-.2.2-.2.1 0 .8.1 3.1.1h1.8v-.1c0-.5 0-1.1-.2-1.6.6 0 1 .1 1.4.1.2 0 .3.1.3.2s0 .2-.1.3c-.1.2-.1.4-.1 1v.1h1.6c2.2 0 2.9-.1 3-.1.2 0 .2 0 .2.2v.8zm-5.9 4.7h-2.6v.1c0 .6 0 1.2-.1 1.7h2.7v-1.8zm10.5 6.9h-10v1.2h10v-1.2zm0 2.1h-10v1.2h10v-1.2zm0 2.2h-10v1.5h2.7c2.4 0 4.9-.1 7.3-.2v-1.3zm-6.7-11.2h-2.6v1.8h2.6v-1.8zm9.3-1.1c.2 0 .3 0 .4-.1h.2c.1 0 .2 0 .6.3.4.3.5.5.5.6s0 .2-.2.3c-.2.1-.4.3-.7.7-.6.8-1.3 1.4-2.1 2 1.5.7 3.2 1.1 5.1 1.3-.2.2-.3.4-.4.7-.2.5-.2.5-.7.4-1.9-.3-3.7-.9-5.2-1.8-1.4.8-3 1.3-5 1.7-.4.1-.5.1-.7-.3-.2-.3-.3-.5-.5-.7 1.9-.3 3.6-.8 5-1.5-1-.8-1.8-1.7-2.4-2.7h-1.1c-.2 0-.2 0-.2-.2v-.7c0-.2 0-.2.2-.2h7.2zm-.2-3c0 .3 0 .5.2.6.2.1.5.2 1 .2.6 0 .9-.1 1.1-.4.2-.2.2-.6.2-1.5.2.2.5.3.8.5.4.1.4.2.3.6-.1.9-.4 1.2-.6 1.5-.3.3-1 .5-2 .5-.8 0-1.4-.1-1.7-.2-.5-.2-.7-.5-.7-1.3V336h-3c0 2-.5 3-2 3.7-.4.2-.4.2-.7-.2-.2-.3-.4-.5-.6-.6 1.7-.5 2-1.2 2-2.9v-.9c0-.2 0-.2.2-.2s.5.1 1.8.1h1.6c1.3 0 1.7-.1 1.8-.1.2 0 .2 0 .2.2v2.2zm-4.6 4c.6.8 1.4 1.5 2.3 2.1 1-.6 1.8-1.3 2.4-2.1h-4.7zM557.3 365.1c0 .2 0 .2-.2.2h-7.4c-.2 0-.2 0-.2-.2v-1c0-.2 0-.2.2-.2h7.4c.2 0 .2 0 .2.2v1zm-.7-3.4c0 .2 0 .2-.2.2h-5.9c-.2 0-.2 0-.2-.2v-1c0-.2 0-.2.2-.2.1 0 .6.1 2.1.1h1.7c1.5 0 2-.1 2.1-.1.2 0 .2 0 .2.2v1zm-.1 16.3v1.9c0 .2 0 .2-.2.2h-4.5v1.4c0 .2 0 .2-.2.2h-1c-.2 0-.2 0-.2-.2v-5-2.3c0-.2 0-.2.2-.2.1 0 .7.1 2.1.1h1.5c1.4 0 1.9-.1 2-.1.2 0 .2 0 .2.2v3.8zm-.2-9.6c0 .2 0 .2-.2.2h-5.3c-.2 0-.2 0-.2-.2v-1c0-.2 0-.2.2-.2h5.3c.2 0 .2 0 .2.2v1zm0 3.4c0 .1 0 .2-.2.2h-5.3c-.2 0-.2 0-.2-.2v-1c0-.2 0-.2.2-.2.1 0 .5.1 1.9.1h1.5c1.4 0 1.7-.1 1.9-.1.2 0 .2 0 .2.2v1zm-1.2 3.4h-3.3v3.6h3.3v-3.6zm15.6.4v3.6c0 .8-.2 1.2-.7 1.7-.3.3-.8.5-2.9.4-.4 0-.4 0-.5-.4-.1-.5-.3-.9-.5-1.2.8.1 1.4.1 2.3.1.6 0 .8-.3.8-1.1v-17.1h-9.4v5c0 6.6-.4 11.3-2.1 14.5-.1.2-.2.3-.3.3-.1 0-.2-.1-.3-.2-.2-.2-.5-.5-.8-.6 2-3 2.1-8.1 2.1-14.2v-2.8-3.3c0-.2 0-.2.2-.2H570.5c.2 0 .2 0 .2.2v15.3zm-2.1-5.9c0 .2 0 .2-.2.2s-.7-.1-2.4-.1h-2.9c-1.5 0-2.1.1-2.3.1-.2 0-.2 0-.2-.2v-.8c0-.2 0-.2.2-.2h3v-2.6h-.4c-1.4 0-1.9.1-2.1.1-.2 0-.2 0-.2-.2v-.8c0-.2 0-.2.2-.2h2.5v-.4c0-1 0-1.5-.2-2.2.5 0 1 .1 1.4.2.2 0 .3.1.3.2s0 .2-.1.4-.1.5-.1 1.4v.4H567.9c.2 0 .2 0 .2.2v.8c0 .2 0 .2-.2.2-.1 0-.6-.1-2.2-.1h-.6v2.6h3.3c.1 0 .2 0 .2.2v.8zm-1.2 5.3v3.1c0 .2 0 .2-.2.2h-.9c-.2 0-.2 0-.2-.2v-.9h-3.5v1.2c0 .2 0 .2-.2.2h-.9c-.2 0-.2 0-.2-.2v-4.6-1.9c0-.2 0-.2.2-.2h5.6c.2 0 .2 0 .2.2v3.1zm-1.2-2.1h-3.5v3.1h3.5v-3.1zM558.3 395.3c0 .2 0 .2-.2.2h-4.7c-.2.8-.5 1.8-.8 2.7h4.2c.2 0 .2 0 .2.2-.1.4-.1.9-.1 1.3-.2 2.6-.5 4.4-1 5.7-.3.8-1 1.2-2 1.2-.4 0-.8 0-1.2-.1-.4 0-.4-.1-.5-.5-.1-.4-.2-.8-.3-1 .8.2 1.2.2 1.8.2.6 0 1-.2 1.2-.7.4-1.1.7-3 .8-5h-3.3l-.4 1c-.1.2-.1.2-.4.1l-.8-.1c-.3-.1-.3-.2-.2-.3.7-1.5 1.2-3.2 1.5-4.6h-2.5c-.2 0-.2 0-.2-.2v-1c0-.2 0-.2.2-.2H558.2c.2 0 .2 0 .2.2v.9zm-1-5.5v2c0 .2 0 .2-.2.2h-6.4c-.2 0-.2 0-.2-.2v-4.2-2c0-.2 0-.2.2-.2s.7.1 2.2.1h2c1.6 0 2-.1 2.2-.1.2 0 .2 0 .2.2v4.2zm-1.4-3.1H552v4h3.9v-4zm14.1 2.5c.2 0 .3 0 .4-.1.1-.1.2-.1.3-.1.2 0 .3.1.7.4s.5.4.5.6-.1.2-.2.3c-.1.1-.2.2-.3.6-.3.5-.6 1.1-1.2 2-.1.2-.2.3-.3.3-.1 0-.2 0-.3-.1-.3-.2-.7-.3-.9-.4.6-.8 1-1.5 1.3-2.2h-9.4v2.8c0 2 0 4.3-.3 6.4-.3 2.2-.8 4.4-2.1 6.4-.1.2-.2.3-.3.3-.1 0-.2-.1-.4-.2-.3-.3-.6-.5-.8-.6 1.4-1.8 2-4 2.2-6.2.2-1.9.3-4 .3-6.1v-3.8c0-.2 0-.2.2-.2h4.5V386c0-.7 0-1.4-.2-1.9.6 0 1 0 1.5.1.2 0 .3.1.3.2s-.1.2-.2.3c-.1.2-.1.6-.1 1.3v.1h4.4c.2 0 .2 0 .2.2v.8c0 .2 0 .2-.2.2h-4.4v1.8h4.8zm-5.5 10.3c-.1.2-.1.7-.1 1.2-.2 2.4-1 4.4-3.6 5.9-.2.1-.3.1-.3.1-.1 0-.2-.1-.4-.3-.2-.3-.5-.5-.8-.7 2.6-1.1 3.5-2.6 3.7-5.1v-2c.5 0 1 .1 1.3.2.2 0 .4.1.4.2 0 .2-.1.4-.2.5zm.3-4.2c0 .6.1.9.3 1 .2.1.9.2 1.7.2 1 0 1.7-.1 2.1-.4.3-.3.5-.9.5-2 .2.2.6.4.9.5.4.2.4.2.3.5-.1 1-.3 1.5-.8 1.9-.4.4-1.5.6-3 .6-1.3 0-2.2-.1-2.6-.3-.4-.2-.8-.5-.8-1.6v-1.2l-2.2.2c-.1 0-.2 0-.2-.1l-.1-.9c0-.2 0-.2.1-.2s.6 0 2.3-.2v-.3c0-.8-.1-1.5-.1-1.7.4 0 1 .1 1.4.1.1 0 .2.1.2.2s0 .2-.1.3c-.1.1-.1.4-.1 1.2v.3l1-.1c1.6-.2 2.1-.3 2.3-.3.1 0 .1 0 .2.2l.1.8c0 .2 0 .2-.2.2l-2.3.2-1.1.1v.8zm2.8 8.9c0 .5 0 .7.2.8.2.2.5.2 1.2.2.8 0 1.2-.1 1.4-.5.3-.4.4-1.1.4-2.6.2.2.5.3.9.4.4.2.4.2.4.6-.1 1.6-.3 2.2-.7 2.6-.4.4-.6.7-2.4.7-1 0-1.6 0-2.1-.3-.4-.2-.6-.6-.6-1.6v-3c0-1.3 0-2.1-.1-2.8.5 0 1 .1 1.5.2.2 0 .3.1.3.2 0 .2-.1.3-.2.5s-.1.5-.1 1.8v2.8zM552.1 421.3v-3.6c-.7 1.1-1.5 2.2-2.3 3.2-.1.2-.2.2-.3.2-.1 0-.1-.1-.2-.3-.2-.4-.4-.8-.6-1 2.4-2.8 4-5.6 5.1-8.8.2-.7.4-1.3.4-1.8.6.2 1 .3 1.5.5.2.1.3.2.3.3 0 .2-.1.2-.2.3-.2.1-.3.4-.5.9-.5 1.2-1 2.5-1.7 3.7v16.4c0 .2 0 .2-.2.2h-1.2c-.2 0-.2 0-.2-.2 0-.1.1-1.2.1-3.9v-6.1zm19.7 8.9c0 .2 0 .2-.2.2h-16c-.2 0-.2 0-.2-.2v-1.1c0-.2 0-.2.2-.2h8.5c1-2.9 1.9-6 2.4-8.4.2-1.1.3-1.8.4-2.6.6.1 1.2.3 1.7.5.2.1.3.1.3.3s-.1.2-.2.4c-.2.2-.3.5-.4 1.1-.8 3.1-1.6 6-2.6 8.7h6c.2 0 .2 0 .2.2v1.1zm-.7-14.2c0 .2 0 .2-.2.2-.1 0-1-.1-3.5-.1h-7.6c-2.5 0-3.3.1-3.4.1-.2 0-.2 0-.2-.2v-1.1c0-.2 0-.2.2-.2h6v-2.4c0-1.2 0-1.9-.2-2.5.7 0 1.2.1 1.7.2.2 0 .3.1.3.2s0 .2-.1.4c-.1.3-.2.6-.2 1.6v2.6h7c.2 0 .2 0 .2.2v1zm-12.3 2.2c.2-.1.3-.1.4.1 1 2.8 1.5 5.1 2.2 8.3 0 .2 0 .3-.2.4l-.8.3c-.3.2-.4.1-.5-.2-.6-3.3-1.1-5.6-2.1-8.4 0-.2 0-.2.3-.3l.7-.2zM571.1 442.3c0 .2 0 .2-.2.2h-9.8c-.2.6-.3 1.1-.5 1.6h7.3c.2 0 .2 0 .2.2v8.6c0 .2 0 .2-.2.2h-12c-.2 0-.2 0-.2-.2V446.7v-2.4c0-.2 0-.2.2-.2h3.2c.2-.5.3-1.1.5-1.6H550.2c-.2 0-.2 0-.2-.2v-1c0-.2 0-.2.2-.2h9.7l.3-1.5h-9.5c-.2 0-.2 0-.2-.2V437v-1.5c0-.2 0-.2.2-.2s1 .1 3.5.1h12.4c2.5 0 3.3-.1 3.5-.1.2 0 .2 0 .2.2 0 .1-.1.4-.1 1.5v1.1c0 1.1.1 1.4.1 1.5 0 .1 0 .2-.2.2h-8.5c-.1.5-.2 1-.4 1.5h9.5c.2 0 .2 0 .2.2v.8zm.4 13.2c0 .2 0 .2-.2.2h-18.4v1c0 .2 0 .2-.2.2h-1.1c-.2 0-.2 0-.2-.2V447.6c0-1.3 0-2-.2-2.7.6 0 1.1 0 1.6.1.2 0 .3.1.3.2 0 .2-.1.3-.2.5s-.1.7-.1 1.8v6.9h18.4c.2 0 .2 0 .2.2v.9zm-14.8-19.1h-4.6v2.2h4.6v-2.2zm10 8.8h-9.5v1.5h9.5v-1.5zm0 2.6h-9.5v1.5h9.5v-1.5zm0 2.5h-9.5v1.6h9.5v-1.6zm-4-13.9H558v2.2h4.7v-2.2zm6.2 0h-4.8v2.2h4.8v-2.2z"/></g><g><path d="M696.4 228.2c0 .2 0 .2-.2.2-.1 0-.9-.1-3.3-.1h-6.8v8.6c0 .2 0 .2-.2.2h-1.3c-.2 0-.2 0-.2-.2v-8.6H678c-2.3 0-3.1.1-3.2.1-.2 0-.2 0-.2-.2V227c0-.2 0-.2.2-.2h9.8v-9.1H676c-.2 0-.2 0-.2-.2v-1.1c0-.2 0-.2.2-.2.1 0 1 .1 3.4.1h12.4c2.5 0 3.3-.1 3.4-.1.2 0 .2 0 .2.2v1.1c0 .2 0 .2-.2.2h-9v9.1h10.1c.2 0 .2 0 .2.2v1.2zm-18.1-9c.2-.1.2-.1.3.1 1.2 1.7 2.2 3.5 2.9 5.5 0 .1 0 .2-.2.3l-.8.4c-.3.1-.4.1-.5-.1-.7-1.9-1.5-3.6-2.7-5.4-.1-.1-.1-.2.2-.4l.8-.4zm15.3.9c-.2.1-.3.3-.5.7-.8 1.5-1.6 3-2.7 4.5-.2.2-.2.3-.3.3-.1 0-.2-.1-.4-.2-.3-.2-.5-.3-.9-.4 1.2-1.6 2.2-3.2 2.9-4.9.1-.3.3-.8.4-1.2.5.2 1.1.4 1.5.6.1.1.2.1.2.3 0 .1-.1.2-.2.3zM696.2 260.6c0 .2 0 .2-.2.2-.1 0-.9-.1-3.3-.1h-14.4c-2.4 0-3.2.1-3.3.1-.2 0-.2 0-.2-.2v-1.3c0-.2 0-.2.2-.2H683.9v-15.3c0-1.9 0-2.7-.2-3.6.6 0 1.3.1 1.8.1.2 0 .3.1.3.2 0 .2 0 .3-.1.5-.1.3-.2.9-.2 2.4v4.7h5c2.4 0 3.2-.1 3.3-.1.2 0 .2 0 .2.2v1.3c0 .2 0 .2-.2.2h-8.3v9.3H695.9c.2 0 .2 0 .2.2v1.4zM696.3 277.1c0 .2 0 .2-.2.2H685c-1 2.7-2.1 5-3.3 7.1 3.4-.4 6.9-.8 9.6-1.2-.8-1-1.6-2-2.5-2.9-.2-.1-.2-.2.1-.4l.7-.4c.2-.1.3-.1.4 0 2.1 2 3.6 4.1 5.1 6.3.1.1.1.2-.2.4l-.7.4c-.3.2-.4.2-.5.1-.4-.8-.9-1.5-1.4-2.3-4.2.7-9.1 1.4-13.1 1.8-1.3.1-1.7.2-1.9.3-.1.1-.2.1-.3.1-.1 0-.2-.1-.3-.3-.1-.5-.3-1-.4-1.6h2.5l1.2-.1c1.3-2.3 2.4-4.6 3.4-7.3h-8.3c-.2 0-.2 0-.2-.2V276c0-.2 0-.2.2-.2h9.7v-4.6h-7.3c-.2 0-.2 0-.2-.2v-1c0-.2 0-.2.2-.2h7.3v-1.6c0-1.7 0-2.3-.2-3.2.7 0 1.2 0 1.7.1.2 0 .3.1.3.2s0 .2-.1.4c-.1.3-.1.9-.1 2.3v1.7h7.7c.2 0 .2 0 .2.2v1.1c0 .2 0 .2-.2.2h-7.7v4.6h10c.2 0 .2 0 .2.2v1.1zM684 291.6h2.3c.2 0 .2 0 .2.2 0 .6 0 1.6.2 3 .8 6.6 3.9 11.8 9.9 15.5-.3.2-.6.6-.9 1-.2.2-.2.4-.3.4-.1 0-.2-.1-.4-.2-5.1-3.5-8.1-8.1-9.2-14.4-.9 6.1-4.5 11.3-9.6 14.4-.2.1-.3.2-.4.2-.1 0-.2-.1-.4-.4-.2-.3-.6-.6-.9-.8 6.4-3.2 10.1-9.6 10.4-17.4h-5.8c-.2 0-.2 0-.2-.2v-1.2c0-.2 0-.2.2-.2h4.9zM684.9 323.3v1.2c0 .2 0 .2-.2.2H677.1c-.2 1.1-.7 2.1-1.6 3-.2.2-.2.2-.3.2-.1 0-.2 0-.3-.2-.2-.2-.5-.4-.8-.5 1.6-1.4 2-3 2-5.3v-.9c0-.2 0-.2.2-.2.1 0 .8.1 2.7.1h3.1c1.9 0 2.5-.1 2.7-.1.2 0 .2 0 .2.2v2.3zm7 10.9c1.5-.1 3.1-.2 4.7-.3-.1.2-.1.4-.1.6-.1.5-.1.5-.6.6-1 .1-2.4.2-3.9.3 0 1.2.1 1.8.1 1.9 0 .2 0 .2-.2.2h-1.1c-.2 0-.2 0-.2-.2 0-.1 0-.6.1-1.8-1.8.1-3.7.2-5.5.2-3.6.1-6 .2-8.9.2-.5 0-.9 0-1.1.1-.2.1-.2.1-.3.1-.1 0-.2-.1-.2-.3-.1-.4-.2-.8-.3-1.3.7 0 1.4.1 2.7.1h2.1v-5.8h-2.9c-.2 0-.2 0-.2-.2v-.8c0-.2 0-.2.2-.2h19.3c.2 0 .2 0 .2.2v.8c0 .2 0 .2-.2.2H692v5.4zm-6-17c0 .2 0 .2-.2.2H681v1.4H684.8c.2 0 .2 0 .2.2v.7c0 .2 0 .2-.2.2H675.9c-.2 0-.2 0-.2-.2v-.7c0-.2 0-.2.2-.2h3.7v-1.4h-4.7c-.2 0-.2 0-.2-.2v-.8c0-.1 0-.1.2-.1h4.9v-.1c0-.5 0-1.1-.2-1.6.6 0 1 .1 1.4.1.2 0 .3.1.3.2s0 .1-.1.3c-.1.2-.1.4-.1 1h4.6c.2 0 .2 0 .2.2v.8zm-5.9 4.7h-2.6v.1c0 .6 0 1.2-.1 1.7h2.7v-1.8zm10.5 6.9h-10v1.2h10v-1.2zm0 2.1h-10v1.2h10v-1.2zm0 2.2h-10v1.5h2.7c2.4 0 4.9-.1 7.3-.2v-1.3zm-6.7-11.2h-2.6v1.8h2.6v-1.8zm9.3-1.1c.2 0 .3 0 .4-.1h.2c.1 0 .2 0 .6.3.4.3.5.5.5.6s0 .2-.2.3c-.2.1-.4.3-.7.7-.6.8-1.3 1.4-2.1 2 1.5.7 3.2 1.1 5.1 1.3-.2.2-.3.4-.4.7-.2.5-.2.5-.7.4-1.9-.3-3.7-.9-5.2-1.8-1.4.8-3 1.3-5 1.7-.4.1-.5.1-.7-.3-.2-.3-.3-.5-.5-.7 1.9-.3 3.6-.8 5-1.5-1-.8-1.8-1.7-2.4-2.7h-1.1c-.2 0-.2 0-.2-.2v-.7c0-.2 0-.2.2-.2.1 0 .7.1 2.7.1h4.5zm-.2-3c0 .3 0 .5.2.6.2.1.5.2 1 .2.6 0 .9-.1 1.1-.4.2-.2.2-.6.2-1.5.2.2.5.4.8.5.4.1.4.2.3.6-.1.9-.4 1.2-.6 1.5-.3.3-1 .5-2 .5-.8 0-1.4 0-1.7-.2-.5-.2-.7-.5-.7-1.3v-1.6h-3c0 2-.5 3-2 3.7-.4.1-.4.1-.7-.2-.2-.3-.4-.5-.6-.6 1.7-.5 2-1.2 2-2.9v-.9c0-.2 0-.2.2-.2h5.2c.2 0 .2 0 .2.2v2zm-4.6 4c.6.8 1.4 1.5 2.3 2.1 1-.6 1.8-1.3 2.4-2.1h-4.7zM682.3 345.6c0 .2 0 .2-.2.2h-7.4c-.2 0-.2 0-.2-.2v-1c0-.2 0-.2.2-.2.1 0 .6.1 2.5.1h2.4c1.8 0 2.4-.1 2.5-.1.2 0 .2 0 .2.2v1zm-.7-3.4c0 .2 0 .2-.2.2-.1 0-.6-.1-2.1-.1h-1.7c-1.5 0-2 .1-2.1.1-.2 0-.2 0-.2-.2v-1c0-.2 0-.2.2-.2h5.9c.2 0 .2 0 .2.2v1zm-.1 16.3v1.9c0 .2 0 .2-.2.2h-4.5v1.4c0 .2 0 .2-.2.2h-1c-.2 0-.2 0-.2-.2v-5-2.3c0-.2 0-.2.2-.2h5.6c.2 0 .2 0 .2.2v3.8zm-.2-9.6c0 .2 0 .2-.2.2h-5.3c-.2 0-.2 0-.2-.2v-1c0-.2 0-.2.2-.2.1 0 .5.1 1.9.1h1.5c1.4 0 1.7-.1 1.9-.1.2 0 .2 0 .2.2v1zm0 3.4c0 .2 0 .2-.2.2-.1 0-.5-.1-1.9-.1h-1.5c-1.4 0-1.8.1-1.9.1-.2 0-.2 0-.2-.2v-1c0-.2 0-.2.2-.2h5.3c.2 0 .2 0 .2.2v1zm-1.2 3.4h-3.3v3.6h3.3v-3.6zm15.6.4v3.6c0 .8-.2 1.2-.7 1.7-.3.3-.8.5-2.9.4-.4 0-.4 0-.5-.4-.1-.4-.3-.9-.5-1.2.8.1 1.4.1 2.3.1.6 0 .8-.3.8-1.1v-17.1h-9.4v5c0 6.6-.4 11.3-2.1 14.5-.1.2-.2.3-.3.3-.1 0-.2-.1-.3-.2-.2-.2-.5-.4-.8-.6 2-3 2.1-8.1 2.1-14.2v-2.8-3.3c0-.2 0-.2.2-.2.1 0 .9.1 3.2.1h5.4c2.3 0 3.1-.1 3.3-.1.2 0 .2 0 .2.2v15.3zm-2.1-5.9c0 .2 0 .2-.2.2h-7.6c-.2 0-.2 0-.2-.2v-.8c0-.2 0-.2.2-.2h3v-2.6h-2.5c-.2 0-.2 0-.2-.2v-.8c0-.2 0-.2.2-.2h2.5v-.3c0-1 0-1.5-.2-2.2.5 0 1 .1 1.4.1.2 0 .3.1.3.2s0 .2-.1.4-.1.5-.1 1.4v.4H692.9c.2 0 .2 0 .2.2v.8c0 .2 0 .2-.2.2H690.1v2.6h3.3c.1 0 .2 0 .2.2v.8zm-1.2 5.3v3.1c0 .2 0 .2-.2.2h-.9c-.2 0-.2 0-.2-.2v-.9h-3.5v1.2c0 .2 0 .2-.2.2h-.9c-.2 0-.2 0-.2-.2v-4.6-1.9c0-.2 0-.2.2-.2.1 0 .6.1 2 .1h1.6c1.4 0 1.8-.1 2-.1.2 0 .2 0 .2.2v3.1zm-1.2-2.1h-3.5v3.1h3.5v-3.1zM683.3 375.8c0 .2 0 .2-.2.2-.1 0-.7-.1-2.7-.1h-2c-.2.9-.5 1.8-.8 2.7h4.2c.2 0 .2 0 .2.2-.1.4-.1.9-.1 1.3-.2 2.6-.5 4.4-1 5.7-.3.8-1 1.2-2 1.2-.4 0-.8 0-1.2-.1-.4 0-.4-.1-.5-.5-.1-.4-.2-.8-.3-1 .8.2 1.2.2 1.8.2.6 0 1-.2 1.2-.6.4-1.1.7-3 .8-5h-3.3l-.4 1c-.1.2-.1.2-.4.1l-.8-.2c-.3-.1-.3-.2-.2-.3.7-1.5 1.2-3.2 1.5-4.6-1.8 0-2.3.1-2.5.1-.2 0-.2 0-.2-.2v-1c0-.2 0-.2.2-.2H683.2c.2 0 .2 0 .2.2v.9zm-1-5.5v2c0 .2 0 .2-.2.2h-6.4c-.2 0-.2 0-.2-.2v-4.2-2c0-.2 0-.2.2-.2h6.4c.2 0 .2 0 .2.2v4.2zm-1.4-3.1H677v4h3.9v-4zm14.1 2.5c.2 0 .3 0 .4-.1s.2-.1.3-.1c.2 0 .3.1.7.4.4.3.5.5.5.6s-.1.2-.2.3-.2.2-.3.6c-.3.6-.6 1.2-1.2 2-.1.2-.2.3-.3.3-.1 0-.2-.1-.3-.2-.3-.2-.7-.3-.9-.3.6-.8 1-1.5 1.3-2.2h-9.4v2.8c0 2 0 4.3-.3 6.4-.3 2.1-.8 4.4-2.1 6.4-.1.2-.2.3-.3.3-.1 0-.2-.1-.4-.2-.3-.3-.6-.5-.8-.6 1.4-1.8 2-4 2.2-6.2.2-1.9.3-4 .3-6.1V370c0-.2 0-.2.2-.2s1 .1 3.2.1h1.3v-3.2c0-.8 0-1.4-.2-1.9.6 0 1 .1 1.5.1.2 0 .3.1.3.2s-.1.2-.2.4-.1.6-.1 1.3v.1h4.4c.2 0 .2 0 .2.2v.8c0 .2 0 .2-.2.2h-4.4v1.8h4.8zm-5.5 10.3c-.1.2-.1.7-.1 1.2-.2 2.5-1 4.4-3.6 5.9-.2.1-.3.1-.3.1-.1 0-.2-.1-.4-.3-.2-.3-.5-.5-.8-.7 2.6-1.1 3.5-2.6 3.7-5.1V379c.5 0 1 .1 1.3.2.2 0 .4.1.4.2 0 .3-.1.5-.2.6zm.3-4.2c0 .6.1.9.3 1 .2.1.9.2 1.7.2 1 0 1.7-.1 2.1-.4.3-.3.5-.9.5-2 .2.2.6.4.9.5.4.1.4.1.3.5-.1.9-.3 1.5-.8 1.9-.4.4-1.5.6-3 .6-1.3 0-2.2-.1-2.6-.3-.4-.2-.8-.5-.8-1.6V375l-2.2.2c-.1 0-.2 0-.2-.1l-.1-.9c0-.2 0-.2.1-.2s.6 0 2.3-.2v-.5c0-.8-.1-1.5-.1-1.7.4 0 1 .1 1.4.1.1 0 .2.1.2.2s0 .1-.1.3c-.1.2-.1.4-.1 1.2v.3l1-.1c1.6-.2 2.1-.3 2.3-.3.1 0 .1 0 .2.1l.1.8c0 .2 0 .2-.2.2l-2.3.2-1.1.1v1.1zm2.8 8.9c0 .5 0 .7.2.8.2.1.5.2 1.2.2.8 0 1.2-.1 1.4-.4.3-.4.4-1.1.4-2.6.2.2.5.3.9.5s.4.2.4.6c-.1 1.6-.3 2.2-.7 2.6-.4.4-.6.7-2.4.7-1 0-1.6 0-2.1-.3-.4-.2-.6-.6-.6-1.6v-3c0-1.3 0-2.1-.1-2.8.5 0 1 .1 1.5.2.2 0 .3.1.3.2 0 .2-.1.3-.2.5s-.1.4-.1 1.8v2.6zM677.1 401.8v-3.6c-.7 1.1-1.5 2.2-2.3 3.2-.1.2-.2.2-.3.2-.1 0-.1-.1-.2-.3-.2-.4-.4-.8-.6-1 2.4-2.8 4-5.6 5.1-8.8.2-.7.4-1.3.4-1.8.6.2 1 .3 1.5.5.2.1.3.2.3.3 0 .2-.1.2-.2.3-.2.1-.3.4-.5.9-.5 1.2-1 2.5-1.7 3.7v16.4c0 .2 0 .2-.2.2h-1.2c-.2 0-.2 0-.2-.2 0-.1.1-1.2.1-3.9v-6.1zm19.7 8.9c0 .2 0 .2-.2.2h-16c-.2 0-.2 0-.2-.2v-1.1c0-.2 0-.2.2-.2h8.5c1-2.9 1.9-6 2.4-8.4.2-1.1.3-1.8.4-2.6.6.1 1.2.3 1.7.5.2.1.3.1.3.3s-.1.2-.2.4c-.2.2-.3.5-.4 1.1-.8 3.1-1.6 6-2.6 8.7h6c.2 0 .2 0 .2.2v1.1zm-.7-14.2c0 .2 0 .2-.2.2-.1 0-1-.1-3.5-.1h-7.6c-2.5 0-3.3.1-3.4.1-.2 0-.2 0-.2-.2v-1.1c0-.2 0-.2.2-.2h6v-2.4c0-1.2 0-1.9-.2-2.5.7 0 1.2.1 1.7.2.2 0 .3.1.3.2s0 .2-.1.4c-.1.3-.2.6-.2 1.6v2.6h7c.2 0 .2 0 .2.2v1zm-12.3 2.2c.2-.1.3-.1.4.1 1 2.8 1.5 5.1 2.2 8.3 0 .2 0 .3-.2.4l-.8.3c-.3.2-.4.1-.5-.2-.6-3.3-1.1-5.6-2.1-8.4 0-.2 0-.2.3-.3l.7-.2zM696.1 422.8c0 .2 0 .2-.2.2h-9.8c-.2.6-.3 1.1-.5 1.6h7.3c.2 0 .2 0 .2.2v8.6c0 .2 0 .2-.2.2h-12c-.2 0-.2 0-.2-.2V427.2v-2.4c0-.2 0-.2.2-.2h3.2c.2-.5.3-1.1.5-1.6H675.2c-.2 0-.2 0-.2-.2v-1c0-.2 0-.2.2-.2h9.7l.3-1.5h-9.5c-.2 0-.2 0-.2-.2v-2.6-1.5c0-.2 0-.2.2-.2s1 .1 3.5.1h12.4c2.5 0 3.3-.1 3.5-.1.2 0 .2 0 .2.2 0 .1-.1.4-.1 1.5v1.1c0 1.1.1 1.4.1 1.5 0 .1 0 .2-.2.2h-8.5c-.1.5-.2 1-.4 1.5h9.5c.2 0 .2 0 .2.2v1zm.4 13.2c0 .2 0 .2-.2.2h-18.4v1c0 .2 0 .2-.2.2h-1.1c-.2 0-.2 0-.2-.2V428c0-1.3 0-2-.2-2.7.6 0 1.1 0 1.6.1.2 0 .3.1.3.2 0 .2-.1.3-.2.5s-.1.7-.1 1.8v6.9h18.4c.2 0 .2 0 .2.2v1zm-14.8-19.1h-4.6v2.2h4.6v-2.2zm10 8.8h-9.5v1.5h9.5v-1.5zm0 2.6h-9.5v1.5h9.5v-1.5zm0 2.5h-9.5v1.6h9.5v-1.6zm-4-13.9H683v2.2h4.7v-2.2zm6.2 0h-4.8v2.2h4.8v-2.2z"/></g></svg>