<svg xmlns="http://www.w3.org/2000/svg" viewBox="0 0 760 640"><path fill="none" stroke="#999" stroke-width="2" stroke-miterlimit="10" d="M20.5 601h340m40 0h340"/><path fill="#999" d="M19.5 593h2v16h-2zm720 0h2v16h-2z"/><path d="M375.2 610v-4.2H368v-1.4l7-10h2.3v9.7h2.2v1.7h-2.2v4.2h-2.1zm0-5.9v-5.2c0-.8 0-1.6.1-2.4h-.1c-.5.9-.9 1.6-1.3 2.3L370 604h5.2zm15-7.9h-6l-.6 4c.4 0 .7-.1 1.3-.1 1.2 0 2.4.3 3.4.8 1.2.7 2.2 2 2.2 4 0 3-2.4 5.3-5.8 5.3-1.7 0-3.1-.5-3.9-1l.5-1.6c.6.4 1.9.9 3.3.9 2 0 3.7-1.3 3.7-3.4 0-2-1.4-3.5-4.5-3.5-.9 0-1.6.1-2.2.2l1-7.5h7.5v1.9z"/><path fill="none" stroke="#999" stroke-width="2" stroke-miterlimit="10" d="M20.5 578h220m40 0h220"/><path fill="#999" d="M19.5 570h2v16h-2zm480 0h2v16h-2z"/><path d="M249.1 584.6c.6.4 2 1 3.5 1 2.7 0 3.6-1.7 3.5-3 0-2.2-2-3.1-4-3.1h-1.2v-1.6h1.2c1.5 0 3.5-.8 3.5-2.6 0-1.2-.8-2.4-2.7-2.4-1.2 0-2.4.6-3.1 1l-.6-1.5c.8-.6 2.4-1.2 4.1-1.2 3.1 0 4.5 1.8 4.5 3.7 0 1.6-1 3-2.9 3.7 1.9.4 3.5 1.8 3.5 4 0 2.5-1.9 4.7-5.7 4.7-1.8 0-3.3-.6-4.1-1.1l.5-1.6zm22.2-5.6c0 5.3-2 8.2-5.4 8.2-3 0-5.1-2.9-5.2-8 0-5.2 2.3-8.1 5.4-8.1 3.3 0 5.2 3 5.2 7.9zm-8.5.3c0 4.1 1.2 6.4 3.2 6.4 2.2 0 3.2-2.5 3.2-6.5 0-3.8-1-6.4-3.2-6.4-1.8 0-3.2 2.2-3.2 6.5z"/><g><path fill="none" stroke="#999" stroke-width="2" stroke-miterlimit="10" d="M500.5 578h100m40 0h100"/><path fill="#999" d="M499.5 570h2v16h-2zm240 0h2v16h-2z"/><path d="M613.2 573.4l-2.8 1.5-.4-1.6 3.4-1.8h1.8V587h-2v-13.6zm17-.2h-6l-.6 4c.4 0 .7-.1 1.3-.1 1.2 0 2.4.3 3.4.8 1.2.7 2.2 2 2.2 4 0 3-2.4 5.3-5.8 5.3-1.7 0-3.1-.5-3.9-1l.5-1.6c.6.4 1.9.9 3.3.9 2 0 3.7-1.3 3.7-3.4 0-2-1.4-3.5-4.5-3.5-.9 0-1.6.1-2.2.2l1-7.5h7.5v1.9z"/></g><g><path fill="none" stroke="#999" stroke-width="2" stroke-miterlimit="10" d="M660.5 58h30m20 0h30"/><path fill="#999" d="M659.5 50h2v16h-2zm80 0h2v16h-2z"/><path fill="none" d="M694.5 46.5h13.9v30.4h-13.9z"/><path d="M704.9 52.8h-6l-.6 4c.4 0 .7-.1 1.3-.1 1.2 0 2.4.3 3.4.8 1.2.7 2.2 2 2.2 4 0 3-2.4 5.3-5.8 5.3-1.7 0-3.1-.5-3.9-1l.5-1.6c.6.4 1.9.9 3.3.9 2 0 3.7-1.3 3.7-3.4 0-2-1.4-3.5-4.5-3.5-.9 0-1.6.1-2.2.2l1-7.5h7.5v1.9z"/><g><path fill="none" stroke="#999" stroke-width="2" stroke-miterlimit="10" d="M516.5 58h62m20 0h62"/><path fill="#999" d="M515.5 50h2v16h-2zm144 0h2v16h-2z"/><path d="M583.8 65.5c.5 0 1 0 1.7-.1 1.2-.2 2.4-.7 3.3-1.5 1-.9 1.8-2.3 2.1-4.2h-.1c-.9 1.1-2.1 1.7-3.7 1.7-2.8 0-4.6-2.1-4.6-4.8 0-3 2.1-5.5 5.3-5.5s5.2 2.6 5.2 6.6c0 3.4-1.2 5.8-2.7 7.3-1.2 1.2-2.9 1.9-4.5 2.1-.8.1-1.4.1-1.9.1v-1.7zm.8-9c0 1.9 1.2 3.3 3 3.3 1.4 0 2.5-.7 3.1-1.6.1-.2.2-.4.2-.8 0-2.7-1-4.7-3.2-4.7-1.8 0-3.1 1.6-3.1 3.8z"/></g></g><g stroke-miterlimit="10"><g fill="#eee" stroke="#999"><path d="M516.5 257.1h144v144h-144z"/><path stroke-width="2" d="M516.5 401h144m-144-144h144"/></g><g fill="#eee" stroke="#999"><path d="M660.5 224.1h80v80h-80z"/><path stroke-width="2" d="M660.5 224h80m-80 80h80"/></g><g fill="#eee" stroke="#999"><path d="M516.5 209.1h144v32h-144z"/><path stroke-width="2" d="M516.5 209h144m-144 32h144"/></g><path d="M180 560V80m161 480V80M20.5 239.5h480m-480 161h480" fill="none" stroke="#ccc"/><g fill="none" stroke="#999" stroke-width="2"><path d="M20.5 80.1h720v480h-720z"/><path d="M20.5 80.1h480v480h-480zM660.5 560V80m-144 480V80"/></g></g><g><path d="M540.1 288.5c2.4.4 4.9.6 7.9.6 2.4 0 4.8-.1 7.3-.6l63-7.3c3.7-.7 6.3-1.5 7.9-2.2 1.7-.7 3.4-1.1 5.1-1.1 1.5 0 3.8 1.1 6.5 3.5 2.8 2.2 4.2 3.9 4.2 5.1 0 1-.7 1.5-2.2 1.5-.7 0-2-.1-4.1-.3l-3.8-.3c-9 .4-18.6 1.3-28.7 2.2l-3.4.4c.1 12.5-.1 22.5-.8 29.8-.6 3.9-4.1 8.2-8.7 8.2-.7 0-1.8-.3-3.4-.8-1.4-.3-2.5-.4-3.4-.4-4.9 0-9.6 2-13.9 5.8-3.8 4.4-5.8 9-5.8 14.1 0 7.2 2.7 13.4 8 18.3 5.5 4.9 12.4 7.5 20.7 7.5 11.8 0 21.9-5.3 30.5-16 1.5-1.3 3.1-2 4.4-2 2.8 0 5.1 2 5.1 4.8 0 5.2-4.1 10.4-12.1 15.5-8 5.2-17.3 7.7-27.8 7.7-11.2 0-20.7-3.4-28.1-10-7.5-7.5-11.2-16-11.2-25.7 0-8.2 2.7-14.9 7.9-20.4 5.8-5.3 13.2-8.3 22.5-9 3.4-.7 4.9-2.7 4.5-5.6l-1.1-20.1c-15.5 2.1-26.9 4.2-34 6.6-2 .7-3.5 1.1-4.8 1.1-1.8 0-4.6-1.5-8.7-4.8-2.8-2.4-4.2-4.1-4.2-4.8 0-1.1 1-1.7 2.8-1.7.5-.2 1.2 0 1.9.4zm139.2-13.7c1-1.5 2.7-3.4 5.1-5.5l13-11.1 10.4-8.9 7.3-7 5.1-5c2-1.5 3.4-2 4.3-1.7.5.2.9.9.9 1.9 0 1.2-.2 2.2-.7 3.2-2.6 6.3-5 11.4-7.3 15.4l-6.8 10.4-5.3 7.7c-6.8 10.1-13.5 15.5-20.2 16.1-7.6.7-11.7-4.7-5.8-15.5zM152.2 348c1.9.8 3.8 1.6 5.6 2.3 1.9.8 3.2 2.2 4.1 4.3.9 2.1.2 3.9-2 5.5l-7.5.7-28.4 4-19.5 2.8-5.9-.9c.6 6.6.4 11.3-.6 14.3-.9 3-2.1 4.8-3.5 5.5s-2.7.9-3.8.6c-1.9-.3-3.5-1.8-4.8-4.3-1.3-2.6-2.5-5.7-3.5-9.5s-2.5-14.8-4.6-33.3l-6.1-52.3c-.6-5-2-9.2-4-12.5-2-3.4-4.2-6.4-6.6-9.1-2.3-2.7-3.5-5-3.5-6.7 0-.8.4-1.8 1.2-3 .8-1.2 2.9-2 6.3-2.3 3-.2 5.8.2 8.4 1.2l15 5.2c9.5-1.7 16.3-3.2 20.4-4.3 4.1-1.2 9-2.7 14.8-4.7 5.8-2 11.1-4.1 15.9-6.6 4.8-2.4 8.4-3.7 10.5-3.9 2.3 0 4.8.5 7.3 1.6s6.2 3.1 11.2 6c5 2.9 8.6 5.5 10.9 8 2.3 2.4 3.1 4.9 2.5 7.4-.3 1.1-1.9 3.2-4.7 6.4-2.8 3.2-5.4 7.3-7.6 12.2-2.3 4.9-4.3 9.8-6 14.5-1.7 4.8-3.6 12.2-5.6 22.4l-5.9 28.5zm-53.5 5.3c9.8-2.5 15.9-4.1 18.3-4.7l15.7-3.8 8.7-61.9c1.1-7.8 1.6-12.4 1.5-13.7-.1-1.3-.6-2.7-1.6-4.1-1-1.4-4-1.8-9-1.2-2.2.3-6.6 1.2-13.4 2.6l-26.5 5.9 6.3 80.9zm131.8-41.2c-5.6 1.7-11.2 3.6-16.8 5.5-5.5 2-10 2.9-13.5 2.9-2.8.2-5.5-.2-8.2-.9-2.7-.8-6.3-2.4-10.9-4.9-4.6-2.5-7.3-4.5-8.2-5.9-.9-1.4-1.1-3-.8-4.9l22-4 36.1-7.7c-1.1-12.2-2-22-2.7-29.4-.7-7.4-1.4-12.3-2-14.6l-3.5-12.4c-4.2 2-7.3 3.4-9.4 4l-12.2 3.8-8.7 3c-2.8 1.1-4.6 1-5.3-.2-.7-1.2.4-3 3.2-5.4l6.8-5.4 13.4-10.3c4.5-3.6 8.9-7.5 13.2-11.6 4.3-4.1 7.9-7.9 10.9-11.4 3-3.4 5.5-7.3 7.5-11.5s3.6-6.6 4.8-7 2.5-.7 3.9-.7c2.3.2 5.3 1.3 8.8 3.5 3.5 2.2 7 4.7 10.3 7.4 3.4 2.7 5.5 5 6.3 6.7.9 1.7 1.3 3.3 1.4 4.7.1 1.4-.7 3-2.2 4.7-1.4 1.4-3.9 2.7-7.5 3.9-3.6 1.2-10 3.9-19.2 8.3l-18.5 9.4c6.1 1.7 10.9 3.2 14.4 4.3s6.2 2.5 8.2 4c2 1.5 3.2 3.1 3.8 4.8.5 1.7.3 4.5-.8 8.2-1.1 3.8-1.9 7.9-2.5 12.4-.5 4.5-.8 8.6-.8 12.2l-.2 10.8 62.6-12-10.5-81.6-3-25.3c-.6-3.4-1.8-8.5-3.4-15.1-1.6-6.6-3.6-12.4-6-17.3s-3.7-8.4-4-10.5c-.3-2.1 0-3.9 1.1-5.3 1-1.4 3.6-2.1 7.6-2.1 2.5.2 5.8.8 10 2 4.1 1.2 8.3 2.7 12.5 4.5 4.2 1.8 8.4 4.1 12.4 6.8 4.1 2.7 6.3 5.2 6.7 7.4.4 2.2-.4 5.9-2.2 11.2-.6 1.6-1.3 4.1-2.1 7.5-.8 3.4-1 9.9-.7 19.5 0 5 .4 15.5 1.3 31.5s1.7 27.1 2.5 33.2L339 269c13.6-3 23.7-5.4 30.2-7.3s11.2-3 13.8-3.5c5.2-.6 8.9-.5 11.2.5s6.5 3.2 12.5 6.9 9.6 6.7 10.9 9c1.2 2.3 1.6 4.1.9 5.4-.6 1.3-3.9 2.1-9.8 2.6s-11.6.9-17.1 1.2L341 288c2 12 4.1 23.4 6.1 34.1 2 10.7 3.6 17.8 4.7 21.2l10.5 38.9c3.6-5 6.2-8.9 7.9-11.6 1.6-2.7 4.1-7.2 7.3-13.5 3.2-6.2 5.4-11.2 6.7-15l4.2-15c1.1-3.6 1.4-7.3 1.1-11.1-.4-3.8-.3-6 .2-6.4.5-.5 2.2-.6 5-.5 3 .3 6.2 1.3 9.8 2.9 3.6 1.6 7 3.4 10.1 5.2 3.1 1.8 5.9 3.8 8.2 6.1 2.3 2.3 3.6 4.6 3.9 7 .2 2.4-1.2 5.4-4.3 9l-5.6 5.9c-2.5 2.8-6.1 7.9-10.8 15.2-4.7 7.3-9.4 14.3-14.2 20.7-4.8 6.5-8.4 11.1-10.9 13.7l-8.9 9.8c1.7 5.3 3.5 10.3 5.4 15s5.9 12 12 21.9c6.1 9.9 11.6 18.2 16.6 24.7 5 6.6 9.6 11.6 13.9 15.1 4.3 3.5 7.5 5.7 9.7 6.7 2.2.9 4.2 1.2 6.1.9 3.4-.3 6.1-1.9 8-4.8 1.9-2.9 3.7-6.8 5.5-11.6 1.8-4.8 3.5-9.9 5-15.2l5.4-20.2c1.1-4.2 2.3-6.1 3.6-5.7 1.3.4 2.1 2.1 2.2 5.3l1.6 47.6c.3 13.7.6 21.2.9 22.3l2.1 12.7c.6 5 .3 8.7-.9 11-.9 1.6-2.3 2.8-4 3.9-1.7 1-4.4 1.4-8 1.3-4.8 0-9.5-.7-13.8-2.1-4.4-1.4-8.6-3.4-12.8-5.9-4.1-2.5-9.5-6.8-16.2-12.8-6.6-6-14-13.8-22-23.3s-14.8-18.5-20.4-26.8c-5.5-8.4-10-16.5-13.5-24.5l-8.4-18.5c-6.4 4.1-11.1 6.9-14.2 8.6s-8 4.1-15 7.4c-7 3.3-12.3 5.5-16.1 6.8l-13.8 4.5-5.4 1.9c-2.2.8-3.6.5-4.2-.8-.6-1.3.4-2.8 3-4.6l7.5-4.7 12.9-8c1.9-1.2 7.1-5.1 15.8-11.6 8.7-6.5 13.6-10.3 14.9-11.6l7.5-7c-3.3-10.5-6.2-20.2-8.8-29.2-2.6-9-5-18.6-7.3-28.8s-4.9-22.9-7.9-38.1l-2.8-14.1-64.7 13.6.5 56.7 42.2-20.4c3.1-1.6 5.1-1.2 5.9.9.8 2.2.4 3.8-1.2 4.9l-46.4 31.4v75.2c0 12.3-.7 21.8-2.2 28.4-1.5 6.6-3.3 11.8-5.5 15.8s-5.6 8.1-10.2 12.4c-4.6 4.3-8.6 6.4-11.8 6.2-2.8 0-5.5-1.1-8-3.3l-8.7-12.9c-.9-1.1-3.7-4.1-8.2-8.9-4.5-4.8-6.9-7.4-7-7.7l-9.6-8.9c-1.1-.9-1.5-2-1.2-3.3.3-1.3 1.3-1.7 3-1.4l8.4 2.3 10.5 3c5.2 1.6 9.4 2 12.8 1.3 3.4-.7 6.4-2.5 9.3-5.5 2.8-3 4.4-10.4 4.7-22.3l.9-56.5-46.6 30.5c-8.1 5.3-13.9 9.4-17.5 12.3-3.5 2.9-5.9 4.5-7.3 4.9-1.3.4-3.3.7-5.9.8-2.6.2-6.4-1.6-11.4-5.2-.3-.2-3.3-2.5-8.9-7.1-5.6-4.6-8.5-7.9-8.6-9.7-.1-1.9.6-3.4 2-4.7.6-.5 2.6-.8 6-.9 3.4-.2 7.3-1.2 11.8-3l16.2-6.6c11.1-4.5 20.4-8.6 27.9-12.2L230 372v-59.9zm128.2-132.9l7.5 1.4c10.5 2 17.5 3.5 21.1 4.5 3.6.9 7.8 2.7 12.5 5.4 4.8 2.7 8.1 5.7 10 9.3s2.8 7.3 2.8 11.4c-.2 2.8-.8 5.5-2 8.2-1.2 2.7-2.9 4.5-5 5.4-2.2.9-4.8 1.4-8 1.5-3.1.1-7.3-2.2-12.7-6.9-2.7-2.2-6.7-6.6-12.2-13.1-5.5-6.6-8.8-10.7-9.8-12.4l-6.3-8.7c-1.3-1.6-1.6-3-1.2-4.2.4-1.4 1.5-1.9 3.3-1.8z"/></g></svg>