<svg xmlns="http://www.w3.org/2000/svg" viewBox="0 0 760 640"><path fill="none" stroke="#999" stroke-width="2" stroke-miterlimit="10" d="M20.5 601h340m40 0h340"/><path fill="#999" d="M19.5 593h2v16h-2zm720 0h2v16h-2z"/><path d="M375.2 610v-4.2H368v-1.4l7-10h2.3v9.7h2.2v1.7h-2.2v4.2h-2.1zm0-5.9v-5.2c0-.8 0-1.6.1-2.4h-.1c-.5.9-.9 1.6-1.3 2.3L370 604h5.2zm15-7.9h-6l-.6 4c.4 0 .7-.1 1.3-.1 1.2 0 2.4.3 3.4.8 1.2.7 2.2 2 2.2 4 0 3-2.4 5.3-5.8 5.3-1.7 0-3.1-.5-3.9-1l.5-1.6c.6.4 1.9.9 3.3.9 2 0 3.7-1.3 3.7-3.4 0-2-1.4-3.5-4.5-3.5-.9 0-1.6.1-2.2.2l1-7.5h7.5v1.9z"/><path fill="none" stroke="#999" stroke-width="2" stroke-miterlimit="10" d="M20.5 578h220m40 0h220"/><path fill="#999" d="M19.5 570h2v16h-2zm480 0h2v16h-2z"/><path d="M249.1 584.6c.6.4 2 1 3.5 1 2.7 0 3.6-1.7 3.5-3 0-2.2-2-3.1-4-3.1h-1.2v-1.6h1.2c1.5 0 3.5-.8 3.5-2.6 0-1.2-.8-2.4-2.7-2.4-1.2 0-2.4.6-3.1 1l-.6-1.5c.8-.6 2.4-1.2 4.1-1.2 3.1 0 4.5 1.8 4.5 3.7 0 1.6-1 3-2.9 3.7 1.9.4 3.5 1.8 3.5 4 0 2.5-1.9 4.7-5.7 4.7-1.8 0-3.3-.6-4.1-1.1l.5-1.6zm22.2-5.6c0 5.3-2 8.2-5.4 8.2-3 0-5.1-2.9-5.2-8 0-5.2 2.3-8.1 5.4-8.1 3.3 0 5.2 3 5.2 7.9zm-8.5.3c0 4.1 1.2 6.4 3.2 6.4 2.2 0 3.2-2.5 3.2-6.5 0-3.8-1-6.4-3.2-6.4-1.8 0-3.2 2.2-3.2 6.5z"/><g><path fill="none" stroke="#999" stroke-width="2" stroke-miterlimit="10" d="M500.5 578h100m40 0h100"/><path fill="#999" d="M499.5 570h2v16h-2zm240 0h2v16h-2z"/><path d="M613.2 573.4l-2.8 1.5-.4-1.6 3.4-1.8h1.8V587h-2v-13.6zm17-.2h-6l-.6 4c.4 0 .7-.1 1.3-.1 1.2 0 2.4.3 3.4.8 1.2.7 2.2 2 2.2 4 0 3-2.4 5.3-5.8 5.3-1.7 0-3.1-.5-3.9-1l.5-1.6c.6.4 1.9.9 3.3.9 2 0 3.7-1.3 3.7-3.4 0-2-1.4-3.5-4.5-3.5-.9 0-1.6.1-2.2.2l1-7.5h7.5v1.9z"/></g><g><path fill="none" stroke="#999" stroke-width="2" stroke-miterlimit="10" d="M660.5 58h30m20 0h30"/><path fill="#999" d="M659.5 50h2v16h-2zm80 0h2v16h-2z"/><path fill="none" d="M694.5 46.5h13.9v30.4h-13.9z"/><path d="M704.9 52.8h-6l-.6 4c.4 0 .7-.1 1.3-.1 1.2 0 2.4.3 3.4.8 1.2.7 2.2 2 2.2 4 0 3-2.4 5.3-5.8 5.3-1.7 0-3.1-.5-3.9-1l.5-1.6c.6.4 1.9.9 3.3.9 2 0 3.7-1.3 3.7-3.4 0-2-1.4-3.5-4.5-3.5-.9 0-1.6.1-2.2.2l1-7.5h7.5v1.9z"/><g><path fill="none" stroke="#999" stroke-width="2" stroke-miterlimit="10" d="M516.5 58h62m20 0h62"/><path fill="#999" d="M515.5 50h2v16h-2zm144 0h2v16h-2z"/><path d="M583.8 65.5c.5 0 1 0 1.7-.1 1.2-.2 2.4-.7 3.3-1.5 1-.9 1.8-2.3 2.1-4.2h-.1c-.9 1.1-2.1 1.7-3.7 1.7-2.8 0-4.6-2.1-4.6-4.8 0-3 2.1-5.5 5.3-5.5s5.2 2.6 5.2 6.6c0 3.4-1.2 5.8-2.7 7.3-1.2 1.2-2.9 1.9-4.5 2.1-.8.1-1.4.1-1.9.1v-1.7zm.8-9c0 1.9 1.2 3.3 3 3.3 1.4 0 2.5-.7 3.1-1.6.1-.2.2-.4.2-.8 0-2.7-1-4.7-3.2-4.7-1.8 0-3.1 1.6-3.1 3.8z"/></g></g><g><path fill="#eee" d="M516.5 177.1h144v144h-144z"/><path fill="none" stroke="#999" stroke-width="2" stroke-miterlimit="10" d="M516.5 321h144m-144-144h144"/><path fill="#eee" d="M516.5 352.1h144v144h-144z"/><path fill="none" stroke="#999" stroke-width="2" stroke-miterlimit="10" d="M516.5 496h144m-144-144h144"/><path fill="#eee" d="M660.5 321.1h80v80h-80z"/><path fill="none" stroke="#999" stroke-width="2" stroke-miterlimit="10" d="M660.5 321h80m-80 80h80"/><g><path fill="#eee" d="M516.5 128h144v32h-144z"/><path fill="none" stroke="#999" stroke-width="2" stroke-miterlimit="10" d="M516.5 128h144m-144 32h144"/></g><g fill="none" stroke="#ccc" stroke-miterlimit="10"><path d="M180 560V80m161 480V80M20.5 239.5h480m-480 161h480"/></g><g fill="none" stroke="#999" stroke-width="2" stroke-miterlimit="10"><path d="M20.5 80.1h720v480h-720z"/><path d="M20.5 80.1h480v480h-480zM660.5 560V80m-144 480V80"/></g></g><g><path d="M591 155.4c-3.1 0-5.9-1.1-8.2-3.3s-3.3-5.1-3.3-8.2c0-3.1 1.1-5.8 3.3-8.1 2.3-2.3 5.1-3.5 8.2-3.5 3.1 0 5.8 1.2 8.1 3.5s3.5 5 3.5 8.1c0 3.1-1.2 5.9-3.5 8.2s-5 3.3-8.1 3.3zm-51.2 244.1c1 .4 2.8.6 5.2.6s4.8-.3 7.5-.7l33.9-5.3-.4-10.1c0-7.5-1-12.9-2.8-16.5-.7-.7-1.1-1.3-1.1-1.5 0-2.4 1.3-3.5 3.9-3.5 2 0 4.4.4 7 1.4 3.5 1.5 5.3 3 5.3 4.2 0 .4-.3 1-1 1.5-.8 2.1-1.3 4.6-1.3 7.6l-.1 15.5 24.9-3.9c4.4-.8 7.5-1.5 9-2 1.7-.4 2.8-.7 3.4-.7 1.3 0 3 .8 5.2 2.5 2.5 2.1 3.8 3.7 3.8 4.8 0 1.5-1.3 2.4-3.9 2.4h-5.1c-6 .4-18.6 1.8-37.4 4.5l-.3 24c0 4.9-1.8 7.5-5.6 7.5-.7 0-2-.6-3.8-1.8-1.7-.7-3.1-1.1-4.1-1.1-4.8 0-9 1.8-12.7 5.3-3.5 3.5-5.3 8-5.3 13.8 0 12.8 10.1 22.2 27 22.2 11.5 0 21.4-3.7 29.7-11.1 2.1-2.1 3.9-3.1 5.8-3.1 2.1 0 3.9 1.5 3.9 3.2 0 5.3-4.1 10.3-12.2 14.9-7.7 4.1-16.9 6.2-27.1 6.2-10.5 0-19.5-3.1-27-9.1-7.2-6.3-10.7-14.1-10.7-23.2 0-6.6 2.2-12.7 6.8-18 5.3-5.3 13.1-8.3 23.1-9 3-.3 4.4-2.8 3.9-7.7l-.4-11.4c-19.4 3-30.8 5.1-34 6.5-1.5 1-3 1.4-4.4 1.4-1.8 0-4.5-1.3-8.2-3.8-3.5-2.7-5.3-4.5-5.3-5.2 0-1.5.4-2.2 1.1-2.2s1.8.2 3.8.9zm26-199.7c2.4 2.1 3.5 4.1 3.5 5.8 0 .4-.4 1.1-1.1 2.4-3.1 4.4-6.2 11.1-9.4 20-1.5 4.5-2.4 7.2-2.4 8 0 1.1.7 1.7 2.2 1.7l3.1-.7 19.5-5.1c3.7-12.5 5.6-25.2 6-38 .3-4.2 2.1-6.3 5.6-6.3 4.9 0 8.4 2.1 8.4 5.6 0 2.7-1 8-3 16.2-2 8-3.8 14.6-5.3 19.5l19.5-4.9c2.2-.7 4.6-2 7.2-3.5 2.4-1.3 3.8-2 4.1-2 1.3 0 3.7 1.3 6.9 3.9 3.2 2.5 4.9 4.5 4.9 5.8 0 .4-.1 1.1-.6 1.8-.4 1.5-1 6.5-1.5 15-2.5 27.4-9.1 46.3-19.8 56.8-4.6 4.6-8.6 6.9-11.8 6.9-2.4 0-3.9-.8-4.4-2.7-.6-1.5-2.5-4.2-5.8-7.7-3.4-3.5-5.1-5.5-5.1-5.9.1-.4.3-.6.6-.6l4.2 1c3.2 1 5.9 1.4 8.2 1.4 3.5 0 6.8-1.4 9.4-4.1 3.2-3.5 6.6-11.2 10.1-23.2s5.2-22.9 5.2-32.6c0-3-1.1-4.5-3.4-4.6-4.1 0-14.2 2.2-30.5 6.6-10.8 30.5-25.9 51.6-45 63.6-2.2 1.4-3.5 2.1-3.8 2.1-.4 0-.6-.1-.6-.6s.6-1.4 1.5-2.7c7.3-7.5 14.5-17.2 21.5-29.1 6.6-10.8 11.5-21 14.6-30.1-13.9 3.8-22.4 6.6-25.3 8.2-2.2 1.1-3.7 1.7-4.2 1.7-.7 0-2.1-1-4.1-2.8-2-2-3-3.2-3-3.9s.4-2.1 1.3-3.9c4.4-6.3 7.7-13.4 10-20.8 3-7.6 4.5-13.8 4.5-18.6 0-1.8.6-2.8 1.7-2.8 2.1 0 4 1.1 6.4 3.2zm-249.6 8c5.9-6.2 9.4-10.4 10.3-12.4.9-2 1.3-3.9 1.2-5.5-.2-1.6-1.6-3.1-4.2-4.3-2.7-1.2-10.5-.5-23.7 2.1l-75.2 15.5c-10.2 2.2-21.7 5.2-34.7 9.1-13 3.9-22 5.4-27 4.5-3-.5-8-2.4-15.2-5.7-7.2-3.4-12.2-6.5-15.1-9.5-2.9-3-4.1-5.1-3.5-6.3.5-1.2 2.2-2.3 5-3l15-1.2 28.6-2.8c8.9-.8 21.6-2.6 38.1-5.4 16.5-2.8 31.4-5.6 44.8-8.3 13.4-2.7 23.6-5 30.6-6.7 7-1.7 13.6-3.4 19.8-5.2 6.2-1.7 11.8-3.6 17-5.7s8.8-3.2 11-3.4c4.1-.2 8.7 1 13.8 3.4 5.2 2.4 11.9 5.9 20.2 10.5 8.3 4.6 14.6 9.7 19.1 15.4s6.1 10.1 5 13.4c-.9 2.8-5.9 6-14.8 9.5s-15.4 6.2-19.3 8.1-12.3 6.6-25 14.3c-12.7 7.7-20.2 12.3-22.5 13.8l-22.3 15.7-13.1 9.1c2.3 3.8 4 7 5 9.6 1 2.7 1.5 7.9 1.4 15.7-.1 7.8.4 17.8 1.5 30 1.4 19.8 2.4 35.3 2.9 46.3s1 26.4 1.4 46.3c.4 19.8.5 33.7.4 41.5-.5 11.2-1.8 21.2-3.9 29.9s-4.5 14.9-7.1 18.8c-2.7 3.8-6.5 8.9-11.6 15.2-5.1 6.3-9.1 9.6-12 9.8-2.9.2-5.6-.7-8.1-2.7-1.6-1.1-3.6-3.8-6-8.2-2.4-4.4-6.1-9.7-10.9-16.1-4.8-6.3-8.5-10.9-11-13.8-2.5-2.9-4.8-5.4-7-7.6l-8.7-8.2c-2.5-2.2-3.4-4-2.7-5.4s3.1-1.6 7.1-.5l10.8 3c3.1.9 7.3 2.5 12.5 4.8s9.3 3.1 12.1 2.5c2.5-.3 4.4-1.2 5.7-2.7 1.3-1.5 2.8-3.9 4.6-7.4 1.7-3.4 3-12 4-25.5l2.3-34.2c.3-7.3.4-17.3.2-29.8-.3-13.1-.8-23.7-1.4-31.8-.6-8-1.8-17.8-3.6-29.2-1.8-11.4-3.5-19.9-5-25.4-1.6-5.5-3.2-9.8-4.9-12.8l-8.2-12.9c-.3-.6-.5-1.5-.6-2.6-.1-1.1.5-2.2 1.6-3.4s3.3-1.8 6.4-2c.5 0 4 .2 10.5.7l8.4.7 50-51.6z"/></g></svg>