<svg xmlns="http://www.w3.org/2000/svg" viewBox="0 0 760 640"><g stroke-miterlimit="10"><g fill="none" stroke="#CCC"><path d="M180 560V80M341 560V80M20.5 239.5h480M20.5 400.5h480"/></g><g fill="none" stroke="#999" stroke-width="2"><path d="M20.5 80.1h720v480h-720z"/><path d="M20.5 80.1h480v480h-480zM620.5 560V80"/></g><g fill="#EEE" stroke="#999" stroke-width="2"><path d="M500.5 200.1h120v120h-120zM500.5 320h120M500.5 200h120"/></g><g fill="#EEE" stroke="#999" stroke-width="2"><path d="M500.5 320.1h120v120h-120zM500.5 440h120M500.5 320h120"/></g><g fill="#EEE" stroke="#999" stroke-width="2"><path d="M620.5 260.1h120v120h-120zM620.5 380h120M620.5 260h120"/></g></g><path fill="none" stroke="#999" stroke-width="2" stroke-miterlimit="10" d="M20.5 601h330M410.5 601h330"/><path fill="#999" d="M19.5 593h2v16h-2zM739.5 593h2v16h-2z"/><path d="M361.2 596.4l-2.8 1.5-.4-1.6 3.4-1.8h1.8V610h-2v-13.6zM378.2 596.2h-6l-.6 4c.4 0 .7-.1 1.3-.1 1.2 0 2.4.3 3.4.8 1.2.7 2.2 2 2.2 4 0 3-2.4 5.3-5.8 5.3-1.7 0-3.1-.5-3.9-1l.5-1.6c.6.4 1.9.9 3.3.9 2 0 3.7-1.3 3.7-3.4 0-2-1.4-3.5-4.5-3.5-.9 0-1.6.1-2.2.2l1-7.5h7.5v1.9zM391.6 602c0 5.3-2 8.2-5.4 8.2-3 0-5.1-2.9-5.2-8 0-5.2 2.3-8.1 5.4-8.1 3.3 0 5.2 3 5.2 7.9zm-8.5.3c0 4.1 1.2 6.4 3.2 6.4 2.2 0 3.2-2.5 3.2-6.5 0-3.8-1-6.4-3.2-6.4-1.8 0-3.2 2.2-3.2 6.5zM403.9 602c0 5.3-2 8.2-5.4 8.2-3 0-5.1-2.9-5.2-8 0-5.2 2.3-8.1 5.4-8.1 3.4 0 5.2 3 5.2 7.9zm-8.4.3c0 4.1 1.2 6.4 3.2 6.4 2.2 0 3.2-2.5 3.2-6.5 0-3.8-1-6.4-3.2-6.4-1.9 0-3.2 2.2-3.2 6.5z"/><g><path fill="none" stroke="#999" stroke-width="2" stroke-miterlimit="10" d="M20.5 578h210M290.5 578h210"/><path fill="#999" d="M19.5 570h2v16h-2zM499.5 570h2v16h-2z"/><g><path d="M241.2 573.4l-2.8 1.5-.4-1.6 3.4-1.8h1.8V587h-2v-13.6zM259.3 579c0 5.3-2 8.2-5.4 8.2-3 0-5.1-2.9-5.2-8 0-5.2 2.3-8.1 5.4-8.1 3.3 0 5.2 3 5.2 7.9zm-8.5.3c0 4.1 1.2 6.4 3.2 6.4 2.2 0 3.2-2.5 3.2-6.5 0-3.8-1-6.4-3.2-6.4-1.8 0-3.2 2.2-3.2 6.5zM271.6 579c0 5.3-2 8.2-5.4 8.2-3 0-5.1-2.9-5.2-8 0-5.2 2.3-8.1 5.4-8.1 3.3 0 5.2 3 5.2 7.9zm-8.5.3c0 4.1 1.2 6.4 3.2 6.4 2.2 0 3.2-2.5 3.2-6.5 0-3.8-1-6.4-3.2-6.4-1.8 0-3.2 2.2-3.2 6.5zM283.9 579c0 5.3-2 8.2-5.4 8.2-3 0-5.1-2.9-5.2-8 0-5.2 2.3-8.1 5.4-8.1 3.4 0 5.2 3 5.2 7.9zm-8.4.3c0 4.1 1.2 6.4 3.2 6.4 2.2 0 3.2-2.5 3.2-6.5 0-3.8-1-6.4-3.2-6.4-1.9 0-3.2 2.2-3.2 6.5z"/></g></g><g><path fill="none" stroke="#999" stroke-width="2" stroke-miterlimit="10" d="M500.5 578h90M650.5 578h90"/><path fill="#999" d="M499.5 570h2v16h-2zM739.5 570h2v16h-2z"/><g><path d="M611.9 573.2h-6l-.6 4c.4 0 .7-.1 1.3-.1 1.2 0 2.4.3 3.4.8 1.2.7 2.2 2 2.2 4 0 3-2.4 5.3-5.8 5.3-1.7 0-3.1-.5-3.9-1l.5-1.6c.6.4 1.9.9 3.3.9 2 0 3.7-1.3 3.7-3.4 0-2-1.4-3.5-4.5-3.5-.9 0-1.6.1-2.2.2l1-7.5h7.5v1.9zM625.3 579c0 5.3-2 8.2-5.4 8.2-3 0-5.1-2.9-5.2-8 0-5.2 2.3-8.1 5.4-8.1 3.3 0 5.2 3 5.2 7.9zm-8.5.3c0 4.1 1.2 6.4 3.2 6.4 2.2 0 3.2-2.5 3.2-6.5 0-3.8-1-6.4-3.2-6.4-1.8 0-3.2 2.2-3.2 6.5zM637.6 579c0 5.3-2 8.2-5.4 8.2-3 0-5.1-2.9-5.2-8 0-5.2 2.3-8.1 5.4-8.1 3.3 0 5.2 3 5.2 7.9zm-8.5.3c0 4.1 1.2 6.4 3.2 6.4 2.2 0 3.2-2.5 3.2-6.5 0-3.8-1-6.4-3.2-6.4-1.8 0-3.2 2.2-3.2 6.5z"/></g></g><g><path fill="none" stroke="#999" stroke-width="2" stroke-miterlimit="10" d="M620.5 58h40M700.5 58h40"/><path fill="#999" d="M619.5 50h2v16h-2zM739.5 50h2v16h-2z"/><g><path d="M662.6 67v-1.3l1.7-1.6c4-3.8 5.8-5.8 5.8-8.2 0-1.6-.8-3-3.1-3-1.4 0-2.6.7-3.3 1.3l-.7-1.5c1.1-.9 2.6-1.6 4.4-1.6 3.4 0 4.8 2.3 4.8 4.5 0 2.9-2.1 5.2-5.4 8.4l-1.2 1.2h7V67h-10zM684.2 53.2h-6l-.6 4c.4 0 .7-.1 1.3-.1 1.2 0 2.4.3 3.4.8 1.2.7 2.2 2 2.2 4 0 3-2.4 5.3-5.8 5.3-1.7 0-3.1-.5-3.9-1l.5-1.6c.6.4 1.9.9 3.3.9 2 0 3.7-1.3 3.7-3.4 0-2-1.4-3.5-4.5-3.5-.9 0-1.6.1-2.2.2l1-7.5h7.5v1.9zM697.6 59c0 5.3-2 8.2-5.4 8.2-3 0-5.1-2.9-5.2-8 0-5.2 2.3-8.1 5.4-8.1 3.3 0 5.2 3 5.2 7.9zm-8.5.3c0 4.1 1.2 6.4 3.2 6.4 2.2 0 3.2-2.5 3.2-6.5 0-3.8-1-6.4-3.2-6.4-1.8 0-3.2 2.2-3.2 6.5z"/></g></g><g><path fill="none" stroke="#999" stroke-width="2" stroke-miterlimit="10" d="M500.5 58h40M580.5 58h40"/><path fill="#999" d="M499.5 50h2v16h-2zM619.5 50h2v16h-2z"/><g><path d="M542.6 67v-1.3l1.7-1.6c4-3.8 5.8-5.8 5.8-8.2 0-1.6-.8-3-3.1-3-1.4 0-2.6.7-3.3 1.3l-.7-1.5c1.1-.9 2.6-1.6 4.4-1.6 3.4 0 4.8 2.3 4.8 4.5 0 2.9-2.1 5.2-5.4 8.4l-1.2 1.2h7V67h-10zM564.2 53.2h-6l-.6 4c.4 0 .7-.1 1.3-.1 1.2 0 2.4.3 3.4.8 1.2.7 2.2 2 2.2 4 0 3-2.4 5.3-5.8 5.3-1.7 0-3.1-.5-3.9-1l.5-1.6c.6.4 1.9.9 3.3.9 2 0 3.7-1.3 3.7-3.4 0-2-1.4-3.5-4.5-3.5-.9 0-1.6.1-2.2.2l1-7.5h7.5v1.9zM577.6 59c0 5.3-2 8.2-5.4 8.2-3 0-5.1-2.9-5.2-8 0-5.2 2.3-8.1 5.4-8.1 3.3 0 5.2 3 5.2 7.9zm-8.5.3c0 4.1 1.2 6.4 3.2 6.4 2.2 0 3.2-2.5 3.2-6.5 0-3.8-1-6.4-3.2-6.4-1.8 0-3.2 2.2-3.2 6.5z"/></g></g><g><path d="M525.6 228.3c2.6 0 6.4-.5 11.6-1.4 10.4-2.2 22.7-4.1 36.7-5.9 10.5-1.4 16.5-2.6 17.8-3.6.7-.2 1.8-.4 3.3-.4 1.3 0 2.6.5 4.1 1.5 3.2 2.3 4.8 4.3 4.8 6.1 0 .8-.6 1.3-1.9 1.3-.1 0-1.4-.1-3.8-.2-2-.4-3-.6-3.3-.6-5.4 0-14.3.8-26.8 2.6 1.6 1.8 2.5 3.3 2.5 4.3s-.2 2.3-.6 3.9c-.9 3.3-1.2 15.4-.7 36.1.4 17.5.1 27.8-.5 30.8-.7 2.3-1.6 3.5-2.9 3.5-1.1 0-2.5-1.8-4.1-5.2s-2.5-6.2-2.5-8.2c0-1.1.4-3 1.1-5.9.6-1.9.8-14.3.8-37.1 0-9.5-.9-16.4-2.7-20.9-11 1.8-19 3.5-24 5.5-2.6 1.1-4.3 1.6-5.2 1.6-2 0-4.6-1.1-8-3-2.8-2-4.2-3.6-4.2-4.9 0-.6.5-.9 1.4-.9h1.4c2.4.7 4.3 1 5.7 1zM567.4 378.7c14.2-1.5 23.4-3 27.7-4.6 2.1-1.1 3.4-1.4 3.8-1.3.9-.1 2.9 1.1 5.9 3.6 2.1 2.1 3.2 3.6 3.2 4.6l.1.2c0 .8-.5 1.2-1.5 1.2h-2c-1.4-.1-3 .4-4.8.4-4.5-.1-11.8.5-22.3 1.6-16.1 1.8-30.1 3.2-42.4 4.1-5.3.1-9.1.8-11.8 1.9-1.8.5-2.7.7-3 .7-1.6 0-3.6-1.2-6-3.6s-3.5-4.6-3.6-6.3l-.1-.4c-.1-1.2.2-1.8 1.3-1.8l.1-.1c.1 0 1.4.2 2 .4 2.7 1.1 7.5 1.6 14.5 1.6 11.6 0 24.7-.7 38.9-2.2zM209.4 277.6c.2-3.6.4-8.5.7-14.6.3-6.2.5-14.9.5-26.1-.2-7.2-.4-12.9-.8-17.1-.4-4.2-1-8.1-1.9-11.7-.9-3.6-1.6-6.2-2.2-7.7l-2.6-5.9c-2.7.3-5 .5-7 .7-2 .2-5.8.5-11.4 1.1-5.5.5-10 .7-13.5.6-7.3-.2-14.6-1.3-21.7-3.4-7.1-2.1-11.8-4.5-13.9-7.3-2.2-2.7-2.9-4.8-2.1-6.1.8-1.3 3.1-2.1 7-2.5l12-.9c10.5-.8 16.5-1.2 18-1.4l28.8-2.1c12.2-.9 25.5-2.3 40.1-4.2l53-7c14.5-1.7 24.8-3.4 30.9-4.9l15-3.5 14.1-3.5c3.3-.3 6.4-.1 9.3.7 2.9.8 6.8 2 11.6 3.6s8.8 3.3 12 4.9c3.1 1.6 4.6 3.3 4.6 5-.1 1.7-1.4 3.8-4 6.1s-8.4 4.1-17.5 5.4l-14.8 2.1c-13.8 2-22.3 3.2-25.5 3.5l-12.9 1.4-12.9 1.6c3.8 1.7 7 3.5 9.6 5.3 2.7 1.8 4.1 3.5 4.5 5.2.3 1.6 0 3.8-.9 6.4-.8 2.2-1.6 4.5-2.3 7-.8 2.5-1.5 5.5-2.1 9-.6 3.5-1.1 8.4-1.4 14.6-.3 6.3-.5 9.5-.5 9.8l-1.6 26c6.9-.5 13.2-.9 18.9-1.3 5.7-.4 10-.8 13-1.3s11.5-1.8 25.7-4.1c14.1-2.3 24.6-4.5 31.5-6.8 6.9-2.3 11.8-3.2 14.8-2.9 1.7.3 4.5 1.3 8.2 3 3.8 1.7 9 4.5 15.8 8.2s11.9 7.1 15.2 10.2c3.4 3 5.1 5.5 5.3 7.3.2 1.8-.3 3.9-1.4 6.2l-7.5 11c-1.4 2-2.5 4.1-3.3 6.3-.8 2.2-1.4 5-1.9 8.4l-15.9 116c-1.1 7.7-2.6 14.3-4.6 20-2 5.7-4.8 11.7-8.6 17.9s-7.2 10.6-10.3 13.1c-3.1 2.5-5.5 3.6-7 3.3-1.7-.2-3.3-1.1-4.7-2.7s-3.6-6-6.6-13.1c-3-7.1-6.3-13.6-10.1-19.6l-5.4-8.2-47.1 1.6-117.6 9.5-55.8 3.5-.5 8c-.3 3.9-1.1 6.7-2.3 8.4-1.3 1.7-2.5 2.8-3.6 3.2-1.2.4-2.7.1-4.6-.8-2.2-.9-4.3-3-6.4-6.2s-3.4-7.1-3.9-11.8l-14.1-118.4c-.6-4.7-1.5-9.7-2.7-15.1s-2.7-10-4.6-13.9c-1.9-3.9-4.5-7.7-7.9-11.4-3.4-3.7-5-6.4-5-8.3s.7-3.5 2.1-4.8c1.4-1.3 3.4-2.2 5.9-2.6 2.5-.4 5.5-.4 8.9-.1 5 .6 9.1 1.4 12.2 2.3l11 3.5 76.7-7.6zm95.1 36.4c-.5 7.5.2 13.8 1.9 18.8s4 8.6 6.8 10.9c2.8 2.3 7 3.5 12.4 3.6 1.4.2 4.1.1 8.1-.1s6.7-.4 8.1-.6c1.4-.2 4.2-.7 8.3-1.8 4.1-1 7.3-1.4 9.5-1.3 1.9.3 4 1 6.3 2s4.8 2.5 7.3 4.5 4.3 4.3 5.5 7c1.2 2.7 1.4 4.9.8 6.4-.8 1.9-3.9 3.4-9.3 4.7-5.4 1.3-11.2 1.9-17.5 1.9l-24.1.5c-6.4.2-13-.7-19.7-2.7-6.7-2-11.7-4.7-15-8.3-3.3-3.6-5.9-7.9-8-13-2-5.1-3.4-10.3-4-15.6-.6-5.3-.8-11.8-.5-19.5l.7-26.2c-7 .8-13.7 1.5-19.9 2.1-6.3.6-13.3 1.3-21.1 2.1l-9.4.9c-.8 5.8-1.6 11.3-2.5 16.6-.9 5.3-2.7 11.9-5.6 19.8-2.9 7.9-6.4 15.1-10.4 21.6-4.1 6.5-8.2 11.8-12.3 16.1-4.1 4.2-8.4 8-12.8 11.2l-8.9 6.6c-2.3 1.7-4.1 2.2-5.2 1.5-1.1-.7-1.6-1.4-1.4-2.2.2-.8 1.2-2.6 3.3-5.4l4.7-6.3c2-2.7 4.1-5.8 6.3-9.4 2.2-3.6 4.8-9.2 8-16.8 3.1-7.6 5.6-14.7 7.5-21.3 1.9-6.6 3.4-14.6 4.7-23.8l.7-5.4c-4.2.6-7.3 1-9.4 1.2l-15.7 1.6L136 302l.5 9.8 11.2 120.5 120.9-8.2 46.4-5.2c18.9-1.9 31.2-3.3 36.8-4.2s9.8-1.4 12.4-1.4c3.6.2 8 1.1 13.1 2.8 5.2 1.7 8.9 3.3 11.2 4.7l6.3 4 8.9-56 4.9-67c0-1.7.1-5 .4-10s-.4-8.4-2-10.4c-1.1-1.1-2.9-2.1-5.3-2.9-2.4-.9-5.8-1.3-10.1-1.4-4.3-.1-6.8-.1-7.4-.1-3 .2-16.4 1.2-40.3 3l-28.4 2.1-9.4.9-1.6 31zm-21.8-43.6l1.2-53.9c0-5-.2-9.1-.7-12.3-.5-3.2-1.2-7.2-2.1-12.1l-1.2-5.2c-5 .6-11 1.3-17.9 2-7 .7-13.2 1.3-18.9 1.8l-15.5 1.4c3.6 1.7 6.2 3.3 7.7 4.8 1.6 1.5 2.5 2.9 2.8 4.3.3 1.4.1 3.6-.7 6.6-.8 3-1.3 5.2-1.4 6.8-.2 1.6-.3 7.7-.5 18.3l-1.4 22.3-.5 10.1-.7 10.1 49.8-5z"/></g></svg>