<svg xmlns="http://www.w3.org/2000/svg" viewBox="0 0 760 640"><path fill="none" stroke="#999" stroke-width="2" stroke-miterlimit="10" d="M20.5 601h340m40 0h340"/><path fill="#999" d="M19.5 593h2v16h-2zm720 0h2v16h-2z"/><path d="M375.2 610v-4.2H368v-1.4l7-10h2.3v9.7h2.2v1.7h-2.2v4.2h-2.1zm0-5.9v-5.2c0-.8 0-1.6.1-2.4h-.1c-.5.9-.9 1.6-1.3 2.3L370 604h5.2zm15-7.9h-6l-.6 4c.4 0 .7-.1 1.3-.1 1.2 0 2.4.3 3.4.8 1.2.7 2.2 2 2.2 4 0 3-2.4 5.3-5.8 5.3-1.7 0-3.1-.5-3.9-1l.5-1.6c.6.4 1.9.9 3.3.9 2 0 3.7-1.3 3.7-3.4 0-2-1.4-3.5-4.5-3.5-.9 0-1.6.1-2.2.2l1-7.5h7.5v1.9z"/><path fill="none" stroke="#999" stroke-width="2" stroke-miterlimit="10" d="M20.5 578h220m40 0h220"/><path fill="#999" d="M19.5 570h2v16h-2zm480 0h2v16h-2z"/><path d="M249.1 584.6c.6.4 2 1 3.5 1 2.7 0 3.6-1.7 3.5-3 0-2.2-2-3.1-4-3.1h-1.2v-1.6h1.2c1.5 0 3.5-.8 3.5-2.6 0-1.2-.8-2.4-2.7-2.4-1.2 0-2.4.6-3.1 1l-.6-1.5c.8-.6 2.4-1.2 4.1-1.2 3.1 0 4.5 1.8 4.5 3.7 0 1.6-1 3-2.9 3.7 1.9.4 3.5 1.8 3.5 4 0 2.5-1.9 4.7-5.7 4.7-1.8 0-3.3-.6-4.1-1.1l.5-1.6zm22.2-5.6c0 5.3-2 8.2-5.4 8.2-3 0-5.1-2.9-5.2-8 0-5.2 2.3-8.1 5.4-8.1 3.3 0 5.2 3 5.2 7.9zm-8.5.3c0 4.1 1.2 6.4 3.2 6.4 2.2 0 3.2-2.5 3.2-6.5 0-3.8-1-6.4-3.2-6.4-1.8 0-3.2 2.2-3.2 6.5z"/><g><path fill="none" stroke="#999" stroke-width="2" stroke-miterlimit="10" d="M500.5 578h100m40 0h100"/><path fill="#999" d="M499.5 570h2v16h-2zm240 0h2v16h-2z"/><path d="M613.2 573.4l-2.8 1.5-.4-1.6 3.4-1.8h1.8V587h-2v-13.6zm17-.2h-6l-.6 4c.4 0 .7-.1 1.3-.1 1.2 0 2.4.3 3.4.8 1.2.7 2.2 2 2.2 4 0 3-2.4 5.3-5.8 5.3-1.7 0-3.1-.5-3.9-1l.5-1.6c.6.4 1.9.9 3.3.9 2 0 3.7-1.3 3.7-3.4 0-2-1.4-3.5-4.5-3.5-.9 0-1.6.1-2.2.2l1-7.5h7.5v1.9z"/></g><g><path fill="none" stroke="#999" stroke-width="2" stroke-miterlimit="10" d="M660.5 58h30m20 0h30"/><path fill="#999" d="M659.5 50h2v16h-2zm80 0h2v16h-2z"/><path fill="none" d="M694.5 46.5h13.9v30.4h-13.9z"/><path d="M704.9 52.8h-6l-.6 4c.4 0 .7-.1 1.3-.1 1.2 0 2.4.3 3.4.8 1.2.7 2.2 2 2.2 4 0 3-2.4 5.3-5.8 5.3-1.7 0-3.1-.5-3.9-1l.5-1.6c.6.4 1.9.9 3.3.9 2 0 3.7-1.3 3.7-3.4 0-2-1.4-3.5-4.5-3.5-.9 0-1.6.1-2.2.2l1-7.5h7.5v1.9z"/><g><path fill="none" stroke="#999" stroke-width="2" stroke-miterlimit="10" d="M516.5 58h62m20 0h62"/><path fill="#999" d="M515.5 50h2v16h-2zm144 0h2v16h-2z"/><path d="M583.8 65.5c.5 0 1 0 1.7-.1 1.2-.2 2.4-.7 3.3-1.5 1-.9 1.8-2.3 2.1-4.2h-.1c-.9 1.1-2.1 1.7-3.7 1.7-2.8 0-4.6-2.1-4.6-4.8 0-3 2.1-5.5 5.3-5.5s5.2 2.6 5.2 6.6c0 3.4-1.2 5.8-2.7 7.3-1.2 1.2-2.9 1.9-4.5 2.1-.8.1-1.4.1-1.9.1v-1.7zm.8-9c0 1.9 1.2 3.3 3 3.3 1.4 0 2.5-.7 3.1-1.6.1-.2.2-.4.2-.8 0-2.7-1-4.7-3.2-4.7-1.8 0-3.1 1.6-3.1 3.8z"/></g></g><g stroke-miterlimit="10"><g fill="#eee" stroke="#999"><path d="M516.5 257.1h144v144h-144z"/><path stroke-width="2" d="M516.5 401h144m-144-144h144"/></g><g fill="#eee" stroke="#999"><path d="M660.5 224.1h80v80h-80z"/><path stroke-width="2" d="M660.5 224h80m-80 80h80"/></g><g fill="#eee" stroke="#999"><path d="M516.5 209.1h144v32h-144z"/><path stroke-width="2" d="M516.5 209h144m-144 32h144"/></g><path d="M180 560V80m161 480V80M20.5 239.5h480m-480 161h480" fill="none" stroke="#ccc"/><g fill="none" stroke="#999" stroke-width="2"><path d="M20.5 80.1h720v480h-720z"/><path d="M20.5 80.1h480v480h-480zM660.5 560V80m-144 480V80"/></g></g><g><path d="M630.4 274.3c3.2 3.5 4.8 6.5 4.8 8.6 0 2-1.1 3.7-3.4 4.9-2.8.7-6 3.8-9.7 9.3-7.9 11-14.8 19-20.8 24.2-2.1 2-3.2 5.1-3.2 9.4 0 24.9.3 40.5.8 46.5.1 2.8.3 4.4.3 4.5 0 2.1-.7 4.5-2.2 7.2-1 1.5-1.8 2.2-2.8 2.2-1.4 0-3.1-1.4-5.1-4.1s-3-5.2-3-7.3l.7-7.2c.4-3.7.6-15.2.6-34.6 0-5.8-1.4-10.1-4.2-13.1-10.8-10.4-20.4-20.7-29-30.9-3.5-4.5-6.3-7.7-8.7-9.8-2.4-1.8-3.7-3.2-3.7-3.9 0-1.8.6-3 1.8-3.5 2-.7 4.4-1.1 7.2-1.1 4.4 0 7.2.4 8.4 1.3 1.4.7 2.7 2.7 3.8 5.9 1.1 4.1 5.1 10.3 11.8 18.8 6 8.3 12.1 14.8 18.1 19.5 5.2-6.8 10.3-14.8 15.3-24.2 5.2-9.4 8.6-17 10.4-22.9 1-2.7 2.4-4.1 4.1-4.1 2.3 0 4.9 1.4 7.7 4.4zM591 236.4c-3.1 0-5.9-1.1-8.2-3.3s-3.3-5.1-3.3-8.2c0-3.1 1.1-5.8 3.3-8.1 2.3-2.3 5.1-3.5 8.2-3.5 3.1 0 5.8 1.2 8.1 3.5s3.5 5 3.5 8.1c0 3.1-1.2 5.9-3.5 8.2s-5 3.3-8.1 3.3zm-515.9-2.3c2.2-.5 8-2.3 17.5-5.6s16.5-6.4 21.1-9.3c4.6-2.9 7.4-4.5 8.3-4.8 2.3-.5 5.4-.2 9.3.9 3.8 1.1 8.6 3.2 14.2 6.2s8.5 5.7 8.7 8.1c.2 2.3-.8 5.5-2.8 9.4-1.7 3.1-3.1 6.2-4.1 9.1-1 3-2.7 8.5-5.2 16.5-2.4 8-3.9 13.6-4.3 16.5l-6.1 30.5c2.2 1.4 4.1 2.9 5.7 4.3 1.6 1.5 2.2 3 1.8 4.6-.5 1.6-1.8 2.5-4 2.8l-56.2 8c-.6 3.4-1.1 6.1-1.4 7.9-.3 1.8-.8 3.5-1.5 5.2s-1.9 2.8-3.6 3.4c-1.7.6-3.8-.4-6.3-3-1.7-1.6-3-3.8-3.8-6.6-.8-2.8-1.8-8.7-3-17.8l-7-49.9c-.6-4.2-2-8.7-4-13.6-2-4.8-4.6-9-7.7-12.4-3.1-3.4-4.9-5.9-5.3-7.5-.4-1.6-.3-2.9.4-4 .6-1.1 3-1.5 7.3-1.2 6.1.8 10.2 1.3 12.2 1.6l11 2.3c3.5-.6 6.6-1.2 8.8-1.6zm2.5 82.7c6.9-1.2 12.1-2.3 15.7-3.3l13.4-3.3 7-1.2 5.6-38.9 1.9-19c.5-4.4.6-7.6.4-9.7s-.9-3.7-1.9-4.7c-1-1-3.2-1.3-6.4-.8-2.5.5-6.7 1.7-12.7 3.6-5.9 2-10.7 3.4-14.3 4.3l-16.6 4.7 7.9 68.3zm113.8-107.2c.1 5.7.1 9.6.1 11.6l-1.4 22.5-4 167.1-.7 33-.9 18.3c-.5 8.9-1.5 16.4-3.2 22.4-1.6 6-3.7 9.2-6.2 9.5-2.5.3-5.4-1.3-8.7-4.7-3.1-3-5.7-7.3-7.9-12.9s-3.4-10-3.8-13.2c-.4-3.2 0-7.6 1.1-13.2l2.6-13.8c.8-4.5 2.1-15.3 3.9-32.2 1.8-17 3-28.5 3.5-34.7.5-6.2 1-15.2 1.3-27.1l2.1-84.4c.3-18.4-.2-32.8-1.6-43.2-1.4-10.4-2.5-17-3.3-19.9-.8-2.9-2.1-5.9-3.9-8.9-1.8-3-2.8-5.4-2.9-7-.2-1.6.3-3.1 1.4-4.3 1.1-1.2 3.8-1.6 8.2-.9 4.5.9 8.5 2 12 3l9.8 3.5c6.2-2.2 10.4-3.7 12.4-4.6 2-.9 7.3-3.2 15.9-7 8.6-3.8 14.5-6.7 17.7-8.7 3.2-2 5.5-3.1 6.9-3.4 3-.6 6-.3 9 1.1 3 1.3 7.4 3.4 13.1 6.3 5.7 2.9 9.2 5.2 10.5 7 1.3 1.8 2 3.2 2 4.3-.2.9-.7 2.3-1.8 4-1 1.7-3.8 4.5-8.2 8.4-4.5 3.9-9.3 8.5-14.5 13.7-5.2 5.2-9.6 10.1-13.2 14.6-3.6 4.5-6.3 8.8-8 12.7-1.7 3.9-2.6 7.1-2.7 9.5-.1 2.4.6 5.1 2 8.1 1.4 3.4 4.6 8.3 9.7 14.6 5.1 6.3 8.7 11.1 10.8 14.3 2.1 3.2 4.1 7.1 6 11.8s3.1 9.9 3.6 15.7c.5 5.8-.4 11.4-2.7 16.9-2 4.7-4.9 8.6-8.7 11.6s-6.6 4.5-8.7 4.3c-2 0-4.8-1.9-8.4-5.6-3.6-3.8-8.3-7.9-14.1-12.3-5.8-4.5-9.6-7.4-11.5-8.8l-7-4.7c-1.6-.9-1.9-2.1-1.1-3.5.9-1.4 2.4-2 4.6-1.6l9.6 1.6 9.4.9c3.8.6 6.2.5 7.4-.2 1.2-.8 2.1-2.2 2.7-4.2.6-2 .8-4.5.5-7.5-.5-3.1-1.1-6.6-2-10.3-.9-3.8-3.2-9.5-7.1-17.3l-8-15.2c-2-3.6-3.1-6.5-3.2-8.8-.1-2.3.9-5.7 2.9-10.2 2.3-5.2 5.2-11 8.7-17.6 3.4-6.6 5.5-10.6 6.2-12.1.7-1.5 1.6-3.6 2.6-6.4 1-2.8 1.2-4.8.6-5.9-.6-1.1-3.1-1.3-7.5-.7-2.7.5-6.4 1.3-11.2 2.6l-22.7 6.1v16zm236.9-2.9c2.8 1.2 4.8 2.3 5.9 3.4 1.1 1.1 1.9 2.3 2.5 3.8.5 1.4.4 3.8-.6 7.3l-1.9 6.8c-1.1 4.7-1.7 9.1-1.8 13.1-.1 4.1-.1 18-.1 42v85.8c0 3.1.4 14.6 1.3 34.5.9 19.8 1.2 35.2 1.1 46.2-.5 16.9-2.2 28.7-5.2 35.6-3 6.9-6.5 12.9-10.7 18-4.1 5.2-7.9 7.6-11.4 7.3-.9 0-2.2-.3-3.8-.9-1.6-.6-3.8-3-6.7-7-2.9-4.1-7-9.1-12.4-15s-10.1-10.5-14.2-13.8l-10.5-8.2c-3.4-2.3-5-4.1-4.8-5.3s.8-2 1.6-2.5c.9-.5 3.1-.3 6.7.5l13.8 3.5c5 1.3 10 2 15 2.3 5 .3 8 .1 8.9-.7.5-.5 1.2-2.4 2.3-5.7 1.1-3.4 1.8-8.7 2.2-16.1.4-7.3.7-17.3 1.1-29.8l.9-41.7c.8-36.2.9-61.2.5-75-.5-13.7-1.1-26.6-1.9-38.4l-1.6-21.3c-.8-8.6-2-15-3.5-19.2l-4.5-12c-14.8 2.2-25.9 3.8-33 4.9l-29.3 5.4c-18 3.3-30 5.6-36.1 7s-10.9 2-14.3 1.6c-4.1-.2-8.2-1-12.3-2.5-4.1-1.5-7.2-3.3-9.1-5.4-2-2.1-2.7-3.8-2.3-4.9.4-1.2 2.5-2.1 6.2-2.9l14.8-2.6c5.6-.9 17.1-2.5 34.3-4.8 17.3-2.3 32.7-4.5 46.4-6.7 13.7-2.2 26.8-4.4 39.4-6.7 12.6-2.3 22-4.1 28.2-5.4 6.2-1.3 12.2-2.7 17.9-4.1 5.7-1.4 10-2 12.8-1.9 2.8.3 7.1 1.6 12.9 4 5.8 2.3 10.5 4.7 14.2 7 3.7 2.3 5.4 4.2 5 5.6-.3 1.4-1.3 2.7-3 3.8-1.7 1.1-5.3 1.8-10.8 2.1l-15 .9-27.7 1.6-21.8 1.9c6.8 2 11.6 3.5 14.4 4.6zM358 339.3c1.7 1.7 2.3 3.2 1.8 4.5-.5 1.3-4.4 2.1-11.6 2.6l-42.7 3.3c-.6 3.1-1.1 5.9-1.5 8.4-.4 2.5-1.1 4-2.2 4.6-1.1.5-2.4.4-4-.6-1.6-.9-3.1-3-4.6-6.1-1.5-3.1-2.6-7.9-3.4-14.3l-4.7-35.2c-.9-6.6-1.9-10.9-2.8-12.9L275 283c-1.7-3.4-2.1-5.6-1.2-6.6s3-1.3 6.3-1.2c4.8.5 7.5.7 8 .7l8.7 2.6L327 271c4.1-.9 7.6-2.3 10.5-4.2l5.6-3.5c1.2-.6 2.4-1 3.5-1.2 1.7-.2 5.2 1 10.3 3.5l10.3 5.2c4.4 3 6.4 5.7 6.1 8.2-.2.9-.7 2.2-1.8 3.8-1 1.6-2.6 4.4-4.8 8.6-2.2 4.1-4 8.2-5.4 12.1l-4.5 15.2-5.2 16.6c2.6.9 4.6 2.3 6.4 4zm-24.2-8.7c1.7-5 3-9.1 3.9-12.4.9-3.3 1.6-7.9 2.3-13.9.7-6 1.2-10.7 1.5-14.1.3-3.4.1-5.6-.7-6.8-.8-1.2-2.6-1.5-5.4-.9-2.8.5-7.3 1.6-13.4 3.2l-20.2 5.2c.2 2.5.3 4.4.5 5.6l1.2 18.5 1.4 20.9 28.9-5.3z"/></g></svg>