<?xml version="1.0" encoding="utf-8"?>
<!-- Generator: Adobe Illustrator 19.0.0, SVG Export Plug-In . SVG Version: 6.00 Build 0)  -->
<svg version="1.1" id="圖層_1" xmlns="http://www.w3.org/2000/svg" xmlns:xlink="http://www.w3.org/1999/xlink" x="0px" y="0px"
	 viewBox="82 100.9 760 640" style="enable-background:new 82 100.9 760 640;" xml:space="preserve">
<style type="text/css">
	.st0{fill:none;stroke:#CCCCCC;stroke-miterlimit:10;}
	.st1{fill:none;stroke:#999999;stroke-width:2;stroke-miterlimit:10;}
	.st2{fill:#EEEEEE;stroke:#999999;stroke-width:2;stroke-miterlimit:10;}
	.st3{fill:#999999;}
</style>
<g>
	<g>
		<path class="st0" d="M262,660.9v-480 M423,660.9v-480 M102.5,340.4h480 M102.5,501.4h480"/>
	</g>
	<g>
		<path class="st1" d="M102.5,181h720v480h-720V181z"/>
		<path class="st1" d="M102.5,181h480v480h-480V181z M702.5,660.9v-480"/>
	</g>
	<g>
		<path class="st2" d="M582.5,301h120v120h-120V301z M582.5,420.9h120 M582.5,300.9h120"/>
	</g>
	<g>
		<path class="st2" d="M582.5,421h120v120h-120V421z M582.5,540.9h120 M582.5,420.9h120"/>
	</g>
	<g>
		<path class="st2" d="M702.5,421h120v120h-120V421z M702.5,540.9h120 M702.5,420.9h120"/>
	</g>
</g>
<path class="st1" d="M102.5,701.9h330 M492.5,701.9h330"/>
<path class="st3" d="M101.5,693.9h2v16h-2V693.9z M821.5,693.9h2v16h-2V693.9z"/>
<path d="M443.2,697.3l-2.8,1.5l-0.4-1.6l3.4-1.8h1.8v15.5h-2V697.3z M460.2,697.1h-6l-0.6,4c0.4,0,0.7-0.1,1.3-0.1
	c1.2,0,2.4,0.3,3.4,0.8c1.2,0.7,2.2,2,2.2,4c0,3-2.4,5.3-5.8,5.3c-1.7,0-3.1-0.5-3.9-1l0.5-1.6c0.6,0.4,1.9,0.9,3.3,0.9
	c2,0,3.7-1.3,3.7-3.4c0-2-1.4-3.5-4.5-3.5c-0.9,0-1.6,0.1-2.2,0.2l1-7.5h7.5v1.9L460.2,697.1z M473.6,702.9c0,5.3-2,8.2-5.4,8.2
	c-3,0-5.1-2.9-5.2-8c0-5.2,2.3-8.1,5.4-8.1C471.7,695,473.6,698,473.6,702.9L473.6,702.9z M465.1,703.2c0,4.1,1.2,6.4,3.2,6.4
	c2.2,0,3.2-2.5,3.2-6.5c0-3.8-1-6.4-3.2-6.4C466.5,696.7,465.1,698.9,465.1,703.2z M485.9,702.9c0,5.3-2,8.2-5.4,8.2
	c-3,0-5.1-2.9-5.2-8c0-5.2,2.3-8.1,5.4-8.1C484.1,695,485.9,698,485.9,702.9L485.9,702.9z M477.5,703.2c0,4.1,1.2,6.4,3.2,6.4
	c2.2,0,3.2-2.5,3.2-6.5c0-3.8-1-6.4-3.2-6.4C478.8,696.7,477.5,698.9,477.5,703.2z"/>
<g>
	<path class="st1" d="M102.5,678.9h210 M372.5,678.9h210"/>
	<path class="st3" d="M101.5,670.9h2v16h-2V670.9z M581.5,670.9h2v16h-2V670.9z"/>
	<g>
		<path d="M323.2,674.3l-2.8,1.5l-0.4-1.6l3.4-1.8h1.8v15.5h-2V674.3z M341.3,679.9c0,5.3-2,8.2-5.4,8.2c-3,0-5.1-2.9-5.2-8
			c0-5.2,2.3-8.1,5.4-8.1C339.4,672,341.3,675,341.3,679.9L341.3,679.9z M332.8,680.2c0,4.1,1.2,6.4,3.2,6.4c2.2,0,3.2-2.5,3.2-6.5
			c0-3.8-1-6.4-3.2-6.4C334.2,673.7,332.8,675.9,332.8,680.2z M353.6,679.9c0,5.3-2,8.2-5.4,8.2c-3,0-5.1-2.9-5.2-8
			c0-5.2,2.3-8.1,5.4-8.1C351.7,672,353.6,675,353.6,679.9L353.6,679.9z M345.1,680.2c0,4.1,1.2,6.4,3.2,6.4c2.2,0,3.2-2.5,3.2-6.5
			c0-3.8-1-6.4-3.2-6.4C346.5,673.7,345.1,675.9,345.1,680.2z M365.9,679.9c0,5.3-2,8.2-5.4,8.2c-3,0-5.1-2.9-5.2-8
			c0-5.2,2.3-8.1,5.4-8.1C364.1,672,365.9,675,365.9,679.9L365.9,679.9z M357.5,680.2c0,4.1,1.2,6.4,3.2,6.4c2.2,0,3.2-2.5,3.2-6.5
			c0-3.8-1-6.4-3.2-6.4C358.8,673.7,357.5,675.9,357.5,680.2z"/>
	</g>
</g>
<g>
	<path class="st1" d="M582.5,678.9h90 M732.5,678.9h90"/>
	<path class="st3" d="M581.5,670.9h2v16h-2V670.9z M821.5,670.9h2v16h-2V670.9z"/>
	<g>
		<path d="M693.9,674.1h-6l-0.6,4c0.4,0,0.7-0.1,1.3-0.1c1.2,0,2.4,0.3,3.4,0.8c1.2,0.7,2.2,2,2.2,4c0,3-2.4,5.3-5.8,5.3
			c-1.7,0-3.1-0.5-3.9-1l0.5-1.6c0.6,0.4,1.9,0.9,3.3,0.9c2,0,3.7-1.3,3.7-3.4c0-2-1.4-3.5-4.5-3.5c-0.9,0-1.6,0.1-2.2,0.2l1-7.5
			h7.5L693.9,674.1L693.9,674.1z M707.3,679.9c0,5.3-2,8.2-5.4,8.2c-3,0-5.1-2.9-5.2-8c0-5.2,2.3-8.1,5.4-8.1
			C705.4,672,707.3,675,707.3,679.9L707.3,679.9z M698.8,680.2c0,4.1,1.2,6.4,3.2,6.4c2.2,0,3.2-2.5,3.2-6.5c0-3.8-1-6.4-3.2-6.4
			C700.2,673.7,698.8,675.9,698.8,680.2z M719.6,679.9c0,5.3-2,8.2-5.4,8.2c-3,0-5.1-2.9-5.2-8c0-5.2,2.3-8.1,5.4-8.1
			C717.7,672,719.6,675,719.6,679.9L719.6,679.9z M711.1,680.2c0,4.1,1.2,6.4,3.2,6.4c2.2,0,3.2-2.5,3.2-6.5c0-3.8-1-6.4-3.2-6.4
			C712.5,673.7,711.1,675.9,711.1,680.2z"/>
	</g>
</g>
<g>
	<path class="st1" d="M702.5,158.9h40 M782.5,158.9h40"/>
	<path class="st3" d="M701.5,150.9h2v16h-2V150.9z M821.5,150.9h2v16h-2V150.9z"/>
	<g>
		<path d="M744.6,167.9v-1.3l1.7-1.6c4-3.8,5.8-5.8,5.8-8.2c0-1.6-0.8-3-3.1-3c-1.4,0-2.6,0.7-3.3,1.3l-0.7-1.5
			c1.1-0.9,2.6-1.6,4.4-1.6c3.4,0,4.8,2.3,4.8,4.5c0,2.9-2.1,5.2-5.4,8.4l-1.2,1.2h7v1.8H744.6z M766.2,154.1h-6l-0.6,4
			c0.4,0,0.7-0.1,1.3-0.1c1.2,0,2.4,0.3,3.4,0.8c1.2,0.7,2.2,2,2.2,4c0,3-2.4,5.3-5.8,5.3c-1.7,0-3.1-0.5-3.9-1l0.5-1.6
			c0.6,0.4,1.9,0.9,3.3,0.9c2,0,3.7-1.3,3.7-3.4c0-2-1.4-3.5-4.5-3.5c-0.9,0-1.6,0.1-2.2,0.2l1-7.5h7.5L766.2,154.1L766.2,154.1z
			 M779.6,159.9c0,5.3-2,8.2-5.4,8.2c-3,0-5.1-2.9-5.2-8c0-5.2,2.3-8.1,5.4-8.1C777.7,152,779.6,155,779.6,159.9z M771.1,160.2
			c0,4.1,1.2,6.4,3.2,6.4c2.2,0,3.2-2.5,3.2-6.5c0-3.8-1-6.4-3.2-6.4C772.5,153.7,771.1,155.9,771.1,160.2z"/>
	</g>
</g>
<g>
	<path class="st1" d="M582.5,158.9h40 M662.5,158.9h40"/>
	<path class="st3" d="M581.5,150.9h2v16h-2V150.9z M701.5,150.9h2v16h-2V150.9z"/>
	<g>
		<path d="M624.6,167.9v-1.3l1.7-1.6c4-3.8,5.8-5.8,5.8-8.2c0-1.6-0.8-3-3.1-3c-1.4,0-2.6,0.7-3.3,1.3l-0.7-1.5
			c1.1-0.9,2.6-1.6,4.4-1.6c3.4,0,4.8,2.3,4.8,4.5c0,2.9-2.1,5.2-5.4,8.4l-1.2,1.2h7v1.8H624.6z M646.2,154.1h-6l-0.6,4
			c0.4,0,0.7-0.1,1.3-0.1c1.2,0,2.4,0.3,3.4,0.8c1.2,0.7,2.2,2,2.2,4c0,3-2.4,5.3-5.8,5.3c-1.7,0-3.1-0.5-3.9-1l0.5-1.6
			c0.6,0.4,1.9,0.9,3.3,0.9c2,0,3.7-1.3,3.7-3.4c0-2-1.4-3.5-4.5-3.5c-0.9,0-1.6,0.1-2.2,0.2l1-7.5h7.5L646.2,154.1L646.2,154.1z
			 M659.6,159.9c0,5.3-2,8.2-5.4,8.2c-3,0-5.1-2.9-5.2-8c0-5.2,2.3-8.1,5.4-8.1C657.7,152,659.6,155,659.6,159.9z M651.1,160.2
			c0,4.1,1.2,6.4,3.2,6.4c2.2,0,3.2-2.5,3.2-6.5c0-3.8-1-6.4-3.2-6.4C652.5,153.7,651.1,155.9,651.1,160.2z"/>
	</g>
</g>
<g>
	<path d="M649.4,474.1c14.2-1.5,23.4-3,27.7-4.6c2.1-1.1,3.4-1.4,3.8-1.3c0.9-0.1,2.9,1.1,5.9,3.6c2.1,2.1,3.2,3.6,3.2,4.6l0.1,0.2
		c0,0.8-0.5,1.2-1.5,1.2h-2c-1.4-0.1-3,0.4-4.8,0.4c-4.5-0.1-11.8,0.5-22.3,1.6c-16.1,1.8-30.1,3.2-42.4,4.1
		c-5.3,0.1-9.1,0.8-11.8,1.9c-1.8,0.5-2.7,0.7-3,0.7c-1.6,0-3.6-1.2-6-3.6s-3.5-4.6-3.6-6.3l-0.1-0.4c-0.1-1.2,0.2-1.8,1.3-1.8
		l0.1-0.1c0.1,0,1.4,0.2,2,0.4c2.7,1.1,7.5,1.6,14.5,1.6C622.1,476.3,635.2,475.6,649.4,474.1L649.4,474.1z M623.6,317
		c2,1.8,2.9,3.4,2.9,4.8c0,0.4-0.4,0.9-0.9,2c-2.6,3.6-5.2,9.3-7.9,16.6c-1.3,3.8-2,6-2,6.7c0,0.9,0.6,1.4,1.9,1.4l2.6-0.6l16.3-4.2
		c3-10.4,4.7-21,5-31.6c0.2-3.5,1.8-5.3,4.7-5.3c4.1,0,7,1.8,7,4.7c0,2.2-0.8,6.7-2.5,13.5c-1.6,6.7-3.2,12.2-4.5,16.3l16.3-4.1
		c1.9-0.6,3.9-1.6,6-2.9c2-1.1,3.2-1.6,3.4-1.6c1.1,0,3,1.1,5.7,3.3c2.7,2.1,4.1,3.8,4.1,4.8c0,0.4-0.1,0.9-0.5,1.5
		c-0.4,1.3-0.8,5.4-1.3,12.5c-2.1,22.9-7.6,38.6-16.5,47.3c-3.9,3.9-7.1,5.7-9.8,5.7c-2,0-3.3-0.7-3.6-2.2c-0.5-1.3-2.1-3.5-4.8-6.4
		c-2.8-2.9-4.2-4.6-4.2-4.9c0.1-0.4,0.2-0.5,0.5-0.5l3.5,0.8c2.7,0.8,4.9,1.2,6.8,1.2c2.9,0,5.6-1.2,7.9-3.4
		c2.7-2.9,5.5-9.4,8.4-19.3s4.3-19.1,4.3-27.2c0-2.5-0.9-3.8-2.8-3.9c-3.4,0-11.8,1.9-25.4,5.5c-9,25.4-21.6,43-37.5,53
		c-1.9,1.2-2.9,1.8-3.2,1.8c-0.4,0-0.5-0.1-0.5-0.5s0.5-1.2,1.3-2.2c6.1-6.2,12.1-14.3,17.9-24.3c5.5-9,9.6-17.5,12.2-25.1
		c-11.6,3.2-18.6,5.5-21.1,6.8c-1.9,0.9-3,1.4-3.5,1.4c-0.6,0-1.8-0.8-3.4-2.3c-1.6-1.6-2.5-2.7-2.5-3.3s0.4-1.8,1.1-3.3
		c3.6-5.3,6.4-11.1,8.3-17.3c2.5-6.3,3.8-11.5,3.8-15.5c0-1.5,0.5-2.3,1.4-2.3C620,314.3,621.6,315.3,623.6,317L623.6,317z
		 M269.8,376.9c-7.3,1.6-12.1,2.7-14.3,3.4c-2.2,0.7-5.3,2-9.4,3.9c-4.1,1.9-7.7,3-11,3.3s-8.3-1.9-15-6.6
		c-5.6-3.8-9.3-6.1-10.9-6.9c-1.6-0.9-3-2-4.2-3.5c-1.2-1.5-1.5-2.7-0.9-3.6c0.5-0.9,3.1-1.6,7.6-2.1l8.9-0.7
		c0.6,0,6.1-0.6,16.4-1.9l26.7-2.6c10.9-1.1,21.8-2.7,32.6-4.7l14.3-2.6c1.9-7.5,3.1-12.9,3.8-16.3c0.6-3.4,2-12.3,4.1-26.7
		c2.1-14.5,3.2-24.7,3.3-30.8c0.1-6.1-0.1-12-0.6-17.6c-0.8-6.6-2.1-12-4-16.4c-1.9-4.4-2.7-7.5-2.6-9.4c0.2-1.9,1.1-3.5,2.7-4.8
		c1.6-1.3,4.6-1.8,9-1.3c6.6,0.9,12.2,2.5,17,4.8s9.2,4.6,13.4,7c4.1,2.4,7.1,4.7,8.8,6.9c1.7,2.2,2.6,4.4,2.6,6.6
		c-0.2,1.3-1.4,4.4-3.8,9.4c-2.3,5-4.1,9.1-5.3,12.3c-1.2,3.2-2.7,9.4-4.5,18.5s-3.1,15.7-3.9,19.8l-6.8,32.8l45.7-9.4
		c12.2-2.5,20.9-4.4,26-5.7c5.2-1.3,11-3.2,17.6-5.5c6.6-2.3,11.3-3.5,14.3-3.5c2.8,0.2,6.8,1.4,11.8,3.6c5.1,2.3,9.3,4.6,12.7,6.9
		c3.4,2.3,7.1,5.2,11.4,8.7c4.2,3.4,6.9,6.2,8.1,8.3s1.8,4,1.9,5.6s-1.8,5.2-5.7,10.7c-2.2,3.1-4.1,6.7-5.6,10.7
		c-1.6,4-3.4,9.6-5.5,16.8c-2.1,7.2-3.6,13.1-4.3,17.8L455,510.7c-2.3,13-5.3,25-8.9,36s-8.6,22-15.1,32.9
		c-6.5,10.9-13.2,19.3-20.2,25.2s-12.6,9.5-17,10.9c-4.4,1.4-7.6,1.7-9.6,0.9c-2-0.5-3.8-1.6-5.3-3.4c-1.5-1.8-4.2-7.1-8.1-15.9
		s-8.4-16.8-13.4-23.9c-5-7.1-8.8-12.4-11.5-15.8l-3.3-4c-1.7-1.9-2.1-3.1-1.1-3.8c1-0.6,2.6-0.6,4.8,0l7,2.6
		c2.7,1.1,7.2,3.5,13.7,7.3s12.1,5.6,16.8,5.6c3.6,0.2,7.1-0.7,10.7-2.7s7.1-6.2,10.8-12.7c3.7-6.5,7.3-15.2,10.9-26.1
		c3.6-10.9,7.3-28.4,11-52.3l7-46.2c2.8-18.6,4.6-31.1,5.4-37.6s1.2-12.7,1.2-18.6c-0.2-3.4-0.7-6.3-1.8-8.7c-1-2.3-3.4-4.4-7-6.1
		c-3.7-1.7-9.7-2.5-18.2-2.2c-8.5,0.3-14.5,0.6-18,1.1l-55.3,8.9c-2.5,9.7-4.8,18.4-6.9,26c-2.1,7.7-4.8,16.6-8.2,26.8
		c-3.4,10.2-7.8,22.1-13.4,35.7c-5.5,13.6-11.7,26.2-18.4,37.7c-6.7,11.6-13.8,22.3-21.1,32.3c-7.3,10-15.2,19.4-23.7,28.2
		c-8.4,8.8-18,17-28.7,24.4c-10.7,7.4-21,13.3-30.9,17.6c-9.9,4.3-18.8,7.5-26.6,9.5l-7.3,1.9c-1.4,0.5-2.6,0.2-3.6-0.9
		c-1-1.1-0.4-2.5,1.8-4.2l5.2-3.8c10.3-7.5,17.8-13,22.5-16.6c4.7-3.6,11.3-9.3,19.9-17s16.7-15.8,24.4-24.1
		c7.7-8.4,14.5-16.8,20.6-25.3c6.1-8.5,11.6-17.1,16.5-25.9c4.9-8.7,10.5-19.6,16.8-32.6c6.2-13,11.1-24.2,14.4-33.8
		c3.4-9.5,6.4-19.5,9-30l4.7-19L269.8,376.9L269.8,376.9z M755.4,465.8c2,1.5,3.8,3.5,5.5,5.6c8,10.3,14.1,17.6,18.2,21.9l6.8,7.6
		c2.4,3.2,3.9,4.8,4.4,5.3c1.5,1.5,2,2.6,1.4,3.5c-0.2,0.3-0.5,0.5-1.3,0.5c-0.9,0-2.7-0.7-5.3-2l-7.6-3.8c-3.1-1.7-5.8-3.2-7.8-4.6
		l-14.5-10.4c-6.7-5-10.8-8.8-12.4-11.6c-1.4-2.5-1.9-4.8-1.7-7.3C741.1,464.8,745.5,459.2,755.4,465.8L755.4,465.8z"/>
</g>
</svg>
