<svg xmlns="http://www.w3.org/2000/svg" viewBox="0 0 760 640"><g stroke-miterlimit="10"><g fill="none" stroke="#CCC"><path d="M180 560V80M341 560V80M20.5 239.5h480M20.5 400.5h480"/></g><g fill="none" stroke="#999" stroke-width="2"><path d="M20.5 80.1h720v480h-720z"/><path d="M20.5 80.1h480v480h-480zM620.5 560V80"/></g><g fill="#EEE" stroke="#999" stroke-width="2"><path d="M500.5 200.1h120v120h-120zM500.5 320h120M500.5 200h120"/></g><g fill="#EEE" stroke="#999" stroke-width="2"><path d="M500.5 320.1h120v120h-120zM500.5 440h120M500.5 320h120"/></g><g fill="#EEE" stroke="#999" stroke-width="2"><path d="M620.5 260.1h120v120h-120zM620.5 380h120M620.5 260h120"/></g></g><path fill="none" stroke="#999" stroke-width="2" stroke-miterlimit="10" d="M20.5 601h330M410.5 601h330"/><path fill="#999" d="M19.5 593h2v16h-2zM739.5 593h2v16h-2z"/><path d="M361.2 596.4l-2.8 1.5-.4-1.6 3.4-1.8h1.8V610h-2v-13.6zM378.2 596.2h-6l-.6 4c.4 0 .7-.1 1.3-.1 1.2 0 2.4.3 3.4.8 1.2.7 2.2 2 2.2 4 0 3-2.4 5.3-5.8 5.3-1.7 0-3.1-.5-3.9-1l.5-1.6c.6.4 1.9.9 3.3.9 2 0 3.7-1.3 3.7-3.4 0-2-1.4-3.5-4.5-3.5-.9 0-1.6.1-2.2.2l1-7.5h7.5v1.9zM391.6 602c0 5.3-2 8.2-5.4 8.2-3 0-5.1-2.9-5.2-8 0-5.2 2.3-8.1 5.4-8.1 3.3 0 5.2 3 5.2 7.9zm-8.5.3c0 4.1 1.2 6.4 3.2 6.4 2.2 0 3.2-2.5 3.2-6.5 0-3.8-1-6.4-3.2-6.4-1.8 0-3.2 2.2-3.2 6.5zM403.9 602c0 5.3-2 8.2-5.4 8.2-3 0-5.1-2.9-5.2-8 0-5.2 2.3-8.1 5.4-8.1 3.4 0 5.2 3 5.2 7.9zm-8.4.3c0 4.1 1.2 6.4 3.2 6.4 2.2 0 3.2-2.5 3.2-6.5 0-3.8-1-6.4-3.2-6.4-1.9 0-3.2 2.2-3.2 6.5z"/><g><path fill="none" stroke="#999" stroke-width="2" stroke-miterlimit="10" d="M20.5 578h210M290.5 578h210"/><path fill="#999" d="M19.5 570h2v16h-2zM499.5 570h2v16h-2z"/><g><path d="M241.2 573.4l-2.8 1.5-.4-1.6 3.4-1.8h1.8V587h-2v-13.6zM259.3 579c0 5.3-2 8.2-5.4 8.2-3 0-5.1-2.9-5.2-8 0-5.2 2.3-8.1 5.4-8.1 3.3 0 5.2 3 5.2 7.9zm-8.5.3c0 4.1 1.2 6.4 3.2 6.4 2.2 0 3.2-2.5 3.2-6.5 0-3.8-1-6.4-3.2-6.4-1.8 0-3.2 2.2-3.2 6.5zM271.6 579c0 5.3-2 8.2-5.4 8.2-3 0-5.1-2.9-5.2-8 0-5.2 2.3-8.1 5.4-8.1 3.3 0 5.2 3 5.2 7.9zm-8.5.3c0 4.1 1.2 6.4 3.2 6.4 2.2 0 3.2-2.5 3.2-6.5 0-3.8-1-6.4-3.2-6.4-1.8 0-3.2 2.2-3.2 6.5zM283.9 579c0 5.3-2 8.2-5.4 8.2-3 0-5.1-2.9-5.2-8 0-5.2 2.3-8.1 5.4-8.1 3.4 0 5.2 3 5.2 7.9zm-8.4.3c0 4.1 1.2 6.4 3.2 6.4 2.2 0 3.2-2.5 3.2-6.5 0-3.8-1-6.4-3.2-6.4-1.9 0-3.2 2.2-3.2 6.5z"/></g></g><g><path fill="none" stroke="#999" stroke-width="2" stroke-miterlimit="10" d="M500.5 578h90M650.5 578h90"/><path fill="#999" d="M499.5 570h2v16h-2zM739.5 570h2v16h-2z"/><g><path d="M611.9 573.2h-6l-.6 4c.4 0 .7-.1 1.3-.1 1.2 0 2.4.3 3.4.8 1.2.7 2.2 2 2.2 4 0 3-2.4 5.3-5.8 5.3-1.7 0-3.1-.5-3.9-1l.5-1.6c.6.4 1.9.9 3.3.9 2 0 3.7-1.3 3.7-3.4 0-2-1.4-3.5-4.5-3.5-.9 0-1.6.1-2.2.2l1-7.5h7.5v1.9zM625.3 579c0 5.3-2 8.2-5.4 8.2-3 0-5.1-2.9-5.2-8 0-5.2 2.3-8.1 5.4-8.1 3.3 0 5.2 3 5.2 7.9zm-8.5.3c0 4.1 1.2 6.4 3.2 6.4 2.2 0 3.2-2.5 3.2-6.5 0-3.8-1-6.4-3.2-6.4-1.8 0-3.2 2.2-3.2 6.5zM637.6 579c0 5.3-2 8.2-5.4 8.2-3 0-5.1-2.9-5.2-8 0-5.2 2.3-8.1 5.4-8.1 3.3 0 5.2 3 5.2 7.9zm-8.5.3c0 4.1 1.2 6.4 3.2 6.4 2.2 0 3.2-2.5 3.2-6.5 0-3.8-1-6.4-3.2-6.4-1.8 0-3.2 2.2-3.2 6.5z"/></g></g><g><path fill="none" stroke="#999" stroke-width="2" stroke-miterlimit="10" d="M620.5 58h40M700.5 58h40"/><path fill="#999" d="M619.5 50h2v16h-2zM739.5 50h2v16h-2z"/><g><path d="M662.6 67v-1.3l1.7-1.6c4-3.8 5.8-5.8 5.8-8.2 0-1.6-.8-3-3.1-3-1.4 0-2.6.7-3.3 1.3l-.7-1.5c1.1-.9 2.6-1.6 4.4-1.6 3.4 0 4.8 2.3 4.8 4.5 0 2.9-2.1 5.2-5.4 8.4l-1.2 1.2h7V67h-10zM684.2 53.2h-6l-.6 4c.4 0 .7-.1 1.3-.1 1.2 0 2.4.3 3.4.8 1.2.7 2.2 2 2.2 4 0 3-2.4 5.3-5.8 5.3-1.7 0-3.1-.5-3.9-1l.5-1.6c.6.4 1.9.9 3.3.9 2 0 3.7-1.3 3.7-3.4 0-2-1.4-3.5-4.5-3.5-.9 0-1.6.1-2.2.2l1-7.5h7.5v1.9zM697.6 59c0 5.3-2 8.2-5.4 8.2-3 0-5.1-2.9-5.2-8 0-5.2 2.3-8.1 5.4-8.1 3.3 0 5.2 3 5.2 7.9zm-8.5.3c0 4.1 1.2 6.4 3.2 6.4 2.2 0 3.2-2.5 3.2-6.5 0-3.8-1-6.4-3.2-6.4-1.8 0-3.2 2.2-3.2 6.5z"/></g></g><g><path fill="none" stroke="#999" stroke-width="2" stroke-miterlimit="10" d="M500.5 58h40M580.5 58h40"/><path fill="#999" d="M499.5 50h2v16h-2zM619.5 50h2v16h-2z"/><g><path d="M542.6 67v-1.3l1.7-1.6c4-3.8 5.8-5.8 5.8-8.2 0-1.6-.8-3-3.1-3-1.4 0-2.6.7-3.3 1.3l-.7-1.5c1.1-.9 2.6-1.6 4.4-1.6 3.4 0 4.8 2.3 4.8 4.5 0 2.9-2.1 5.2-5.4 8.4l-1.2 1.2h7V67h-10zM564.2 53.2h-6l-.6 4c.4 0 .7-.1 1.3-.1 1.2 0 2.4.3 3.4.8 1.2.7 2.2 2 2.2 4 0 3-2.4 5.3-5.8 5.3-1.7 0-3.1-.5-3.9-1l.5-1.6c.6.4 1.9.9 3.3.9 2 0 3.7-1.3 3.7-3.4 0-2-1.4-3.5-4.5-3.5-.9 0-1.6.1-2.2.2l1-7.5h7.5v1.9zM577.6 59c0 5.3-2 8.2-5.4 8.2-3 0-5.1-2.9-5.2-8 0-5.2 2.3-8.1 5.4-8.1 3.3 0 5.2 3 5.2 7.9zm-8.5.3c0 4.1 1.2 6.4 3.2 6.4 2.2 0 3.2-2.5 3.2-6.5 0-3.8-1-6.4-3.2-6.4-1.8 0-3.2 2.2-3.2 6.5z"/></g></g><g><path d="M685.7 337.3c.9-.6 2.3-3 4.3-7.1s3.5-7.6 4.6-10.3l2.9-7.4c1.5-3.6 2.3-6.3 2.6-8.1l.5-3.2c.5-2.3.9-2.6 3.9-.6 2 1.8 3.3 3.6 4.1 5.6.9 2.2.7 3.4-1.8 6.7-2.2 3.2-4.7 7.6-7.4 13.6-1.5 3.6-3.4 7.5-5.5 11.6l-3.9 8.1c-2.2 4.3-4.5 6.4-6.7 6.1-2 0-3.8-2.1-5.3-6.3-1.5-4.6-3.4-8.7-5.6-12.3l-5.5-8.7c-3.6-5.4-6.9-9.6-9.8-12.5l-1.5-1.4c-.6-.6-.9-1.2-.9-1.5 0-.8 1.2-1.5 3.6-2 4.8 0 8.1.6 10.1 1.9s3.3 3.6 4.1 6.8c.5 1.8 1.2 3.8 2 6.1l2.8 7c1.8 4.3 3.2 6.9 4.3 7.9 1.3.8 2 1.3 2.2 1.3.1-.1.7-.5 1.9-1.3zM520.2 347.1c2 .4 4.1.5 6.6.5 2 0 4-.1 6.1-.5l52.5-6.1c3-.6 5.3-1.3 6.6-1.9 1.4-.6 2.8-.9 4.2-.9 1.3 0 3.2.9 5.4 2.9 2.3 1.9 3.5 3.3 3.5 4.2 0 .8-.6 1.3-1.9 1.3-.6 0-1.6-.1-3.4-.2l-3.2-.2c-7.5.4-15.5 1.1-23.9 1.9l-2.8.4c.1 10.4-.1 18.8-.7 24.8-.5 3.3-3.4 6.8-7.3 6.8-.6 0-1.5-.2-2.8-.7-1.2-.2-2.1-.4-2.8-.4-4.1 0-8 1.6-11.6 4.8-3.2 3.6-4.8 7.5-4.8 11.7 0 6 2.2 11.1 6.7 15.2 4.6 4.1 10.3 6.2 17.2 6.2 9.8 0 18.3-4.5 25.4-13.4 1.3-1.1 2.6-1.6 3.6-1.6 2.3 0 4.2 1.6 4.2 4 0 4.3-3.4 8.7-10.1 12.9-6.7 4.3-14.4 6.4-23.2 6.4-9.4 0-17.2-2.8-23.4-8.3-6.2-6.2-9.4-13.4-9.4-21.4 0-6.8 2.2-12.4 6.6-17 4.8-4.5 11-6.9 18.8-7.5 2.8-.6 4.1-2.2 3.8-4.7l-.9-16.8c-12.9 1.8-22.4 3.5-28.4 5.5-1.6.6-2.9.9-4 .9-1.5 0-3.9-1.3-7.3-4-2.3-2-3.5-3.4-3.5-4 0-.9.8-1.4 2.3-1.4.8.1 1.3.2 1.9.6zM581.2 211.8c2.9 2.9 4.5 5.4 4.5 7.4 0 .6-.7 1.3-2.1 2.1-1.6 1.3-3.4 5.6-5.4 12.9-3.6 10.4-7.1 19-10.5 25.5 7.4 5 15.8 11.8 25.5 20.6 4.1 3.9 6.1 7.9 6.1 12 0 5-.9 7.5-2.8 7.5-1.3 0-4.3-2.7-9.1-8.2-9.3-10.4-17.3-18.6-24-24.6-5.7 8.1-11 14.5-16.1 19.5-6 5.3-12.1 9.5-18.5 12.7-3.6 1.4-5.7 2.1-6.3 2.1h-.5c0-.6.5-1.3 1.4-1.9 10.3-8 18.3-15.7 23.9-23.2 3.2-4.2 6.3-9.1 9.6-14.9-9.5-8.1-18.8-15.1-27.7-21.1l-1.2-.9c0-.4.2-.5.8-.5 1.3 0 4.1.8 8.7 2.5 6 2.8 13.6 7.3 22.9 13.5l2.8-5.5c4.3-10.1 7.5-18.9 9.4-26.5 1.3-4.8 1.5-8.3.9-10.3-.6-1.4-.9-2.3-.9-2.8 0-.6.6-.8 1.9-.8 1.7-.1 4 1 6.7 2.9zM179.6 315.6c-4.4.9-8.9 2-13.6 3-4.7 1.1-10.7 2.6-18.2 4.6-7.4 2-13.6 3.7-18.4 5.3-4.8 1.6-8.3 2.3-10.3 2.3-2.8.2-6.8-.5-12-2.1s-9.6-3.4-13.4-5.4c-3.8-2-6.2-4.3-7.4-6.7-1.2-2.4-1.5-4.1-.9-4.9.5-.9 3.2-1.7 8.1-2.5l17.6-2.6 27-4c13.3-1.9 21.3-3.1 24.1-3.8l17.3-3.3c-.3-4.7-.6-9-.8-12.9-.2-3.9-.7-9.3-1.4-16.2-.7-6.9-1.4-12-2.2-15.2l-2.6-10.5c-4.7 1.6-8.2 2.7-10.5 3.4s-8 2.1-17 4.2-15 3.3-17.9 3.6l-13.8 1.6c-3.6.5-5.7 0-6.4-1.3-.7-1.3.7-2.8 4.3-4.3l12.4-5.4 14.5-5.9c6.9-2.8 14.5-6.5 22.7-11 8.3-4.5 15.3-8.8 21.1-12.8 5.8-4 10.7-7.7 14.9-11.2 4.1-3.5 7.5-6.7 10.1-9.5s4.2-5.2 4.9-7.3c.7-2 1.3-3.4 1.8-4.1s1.6-1.1 3.5-1.3c1.6 0 3.7.7 6.3 2.1 2.7 1.4 5.8 3.3 9.4 5.7 3.6 2.4 6.8 5.1 9.5 8 2.7 2.9 3.9 5.4 3.4 7.6-.5 1.9-1.4 3.2-2.9 4.1-1.5.9-3.5 1.8-6 2.7-2.5.9-4.8 1.9-6.8 2.9s-5.1 2.5-9.1 4.6l-15 7.7-12.4 6.6c3 1.1 5.2 2.1 6.8 2.9 1.6.9 2.9 1.9 4.1 3.2 1.2 1.3 1.9 2.3 2.1 3.2.2.9 0 2.5-.8 4.9-.8 2.4-1.3 4.9-1.6 7.4l-1.4 9.8c-.9 6.7-1.4 11.5-1.4 14.3l-.5 15c7.2-1.1 12.3-1.9 15.4-2.3s12.9-2.3 29.6-5.4l32.6-5.9 13.6-2.6c-1.6-10.3-2.7-18.1-3.3-23.4l-4.5-30-4.7-33.5c-1.3-7.8-2.5-14-3.6-18.5-1.2-4.5-2.7-8.9-4.5-13.2-1.8-4.3-3.7-8.2-5.6-11.7-2-3.5-3-6.2-3.3-8.2-.2-2 .1-3.7 1.1-5.2.9-1.5 3.3-2.3 7-2.5 2.2 0 5.9.7 11 2.1l13.6 3.8c4.1 1.4 7.1 2.9 9.3 4.3 2.1 1.5 3.5 2.9 4.2 4.2.7 1.3 1 2.9.8 4.6-.2.6-.7 2.4-1.6 5.4-.9 3-1.6 6-1.9 9.1-.3 3.1-.4 6.7-.2 10.8 0 4.1.1 8.6.4 13.7.2 5.1.9 16 2 32.8 1.1 16.8 2 27 2.6 30.6l2.8 20.2c6.9-1.1 12.1-2 15.7-2.6l20.9-3.8c9.5-1.4 16.8-2.8 21.7-4.2s8.3-2.1 10.2-2.1c3 .2 5.6.8 8 2s5.3 2.9 8.9 5.3c3.6 2.3 6.1 4.3 7.5 6s2 3 1.9 4.1c-.3 1.1-1.6 2.1-3.8 3.2-2.2 1-5.2 1.7-8.9 2l-16.9 1.2c-5.3.5-13.8 1.4-25.3 2.7-11.6 1.3-17.4 2-17.6 2l-19.9 2.1c1.7 8.4 3.8 17.7 6.1 27.9s5.2 21.7 8.7 34.7c3.4 13 6.6 22.4 9.6 28.4l6.6 14.5c5.3-7 9.6-13 12.9-17.9s6.7-10.8 10.3-17.7c3.6-6.9 6.1-12.5 7.5-16.8 1.4-4.3 2.2-7.8 2.5-10.4.2-2.7-.1-6.1-1.1-10.4-.9-4.3-1.5-7.2-1.6-8.8-.2-1.6.3-2.8 1.3-3.9 1-1 3-1.5 6-1.5 3.9.2 8.2 1.3 12.9 3.5 4.7 2.2 9.5 4.8 14.4 7.9s8.2 5.7 9.8 8.1 2.3 4.3 2 5.9c-.3 1.1-1.2 2.4-2.6 4l-5.2 5.4c-2.7 2.8-5.2 5.7-7.5 8.6-2.3 2.9-4.9 6.3-7.7 10.2l-11.5 16.9c-6.7 9.8-12 17-15.7 21.6L358 418.5c3.6 6.1 7 11.8 10.2 17 3.2 5.2 7.2 11 12.1 17.3 4.8 6.3 9.9 12.1 15.2 17.5 5.3 5.3 10.4 10 15.2 14.1 4.8 4.1 8.9 6.7 12.2 7.9s5.7 1.4 7.3.8c1.7-.6 3.1-2.3 4.2-4.9 1.1-2.7 2.1-5.7 3-9 .9-3.4 2.3-8.2 4.2-14.4s3.7-12.6 5.4-19l3.5-13.1c.6-2.7 1.5-3.9 2.6-3.9 1.1.1 1.7 1.4 1.9 3.9l.5 15c.2 7.2.4 13.9.7 20.2.3 6.2.7 12.4 1.3 18.4.5 6 1.2 12.1 2 18.3.8 6.2 1.8 11.3 3.2 15.5 1.3 4.1 1.8 7 1.5 8.6-.8 3-2.3 5-4.5 6s-4.6 1.5-7.3 1.5c-5.9.2-12.5-.9-19.6-3.3-7.1-2.3-14.3-6.1-21.4-11.2-7.2-5.2-14.8-11.7-22.7-19.7s-15.7-16.6-23.3-25.9c-7.6-9.3-13.2-17.4-16.8-24.3l-8.4-15c-5.6 4.2-11.4 8.4-17.2 12.7s-13.5 9-22.9 14.3-17.7 9.3-24.8 12c-7.2 2.7-14.5 5-21.8 7l-13.8 4c-3.8 1.1-5.9 1-6.6-.2-.6-1.3.3-2.7 2.8-4.2l12.9-8 14.5-8.4c7.8-4.4 17.4-10.7 28.7-18.9s19.1-14.4 23.3-18.6l13.8-13.1c-3.8-8.6-7.1-16.8-10.1-24.6-3-7.8-5.5-15.7-7.5-23.8-2-8-5.7-24.3-11-48.9l-5.4-24.6c-5.9 1.3-10.3 2.1-13.1 2.6l-32.3 5.9-30 5.9-18.3 3.3-.2 54.8 51.6-20.4c2.8-1.1 4.8-.7 6 1.2s.3 3.7-2.7 5.4l-54.8 30.7c.3 11.2.6 21.4.8 30.4.2 9 .4 18.7.6 29.2.2 10.5.2 18.8 0 25.1-.3 8-1 15.1-2.1 21.4-1.1 6.3-3.3 12.4-6.6 18.3s-7.1 10.1-11.4 12.7c-4.3 2.6-7.6 3.4-10 2.5-1.7-.5-3.8-2.7-6.2-6.7-2.4-4-5-7.5-7.6-10.4-2.7-3-5.8-6.3-9.4-9.8-3.6-3.6-6.5-6.4-8.7-8.4l-9.8-8.4c-2.5-1.9-3.3-3.5-2.5-4.8.9-1.3 2.3-1.8 4.3-1.3l10.5 2.8 10.3 2.6c5.5 1.6 9 2.4 10.5 2.6 2.2.3 4 .1 5.5-.6s2.7-3 3.5-6.8c.9-3.8 1.5-8.9 2-15.4s1-13.6 1.5-21.7c.5-8 .9-14.5 1.1-19.3l.7-23-43.8 23.7-17.3 9.8c-6.3 3.6-10.7 6.5-13.5 8.7-2.7 2.2-4.9 3.6-6.4 4.1-1.6.5-3.8.4-6.8-.4-2.7-.6-5.3-1.7-7.9-3.3-2.6-1.6-6.1-3.9-10.4-7-4.4-3.1-7.4-6.2-9-9.3s-1.9-5.4-.8-7.1c.6-.9 1.6-1.6 2.9-1.9 1.3-.3 3.8-.5 7.5-.6 3.7-.1 7.5-.6 11.4-1.6 3.9-1 10-2.9 18.3-5.6 8.3-2.7 14.3-4.9 18-6.4l57.9-22.5 1.2-58.9zm163.6-133.1l13.1 4c5.5 1.7 10.4 3.5 14.8 5.4 4.4 1.9 8.4 3.8 12.2 5.7 3.8 2 6.9 3.9 9.4 5.9 2.5 2 4.3 4.1 5.3 6.3 1 2.3 1.5 5.3 1.5 9-.2 3.6-.8 6.9-2 10s-2.6 5.4-4.3 6.9c-1.7 1.6-3.7 2.5-5.9 2.7-2.2.2-4.8-.8-8-3.2-3-2-6.2-5.4-9.7-10.1s-7.5-9.8-12.1-15.5c-4.5-5.6-7.5-9.3-8.9-11l-8-9.4c-2.5-2.8-3.4-4.8-2.6-6 .8-1.1 2.5-1.3 5.2-.7z"/></g></svg>