<svg xmlns="http://www.w3.org/2000/svg" viewBox="0 0 722.04 560.26"><defs><style>.a,.d,.e{fill:none;stroke-miterlimit:10}.a{stroke:#999}.a,.e{stroke-width:2px}.b{fill:#999}.c{fill:#eee}.d{stroke:#ccc}.e{stroke:#28bc3a}.f{fill:#28bc3a}.g{fill:#6d6d6d}</style></defs><path class="a" d="M1 551h340M381 551h340"/><path class="b" d="M0 543h2v16H0zM720 543h2v16h-2z"/><path d="M355.65 560v-4.25h-7.25v-1.39l7-10h2.28v9.7h2.19v1.65h-2.19V560zm0-5.9v-5.21c0-.82 0-1.64.07-2.45h-.07c-.48.91-.86 1.58-1.29 2.3l-3.86 5.31v.05zM370.75 546.17h-6l-.6 4a8.28 8.28 0 0 1 1.28-.09 6.55 6.55 0 0 1 3.36.84 4.45 4.45 0 0 1 2.23 4c0 3-2.42 5.32-5.81 5.32a7.67 7.67 0 0 1-3.89-1l.53-1.6a7 7 0 0 0 3.34.86 3.44 3.44 0 0 0 3.69-3.38c0-2-1.36-3.46-4.48-3.46a16.64 16.64 0 0 0-2.17.17l1-7.49h7.47z"/><path class="a" d="M1 528h220M261 528h220"/><path class="b" d="M0 520h2v16H0zM480 520h2v16h-2z"/><path d="M229.63 534.58a7.09 7.09 0 0 0 3.45 1c2.72 0 3.56-1.73 3.53-3 0-2.19-2-3.12-4-3.12h-1.21v-1.59h1.18c1.54 0 3.48-.79 3.48-2.64 0-1.25-.79-2.35-2.74-2.35a5.78 5.78 0 0 0-3.12 1l-.55-1.54a7.43 7.43 0 0 1 4.08-1.2c3.07 0 4.47 1.83 4.47 3.72a3.88 3.88 0 0 1-2.88 3.68v.05a4.06 4.06 0 0 1 3.48 4c0 2.5-1.95 4.68-5.69 4.68a8 8 0 0 1-4.06-1zM251.8 529c0 5.31-2 8.23-5.42 8.23-3.05 0-5.11-2.85-5.16-8s2.25-8.12 5.42-8.12 5.16 2.95 5.16 7.89zm-8.47.24c0 4.06 1.25 6.36 3.17 6.36 2.16 0 3.19-2.52 3.19-6.5s-1-6.36-3.17-6.36c-1.85.03-3.19 2.26-3.19 6.53z"/><path class="a" d="M481 528h100M621 528h100"/><path class="b" d="M480 520h2v16h-2zM720 520h2v16h-2z"/><path d="M593.71 523.37h-.05l-2.71 1.46-.41-1.61 3.41-1.82h1.8V537h-2zM610.75 523.17h-6l-.59 4a8 8 0 0 1 1.27-.09 6.55 6.55 0 0 1 3.36.84 4.45 4.45 0 0 1 2.23 4c0 3-2.42 5.32-5.81 5.32a7.67 7.67 0 0 1-3.89-1l.53-1.6a7 7 0 0 0 3.34.86 3.44 3.44 0 0 0 3.69-3.38c0-2-1.36-3.46-4.48-3.46a16.64 16.64 0 0 0-2.17.17l1-7.49h7.47z"/><path class="a" d="M641 8h30M691 8h30"/><path class="b" d="M640 0h2v16h-2zM720 0h2v16h-2z"/><path d="M685.39 2.77h-5.95l-.6 4a7.94 7.94 0 0 1 1.27-.1 6.55 6.55 0 0 1 3.36.84 4.45 4.45 0 0 1 2.23 4c0 3-2.42 5.33-5.81 5.33a7.67 7.67 0 0 1-3.89-1l.53-1.61a7 7 0 0 0 3.34.86 3.44 3.44 0 0 0 3.7-3.38c0-2-1.37-3.46-4.49-3.46a16.31 16.31 0 0 0-2.16.17l1-7.49h7.47z"/><path class="a" d="M497 8h62M579 8h62"/><path class="b" d="M496 0h2v16h-2zM640 0h2v16h-2z"/><path d="M564.35 15.51a8.76 8.76 0 0 0 1.7-.07 5.9 5.9 0 0 0 3.27-1.51 6.89 6.89 0 0 0 2.06-4.15h-.07a4.6 4.6 0 0 1-3.67 1.68 4.52 4.52 0 0 1-4.61-4.78 5.35 5.35 0 0 1 5.33-5.55c3.19 0 5.16 2.6 5.16 6.58a9.89 9.89 0 0 1-2.69 7.29 7.78 7.78 0 0 1-4.54 2.09 10.14 10.14 0 0 1-1.94.12zm.77-9a3 3 0 0 0 3 3.31 3.49 3.49 0 0 0 3.07-1.64 1.37 1.37 0 0 0 .19-.76c0-2.67-1-4.71-3.19-4.71-1.8.03-3.07 1.62-3.07 3.83z"/><path class="c" d="M496.96 127.06h144v144h-144z"/><path class="a" d="M497 271h144M497 127h144"/><path class="c" d="M496.96 302.06h144v144h-144z"/><path class="a" d="M497 446h144M497 302h144"/><path class="c" d="M640.96 271.06h80v80h-80z"/><path class="a" d="M641 271h80M641 351h80"/><path class="d" d="M160.5 510V30M321.5 510V30M1 189.5h480M1 350.5h480"/><path class="a" d="M1.04 30.06h720v480h-720z"/><path class="a" d="M1.04 30.06h480v480h-480zM641 510V30M497 510V30"/><path d="M674.5 425.24l-2.71 1.43-.41-1.57 3.41-1.78h1.8v15.22h-2zM692.6 430.76c0 5.18-2 8-5.42 8-3 0-5.11-2.78-5.16-7.81s2.26-7.92 5.42-7.92 5.16 2.89 5.16 7.73zm-8.47.24c0 4 1.25 6.2 3.17 6.2 2.16 0 3.19-2.46 3.19-6.34s-1-6.2-3.17-6.2c-1.82 0-3.19 2.2-3.19 6.34z"/><path class="e" d="M681 352.5v65M681 443.5v65"/><path class="f" d="M672.82 359.13l1.46 1.36 6.72-7.22 6.71 7.22 1.47-1.36-8.18-8.8-8.18 8.8zM672.82 501.87l1.46-1.36 6.72 7.22 6.71-7.22 1.47 1.36-8.18 8.8-8.18-8.8z"/><path class="g" d="M689.72 188.76c0 .14 0 .16-.16.16h-8.06v6.94c0 .12 0 .16-.16.16h-1.06c-.14 0-.16 0-.16-.16v-6.94H672.26c-.1 0-.16 0-.16-.16v-.94c0-.14 0-.16.16-.16H680.12v-7.32H673.22c-.1 0-.16 0-.16-.16v-.92c0-.14 0-.16.16-.16h15.4c.1 0 .16 0 .16.16v.92c0 .14 0 .16-.16.16h-7.12v7.32h8.04c.12 0 .16 0 .16.16zm-14.48-7.24c.18-.1.2-.08.28 0a19.4 19.4 0 0 1 2.34 4.42c0 .12 0 .16-.16.24l-.68.28c-.28.12-.3.12-.36-.06a19.1 19.1 0 0 0-2.16-4.3c-.1-.12-.06-.16.18-.28zm12.18.76a1.45 1.45 0 0 0-.36.54 23.35 23.35 0 0 1-2.18 3.64c-.14.18-.2.26-.28.26s-.14-.06-.3-.16a2.38 2.38 0 0 0-.72-.34 18 18 0 0 0 2.36-3.9 4.22 4.22 0 0 0 .3-1 9.52 9.52 0 0 1 1.18.5c.12.06.18.12.18.22s-.1.14-.18.24zM689.5 214.72c0 .14 0 .16-.16.16h-16.78c-.1 0-.16 0-.16-.16v-1c0-.14 0-.16.16-.16h7.16v-12.22a20.27 20.27 0 0 0-.12-2.88 13.09 13.09 0 0 1 1.4.12c.14 0 .26.08.26.18a1.07 1.07 0 0 1-.1.38 7 7 0 0 0-.14 1.94v3.78H687.66c.1 0 .16 0 .16.16v1c0 .14 0 .16-.16.16H681.02v7.46h8.32c.1 0 .16 0 .16.16zM689.6 227.84c0 .14 0 .16-.16.16h-8.94a41.82 41.82 0 0 1-2.68 5.68c2.72-.28 5.5-.64 7.72-1a24.54 24.54 0 0 0-2-2.32c-.12-.1-.12-.18.12-.34l.54-.34c.16-.1.22-.08.3 0a27.65 27.65 0 0 1 4 5.02c.08.12.1.2-.12.34l-.58.36c-.26.16-.32.18-.4 0-.36-.6-.74-1.22-1.16-1.82-3.4.6-7.28 1.12-10.5 1.42a4.91 4.91 0 0 0-1.52.26.44.44 0 0 1-.26.08c-.08 0-.18-.1-.24-.26a11.59 11.59 0 0 1-.32-1.26 16.61 16.61 0 0 0 2 0l.92-.06a36.31 36.31 0 0 0 2.76-5.82H672.44c-.1 0-.16 0-.16-.16V227c0-.14 0-.16.16-.16h7.76v-3.68h-5.84c-.12 0-.14 0-.14-.16v-.88c0-.14 0-.16.14-.16h5.84v-1.32a13 13 0 0 0-.14-2.54 11.24 11.24 0 0 1 1.36.1c.14 0 .22.08.22.18a1.1 1.1 0 0 1-.1.36 7 7 0 0 0-.12 1.82V222h6.18c.12 0 .14 0 .14.16v.84c0 .14 0 .16-.14.16h-6.1v3.68h7.98c.12 0 .16 0 .16.16zM680.5 244.8v1c0 .1 0 .16-.16.16h-6.08a4.68 4.68 0 0 1-1.28 2.44c-.12.12-.18.18-.26.18a.47.47 0 0 1-.26-.14 2.46 2.46 0 0 0-.62-.38c1.3-1.12 1.62-2.4 1.62-4.24v-.72c0-.12 0-.16.16-.16h6.76c.14 0 .16 0 .16.16v1zm5.58 8.76c1.24-.08 2.5-.16 3.74-.28a3.37 3.37 0 0 0-.12.48c-.08.4-.08.4-.48.44-.82.08-1.92.16-3.14.24v1.5c0 .06 0 .16-.16.16h-.88c-.16 0-.18 0-.18-.16v-1.44c-1.44.08-3 .14-4.42.2-2.92.1-4.78.16-7.12.2a2 2 0 0 0-.86.12.45.45 0 0 1-.26.06c-.08 0-.14-.08-.18-.22a9.94 9.94 0 0 1-.22-1c.54 0 1.12.06 2.2.06h1.68v-4.68h-2.32c-.1 0-.16 0-.16-.16v-.62c0-.14 0-.16.16-.16H688.92c.12 0 .16 0 .16.16v.62c0 .14 0 .16-.16.16H686zm-4.8-13.62c0 .14 0 .16-.16.16H677.4v1.12h3.1c.1 0 .16 0 .16.16v.56c0 .14 0 .16-.16.16H673.38c-.1 0-.18 0-.18-.16v-.56c0-.14 0-.16.18-.16H676.36v-1.12h-3.88c-.1 0-.16 0-.16-.16v-.62c0-.1 0-.12.18-.12h3.86v-.06a5 5 0 0 0-.14-1.3c.46 0 .82.06 1.14.1.14 0 .22.06.22.16a.42.42 0 0 1-.08.22c-.1.18-.1.34-.1.84H681.12c.1 0 .16 0 .16.16zm-4.72 3.76h-2.06v.12c0 .5 0 .94-.06 1.34h2.16zm8.38 5.52h-8v.94h8zm0 1.7h-8v1h8zm0 1.76h-8v1.2h2.18c1.92 0 3.9-.1 5.86-.2zm-5.38-9h-2.06v1.46h2.1zm7.44-.88a.72.72 0 0 0 .36-.06.43.43 0 0 1 .2 0c.08 0 .18 0 .46.28s.38.38.38.48 0 .16-.16.24a2.37 2.37 0 0 0-.56.56 8.39 8.39 0 0 1-1.7 1.56 13.57 13.57 0 0 0 4.1 1.08 1.76 1.76 0 0 0-.36.58c-.16.38-.16.4-.56.34a12.35 12.35 0 0 1-4.14-1.4 14.76 14.76 0 0 1-4 1.38c-.34.06-.36.06-.52-.24a2.05 2.05 0 0 0-.42-.56 14.72 14.72 0 0 0 4-1.18 6.91 6.91 0 0 1-1.94-2.18h-.9c-.06 0-.18 0-.18-.16v-.58c0-.14 0-.16.18-.16h2.16zm-.1-2.4c0 .24 0 .38.16.46a1.68 1.68 0 0 0 .78.12c.52 0 .74-.06.9-.3a2.8 2.8 0 0 0 .18-1.2 1.61 1.61 0 0 0 .66.36c.3.12.3.14.26.46a1.75 1.75 0 0 1-.48 1.18 2.39 2.39 0 0 1-1.58.4 4.28 4.28 0 0 1-1.34-.14c-.36-.14-.58-.38-.58-1v-1.34h-2.36c0 1.58-.38 2.4-1.62 3-.28.12-.34.12-.54-.18a2 2 0 0 0-.5-.5c1.36-.36 1.62-1 1.64-2.32v-.7c0-.12 0-.16.16-.16H686.86c.12 0 .16 0 .16.16v1zm-3.72 3.22a1.89 1.89 0 0 0 3.76 0z"/><path fill="#1197cc" d="M680.96 273v76"/><path class="e" d="M680.96 273v25M680.96 324v25"/><path class="f" d="M672.78 279.63l1.46 1.36 6.71-7.22 6.72 7.22 1.46-1.36-8.18-8.8-8.17 8.8zM672.78 342.37l1.46-1.36 6.71 7.22 6.72-7.22 1.46 1.36-8.18 8.8-8.17-8.8z"/><path d="M685.24 304.42h-6l-.6 4a8.09 8.09 0 0 1 1.28-.1 6.55 6.55 0 0 1 3.36.84 4.46 4.46 0 0 1 2.23 4c0 3.05-2.43 5.33-5.81 5.33a7.67 7.67 0 0 1-3.89-1l.53-1.61a7 7 0 0 0 3.34.86 3.43 3.43 0 0 0 3.69-3.38c0-2-1.37-3.46-4.49-3.46a16.61 16.61 0 0 0-2.16.17l1-7.49h7.47z"/><path class="e" d="M567.96 448v17M567.96 491v17"/><path class="f" d="M559.78 454.63l1.46 1.36 6.71-7.22 6.72 7.22 1.46-1.36-8.18-8.8-8.17 8.8zM559.78 501.37l1.46-1.36 6.71 7.22 6.72-7.22 1.46 1.36-8.18 8.8-8.17-8.8z"/><path d="M569.5 484.79v-4h-7.3v-1.29l7-9.34h2.28v9.09h2.19v1.56h-2.19v4zm0-5.54v-4.88c0-.77 0-1.53.07-2.3h-.07c-.48.86-.86 1.49-1.29 2.16l-3.82 5z"/><path class="e" d="M567.96 304v57M567.96 387v57"/><path class="f" d="M559.78 310.63l1.46 1.36 6.71-7.22 6.72 7.22 1.46-1.36-8.18-8.8-8.17 8.8zM559.78 437.37l1.46-1.36 6.71 7.22 6.72-7.22 1.46 1.36-8.18 8.8-8.17-8.8z"/><path d="M564.15 379.59a8.76 8.76 0 0 0 1.7-.07 5.92 5.92 0 0 0 3.27-1.47 6.61 6.61 0 0 0 2.06-4h-.07a4.65 4.65 0 0 1-3.67 1.63 4.45 4.45 0 0 1-4.61-4.64 5.26 5.26 0 0 1 5.33-5.39c3.19 0 5.16 2.52 5.16 6.39a9.43 9.43 0 0 1-2.69 7.12 8 8 0 0 1-4.54 2 10 10 0 0 1-1.94.11zm.77-8.72a3 3 0 0 0 3 3.22 3.52 3.52 0 0 0 3.07-1.59 1.3 1.3 0 0 0 .19-.74c0-2.59-1-4.58-3.19-4.58-1.8 0-3.07 1.54-3.07 3.69z"/><path class="e" d="M568 274v26"/><path class="f" d="M559.82 280.63l1.46 1.36 6.72-7.22 6.71 7.22 1.47-1.36-8.18-8.8-8.18 8.8zM559.82 293.37l1.46-1.36 6.72 7.22 6.71-7.22 1.47 1.36-8.18 8.8-8.18-8.8z"/><path d="M544.24 293.28v-1.13l1.66-1.39c4-3.29 5.78-5 5.81-7.07 0-1.37-.77-2.64-3.1-2.64a5.75 5.75 0 0 0-3.31 1.14l-.68-1.29a7.52 7.52 0 0 1 4.42-1.37c3.36 0 4.78 2 4.78 3.93 0 2.5-2.09 4.51-5.38 7.26l-1.25 1h7v1.52z"/><path class="e" d="M567.96 129v57M567.96 212v57"/><path class="f" d="M559.78 135.63l1.46 1.36 6.71-7.22 6.72 7.22 1.46-1.36-8.18-8.8-8.17 8.8zM559.78 262.37l1.46-1.36 6.71 7.22 6.72-7.22 1.46 1.36-8.18 8.8-8.17-8.8z"/><path d="M564.15 204.75a8.76 8.76 0 0 0 1.7-.07 5.9 5.9 0 0 0 3.27-1.51 6.86 6.86 0 0 0 2.06-4.15h-.07a4.6 4.6 0 0 1-3.67 1.68 4.52 4.52 0 0 1-4.61-4.78 5.34 5.34 0 0 1 5.33-5.54c3.19 0 5.16 2.59 5.16 6.57a9.85 9.85 0 0 1-2.69 7.32 7.78 7.78 0 0 1-4.54 2.09 9.38 9.38 0 0 1-1.94.12zm.77-9a3 3 0 0 0 3 3.31 3.5 3.5 0 0 0 3.07-1.63 1.39 1.39 0 0 0 .19-.77c0-2.66-1-4.7-3.19-4.7-1.8.04-3.07 1.61-3.07 3.82z"/><path class="g" d="M529.96 167c.12-.16.18-.16.32-.08a14.48 14.48 0 0 1 2.76 2.08c.1.1.08.14-.06.32l-.42.56c-.14.18-.18.2-.32.06a14.6 14.6 0 0 0-2.68-2.16c-.12-.08-.08-.14 0-.3zm1.48 11.08a6.28 6.28 0 0 0-.42.84c0 .14-.08.22-.2.22a.55.55 0 0 1-.26-.12 11.27 11.27 0 0 1-.92-.72 6.88 6.88 0 0 0 1.14-1.58 37.05 37.05 0 0 0 2.06-4.44 2.74 2.74 0 0 0 .58.62c.32.24.32.24.2.6a46 46 0 0 1-2.18 4.62zm-.26-16c.14-.16.18-.18.3-.1a15.76 15.76 0 0 1 2.74 2.23c.1.1.08.14-.06.32l-.4.5c-.14.18-.24.18-.34.06a16.29 16.29 0 0 0-2.66-2.26c-.14-.11-.14-.15 0-.33zm16 16.37c0 .14 0 .16-.16.16h-13.1c-.1 0-.16 0-.16-.16v-.88c0-.14 0-.16.16-.16H539.7v-5.11h-4.18c-.12 0-.14 0-.14-.16v-.86c0-.14 0-.16.14-.16h4.18V167H534.98c-.1 0-.16 0-.16-.16V166c0-.14 0-.16.16-.16h11.28c.12 0 .16 0 .16.16v.86c0 .14 0 .16-.16.16h-5.3v4.24H545.6c.1 0 .18 0 .18.16v.86c0 .14 0 .16-.18.16H540.96v5.22H547.02c.1 0 .16 0 .16.16zm-8.54-16.79c.16-.16.2-.16.32-.1a17.08 17.08 0 0 1 3.22 2.35c.12.1.08.18-.08.34l-.44.5c-.16.18-.24.22-.36.1a16.19 16.19 0 0 0-3.18-2.43c-.12-.07-.12-.11.08-.32zM547.06 189.2c0 .14 0 .16-.16.16h-17.36c-.1 0-.16 0-.16-.16v-.86c0-.14 0-.16.16-.16H534.84a14.26 14.26 0 0 0-1.06-2.56c-.06-.12 0-.14.2-.24l.62-.2c.16-.06.22 0 .3.1a13.46 13.46 0 0 1 1.2 2.9h3.76c.4-.84.74-1.62.94-2.18a3.74 3.74 0 0 0 .22-1 8.45 8.45 0 0 1 1.18.3c.16.06.22.12.22.22a.34.34 0 0 1-.14.26 1.39 1.39 0 0 0-.28.42c-.28.64-.56 1.32-.88 1.94h5.78c.1 0 .16 0 .16.16zm-1.34-4.68c0 .16 0 .18-.16.18h-14.84c-.12 0-.16 0-.16-.18v-.84c0-.14 0-.16.16-.16h6.68v-.12a8.11 8.11 0 0 0-.14-2 9.36 9.36 0 0 1 1.32.08c.16 0 .24.1.24.16a.9.9 0 0 1-.1.38 4.15 4.15 0 0 0-.1 1.38v.12H545.58c.12 0 .16 0 .16.16zm-2 11v3.72c0 .1 0 .16-.16.16h-.92c-.14 0-.16 0-.16-.16v-.92h-8.72v1c0 .12 0 .14-.16.14h-.92c-.14 0-.16 0-.16-.14v-5.64-2.52c0-.1 0-.16.16-.16h10.88c.12 0 .16 0 .16.16v2.26zm-1.2-3.44h-8.72v2h8.7zm0 3h-8.72v2.16h8.7zM538.02 204.38c0 .14 0 .16-.16.16h-2.98a11.14 11.14 0 0 1 .92 2c0 .14 0 .18-.18.24l-.66.18c-.26.08-.3.06-.34-.1a11.4 11.4 0 0 0-.94-2.28h-1.64a17.43 17.43 0 0 1-1.82 2.34c-.12.12-.2.2-.26.2s-.14-.08-.3-.22a1.73 1.73 0 0 0-.64-.46 11.91 11.91 0 0 0 2.82-3.9 3.41 3.41 0 0 0 .3-1 9.81 9.81 0 0 1 1.2.28c.14 0 .2.12.2.22a.33.33 0 0 1-.16.24 1.13 1.13 0 0 0-.32.48c-.14.28-.26.58-.42.84H537.86c.16 0 .16 0 .16.16zm-5.76 9.28v-2.46a16.09 16.09 0 0 1-2.14 2.22c-.14.12-.22.18-.28.18s-.16-.08-.26-.26a2.22 2.22 0 0 0-.54-.64 15.2 15.2 0 0 0 4.12-4.8 4.25 4.25 0 0 0 .46-1.14 8.16 8.16 0 0 1 1.1.5c.12.08.2.16.2.24s0 .16-.18.24a2 2 0 0 0-.48.58c-.24.42-.52.88-.84 1.36v9.66c0 .1 0 .14-.14.14h-1c-.14 0-.16 0-.16-.14v-2.52zm14.76-3.14c0 .14 0 .16-.16.16H543.78v6.88c0 .72-.14 1.16-.6 1.42s-1.16.34-2.78.34c-.4 0-.4 0-.5-.38a2.73 2.73 0 0 0-.42-.94 13 13 0 0 0 1.76.12c1.12 0 1.3-.14 1.3-.78v-6.64H534.82c-.1 0-.16 0-.16-.16v-.86c0-.14 0-.16.16-.16H542.54v-.06a12.53 12.53 0 0 0-.14-2.42 12.42 12.42 0 0 1 1.32.12c.14 0 .26.08.26.18s-.08.22-.14.36a5.56 5.56 0 0 0-.1 1.74v.08H546.82c.1 0 .16 0 .16.16zm-10.06 1.62c.16-.12.2-.1.3 0a14.3 14.3 0 0 1 2.44 3c.08.12 0 .18-.14.3l-.5.36c-.22.16-.28.18-.38 0a13.73 13.73 0 0 0-2.32-3c-.12-.12-.1-.16.1-.3zm10-7.76c0 .14 0 .16-.14.16h-3.92a9.19 9.19 0 0 1 .94 1.76c0 .12 0 .18-.2.24l-.6.18c-.26.08-.3.08-.36-.08a9.66 9.66 0 0 0-1-2.1h-1.78a14.47 14.47 0 0 1-1.48 2.18c-.12.14-.18.22-.26.22s-.16-.08-.3-.2a2.34 2.34 0 0 0-.68-.4 11.54 11.54 0 0 0 2.44-3.92 4.08 4.08 0 0 0 .22-.94 10.25 10.25 0 0 1 1.16.26c.14 0 .22.12.22.2s-.06.18-.18.28-.14.18-.28.52-.22.54-.34.78H546.78c.12 0 .14 0 .14.16zM536.44 230.34c0 .14 0 .16-.16.16H532.5c-.18.68-.38 1.42-.6 2.14h3.36c.14 0 .18 0 .18.2a9.6 9.6 0 0 0-.1 1 16.66 16.66 0 0 1-.82 4.54 1.58 1.58 0 0 1-1.64.94 8.06 8.06 0 0 1-1-.06c-.34 0-.34-.06-.4-.4a2.93 2.93 0 0 0-.28-.84 6.88 6.88 0 0 0 1.44.18c.5 0 .8-.14.94-.52a15.69 15.69 0 0 0 .62-4h-2.68l-.28.8c-.06.14-.1.14-.32.1l-.64-.12c-.22-.06-.22-.12-.16-.24a23.86 23.86 0 0 0 1.24-3.72h-2c-.12 0-.14 0-.14-.16v-.84c0-.14 0-.16.14-.16h6.84c.14 0 .16 0 .16.16zm-.84-4.42v1.62c0 .12 0 .16-.16.16h-5.12c-.12 0-.16 0-.16-.16V224.18v-1.6c0-.1 0-.16.16-.16h5.12c.1 0 .16 0 .16.16v1.6zm-1.1-2.44h-3.16v3.18h3.16zm11.24 2a.68.68 0 0 0 .34-.06.52.52 0 0 1 .22-.06c.16 0 .26.06.56.3s.36.36.36.46-.06.16-.16.24a1.18 1.18 0 0 0-.28.48 13.83 13.83 0 0 1-.92 1.58c-.1.16-.18.22-.24.22a.55.55 0 0 1-.26-.12 2.43 2.43 0 0 0-.7-.28 8.11 8.11 0 0 0 1.08-1.74h-7.5v2.28a45.39 45.39 0 0 1-.24 5.16 11.64 11.64 0 0 1-1.72 5.1c-.1.14-.16.22-.22.22s-.14-.08-.28-.2a2.19 2.19 0 0 0-.66-.48 9.41 9.41 0 0 0 1.78-5 42.83 42.83 0 0 0 .22-4.92v-3.06c0-.06 0-.16.14-.16h3.62v-2.56a5.38 5.38 0 0 0-.14-1.5 10.75 10.75 0 0 1 1.22.1c.14 0 .24.08.24.16a.78.78 0 0 1-.12.28 2.8 2.8 0 0 0-.1 1v.1h3.54c.1 0 .16 0 .16.16v.68c0 .16 0 .18-.16.18h-3.54v1.44zm-4.36 8.22a4.45 4.45 0 0 0-.12 1 5.27 5.27 0 0 1-2.86 4.7.94.94 0 0 1-.28.1c-.1 0-.16-.06-.28-.22a2.19 2.19 0 0 0-.62-.54 4.28 4.28 0 0 0 2.94-4.08 7.37 7.37 0 0 0 0-1.64 8.48 8.48 0 0 1 1.08.12c.16 0 .3.08.3.2a1.52 1.52 0 0 1-.16.36zm.26-3.36c0 .52.06.7.26.78a4.15 4.15 0 0 0 1.4.14 2.86 2.86 0 0 0 1.68-.3c.26-.22.36-.74.4-1.6a2.79 2.79 0 0 0 .72.4c.3.12.3.12.26.44a2.3 2.3 0 0 1-.64 1.52 4 4 0 0 1-2.42.5 6.49 6.49 0 0 1-2.08-.22c-.34-.16-.64-.42-.64-1.28v-1l-1.74.2c-.12 0-.14 0-.16-.1l-.06-.72c0-.12 0-.14.12-.14s.5 0 1.84-.16v-.36a9.18 9.18 0 0 0-.1-1.4 9.51 9.51 0 0 1 1.14.12c.12 0 .2.06.2.16a.42.42 0 0 1-.08.22c-.08.12-.1.34-.1.94v.22l.8-.1c1.3-.14 1.68-.24 1.84-.26s.12 0 .14.12l.08.68c0 .12 0 .16-.14.16l-1.82.2-.9.1zm2.22 7.12c0 .38 0 .54.18.64a1.67 1.67 0 0 0 .92.14c.66 0 .94-.08 1.14-.36s.3-.88.3-2.12a4.57 4.57 0 0 0 .7.36c.28.12.3.14.28.46a3.33 3.33 0 0 1-.52 2.1c-.3.32-.52.58-1.92.58a3.48 3.48 0 0 1-1.66-.22c-.3-.16-.5-.5-.5-1.28v-2.4a16.14 16.14 0 0 0-.1-2.24 9.43 9.43 0 0 1 1.16.12c.14 0 .24.1.24.16a.85.85 0 0 1-.12.36 4 4 0 0 0-.1 1.48z"/></svg>