<svg xmlns="http://www.w3.org/2000/svg" viewBox="0 0 760 640"><g stroke-miterlimit="10"><g fill="none" stroke="#CCC"><path d="M180 560V80M341 560V80M20.5 239.5h480M20.5 400.5h480"/></g><g fill="none" stroke="#999" stroke-width="2"><path d="M20.5 80.1h720v480h-720z"/><path d="M20.5 80.1h480v480h-480zM620.5 560V80"/></g><g fill="#EEE" stroke="#999" stroke-width="2"><path d="M500.5 140.1h120v120h-120zM500.5 260.1h120v120h-120zM500.5 380h120M500.5 260h120M500.5 380.1h120v120h-120zM500.5 500h120M500.5 380h120"/></g><g fill="#EEE" stroke="#999" stroke-width="2"><path d="M620.5 320.1h120v120h-120zM620.5 440h120M620.5 320h120"/></g></g><path fill="none" stroke="#999" stroke-width="2" stroke-miterlimit="10" d="M20.5 601h330M410.5 601h330"/><path fill="#999" d="M19.5 593h2v16h-2zM739.5 593h2v16h-2z"/><path d="M361.2 596.4l-2.8 1.5-.4-1.6 3.4-1.8h1.8V610h-2v-13.6zM378.2 596.2h-6l-.6 4c.4 0 .7-.1 1.3-.1 1.2 0 2.4.3 3.4.8 1.2.7 2.2 2 2.2 4 0 3-2.4 5.3-5.8 5.3-1.7 0-3.1-.5-3.9-1l.5-1.6c.6.4 1.9.9 3.3.9 2 0 3.7-1.3 3.7-3.4 0-2-1.4-3.5-4.5-3.5-.9 0-1.6.1-2.2.2l1-7.5h7.5v1.9zM391.6 602c0 5.3-2 8.2-5.4 8.2-3 0-5.1-2.9-5.2-8 0-5.2 2.3-8.1 5.4-8.1 3.3 0 5.2 3 5.2 7.9zm-8.5.3c0 4.1 1.2 6.4 3.2 6.4 2.2 0 3.2-2.5 3.2-6.5 0-3.8-1-6.4-3.2-6.4-1.8 0-3.2 2.2-3.2 6.5zM403.9 602c0 5.3-2 8.2-5.4 8.2-3 0-5.1-2.9-5.2-8 0-5.2 2.3-8.1 5.4-8.1 3.4 0 5.2 3 5.2 7.9zm-8.4.3c0 4.1 1.2 6.4 3.2 6.4 2.2 0 3.2-2.5 3.2-6.5 0-3.8-1-6.4-3.2-6.4-1.9 0-3.2 2.2-3.2 6.5z"/><g><path fill="none" stroke="#999" stroke-width="2" stroke-miterlimit="10" d="M20.5 578h210M290.5 578h210"/><path fill="#999" d="M19.5 570h2v16h-2zM499.5 570h2v16h-2z"/><g><path d="M241.2 573.4l-2.8 1.5-.4-1.6 3.4-1.8h1.8V587h-2v-13.6zM259.3 579c0 5.3-2 8.2-5.4 8.2-3 0-5.1-2.9-5.2-8 0-5.2 2.3-8.1 5.4-8.1 3.3 0 5.2 3 5.2 7.9zm-8.5.3c0 4.1 1.2 6.4 3.2 6.4 2.2 0 3.2-2.5 3.2-6.5 0-3.8-1-6.4-3.2-6.4-1.8 0-3.2 2.2-3.2 6.5zM271.6 579c0 5.3-2 8.2-5.4 8.2-3 0-5.1-2.9-5.2-8 0-5.2 2.3-8.1 5.4-8.1 3.3 0 5.2 3 5.2 7.9zm-8.5.3c0 4.1 1.2 6.4 3.2 6.4 2.2 0 3.2-2.5 3.2-6.5 0-3.8-1-6.4-3.2-6.4-1.8 0-3.2 2.2-3.2 6.5zM283.9 579c0 5.3-2 8.2-5.4 8.2-3 0-5.1-2.9-5.2-8 0-5.2 2.3-8.1 5.4-8.1 3.4 0 5.2 3 5.2 7.9zm-8.4.3c0 4.1 1.2 6.4 3.2 6.4 2.2 0 3.2-2.5 3.2-6.5 0-3.8-1-6.4-3.2-6.4-1.9 0-3.2 2.2-3.2 6.5z"/></g></g><g><path fill="none" stroke="#999" stroke-width="2" stroke-miterlimit="10" d="M500.5 578h90M650.5 578h90"/><path fill="#999" d="M499.5 570h2v16h-2zM739.5 570h2v16h-2z"/><g><path d="M611.9 573.2h-6l-.6 4c.4 0 .7-.1 1.3-.1 1.2 0 2.4.3 3.4.8 1.2.7 2.2 2 2.2 4 0 3-2.4 5.3-5.8 5.3-1.7 0-3.1-.5-3.9-1l.5-1.6c.6.4 1.9.9 3.3.9 2 0 3.7-1.3 3.7-3.4 0-2-1.4-3.5-4.5-3.5-.9 0-1.6.1-2.2.2l1-7.5h7.5v1.9zM625.3 579c0 5.3-2 8.2-5.4 8.2-3 0-5.1-2.9-5.2-8 0-5.2 2.3-8.1 5.4-8.1 3.3 0 5.2 3 5.2 7.9zm-8.5.3c0 4.1 1.2 6.4 3.2 6.4 2.2 0 3.2-2.5 3.2-6.5 0-3.8-1-6.4-3.2-6.4-1.8 0-3.2 2.2-3.2 6.5zM637.6 579c0 5.3-2 8.2-5.4 8.2-3 0-5.1-2.9-5.2-8 0-5.2 2.3-8.1 5.4-8.1 3.3 0 5.2 3 5.2 7.9zm-8.5.3c0 4.1 1.2 6.4 3.2 6.4 2.2 0 3.2-2.5 3.2-6.5 0-3.8-1-6.4-3.2-6.4-1.8 0-3.2 2.2-3.2 6.5z"/></g></g><g><path fill="none" stroke="#999" stroke-width="2" stroke-miterlimit="10" d="M620.5 58h40M700.5 58h40"/><path fill="#999" d="M619.5 50h2v16h-2zM739.5 50h2v16h-2z"/><g><path d="M662.6 67v-1.3l1.7-1.6c4-3.8 5.8-5.8 5.8-8.2 0-1.6-.8-3-3.1-3-1.4 0-2.6.7-3.3 1.3l-.7-1.5c1.1-.9 2.6-1.6 4.4-1.6 3.4 0 4.8 2.3 4.8 4.5 0 2.9-2.1 5.2-5.4 8.4l-1.2 1.2h7V67h-10zM684.2 53.2h-6l-.6 4c.4 0 .7-.1 1.3-.1 1.2 0 2.4.3 3.4.8 1.2.7 2.2 2 2.2 4 0 3-2.4 5.3-5.8 5.3-1.7 0-3.1-.5-3.9-1l.5-1.6c.6.4 1.9.9 3.3.9 2 0 3.7-1.3 3.7-3.4 0-2-1.4-3.5-4.5-3.5-.9 0-1.6.1-2.2.2l1-7.5h7.5v1.9zM697.6 59c0 5.3-2 8.2-5.4 8.2-3 0-5.1-2.9-5.2-8 0-5.2 2.3-8.1 5.4-8.1 3.3 0 5.2 3 5.2 7.9zm-8.5.3c0 4.1 1.2 6.4 3.2 6.4 2.2 0 3.2-2.5 3.2-6.5 0-3.8-1-6.4-3.2-6.4-1.8 0-3.2 2.2-3.2 6.5z"/></g></g><g><path fill="none" stroke="#999" stroke-width="2" stroke-miterlimit="10" d="M500.5 58h40M580.5 58h40"/><path fill="#999" d="M499.5 50h2v16h-2zM619.5 50h2v16h-2z"/><g><path d="M542.6 67v-1.3l1.7-1.6c4-3.8 5.8-5.8 5.8-8.2 0-1.6-.8-3-3.1-3-1.4 0-2.6.7-3.3 1.3l-.7-1.5c1.1-.9 2.6-1.6 4.4-1.6 3.4 0 4.8 2.3 4.8 4.5 0 2.9-2.1 5.2-5.4 8.4l-1.2 1.2h7V67h-10zM564.2 53.2h-6l-.6 4c.4 0 .7-.1 1.3-.1 1.2 0 2.4.3 3.4.8 1.2.7 2.2 2 2.2 4 0 3-2.4 5.3-5.8 5.3-1.7 0-3.1-.5-3.9-1l.5-1.6c.6.4 1.9.9 3.3.9 2 0 3.7-1.3 3.7-3.4 0-2-1.4-3.5-4.5-3.5-.9 0-1.6.1-2.2.2l1-7.5h7.5v1.9zM577.6 59c0 5.3-2 8.2-5.4 8.2-3 0-5.1-2.9-5.2-8 0-5.2 2.3-8.1 5.4-8.1 3.3 0 5.2 3 5.2 7.9zm-8.5.3c0 4.1 1.2 6.4 3.2 6.4 2.2 0 3.2-2.5 3.2-6.5 0-3.8-1-6.4-3.2-6.4-1.8 0-3.2 2.2-3.2 6.5z"/></g></g><g><path d="M534.4 393.5c2.8 1.8 4.2 3.3 4.2 4.6 0 .6-.5 1.8-1.3 3.5-.9 1.3-1.9 3.5-2.7 6.4-3.9 15-5.9 23.4-5.9 25.2 0 1.9 1.3 2.8 3.8 2.8 1.2 0 12.4-1.3 33.8-4 13.2-2 20.6-3.5 22.3-4.3 1.5-1.1 2.8-1.5 4-1.5 1.3 0 3.2 1.4 5.6 4.3s3.8 5 3.8 6.4c0 .8-.8 2-2.3 3.3-2.2 2-4.1 4.7-5.7 8.3-5.3 9.3-10.1 16.3-14.4 21.3-4.3 4.9-9.5 9.4-15.5 13.2-.4 0-.5-.1-.5-.5 10.2-14.2 17.3-25.7 21.3-34.5 2.3-4.1 3.5-7 3.5-8.9 0-.6-1.1-.9-3.3-.9-5.7 0-15 .7-27.8 2.2s-21 2.8-24.6 4c-3.2.8-5.2 1.3-5.7 1.3-2.5 0-4.6-.6-6.6-1.8-2.2-1.5-3.3-3.3-3.3-5.3 0-1.5.6-3.5 1.9-6.1 2.2-5.2 3.9-10.4 5.2-15.8 1.5-6 2.3-10.8 2.3-14.2 0-2.5-.2-4.6-.7-6.3l-.8-3.2c0-1.3.6-1.9 1.9-1.9 2 0 4.5.8 7.5 2.4zM525.6 163c2.6 0 6.4-.5 11.6-1.4 10.4-2.2 22.7-4.1 36.7-5.9 10.5-1.4 16.5-2.6 17.8-3.6.7-.2 1.8-.4 3.3-.4 1.3 0 2.6.5 4.1 1.5 3.2 2.3 4.8 4.3 4.8 6.1 0 .8-.6 1.3-1.9 1.3-.1 0-1.4-.1-3.8-.2-2-.4-3-.6-3.3-.6-5.4 0-14.3.8-26.8 2.6 1.6 1.8 2.5 3.3 2.5 4.3s-.2 2.3-.6 3.9c-.9 3.3-1.2 15.4-.7 36.1.4 17.5.1 27.8-.5 30.8-.7 2.3-1.6 3.5-2.9 3.5-1.1 0-2.5-1.8-4.1-5.2s-2.5-6.2-2.5-8.2c0-1.1.4-3 1.1-5.9.6-1.9.8-14.3.8-37.1 0-9.5-.9-16.4-2.7-20.9-11 1.8-19 3.5-24 5.5-2.6 1.1-4.3 1.6-5.2 1.6-2 0-4.6-1.1-8-3-2.8-2-4.2-3.6-4.2-4.9 0-.6.5-.9 1.4-.9h1.4c2.4.6 4.2 1 5.7 1zM110 322.6c.6 6.4.6 13.8 0 22-.6 8.3-1.9 15.5-3.8 21.6s-4.3 12-7.1 17.6c-2.9 5.6-6.2 9.9-9.8 12.8-3.7 2.9-6.6 4.3-8.8 4.1-3.4 0-6.6-1.9-9.4-5.7-2.8-3.8-4.6-8-5.4-12.7-.8-4.6-1.3-9.3-1.4-13.9-.2-4.7.3-8.4 1.4-11 .3-.8 1.7-2.8 4.1-6.2 2.4-3.4 5-7.8 7.9-13.4 2.8-5.5 4.8-9.7 6-12.5s2.5-7.1 4.1-13c1.6-5.9 2.5-10.6 2.8-14.2.3-3.6 1-6.1 2-7.4 1-1.3 2.4-2 4.1-2 1.7.2 3.8 3.2 6.2 9.1 2.4 5.9 4.1 10.7 5 14.4.9 3.7 1.6 7.2 2.1 10.4zm242.6 15.7l23.7 27.4c5.2 6.1 10 10.8 14.6 14.2 4.6 3.4 9.5 6.7 14.6 10l14.1 9.6c3.9 2.8 6.7 5.4 8.3 7.9 1.6 2.4 2.3 5.6 2 9.5-.3 2.7-1.3 5.4-2.8 8.2-1.6 2.8-6.6 6.8-15.1 12.1-8.5 5.2-21.4 9.7-38.6 13.4-17.2 3.7-34.3 5.5-51.3 5.5-16.1.2-31.3-1.2-45.5-4.1-14.2-2.9-26.4-6.6-36.6-11-10.2-4.5-19.1-9.6-27-15.6-7.8-5.9-14.9-12.8-21.2-20.6-6.3-7.8-11.7-16.2-16.2-25.2s-7.7-16.5-9.7-22.6c-2-6.1-3.9-12.8-5.6-20.2l-6.1-24.6c-.6-1.9-2-5.4-4.1-10.7-2.1-5.2-2.8-8.5-2-9.7.8-1.2 1.9-2.1 3.4-2.6s3.5-.2 6 .7c1.9.9 4.1 2.4 6.6 4.5 2.5 2 4.2 3.8 5 5.3.9 1.5 2 5 3.4 10.7l4.9 22c2.2 10 5.1 18.4 8.7 25.2 3.6 6.8 8.2 13.7 13.9 20.6 5.7 7 12.2 13.2 19.6 18.9 7.3 5.6 15.1 10.1 23.2 13.4 8.1 3.3 16 5.5 23.6 6.7 7.6 1.2 16.4 1.9 26.5 2.1s19.2.2 27.3-.1c10.3-.3 18.6-1.7 25-4.1 6.3-2.4 10.1-5 11.4-7.9 1.2-2.8 2-6.1 2.3-10 .3-3.8-.7-9.5-3-17l-11.7-36.3c-1.3-3.8-.9-6.4 1.2-7.9 1.9-1.6 4.4-.8 7.2 2.3zM216.2 236.2l-6.1-8.9c-1.7-2.3-2-4.2-.9-5.6 1.1-1.4 2.5-2 4.2-1.6l12.2 2.6c2 .5 5.9 1.7 11.6 3.6 5.7 2 10.1 3.5 13.2 4.6 3.1 1.1 6.7 2.7 10.7 4.7 4 2 7.1 4.4 9.3 7 2.2 2.7 3.9 6.3 5.2 11 1.2 4.7 1.1 10.3-.5 16.9-1.4 5.6-3.3 9.6-5.7 12.1-2.4 2.4-4.9 3.9-7.4 4.3-2.5.5-6.1-1.7-10.8-6.6-3.1-3-6.2-6.3-9.1-10.1-3-3.8-7.4-9.5-13.4-17.1-6.1-7.7-10.2-13.3-12.5-16.9zm189.3 59.5l-27-35.4-21.8-23.9c-1.9-3-2.4-5-1.6-6 .8-1 2.3-1.6 4.6-1.9 2.3-.2 6.5 1 12.8 3.6l32.8 14.3c11.4 5 20.9 10.6 28.4 16.8 7.5 6.2 12.4 11.9 14.8 17.2 2.3 5.3 3.4 11 3.3 17.1-.3 5.3-1.4 9.8-3.3 13.5-1.9 3.7-4 6.1-6.3 7.3s-4.6 1.8-6.8 1.9c-2.2.1-5.8-1.5-10.9-4.7-5.2-3.2-11.5-9.8-19-19.8zM567.4 310.1c14.2-1.5 23.4-3 27.7-4.6 2.1-1.1 3.4-1.4 3.8-1.3.9-.1 2.9 1.1 5.9 3.6 2.1 2.1 3.2 3.6 3.2 4.6l.1.2c0 .8-.5 1.2-1.5 1.2h-2c-1.4-.1-3 .4-4.8.4-4.5-.1-11.8.5-22.3 1.6-16.1 1.8-30.1 3.2-42.4 4.1-5.3.1-9.1.8-11.8 1.9-1.8.5-2.7.7-3 .7-1.6 0-3.6-1.2-6-3.6s-3.5-4.6-3.6-6.3l-.1-.4c-.1-1.2.2-1.8 1.3-1.8l.1-.1c.1 0 1.4.2 2 .4 2.7 1.1 7.5 1.6 14.5 1.6 11.6.1 24.7-.6 38.9-2.2z"/></g></svg>