<?xml version="1.0" encoding="utf-8"?>
<!-- Generator: Adobe Illustrator 19.0.0, SVG Export Plug-In . SVG Version: 6.00 Build 0)  -->
<svg version="1.1" id="圖層_1" xmlns="http://www.w3.org/2000/svg" xmlns:xlink="http://www.w3.org/1999/xlink" x="0px" y="0px"
	 viewBox="82 100.9 760 640" style="enable-background:new 82 100.9 760 640;" xml:space="preserve">
<style type="text/css">
	.st0{fill:none;stroke:#CCCCCC;stroke-miterlimit:10;}
	.st1{fill:none;stroke:#999999;stroke-width:2;stroke-miterlimit:10;}
	.st2{fill:#EEEEEE;stroke:#999999;stroke-width:2;stroke-miterlimit:10;}
	.st3{fill:#999999;}
</style>
<g>
	<g>
		<path class="st0" d="M262,660.9v-480 M423,660.9v-480 M102.5,340.4h480 M102.5,501.4h480"/>
	</g>
	<g>
		<path class="st1" d="M102.5,181h720v480h-720V181z"/>
		<path class="st1" d="M102.5,181h480v480h-480V181z M702.5,660.9v-480"/>
	</g>
	<g>
		<path class="st2" d="M582.5,241h120v120h-120V241z M582.5,361h120v120h-120V361z M582.5,480.9h120 M582.5,360.9h120 M582.5,481
			h120v120h-120V481z M582.5,600.9h120 M582.5,480.9h120"/>
	</g>
	<g>
		<path class="st2" d="M702.5,481h120v120h-120V481z M702.5,600.9h120 M702.5,480.9h120"/>
	</g>
</g>
<path class="st1" d="M102.5,701.9h330 M492.5,701.9h330"/>
<path class="st3" d="M101.5,693.9h2v16h-2V693.9z M821.5,693.9h2v16h-2V693.9z"/>
<path d="M443.2,697.3l-2.8,1.5l-0.4-1.6l3.4-1.8h1.8v15.5h-2V697.3z M460.2,697.1h-6l-0.6,4c0.4,0,0.7-0.1,1.3-0.1
	c1.2,0,2.4,0.3,3.4,0.8c1.2,0.7,2.2,2,2.2,4c0,3-2.4,5.3-5.8,5.3c-1.7,0-3.1-0.5-3.9-1l0.5-1.6c0.6,0.4,1.9,0.9,3.3,0.9
	c2,0,3.7-1.3,3.7-3.4c0-2-1.4-3.5-4.5-3.5c-0.9,0-1.6,0.1-2.2,0.2l1-7.5h7.5v1.9L460.2,697.1z M473.6,702.9c0,5.3-2,8.2-5.4,8.2
	c-3,0-5.1-2.9-5.2-8c0-5.2,2.3-8.1,5.4-8.1C471.7,695,473.6,698,473.6,702.9L473.6,702.9z M465.1,703.2c0,4.1,1.2,6.4,3.2,6.4
	c2.2,0,3.2-2.5,3.2-6.5c0-3.8-1-6.4-3.2-6.4C466.5,696.7,465.1,698.9,465.1,703.2z M485.9,702.9c0,5.3-2,8.2-5.4,8.2
	c-3,0-5.1-2.9-5.2-8c0-5.2,2.3-8.1,5.4-8.1C484.1,695,485.9,698,485.9,702.9L485.9,702.9z M477.5,703.2c0,4.1,1.2,6.4,3.2,6.4
	c2.2,0,3.2-2.5,3.2-6.5c0-3.8-1-6.4-3.2-6.4C478.8,696.7,477.5,698.9,477.5,703.2z"/>
<g>
	<path class="st1" d="M102.5,678.9h210 M372.5,678.9h210"/>
	<path class="st3" d="M101.5,670.9h2v16h-2V670.9z M581.5,670.9h2v16h-2V670.9z"/>
	<g>
		<path d="M323.2,674.3l-2.8,1.5l-0.4-1.6l3.4-1.8h1.8v15.5h-2V674.3z M341.3,679.9c0,5.3-2,8.2-5.4,8.2c-3,0-5.1-2.9-5.2-8
			c0-5.2,2.3-8.1,5.4-8.1C339.4,672,341.3,675,341.3,679.9L341.3,679.9z M332.8,680.2c0,4.1,1.2,6.4,3.2,6.4c2.2,0,3.2-2.5,3.2-6.5
			c0-3.8-1-6.4-3.2-6.4C334.2,673.7,332.8,675.9,332.8,680.2z M353.6,679.9c0,5.3-2,8.2-5.4,8.2c-3,0-5.1-2.9-5.2-8
			c0-5.2,2.3-8.1,5.4-8.1C351.7,672,353.6,675,353.6,679.9L353.6,679.9z M345.1,680.2c0,4.1,1.2,6.4,3.2,6.4c2.2,0,3.2-2.5,3.2-6.5
			c0-3.8-1-6.4-3.2-6.4C346.5,673.7,345.1,675.9,345.1,680.2z M365.9,679.9c0,5.3-2,8.2-5.4,8.2c-3,0-5.1-2.9-5.2-8
			c0-5.2,2.3-8.1,5.4-8.1C364.1,672,365.9,675,365.9,679.9L365.9,679.9z M357.5,680.2c0,4.1,1.2,6.4,3.2,6.4c2.2,0,3.2-2.5,3.2-6.5
			c0-3.8-1-6.4-3.2-6.4C358.8,673.7,357.5,675.9,357.5,680.2z"/>
	</g>
</g>
<g>
	<path class="st1" d="M582.5,678.9h90 M732.5,678.9h90"/>
	<path class="st3" d="M581.5,670.9h2v16h-2V670.9z M821.5,670.9h2v16h-2V670.9z"/>
	<g>
		<path d="M693.9,674.1h-6l-0.6,4c0.4,0,0.7-0.1,1.3-0.1c1.2,0,2.4,0.3,3.4,0.8c1.2,0.7,2.2,2,2.2,4c0,3-2.4,5.3-5.8,5.3
			c-1.7,0-3.1-0.5-3.9-1l0.5-1.6c0.6,0.4,1.9,0.9,3.3,0.9c2,0,3.7-1.3,3.7-3.4c0-2-1.4-3.5-4.5-3.5c-0.9,0-1.6,0.1-2.2,0.2l1-7.5
			h7.5L693.9,674.1L693.9,674.1z M707.3,679.9c0,5.3-2,8.2-5.4,8.2c-3,0-5.1-2.9-5.2-8c0-5.2,2.3-8.1,5.4-8.1
			C705.4,672,707.3,675,707.3,679.9L707.3,679.9z M698.8,680.2c0,4.1,1.2,6.4,3.2,6.4c2.2,0,3.2-2.5,3.2-6.5c0-3.8-1-6.4-3.2-6.4
			C700.2,673.7,698.8,675.9,698.8,680.2z M719.6,679.9c0,5.3-2,8.2-5.4,8.2c-3,0-5.1-2.9-5.2-8c0-5.2,2.3-8.1,5.4-8.1
			C717.7,672,719.6,675,719.6,679.9L719.6,679.9z M711.1,680.2c0,4.1,1.2,6.4,3.2,6.4c2.2,0,3.2-2.5,3.2-6.5c0-3.8-1-6.4-3.2-6.4
			C712.5,673.7,711.1,675.9,711.1,680.2z"/>
	</g>
</g>
<g>
	<path class="st1" d="M702.5,158.9h40 M782.5,158.9h40"/>
	<path class="st3" d="M701.5,150.9h2v16h-2V150.9z M821.5,150.9h2v16h-2V150.9z"/>
	<g>
		<path d="M744.6,167.9v-1.3l1.7-1.6c4-3.8,5.8-5.8,5.8-8.2c0-1.6-0.8-3-3.1-3c-1.4,0-2.6,0.7-3.3,1.3l-0.7-1.5
			c1.1-0.9,2.6-1.6,4.4-1.6c3.4,0,4.8,2.3,4.8,4.5c0,2.9-2.1,5.2-5.4,8.4l-1.2,1.2h7v1.8H744.6z M766.2,154.1h-6l-0.6,4
			c0.4,0,0.7-0.1,1.3-0.1c1.2,0,2.4,0.3,3.4,0.8c1.2,0.7,2.2,2,2.2,4c0,3-2.4,5.3-5.8,5.3c-1.7,0-3.1-0.5-3.9-1l0.5-1.6
			c0.6,0.4,1.9,0.9,3.3,0.9c2,0,3.7-1.3,3.7-3.4c0-2-1.4-3.5-4.5-3.5c-0.9,0-1.6,0.1-2.2,0.2l1-7.5h7.5L766.2,154.1L766.2,154.1z
			 M779.6,159.9c0,5.3-2,8.2-5.4,8.2c-3,0-5.1-2.9-5.2-8c0-5.2,2.3-8.1,5.4-8.1C777.7,152,779.6,155,779.6,159.9z M771.1,160.2
			c0,4.1,1.2,6.4,3.2,6.4c2.2,0,3.2-2.5,3.2-6.5c0-3.8-1-6.4-3.2-6.4C772.5,153.7,771.1,155.9,771.1,160.2z"/>
	</g>
</g>
<g>
	<path class="st1" d="M582.5,158.9h40 M662.5,158.9h40"/>
	<path class="st3" d="M581.5,150.9h2v16h-2V150.9z M701.5,150.9h2v16h-2V150.9z"/>
	<g>
		<path d="M624.6,167.9v-1.3l1.7-1.6c4-3.8,5.8-5.8,5.8-8.2c0-1.6-0.8-3-3.1-3c-1.4,0-2.6,0.7-3.3,1.3l-0.7-1.5
			c1.1-0.9,2.6-1.6,4.4-1.6c3.4,0,4.8,2.3,4.8,4.5c0,2.9-2.1,5.2-5.4,8.4l-1.2,1.2h7v1.8H624.6z M646.2,154.1h-6l-0.6,4
			c0.4,0,0.7-0.1,1.3-0.1c1.2,0,2.4,0.3,3.4,0.8c1.2,0.7,2.2,2,2.2,4c0,3-2.4,5.3-5.8,5.3c-1.7,0-3.1-0.5-3.9-1l0.5-1.6
			c0.6,0.4,1.9,0.9,3.3,0.9c2,0,3.7-1.3,3.7-3.4c0-2-1.4-3.5-4.5-3.5c-0.9,0-1.6,0.1-2.2,0.2l1-7.5h7.5L646.2,154.1L646.2,154.1z
			 M659.6,159.9c0,5.3-2,8.2-5.4,8.2c-3,0-5.1-2.9-5.2-8c0-5.2,2.3-8.1,5.4-8.1C657.7,152,659.6,155,659.6,159.9z M651.1,160.2
			c0,4.1,1.2,6.4,3.2,6.4c2.2,0,3.2-2.5,3.2-6.5c0-3.8-1-6.4-3.2-6.4C652.5,153.7,651.1,155.9,651.1,160.2z"/>
	</g>
</g>
<g>
	<path d="M313,438.8c-10.2,0.9-18.6,1.9-25,2.8s-17.7,2.7-34,5.4s-28,5.3-35.2,7.9s-12,3.9-14.3,3.9c-3,0.2-5.9-0.3-8.9-1.3
		s-6.6-2.4-11-4.1c-4.4-1.7-8.8-3.9-13.2-6.4s-6.1-5.3-5-8.1c0.5-1.4,1.3-2.4,2.5-2.9c1.2-0.5,4.4-1.1,9.7-1.5l14.8-0.9
		c8.6-0.5,18.8-1.3,30.5-2.6l63.5-6.8l37-3.3l0.5-39.1c-4.7,0.8-7.8,1.3-9.4,1.4c-1.6,0.2-6.6,0.5-15.2,1.1
		c-8.6,0.5-13.8,0.7-15.7,0.6c-3.6,0-8.5-0.6-14.8-1.8c-6.3-1.2-10.2-2.5-11.8-4s-2.3-3.2-2-5c0.3-1.9,2-3,4.9-3.3l9.8-0.7l21.6-2.8
		l20.9-1.9l11.2-1.9c0-5.2,0-9.6-0.1-13.5c-0.1-3.8-0.4-7.3-0.8-10.3c-0.4-3-1.7-6.3-3.6-9.8c-2-3.5-3.1-6.2-3.4-8
		c-0.3-1.8,0.2-3.2,1.4-4.2c1.2-1,3.4-1.4,6.6-1.1c2.7,0.5,6.6,1.4,11.8,2.7c5.2,1.3,9.5,2.6,12.7,3.8c3.2,1.2,5.1,2.5,5.7,4
		s0.9,2.6,0.9,3.4c-0.2,1.1-1,3.5-2.6,7.3c-1.6,3.8-2.4,7.8-2.6,12.2l-0.7,10.3c7.3-1.9,12.9-3.3,16.6-4.2l14.1-2.8
		c5-0.9,8.7-1.4,11-1.4c2.2,0.2,5.6,1.1,10.2,2.7c4.6,1.6,8.1,3.2,10.5,4.6s3.8,2.8,4,4.1c0.2,1.3-0.6,2.8-2.5,4.3
		c-1.6,1.4-4.1,2.2-7.7,2.5c-3.6,0.2-9.1,1.1-16.6,2.7l-21.3,3.3l-19.7,3.3l-2.1,39.8l23.2-1.4c17-16.2,29.6-28.8,37.7-37.7
		c8.1-8.9,14.1-16.1,17.9-21.4c3.8-5.4,6.4-9.4,7.9-12.1c1.4-2.7,2.4-5.5,3-8.4c0.6-3,1.1-5.9,1.5-8.7c0.4-2.8,1-4.8,1.9-6.1
		c0.9-1.2,3.9-0.9,9,0.9c4.2,1.7,8.6,5,13,9.7c4.5,4.8,7.7,9.2,9.7,13.2c2,4.1,2.3,7.1,0.7,9.1c-0.6,0.6-2,1.5-4.2,2.7
		s-4.8,2.9-7.7,5.3c-3,2.3-6.7,5.5-11.1,9.6c-4.5,4.1-8.3,7.7-11.6,11L408,414.7c10.8-1.2,20.9-2.3,30.5-3.3
		c9.5-0.9,15.2-1.5,17-1.8c1.8-0.2,6.5-1.1,14.2-2.5s13.3-2.6,16.9-3.5s6-1.5,7.3-1.6c4.1-0.3,8.8,0.8,14.2,3.4
		c5.4,2.6,9.2,4.7,11.4,6.4c2.2,1.7,4.9,4,8.2,6.9s4.9,5,4.9,6.2c-0.3,2.2-1.8,3.7-4.3,4.6c-2.6,0.9-6.1,1.4-10.4,1.5l-26,0.9
		l-72.9,0.7l-32.6,0.7c-7,6.6-12.3,11.3-15.7,14.3l-24.1,19.7c-13.1,10.8-20.7,16.7-22.7,17.8l-15.5,9.4c13.7-1.6,24.1-3,31.2-4.5
		l25.3-5.4c10.2-2,18.2-3.9,24.1-5.7c5.9-1.8,10.2-2.7,12.9-2.7c3.8,0.2,7.1,0.9,10.2,2.2c3,1.3,6.9,3.2,11.5,5.7s8.2,4.8,10.8,7
		c2.6,2.2,4.1,4.3,4.5,6.4s-0.1,4.8-1.5,8.1l-3.3,7.5c-1.1,3.1-1.8,7-2.1,11.7c-0.3,4.7-0.5,8.1-0.5,10.2v34.8l1.2,24.6
		c0.2,5.5-0.1,10.1-0.7,13.8c-0.9,5.5-2.5,10.2-4.7,14.1s-4.6,7.1-7.3,9.7c-2.7,2.6-4.9,3.8-6.8,3.6c-3.9-0.2-6.2-2.2-6.8-6.1
		l-4.9-14.8c-13.4,0.8-24.5,1.5-33.3,2.2s-18,1.2-27.8,1.6c-9.8,0.4-17,0.9-21.8,1.4c-4.8,0.5-7.1,0.7-7.1,0.6l-12.9-0.7l-2.8,6.6
		c-1.4,3.1-2.9,4.8-4.3,5c-1.5,0.2-3.1-0.6-4.8-2.5c-2-1.9-3.9-6-5.6-12.3s-2.5-11.1-2.3-14.4c0-1.7,0.4-4.6,1.3-8.7
		c0.9-4.1,2-10.1,3.3-18c1.3-8,2.1-13.4,2.2-16.2l1.2-23.9c0.2-3.9,0.2-6.7,0-8.4c-0.2-1.7-0.4-4.1-0.7-7.3l-1.2-8.7
		c-11.1,6.3-20.4,11.4-28,15.5c-7.6,4.1-16.7,8.5-27.3,13.4c-10.6,4.8-19.1,8.3-25.3,10.3c-6.3,2-16.8,5.1-31.6,9.1l-12.9,3.5
		c-5.6,1.4-8.6,1.2-9-0.5s1.9-3.8,6.9-6.1l15-6.6c9.2-4.1,17.1-7.8,23.7-11.2l26.2-15l32.3-18c9.5-5.6,17.7-10.9,24.5-15.7
		c6.8-4.8,17.7-12.9,32.7-24.3c15-11.3,23.5-17.8,25.5-19.6l12.4-10.3C335.5,436.8,323.3,437.8,313,438.8L313,438.8z M266.2,264.2
		c-0.7-2.7-1.9-6.3-3.5-11c-1.6-4.7-3.1-8.2-4.3-10.5c-1.3-2.3-3.1-5.3-5.6-8.8s-3.5-6-2.9-7.4c0.5-1.4,2.4-2.5,5.5-3.3
		s8.3-0.1,15.5,2c7.2,2.1,12.1,3.9,14.8,5.3c2.7,1.4,4.5,3.1,5.4,5.2c0.5,1.6,0.4,4.2-0.4,7.9c-0.7,3.7-1,6.7-0.8,9l0.9,8.7l1.2,11
		l31.2-4c6.4-0.8,9.6,0.5,9.7,3.9c0.1,3.4-2.7,5.7-8.3,7.1l-31.4,8l3.3,27.9c0.6,6.6,0.1,11.1-1.5,13.7c-1.6,2.6-3.7,3.9-6.1,4.1
		c-2.4,0.2-4.7-3.6-6.7-11.2l-8.4-29.5c-9.7,2.7-17.3,4.8-22.9,6.6c-5.5,1.7-10.3,3.6-14.3,5.7c-4,2.1-7.2,3.4-9.6,3.8
		c-2.4,0.4-5.5-0.6-9.3-2.9c-0.2,0-3-2.3-8.4-6.8c-5.5-4.5-9.1-8-10.8-10.4c-1.7-2.4-2.1-4.3-1.2-5.7c0.9-1.4,3.1-2.2,6.6-2.3
		c0.6,0,3.8,0.3,9.6,0.9c5.8,0.6,11,0.7,15.7,0.2l14.5-1.9l25.3-3C267.8,270.8,266.9,266.8,266.2,264.2L266.2,264.2z M325.3,604.2
		c5.9-0.5,14.6-1.4,25.9-2.7s19.5-2.1,24.5-2.5c9.4-0.5,15.7,0.2,19,1.9l6.6,3.3c0.5-6.3,0.9-12,1.3-17.3s0.6-10,0.6-14.1v-16.4
		c-7,0.6-13.2,1.1-18.6,1.5c-5.4,0.4-10.9,0.9-16.5,1.5l-27.4,3.5c-10.6,1.1-17.7,1.5-21.3,1.2l-12.7-1.2
		c-0.6,13.1-1.2,21.2-1.6,24.1l-2.8,18.3C311.7,605.1,319.4,604.7,325.3,604.2L325.3,604.2z M307.5,550.8c4.5-0.3,7.9-0.6,10.2-0.8
		s10.2-1.3,23.7-3.2c13.5-1.9,23.6-3.5,30.1-4.9c6.5-1.4,11-2.2,13.4-2.3c3.9-0.2,6.7,0,8.4,0.5l9.1,2.6v-24.1
		c0-7-0.7-11.8-2.1-14.4s-3.4-4.5-5.9-5.7s-6.6-1.6-12.2-1.2c-8.4,0.8-13.9,1.4-16.4,1.8s-9.8,1.8-22,4.1l-19.5,3.8
		c-5.2,1.1-8.2,1.6-9.1,1.4l-6.6-0.2L307.5,550.8L307.5,550.8z M408,290c-1,2-3.5,6.3-7.5,12.9c-4,6.6-6.8,10.9-8.6,12.9l-8.2,9.8
		c-2,2.5-3.9,3.4-5.7,2.6c-1.8-0.8-2.3-2.1-1.5-4l4.2-10.8c0.2-0.5,1.8-5.5,4.9-15.2l4.7-15c-3.6,0.6-6.5,1.1-8.7,1.4
		c-2.2,0.3-4.5,0.8-7,1.5c-2.5,0.7-4.2,1.1-5.2,1.1c-2,0.2-4.8-0.5-8.2-2c-3.4-1.5-7.1-3.5-10.9-6.1s-5.3-4.3-4.5-5.2
		c0.9-0.9,2.1-1.4,3.9-1.8l11.7-1.4l17.6-2.1l14.3-1.9c1.7-7.5,3-13.4,3.9-17.8c0.9-4.4,1.6-8.9,2.3-13.7c0.7-4.8,1.1-8.6,1.1-11.6
		c-0.2-3-0.8-6.3-2-10s-1.4-6.1-0.8-7.1c0.6-1.1,2.1-2,4.5-2.6c2.7-0.5,7.3,0.7,14.1,3.5c6.7,2.8,11,4.7,12.9,5.6
		c1.9,0.9,4.1,2.7,6.6,5.4c2.5,2.7,3.5,5.1,3,7.3c-0.2,0.6-1.3,2.1-3.4,4.6c-2.1,2.4-4.2,6.1-6.2,10.9l-5.4,11.2l-3.5,9.1
		c5.9-0.8,11.2-1.5,15.9-2.2c4.7-0.7,9.3-1.8,13.7-3.3c4.5-1.5,7.3-2.3,8.6-2.5c2.5-0.2,5.9,0.5,10.1,1.9c4.2,1.4,7.9,2.7,11.1,4
		c3.2,1.3,6,2.9,8.3,4.9s3.4,3.9,3,5.6c-0.3,1.7-2.4,2.8-6.3,3.3l-15,1.9c-0.9,0.2-7.7,0.6-20.4,1.4l-22.7,2.1l-14.3,1.2
		C410.4,284.6,409,287.9,408,290L408,290z"/>
</g>
<g>
	<path d="M686,334.1c0,0.9-0.8,1.4-2.2,1.4c0.2,0-2.2-0.2-7.2-0.8c-3.1-0.4-6.3-0.6-9.6-0.6c-13.8,0-27.2,1.4-40.1,4.1
		c-0.2,0-3.2,0.8-9.1,2.2c-4.8,1.2-7.5,1.8-8.2,1.8c-1.2,0-3.2-0.9-6-2.6s-4.2-3.2-4.4-4.2c0.5,0,1.2,0.1,2.2,0.2
		c0.9,0.1,1.7,0.1,2.2,0.1c1.4,0,5.8-0.5,13-1.5c4.4-0.7,11.1-1.5,20.1-2.6c0.4-7.2,0.7-16.5,0.9-27.8c-6.1,0.7-11.4,1.7-15.9,3
		c-3.9,1.1-5.9,1.6-6,1.6c-1,0-2.5-0.8-4.4-2.5c-2-1.7-3.1-3-3.2-3.9c0.8-2.4,1.2-8,1.2-16.6c0-5.4-0.7-10.5-2-15.4
		c-1.3-4.8-2-7-2-6.5c0-0.8,0.7-1.1,2.1-1.1c1.2,0,2.8,0.6,5,1.8c2.2,1.2,3.2,2.3,3.2,3.4c0-0.4-0.2,1.2-0.5,5
		c-0.3,3.2-0.5,6.6-0.5,10.2c0,3.6,0,6.4,0.1,8.5c0.3,7.4,2,11.1,4.9,11.1c0.4,0,2.8-0.4,7.2-1.2c2.3-0.5,5.9-1.2,10.6-2
		c0-25.1-0.8-40.1-2.4-45.1c-0.7-2-1-3.2-1-3.5c0-0.2,0.2-0.4,0.6-0.4c1.3,0,3.5,0.9,6.5,2.8c3,1.8,4.5,3.3,4.5,4.5
		c0-0.4-0.4,1.1-1.2,4.6c-0.4,1.8-0.7,6.1-0.9,13.1c-0.2,4.9-0.3,12.7-0.4,23.4c3.8-0.2,9.4-0.8,16.9-1.6c3.1-0.4,5.2-1.3,6.4-2.8
		c0.9-1.2,1.7-3.5,2.2-6.9c1-6.1,1.5-11.9,1.5-17.5c0-2.2-0.2-4.5-0.5-6.8l-0.5-3.5c0-0.3,0.2-0.5,0.6-0.5c1.2,0,3,0.8,5.4,2.2
		c2.2,1.6,3.4,3,3.4,4.1c0-0.2-0.8,2.9-2.4,9.1c-1.7,6.3-2.5,13.1-2.5,20.2c0,1.6-0.5,3.1-1.5,4.5c-1.1,1.5-2.4,2.2-3.9,2.2
		c-8.9,0-17.3,0.5-25.2,1.6c-0.1,5.6-0.1,14.8-0.1,27.5c8.1-0.6,15.6-1.3,22.5-2.1c8.9-1.1,13.3-1.6,13.1-1.6c0.8,0,2.3,1,4.4,2.9
		C685,331.8,686,333.3,686,334.1z"/>
	<path d="M685.3,453.5c0,4.7-0.7,7-2.1,7c-0.8,0-4.4-3.6-11-10.8c-4-4.4-8-8.8-12-13.2c-4.1-4.3-8-8-11.6-11
		c-12.6,18.9-26.2,30.9-40.8,36c14.1-11,25.9-24.6,35.4-40.9c-11.1-9.3-20.8-16.8-29.2-22.2c4.5,1.2,10,3.6,16.5,7.1
		c6.5,3.6,11.7,7,15.6,10.1c3.1-6.2,6.1-13.3,9-21.4c3.7-10.1,5.5-17.3,5.5-21.8c0-0.7-0.2-1.6-0.6-2.9c-0.4-1.2-0.6-2.1-0.6-2.6
		c0-0.1,0-0.1,0.1-0.1c2.1,0,4.6,1.2,7.5,3.6c2.8,2.4,4.2,4.5,4.2,6.4c0,0.2-0.6,1.1-1.9,2.9c-1.6,2.1-2.7,4.2-3.4,6.2
		c-0.8,2.1-1.9,5.2-3.4,9.5c-3.2,8.7-6.6,16.7-10.4,24c11,8,20,15.3,27,22C683.2,445.4,685.3,449.4,685.3,453.5z"/>
	<path d="M687.3,512.4c0,0.6-0.6,0.9-1.8,0.9c-0.7,0-1.7,0-3-0.1c-1.3-0.2-2.3-0.2-2.9-0.2c-2,0-5.8,0.2-11.5,0.6
		c-7.4,0.6-13.4,1.2-17.9,1.8c0,5.1-0.1,10.6-0.4,16.5c-0.2,5.9-0.2,9-0.2,9.2c0,4.6-1.6,6.9-4.8,6.9c-0.9,0-2.2-0.2-4-0.5
		c-1.7-0.3-2.9-0.5-3.8-0.5c-4.9,0-9.2,1.8-12.8,5.4c-3.5,3.6-5.2,7.8-5.2,12.8c0,6.8,2.6,12.5,7.9,17c5,4.2,11,6.4,18,6.4
		c9.3,0,17.9-4.3,25.8-12.9c1.8-2,3.2-3,4.4-3c2.3,0,3.5,1.1,3.5,3.2c0,3.6-3.2,7.7-9.5,12.2c-6.8,4.8-14.8,7.2-24.1,7.2
		c-9.2,0-17-2.7-23.4-8c-6.6-5.8-9.9-13.2-9.9-22.2c0-5.2,1.5-9.9,4.6-14c2.9-3.8,6.9-6.7,12-8.6c3.2-1.2,6.1-1.9,8.8-1.9
		c1.6,0,2.9-0.5,4-1.6c1-1.2,1.5-2.5,1.5-4.1l-0.1-18.5c-15.5,1.4-26.4,3.3-32.8,5.8c-2.1,0.8-3.4,1.1-3.9,1.1c-1.2,0-3-1-5.6-2.9
		c-2.6-1.9-4-3.4-4.2-4.5c0.2-0.5,0.7-0.8,1.2-0.8c0.8,0,2,0.2,3.6,0.5c1.6,0.3,2.8,0.5,3.8,0.5c0.2,0,2.7-0.2,7.4-0.8l13.6-1.8
		c9.2-1.1,19.2-2.2,29.9-3.5c3.2-0.3,7.9-0.9,14.2-1.6c0.8-0.1,2.3-0.5,4.5-1.1c1.8-0.7,3.3-1,4.5-1c0.9,0,2.5,0.8,4.9,2.4
		C686.1,510.3,687.3,511.6,687.3,512.4z"/>
	<path d="M782.6,520.1c0,0.5-4.2,5.9-12.5,16.1c-3.2,3.9-8.2,10-15,18.4c-2.2,2.5-3.7,3.8-4.5,3.8c-0.9,0-2.5-1.1-4.8-3.2
		c-2.2-2.2-3.4-3.8-3.4-4.8c0-0.6,1-1.5,3.1-2.8c4.8-3,9.5-6.5,14.2-10.5c4.2-3.8,8.5-7.7,12.8-11.5c5.2-4.7,8-7,8.6-7
		C782.1,518.6,782.6,519.1,782.6,520.1z"/>
</g>
</svg>
