<svg xmlns="http://www.w3.org/2000/svg" viewBox="0 0 760 640"><path fill="none" stroke="#999" stroke-width="2" stroke-miterlimit="10" d="M20.5 601h340m40 0h340"/><path fill="#999" d="M19.5 593h2v16h-2zm720 0h2v16h-2z"/><path d="M375.2 610v-4.2H368v-1.4l7-10h2.3v9.7h2.2v1.7h-2.2v4.2h-2.1zm0-5.9v-5.2c0-.8 0-1.6.1-2.4h-.1c-.5.9-.9 1.6-1.3 2.3L370 604h5.2zm15-7.9h-6l-.6 4c.4 0 .7-.1 1.3-.1 1.2 0 2.4.3 3.4.8 1.2.7 2.2 2 2.2 4 0 3-2.4 5.3-5.8 5.3-1.7 0-3.1-.5-3.9-1l.5-1.6c.6.4 1.9.9 3.3.9 2 0 3.7-1.3 3.7-3.4 0-2-1.4-3.5-4.5-3.5-.9 0-1.6.1-2.2.2l1-7.5h7.5v1.9z"/><path fill="none" stroke="#999" stroke-width="2" stroke-miterlimit="10" d="M20.5 578h220m40 0h220"/><path fill="#999" d="M19.5 570h2v16h-2zm480 0h2v16h-2z"/><path d="M249.1 584.6c.6.4 2 1 3.5 1 2.7 0 3.6-1.7 3.5-3 0-2.2-2-3.1-4-3.1h-1.2v-1.6h1.2c1.5 0 3.5-.8 3.5-2.6 0-1.2-.8-2.4-2.7-2.4-1.2 0-2.4.6-3.1 1l-.6-1.5c.8-.6 2.4-1.2 4.1-1.2 3.1 0 4.5 1.8 4.5 3.7 0 1.6-1 3-2.9 3.7 1.9.4 3.5 1.8 3.5 4 0 2.5-1.9 4.7-5.7 4.7-1.8 0-3.3-.6-4.1-1.1l.5-1.6zm22.2-5.6c0 5.3-2 8.2-5.4 8.2-3 0-5.1-2.9-5.2-8 0-5.2 2.3-8.1 5.4-8.1 3.3 0 5.2 3 5.2 7.9zm-8.5.3c0 4.1 1.2 6.4 3.2 6.4 2.2 0 3.2-2.5 3.2-6.5 0-3.8-1-6.4-3.2-6.4-1.8 0-3.2 2.2-3.2 6.5z"/><g><path fill="none" stroke="#999" stroke-width="2" stroke-miterlimit="10" d="M500.5 578h100m40 0h100"/><path fill="#999" d="M499.5 570h2v16h-2zm240 0h2v16h-2z"/><path d="M613.2 573.4l-2.8 1.5-.4-1.6 3.4-1.8h1.8V587h-2v-13.6zm17-.2h-6l-.6 4c.4 0 .7-.1 1.3-.1 1.2 0 2.4.3 3.4.8 1.2.7 2.2 2 2.2 4 0 3-2.4 5.3-5.8 5.3-1.7 0-3.1-.5-3.9-1l.5-1.6c.6.4 1.9.9 3.3.9 2 0 3.7-1.3 3.7-3.4 0-2-1.4-3.5-4.5-3.5-.9 0-1.6.1-2.2.2l1-7.5h7.5v1.9z"/></g><g><path fill="none" stroke="#999" stroke-width="2" stroke-miterlimit="10" d="M660.5 58h30m20 0h30"/><path fill="#999" d="M659.5 50h2v16h-2zm80 0h2v16h-2z"/><path fill="none" d="M694.5 46.5h13.9v30.4h-13.9z"/><path d="M704.9 52.8h-6l-.6 4c.4 0 .7-.1 1.3-.1 1.2 0 2.4.3 3.4.8 1.2.7 2.2 2 2.2 4 0 3-2.4 5.3-5.8 5.3-1.7 0-3.1-.5-3.9-1l.5-1.6c.6.4 1.9.9 3.3.9 2 0 3.7-1.3 3.7-3.4 0-2-1.4-3.5-4.5-3.5-.9 0-1.6.1-2.2.2l1-7.5h7.5v1.9z"/><g><path fill="none" stroke="#999" stroke-width="2" stroke-miterlimit="10" d="M516.5 58h62m20 0h62"/><path fill="#999" d="M515.5 50h2v16h-2zm144 0h2v16h-2z"/><path d="M583.8 65.5c.5 0 1 0 1.7-.1 1.2-.2 2.4-.7 3.3-1.5 1-.9 1.8-2.3 2.1-4.2h-.1c-.9 1.1-2.1 1.7-3.7 1.7-2.8 0-4.6-2.1-4.6-4.8 0-3 2.1-5.5 5.3-5.5s5.2 2.6 5.2 6.6c0 3.4-1.2 5.8-2.7 7.3-1.2 1.2-2.9 1.9-4.5 2.1-.8.1-1.4.1-1.9.1v-1.7zm.8-9c0 1.9 1.2 3.3 3 3.3 1.4 0 2.5-.7 3.1-1.6.1-.2.2-.4.2-.8 0-2.7-1-4.7-3.2-4.7-1.8 0-3.1 1.6-3.1 3.8z"/></g></g><g><path fill="#eee" d="M660.5 416.1h80v80h-80z"/><path fill="none" stroke="#999" stroke-width="2" stroke-miterlimit="10" d="M660.5 416h80m-80 80h80"/><path fill="#eee" d="M516.5 177.1h144v144h-144z"/><path fill="none" stroke="#999" stroke-width="2" stroke-miterlimit="10" d="M516.5 321h144m-144-144h144"/><path fill="#eee" d="M516.5 352.1h144v144h-144z"/><path fill="none" stroke="#999" stroke-width="2" stroke-miterlimit="10" d="M516.5 496h144m-144-144h144"/><g fill="none" stroke="#ccc" stroke-miterlimit="10"><path d="M180 560V80m161 480V80M20.5 239.5h480m-480 161h480"/></g><g fill="none" stroke="#999" stroke-width="2" stroke-miterlimit="10"><path d="M20.5 80.1h720v480h-720z"/><path d="M20.5 80.1h480v480h-480zM660.5 560V80m-144 480V80"/></g></g><g><path d="M695.8 425.2c1.8 2.1 2.6 4 2.6 5.8 0 .5-.5 1.1-1.5 1.8-1.4 1-2.8 3.1-4.1 6.5-1.8 3.9-4.8 8.6-8.9 14.3-1.5 2.4-2.3 4.3-2.3 5.9 0 1.5.8 3.1 2.4 5l9.9 11.8c3.6 4.5 4.5 9 2.6 13.5-.6 1.1-1.9 1.8-3.5 1.8-1.3 0-2.3-.4-3.1-1.3-1-.8-2.1-2.8-3.3-5.9-3.1-7.1-5.8-12.6-7.9-16.8-2.5-4.3-3.8-7-3.8-8.1 0-1.8.9-4.3 2.5-7.4 1.9-2.9 4-7.5 6.5-13.6 2.6-6.3 4-10.8 4.3-13.4.1-1.9 1-2.9 2.4-2.9 1.7-.1 3.5.9 5.2 3zm10.1-18.5l-8.8.4-.6-26.9 12.6-.2-3.2 26.7zm13.7 18.5c1.8 2 2.6 3.9 2.6 5.8 0 .5-.5 1.1-1.5 1.8-1.4 1-2.8 3.1-4.1 6.5-1.9 3.8-4.9 8.5-9.1 14.3-1.5 2.4-2.3 4.3-2.3 5.9 0 1.4.8 3.1 2.3 5l10 11.8c3.9 4.8 4.8 9.3 2.5 13.5-.6 1.1-1.8 1.8-3.4 1.8-1.4 0-2.4-.4-3-1.3-.9-.9-2-2.8-3.1-5.9-2.6-6-5.3-11.6-8-16.8-2.6-4.4-4-7-4-8.1 0-1.8.9-4.3 2.5-7.4 1.9-3 4.1-7.6 6.8-13.8 2.6-6.3 4.1-10.6 4.4-13.3.2-1.9 1-2.9 2.3-2.9 1.7 0 3.5 1 5.1 3.1zM596.8 413.6c17-1.8 28.1-3.7 33.2-5.5 2.5-1.3 4.1-1.7 4.5-1.5 1.1-.1 3.5 1.3 7 4.4 2.5 2.5 3.8 4.4 3.8 5.5l.1.3c0 1-.6 1.4-1.8 1.4h-2.4c-1.7-.1-3.7.4-5.8.4-5.3-.1-14.2.6-26.7 2-19.3 2.1-36.1 3.8-50.9 4.9-6.3.1-11 1-14.2 2.2-2.1.6-3.2.8-3.7.8-2 0-4.4-1.4-7.2-4.4s-4.2-5.5-4.4-7.6l-.1-.4c-.1-1.4.3-2.1 1.5-2.1l.1-.1c.1 0 1.7.3 2.4.4 3.2 1.3 9 2 17.4 2 14.4-.1 30.1-.9 47.2-2.7zm-31-213.8c2.4 2.1 3.5 4.1 3.5 5.8 0 .4-.4 1.1-1.1 2.4-3.1 4.4-6.2 11.1-9.4 20-1.5 4.5-2.4 7.2-2.4 8 0 1.1.7 1.7 2.2 1.7l3.1-.7 19.5-5.1c3.7-12.5 5.6-25.2 6-38 .3-4.2 2.1-6.3 5.6-6.3 4.9 0 8.4 2.1 8.4 5.6 0 2.7-1 8-3 16.2-2 8-3.8 14.6-5.3 19.5l19.5-4.9c2.2-.7 4.6-2 7.2-3.5 2.4-1.3 3.8-2 4.1-2 1.3 0 3.7 1.3 6.9 3.9 3.2 2.5 4.9 4.5 4.9 5.8 0 .4-.1 1.1-.6 1.8-.4 1.5-1 6.5-1.5 15-2.5 27.4-9.1 46.3-19.8 56.8-4.6 4.6-8.6 6.9-11.8 6.9-2.4 0-3.9-.8-4.4-2.7-.6-1.5-2.5-4.2-5.8-7.7-3.4-3.5-5.1-5.5-5.1-5.9.1-.4.3-.6.6-.6l4.2 1c3.2 1 5.9 1.4 8.2 1.4 3.5 0 6.8-1.4 9.4-4.1 3.2-3.5 6.6-11.2 10.1-23.2s5.2-22.9 5.2-32.6c0-3-1.1-4.5-3.4-4.6-4.1 0-14.2 2.2-30.5 6.6-10.8 30.5-25.9 51.6-45 63.6-2.2 1.4-3.5 2.1-3.8 2.1-.4 0-.6-.1-.6-.6s.6-1.4 1.5-2.7c7.3-7.5 14.5-17.2 21.5-29.1 6.6-10.8 11.5-21 14.6-30.1-13.9 3.8-22.4 6.6-25.3 8.2-2.2 1.1-3.7 1.7-4.2 1.7-.7 0-2.1-1-4.1-2.8-2-2-3-3.2-3-3.9s.4-2.1 1.3-3.9c4.4-6.3 7.7-13.4 10-20.8 3-7.6 4.5-13.8 4.5-18.6 0-1.8.6-2.8 1.7-2.8 2.1 0 4 1.1 6.4 3.2zm-378 76.2c-7.3 1.6-12.1 2.7-14.3 3.4-2.2.7-5.3 2-9.4 3.9-4.1 1.9-7.7 3-11 3.3-3.3.3-8.3-1.9-15-6.6-5.6-3.8-9.3-6.1-10.9-6.9-1.6-.9-3-2-4.2-3.5-1.2-1.5-1.5-2.7-.9-3.6.5-.9 3.1-1.6 7.6-2.1l8.9-.7c.6 0 6.1-.6 16.4-1.9l26.7-2.6c10.9-1.1 21.8-2.7 32.6-4.7l14.3-2.6c1.9-7.5 3.1-12.9 3.8-16.3.6-3.4 2-12.3 4.1-26.7 2.1-14.5 3.2-24.7 3.3-30.8.1-6.1-.1-12-.6-17.6-.8-6.6-2.1-12-4-16.4-1.9-4.4-2.7-7.5-2.6-9.4.2-1.9 1.1-3.5 2.7-4.8 1.6-1.3 4.6-1.8 9-1.3 6.6.9 12.2 2.5 17 4.8 4.8 2.3 9.2 4.6 13.4 7 4.1 2.4 7.1 4.7 8.8 6.9 1.7 2.2 2.6 4.4 2.6 6.6-.2 1.3-1.4 4.4-3.8 9.4-2.3 5-4.1 9.1-5.3 12.3-1.2 3.2-2.7 9.4-4.5 18.5-1.8 9.1-3.1 15.7-3.9 19.8l-6.8 32.8 45.7-9.4c12.2-2.5 20.9-4.4 26-5.7 5.2-1.3 11-3.2 17.6-5.5s11.3-3.5 14.3-3.5c2.8.2 6.8 1.4 11.8 3.6 5.1 2.3 9.3 4.6 12.7 6.9 3.4 2.3 7.1 5.2 11.4 8.7 4.2 3.4 6.9 6.2 8.1 8.3s1.8 4 1.9 5.6c.1 1.6-1.8 5.2-5.7 10.7-2.2 3.1-4.1 6.7-5.6 10.7-1.6 4-3.4 9.6-5.5 16.8-2.1 7.2-3.6 13.1-4.3 17.8L373 409.8c-2.3 13-5.3 25-8.9 36-3.6 11-8.6 22-15.1 32.9-6.5 10.9-13.2 19.3-20.2 25.2-7 5.9-12.6 9.5-17 10.9-4.4 1.4-7.6 1.7-9.6.9-2-.5-3.8-1.6-5.3-3.4-1.5-1.8-4.2-7.1-8.1-15.9-3.9-8.8-8.4-16.8-13.4-23.9-5-7.1-8.8-12.4-11.5-15.8l-3.3-4c-1.7-1.9-2.1-3.1-1.1-3.8 1-.6 2.6-.6 4.8 0l7 2.6c2.7 1.1 7.2 3.5 13.7 7.3 6.5 3.8 12.1 5.6 16.8 5.6 3.6.2 7.1-.7 10.7-2.7s7.1-6.2 10.8-12.7c3.7-6.5 7.3-15.2 10.9-26.1 3.6-10.9 7.3-28.4 11-52.3l7-46.2c2.8-18.6 4.6-31.1 5.4-37.6.8-6.5 1.2-12.7 1.2-18.6-.2-3.4-.7-6.3-1.8-8.7-1-2.3-3.4-4.4-7-6.1-3.7-1.7-9.7-2.5-18.2-2.2s-14.5.6-18 1.1l-55.3 8.9c-2.5 9.7-4.8 18.4-6.9 26-2.1 7.7-4.8 16.6-8.2 26.8-3.4 10.2-7.8 22.1-13.4 35.7-5.5 13.6-11.7 26.2-18.4 37.7-6.7 11.6-13.8 22.3-21.1 32.3-7.3 10-15.2 19.4-23.7 28.2-8.4 8.8-18 17-28.7 24.4-10.7 7.4-21 13.3-30.9 17.6-9.9 4.3-18.8 7.5-26.6 9.5l-7.3 1.9c-1.4.5-2.6.2-3.6-.9s-.4-2.5 1.8-4.2l5.2-3.8c10.3-7.5 17.8-13 22.5-16.6 4.7-3.6 11.3-9.3 19.9-17 8.6-7.7 16.7-15.8 24.4-24.1 7.7-8.4 14.5-16.8 20.6-25.3 6.1-8.5 11.6-17.1 16.5-25.9 4.9-8.7 10.5-19.6 16.8-32.6 6.2-13 11.1-24.2 14.4-33.8 3.4-9.5 6.4-19.5 9-30l4.7-19-37.7 7.9z"/></g></svg>