<svg xmlns="http://www.w3.org/2000/svg" viewBox="0 0 760 640"><g stroke-miterlimit="10"><g fill="none" stroke="#CCC"><path d="M180 560V80M341 560V80M20.5 239.5h480M20.5 400.5h480"/></g><g fill="none" stroke="#999" stroke-width="2"><path d="M20.5 80.1h720v480h-720z"/><path d="M20.5 80.1h480v480h-480zM620.5 560V80"/></g><g fill="#EEE" stroke="#999" stroke-width="2"><path d="M500.5 260.1h120v120h-120zM500.5 380h120M500.5 260h120"/></g><g fill="#EEE" stroke="#999" stroke-width="2"><path d="M620.5 200.1h120v120h-120zM620.5 320h120M620.5 200h120"/></g></g><path fill="none" stroke="#999" stroke-width="2" stroke-miterlimit="10" d="M20.5 601h330M410.5 601h330"/><path fill="#999" d="M19.5 593h2v16h-2zM739.5 593h2v16h-2z"/><g><path d="M361.2 596.4l-2.8 1.5-.4-1.6 3.4-1.8h1.8V610h-2v-13.6zM378.2 596.2h-6l-.6 4c.4 0 .7-.1 1.3-.1 1.2 0 2.4.3 3.4.8 1.2.7 2.2 2 2.2 4 0 3-2.4 5.3-5.8 5.3-1.7 0-3.1-.5-3.9-1l.5-1.6c.6.4 1.9.9 3.3.9 2 0 3.7-1.3 3.7-3.4 0-2-1.4-3.5-4.5-3.5-.9 0-1.6.1-2.2.2l1-7.5h7.5v1.9zM391.6 602c0 5.3-2 8.2-5.4 8.2-3 0-5.1-2.9-5.2-8 0-5.2 2.3-8.1 5.4-8.1 3.3 0 5.2 3 5.2 7.9zm-8.5.3c0 4.1 1.2 6.4 3.2 6.4 2.2 0 3.2-2.5 3.2-6.5 0-3.8-1-6.4-3.2-6.4-1.8 0-3.2 2.2-3.2 6.5zM403.9 602c0 5.3-2 8.2-5.4 8.2-3 0-5.1-2.9-5.2-8 0-5.2 2.3-8.1 5.4-8.1 3.4 0 5.2 3 5.2 7.9zm-8.4.3c0 4.1 1.2 6.4 3.2 6.4 2.2 0 3.2-2.5 3.2-6.5 0-3.8-1-6.4-3.2-6.4-1.9 0-3.2 2.2-3.2 6.5z"/></g><g><path fill="none" stroke="#999" stroke-width="2" stroke-miterlimit="10" d="M20.5 578h210M290.5 578h210"/><path fill="#999" d="M19.5 570h2v16h-2zM499.5 570h2v16h-2z"/><g><path d="M241.2 573.4l-2.8 1.5-.4-1.6 3.4-1.8h1.8V587h-2v-13.6zM259.3 579c0 5.3-2 8.2-5.4 8.2-3 0-5.1-2.9-5.2-8 0-5.2 2.3-8.1 5.4-8.1 3.3 0 5.2 3 5.2 7.9zm-8.5.3c0 4.1 1.2 6.4 3.2 6.4 2.2 0 3.2-2.5 3.2-6.5 0-3.8-1-6.4-3.2-6.4-1.8 0-3.2 2.2-3.2 6.5zM271.6 579c0 5.3-2 8.2-5.4 8.2-3 0-5.1-2.9-5.2-8 0-5.2 2.3-8.1 5.4-8.1 3.3 0 5.2 3 5.2 7.9zm-8.5.3c0 4.1 1.2 6.4 3.2 6.4 2.2 0 3.2-2.5 3.2-6.5 0-3.8-1-6.4-3.2-6.4-1.8 0-3.2 2.2-3.2 6.5zM283.9 579c0 5.3-2 8.2-5.4 8.2-3 0-5.1-2.9-5.2-8 0-5.2 2.3-8.1 5.4-8.1 3.4 0 5.2 3 5.2 7.9zm-8.4.3c0 4.1 1.2 6.4 3.2 6.4 2.2 0 3.2-2.5 3.2-6.5 0-3.8-1-6.4-3.2-6.4-1.9 0-3.2 2.2-3.2 6.5z"/></g></g><g><path fill="none" stroke="#999" stroke-width="2" stroke-miterlimit="10" d="M500.5 578h90M650.5 578h90"/><path fill="#999" d="M499.5 570h2v16h-2zM739.5 570h2v16h-2z"/><g><path d="M611.9 573.2h-6l-.6 4c.4 0 .7-.1 1.3-.1 1.2 0 2.4.3 3.4.8 1.2.7 2.2 2 2.2 4 0 3-2.4 5.3-5.8 5.3-1.7 0-3.1-.5-3.9-1l.5-1.6c.6.4 1.9.9 3.3.9 2 0 3.7-1.3 3.7-3.4 0-2-1.4-3.5-4.5-3.5-.9 0-1.6.1-2.2.2l1-7.5h7.5v1.9zM625.3 579c0 5.3-2 8.2-5.4 8.2-3 0-5.1-2.9-5.2-8 0-5.2 2.3-8.1 5.4-8.1 3.3 0 5.2 3 5.2 7.9zm-8.5.3c0 4.1 1.2 6.4 3.2 6.4 2.2 0 3.2-2.5 3.2-6.5 0-3.8-1-6.4-3.2-6.4-1.8 0-3.2 2.2-3.2 6.5zM637.6 579c0 5.3-2 8.2-5.4 8.2-3 0-5.1-2.9-5.2-8 0-5.2 2.3-8.1 5.4-8.1 3.3 0 5.2 3 5.2 7.9zm-8.5.3c0 4.1 1.2 6.4 3.2 6.4 2.2 0 3.2-2.5 3.2-6.5 0-3.8-1-6.4-3.2-6.4-1.8 0-3.2 2.2-3.2 6.5z"/></g></g><g><path fill="none" stroke="#999" stroke-width="2" stroke-miterlimit="10" d="M620.5 58h40M700.5 58h40"/><path fill="#999" d="M619.5 50h2v16h-2zM739.5 50h2v16h-2z"/><g><path d="M662.6 67v-1.3l1.7-1.6c4-3.8 5.8-5.8 5.8-8.2 0-1.6-.8-3-3.1-3-1.4 0-2.6.7-3.3 1.3l-.7-1.5c1.1-.9 2.6-1.6 4.4-1.6 3.4 0 4.8 2.3 4.8 4.5 0 2.9-2.1 5.2-5.4 8.4l-1.2 1.2h7V67h-10zM684.2 53.2h-6l-.6 4c.4 0 .7-.1 1.3-.1 1.2 0 2.4.3 3.4.8 1.2.7 2.2 2 2.2 4 0 3-2.4 5.3-5.8 5.3-1.7 0-3.1-.5-3.9-1l.5-1.6c.6.4 1.9.9 3.3.9 2 0 3.7-1.3 3.7-3.4 0-2-1.4-3.5-4.5-3.5-.9 0-1.6.1-2.2.2l1-7.5h7.5v1.9zM697.6 59c0 5.3-2 8.2-5.4 8.2-3 0-5.1-2.9-5.2-8 0-5.2 2.3-8.1 5.4-8.1 3.3 0 5.2 3 5.2 7.9zm-8.5.3c0 4.1 1.2 6.4 3.2 6.4 2.2 0 3.2-2.5 3.2-6.5 0-3.8-1-6.4-3.2-6.4-1.8 0-3.2 2.2-3.2 6.5z"/></g><g><path fill="none" stroke="#999" stroke-width="2" stroke-miterlimit="10" d="M500.5 58h40M580.5 58h40"/><path fill="#999" d="M499.5 50h2v16h-2zM619.5 50h2v16h-2z"/><g><path d="M542.6 67v-1.3l1.7-1.6c4-3.8 5.8-5.8 5.8-8.2 0-1.6-.8-3-3.1-3-1.4 0-2.6.7-3.3 1.3l-.7-1.5c1.1-.9 2.6-1.6 4.4-1.6 3.4 0 4.8 2.3 4.8 4.5 0 2.9-2.1 5.2-5.4 8.4l-1.2 1.2h7V67h-10zM564.2 53.2h-6l-.6 4c.4 0 .7-.1 1.3-.1 1.2 0 2.4.3 3.4.8 1.2.7 2.2 2 2.2 4 0 3-2.4 5.3-5.8 5.3-1.7 0-3.1-.5-3.9-1l.5-1.6c.6.4 1.9.9 3.3.9 2 0 3.7-1.3 3.7-3.4 0-2-1.4-3.5-4.5-3.5-.9 0-1.6.1-2.2.2l1-7.5h7.5v1.9zM577.6 59c0 5.3-2 8.2-5.4 8.2-3 0-5.1-2.9-5.2-8 0-5.2 2.3-8.1 5.4-8.1 3.3 0 5.2 3 5.2 7.9zm-8.5.3c0 4.1 1.2 6.4 3.2 6.4 2.2 0 3.2-2.5 3.2-6.5 0-3.8-1-6.4-3.2-6.4-1.8 0-3.2 2.2-3.2 6.5z"/></g></g></g><g><path d="M542.6 290.1c.8.8 1.3 2 1.4 3.3 0 1.1-.9 3.3-2.8 6.4-3.9 6.7-6.1 11.5-6.6 14.6 0 .9.6 1.4 1.9 1.4.8 0 6.6-.9 17.3-2.8 14.9-2.8 25.7-4.2 32.3-4.2 2.1 0 4.5 1.2 6.9 3.6 2.6 2.5 3.9 4.5 3.9 6.2 0 1.5-1.8 6.2-5.2 14.1-3.9 8.6-8.3 16.2-13.2 22.7-5.3 6.4-10.8 11.4-16.5 14.6-1.5.9-2.3 1.4-2.6 1.4-.4 0-.5-.2-.5-.6l.8-1.3c6.2-6.9 12.4-16.4 18.6-28.6 4.8-10.7 7.3-17.9 7.3-21.9 0-2.2-1.3-3.3-3.8-3.3-4.6 0-13.2 1.1-26 3.3-12.7 2.1-20.5 3.8-23.4 4.9-1.5.5-2.6.7-3 .7-.7 0-1.9-.9-3.4-2.8s-2.2-3.4-2.2-4.5c0-.9.6-2.1 1.8-3.6 1.8-2 3-4.1 3.9-6.2l4.9-10.9c1.1-2.5 1.6-4 1.6-4.7-3.3-1.5-6.4-3.4-9.5-5.9-.6-.4-.8-.6-.8-.8 0-.9.6-1.4 1.8-1.5 7.3-.2 16.5-1.3 27.9-3 11.4-1.9 19.1-3.5 23.1-5 1.4-.5 2.5-.7 3-.7 1.5 0 3.8 1.1 6.6 3.3 2.8 2.1 4.2 3.6 4.2 4.7 0 .6-1.1 1.6-3.2 3-2 1.4-5.5 6.2-10.7 14.5-2 2.9-3.4 4.5-4 4.5-.9 0-1.4-.5-1.4-1.4 0-.5.2-1.3.6-2.5.1 0 1.2-4.1 3.3-12.3.2-1.4.4-2.5.4-3 0-1.9-.8-2.8-2.3-2.8.3.1-10.4 2.5-32.4 7.1zM228.8 332.5l73.4-4.2c1.1-6.2 1.5-10.9 1.2-14.1l-1.6-13.4c.2-1.7.7-3 1.6-4s2.8-1.3 5.6-1.1 5.4.9 7.7 1.9c2.3 1 5.9 2.9 10.7 5.6 4.8 2.7 8.3 5.4 10.5 8 2.3 2.6 3.2 4.5 2.9 5.7l-1.6 8.4 30.7-3.5 22.7-2.6c9.2-1.1 17-2.2 23.4-3.4 6.4-1.2 11-1.8 13.8-1.8 3.4.2 6.8.9 10.2 2.2 3.4 1.3 8 3.5 14.1 6.6 6 3 10.5 5.7 13.4 8 2.9 2.3 4.3 4.6 4.1 6.9-.3 1.7-1.2 3.1-2.6 4.2-1.4 1.1-4.1 1.6-8 1.6l-19.2.7-71.7-.7-37.7.7c-2.8 7-5.7 14.2-8.7 21.6-3 7.3-7.1 16.6-12.3 27.7-5.2 11.1-10.3 20.2-15.1 27.2l-5.9 8.7 27.2 13.4c10 5 18.3 9.5 25 13.5 6.6 4 13.2 9.5 19.6 16.4 6.4 7 10.8 13.5 13.1 19.6s3.5 11.5 3.5 16.2c-.2 3.6-.8 6.4-2 8.3-1.2 2-2.5 3.4-4.1 4.5-1.6 1-3.2 1.5-4.9 1.5-1.9.2-4.1-.4-6.8-1.5-2.7-1.2-5.9-3.2-9.6-6.1-3.8-2.9-11.7-10-23.8-21.3-12.1-11.3-23.3-20.8-33.6-28.5l-21.8-15.5c-9.2 8.6-17.5 15.7-24.7 21.4-7.3 5.7-16.4 11.4-27.3 17-10.9 5.6-22.9 10.2-36 13.8-13 3.6-23.9 5.6-32.7 6-8.8.4-15.7.4-20.9.1l-6.8-.2c-3.8 0-6.2-.4-7.3-1.2-1.1-.8-1.5-1.8-1.3-2.9s2.1-2.2 5.5-3.2l7.5-1.9c5.6-1.4 10.4-2.6 14.3-3.6 3.9-1 11.4-3.6 22.4-7.6 11-4.1 22.3-9.2 33.9-15.4 11.6-6.2 21.5-13.2 29.8-21.2l18.3-16.9-34-16.6c-7.8-3.8-15.2-6.8-22-9-6.9-2.3-11.7-4.4-14.4-6.4-2.7-2-4.2-4.2-4.3-6.6-.2-2.3.9-5.2 3-8.7.5-.8 3-4.1 7.6-10.1 4.6-5.9 8.1-11.2 10.4-15.9l3.8-8c-9.4.9-18.2 1.9-26.6 2.9-8.4 1-18.9 2.7-31.8 5l-23 4.5-18.5 4c-4.4.9-7.9 1.3-10.5 1.2-3.9 0-7.8-.8-11.7-2.3l-11.7-5.6c-6.3-2.8-10-5.6-11.4-8.4-1.3-2.8-1.5-4.8-.6-6.1.9-1.2 3.1-2 6.6-2.3l18.8-.9 37.3-1.4 54.6-4.7 35.9-2.8c2-6.1 4.1-12.2 6.1-18.4 2-6.2 3.6-12.7 4.8-19.5s1.9-13.9 2.2-21.4c.3-7.5.2-12.8-.2-15.9l-3-11.5c-.9-3.8-.9-6.1.1-7.1s3.1-1.5 6.2-1.5c3.6.2 7.5 1 11.8 2.5 4.3 1.5 9.1 3.9 14.4 7.3 5.3 3.4 9.2 6.4 11.6 9.3 2.4 2.8 3.6 5.3 3.4 7.5-.2 1.3-1.1 3.3-2.8 6.1-1.7 2.8-4.1 6.6-7.3 11.4-3.1 4.8-5.2 8.6-6.3 11.4L232 327l-3.2 5.5zm-72.2-131.7c29.7-.9 47.4-1.7 53.2-2.3l57-4.7c-4.5-4.1-7.7-7.3-9.4-9.8l-15-26c-4.5-7.2-6.9-12.1-7-14.8-.2-2.7.2-4.6.9-5.7.8-1.2 4.1-.9 10.1.8 8.9 3 16.2 5.5 21.9 7.6 5.7 2.1 10.6 5.5 14.6 10.3 4.1 4.8 6.6 9.8 7.5 15.1.8 5.2.6 9-.5 11.5l-3 8.2 66.1-8.2c10-1.1 17.6-2.5 22.9-4.2 5.2-1.7 8.5-2.6 9.7-2.6 2.8.2 6.2 1.4 10.3 3.9 4.1 2.4 10.3 7.2 18.8 14.4 8.4 7.2 13.9 13.2 16.5 18.2s3.3 8.5 2.2 10.7c-1.1 2-4.2 3.7-9.4 4.9l-12.4 2.8c-5 1.3-11.4 3.3-19.3 6.2-7.9 2.9-15 5.7-21.2 8.6l-12.7 5.6c-3.4 1.6-5.7 1.9-6.7.9-1-.9-.6-3 1.3-6.1l5.4-8.9c.9-1.6 3.3-5.2 7.1-10.8 3.8-5.6 6.8-10.6 8.8-14.9 2-4.3 2.3-7.5.9-9.6s-3.4-3.4-5.9-3.8c-2.5-.4-6.2-.5-11-.4l-27.4 1.6c-5 .3-17.8 1.7-38.3 4.1-20.5 2.4-32.3 3.9-35.3 4.3l-40.5 6.3-23 3.3c-13.1 2.7-19.9 3.9-20.4 3.8l-15.2-1.2c-.6 4.1-1.3 7.9-2 11.4s-2.7 9.1-5.9 16.6c-3.2 7.6-6.6 14.3-10.1 20-3.5 5.8-7.2 9-11 9.6-3.8.6-7.7-.7-11.5-4.1-3.8-3.4-5.8-7.8-5.9-13.4-.1-5.5.5-9.9 1.8-13l8.7-15.7 12.4-31.2 3.8-12.2c1.6-4.1 3.3-6.2 5.3-6.4 2-.2 3.9.8 5.7 3.2s3.4 5.3 4.7 8.9l2.4 7.2zM220.8 351l-17.1 30-6.1 9.4c0 1.9 1.4 3.8 4.2 5.6l15 5.2 46.4 16.9c3.9-5.5 7.3-10.5 10.2-15 2.9-4.5 6.4-10.7 10.7-18.5 4.2-7.8 7.3-14.5 9.1-19.9l6.8-19-79.2 5.3z"/></g></svg>