<svg xmlns="http://www.w3.org/2000/svg" viewBox="0 0 760 640"><g stroke-miterlimit="10"><g fill="none" stroke="#CCC"><path d="M180 560V80M341 560V80M20.5 239.5h480M20.5 400.5h480"/></g><g fill="none" stroke="#999" stroke-width="2"><path d="M20.5 80.1h720v480h-720z"/><path d="M20.5 80.1h480v480h-480zM620.5 560V80"/></g><g fill="#EEE" stroke="#999" stroke-width="2"><path d="M500.5 140.1h120v120h-120zM500.5 260.1h120v120h-120zM500.5 380h120M500.5 260h120M500.5 380.1h120v120h-120zM500.5 500h120M500.5 380h120"/></g><g fill="#EEE" stroke="#999" stroke-width="2"><path d="M620.5 380.1h120v120h-120zM620.5 500h120M620.5 380h120"/></g></g><path fill="none" stroke="#999" stroke-width="2" stroke-miterlimit="10" d="M20.5 601h330M410.5 601h330"/><path fill="#999" d="M19.5 593h2v16h-2zM739.5 593h2v16h-2z"/><path d="M361.2 596.4l-2.8 1.5-.4-1.6 3.4-1.8h1.8V610h-2v-13.6zM378.2 596.2h-6l-.6 4c.4 0 .7-.1 1.3-.1 1.2 0 2.4.3 3.4.8 1.2.7 2.2 2 2.2 4 0 3-2.4 5.3-5.8 5.3-1.7 0-3.1-.5-3.9-1l.5-1.6c.6.4 1.9.9 3.3.9 2 0 3.7-1.3 3.7-3.4 0-2-1.4-3.5-4.5-3.5-.9 0-1.6.1-2.2.2l1-7.5h7.5v1.9zM391.6 602c0 5.3-2 8.2-5.4 8.2-3 0-5.1-2.9-5.2-8 0-5.2 2.3-8.1 5.4-8.1 3.3 0 5.2 3 5.2 7.9zm-8.5.3c0 4.1 1.2 6.4 3.2 6.4 2.2 0 3.2-2.5 3.2-6.5 0-3.8-1-6.4-3.2-6.4-1.8 0-3.2 2.2-3.2 6.5zM403.9 602c0 5.3-2 8.2-5.4 8.2-3 0-5.1-2.9-5.2-8 0-5.2 2.3-8.1 5.4-8.1 3.4 0 5.2 3 5.2 7.9zm-8.4.3c0 4.1 1.2 6.4 3.2 6.4 2.2 0 3.2-2.5 3.2-6.5 0-3.8-1-6.4-3.2-6.4-1.9 0-3.2 2.2-3.2 6.5z"/><g><path fill="none" stroke="#999" stroke-width="2" stroke-miterlimit="10" d="M20.5 578h210M290.5 578h210"/><path fill="#999" d="M19.5 570h2v16h-2zM499.5 570h2v16h-2z"/><g><path d="M241.2 573.4l-2.8 1.5-.4-1.6 3.4-1.8h1.8V587h-2v-13.6zM259.3 579c0 5.3-2 8.2-5.4 8.2-3 0-5.1-2.9-5.2-8 0-5.2 2.3-8.1 5.4-8.1 3.3 0 5.2 3 5.2 7.9zm-8.5.3c0 4.1 1.2 6.4 3.2 6.4 2.2 0 3.2-2.5 3.2-6.5 0-3.8-1-6.4-3.2-6.4-1.8 0-3.2 2.2-3.2 6.5zM271.6 579c0 5.3-2 8.2-5.4 8.2-3 0-5.1-2.9-5.2-8 0-5.2 2.3-8.1 5.4-8.1 3.3 0 5.2 3 5.2 7.9zm-8.5.3c0 4.1 1.2 6.4 3.2 6.4 2.2 0 3.2-2.5 3.2-6.5 0-3.8-1-6.4-3.2-6.4-1.8 0-3.2 2.2-3.2 6.5zM283.9 579c0 5.3-2 8.2-5.4 8.2-3 0-5.1-2.9-5.2-8 0-5.2 2.3-8.1 5.4-8.1 3.4 0 5.2 3 5.2 7.9zm-8.4.3c0 4.1 1.2 6.4 3.2 6.4 2.2 0 3.2-2.5 3.2-6.5 0-3.8-1-6.4-3.2-6.4-1.9 0-3.2 2.2-3.2 6.5z"/></g></g><g><path fill="none" stroke="#999" stroke-width="2" stroke-miterlimit="10" d="M500.5 578h90M650.5 578h90"/><path fill="#999" d="M499.5 570h2v16h-2zM739.5 570h2v16h-2z"/><g><path d="M611.9 573.2h-6l-.6 4c.4 0 .7-.1 1.3-.1 1.2 0 2.4.3 3.4.8 1.2.7 2.2 2 2.2 4 0 3-2.4 5.3-5.8 5.3-1.7 0-3.1-.5-3.9-1l.5-1.6c.6.4 1.9.9 3.3.9 2 0 3.7-1.3 3.7-3.4 0-2-1.4-3.5-4.5-3.5-.9 0-1.6.1-2.2.2l1-7.5h7.5v1.9zM625.3 579c0 5.3-2 8.2-5.4 8.2-3 0-5.1-2.9-5.2-8 0-5.2 2.3-8.1 5.4-8.1 3.3 0 5.2 3 5.2 7.9zm-8.5.3c0 4.1 1.2 6.4 3.2 6.4 2.2 0 3.2-2.5 3.2-6.5 0-3.8-1-6.4-3.2-6.4-1.8 0-3.2 2.2-3.2 6.5zM637.6 579c0 5.3-2 8.2-5.4 8.2-3 0-5.1-2.9-5.2-8 0-5.2 2.3-8.1 5.4-8.1 3.3 0 5.2 3 5.2 7.9zm-8.5.3c0 4.1 1.2 6.4 3.2 6.4 2.2 0 3.2-2.5 3.2-6.5 0-3.8-1-6.4-3.2-6.4-1.8 0-3.2 2.2-3.2 6.5z"/></g></g><g><path fill="none" stroke="#999" stroke-width="2" stroke-miterlimit="10" d="M620.5 58h40M700.5 58h40"/><path fill="#999" d="M619.5 50h2v16h-2zM739.5 50h2v16h-2z"/><g><path d="M662.6 67v-1.3l1.7-1.6c4-3.8 5.8-5.8 5.8-8.2 0-1.6-.8-3-3.1-3-1.4 0-2.6.7-3.3 1.3l-.7-1.5c1.1-.9 2.6-1.6 4.4-1.6 3.4 0 4.8 2.3 4.8 4.5 0 2.9-2.1 5.2-5.4 8.4l-1.2 1.2h7V67h-10zM684.2 53.2h-6l-.6 4c.4 0 .7-.1 1.3-.1 1.2 0 2.4.3 3.4.8 1.2.7 2.2 2 2.2 4 0 3-2.4 5.3-5.8 5.3-1.7 0-3.1-.5-3.9-1l.5-1.6c.6.4 1.9.9 3.3.9 2 0 3.7-1.3 3.7-3.4 0-2-1.4-3.5-4.5-3.5-.9 0-1.6.1-2.2.2l1-7.5h7.5v1.9zM697.6 59c0 5.3-2 8.2-5.4 8.2-3 0-5.1-2.9-5.2-8 0-5.2 2.3-8.1 5.4-8.1 3.3 0 5.2 3 5.2 7.9zm-8.5.3c0 4.1 1.2 6.4 3.2 6.4 2.2 0 3.2-2.5 3.2-6.5 0-3.8-1-6.4-3.2-6.4-1.8 0-3.2 2.2-3.2 6.5z"/></g></g><g><path fill="none" stroke="#999" stroke-width="2" stroke-miterlimit="10" d="M500.5 58h40M580.5 58h40"/><path fill="#999" d="M499.5 50h2v16h-2zM619.5 50h2v16h-2z"/><g><path d="M542.6 67v-1.3l1.7-1.6c4-3.8 5.8-5.8 5.8-8.2 0-1.6-.8-3-3.1-3-1.4 0-2.6.7-3.3 1.3l-.7-1.5c1.1-.9 2.6-1.6 4.4-1.6 3.4 0 4.8 2.3 4.8 4.5 0 2.9-2.1 5.2-5.4 8.4l-1.2 1.2h7V67h-10zM564.2 53.2h-6l-.6 4c.4 0 .7-.1 1.3-.1 1.2 0 2.4.3 3.4.8 1.2.7 2.2 2 2.2 4 0 3-2.4 5.3-5.8 5.3-1.7 0-3.1-.5-3.9-1l.5-1.6c.6.4 1.9.9 3.3.9 2 0 3.7-1.3 3.7-3.4 0-2-1.4-3.5-4.5-3.5-.9 0-1.6.1-2.2.2l1-7.5h7.5v1.9zM577.6 59c0 5.3-2 8.2-5.4 8.2-3 0-5.1-2.9-5.2-8 0-5.2 2.3-8.1 5.4-8.1 3.3 0 5.2 3 5.2 7.9zm-8.5.3c0 4.1 1.2 6.4 3.2 6.4 2.2 0 3.2-2.5 3.2-6.5 0-3.8-1-6.4-3.2-6.4-1.8 0-3.2 2.2-3.2 6.5z"/></g></g><g><path d="M708.5 419.1c1.3 1.5 2 2.7 2 3.6 0 .8-.8 1.3-2.5 1.3-1.3-.2-2.2-.4-3-.4-11.5.5-23 2.2-34.6 5.4 0 6.2-.8 13.5-2.6 21.8-1.5 8.3-3.8 15.4-6.8 21.2-2.5 4.6-5.3 7.9-8.3 9.6-1.2 0-1.8-.1-1.8-.4 0-.1.2-.5.8-1.3 2.7-4.3 5-11.2 7.1-20.9 2.2-9.7 3.3-18.6 3.3-27 0-2.7-.4-4.8-1.2-6.3l-.6-1.4c0-.7.7-1.1 2.2-1.1 5 0 13-1.2 24.1-3.4 10.9-2.1 16.8-3.2 17.6-3.2 1.7.3 3 1 4.3 2.5zm-22.2-16.6l-8.2.4-.6-25.2 11.8-.2-3 25zM518.9 419.3c.8.4 2.3.5 4.3.5s4-.2 6.2-.6l28.2-4.5-.4-8.4c0-6.2-.8-10.8-2.3-13.7-.6-.6-.9-1.1-.9-1.3 0-2 1.1-2.9 3.3-2.9 1.6 0 3.6.4 5.9 1.2 2.9 1.3 4.5 2.5 4.5 3.5 0 .4-.2.8-.8 1.3-.7 1.8-1.1 3.9-1.1 6.3l-.1 12.9 20.7-3.3c3.6-.7 6.2-1.3 7.5-1.6 1.4-.4 2.3-.6 2.8-.6 1.1 0 2.5.7 4.3 2.1 2.1 1.8 3.2 3 3.2 4 0 1.3-1.1 2-3.3 2h-4.2c-5 .4-15.5 1.5-31.2 3.8l-.2 20c0 4.1-1.5 6.2-4.7 6.2-.6 0-1.6-.5-3.2-1.5-1.4-.6-2.6-.9-3.4-.9-4 0-7.5 1.5-10.5 4.5-2.9 2.9-4.5 6.7-4.5 11.5 0 10.7 8.4 18.5 22.5 18.5 9.6 0 17.8-3 24.7-9.3 1.8-1.8 3.3-2.6 4.8-2.6 1.8 0 3.3 1.3 3.3 2.7 0 4.5-3.4 8.6-10.2 12.4-6.4 3.4-14.1 5.2-22.6 5.2-8.8 0-16.3-2.6-22.5-7.6-6-5.3-8.9-11.7-8.9-19.3 0-5.5 1.9-10.5 5.6-15 4.5-4.5 10.9-6.9 19.2-7.5 2.5-.2 3.6-2.3 3.3-6.4l-.4-9.5c-16.2 2.5-25.7 4.2-28.4 5.4-1.3.8-2.5 1.2-3.6 1.2-1.5 0-3.8-1.1-6.8-3.2-2.9-2.2-4.5-3.8-4.5-4.3 0-1.3.4-1.9.9-1.9s1.9.1 3.5.7zM542.9 148.6c2.9 2.5 4.5 4.2 4.5 5.5 0 .9-.8 2.1-2.5 3.4-1.3.7-4.1 4.3-8.4 11S530 178.9 530 180c0 .8.8 1.3 2.3 1.3.4 0 1.8-.4 4.3-1.1 13.8-2.9 28.2-5.5 43.1-7.5 4.3-.5 7.7-1.1 10.1-1.9 1.8-.8 3-1.2 3.9-1.2 1.4 0 3.5 1.6 6.2 5 2.7 3.3 4.1 5.6 4.1 7 0 .4-.6 1.4-1.8 3.2-.9 1.2-1.6 3-2.2 5.6-4.5 19-10.4 33.9-18 44.5-5.6 8.6-10.7 12.8-15 12.8-1.9 0-3.4-1.5-4.5-4.5-1.5-4-4.2-7.9-8-11.6-.5-.4-.7-.7-.7-.8 0-.4.1-.5.5-.5l2.1.9c4.8 2.5 8.3 3.6 10.5 3.6 3.9 0 8.7-6.6 14.4-19.8 7.3-15.6 10.9-27.1 10.9-34.5 0-1.5-1.5-2.3-4.5-2.3-5.6 0-15.1 1.3-28.5 3.9l-10.9 2.1c2.8 2 5.9 6.2 5.9 8.1 0 2.9-3.5 9.3-10.7 19-5.6 8.4-11.5 15-17.5 19.6-4.3 3.5-7.4 5.3-8.9 5.3-.6 0-.7-.5.4-2.2 6-5.2 12-13 17.9-23.4s8.9-18 8.9-22.9c0-.6-.4-1.4-1.1-2.3-5.4 1.2-10.1 2.5-14.2 4-2 1.1-3.5 1.6-4.5 1.6-1.1 0-2.6-.7-4.6-2.1-2-1.5-2.9-2.7-2.9-3.5 0-.6 1.1-2.3 3.3-5 6.6-10.7 11.2-19.9 14.1-27.8.9-2 1.1-4.1.5-6.1 0-1.2.5-1.8 1.4-1.8 1.5.1 3.6 1.4 6.6 3.9zM231 337.9c-10.2.9-18.6 1.9-25 2.8-6.4.9-17.7 2.7-34 5.4s-28 5.3-35.2 7.9c-7.2 2.6-12 3.9-14.3 3.9-3 .2-5.9-.3-8.9-1.3s-6.6-2.4-11-4.1c-4.4-1.7-8.8-3.9-13.2-6.4s-6.1-5.3-5-8.1c.5-1.4 1.3-2.4 2.5-2.9s4.4-1.1 9.7-1.5l14.8-.9c8.6-.5 18.8-1.3 30.5-2.6l63.5-6.8 37-3.3.5-39.1c-4.7.8-7.8 1.3-9.4 1.4-1.6.2-6.6.5-15.2 1.1-8.6.5-13.8.7-15.7.6-3.6 0-8.5-.6-14.8-1.8-6.3-1.2-10.2-2.5-11.8-4-1.6-1.5-2.3-3.2-2-5 .3-1.9 2-3 4.9-3.3l9.8-.7 21.6-2.8 20.9-1.9 11.2-1.9c0-5.2 0-9.6-.1-13.5-.1-3.8-.4-7.3-.8-10.3s-1.7-6.3-3.6-9.8c-2-3.5-3.1-6.2-3.4-8-.3-1.8.2-3.2 1.4-4.2s3.4-1.4 6.6-1.1c2.7.5 6.6 1.4 11.8 2.7 5.2 1.3 9.5 2.6 12.7 3.8 3.2 1.2 5.1 2.5 5.7 4 .6 1.5.9 2.6.9 3.4-.2 1.1-1 3.5-2.6 7.3s-2.4 7.8-2.6 12.2l-.7 10.3c7.3-1.9 12.9-3.3 16.6-4.2l14.1-2.8c5-.9 8.7-1.4 11-1.4 2.2.2 5.6 1.1 10.2 2.7s8.1 3.2 10.5 4.6c2.4 1.4 3.8 2.8 4 4.1.2 1.3-.6 2.8-2.5 4.3-1.6 1.4-4.1 2.2-7.7 2.5-3.6.2-9.1 1.1-16.6 2.7l-21.3 3.3-19.7 3.3-2.1 39.8 23.2-1.4c17-16.2 29.6-28.8 37.7-37.7 8.1-8.9 14.1-16.1 17.9-21.4 3.8-5.4 6.4-9.4 7.9-12.1 1.4-2.7 2.4-5.5 3-8.4.6-3 1.1-5.9 1.5-8.7.4-2.8 1-4.8 1.9-6.1.9-1.2 3.9-.9 9 .9 4.2 1.7 8.6 5 13 9.7 4.5 4.8 7.7 9.2 9.7 13.2 2 4.1 2.3 7.1.7 9.1-.6.6-2 1.5-4.2 2.7-2.2 1.2-4.8 2.9-7.7 5.3-3 2.3-6.7 5.5-11.1 9.6-4.5 4.1-8.3 7.7-11.6 11L326 313.8c10.8-1.2 20.9-2.3 30.5-3.3 9.5-.9 15.2-1.5 17-1.8 1.8-.2 6.5-1.1 14.2-2.5 7.7-1.4 13.3-2.6 16.9-3.5 3.6-.9 6-1.5 7.3-1.6 4.1-.3 8.8.8 14.2 3.4s9.2 4.7 11.4 6.4c2.2 1.7 4.9 4 8.2 6.9 3.3 2.9 4.9 5 4.9 6.2-.3 2.2-1.8 3.7-4.3 4.6-2.6.9-6.1 1.4-10.4 1.5l-26 .9-72.9.7-32.6.7c-7 6.6-12.3 11.3-15.7 14.3l-24.1 19.7c-13.1 10.8-20.7 16.7-22.7 17.8l-15.5 9.4c13.7-1.6 24.1-3 31.2-4.5l25.3-5.4c10.2-2 18.2-3.9 24.1-5.7 5.9-1.8 10.2-2.7 12.9-2.7 3.8.2 7.1.9 10.2 2.2 3 1.3 6.9 3.2 11.5 5.7s8.2 4.8 10.8 7c2.6 2.2 4.1 4.3 4.5 6.4.4 2.1-.1 4.8-1.5 8.1l-3.3 7.5c-1.1 3.1-1.8 7-2.1 11.7-.3 4.7-.5 8.1-.5 10.2v34.8l1.2 24.6c.2 5.5-.1 10.1-.7 13.8-.9 5.5-2.5 10.2-4.7 14.1-2.2 3.9-4.6 7.1-7.3 9.7-2.7 2.6-4.9 3.8-6.8 3.6-3.9-.2-6.2-2.2-6.8-6.1l-4.9-14.8c-13.4.8-24.5 1.5-33.3 2.2-8.8.7-18 1.2-27.8 1.6-9.8.4-17 .9-21.8 1.4-4.8.5-7.1.7-7.1.6l-12.9-.7-2.8 6.6c-1.4 3.1-2.9 4.8-4.3 5-1.5.2-3.1-.6-4.8-2.5-2-1.9-3.9-6-5.6-12.3-1.7-6.3-2.5-11.1-2.3-14.4 0-1.7.4-4.6 1.3-8.7s2-10.1 3.3-18c1.3-8 2.1-13.4 2.2-16.2l1.2-23.9c.2-3.9.2-6.7 0-8.4-.2-1.7-.4-4.1-.7-7.3l-1.2-8.7c-11.1 6.3-20.4 11.4-28 15.5-7.6 4.1-16.7 8.5-27.3 13.4-10.6 4.8-19.1 8.3-25.3 10.3-6.3 2-16.8 5.1-31.6 9.1l-12.9 3.5c-5.6 1.4-8.6 1.2-9-.5-.4-1.7 1.9-3.8 6.9-6.1l15-6.6c9.2-4.1 17.1-7.8 23.7-11.2l26.2-15 32.3-18c9.5-5.6 17.7-10.9 24.5-15.7 6.8-4.8 17.7-12.9 32.7-24.3 15-11.3 23.5-17.8 25.5-19.6l12.4-10.3c-14.5 1.3-26.7 2.3-37 3.3zm-46.8-174.6c-.7-2.7-1.9-6.3-3.5-11s-3.1-8.2-4.3-10.5c-1.3-2.3-3.1-5.3-5.6-8.8-2.5-3.5-3.5-6-2.9-7.4.5-1.4 2.4-2.5 5.5-3.3 3.1-.8 8.3-.1 15.5 2 7.2 2.1 12.1 3.9 14.8 5.3 2.7 1.4 4.5 3.1 5.4 5.2.5 1.6.4 4.2-.4 7.9-.7 3.7-1 6.7-.8 9l.9 8.7 1.2 11 31.2-4c6.4-.8 9.6.5 9.7 3.9.1 3.4-2.7 5.7-8.3 7.1l-31.4 8 3.3 27.9c.6 6.6.1 11.1-1.5 13.7s-3.7 3.9-6.1 4.1c-2.4.2-4.7-3.6-6.7-11.2l-8.4-29.5c-9.7 2.7-17.3 4.8-22.9 6.6-5.5 1.7-10.3 3.6-14.3 5.7s-7.2 3.4-9.6 3.8c-2.4.4-5.5-.6-9.3-2.9-.2 0-3-2.3-8.4-6.8-5.5-4.5-9.1-8-10.8-10.4-1.7-2.4-2.1-4.3-1.2-5.7s3.1-2.2 6.6-2.3c.6 0 3.8.3 9.6.9 5.8.6 11 .7 15.7.2l14.5-1.9 25.3-3c-1.2-5.7-2.1-9.7-2.8-12.3zm59.1 340c5.9-.5 14.6-1.4 25.9-2.7 11.3-1.3 19.5-2.1 24.5-2.5 9.4-.5 15.7.2 19 1.9l6.6 3.3c.5-6.3.9-12 1.3-17.3.4-5.3.6-10 .6-14.1v-16.4c-7 .6-13.2 1.1-18.6 1.5-5.4.4-10.9.9-16.5 1.5l-27.4 3.5c-10.6 1.1-17.7 1.5-21.3 1.2l-12.7-1.2c-.6 13.1-1.2 21.2-1.6 24.1l-2.8 18.3c9.4-.2 17.1-.6 23-1.1zm-17.8-53.4c4.5-.3 7.9-.6 10.2-.8 2.3-.2 10.2-1.3 23.7-3.2 13.5-1.9 23.6-3.5 30.1-4.9s11-2.2 13.4-2.3c3.9-.2 6.7 0 8.4.5l9.1 2.6v-24.1c0-7-.7-11.8-2.1-14.4s-3.4-4.5-5.9-5.7c-2.5-1.2-6.6-1.6-12.2-1.2-8.4.8-13.9 1.4-16.4 1.8-2.5.4-9.8 1.8-22 4.1l-19.5 3.8c-5.2 1.1-8.2 1.6-9.1 1.4l-6.6-.2-1.1 42.6zM326 189.1c-1 2-3.5 6.3-7.5 12.9s-6.8 10.9-8.6 12.9l-8.2 9.8c-2 2.5-3.9 3.4-5.7 2.6-1.8-.8-2.3-2.1-1.5-4l4.2-10.8c.2-.5 1.8-5.5 4.9-15.2l4.7-15c-3.6.6-6.5 1.1-8.7 1.4-2.2.3-4.5.8-7 1.5s-4.2 1.1-5.2 1.1c-2 .2-4.8-.5-8.2-2-3.4-1.5-7.1-3.5-10.9-6.1-3.8-2.6-5.3-4.3-4.5-5.2.9-.9 2.1-1.4 3.9-1.8l11.7-1.4 17.6-2.1 14.3-1.9c1.7-7.5 3-13.4 3.9-17.8.9-4.4 1.6-8.9 2.3-13.7.7-4.8 1.1-8.6 1.1-11.6-.2-3-.8-6.3-2-10s-1.4-6.1-.8-7.1c.6-1.1 2.1-2 4.5-2.6 2.7-.5 7.3.7 14.1 3.5 6.7 2.8 11 4.7 12.9 5.6s4.1 2.7 6.6 5.4 3.5 5.1 3 7.3c-.2.6-1.3 2.1-3.4 4.6-2.1 2.4-4.2 6.1-6.2 10.9l-5.4 11.2-3.5 9.1c5.9-.8 11.2-1.5 15.9-2.2s9.3-1.8 13.7-3.3c4.5-1.5 7.3-2.3 8.6-2.5 2.5-.2 5.9.5 10.1 1.9s7.9 2.7 11.1 4c3.2 1.3 6 2.9 8.3 4.9 2.3 2 3.4 3.9 3 5.6-.3 1.7-2.4 2.8-6.3 3.3l-15 1.9c-.9.2-7.7.6-20.4 1.4l-22.7 2.1-14.3 1.2c-2 4.8-3.4 8.1-4.4 10.2zM566.4 310.1c14.2-1.5 23.4-3 27.7-4.6 2.1-1.1 3.4-1.4 3.8-1.3.9-.1 2.9 1.1 5.9 3.6 2.1 2.1 3.2 3.6 3.2 4.6l.1.2c0 .8-.5 1.2-1.5 1.2h-2c-1.4-.1-3 .4-4.8.4-4.5-.1-11.8.5-22.3 1.6-16.1 1.8-30.1 3.2-42.4 4.1-5.3.1-9.1.8-11.8 1.9-1.8.5-2.7.7-3 .7-1.6 0-3.6-1.2-6-3.6s-3.5-4.6-3.6-6.3l-.1-.4c-.1-1.2.2-1.8 1.3-1.8l.1-.1c.1 0 1.4.2 2 .4 2.7 1.1 7.5 1.6 14.5 1.6 11.6.1 24.7-.6 38.9-2.2z"/></g></svg>