<svg xmlns="http://www.w3.org/2000/svg" viewBox="0 0 760 640"><path fill="none" stroke="#999" stroke-width="2" stroke-miterlimit="10" d="M20.5 601h340m40 0h340"/><path fill="#999" d="M19.5 593h2v16h-2zm720 0h2v16h-2z"/><path d="M375.2 610v-4.2H368v-1.4l7-10h2.3v9.7h2.2v1.7h-2.2v4.2h-2.1zm0-5.9v-5.2c0-.8 0-1.6.1-2.4h-.1c-.5.9-.9 1.6-1.3 2.3L370 604h5.2zm15-7.9h-6l-.6 4c.4 0 .7-.1 1.3-.1 1.2 0 2.4.3 3.4.8 1.2.7 2.2 2 2.2 4 0 3-2.4 5.3-5.8 5.3-1.7 0-3.1-.5-3.9-1l.5-1.6c.6.4 1.9.9 3.3.9 2 0 3.7-1.3 3.7-3.4 0-2-1.4-3.5-4.5-3.5-.9 0-1.6.1-2.2.2l1-7.5h7.5v1.9z"/><path fill="none" stroke="#999" stroke-width="2" stroke-miterlimit="10" d="M20.5 578h220m40 0h220"/><path fill="#999" d="M19.5 570h2v16h-2zm480 0h2v16h-2z"/><path d="M249.1 584.6c.6.4 2 1 3.5 1 2.7 0 3.6-1.7 3.5-3 0-2.2-2-3.1-4-3.1h-1.2v-1.6h1.2c1.5 0 3.5-.8 3.5-2.6 0-1.2-.8-2.4-2.7-2.4-1.2 0-2.4.6-3.1 1l-.6-1.5c.8-.6 2.4-1.2 4.1-1.2 3.1 0 4.5 1.8 4.5 3.7 0 1.6-1 3-2.9 3.7 1.9.4 3.5 1.8 3.5 4 0 2.5-1.9 4.7-5.7 4.7-1.8 0-3.3-.6-4.1-1.1l.5-1.6zm22.2-5.6c0 5.3-2 8.2-5.4 8.2-3 0-5.1-2.9-5.2-8 0-5.2 2.3-8.1 5.4-8.1 3.3 0 5.2 3 5.2 7.9zm-8.5.3c0 4.1 1.2 6.4 3.2 6.4 2.2 0 3.2-2.5 3.2-6.5 0-3.8-1-6.4-3.2-6.4-1.8 0-3.2 2.2-3.2 6.5z"/><g><path fill="none" stroke="#999" stroke-width="2" stroke-miterlimit="10" d="M500.5 578h100m40 0h100"/><path fill="#999" d="M499.5 570h2v16h-2zm240 0h2v16h-2z"/><path d="M613.2 573.4l-2.8 1.5-.4-1.6 3.4-1.8h1.8V587h-2v-13.6zm17-.2h-6l-.6 4c.4 0 .7-.1 1.3-.1 1.2 0 2.4.3 3.4.8 1.2.7 2.2 2 2.2 4 0 3-2.4 5.3-5.8 5.3-1.7 0-3.1-.5-3.9-1l.5-1.6c.6.4 1.9.9 3.3.9 2 0 3.7-1.3 3.7-3.4 0-2-1.4-3.5-4.5-3.5-.9 0-1.6.1-2.2.2l1-7.5h7.5v1.9z"/></g><g><path fill="none" stroke="#999" stroke-width="2" stroke-miterlimit="10" d="M660.5 58h30m20 0h30"/><path fill="#999" d="M659.5 50h2v16h-2zm80 0h2v16h-2z"/><path fill="none" d="M694.5 46.5h13.9v30.4h-13.9z"/><path d="M704.9 52.8h-6l-.6 4c.4 0 .7-.1 1.3-.1 1.2 0 2.4.3 3.4.8 1.2.7 2.2 2 2.2 4 0 3-2.4 5.3-5.8 5.3-1.7 0-3.1-.5-3.9-1l.5-1.6c.6.4 1.9.9 3.3.9 2 0 3.7-1.3 3.7-3.4 0-2-1.4-3.5-4.5-3.5-.9 0-1.6.1-2.2.2l1-7.5h7.5v1.9z"/><g><path fill="none" stroke="#999" stroke-width="2" stroke-miterlimit="10" d="M516.5 58h62m20 0h62"/><path fill="#999" d="M515.5 50h2v16h-2zm144 0h2v16h-2z"/><path d="M583.8 65.5c.5 0 1 0 1.7-.1 1.2-.2 2.4-.7 3.3-1.5 1-.9 1.8-2.3 2.1-4.2h-.1c-.9 1.1-2.1 1.7-3.7 1.7-2.8 0-4.6-2.1-4.6-4.8 0-3 2.1-5.5 5.3-5.5s5.2 2.6 5.2 6.6c0 3.4-1.2 5.8-2.7 7.3-1.2 1.2-2.9 1.9-4.5 2.1-.8.1-1.4.1-1.9.1v-1.7zm.8-9c0 1.9 1.2 3.3 3 3.3 1.4 0 2.5-.7 3.1-1.6.1-.2.2-.4.2-.8 0-2.7-1-4.7-3.2-4.7-1.8 0-3.1 1.6-3.1 3.8z"/></g></g><g><path fill="#eee" d="M516.5 401.1h144v144h-144z"/><path fill="none" stroke="#999" stroke-width="2" stroke-miterlimit="10" d="M516.5 545h144m-144-144h144"/><path fill="#eee" d="M516.5 257.1h144v144h-144z"/><path fill="none" stroke="#999" stroke-width="2" stroke-miterlimit="10" d="M516.5 401h144m-144-144h144"/><path fill="#eee" d="M516.5 113.1h144v144h-144z"/><path fill="none" stroke="#999" stroke-width="2" stroke-miterlimit="10" d="M516.5 257h144m-144-144h144"/><g><path fill="#eee" d="M660.5 465.1h80v80h-80z"/><path fill="none" stroke="#999" stroke-width="2" stroke-miterlimit="10" d="M660.5 465h80m-80 80h80"/></g><g fill="none" stroke="#ccc" stroke-miterlimit="10"><path d="M180 560V80m161 480V80M20.5 239.5h480m-480 161h480"/></g><g fill="none" stroke="#999" stroke-width="2" stroke-miterlimit="10"><path d="M20.5 80.1h720v480h-720z"/><path d="M20.5 80.1h480v480h-480zM660.5 560V80m-144 480V80"/></g></g><g><path d="M729.6 474.5c1.4 1.6 2.1 2.9 2.1 3.9 0 .9-.9 1.4-2.6 1.4-1.4-.2-2.4-.4-3.3-.4-12.3.5-24.5 2.4-36.9 5.8 0 6.6-.9 14.4-2.8 23.3-1.6 8.9-4 16.4-7.3 22.7-2.6 4.9-5.6 8.4-8.9 10.3-1.3 0-1.9-.1-1.9-.4 0-.1.2-.5.9-1.4 2.9-4.6 5.4-12 7.6-22.3 2.4-10.4 3.5-19.9 3.5-28.8 0-2.9-.4-5.1-1.3-6.8l-.6-1.5c0-.8.8-1.1 2.4-1.1 5.4 0 13.9-1.3 25.8-3.6 11.6-2.3 17.9-3.4 18.8-3.4 1.8-.1 3.2.7 4.5 2.3zm-23.7-17.8l-8.8.4-.6-26.9 12.6-.2-3.2 26.7zM539.8 449.3c1 .4 2.8.6 5.2.6s4.8-.3 7.5-.7l33.9-5.3-.4-10.1c0-7.5-1-12.9-2.8-16.5-.7-.7-1.1-1.3-1.1-1.5 0-2.4 1.3-3.5 3.9-3.5 2 0 4.4.4 7 1.4 3.5 1.5 5.3 3 5.3 4.2 0 .4-.3 1-1 1.5-.8 2.1-1.3 4.6-1.3 7.6l-.1 15.5 24.9-3.9c4.4-.8 7.5-1.5 9-2 1.7-.4 2.8-.7 3.4-.7 1.3 0 3 .8 5.2 2.5 2.5 2.1 3.8 3.7 3.8 4.8 0 1.5-1.3 2.4-3.9 2.4h-5.1c-6 .4-18.6 1.8-37.4 4.5l-.3 24c0 4.9-1.8 7.5-5.6 7.5-.7 0-2-.6-3.8-1.8-1.7-.7-3.1-1.1-4.1-1.1-4.8 0-9 1.8-12.7 5.3-3.5 3.5-5.3 8-5.3 13.8 0 12.8 10.1 22.2 27 22.2 11.5 0 21.4-3.7 29.7-11.1 2.1-2.1 3.9-3.1 5.8-3.1 2.1 0 3.9 1.5 3.9 3.2 0 5.3-4.1 10.3-12.2 14.9-7.7 4.1-16.9 6.2-27.1 6.2-10.5 0-19.5-3.1-27-9.1-7.2-6.3-10.7-14.1-10.7-23.2 0-6.6 2.2-12.7 6.8-18 5.3-5.3 13.1-8.3 23.1-9 3-.3 4.4-2.8 3.9-7.7l-.4-11.4c-19.4 3-30.8 5.1-34 6.5-1.5 1-3 1.4-4.4 1.4-1.8 0-4.5-1.3-8.2-3.8-3.5-2.7-5.3-4.5-5.3-5.2 0-1.5.4-2.2 1.1-2.2s1.8.2 3.8.9zm27.6-318.6c3.5 3 5.3 5.1 5.3 6.6 0 1.1-1 2.5-3 4.1-1.5.8-4.9 5.2-10.1 13.2s-7.7 12.5-7.7 13.8c0 1 1 1.5 2.8 1.5.4 0 2.1-.4 5.2-1.3 16.6-3.5 33.9-6.6 51.8-9 5.2-.6 9.3-1.3 12.1-2.2 2.1-1 3.7-1.4 4.6-1.4 1.7 0 4.2 2 7.5 6 3.2 3.9 4.9 6.8 4.9 8.4 0 .4-.7 1.7-2.1 3.8-1.1 1.4-2 3.7-2.7 6.8-5.3 22.8-12.5 40.6-21.7 53.4-6.8 10.3-12.8 15.3-18 15.3-2.2 0-4.1-1.8-5.3-5.3-1.8-4.8-5.1-9.4-9.6-13.9-.6-.4-.8-.8-.8-1 0-.4.1-.6.6-.6l2.5 1.1c5.8 3 10 4.4 12.7 4.4 4.6 0 10.4-7.9 17.3-23.8 8.7-18.7 13.1-32.5 13.1-41.3 0-1.8-1.8-2.8-5.3-2.8-6.8 0-18.1 1.5-34.2 4.6l-13.1 2.5c3.4 2.4 7 7.5 7 9.7 0 3.5-4.2 11.1-12.8 22.8-6.8 10.1-13.8 18-21 23.5-5.2 4.2-8.9 6.3-10.7 6.3-.7 0-.8-.6.4-2.7 7.2-6.2 14.3-15.6 21.5-28.1s10.7-21.7 10.7-27.4c0-.7-.4-1.7-1.3-2.8-6.5 1.4-12.1 3-17 4.8-2.4 1.3-4.2 2-5.3 2-1.3 0-3.1-.8-5.5-2.5-2.4-1.8-3.5-3.2-3.5-4.2 0-.7 1.3-2.8 3.9-6 7.9-12.8 13.5-23.9 16.9-33.3 1.1-2.4 1.3-4.9.6-7.3 0-1.4.6-2.1 1.7-2.1 1.5-.1 4 1.5 7.6 4.4zM231 337.9c-10.2.9-18.6 1.9-25 2.8-6.4.9-17.7 2.7-34 5.4s-28 5.3-35.2 7.9c-7.2 2.6-12 3.9-14.3 3.9-3 .2-5.9-.3-8.9-1.3s-6.6-2.4-11-4.1c-4.4-1.7-8.8-3.9-13.2-6.4s-6.1-5.3-5-8.1c.5-1.4 1.3-2.4 2.5-2.9s4.4-1.1 9.7-1.5l14.8-.9c8.6-.5 18.8-1.3 30.5-2.6l63.5-6.8 37-3.3.5-39.1c-4.7.8-7.8 1.3-9.4 1.4-1.6.2-6.6.5-15.2 1.1-8.6.5-13.8.7-15.7.6-3.6 0-8.5-.6-14.8-1.8-6.3-1.2-10.2-2.5-11.8-4-1.6-1.5-2.3-3.2-2-5 .3-1.9 2-3 4.9-3.3l9.8-.7 21.6-2.8 20.9-1.9 11.2-1.9c0-5.2 0-9.6-.1-13.5-.1-3.8-.4-7.3-.8-10.3s-1.7-6.3-3.6-9.8c-2-3.5-3.1-6.2-3.4-8-.3-1.8.2-3.2 1.4-4.2s3.4-1.4 6.6-1.1c2.7.5 6.6 1.4 11.8 2.7 5.2 1.3 9.5 2.6 12.7 3.8 3.2 1.2 5.1 2.5 5.7 4 .6 1.5.9 2.6.9 3.4-.2 1.1-1 3.5-2.6 7.3s-2.4 7.8-2.6 12.2l-.7 10.3c7.3-1.9 12.9-3.3 16.6-4.2l14.1-2.8c5-.9 8.7-1.4 11-1.4 2.2.2 5.6 1.1 10.2 2.7s8.1 3.2 10.5 4.6c2.4 1.4 3.8 2.8 4 4.1.2 1.3-.6 2.8-2.5 4.3-1.6 1.4-4.1 2.2-7.7 2.5-3.6.2-9.1 1.1-16.6 2.7l-21.3 3.3-19.7 3.3-2.1 39.8 23.2-1.4c17-16.2 29.6-28.8 37.7-37.7 8.1-8.9 14.1-16.1 17.9-21.4 3.8-5.4 6.4-9.4 7.9-12.1 1.4-2.7 2.4-5.5 3-8.4.6-3 1.1-5.9 1.5-8.7.4-2.8 1-4.8 1.9-6.1.9-1.2 3.9-.9 9 .9 4.2 1.7 8.6 5 13 9.7 4.5 4.8 7.7 9.2 9.7 13.2 2 4.1 2.3 7.1.7 9.1-.6.6-2 1.5-4.2 2.7-2.2 1.2-4.8 2.9-7.7 5.3-3 2.3-6.7 5.5-11.1 9.6-4.5 4.1-8.3 7.7-11.6 11L326 313.8c10.8-1.2 20.9-2.3 30.5-3.3 9.5-.9 15.2-1.5 17-1.8 1.8-.2 6.5-1.1 14.2-2.5 7.7-1.4 13.3-2.6 16.9-3.5 3.6-.9 6-1.5 7.3-1.6 4.1-.3 8.8.8 14.2 3.4s9.2 4.7 11.4 6.4c2.2 1.7 4.9 4 8.2 6.9 3.3 2.9 4.9 5 4.9 6.2-.3 2.2-1.8 3.7-4.3 4.6-2.6.9-6.1 1.4-10.4 1.5l-26 .9-72.9.7-32.6.7c-7 6.6-12.3 11.3-15.7 14.3l-24.1 19.7c-13.1 10.8-20.7 16.7-22.7 17.8l-15.5 9.4c13.7-1.6 24.1-3 31.2-4.5l25.3-5.4c10.2-2 18.2-3.9 24.1-5.7 5.9-1.8 10.2-2.7 12.9-2.7 3.8.2 7.1.9 10.2 2.2 3 1.3 6.9 3.2 11.5 5.7s8.2 4.8 10.8 7c2.6 2.2 4.1 4.3 4.5 6.4.4 2.1-.1 4.8-1.5 8.1l-3.3 7.5c-1.1 3.1-1.8 7-2.1 11.7-.3 4.7-.5 8.1-.5 10.2v34.8l1.2 24.6c.2 5.5-.1 10.1-.7 13.8-.9 5.5-2.5 10.2-4.7 14.1-2.2 3.9-4.6 7.1-7.3 9.7-2.7 2.6-4.9 3.8-6.8 3.6-3.9-.2-6.2-2.2-6.8-6.1l-4.9-14.8c-13.4.8-24.5 1.5-33.3 2.2-8.8.7-18 1.2-27.8 1.6-9.8.4-17 .9-21.8 1.4-4.8.5-7.1.7-7.1.6l-12.9-.7-2.8 6.6c-1.4 3.1-2.9 4.8-4.3 5-1.5.2-3.1-.6-4.8-2.5-2-1.9-3.9-6-5.6-12.3-1.7-6.3-2.5-11.1-2.3-14.4 0-1.7.4-4.6 1.3-8.7s2-10.1 3.3-18c1.3-8 2.1-13.4 2.2-16.2l1.2-23.9c.2-3.9.2-6.7 0-8.4-.2-1.7-.4-4.1-.7-7.3l-1.2-8.7c-11.1 6.3-20.4 11.4-28 15.5-7.6 4.1-16.7 8.5-27.3 13.4-10.6 4.8-19.1 8.3-25.3 10.3-6.3 2-16.8 5.1-31.6 9.1l-12.9 3.5c-5.6 1.4-8.6 1.2-9-.5-.4-1.7 1.9-3.8 6.9-6.1l15-6.6c9.2-4.1 17.1-7.8 23.7-11.2l26.2-15 32.3-18c9.5-5.6 17.7-10.9 24.5-15.7 6.8-4.8 17.7-12.9 32.7-24.3 15-11.3 23.5-17.8 25.5-19.6l12.4-10.3c-14.5 1.3-26.7 2.3-37 3.3zm-46.8-174.6c-.7-2.7-1.9-6.3-3.5-11s-3.1-8.2-4.3-10.5c-1.3-2.3-3.1-5.3-5.6-8.8-2.5-3.5-3.5-6-2.9-7.4.5-1.4 2.4-2.5 5.5-3.3 3.1-.8 8.3-.1 15.5 2 7.2 2.1 12.1 3.9 14.8 5.3 2.7 1.4 4.5 3.1 5.4 5.2.5 1.6.4 4.2-.4 7.9-.7 3.7-1 6.7-.8 9l.9 8.7 1.2 11 31.2-4c6.4-.8 9.6.5 9.7 3.9.1 3.4-2.7 5.7-8.3 7.1l-31.4 8 3.3 27.9c.6 6.6.1 11.1-1.5 13.7s-3.7 3.9-6.1 4.1c-2.4.2-4.7-3.6-6.7-11.2l-8.4-29.5c-9.7 2.7-17.3 4.8-22.9 6.6-5.5 1.7-10.3 3.6-14.3 5.7s-7.2 3.4-9.6 3.8c-2.4.4-5.5-.6-9.3-2.9-.2 0-3-2.3-8.4-6.8-5.5-4.5-9.1-8-10.8-10.4-1.7-2.4-2.1-4.3-1.2-5.7s3.1-2.2 6.6-2.3c.6 0 3.8.3 9.6.9 5.8.6 11 .7 15.7.2l14.5-1.9 25.3-3c-1.2-5.7-2.1-9.7-2.8-12.3zm59.1 340c5.9-.5 14.6-1.4 25.9-2.7 11.3-1.3 19.5-2.1 24.5-2.5 9.4-.5 15.7.2 19 1.9l6.6 3.3c.5-6.3.9-12 1.3-17.3.4-5.3.6-10 .6-14.1v-16.4c-7 .6-13.2 1.1-18.6 1.5-5.4.4-10.9.9-16.5 1.5l-27.4 3.5c-10.6 1.1-17.7 1.5-21.3 1.2l-12.7-1.2c-.6 13.1-1.2 21.2-1.6 24.1l-2.8 18.3c9.4-.2 17.1-.6 23-1.1zm-17.8-53.4c4.5-.3 7.9-.6 10.2-.8 2.3-.2 10.2-1.3 23.7-3.2 13.5-1.9 23.6-3.5 30.1-4.9s11-2.2 13.4-2.3c3.9-.2 6.7 0 8.4.5l9.1 2.6v-24.1c0-7-.7-11.8-2.1-14.4s-3.4-4.5-5.9-5.7c-2.5-1.2-6.6-1.6-12.2-1.2-8.4.8-13.9 1.4-16.4 1.8-2.5.4-9.8 1.8-22 4.1l-19.5 3.8c-5.2 1.1-8.2 1.6-9.1 1.4l-6.6-.2-1.1 42.6zM326 189.1c-1 2-3.5 6.3-7.5 12.9s-6.8 10.9-8.6 12.9l-8.2 9.8c-2 2.5-3.9 3.4-5.7 2.6-1.8-.8-2.3-2.1-1.5-4l4.2-10.8c.2-.5 1.8-5.5 4.9-15.2l4.7-15c-3.6.6-6.5 1.1-8.7 1.4-2.2.3-4.5.8-7 1.5s-4.2 1.1-5.2 1.1c-2 .2-4.8-.5-8.2-2-3.4-1.5-7.1-3.5-10.9-6.1-3.8-2.6-5.3-4.3-4.5-5.2.9-.9 2.1-1.4 3.9-1.8l11.7-1.4 17.6-2.1 14.3-1.9c1.7-7.5 3-13.4 3.9-17.8.9-4.4 1.6-8.9 2.3-13.7.7-4.8 1.1-8.6 1.1-11.6-.2-3-.8-6.3-2-10s-1.4-6.1-.8-7.1c.6-1.1 2.1-2 4.5-2.6 2.7-.5 7.3.7 14.1 3.5 6.7 2.8 11 4.7 12.9 5.6s4.1 2.7 6.6 5.4 3.5 5.1 3 7.3c-.2.6-1.3 2.1-3.4 4.6-2.1 2.4-4.2 6.1-6.2 10.9l-5.4 11.2-3.5 9.1c5.9-.8 11.2-1.5 15.9-2.2s9.3-1.8 13.7-3.3c4.5-1.5 7.3-2.3 8.6-2.5 2.5-.2 5.9.5 10.1 1.9s7.9 2.7 11.1 4c3.2 1.3 6 2.9 8.3 4.9 2.3 2 3.4 3.9 3 5.6-.3 1.7-2.4 2.8-6.3 3.3l-15 1.9c-.9.2-7.7.6-20.4 1.4l-22.7 2.1-14.3 1.2c-2 4.8-3.4 8.1-4.4 10.2zm270.8 129.4c17-1.8 28.1-3.7 33.2-5.5 2.5-1.3 4.1-1.7 4.5-1.5 1.1-.1 3.5 1.3 7 4.4 2.5 2.5 3.8 4.4 3.8 5.5l.1.3c0 1-.6 1.4-1.8 1.4h-2.4c-1.7-.1-3.7.4-5.8.4-5.3-.1-14.2.6-26.7 2-19.3 2.1-36.1 3.8-50.9 4.9-6.3.1-11 1-14.2 2.2-2.1.6-3.2.8-3.7.8-2 0-4.4-1.4-7.2-4.4s-4.2-5.5-4.4-7.6l-.1-.4c-.1-1.4.3-2.1 1.5-2.1l.1-.1c.1 0 1.7.3 2.4.4 3.2 1.3 9 2 17.4 2 14.4 0 30.2-.9 47.2-2.7z"/></g></svg>