<svg xmlns="http://www.w3.org/2000/svg" viewBox="0 0 760 640"><path fill="none" stroke="#999" stroke-width="2" stroke-miterlimit="10" d="M20.5 601h340m40 0h340"/><path fill="#999" d="M19.5 593h2v16h-2zm720 0h2v16h-2z"/><path d="M375.2 610v-4.2H368v-1.4l7-10h2.3v9.7h2.2v1.7h-2.2v4.2h-2.1zm0-5.9v-5.2c0-.8 0-1.6.1-2.4h-.1c-.5.9-.9 1.6-1.3 2.3L370 604h5.2zm15-7.9h-6l-.6 4c.4 0 .7-.1 1.3-.1 1.2 0 2.4.3 3.4.8 1.2.7 2.2 2 2.2 4 0 3-2.4 5.3-5.8 5.3-1.7 0-3.1-.5-3.9-1l.5-1.6c.6.4 1.9.9 3.3.9 2 0 3.7-1.3 3.7-3.4 0-2-1.4-3.5-4.5-3.5-.9 0-1.6.1-2.2.2l1-7.5h7.5v1.9z"/><path fill="none" stroke="#999" stroke-width="2" stroke-miterlimit="10" d="M20.5 578h220m40 0h220"/><path fill="#999" d="M19.5 570h2v16h-2zm480 0h2v16h-2z"/><path d="M249.1 584.6c.6.4 2 1 3.5 1 2.7 0 3.6-1.7 3.5-3 0-2.2-2-3.1-4-3.1h-1.2v-1.6h1.2c1.5 0 3.5-.8 3.5-2.6 0-1.2-.8-2.4-2.7-2.4-1.2 0-2.4.6-3.1 1l-.6-1.5c.8-.6 2.4-1.2 4.1-1.2 3.1 0 4.5 1.8 4.5 3.7 0 1.6-1 3-2.9 3.7 1.9.4 3.5 1.8 3.5 4 0 2.5-1.9 4.7-5.7 4.7-1.8 0-3.3-.6-4.1-1.1l.5-1.6zm22.2-5.6c0 5.3-2 8.2-5.4 8.2-3 0-5.1-2.9-5.2-8 0-5.2 2.3-8.1 5.4-8.1 3.3 0 5.2 3 5.2 7.9zm-8.5.3c0 4.1 1.2 6.4 3.2 6.4 2.2 0 3.2-2.5 3.2-6.5 0-3.8-1-6.4-3.2-6.4-1.8 0-3.2 2.2-3.2 6.5z"/><g><path fill="none" stroke="#999" stroke-width="2" stroke-miterlimit="10" d="M500.5 578h100m40 0h100"/><path fill="#999" d="M499.5 570h2v16h-2zm240 0h2v16h-2z"/><path d="M613.2 573.4l-2.8 1.5-.4-1.6 3.4-1.8h1.8V587h-2v-13.6zm17-.2h-6l-.6 4c.4 0 .7-.1 1.3-.1 1.2 0 2.4.3 3.4.8 1.2.7 2.2 2 2.2 4 0 3-2.4 5.3-5.8 5.3-1.7 0-3.1-.5-3.9-1l.5-1.6c.6.4 1.9.9 3.3.9 2 0 3.7-1.3 3.7-3.4 0-2-1.4-3.5-4.5-3.5-.9 0-1.6.1-2.2.2l1-7.5h7.5v1.9z"/></g><g><path fill="none" stroke="#999" stroke-width="2" stroke-miterlimit="10" d="M660.5 58h30m20 0h30"/><path fill="#999" d="M659.5 50h2v16h-2zm80 0h2v16h-2z"/><path fill="none" d="M694.5 46.5h13.9v30.4h-13.9z"/><path d="M704.9 52.8h-6l-.6 4c.4 0 .7-.1 1.3-.1 1.2 0 2.4.3 3.4.8 1.2.7 2.2 2 2.2 4 0 3-2.4 5.3-5.8 5.3-1.7 0-3.1-.5-3.9-1l.5-1.6c.6.4 1.9.9 3.3.9 2 0 3.7-1.3 3.7-3.4 0-2-1.4-3.5-4.5-3.5-.9 0-1.6.1-2.2.2l1-7.5h7.5v1.9z"/><g><path fill="none" stroke="#999" stroke-width="2" stroke-miterlimit="10" d="M516.5 58h62m20 0h62"/><path fill="#999" d="M515.5 50h2v16h-2zm144 0h2v16h-2z"/><path d="M583.8 65.5c.5 0 1 0 1.7-.1 1.2-.2 2.4-.7 3.3-1.5 1-.9 1.8-2.3 2.1-4.2h-.1c-.9 1.1-2.1 1.7-3.7 1.7-2.8 0-4.6-2.1-4.6-4.8 0-3 2.1-5.5 5.3-5.5s5.2 2.6 5.2 6.6c0 3.4-1.2 5.8-2.7 7.3-1.2 1.2-2.9 1.9-4.5 2.1-.8.1-1.4.1-1.9.1v-1.7zm.8-9c0 1.9 1.2 3.3 3 3.3 1.4 0 2.5-.7 3.1-1.6.1-.2.2-.4.2-.8 0-2.7-1-4.7-3.2-4.7-1.8 0-3.1 1.6-3.1 3.8z"/></g></g><g><path fill="#eee" d="M516.5 416.1h144v144h-144z"/><path fill="none" stroke="#999" stroke-width="2" stroke-miterlimit="10" d="M516.5 560h144m-144-144h144"/><path fill="#eee" d="M516.5 272.1h144v144h-144z"/><path fill="none" stroke="#999" stroke-width="2" stroke-miterlimit="10" d="M516.5 416h144m-144-144h144"/><path fill="#eee" d="M516.5 128.1h144v144h-144z"/><path fill="none" stroke="#999" stroke-width="2" stroke-miterlimit="10" d="M516.5 272h144m-144-144h144"/><g><path fill="#eee" d="M516.5 80h144v32h-144z"/><path fill="none" stroke="#999" stroke-width="2" stroke-miterlimit="10" d="M516.5 80h144m-144 32h144"/></g><g fill="none" stroke="#ccc" stroke-miterlimit="10"><path d="M180 560V80m161 480V80M20.5 239.5h480m-480 161h480"/></g><g fill="none" stroke="#999" stroke-width="2" stroke-miterlimit="10"><path d="M20.5 80.1h720v480h-720z"/><path d="M20.5 80.1h480v480h-480zM660.5 560V80m-144 480V80"/></g></g><g><path d="M591 107.4c-3.1 0-5.9-1.1-8.2-3.3s-3.3-5.1-3.3-8.2c0-3.1 1.1-5.8 3.3-8.1 2.3-2.3 5.1-3.5 8.2-3.5 3.1 0 5.8 1.2 8.1 3.5s3.5 5 3.5 8.1c0 3.1-1.2 5.9-3.5 8.2s-5 3.3-8.1 3.3zm-50.9 337.2c2.4.4 4.9.6 7.9.6 2.4 0 4.8-.1 7.3-.6l63-7.3c3.7-.7 6.3-1.5 7.9-2.2 1.7-.7 3.4-1.1 5.1-1.1 1.5 0 3.8 1.1 6.5 3.5 2.8 2.2 4.2 3.9 4.2 5.1 0 1-.7 1.5-2.2 1.5-.7 0-2-.1-4.1-.3l-3.8-.3c-9 .4-18.6 1.3-28.7 2.2l-3.4.4c.1 12.5-.1 22.5-.8 29.8-.6 3.9-4.1 8.2-8.7 8.2-.7 0-1.8-.3-3.4-.8-1.4-.3-2.5-.4-3.4-.4-4.9 0-9.6 2-13.9 5.8-3.8 4.4-5.8 9-5.8 14.1 0 7.2 2.7 13.4 8 18.3 5.5 4.9 12.4 7.5 20.7 7.5 11.8 0 21.9-5.3 30.5-16 1.5-1.3 3.1-2 4.4-2 2.8 0 5.1 2 5.1 4.8 0 5.2-4.1 10.4-12.1 15.5-8 5.2-17.3 7.7-27.8 7.7-11.2 0-20.7-3.4-28.1-10-7.5-7.5-11.2-16-11.2-25.7 0-8.2 2.7-14.9 7.9-20.4 5.8-5.3 13.2-8.3 22.5-9 3.4-.7 4.9-2.7 4.5-5.6l-1.1-20.1c-15.5 2.1-26.9 4.2-34 6.6-2 .7-3.5 1.1-4.8 1.1-1.8 0-4.6-1.5-8.7-4.8-2.8-2.4-4.2-4.1-4.2-4.8 0-1.1 1-1.7 2.8-1.7.5-.1 1.2 0 1.9.4zm90.8-293.2c4.4 3.4 6.5 5.8 6.5 7.3 0 .1-.7 1.1-2 3-2.1 2.7-4.1 9.6-6 20.7-2.7 14.1-6.5 24.3-11.5 30.8-2.8 3.4-5.6 5.1-8.6 5.1-1.7 0-4.5-1.7-8.6-5.1-4.1-3.5-6-5.8-6-6.8 0-.4.1-.6.6-.6.6 0 2 .3 4.1.8 2 .7 3.9 1 6 1 3.1 0 5.6-1.1 7.5-3.2 1.3-1.3 2.8-6.6 4.8-15.8 2.7-11.7 4.1-20.4 4.1-26.2 0-3.4-1.5-5.1-4.5-5.1-2.5 0-13.6 1.7-33.2 5.1l-4.4 1v39.2c0 18.6.1 29.5.6 33 .3 4.4.4 7.7.4 10 0 3.9-.6 7.5-1.8 10.5-1.1 3-2.2 4.5-3.2 4.5-1.5 0-3.4-1.7-5.5-4.9-2-3.2-3-5.9-3-8.2 0-1.3.1-2.5.6-3.9.4-1.8.8-4.5 1.4-8 1-9.4 1.4-21 1.4-34.3 0-11.5-.3-23.5-.8-35.9l-5.6 1c-5.2 1.4-8.6 2.1-9.8 2.1-2.4 0-5.5-1.1-9.1-3.2-3.7-2.2-5.5-4.1-5.5-5.5 0-.8.7-1.3 2.2-1.3 3.8.8 7.2 1.3 10.1 1.3 4.9 0 15.3-1.5 31.2-4.5s26.7-5.3 32.5-7c2.4-1.5 4.2-2.2 5.5-2.2 2.2.1 5.4 1.7 9.6 5.3zm-498.6 134c-3.6 4.8-9.4 11.9-17.3 21.2-8 9.3-15.4 17.2-22.3 23.7s-14.5 12.7-23 18.6c-8.4 5.9-14.7 10.1-18.8 12.4l-4.5 2.6c-1.9 1.1-3.5 1-4.9-.4-1.4-1.3-.5-3.6 2.8-6.7l2.8-2.6c4.1-3.8 9.1-9 15.2-15.8s12-13.6 17.8-20.4c5.8-6.8 12-14.5 18.5-23.1 6.6-8.6 13-17.8 19.5-27.5 6.4-9.8 12.3-19.5 17.6-29.1 5.3-9.6 10.2-19.3 14.8-29.1 4.5-9.8 7.8-17.4 9.8-23 2-5.5 3.5-10.3 4.5-14.2l1.4-7.7c.8-4.4.9-8 .5-11-.5-3-.5-5-.1-6.2.4-1.2 1.9-2 4.6-2.5.8 0 2.2.3 4.2.8s4 1.2 5.9 1.9 5.1 2.5 9.6 5.4c4.5 2.9 8.2 5.8 11.1 8.8 2.9 3 3.9 5.9 3.2 8.7-.3.9-.9 2-1.6 3l-7 8.2c-1.3 1.6-2.5 3.3-3.6 5.2s-3.8 6.3-7.9 13.4l-14.8 25.1-10.5 19-7 11.2c3.1 2.7 5.4 4.7 6.8 6.1l6.3 7.5c3.8 4.5 6 7.7 6.7 9.6s1.1 4.5 1.1 7.7c-.2 2-.7 6.1-1.6 12.3-.9 6.2-1.5 10.8-1.8 13.8s-.4 7.3-.4 12.8l-.9 36.3-.9 48.3-.7 27.9c0 5.3.2 11.3.7 18 .5 6.7.6 11.5.5 14.3-.3 3.8-1.1 7.8-2.5 12.1-1.3 4.3-2.8 8-4.3 11-1.6 3-3.1 5.3-4.6 6.8-1.5 1.5-2.8 2.3-4 2.5-1.2.2-2.7-1.2-4.6-4-1.9-2.2-3.6-5.2-5.3-9-1.6-3.8-2.8-6.8-3.4-8.8-.6-2-1.4-5.1-2.3-9.1-.9-4.1-1.4-7-1.5-8.9-.1-1.9.7-5.5 2.5-11 1.4-5.2 2.5-10 3.2-14.6.7-4.6 1.5-12.1 2.3-22.5.9-10.4 1.4-18 1.5-22.9l1.6-81.3c.2-10.2-.2-18-.9-23.4l-2.3-16.9c-4.3 5.5-8.2 10.6-11.7 15.5zm169.4-52.6c6.2-1.2 18.1-3.5 35.5-7s30-6.2 37.7-8.1 14.1-3.5 19-4.9 9.5-2.8 13.7-4.3c4.2-1.5 7.3-2.4 9.1-2.7 2.8-.2 6.2.3 10.3 1.4 4.1 1.1 8 2.3 11.7 3.6 3.8 1.3 7.1 3 10.1 5.2 3 2.1 5 4.1 6.1 5.9 1.1 1.8 1.7 3.4 1.8 4.7.1 1.3-.6 2.5-2 3.6-1.3.9-3.4 1.4-6.4 1.3-3-.1-9 .4-17.9 1.3l-25.1 1.6c-7.3.6-18.3 2.2-32.8 4.8s-23 4.2-25.5 4.8l-20.9 5.2c3.1 2.2 5.8 4.3 8.1 6.3s3.6 4 3.9 6c.3 2-.2 5.1-1.4 9.5-1.1 3.4-1.7 7.7-1.9 12.9l-.7 18.5-.9 21.3c10-2.3 18.8-4.4 26.5-6.2 7.7-1.8 13.2-3.2 16.6-4.1 3.4-.9 7.5-2.1 12.1-3.5s7.9-2.3 9.7-2.6c2.3-.2 4.8 0 7.4.4 2.6.4 6 1.3 10.2 2.6 4.2 1.3 7.3 2.9 9.3 4.6 2 1.7 2.8 3.6 2.7 5.6-.3 2-1.1 3.4-2.3 4.2-1.3.8-2.9 1.4-5 2-2.1.5-6.6 1.4-13.5 2.5l-27 4.5c-8.9 1.4-15.5 2.5-19.8 3.4-4.3.9-7.2 1.3-8.8 1.3-4.8.5-8.5.2-11-.7l-6.6-1.9-.7 66.6c9.1-1.7 18.6-3.6 28.5-5.7 9.9-2.1 19-4.4 27.3-6.9l12.4-3.8c4.2-1.2 8.1-1.8 11.6-1.8 3.5.1 7.1.6 10.9 1.6 3.8 1 7.2 2.2 10.4 3.6s5.8 2.9 7.9 4.5c2 1.6 3.1 3 3.2 4.3.1 1.3-.5 2.7-1.8 4.1-1.6 1.6-4.8 2.7-9.6 3.5l-15.9 3.5c-1.4.3-10.2 1.6-26.2 3.8l-16.2 2.3c-5.3.8-11.4 1.3-18.3 1.6-7.5.5-12.3.5-14.3 0l-10.1-1.9-1.2 64.7c-.2 3.1-.4 8.5-.7 16.2-.3 7.7-.7 14.1-1.3 19.3-.5 5.2-1.8 9.6-3.9 13-2 3.4-3.9 5.3-5.6 5.5-1.7.2-3.8-.8-6.1-3.2-2.7-2.3-4.6-4.9-5.7-7.7s-3.2-8.4-6.1-16.9c-2.9-8.4-4.5-14.1-4.8-17.1-.3-3 .3-7.3 1.9-13.1l2.6-9.4c1.1-4.2 2-9.7 2.7-16.5s1.3-14.6 1.9-23.6c.5-8.9.8-18.7.8-29.3l-.2-67.3c-.2-11.2-.4-21.2-.8-29.9s-.9-16.2-1.6-22.5-1.4-10.8-2.2-13.5l-2.1-7c-4.8 1.1-8.9 1.6-12.3 1.5-3.4-.1-6.4-.7-9.3-2l-9.6-3.8c-3 4.8-5.9 9.7-8.9 14.6s-6.4 10.2-10.3 15.9c-3.9 5.7-9.2 12.4-15.8 20-6.6 7.7-13.5 14.6-20.5 21s-13 11.1-18 14.4l-4.2 2.8c-1.7 1.1-3 1.2-3.9.2-.9-.9-.6-2.3.8-4.2l4.9-6.6c1.1-1.6 5.3-7.3 12.7-17.3 7.3-10 13.2-18.4 17.5-25.1 4.3-6.7 10.2-17.1 17.7-31.3 7.5-14.1 13.1-25.1 16.8-32.9 3.7-7.8 8.1-18.4 13.4-31.6 5.2-13.3 8.6-22.7 10.1-28.4 1.5-5.6 2.6-10.6 3.3-14.9.7-4.3 1.2-8 1.5-11 .3-3 .4-6.2.4-9.4-.1-3.2.3-5.3 1.2-6.3.9-1 2.4-1.7 4.6-2 1.7-.2 3.6.2 5.7.9 2.1.8 4.7 2.1 7.9 4 3.1 1.9 6.4 4.3 9.7 7.1 3.4 2.9 5.7 5.5 7.1 7.9s2 4.4 1.9 6.1c-.2 1.6-1.4 3.9-3.9 7-2.4 3.1-4.7 6.6-6.9 10.4-2.2 3.8-4.3 8.1-6.3 12.8l-8 18.5c-3.6 8-7.2 15.3-10.8 22l-10.5 19.7c9.1-1.4 17.1-2.9 23.3-4zm311.5 56.7c3.5 3.5 5.3 6.5 5.3 8.9 0 .7-.8 1.5-2.5 2.5-2 1.5-4.1 6.8-6.5 15.5-4.4 12.5-8.6 22.8-12.7 30.7 8.9 6 19 14.2 30.7 24.8 4.9 4.6 7.3 9.4 7.3 14.3 0 6-1.1 9-3.4 9-1.5 0-5.2-3.2-11-9.8-11.1-12.5-20.8-22.4-28.8-29.5-6.9 9.7-13.2 17.4-19.3 23.3-7.2 6.3-14.5 11.4-22.2 15.2-4.4 1.7-6.9 2.5-7.6 2.5h-.6c0-.7.6-1.5 1.7-2.2 12.4-9.6 21.9-18.8 28.7-27.8 3.8-5.1 7.6-11 11.5-17.9-11.4-9.7-22.5-18.1-33.2-25.3l-1.4-1.1c0-.4.3-.6 1-.6 1.5 0 4.9 1 10.4 3 7.2 3.4 16.3 8.7 27.4 16.2l3.4-6.6c5.2-12.1 9-22.6 11.2-31.8 1.5-5.8 1.8-10 1.1-12.4-.7-1.7-1.1-2.8-1.1-3.4 0-.7.7-1 2.2-1 2.5-.2 5.2 1.1 8.4 3.5z"/></g></svg>