<svg xmlns="http://www.w3.org/2000/svg" viewBox="0 0 760 640"><g stroke-miterlimit="10"><g fill="none" stroke="#CCC"><path d="M180 560V80M341 560V80M20.5 239.5h480M20.5 400.5h480"/></g><g fill="none" stroke="#999" stroke-width="2"><path d="M20.5 80.1h720v480h-720z"/><path d="M20.5 80.1h480v480h-480zM620.5 560V80"/></g><g fill="#EEE" stroke="#999" stroke-width="2"><path d="M500.5 200.1h120v120h-120zM500.5 320h120M500.5 200h120"/></g><g fill="#EEE" stroke="#999" stroke-width="2"><path d="M500.5 320.1h120v120h-120zM500.5 440h120M500.5 320h120"/></g><g fill="#EEE" stroke="#999" stroke-width="2"><path d="M620.5 320.1h120v120h-120zM620.5 440h120M620.5 320h120"/></g></g><path fill="none" stroke="#999" stroke-width="2" stroke-miterlimit="10" d="M20.5 601h330M410.5 601h330"/><path fill="#999" d="M19.5 593h2v16h-2zM739.5 593h2v16h-2z"/><path d="M361.2 596.4l-2.8 1.5-.4-1.6 3.4-1.8h1.8V610h-2v-13.6zM378.2 596.2h-6l-.6 4c.4 0 .7-.1 1.3-.1 1.2 0 2.4.3 3.4.8 1.2.7 2.2 2 2.2 4 0 3-2.4 5.3-5.8 5.3-1.7 0-3.1-.5-3.9-1l.5-1.6c.6.4 1.9.9 3.3.9 2 0 3.7-1.3 3.7-3.4 0-2-1.4-3.5-4.5-3.5-.9 0-1.6.1-2.2.2l1-7.5h7.5v1.9zM391.6 602c0 5.3-2 8.2-5.4 8.2-3 0-5.1-2.9-5.2-8 0-5.2 2.3-8.1 5.4-8.1 3.3 0 5.2 3 5.2 7.9zm-8.5.3c0 4.1 1.2 6.4 3.2 6.4 2.2 0 3.2-2.5 3.2-6.5 0-3.8-1-6.4-3.2-6.4-1.8 0-3.2 2.2-3.2 6.5zM403.9 602c0 5.3-2 8.2-5.4 8.2-3 0-5.1-2.9-5.2-8 0-5.2 2.3-8.1 5.4-8.1 3.4 0 5.2 3 5.2 7.9zm-8.4.3c0 4.1 1.2 6.4 3.2 6.4 2.2 0 3.2-2.5 3.2-6.5 0-3.8-1-6.4-3.2-6.4-1.9 0-3.2 2.2-3.2 6.5z"/><g><path fill="none" stroke="#999" stroke-width="2" stroke-miterlimit="10" d="M20.5 578h210M290.5 578h210"/><path fill="#999" d="M19.5 570h2v16h-2zM499.5 570h2v16h-2z"/><g><path d="M241.2 573.4l-2.8 1.5-.4-1.6 3.4-1.8h1.8V587h-2v-13.6zM259.3 579c0 5.3-2 8.2-5.4 8.2-3 0-5.1-2.9-5.2-8 0-5.2 2.3-8.1 5.4-8.1 3.3 0 5.2 3 5.2 7.9zm-8.5.3c0 4.1 1.2 6.4 3.2 6.4 2.2 0 3.2-2.5 3.2-6.5 0-3.8-1-6.4-3.2-6.4-1.8 0-3.2 2.2-3.2 6.5zM271.6 579c0 5.3-2 8.2-5.4 8.2-3 0-5.1-2.9-5.2-8 0-5.2 2.3-8.1 5.4-8.1 3.3 0 5.2 3 5.2 7.9zm-8.5.3c0 4.1 1.2 6.4 3.2 6.4 2.2 0 3.2-2.5 3.2-6.5 0-3.8-1-6.4-3.2-6.4-1.8 0-3.2 2.2-3.2 6.5zM283.9 579c0 5.3-2 8.2-5.4 8.2-3 0-5.1-2.9-5.2-8 0-5.2 2.3-8.1 5.4-8.1 3.4 0 5.2 3 5.2 7.9zm-8.4.3c0 4.1 1.2 6.4 3.2 6.4 2.2 0 3.2-2.5 3.2-6.5 0-3.8-1-6.4-3.2-6.4-1.9 0-3.2 2.2-3.2 6.5z"/></g></g><g><path fill="none" stroke="#999" stroke-width="2" stroke-miterlimit="10" d="M500.5 578h90M650.5 578h90"/><path fill="#999" d="M499.5 570h2v16h-2zM739.5 570h2v16h-2z"/><g><path d="M611.9 573.2h-6l-.6 4c.4 0 .7-.1 1.3-.1 1.2 0 2.4.3 3.4.8 1.2.7 2.2 2 2.2 4 0 3-2.4 5.3-5.8 5.3-1.7 0-3.1-.5-3.9-1l.5-1.6c.6.4 1.9.9 3.3.9 2 0 3.7-1.3 3.7-3.4 0-2-1.4-3.5-4.5-3.5-.9 0-1.6.1-2.2.2l1-7.5h7.5v1.9zM625.3 579c0 5.3-2 8.2-5.4 8.2-3 0-5.1-2.9-5.2-8 0-5.2 2.3-8.1 5.4-8.1 3.3 0 5.2 3 5.2 7.9zm-8.5.3c0 4.1 1.2 6.4 3.2 6.4 2.2 0 3.2-2.5 3.2-6.5 0-3.8-1-6.4-3.2-6.4-1.8 0-3.2 2.2-3.2 6.5zM637.6 579c0 5.3-2 8.2-5.4 8.2-3 0-5.1-2.9-5.2-8 0-5.2 2.3-8.1 5.4-8.1 3.3 0 5.2 3 5.2 7.9zm-8.5.3c0 4.1 1.2 6.4 3.2 6.4 2.2 0 3.2-2.5 3.2-6.5 0-3.8-1-6.4-3.2-6.4-1.8 0-3.2 2.2-3.2 6.5z"/></g></g><g><path fill="none" stroke="#999" stroke-width="2" stroke-miterlimit="10" d="M620.5 58h40M700.5 58h40"/><path fill="#999" d="M619.5 50h2v16h-2zM739.5 50h2v16h-2z"/><g><path d="M662.6 67v-1.3l1.7-1.6c4-3.8 5.8-5.8 5.8-8.2 0-1.6-.8-3-3.1-3-1.4 0-2.6.7-3.3 1.3l-.7-1.5c1.1-.9 2.6-1.6 4.4-1.6 3.4 0 4.8 2.3 4.8 4.5 0 2.9-2.1 5.2-5.4 8.4l-1.2 1.2h7V67h-10zM684.2 53.2h-6l-.6 4c.4 0 .7-.1 1.3-.1 1.2 0 2.4.3 3.4.8 1.2.7 2.2 2 2.2 4 0 3-2.4 5.3-5.8 5.3-1.7 0-3.1-.5-3.9-1l.5-1.6c.6.4 1.9.9 3.3.9 2 0 3.7-1.3 3.7-3.4 0-2-1.4-3.5-4.5-3.5-.9 0-1.6.1-2.2.2l1-7.5h7.5v1.9zM697.6 59c0 5.3-2 8.2-5.4 8.2-3 0-5.1-2.9-5.2-8 0-5.2 2.3-8.1 5.4-8.1 3.3 0 5.2 3 5.2 7.9zm-8.5.3c0 4.1 1.2 6.4 3.2 6.4 2.2 0 3.2-2.5 3.2-6.5 0-3.8-1-6.4-3.2-6.4-1.8 0-3.2 2.2-3.2 6.5z"/></g></g><g><path fill="none" stroke="#999" stroke-width="2" stroke-miterlimit="10" d="M500.5 58h40M580.5 58h40"/><path fill="#999" d="M499.5 50h2v16h-2zM619.5 50h2v16h-2z"/><g><path d="M542.6 67v-1.3l1.7-1.6c4-3.8 5.8-5.8 5.8-8.2 0-1.6-.8-3-3.1-3-1.4 0-2.6.7-3.3 1.3l-.7-1.5c1.1-.9 2.6-1.6 4.4-1.6 3.4 0 4.8 2.3 4.8 4.5 0 2.9-2.1 5.2-5.4 8.4l-1.2 1.2h7V67h-10zM564.2 53.2h-6l-.6 4c.4 0 .7-.1 1.3-.1 1.2 0 2.4.3 3.4.8 1.2.7 2.2 2 2.2 4 0 3-2.4 5.3-5.8 5.3-1.7 0-3.1-.5-3.9-1l.5-1.6c.6.4 1.9.9 3.3.9 2 0 3.7-1.3 3.7-3.4 0-2-1.4-3.5-4.5-3.5-.9 0-1.6.1-2.2.2l1-7.5h7.5v1.9zM577.6 59c0 5.3-2 8.2-5.4 8.2-3 0-5.1-2.9-5.2-8 0-5.2 2.3-8.1 5.4-8.1 3.3 0 5.2 3 5.2 7.9zm-8.5.3c0 4.1 1.2 6.4 3.2 6.4 2.2 0 3.2-2.5 3.2-6.5 0-3.8-1-6.4-3.2-6.4-1.8 0-3.2 2.2-3.2 6.5z"/></g></g><g><path d="M676.9 359.8c1.6 2 2.5 3.8 2.5 5.4 0 .5-.5 1.1-1.4 1.6-1.3.9-2.6 2.9-3.9 6.1-1.6 3.6-4.5 8.1-8.3 13.4-1.4 2.2-2.1 4-2.1 5.5 0 1.4.7 2.9 2.2 4.7l9.3 11c3.4 4.2 4.2 8.4 2.5 12.7-.6 1.1-1.8 1.6-3.3 1.6-1.2 0-2.1-.4-2.9-1.2-.9-.7-2-2.6-3-5.5-2.9-6.7-5.4-11.8-7.4-15.7-2.3-4-3.5-6.6-3.5-7.6 0-1.6.8-4 2.3-6.9 1.8-2.7 3.8-7 6.1-12.8 2.5-5.9 3.8-10.1 4-12.5.1-1.8.9-2.7 2.2-2.7 1.4 0 3 1 4.7 2.9zm9.4-17.3l-8.2.4-.6-25.2 11.8-.2-3 25zm12.8 17.3c1.6 1.9 2.5 3.6 2.5 5.4 0 .5-.5 1.1-1.4 1.6-1.3.9-2.6 2.9-3.9 6.1-1.8 3.5-4.6 8-8.6 13.4-1.4 2.2-2.1 4-2.1 5.5 0 1.3.7 2.9 2.1 4.7l9.4 11c3.6 4.5 4.5 8.7 2.3 12.7-.6 1.1-1.6 1.6-3.2 1.6-1.3 0-2.2-.4-2.8-1.2-.8-.8-1.9-2.6-2.9-5.5-2.5-5.6-4.9-10.9-7.5-15.7-2.5-4.1-3.8-6.6-3.8-7.6 0-1.6.8-4 2.3-6.9 1.8-2.8 3.9-7.1 6.3-12.9 2.5-5.9 3.9-10 4.1-12.4.2-1.8.9-2.7 2.1-2.7 2 0 3.6 1 5.1 2.9zM567.4 373.2c14.2-1.5 23.4-3 27.7-4.6 2.1-1.1 3.4-1.4 3.8-1.3.9-.1 2.9 1.1 5.9 3.6 2.1 2.1 3.2 3.6 3.2 4.6l.1.2c0 .8-.5 1.2-1.5 1.2h-2c-1.4-.1-3 .4-4.8.4-4.5-.1-11.8.5-22.3 1.6-16.1 1.8-30.1 3.2-42.4 4.1-5.3.1-9.1.8-11.8 1.9-1.8.5-2.7.7-3 .7-1.6 0-3.6-1.2-6-3.6s-3.5-4.6-3.6-6.3l-.1-.4c-.1-1.2.2-1.8 1.3-1.8l.1-.1c.1 0 1.4.2 2 .4 2.7 1.1 7.5 1.6 14.5 1.6 11.6 0 24.7-.7 38.9-2.2zM541.6 216.1c2 1.8 2.9 3.4 2.9 4.8 0 .4-.4.9-.9 2-2.6 3.6-5.2 9.3-7.9 16.6-1.3 3.8-2 6-2 6.7 0 .9.6 1.4 1.9 1.4l2.6-.6 16.3-4.2c3-10.4 4.7-21 5-31.6.2-3.5 1.8-5.3 4.7-5.3 4.1 0 7 1.8 7 4.7 0 2.2-.8 6.7-2.5 13.5-1.6 6.7-3.2 12.2-4.5 16.3l16.3-4.1c1.9-.6 3.9-1.6 6-2.9 2-1.1 3.2-1.6 3.4-1.6 1.1 0 3 1.1 5.7 3.3 2.7 2.1 4.1 3.8 4.1 4.8 0 .4-.1.9-.5 1.5-.4 1.3-.8 5.4-1.3 12.5-2.1 22.9-7.6 38.6-16.5 47.3-3.9 3.9-7.1 5.7-9.8 5.7-2 0-3.3-.7-3.6-2.2-.5-1.3-2.1-3.5-4.8-6.4-2.8-2.9-4.2-4.6-4.2-4.9.1-.4.2-.5.5-.5l3.5.8c2.7.8 4.9 1.2 6.8 1.2 2.9 0 5.6-1.2 7.9-3.4 2.7-2.9 5.5-9.4 8.4-19.3s4.3-19.1 4.3-27.2c0-2.5-.9-3.8-2.8-3.9-3.4 0-11.8 1.9-25.4 5.5-9 25.4-21.6 43-37.5 53-1.9 1.2-2.9 1.8-3.2 1.8-.4 0-.5-.1-.5-.5s.5-1.2 1.3-2.2c6.1-6.2 12.1-14.3 17.9-24.3 5.5-9 9.6-17.5 12.2-25.1-11.6 3.2-18.6 5.5-21.1 6.8-1.9.9-3 1.4-3.5 1.4-.6 0-1.8-.8-3.4-2.3-1.6-1.6-2.5-2.7-2.5-3.3s.4-1.8 1.1-3.3c3.6-5.3 6.4-11.1 8.3-17.3 2.5-6.3 3.8-11.5 3.8-15.5 0-1.5.5-2.3 1.4-2.3 1.5-.1 3.1.9 5.1 2.6zM187.8 276c-7.3 1.6-12.1 2.7-14.3 3.4-2.2.7-5.3 2-9.4 3.9-4.1 1.9-7.7 3-11 3.3-3.3.3-8.3-1.9-15-6.6-5.6-3.8-9.3-6.1-10.9-6.9-1.6-.9-3-2-4.2-3.5-1.2-1.5-1.5-2.7-.9-3.6.5-.9 3.1-1.6 7.6-2.1l8.9-.7c.6 0 6.1-.6 16.4-1.9l26.7-2.6c10.9-1.1 21.8-2.7 32.6-4.7l14.3-2.6c1.9-7.5 3.1-12.9 3.8-16.3.6-3.4 2-12.3 4.1-26.7 2.1-14.5 3.2-24.7 3.3-30.8.1-6.1-.1-12-.6-17.6-.8-6.6-2.1-12-4-16.4-1.9-4.4-2.7-7.5-2.6-9.4.2-1.9 1.1-3.5 2.7-4.8 1.6-1.3 4.6-1.8 9-1.3 6.6.9 12.2 2.5 17 4.8 4.8 2.3 9.2 4.6 13.4 7 4.1 2.4 7.1 4.7 8.8 6.9 1.7 2.2 2.6 4.4 2.6 6.6-.2 1.3-1.4 4.4-3.8 9.4-2.3 5-4.1 9.1-5.3 12.3-1.2 3.2-2.7 9.4-4.5 18.5-1.8 9.1-3.1 15.7-3.9 19.8l-6.8 32.8 45.7-9.4c12.2-2.5 20.9-4.4 26-5.7 5.2-1.3 11-3.2 17.6-5.5s11.3-3.5 14.3-3.5c2.8.2 6.8 1.4 11.8 3.6 5.1 2.3 9.3 4.6 12.7 6.9 3.4 2.3 7.1 5.2 11.4 8.7 4.2 3.4 6.9 6.2 8.1 8.3s1.8 4 1.9 5.6c.1 1.6-1.8 5.2-5.7 10.7-2.2 3.1-4.1 6.7-5.6 10.7-1.6 4-3.4 9.6-5.5 16.8-2.1 7.2-3.6 13.1-4.3 17.8L373 409.8c-2.3 13-5.3 25-8.9 36-3.6 11-8.6 22-15.1 32.9-6.5 10.9-13.2 19.3-20.2 25.2-7 5.9-12.6 9.5-17 10.9-4.4 1.4-7.6 1.7-9.6.9-2-.5-3.8-1.6-5.3-3.4-1.5-1.8-4.2-7.1-8.1-15.9-3.9-8.8-8.4-16.8-13.4-23.9-5-7.1-8.8-12.4-11.5-15.8l-3.3-4c-1.7-1.9-2.1-3.1-1.1-3.8 1-.6 2.6-.6 4.8 0l7 2.6c2.7 1.1 7.2 3.5 13.7 7.3 6.5 3.8 12.1 5.6 16.8 5.6 3.6.2 7.1-.7 10.7-2.7s7.1-6.2 10.8-12.7c3.7-6.5 7.3-15.2 10.9-26.1 3.6-10.9 7.3-28.4 11-52.3l7-46.2c2.8-18.6 4.6-31.1 5.4-37.6.8-6.5 1.2-12.7 1.2-18.6-.2-3.4-.7-6.3-1.8-8.7-1-2.3-3.4-4.4-7-6.1-3.7-1.7-9.7-2.5-18.2-2.2s-14.5.6-18 1.1l-55.3 8.9c-2.5 9.7-4.8 18.4-6.9 26-2.1 7.7-4.8 16.6-8.2 26.8-3.4 10.2-7.8 22.1-13.4 35.7-5.5 13.6-11.7 26.2-18.4 37.7-6.7 11.6-13.8 22.3-21.1 32.3-7.3 10-15.2 19.4-23.7 28.2-8.4 8.8-18 17-28.7 24.4-10.7 7.4-21 13.3-30.9 17.6-9.9 4.3-18.8 7.5-26.6 9.5l-7.3 1.9c-1.4.5-2.6.2-3.6-.9s-.4-2.5 1.8-4.2l5.2-3.8c10.3-7.5 17.8-13 22.5-16.6 4.7-3.6 11.3-9.3 19.9-17 8.6-7.7 16.7-15.8 24.4-24.1 7.7-8.4 14.5-16.8 20.6-25.3 6.1-8.5 11.6-17.1 16.5-25.9 4.9-8.7 10.5-19.6 16.8-32.6 6.2-13 11.1-24.2 14.4-33.8 3.4-9.5 6.4-19.5 9-30l4.7-19-37.7 7.9z"/></g></svg>