<svg xmlns="http://www.w3.org/2000/svg" viewBox="0 0 760 640"><path fill="none" stroke="#999" stroke-width="2" stroke-miterlimit="10" d="M20.5 601h340m40 0h340"/><path fill="#999" d="M19.5 593h2v16h-2zm720 0h2v16h-2z"/><path d="M375.2 610v-4.2H368v-1.4l7-10h2.3v9.7h2.2v1.7h-2.2v4.2h-2.1zm0-5.9v-5.2c0-.8 0-1.6.1-2.4h-.1c-.5.9-.9 1.6-1.3 2.3L370 604h5.2zm15-7.9h-6l-.6 4c.4 0 .7-.1 1.3-.1 1.2 0 2.4.3 3.4.8 1.2.7 2.2 2 2.2 4 0 3-2.4 5.3-5.8 5.3-1.7 0-3.1-.5-3.9-1l.5-1.6c.6.4 1.9.9 3.3.9 2 0 3.7-1.3 3.7-3.4 0-2-1.4-3.5-4.5-3.5-.9 0-1.6.1-2.2.2l1-7.5h7.5v1.9z"/><path fill="none" stroke="#999" stroke-width="2" stroke-miterlimit="10" d="M20.5 578h220m40 0h220"/><path fill="#999" d="M19.5 570h2v16h-2zm480 0h2v16h-2z"/><path d="M249.1 584.6c.6.4 2 1 3.5 1 2.7 0 3.6-1.7 3.5-3 0-2.2-2-3.1-4-3.1h-1.2v-1.6h1.2c1.5 0 3.5-.8 3.5-2.6 0-1.2-.8-2.4-2.7-2.4-1.2 0-2.4.6-3.1 1l-.6-1.5c.8-.6 2.4-1.2 4.1-1.2 3.1 0 4.5 1.8 4.5 3.7 0 1.6-1 3-2.9 3.7 1.9.4 3.5 1.8 3.5 4 0 2.5-1.9 4.7-5.7 4.7-1.8 0-3.3-.6-4.1-1.1l.5-1.6zm22.2-5.6c0 5.3-2 8.2-5.4 8.2-3 0-5.1-2.9-5.2-8 0-5.2 2.3-8.1 5.4-8.1 3.3 0 5.2 3 5.2 7.9zm-8.5.3c0 4.1 1.2 6.4 3.2 6.4 2.2 0 3.2-2.5 3.2-6.5 0-3.8-1-6.4-3.2-6.4-1.8 0-3.2 2.2-3.2 6.5z"/><g><path fill="none" stroke="#999" stroke-width="2" stroke-miterlimit="10" d="M500.5 578h100m40 0h100"/><path fill="#999" d="M499.5 570h2v16h-2zm240 0h2v16h-2z"/><path d="M613.2 573.4l-2.8 1.5-.4-1.6 3.4-1.8h1.8V587h-2v-13.6zm17-.2h-6l-.6 4c.4 0 .7-.1 1.3-.1 1.2 0 2.4.3 3.4.8 1.2.7 2.2 2 2.2 4 0 3-2.4 5.3-5.8 5.3-1.7 0-3.1-.5-3.9-1l.5-1.6c.6.4 1.9.9 3.3.9 2 0 3.7-1.3 3.7-3.4 0-2-1.4-3.5-4.5-3.5-.9 0-1.6.1-2.2.2l1-7.5h7.5v1.9z"/></g><g><path fill="none" stroke="#999" stroke-width="2" stroke-miterlimit="10" d="M660.5 58h30m20 0h30"/><path fill="#999" d="M659.5 50h2v16h-2zm80 0h2v16h-2z"/><path fill="none" d="M694.5 46.5h13.9v30.4h-13.9z"/><path d="M704.9 52.8h-6l-.6 4c.4 0 .7-.1 1.3-.1 1.2 0 2.4.3 3.4.8 1.2.7 2.2 2 2.2 4 0 3-2.4 5.3-5.8 5.3-1.7 0-3.1-.5-3.9-1l.5-1.6c.6.4 1.9.9 3.3.9 2 0 3.7-1.3 3.7-3.4 0-2-1.4-3.5-4.5-3.5-.9 0-1.6.1-2.2.2l1-7.5h7.5v1.9z"/><g><path fill="none" stroke="#999" stroke-width="2" stroke-miterlimit="10" d="M516.5 58h62m20 0h62"/><path fill="#999" d="M515.5 50h2v16h-2zm144 0h2v16h-2z"/><path d="M583.8 65.5c.5 0 1 0 1.7-.1 1.2-.2 2.4-.7 3.3-1.5 1-.9 1.8-2.3 2.1-4.2h-.1c-.9 1.1-2.1 1.7-3.7 1.7-2.8 0-4.6-2.1-4.6-4.8 0-3 2.1-5.5 5.3-5.5s5.2 2.6 5.2 6.6c0 3.4-1.2 5.8-2.7 7.3-1.2 1.2-2.9 1.9-4.5 2.1-.8.1-1.4.1-1.9.1v-1.7zm.8-9c0 1.9 1.2 3.3 3 3.3 1.4 0 2.5-.7 3.1-1.6.1-.2.2-.4.2-.8 0-2.7-1-4.7-3.2-4.7-1.8 0-3.1 1.6-3.1 3.8z"/></g></g><g><path fill="#eee" d="M516.5 401.1h144v144h-144z"/><path fill="none" stroke="#999" stroke-width="2" stroke-miterlimit="10" d="M516.5 545h144m-144-144h144"/><path fill="#eee" d="M516.5 257.1h144v144h-144z"/><path fill="none" stroke="#999" stroke-width="2" stroke-miterlimit="10" d="M516.5 401h144m-144-144h144"/><path fill="#eee" d="M516.5 113.1h144v144h-144z"/><path fill="none" stroke="#999" stroke-width="2" stroke-miterlimit="10" d="M516.5 257h144m-144-144h144"/><path fill="#eee" d="M660.5 368.1h80v80h-80z"/><path fill="none" stroke="#999" stroke-width="2" stroke-miterlimit="10" d="M660.5 368h80m-80 80h80"/><g fill="none" stroke="#999" stroke-width="2" stroke-miterlimit="10"><path d="M516.5 160"/></g><g fill="none" stroke="#ccc" stroke-miterlimit="10"><path d="M180 560V80m161 480V80M20.5 239.5h480m-480 161h480"/></g><g fill="none" stroke="#999" stroke-width="2" stroke-miterlimit="10"><path d="M20.5 80.1h720v480h-720z"/><path d="M20.5 80.1h480v480h-480zM660.5 560V80m-144 480V80"/></g></g><g><path d="M703.7 423.3c1.2-.8 3-3.9 5.6-9.2 2.6-5.3 4.5-9.8 5.9-13.2l3.8-9.5c2-4.7 3-8.1 3.3-10.4l.6-4.1c.6-3 1.2-3.3 5-.8 2.6 2.3 4.2 4.7 5.3 7.2 1.2 2.9.9 4.4-2.3 8.6-2.9 4.1-6 9.8-9.5 17.4-2 4.7-4.4 9.6-7.1 14.9l-5 10.4c-2.9 5.6-5.7 8.3-8.6 7.8-2.6 0-4.8-2.7-6.8-8.1-2-5.9-4.4-11.1-7.2-15.8l-7.1-11.1c-4.7-6.9-8.9-12.3-12.6-16.1l-2-1.8c-.8-.8-1.2-1.5-1.2-2 0-1.1 1.5-2 4.7-2.6 6.2 0 10.4.8 12.9 2.4 2.6 1.7 4.2 4.7 5.3 8.7.6 2.3 1.5 4.8 2.6 7.8l3.6 9c2.3 5.6 4.1 8.9 5.6 10.1 1.7 1.1 2.6 1.7 2.9 1.7 0 .3.8-.3 2.3-1.3zM581.4 421c2.4 1.8 3.7 3.4 3.7 4.6s-.6 2.7-1.5 4.2c-.8 1.5-1.3 3.1-1.3 4.9 0 6.8 3.2 16 9.8 28 6.6 11.8 14.5 22.8 23.6 33 9.3 10.1 17.3 16.3 23.9 18.4 3 .8 4.5 2 4.5 3.4 0 .8-2.1 2.1-6.3 3.9-4.1 1.8-7.3 2.8-9.4 2.8-2.7 0-7-3.2-13.4-9.7-8.7-9.1-16.9-20.7-24.5-34.6-7.5-13.9-12.5-27.1-14.9-39.4-1.3-7.2-2.5-10.7-4.1-10.7-1.4 0-7.6 3-18.7 8.7-3.8 2.1-6.8 3.1-8.9 3.1-1.8 0-4.2-1.1-7.2-3.2-2.7-1.8-4.1-3.2-4.1-4.2s3.5-2 10.4-3c8.9-1.3 15.8-3.1 20.8-5.3 3.2-1.3 5.9-2.8 7.7-4.6 3.6-4.2 5.3-4.1 9.9-.3zm49.5-284.6c4.4 3.4 6.5 5.8 6.5 7.3 0 .1-.7 1.1-2 3-2.1 2.7-4.1 9.6-6 20.7-2.7 14.1-6.5 24.3-11.5 30.8-2.8 3.4-5.6 5.1-8.6 5.1-1.7 0-4.5-1.7-8.6-5.1-4.1-3.5-6-5.8-6-6.8 0-.4.1-.6.6-.6.6 0 2 .3 4.1.8 2 .7 3.9 1 6 1 3.1 0 5.6-1.1 7.5-3.2 1.3-1.3 2.8-6.6 4.8-15.8 2.7-11.7 4.1-20.4 4.1-26.2 0-3.4-1.5-5.1-4.5-5.1-2.5 0-13.6 1.7-33.2 5.1l-4.4 1v39.2c0 18.6.1 29.5.6 33 .3 4.4.4 7.7.4 10 0 3.9-.6 7.5-1.8 10.5-1.1 3-2.2 4.5-3.2 4.5-1.5 0-3.4-1.7-5.5-4.9-2-3.2-3-5.9-3-8.2 0-1.3.1-2.5.6-3.9.4-1.8.8-4.5 1.4-8 1-9.4 1.4-21 1.4-34.3 0-11.5-.3-23.5-.8-35.9l-5.6 1c-5.2 1.4-8.6 2.1-9.8 2.1-2.4 0-5.5-1.1-9.1-3.2-3.7-2.2-5.5-4.1-5.5-5.5 0-.8.7-1.3 2.2-1.3 3.8.8 7.2 1.3 10.1 1.3 4.9 0 15.3-1.5 31.2-4.5s26.7-5.3 32.5-7c2.4-1.5 4.2-2.2 5.5-2.2 2.2.1 5.4 1.7 9.6 5.3zm-539 197c-.2 3.8-.8 6.6-1.9 8.7-1.1 2-2.5 3.2-4.2 3.4-1.7.2-3.4-.6-5.2-2.5-1.6-1.4-2.9-4.3-4-8.8-1.1-4.5-1.9-8.6-2.3-12.5l-8.4-56c-.8-4.5-1.8-8.2-2.9-10.9-1.2-2.7-3-5.5-5.6-8.4-2.6-2.9-4.3-5.2-5-6.8-.8-1.6-.9-3-.2-4.2.6-1.2 2.5-1.8 5.6-2 2.5 0 6.1.3 10.8.9l8.7 1.4 22.7-4.9c.9-.2 4.1-1.1 9.5-2.9 5.4-1.8 8.8-3.1 10.2-3.9l12.9-7c2.3-.3 5.1 0 8.2.9 3.1.9 7.2 2.8 12.3 5.5 5.1 2.7 8.5 5 10.3 6.9 1.8 1.9 2.8 3.4 3 4.7.2 1.3 0 2.8-.6 4.7-.5 1.1-2 3.9-4.6 8.3s-4.5 8.4-5.6 11.8c-1.2 3.4-2.9 10.6-5.3 21.6l-8 35.4c4.5 1.7 7.8 3.8 9.7 6.2 2 2.4 2.7 4 2.1 4.7-.5.7-2 1.1-4.3 1.3l-49.2 5.4-8.7-1zm.7-14.7l30-5.4 5.9-56.2.7-8.9c.3-3.1.2-5.2-.5-6.2-.6-1-2.7-1.5-6.3-1.5-2 .2-4.6.5-7.7.9l-12 2.1-17.8 3.3 7.7 71.9zm99-93.1l-1.6-15.7c-.3-1.2-1.1-5.1-2.2-11.5-1.2-6.4-2.5-10.9-3.9-13.6l-5.4-8.9c-1.1-3-1.1-5.1-.1-6.4 1-1.3 3.3-1.9 6.9-1.8 2.3.2 6.1 1 11.4 2.5 5.2 1.5 9.3 2.8 12.1 4s4.5 2.6 5 4.2.4 4-.4 7.1c-1.6 5-2.5 8.5-2.8 10.4-.3 2-.6 5-.8 9.1-.2 4.1-.2 8.1.1 11.8l1.6 35.4 27.9-6.8-6.1-76.4c-.6-6.9-1.3-12.3-2.1-16.4-.8-4.1-2.1-8.2-4-12.4l-4.2-8.4c-1.6-3.4-2-5.7-1.2-6.8.8-1.1 2.6-1.8 5.4-2.1 2.3-.2 7.3.7 15 2.5s12.7 3.7 15 5.6c2.3 2 3.6 3.8 3.8 5.6.2 1.8-.4 4.8-1.6 9-.6 2-1.3 5.8-1.9 11.2-.6 5.5-.9 9.5-.7 12.2l.5 12.4c6.7-2.3 12.4-4.5 17-6.3 4.6-1.9 8.1-3 10.5-3.5 2.4-.5 4.9-.6 7.4-.5 2.7.3 6 1.3 10 2.9s6 3.5 6 5.5c-.2 1.4-1 2.8-2.6 4.2-1.6 1.4-3.8 2.3-6.6 2.8l-41.2 8 .7 45.5 30.5-8c7.2-1.9 12.4-2.8 15.6-2.7 3.2.1 5 .9 5.4 2.3.4 1.5-.4 3-2.5 4.6-2 1.6-5.5 3.3-10.5 5.2l-26.5 9.8c5.5 1.9 10 3.5 13.6 4.9 3.6 1.4 6.4 3.2 8.3 5.5 2 2.3 2.8 4.2 2.6 5.7-.2 1.6-1.5 3.3-3.9 5.3-2.3 2-5.1 4.7-8.2 8.1l-9.4 10.1c6.1-1.2 10.5-2.3 13.2-3 2.7-.8 8.1-2.5 16.1-5s13.8-4.8 17.5-6.8c3.7-2 6.2-3.1 7.6-3.4 2.2-.3 5.4.3 9.6 1.9 4.2 1.6 8.6 3.8 13.2 6.8s7 5.4 7 7.4c.1 2-1 3.9-3.2 6-.9.9-3.6 2.6-7.9 4.9-4.3 2.3-8.8 5.5-13.5 9.4l-10.1 8.7-11.2 9.6-14.8 13.9 31.4-4.2 10.8-1.4c5.2-.6 10-1.5 14.4-2.6 4.5-1.1 9.2-2.6 14.2-4.6 5-2 8.5-3 10.5-3.2 2.3 0 6.1 1.3 11.4 3.8 5.2 2.5 9.1 4.5 11.6 5.9 2.5 1.4 5 3.4 7.4 6.1 2.4 2.7 3.5 4.8 3.2 6.6-.2.6-1 2-2.5 4s-2.8 5.3-4 9.7-2 8-2.3 10.7c-.4 2.7-.6 7.7-.6 15l-.7 28.8c0 2.7.2 10.5.7 23.7s.7 25 .7 35.6c-.2 12.2-1 21.4-2.6 27.8-1.6 6.3-4.2 12.7-7.9 19.1-3.7 6.4-7.7 10.9-12.2 13.6-4.5 2.7-7.7 3.7-9.7 3-2-.3-4.3-2.3-6.8-5.9l-7-9.8c-2.3-3-4.9-6-7.6-9.1-2.7-3.1-6-6.7-9.7-10.8l-8.7-9c-1.7-1.7-2.2-2.9-1.5-3.6s2-1 3.9-.8l13.8 2.3c4.1.8 8.3 1.8 12.8 2.9s7.5 1.2 9.3.1c1.6-.9 2.7-3 3.5-6.2.8-3.2 1.5-8.4 2.2-15.5.7-7.1 1.1-10.8 1.3-11.1l.5-17.3c-7.7.6-13.4 1-17.1 1.2l-21.1 1.2c-1.9.2-11.1 1.2-27.8 3s-26.2 3-28.7 3.3l-23.7 4c-9.2 1.4-14.8 2.3-16.6 2.6-1.9.3-4.1.5-6.8.6-2.7.1-5.2-.9-7.5-2.9l-5.9-4.2c-1.9 6.7-3.8 12.9-5.6 18.6-1.9 5.7-4.3 11.2-7.3 16.4-3 5.2-6.8 11.1-11.6 17.6-4.8 6.5-9.1 11.1-13 13.7l-9.8 6.8c-1.4.9-2.5.9-3.3-.1-.8-1-.5-2.5.9-4.6l7.5-11.7c3.4-5.3 6.9-12.2 10.3-20.7 3.4-8.5 6.3-16.8 8.6-24.7 2.3-8 4.1-16.1 5.5-24.3s2.5-18.2 3.4-30.1c.9-11.9 1.3-21.8 1.3-29.8-.2-8.7-.9-15.5-2.3-20.4l-4.7-12.7c-.5-1.1-.6-2.1-.4-2.9.2-.9 1.1-1.7 2.5-2.5 1.1-.6 4.3-.3 9.6.9l17.3 4.9 50.9-4.9c7-9.8 12.1-17 15.4-21.6 3.2-4.5 5.9-8.6 8.1-12.3 2.2-3.7 3-6 2.6-6.9s-3.6-.9-9.4 0l-13.1 1.9c-5.9.9-9.7 1.4-11.2 1.4-3.8.2-6.3-.2-7.7-.9l-5.9-2.3c-5.6 5.2-10 8.9-13.2 11.1-3.2 2.3-8.3 5.3-15.4 9l-11.7 6.3c-3.3 1.7-5.5 2-6.6.7-1.1-1.2-.8-2.7.9-4.2l11.5-10.5c2.8-2.7 6.8-7.2 12.1-13.6 5.2-6.4 10.2-13 15-19.8 4.8-6.8 7.6-12.5 8.6-17L264 253l-38 14.8c-.8.3-4 1.8-9.7 4.5-5.7 2.7-9.8 5-12.3 7s-4.1 3.1-4.7 3.3c-1.4.5-3.6.2-6.6-.8-3-1-7-3.4-12.1-7.1-5.1-3.8-8.5-7.6-10.3-11.6-1.8-4-2.3-6.5-1.5-7.5.8-1 2.6-1.7 5.4-2 .3 0 3.8.2 10.5.7l10.5.9-3.6-29.6zm92.1 213.1l-.7-34c-22.5 3.6-38.3 4.8-47.3 3.8l-7-.7c-1.3 10.3-2 16.3-2.3 18l-3.8 20.9 61.1-8zm-1.4-49.7c-.5-4.8-.8-9.6-1.1-14.4-.2-4.8-.6-7.9-1.1-9.5l-2.8-8.9c-5.5.6-10.4 1.2-14.8 1.8-4.4.5-10.1 1.3-17.1 2.2l-13.8 1.9c-.3 9.4-.5 14.9-.5 16.6l-.7 16.4 51.9-6.1zm24.7-31.5c2.3 1.3 3.5 2.7 3.8 4.1s-.3 3.6-1.5 6.6c-1.4 3.4-2.3 6.9-2.6 10.3l-.7 6.6c8-1.2 15.6-2.4 22.9-3.5 7.3-1.1 12.9-2 17-2.6 4.1-.6 8.2-.8 12.3-.5 4.1.3 7.9 1.5 11.1 3.5l8 4.7-.5-16.6v-7.5l-.5-8c-.3-3.6-.9-5.7-1.8-6.4-.9-.7-3-1-6.4-.8l-21.8 1.4c-10.2.8-17 1.3-20.4 1.6l-26.2 3c2.6 1.4 5 2.7 7.3 4.1zm-4.1 78.1c5.8-.9 10.2-1.6 13.4-2.1l18.3-2.6c5.8-.8 10.5-1.6 14.3-2.3 3.8-.8 6.5-1.2 8.2-1.2 2 .3 4.3 1.1 6.7 2.2 2.4 1.2 4.5 2.2 6.2 3.2l7.3 4.7v-46.4c-3.8 1.3-6.9 2.2-9.5 2.9s-7.1 1.6-13.7 2.6-13.2 1.8-19.9 2.5l-15.7 1.6-13.1 1.6-2.5 33.3zm69.6-268.1c3.6-.9 7.5-2.2 11.8-3.9 4.3-1.6 7.4-2.5 9.3-2.7 1.9 0 3.7.3 5.4.9 1.7.6 4.2 1.8 7.5 3.4s5.4 3 6.4 4.2c1 1.2 1.5 2.1 1.5 2.9-.2 1.1-1.1 2.3-2.8 3.6-1.7 1.3-4.9 2.5-9.6 3.6l-16.4 4.2c-5.3 1.4-10.9 2.6-16.9 3.5-5.9.9-10.5 1.4-13.8 1.4-3.9.2-6.4-.1-7.5-.7l-7-2.6c-.5 7.2-.9 13.3-1.2 18.3-.3 5-.4 8.9-.2 11.7.3 8.4 2 14.3 5 17.5 3 3.2 7.7 5.4 14.1 6.7 6.3 1.3 14 1.8 23.1 1.6 7 0 13.4-.3 19-.9 5.6-.6 10.8-1.8 15.6-3.4 4.8-1.6 8.2-3.6 10.3-5.7 2.1-2.2 4.5-6.8 7.1-13.8 2.7-7 4.3-12.7 4.9-16.9l1.6-11.5c.3-3.1 1.4-4.8 3.3-5s3.1 1.1 3.8 4.1l2.6 13.1c.5 3.1 1.4 7.3 2.9 12.7 1.5 5.3 3 9.2 4.6 11.7l5.2 8.7c1.4 3 2 5.6 1.6 8-.3 2-1.2 4.1-2.7 6.1-1.5 2-4.6 4.5-9.4 7.5-4.8 3-12.5 5.8-23.2 8.4-10.7 2.7-23.4 4-38.1 4-13 .2-23.8-.7-32.6-2.7s-15.9-4.7-21.3-8.3c-5.5-3.6-9.8-8.5-13-14.6-3.2-6.2-4.8-13-4.9-20.6-.1-7.6.3-18.6 1.1-32.9l1.6-36.6c0-1.7-.1-4.9-.2-9.5-.2-4.6-1.2-9.3-3-13.9s-2.9-7.9-2.9-9.5c-.1-1.6.4-2.9 1.4-3.8 1-.9 2.9-1.1 5.7-.8 3 .5 7.3 1.8 13 4s9.9 4.3 12.5 6.2c2.7 2 4 3.7 4.1 5.2.1 1.5-.7 3.7-2.5 6.7-1.6 2.7-2.7 5.2-3.3 7.5-.6 2.3-1.4 7.3-2.3 15l-2.1 16.9 30.9-9zm240.7 108c3.5 3.5 5.3 6.5 5.3 8.9 0 .7-.8 1.5-2.5 2.5-2 1.5-4.1 6.8-6.5 15.5-4.4 12.5-8.6 22.8-12.7 30.7 8.9 6 19 14.2 30.7 24.8 4.9 4.6 7.3 9.4 7.3 14.3 0 6-1.1 9-3.4 9-1.5 0-5.2-3.2-11-9.8-11.1-12.5-20.8-22.4-28.8-29.5-6.9 9.7-13.2 17.4-19.3 23.3-7.2 6.3-14.5 11.4-22.2 15.2-4.4 1.7-6.9 2.5-7.6 2.5h-.6c0-.7.6-1.5 1.7-2.2 12.4-9.6 21.9-18.8 28.7-27.8 3.8-5.1 7.6-11 11.5-17.9-11.4-9.7-22.5-18.1-33.2-25.3l-1.4-1.1c0-.4.3-.6 1-.6 1.5 0 4.9 1 10.4 3 7.2 3.4 16.3 8.7 27.4 16.2l3.4-6.6c5.2-12.1 9-22.6 11.2-31.8 1.5-5.8 1.8-10 1.1-12.4-.7-1.7-1.1-2.8-1.1-3.4 0-.7.7-1 2.2-1 2.5-.2 5.2 1.1 8.4 3.5z"/></g></svg>