<svg xmlns="http://www.w3.org/2000/svg" viewBox="0 0 760 640"><path fill="none" stroke="#999" stroke-width="2" stroke-miterlimit="10" d="M20.5 601h340m40 0h340"/><path fill="#999" d="M19.5 593h2v16h-2zm720 0h2v16h-2z"/><path d="M375.2 610v-4.2H368v-1.4l7-10h2.3v9.7h2.2v1.7h-2.2v4.2h-2.1zm0-5.9v-5.2c0-.8 0-1.6.1-2.4h-.1c-.5.9-.9 1.6-1.3 2.3L370 604h5.2zm15-7.9h-6l-.6 4c.4 0 .7-.1 1.3-.1 1.2 0 2.4.3 3.4.8 1.2.7 2.2 2 2.2 4 0 3-2.4 5.3-5.8 5.3-1.7 0-3.1-.5-3.9-1l.5-1.6c.6.4 1.9.9 3.3.9 2 0 3.7-1.3 3.7-3.4 0-2-1.4-3.5-4.5-3.5-.9 0-1.6.1-2.2.2l1-7.5h7.5v1.9z"/><path fill="none" stroke="#999" stroke-width="2" stroke-miterlimit="10" d="M20.5 578h220m40 0h220"/><path fill="#999" d="M19.5 570h2v16h-2zm480 0h2v16h-2z"/><path d="M249.1 584.6c.6.4 2 1 3.5 1 2.7 0 3.6-1.7 3.5-3 0-2.2-2-3.1-4-3.1h-1.2v-1.6h1.2c1.5 0 3.5-.8 3.5-2.6 0-1.2-.8-2.4-2.7-2.4-1.2 0-2.4.6-3.1 1l-.6-1.5c.8-.6 2.4-1.2 4.1-1.2 3.1 0 4.5 1.8 4.5 3.7 0 1.6-1 3-2.9 3.7 1.9.4 3.5 1.8 3.5 4 0 2.5-1.9 4.7-5.7 4.7-1.8 0-3.3-.6-4.1-1.1l.5-1.6zm22.2-5.6c0 5.3-2 8.2-5.4 8.2-3 0-5.1-2.9-5.2-8 0-5.2 2.3-8.1 5.4-8.1 3.3 0 5.2 3 5.2 7.9zm-8.5.3c0 4.1 1.2 6.4 3.2 6.4 2.2 0 3.2-2.5 3.2-6.5 0-3.8-1-6.4-3.2-6.4-1.8 0-3.2 2.2-3.2 6.5z"/><g><path fill="none" stroke="#999" stroke-width="2" stroke-miterlimit="10" d="M500.5 578h100m40 0h100"/><path fill="#999" d="M499.5 570h2v16h-2zm240 0h2v16h-2z"/><path d="M613.2 573.4l-2.8 1.5-.4-1.6 3.4-1.8h1.8V587h-2v-13.6zm17-.2h-6l-.6 4c.4 0 .7-.1 1.3-.1 1.2 0 2.4.3 3.4.8 1.2.7 2.2 2 2.2 4 0 3-2.4 5.3-5.8 5.3-1.7 0-3.1-.5-3.9-1l.5-1.6c.6.4 1.9.9 3.3.9 2 0 3.7-1.3 3.7-3.4 0-2-1.4-3.5-4.5-3.5-.9 0-1.6.1-2.2.2l1-7.5h7.5v1.9z"/></g><g><path fill="none" stroke="#999" stroke-width="2" stroke-miterlimit="10" d="M660.5 58h30m20 0h30"/><path fill="#999" d="M659.5 50h2v16h-2zm80 0h2v16h-2z"/><path fill="none" d="M694.5 46.5h13.9v30.4h-13.9z"/><path d="M704.9 52.8h-6l-.6 4c.4 0 .7-.1 1.3-.1 1.2 0 2.4.3 3.4.8 1.2.7 2.2 2 2.2 4 0 3-2.4 5.3-5.8 5.3-1.7 0-3.1-.5-3.9-1l.5-1.6c.6.4 1.9.9 3.3.9 2 0 3.7-1.3 3.7-3.4 0-2-1.4-3.5-4.5-3.5-.9 0-1.6.1-2.2.2l1-7.5h7.5v1.9z"/><g><path fill="none" stroke="#999" stroke-width="2" stroke-miterlimit="10" d="M516.5 58h62m20 0h62"/><path fill="#999" d="M515.5 50h2v16h-2zm144 0h2v16h-2z"/><path d="M583.8 65.5c.5 0 1 0 1.7-.1 1.2-.2 2.4-.7 3.3-1.5 1-.9 1.8-2.3 2.1-4.2h-.1c-.9 1.1-2.1 1.7-3.7 1.7-2.8 0-4.6-2.1-4.6-4.8 0-3 2.1-5.5 5.3-5.5s5.2 2.6 5.2 6.6c0 3.4-1.2 5.8-2.7 7.3-1.2 1.2-2.9 1.9-4.5 2.1-.8.1-1.4.1-1.9.1v-1.7zm.8-9c0 1.9 1.2 3.3 3 3.3 1.4 0 2.5-.7 3.1-1.6.1-.2.2-.4.2-.8 0-2.7-1-4.7-3.2-4.7-1.8 0-3.1 1.6-3.1 3.8z"/></g></g><g><path fill="#eee" d="M516.5 177.1h144v144h-144z"/><path fill="none" stroke="#999" stroke-width="2" stroke-miterlimit="10" d="M516.5 321h144m-144-144h144"/><path fill="#eee" d="M516.5 352.1h144v144h-144z"/><path fill="none" stroke="#999" stroke-width="2" stroke-miterlimit="10" d="M516.5 496h144m-144-144h144"/><path fill="#eee" d="M660.5 321.1h80v80h-80z"/><path fill="none" stroke="#999" stroke-width="2" stroke-miterlimit="10" d="M660.5 321h80m-80 80h80"/><g><path fill="#eee" d="M516.5 128h144v32h-144z"/><path fill="none" stroke="#999" stroke-width="2" stroke-miterlimit="10" d="M516.5 128h144m-144 32h144"/></g><g fill="none" stroke="#ccc" stroke-miterlimit="10"><path d="M180 560V80m161 480V80M20.5 239.5h480m-480 161h480"/></g><g fill="none" stroke="#999" stroke-width="2" stroke-miterlimit="10"><path d="M20.5 80.1h720v480h-720z"/><path d="M20.5 80.1h480v480h-480zM660.5 560V80m-144 480V80"/></g></g><g><path d="M703.7 375c1.2-.8 3-3.9 5.6-9.2 2.6-5.3 4.5-9.8 5.9-13.2l3.8-9.5c2-4.7 3-8.1 3.3-10.4l.6-4.1c.6-3 1.2-3.3 5-.8 2.6 2.3 4.2 4.7 5.3 7.2 1.2 2.9.9 4.4-2.3 8.6-2.9 4.1-6 9.8-9.5 17.4-2 4.7-4.4 9.6-7.1 14.9l-5 10.4c-2.9 5.6-5.7 8.3-8.6 7.8-2.6 0-4.8-2.7-6.8-8.1-2-5.9-4.4-11.1-7.2-15.8l-7.1-11.1c-4.7-6.9-8.9-12.3-12.6-16.1l-2-1.8c-.8-.8-1.2-1.5-1.2-2 0-1.1 1.5-2 4.7-2.6 6.2 0 10.4.8 12.9 2.4 2.6 1.7 4.2 4.7 5.3 8.7.6 2.3 1.5 4.8 2.6 7.8l3.6 9c2.3 5.6 4.1 8.9 5.6 10.1 1.7 1.1 2.6 1.7 2.9 1.7 0 .4.8-.3 2.3-1.3zM540.1 379.8c2.4.4 4.9.6 7.9.6 2.4 0 4.8-.1 7.3-.6l63-7.3c3.7-.7 6.3-1.5 7.9-2.2 1.7-.7 3.4-1.1 5.1-1.1 1.5 0 3.8 1.1 6.5 3.5 2.8 2.2 4.2 3.9 4.2 5.1 0 1-.7 1.5-2.2 1.5-.7 0-2-.1-4.1-.3l-3.8-.3c-9 .4-18.6 1.3-28.7 2.2l-3.4.4c.1 12.5-.1 22.5-.8 29.8-.6 3.9-4.1 8.2-8.7 8.2-.7 0-1.8-.3-3.4-.8-1.4-.3-2.5-.4-3.4-.4-4.9 0-9.6 2-13.9 5.8-3.8 4.4-5.8 9-5.8 14.1 0 7.2 2.7 13.4 8 18.3 5.5 4.9 12.4 7.5 20.7 7.5 11.8 0 21.9-5.3 30.5-16 1.5-1.3 3.1-2 4.4-2 2.8 0 5.1 2 5.1 4.8 0 5.2-4.1 10.4-12.1 15.5-8 5.2-17.3 7.7-27.8 7.7-11.2 0-20.7-3.4-28.1-10-7.5-7.5-11.2-16-11.2-25.7 0-8.2 2.7-14.9 7.9-20.4 5.8-5.3 13.2-8.3 22.5-9 3.4-.7 4.9-2.7 4.5-5.6l-1.1-20.1c-15.5 2.1-26.9 4.2-34 6.6-2 .7-3.5 1.1-4.8 1.1-1.8 0-4.6-1.5-8.7-4.8-2.8-2.4-4.2-4.1-4.2-4.8 0-1.1 1-1.7 2.8-1.7.5-.1 1.2 0 1.9.4zm73.1-183.9c3.5 3.5 5.3 6.5 5.3 8.9 0 .7-.8 1.5-2.5 2.5-2 1.5-4.1 6.8-6.5 15.5-4.4 12.5-8.6 22.8-12.7 30.7 8.9 6 19 14.2 30.7 24.8 4.9 4.6 7.3 9.4 7.3 14.3 0 6-1.1 9-3.4 9-1.5 0-5.2-3.2-11-9.8-11.1-12.5-20.8-22.4-28.8-29.5-6.9 9.7-13.2 17.4-19.3 23.3-7.2 6.3-14.5 11.4-22.2 15.2-4.4 1.7-6.9 2.5-7.6 2.5h-.6c0-.7.6-1.5 1.7-2.2 12.4-9.6 21.9-18.8 28.7-27.8 3.8-5.1 7.6-11 11.5-17.9-11.4-9.7-22.5-18.1-33.2-25.3l-1.4-1.1c0-.4.3-.6 1-.6 1.5 0 4.9 1 10.4 3 7.2 3.4 16.3 8.7 27.4 16.2l3.4-6.6c5.2-12.1 9-22.6 11.2-31.8 1.5-5.8 1.8-10 1.1-12.4-.7-1.7-1.1-2.8-1.1-3.4 0-.7.7-1 2.2-1 2.5-.2 5.2 1.1 8.4 3.5zM179.6 315.6c-4.4.9-8.9 2-13.6 3-4.7 1.1-10.7 2.6-18.2 4.6-7.4 2-13.6 3.7-18.4 5.3-4.8 1.6-8.3 2.3-10.3 2.3-2.8.2-6.8-.5-12-2.1s-9.6-3.4-13.4-5.4c-3.8-2-6.2-4.3-7.4-6.7-1.2-2.4-1.5-4.1-.9-4.9.5-.9 3.2-1.7 8.1-2.5l17.6-2.6 27-4c13.3-1.9 21.3-3.1 24.1-3.8l17.3-3.3c-.3-4.7-.6-9-.8-12.9-.2-3.9-.7-9.3-1.4-16.2-.7-6.9-1.4-12-2.2-15.2l-2.6-10.5c-4.7 1.6-8.2 2.7-10.5 3.4s-8 2.1-17 4.2-15 3.3-17.9 3.6l-13.8 1.6c-3.6.5-5.7 0-6.4-1.3-.7-1.3.7-2.8 4.3-4.3l12.4-5.4 14.5-5.9c6.9-2.8 14.5-6.5 22.7-11 8.3-4.5 15.3-8.8 21.1-12.8 5.8-4 10.7-7.7 14.9-11.2 4.1-3.5 7.5-6.7 10.1-9.5s4.2-5.2 4.9-7.3c.7-2 1.3-3.4 1.8-4.1s1.6-1.1 3.5-1.3c1.6 0 3.7.7 6.3 2.1 2.7 1.4 5.8 3.3 9.4 5.7 3.6 2.4 6.8 5.1 9.5 8 2.7 2.9 3.9 5.4 3.4 7.6-.5 1.9-1.4 3.2-2.9 4.1-1.5.9-3.5 1.8-6 2.7-2.5.9-4.8 1.9-6.8 2.9s-5.1 2.5-9.1 4.6l-15 7.7-12.4 6.6c3 1.1 5.2 2.1 6.8 2.9 1.6.9 2.9 1.9 4.1 3.2 1.2 1.3 1.9 2.3 2.1 3.2.2.9 0 2.5-.8 4.9-.8 2.4-1.3 4.9-1.6 7.4l-1.4 9.8c-.9 6.7-1.4 11.5-1.4 14.3l-.5 15c7.2-1.1 12.3-1.9 15.4-2.3s12.9-2.3 29.6-5.4l32.6-5.9 13.6-2.6c-1.6-10.3-2.7-18.1-3.3-23.4l-4.5-30-4.7-33.5c-1.3-7.8-2.5-14-3.6-18.5-1.2-4.5-2.7-8.9-4.5-13.2-1.8-4.3-3.7-8.2-5.6-11.7-2-3.5-3-6.2-3.3-8.2-.2-2 .1-3.7 1.1-5.2.9-1.5 3.3-2.3 7-2.5 2.2 0 5.9.7 11 2.1l13.6 3.8c4.1 1.4 7.1 2.9 9.3 4.3 2.1 1.5 3.5 2.9 4.2 4.2.7 1.3 1 2.9.8 4.6-.2.6-.7 2.4-1.6 5.4-.9 3-1.6 6-1.9 9.1-.3 3.1-.4 6.7-.2 10.8 0 4.1.1 8.6.4 13.7.2 5.1.9 16 2 32.8 1.1 16.8 2 27 2.6 30.6l2.8 20.2c6.9-1.1 12.1-2 15.7-2.6l20.9-3.8c9.5-1.4 16.8-2.8 21.7-4.2s8.3-2.1 10.2-2.1c3 .2 5.6.8 8 2s5.3 2.9 8.9 5.3c3.6 2.3 6.1 4.3 7.5 6s2 3 1.9 4.1c-.3 1.1-1.6 2.1-3.8 3.2-2.2 1-5.2 1.7-8.9 2l-16.9 1.2c-5.3.5-13.8 1.4-25.3 2.7-11.6 1.3-17.4 2-17.6 2l-19.9 2.1c1.7 8.4 3.8 17.7 6.1 27.9s5.2 21.7 8.7 34.7c3.4 13 6.6 22.4 9.6 28.4l6.6 14.5c5.3-7 9.6-13 12.9-17.9s6.7-10.8 10.3-17.7c3.6-6.9 6.1-12.5 7.5-16.8 1.4-4.3 2.2-7.8 2.5-10.4.2-2.7-.1-6.1-1.1-10.4-.9-4.3-1.5-7.2-1.6-8.8-.2-1.6.3-2.8 1.3-3.9 1-1 3-1.5 6-1.5 3.9.2 8.2 1.3 12.9 3.5 4.7 2.2 9.5 4.8 14.4 7.9s8.2 5.7 9.8 8.1 2.3 4.3 2 5.9c-.3 1.1-1.2 2.4-2.6 4l-5.2 5.4c-2.7 2.8-5.2 5.7-7.5 8.6-2.3 2.9-4.9 6.3-7.7 10.2l-11.5 16.9c-6.7 9.8-12 17-15.7 21.6L358 418.5c3.6 6.1 7 11.8 10.2 17 3.2 5.2 7.2 11 12.1 17.3 4.8 6.3 9.9 12.1 15.2 17.5 5.3 5.3 10.4 10 15.2 14.1 4.8 4.1 8.9 6.7 12.2 7.9s5.7 1.4 7.3.8c1.7-.6 3.1-2.3 4.2-4.9 1.1-2.7 2.1-5.7 3-9 .9-3.4 2.3-8.2 4.2-14.4s3.7-12.6 5.4-19l3.5-13.1c.6-2.7 1.5-3.9 2.6-3.9 1.1.1 1.7 1.4 1.9 3.9l.5 15c.2 7.2.4 13.9.7 20.2.3 6.2.7 12.4 1.3 18.4.5 6 1.2 12.1 2 18.3.8 6.2 1.8 11.3 3.2 15.5 1.3 4.1 1.8 7 1.5 8.6-.8 3-2.3 5-4.5 6s-4.6 1.5-7.3 1.5c-5.9.2-12.5-.9-19.6-3.3-7.1-2.3-14.3-6.1-21.4-11.2-7.2-5.2-14.8-11.7-22.7-19.7s-15.7-16.6-23.3-25.9c-7.6-9.3-13.2-17.4-16.8-24.3l-8.4-15c-5.6 4.2-11.4 8.4-17.2 12.7s-13.5 9-22.9 14.3-17.7 9.3-24.8 12c-7.2 2.7-14.5 5-21.8 7l-13.8 4c-3.8 1.1-5.9 1-6.6-.2-.6-1.3.3-2.7 2.8-4.2l12.9-8 14.5-8.4c7.8-4.4 17.4-10.7 28.7-18.9s19.1-14.4 23.3-18.6l13.8-13.1c-3.8-8.6-7.1-16.8-10.1-24.6-3-7.8-5.5-15.7-7.5-23.8-2-8-5.7-24.3-11-48.9l-5.4-24.6c-5.9 1.3-10.3 2.1-13.1 2.6l-32.3 5.9-30 5.9-18.3 3.3-.2 54.8 51.6-20.4c2.8-1.1 4.8-.7 6 1.2s.3 3.7-2.7 5.4l-54.8 30.7c.3 11.2.6 21.4.8 30.4.2 9 .4 18.7.6 29.2.2 10.5.2 18.8 0 25.1-.3 8-1 15.1-2.1 21.4-1.1 6.3-3.3 12.4-6.6 18.3s-7.1 10.1-11.4 12.7c-4.3 2.6-7.6 3.4-10 2.5-1.7-.5-3.8-2.7-6.2-6.7-2.4-4-5-7.5-7.6-10.4-2.7-3-5.8-6.3-9.4-9.8-3.6-3.6-6.5-6.4-8.7-8.4l-9.8-8.4c-2.5-1.9-3.3-3.5-2.5-4.8.9-1.3 2.3-1.8 4.3-1.3l10.5 2.8 10.3 2.6c5.5 1.6 9 2.4 10.5 2.6 2.2.3 4 .1 5.5-.6s2.7-3 3.5-6.8c.9-3.8 1.5-8.9 2-15.4s1-13.6 1.5-21.7c.5-8 .9-14.5 1.1-19.3l.7-23-43.8 23.7-17.3 9.8c-6.3 3.6-10.7 6.5-13.5 8.7-2.7 2.2-4.9 3.6-6.4 4.1-1.6.5-3.8.4-6.8-.4-2.7-.6-5.3-1.7-7.9-3.3-2.6-1.6-6.1-3.9-10.4-7-4.4-3.1-7.4-6.2-9-9.3s-1.9-5.4-.8-7.1c.6-.9 1.6-1.6 2.9-1.9 1.3-.3 3.8-.5 7.5-.6 3.7-.1 7.5-.6 11.4-1.6 3.9-1 10-2.9 18.3-5.6 8.3-2.7 14.3-4.9 18-6.4l57.9-22.5 1.2-58.9zm163.6-133.1l13.1 4c5.5 1.7 10.4 3.5 14.8 5.4 4.4 1.9 8.4 3.8 12.2 5.7 3.8 2 6.9 3.9 9.4 5.9 2.5 2 4.3 4.1 5.3 6.3 1 2.3 1.5 5.3 1.5 9-.2 3.6-.8 6.9-2 10s-2.6 5.4-4.3 6.9c-1.7 1.6-3.7 2.5-5.9 2.7-2.2.2-4.8-.8-8-3.2-3-2-6.2-5.4-9.7-10.1s-7.5-9.8-12.1-15.5c-4.5-5.6-7.5-9.3-8.9-11l-8-9.4c-2.5-2.8-3.4-4.8-2.6-6 .8-1.1 2.5-1.3 5.2-.7z"/></g></svg>