<svg xmlns="http://www.w3.org/2000/svg" viewBox="0 0 760 640"><g stroke-miterlimit="10"><g fill="none" stroke="#CCC"><path d="M180 560V80M341 560V80M20.5 239.5h480M20.5 400.5h480"/></g><g fill="none" stroke="#999" stroke-width="2"><path d="M20.5 80.1h720v480h-720z"/><path d="M20.5 80.1h480v480h-480zM620.5 560V80"/></g><g fill="#EEE" stroke="#999" stroke-width="2"><path d="M500.5 200.1h120v120h-120zM500.5 320h120M500.5 200h120"/></g><g fill="#EEE" stroke="#999" stroke-width="2"><path d="M500.5 320.1h120v120h-120zM500.5 440h120M500.5 320h120"/></g><g fill="#EEE" stroke="#999" stroke-width="2"><path d="M620.5 260.1h120v120h-120zM620.5 380h120M620.5 260h120"/></g></g><path fill="none" stroke="#999" stroke-width="2" stroke-miterlimit="10" d="M20.5 601h330M410.5 601h330"/><path fill="#999" d="M19.5 593h2v16h-2zM739.5 593h2v16h-2z"/><path d="M361.2 596.4l-2.8 1.5-.4-1.6 3.4-1.8h1.8V610h-2v-13.6zM378.2 596.2h-6l-.6 4c.4 0 .7-.1 1.3-.1 1.2 0 2.4.3 3.4.8 1.2.7 2.2 2 2.2 4 0 3-2.4 5.3-5.8 5.3-1.7 0-3.1-.5-3.9-1l.5-1.6c.6.4 1.9.9 3.3.9 2 0 3.7-1.3 3.7-3.4 0-2-1.4-3.5-4.5-3.5-.9 0-1.6.1-2.2.2l1-7.5h7.5v1.9zM391.6 602c0 5.3-2 8.2-5.4 8.2-3 0-5.1-2.9-5.2-8 0-5.2 2.3-8.1 5.4-8.1 3.3 0 5.2 3 5.2 7.9zm-8.5.3c0 4.1 1.2 6.4 3.2 6.4 2.2 0 3.2-2.5 3.2-6.5 0-3.8-1-6.4-3.2-6.4-1.8 0-3.2 2.2-3.2 6.5zM403.9 602c0 5.3-2 8.2-5.4 8.2-3 0-5.1-2.9-5.2-8 0-5.2 2.3-8.1 5.4-8.1 3.4 0 5.2 3 5.2 7.9zm-8.4.3c0 4.1 1.2 6.4 3.2 6.4 2.2 0 3.2-2.5 3.2-6.5 0-3.8-1-6.4-3.2-6.4-1.9 0-3.2 2.2-3.2 6.5z"/><path fill="none" stroke="#999" stroke-width="2" stroke-miterlimit="10" d="M20.5 578h210M290.5 578h210"/><path fill="#999" d="M19.5 570h2v16h-2zM499.5 570h2v16h-2z"/><g><path d="M241.2 573.4l-2.8 1.5-.4-1.6 3.4-1.8h1.8V587h-2v-13.6zM259.3 579c0 5.3-2 8.2-5.4 8.2-3 0-5.1-2.9-5.2-8 0-5.2 2.3-8.1 5.4-8.1 3.3 0 5.2 3 5.2 7.9zm-8.5.3c0 4.1 1.2 6.4 3.2 6.4 2.2 0 3.2-2.5 3.2-6.5 0-3.8-1-6.4-3.2-6.4-1.8 0-3.2 2.2-3.2 6.5zM271.6 579c0 5.3-2 8.2-5.4 8.2-3 0-5.1-2.9-5.2-8 0-5.2 2.3-8.1 5.4-8.1 3.3 0 5.2 3 5.2 7.9zm-8.5.3c0 4.1 1.2 6.4 3.2 6.4 2.2 0 3.2-2.5 3.2-6.5 0-3.8-1-6.4-3.2-6.4-1.8 0-3.2 2.2-3.2 6.5zM283.9 579c0 5.3-2 8.2-5.4 8.2-3 0-5.1-2.9-5.2-8 0-5.2 2.3-8.1 5.4-8.1 3.4 0 5.2 3 5.2 7.9zm-8.4.3c0 4.1 1.2 6.4 3.2 6.4 2.2 0 3.2-2.5 3.2-6.5 0-3.8-1-6.4-3.2-6.4-1.9 0-3.2 2.2-3.2 6.5z"/></g><g><path fill="none" stroke="#999" stroke-width="2" stroke-miterlimit="10" d="M500.5 578h90M650.5 578h90"/><path fill="#999" d="M499.5 570h2v16h-2zM739.5 570h2v16h-2z"/><g><path d="M611.9 573.2h-6l-.6 4c.4 0 .7-.1 1.3-.1 1.2 0 2.4.3 3.4.8 1.2.7 2.2 2 2.2 4 0 3-2.4 5.3-5.8 5.3-1.7 0-3.1-.5-3.9-1l.5-1.6c.6.4 1.9.9 3.3.9 2 0 3.7-1.3 3.7-3.4 0-2-1.4-3.5-4.5-3.5-.9 0-1.6.1-2.2.2l1-7.5h7.5v1.9zM625.3 579c0 5.3-2 8.2-5.4 8.2-3 0-5.1-2.9-5.2-8 0-5.2 2.3-8.1 5.4-8.1 3.3 0 5.2 3 5.2 7.9zm-8.5.3c0 4.1 1.2 6.4 3.2 6.4 2.2 0 3.2-2.5 3.2-6.5 0-3.8-1-6.4-3.2-6.4-1.8 0-3.2 2.2-3.2 6.5zM637.6 579c0 5.3-2 8.2-5.4 8.2-3 0-5.1-2.9-5.2-8 0-5.2 2.3-8.1 5.4-8.1 3.3 0 5.2 3 5.2 7.9zm-8.5.3c0 4.1 1.2 6.4 3.2 6.4 2.2 0 3.2-2.5 3.2-6.5 0-3.8-1-6.4-3.2-6.4-1.8 0-3.2 2.2-3.2 6.5z"/></g></g><g><path fill="none" stroke="#999" stroke-width="2" stroke-miterlimit="10" d="M620.5 58h40M700.5 58h40"/><path fill="#999" d="M619.5 50h2v16h-2zM739.5 50h2v16h-2z"/><g><path d="M662.6 67v-1.3l1.7-1.6c4-3.8 5.8-5.8 5.8-8.2 0-1.6-.8-3-3.1-3-1.4 0-2.6.7-3.3 1.3l-.7-1.5c1.1-.9 2.6-1.6 4.4-1.6 3.4 0 4.8 2.3 4.8 4.5 0 2.9-2.1 5.2-5.4 8.4l-1.2 1.2h7V67h-10zM684.2 53.2h-6l-.6 4c.4 0 .7-.1 1.3-.1 1.2 0 2.4.3 3.4.8 1.2.7 2.2 2 2.2 4 0 3-2.4 5.3-5.8 5.3-1.7 0-3.1-.5-3.9-1l.5-1.6c.6.4 1.9.9 3.3.9 2 0 3.7-1.3 3.7-3.4 0-2-1.4-3.5-4.5-3.5-.9 0-1.6.1-2.2.2l1-7.5h7.5v1.9zM697.6 59c0 5.3-2 8.2-5.4 8.2-3 0-5.1-2.9-5.2-8 0-5.2 2.3-8.1 5.4-8.1 3.3 0 5.2 3 5.2 7.9zm-8.5.3c0 4.1 1.2 6.4 3.2 6.4 2.2 0 3.2-2.5 3.2-6.5 0-3.8-1-6.4-3.2-6.4-1.8 0-3.2 2.2-3.2 6.5z"/></g></g><g><path fill="none" stroke="#999" stroke-width="2" stroke-miterlimit="10" d="M500.5 58h40M580.5 58h40"/><path fill="#999" d="M499.5 50h2v16h-2zM619.5 50h2v16h-2z"/><g><path d="M542.6 67v-1.3l1.7-1.6c4-3.8 5.8-5.8 5.8-8.2 0-1.6-.8-3-3.1-3-1.4 0-2.6.7-3.3 1.3l-.7-1.5c1.1-.9 2.6-1.6 4.4-1.6 3.4 0 4.8 2.3 4.8 4.5 0 2.9-2.1 5.2-5.4 8.4l-1.2 1.2h7V67h-10zM564.2 53.2h-6l-.6 4c.4 0 .7-.1 1.3-.1 1.2 0 2.4.3 3.4.8 1.2.7 2.2 2 2.2 4 0 3-2.4 5.3-5.8 5.3-1.7 0-3.1-.5-3.9-1l.5-1.6c.6.4 1.9.9 3.3.9 2 0 3.7-1.3 3.7-3.4 0-2-1.4-3.5-4.5-3.5-.9 0-1.6.1-2.2.2l1-7.5h7.5v1.9zM577.6 59c0 5.3-2 8.2-5.4 8.2-3 0-5.1-2.9-5.2-8 0-5.2 2.3-8.1 5.4-8.1 3.3 0 5.2 3 5.2 7.9zm-8.5.3c0 4.1 1.2 6.4 3.2 6.4 2.2 0 3.2-2.5 3.2-6.5 0-3.8-1-6.4-3.2-6.4-1.8 0-3.2 2.2-3.2 6.5z"/></g></g><g><path fill="#DB1976" d="M559.5 83v115"/><path fill="none" stroke="#29ABE2" stroke-width="2" stroke-miterlimit="10" d="M559.5 83v42M559.5 155v43"/><path fill="#29ABE2" d="M551.3 89.1l1.4 1.4 6.8-7.2 6.7 7.2 1.4-1.4-8.1-8.8M551.3 190.9l1.4-1.4 6.8 7.2 6.7-7.2 1.4 1.4-8.1 8.8"/><g><path d="M542.4 147.7v-1.4l1.7-1.7c4-4 5.8-6.2 5.8-8.7 0-1.7-.8-3.2-3.1-3.2-1.4 0-2.6.8-3.3 1.4l-.7-1.6c1.1-1 2.6-1.7 4.4-1.7 3.4 0 4.8 2.5 4.8 4.8 0 3.1-2.1 5.5-5.4 8.9l-1.2 1.2v.1h7v1.9h-10zM564 133h-6l-.6 4.3c.4-.1.7-.1 1.3-.1 1.2 0 2.4.3 3.4.9 1.2.7 2.2 2.2 2.2 4.3 0 3.2-2.4 5.7-5.8 5.7-1.7 0-3.1-.5-3.9-1l.5-1.7c.6.4 1.9.9 3.3.9 2 0 3.7-1.4 3.7-3.6 0-2.1-1.4-3.7-4.5-3.7-.9 0-1.6.1-2.2.2l1-8h7.5v1.8zM577.4 139.2c0 5.6-2 8.8-5.4 8.8-3 0-5.1-3-5.2-8.5 0-5.6 2.3-8.6 5.4-8.6 3.3-.1 5.2 3 5.2 8.3zm-8.5.3c0 4.3 1.2 6.8 3.2 6.8 2.2 0 3.2-2.7 3.2-6.9 0-4.1-1-6.8-3.2-6.8-1.8 0-3.2 2.4-3.2 6.9z"/></g></g><g><path fill="#DB1976" d="M559.5 323v115"/><path fill="none" stroke="#29ABE2" stroke-width="2" stroke-miterlimit="10" d="M559.5 323v42M559.5 395v43"/><path fill="#29ABE2" d="M551.3 329.1l1.4 1.4 6.8-7.2 6.7 7.2 1.4-1.4-8.1-8.8M551.3 430.9l1.4-1.4 6.8 7.2 6.7-7.2 1.4 1.4-8.1 8.8"/><g><path d="M542.4 387.7v-1.4l1.7-1.7c4-4 5.8-6.2 5.8-8.7 0-1.7-.8-3.2-3.1-3.2-1.4 0-2.6.8-3.3 1.4l-.7-1.6c1.1-1 2.6-1.7 4.4-1.7 3.4 0 4.8 2.5 4.8 4.8 0 3.1-2.1 5.5-5.4 8.9l-1.2 1.2v.1h7v1.9h-10zM564 373h-6l-.6 4.3c.4-.1.7-.1 1.3-.1 1.2 0 2.4.3 3.4.9 1.2.7 2.2 2.2 2.2 4.3 0 3.2-2.4 5.7-5.8 5.7-1.7 0-3.1-.5-3.9-1l.5-1.7c.6.4 1.9.9 3.3.9 2 0 3.7-1.4 3.7-3.6 0-2.1-1.4-3.7-4.5-3.7-.9 0-1.6.1-2.2.2l1-8h7.5v1.8zM577.4 379.2c0 5.6-2 8.8-5.4 8.8-3 0-5.1-3-5.2-8.5 0-5.6 2.3-8.6 5.4-8.6 3.3-.1 5.2 3 5.2 8.3zm-8.5.3c0 4.3 1.2 6.8 3.2 6.8 2.2 0 3.2-2.7 3.2-6.9 0-4.1-1-6.8-3.2-6.8-1.8 0-3.2 2.4-3.2 6.9z"/></g></g><g><path fill="#DB1976" d="M559.5 203v115"/><path fill="none" stroke="#29ABE2" stroke-width="2" stroke-miterlimit="10" d="M559.5 203v42M559.5 275v43"/><path fill="#29ABE2" d="M551.3 209.1l1.4 1.4 6.8-7.2 6.7 7.2 1.4-1.4-8.1-8.8M551.3 310.9l1.4-1.4 6.8 7.2 6.7-7.2 1.4 1.4-8.1 8.8"/><g><path d="M542.4 267.7v-1.4l1.7-1.7c4-4 5.8-6.2 5.8-8.7 0-1.7-.8-3.2-3.1-3.2-1.4 0-2.6.8-3.3 1.4l-.7-1.6c1.1-1 2.6-1.7 4.4-1.7 3.4 0 4.8 2.5 4.8 4.8 0 3.1-2.1 5.5-5.4 8.9l-1.2 1.2v.1h7v1.9h-10zM564 253h-6l-.6 4.3c.4-.1.7-.1 1.3-.1 1.2 0 2.4.3 3.4.9 1.2.7 2.2 2.2 2.2 4.3 0 3.2-2.4 5.7-5.8 5.7-1.7 0-3.1-.5-3.9-1l.5-1.7c.6.4 1.9.9 3.3.9 2 0 3.7-1.4 3.7-3.6 0-2.1-1.4-3.7-4.5-3.7-.9 0-1.6.1-2.2.2l1-8h7.5v1.8zM577.4 259.2c0 5.6-2 8.8-5.4 8.8-3 0-5.1-3-5.2-8.5 0-5.6 2.3-8.6 5.4-8.6 3.3-.1 5.2 3 5.2 8.3zm-8.5.3c0 4.3 1.2 6.8 3.2 6.8 2.2 0 3.2-2.7 3.2-6.9 0-4.1-1-6.8-3.2-6.8-1.8 0-3.2 2.4-3.2 6.9z"/></g></g><g fill="#6D6D6D"><path d="M512.3 225c.1-.2.2-.2.3-.1.9.5 1.9 1.2 2.8 2.1.1.1.1.1-.1.3l-.4.6c-.1.2-.2.2-.3.1-.9-.9-1.7-1.6-2.7-2.2-.1-.1-.1-.1 0-.3l.4-.5zm1.5 11.1c-.2.4-.4.7-.4.8 0 .1-.1.2-.2.2s-.1 0-.3-.1c-.3-.2-.6-.5-.9-.7.4-.4.7-.8 1.1-1.6.7-1.3 1.3-2.5 2.1-4.4.1.2.3.4.6.6.3.2.3.2.2.6-.7 1.7-1.4 3.1-2.2 4.6zm-.3-15.9c.1-.2.2-.2.3-.1.9.6 1.9 1.4 2.7 2.2.1.1.1.1-.1.3l-.4.5c-.1.2-.2.2-.3.1-.9-.9-1.7-1.6-2.7-2.3-.1-.1-.1-.1 0-.3l.5-.4zm16 16.3c0 .1 0 .2-.2.2h-13c-.1 0-.2 0-.2-.2v-.9c0-.1 0-.2.2-.2H522v-5.2h-4.2s-.1 0-.1-.2v-.9c0-.1 0-.2.1-.2h4.2V225h-4.7c-.1 0-.2 0-.2-.2v-.8c0-.1 0-.2.2-.2h11.3c.1 0 .2 0 .2.2v.9c0 .1 0 .2-.2.2h-5.3v4.2h4.6c.2 0 .2 0 .2.2v.9c0 .1 0 .2-.2.2h-4.6v5.2h6c.1 0 .2 0 .2.2v.5zm-8.6-16.8c.2-.2.2-.2.3-.1 1 .6 2.2 1.4 3.2 2.3.1.1.1.2-.1.3l-.4.5c-.2.2-.2.2-.4.1-1-1-2.1-1.8-3.2-2.4-.1-.1-.1-.1.1-.3l.5-.4zM529.4 247.2c0 .1 0 .2-.2.2h-17.4c-.1 0-.2 0-.2-.2v-.9c0-.1 0-.2.2-.2H517.1c-.3-1-.6-1.7-1.1-2.6-.1-.1 0-.1.2-.2l.6-.2c.2-.1.2 0 .3.1.5.8.9 1.8 1.2 2.9h3.8c.4-.8.7-1.6.9-2.2.1-.3.2-.6.2-1 .4.1.9.2 1.2.3.2.1.2.1.2.2s-.1.2-.1.3c-.1.1-.2.2-.3.4-.3.6-.6 1.3-.9 1.9H529.1c.1 0 .2 0 .2.2v1zm-1.3-4.7c0 .2 0 .2-.2.2H513c-.1 0-.2 0-.2-.2v-.8c0-.1 0-.2.2-.2H519.7v-.1c0-1 0-1.5-.1-2 .5 0 .9 0 1.3.1.2 0 .2.1.2.2s0 .2-.1.4-.1.5-.1 1.4v.1h7c.1 0 .2 0 .2.2v.7zm-2 11.1v3.7c0 .1 0 .2-.2.2h-.9c-.1 0-.2 0-.2-.2v-.9h-8.7v1c0 .1 0 .1-.2.1h-.9c-.1 0-.2 0-.2-.1V251.7v-2.5c0-.1 0-.2.2-.2h10.8c.1 0 .2 0 .2.2v4.4zm-1.2-3.5h-8.7v2h8.7v-2zm0 3.1h-8.7v2.2h8.7v-2.2zM520.4 262.4c0 .1 0 .2-.2.2h-3c.4.6.6 1.2.9 2 0 .1 0 .2-.2.2l-.7.2c-.3.1-.3.1-.3-.1-.2-.8-.6-1.6-.9-2.3h-1.6c-.5.8-1.2 1.6-1.8 2.3-.1.1-.2.2-.3.2-.1 0-.1-.1-.3-.2-.2-.2-.4-.4-.6-.5 1.3-1.2 2.2-2.5 2.8-3.9.2-.4.2-.7.3-1 .5.1.9.2 1.2.3.1 0 .2.1.2.2s-.1.2-.2.2c-.1.1-.2.2-.3.5-.1.3-.3.6-.4.8H520.3c.1 0 .2 0 .2.2v.7zm-5.8 9.3v-2.5c-.6.8-1.4 1.6-2.1 2.2-.1.1-.2.2-.3.2-.1 0-.2-.1-.3-.3-.2-.3-.3-.5-.5-.6 1.9-1.5 3.2-3.1 4.1-4.8.2-.4.4-.8.5-1.1.4.2.8.3 1.1.5l.2.2c0 .1 0 .2-.2.2-.1.1-.3.3-.5.6-.2.4-.5.9-.8 1.4v9.6c0 .1 0 .1-.1.1h-1c-.1 0-.2 0-.2-.1v-5.6zm14.8-3.2c0 .1 0 .2-.2.2H526.1v6.9c0 .7-.1 1.2-.6 1.4-.5.3-1.2.3-2.8.3-.4 0-.4 0-.5-.4-.1-.4-.2-.7-.4-.9.6.1 1.1.1 1.8.1 1.1 0 1.3-.1 1.3-.8v-6.6h-7.7c-.1 0-.2 0-.2-.2v-.9c0-.1 0-.2.2-.2h7.7v-.1c0-1.2 0-1.8-.1-2.4.5 0 .9.1 1.3.1.1 0 .3.1.3.2s-.1.2-.1.4c-.1.2-.1.6-.1 1.7v.1H529.3c.1 0 .2 0 .2.2v.9zm-10.1 1.6c.2-.1.2-.1.3 0 1 .9 1.7 1.8 2.4 3 .1.1 0 .2-.1.3l-.5.4c-.2.2-.3.2-.4 0-.7-1.2-1.4-2.2-2.3-3-.1-.1-.1-.2.1-.3l.5-.4zm10-7.7c0 .1 0 .2-.1.2h-3.9c.4.5.7 1.1.9 1.8 0 .1 0 .2-.2.2l-.6.2c-.3.1-.3.1-.4-.1-.2-.7-.6-1.4-1-2.1h-1.7c-.4.7-.9 1.5-1.5 2.2-.1.1-.2.2-.3.2s-.2-.1-.3-.2c-.2-.2-.4-.3-.7-.4 1.2-1.3 1.9-2.5 2.4-3.9.1-.2.2-.6.2-.9.4.1.9.2 1.2.3.1 0 .2.1.2.2s-.1.2-.2.3c-.1.1-.1.2-.3.5-.1.3-.2.5-.3.8h6.3s.1 0 .1.2v.5zM518.8 288.3c0 .1 0 .2-.2.2h-3.7l-.6 2.1h3.3c.1 0 .2 0 .2.2-.1.3-.1.7-.1 1-.2 2.1-.4 3.5-.8 4.5-.3.6-.8.9-1.6.9-.3 0-.7 0-1-.1-.3 0-.3-.1-.4-.4-.1-.3-.2-.7-.3-.8.6.1 1 .2 1.4.2.5 0 .8-.1.9-.5.3-.9.5-2.4.6-4h-2.7l-.3.8c-.1.1-.1.1-.3.1l-.6-.1c-.2-.1-.2-.1-.2-.2.5-1.2.9-2.5 1.2-3.7h-2c-.1 0-.1 0-.1-.2v-.8c0-.1 0-.2.1-.2H518.4c.1 0 .2 0 .2.2v.8zm-.9-4.4v1.6c0 .1 0 .2-.2.2h-5.1c-.1 0-.2 0-.2-.2v-3.3-1.6c0-.1 0-.2.2-.2H517.7c.1 0 .2 0 .2.2v3.3zm-1.1-2.4h-3.2v3.2h3.2v-3.2zm11.3 2c.2 0 .3 0 .3-.1s.2-.1.2-.1c.2 0 .3.1.6.3s.4.4.4.5c0 .1-.1.2-.2.2-.1.1-.2.2-.3.5-.2.4-.5.9-.9 1.6-.1.2-.2.2-.2.2-.1 0-.1 0-.3-.1-.2-.1-.5-.2-.7-.3.5-.6.8-1.2 1.1-1.7h-7.5v2.3c0 1.6 0 3.5-.2 5.2-.2 1.7-.7 3.5-1.7 5.1l-.2.2c-.1 0-.1-.1-.3-.2-.2-.2-.5-.4-.7-.5 1.2-1.5 1.6-3.2 1.8-5 .2-1.5.2-3.2.2-4.9v-3.1c0-.1 0-.2.1-.2h3.7v-2.6c0-.6 0-1.1-.1-1.5.5 0 .8 0 1.2.1.1 0 .2.1.2.2s-.1.2-.1.3c-.1.1-.1.5-.1 1v.1h3.5c.1 0 .2 0 .2.2v.7c0 .2 0 .2-.2.2h-3.5v1.4h3.7zm-4.4 8.2c-.1.2-.1.5-.1 1-.2 2-.8 3.5-2.9 4.7-.1.1-.2.1-.3.1-.1 0-.2-.1-.3-.2-.2-.2-.4-.4-.6-.5 2.1-.9 2.8-2.1 2.9-4.1v-1.6c.4 0 .8.1 1.1.1.2 0 .3.1.3.2 0 0 0 .2-.1.3zm.3-3.4c0 .5.1.7.3.8.2.1.7.1 1.4.1.8 0 1.4-.1 1.7-.3.3-.2.4-.7.4-1.6.2.2.5.3.7.4.3.1.3.1.3.4-.1.8-.3 1.2-.6 1.5-.3.3-1.2.5-2.4.5-1 0-1.8-.1-2.1-.2-.3-.2-.6-.4-.6-1.3v-1l-1.7.2c-.1 0-.1 0-.2-.1l-.1-.7c0-.1 0-.1.1-.1s.5 0 1.8-.2v-.4c0-.6-.1-1.2-.1-1.4.4 0 .8.1 1.1.1.1 0 .2.1.2.2s0 .1-.1.2-.1.3-.1.9v.2l.8-.1c1.3-.1 1.7-.2 1.8-.3.1 0 .1 0 .1.1l.1.7c0 .1 0 .2-.1.2l-1.8.2-.9.1v.9zm2.2 7.2c0 .4 0 .5.2.6.2.1.4.1.9.1.7 0 .9-.1 1.1-.4.2-.3.3-.9.3-2.1.2.1.4.2.7.4.3.1.3.1.3.5-.1 1.3-.2 1.8-.5 2.1-.3.3-.5.6-1.9.6-.8 0-1.3 0-1.7-.2-.3-.2-.5-.5-.5-1.3v-2.4c0-1 0-1.7-.1-2.2.4 0 .8.1 1.2.1.1 0 .2.1.2.2s-.1.2-.1.4c-.1.2-.1.4-.1 1.5v2.1z"/></g><g><path fill="#1197CC" d="M679.5 83v175"/><path fill="none" stroke="#29ABE2" stroke-width="2" stroke-miterlimit="10" d="M679.5 83v67M679.5 190v68"/><path fill="#29ABE2" d="M671.3 89.1l1.4 1.4 6.7-7.2 6.8 7.2 1.4-1.4-8.2-8.8M671.3 250.9l1.4-1.4 6.7 7.2 6.8-7.2 1.4 1.4-8.2 8.8"/><g><path d="M660.4 174.5c.7.4 2.2 1.1 3.8 1.1 3 0 3.9-1.9 3.9-3.3 0-2.4-2.2-3.4-4.5-3.4h-1.3v-1.7h1.3c1.7 0 3.9-.9 3.9-2.9 0-1.3-.9-2.5-3-2.5-1.4 0-2.7.6-3.5 1.1l-.6-1.7c.9-.6 2.7-1.3 4.5-1.3 3.4 0 5 2 5 4 0 1.7-1.1 3.2-3.2 4v.1c2.1.4 3.9 2 3.9 4.3 0 2.7-2.2 5.1-6.3 5.1-1.9 0-3.7-.6-4.5-1.1l.6-1.8zM684.8 160.3v1.5l-7.5 15.3h-2.4l7.5-14.9v-.1h-8.5v-1.9h10.9zM697.6 162.2H691l-.7 4.3c.4-.1.8-.1 1.4-.1 1.3 0 2.7.3 3.7.9 1.4.8 2.5 2.2 2.5 4.3 0 3.3-2.7 5.8-6.5 5.8-1.9 0-3.5-.5-4.3-1l.6-1.7c.7.4 2.1.9 3.7.9 2.2 0 4.1-1.4 4.1-3.7 0-2.2-1.5-3.7-5-3.7-1 0-1.8.1-2.4.2l1.1-8.1h8.3v1.9z"/></g><g fill="#6D6D6D"><path d="M688.2 407.8c0 .1 0 .2-.2.2h-8v6.9c0 .1 0 .2-.2.2h-1.1c-.1 0-.2 0-.2-.2V408h-7.9c-.1 0-.2 0-.2-.2v-.9c0-.1 0-.2.2-.2h7.9v-7.3H671.6c-.1 0-.2 0-.2-.2v-.9c0-.1 0-.2.2-.2H687c.1 0 .2 0 .2.2v.9c0 .1 0 .2-.2.2h-7v7.3h8c.1 0 .2 0 .2.2v.9zm-14.5-7.3c.2-.1.2-.1.3 0 .9 1.3 1.7 2.8 2.3 4.4 0 .1 0 .2-.2.2l-.7.3c-.3.1-.3.1-.4-.1-.6-1.6-1.2-2.9-2.2-4.3-.1-.1-.1-.2.2-.3l.7-.2zm12.2.8c-.1.1-.2.2-.4.5-.6 1.2-1.3 2.4-2.2 3.6-.1.2-.2.3-.3.3-.1 0-.1-.1-.3-.2-.2-.2-.4-.3-.7-.3 1-1.3 1.8-2.6 2.4-3.9.1-.3.2-.6.3-1 .4.1.9.3 1.2.5.1.1.2.1.2.2s-.1.2-.2.3zM688 433.7c0 .1 0 .2-.2.2h-16.7c-.1 0-.2 0-.2-.2v-1c0-.1 0-.2.2-.2h7.1v-12.2c0-1.5 0-2.1-.1-2.9.5 0 1 .1 1.4.1.1 0 .3.1.3.2s0 .2-.1.4-.1.7-.1 1.9v3.8h6.6c.1 0 .2 0 .2.2v1c0 .1 0 .2-.2.2h-6.6v7.5h8.3c.1 0 .2 0 .2.2v.8zM688.1 446.8c0 .1 0 .2-.2.2H679c-.8 2.1-1.7 4-2.7 5.7 2.7-.3 5.5-.6 7.7-1-.6-.8-1.3-1.6-2-2.3-.1-.1-.1-.2.1-.3l.5-.3c.2-.1.2-.1.3 0 1.7 1.6 2.9 3.3 4.1 5.1.1.1.1.2-.1.3l-.6.4c-.3.2-.3.2-.4 0-.4-.6-.7-1.2-1.2-1.8-3.4.6-7.3 1.1-10.5 1.4-1 .1-1.4.2-1.5.3-.1.1-.2.1-.3.1s-.2-.1-.2-.3c-.1-.4-.2-.8-.3-1.3h2l.9-.1c1.1-1.9 2-3.7 2.8-5.8H671c-.1 0-.2 0-.2-.2v-.9c0-.1 0-.2.2-.2H678.7v-3.7h-5.8c-.1 0-.1 0-.1-.2v-.9c0-.1 0-.2.1-.2h5.8v-1.3c0-1.4 0-1.9-.1-2.5.6 0 1 0 1.4.1.1 0 .2.1.2.2s0 .2-.1.4-.1.7-.1 1.8v1.4h6.1s.1 0 .1.2v.9c0 .1 0 .2-.1.2H680v3.7h7.9c.1 0 .2 0 .2.2v.7zM679 463.8v1c0 .1 0 .2-.2.2h-6c-.2.9-.6 1.7-1.3 2.4-.1.1-.2.2-.3.2-.1 0-.1 0-.3-.1-.2-.2-.4-.3-.6-.4 1.3-1.1 1.6-2.4 1.6-4.2v-.7c0-.1 0-.2.2-.2H678.9c.1 0 .2 0 .2.2v1.6zm5.6 8.8c1.2-.1 2.5-.2 3.7-.3-.1.1-.1.3-.1.5-.1.4-.1.4-.5.4-.8.1-1.9.2-3.1.2v1.5c0 .1 0 .2-.2.2h-.9c-.2 0-.2 0-.2-.2v-1.4c-1.4.1-3 .1-4.4.2-2.9.1-4.8.2-7.1.2-.4 0-.7 0-.9.1-.1.1-.2.1-.3.1-.1 0-.1-.1-.2-.2-.1-.3-.2-.6-.2-1 .5 0 1.1.1 2.2.1h1.7v-4.7h-2.3c-.1 0-.2 0-.2-.2v-.6c0-.1 0-.2.2-.2H687.4c.1 0 .2 0 .2.2v.6c0 .1 0 .2-.2.2H684.5v4.3zm-4.8-13.7c0 .1 0 .2-.2.2h-3.8v1.1h3.1c.1 0 .2 0 .2.2v.6c0 .1 0 .2-.2.2H671.8c-.2 0-.2 0-.2-.2v-.6c0-.1 0-.2.2-.2h3v-1.1h-3.9c-.1 0-.2 0-.2-.2v-.6c0-.1 0-.1.2-.1h3.9v-.1c0-.4 0-.9-.1-1.3.5 0 .8.1 1.1.1.1 0 .2.1.2.2s0 .1-.1.2c-.1.2-.1.3-.1.8h3.7c.1 0 .2 0 .2.2v.6zm-4.7 3.8H673v.1c0 .5 0 .9-.1 1.3h2.2v-1.4zm8.4 5.5h-8v.9h8v-.9zm0 1.7h-8v1h8v-1zm0 1.8h-8v1.2h2.2c1.9 0 3.9-.1 5.9-.2v-1zm-5.4-9H676v1.5h2.1v-1.5zm7.4-.9c.2 0 .3 0 .4-.1h.2c.1 0 .2 0 .5.3s.4.4.4.5c0 .1 0 .2-.2.2l-.6.6c-.5.6-1.1 1.1-1.7 1.6 1.2.6 2.6.9 4.1 1.1-.2.2-.3.4-.4.6-.2.4-.2.4-.6.3-1.5-.2-2.9-.7-4.1-1.4-1.1.6-2.4 1-4 1.4-.3.1-.4.1-.5-.2-.1-.3-.2-.4-.4-.6 1.5-.2 2.9-.6 4-1.2-.8-.6-1.5-1.3-1.9-2.2h-.9c-.2 0-.2 0-.2-.2v-.6c0-.1 0-.2.2-.2h5.7zm-.1-2.4c0 .2 0 .4.2.5.1.1.4.1.8.1.5 0 .7-.1.9-.3.1-.2.1-.5.2-1.2.2.2.4.3.7.4.3.1.3.1.3.5-.1.8-.3 1-.5 1.2-.2.2-.8.4-1.6.4-.6 0-1.1 0-1.3-.1-.4-.1-.6-.4-.6-1v-1.3H682c0 1.6-.4 2.4-1.6 3-.3.1-.3.1-.5-.2-.2-.2-.3-.4-.5-.5 1.4-.4 1.6-1 1.6-2.3v-.7c0-.1 0-.2.2-.2h4.2s.2 0 .2.2v1.5zm-3.7 3.2c.5.7 1.1 1.2 1.9 1.7.8-.5 1.4-1.1 1.9-1.7h-3.8z"/></g><g><path fill="#DB1976" d="M679.5 263v115"/><path fill="none" stroke="#29ABE2" stroke-width="2" stroke-miterlimit="10" d="M679.5 263v42M679.5 335v43"/><path fill="#29ABE2" d="M671.3 269.1l1.4 1.4 6.8-7.2 6.7 7.2 1.4-1.4-8.1-8.8M671.3 370.9l1.4-1.4 6.8 7.2 6.7-7.2 1.4 1.4-8.1 8.8"/><g><path d="M662.4 327.7v-1.4l1.7-1.7c4-4 5.8-6.2 5.8-8.7 0-1.7-.8-3.2-3.1-3.2-1.4 0-2.6.8-3.3 1.4l-.7-1.6c1.1-1 2.6-1.7 4.4-1.7 3.4 0 4.8 2.5 4.8 4.8 0 3.1-2.1 5.5-5.4 8.9l-1.2 1.2v.1h7v1.9h-10zM684 313h-6l-.6 4.3c.4-.1.7-.1 1.3-.1 1.2 0 2.4.3 3.4.9 1.2.7 2.2 2.2 2.2 4.3 0 3.2-2.4 5.7-5.8 5.7-1.7 0-3.1-.5-3.9-1l.5-1.7c.6.4 1.9.9 3.3.9 2 0 3.7-1.4 3.7-3.6 0-2.1-1.4-3.7-4.5-3.7-.9 0-1.6.1-2.2.2l1-8h7.5v1.8zM697.4 319.2c0 5.6-2 8.8-5.4 8.8-3 0-5.1-3-5.2-8.5 0-5.6 2.3-8.6 5.4-8.6 3.3-.1 5.2 3 5.2 8.3zm-8.5.3c0 4.3 1.2 6.8 3.2 6.8 2.2 0 3.2-2.7 3.2-6.9 0-4.1-1-6.8-3.2-6.8-1.8 0-3.2 2.4-3.2 6.9z"/></g></g></g><g><path fill="#DB1976" d="M559.5 83v115"/><path fill="none" stroke="#29ABE2" stroke-width="2" stroke-miterlimit="10" d="M559.5 83v42M559.5 155v43"/><path fill="#29ABE2" d="M551.3 89.1l1.4 1.4 6.8-7.2 6.7 7.2 1.4-1.4-8.1-8.8M551.3 190.9l1.4-1.4 6.8 7.2 6.7-7.2 1.4 1.4-8.1 8.8"/><path d="M542.4 147.7v-1.4l1.7-1.7c4-4 5.8-6.2 5.8-8.7 0-1.7-.8-3.2-3.1-3.2-1.4 0-2.6.8-3.3 1.4l-.7-1.6c1.1-1 2.6-1.7 4.4-1.7 3.4 0 4.8 2.5 4.8 4.8 0 3.1-2.1 5.5-5.4 8.9l-1.2 1.2v.1h7v1.9h-10zM564 133h-6l-.6 4.3c.4-.1.7-.1 1.3-.1 1.2 0 2.4.3 3.4.9 1.2.7 2.2 2.2 2.2 4.3 0 3.2-2.4 5.7-5.8 5.7-1.7 0-3.1-.5-3.9-1l.5-1.7c.6.4 1.9.9 3.3.9 2 0 3.7-1.4 3.7-3.6 0-2.1-1.4-3.7-4.5-3.7-.9 0-1.6.1-2.2.2l1-8h7.5v1.8zM577.4 139.2c0 5.6-2 8.8-5.4 8.8-3 0-5.1-3-5.2-8.5 0-5.6 2.3-8.6 5.4-8.6 3.3-.1 5.2 3 5.2 8.3zm-8.5.3c0 4.3 1.2 6.8 3.2 6.8 2.2 0 3.2-2.7 3.2-6.9 0-4.1-1-6.8-3.2-6.8-1.8 0-3.2 2.4-3.2 6.9z"/><path fill="#DB1976" d="M559.5 323v115"/><path fill="none" stroke="#29ABE2" stroke-width="2" stroke-miterlimit="10" d="M559.5 323v42M559.5 395v43"/><path fill="#29ABE2" d="M551.3 329.1l1.4 1.4 6.8-7.2 6.7 7.2 1.4-1.4-8.1-8.8M551.3 430.9l1.4-1.4 6.8 7.2 6.7-7.2 1.4 1.4-8.1 8.8"/><path d="M542.4 387.7v-1.4l1.7-1.7c4-4 5.8-6.2 5.8-8.7 0-1.7-.8-3.2-3.1-3.2-1.4 0-2.6.8-3.3 1.4l-.7-1.6c1.1-1 2.6-1.7 4.4-1.7 3.4 0 4.8 2.5 4.8 4.8 0 3.1-2.1 5.5-5.4 8.9l-1.2 1.2v.1h7v1.9h-10zM564 373h-6l-.6 4.3c.4-.1.7-.1 1.3-.1 1.2 0 2.4.3 3.4.9 1.2.7 2.2 2.2 2.2 4.3 0 3.2-2.4 5.7-5.8 5.7-1.7 0-3.1-.5-3.9-1l.5-1.7c.6.4 1.9.9 3.3.9 2 0 3.7-1.4 3.7-3.6 0-2.1-1.4-3.7-4.5-3.7-.9 0-1.6.1-2.2.2l1-8h7.5v1.8zM577.4 379.2c0 5.6-2 8.8-5.4 8.8-3 0-5.1-3-5.2-8.5 0-5.6 2.3-8.6 5.4-8.6 3.3-.1 5.2 3 5.2 8.3zm-8.5.3c0 4.3 1.2 6.8 3.2 6.8 2.2 0 3.2-2.7 3.2-6.9 0-4.1-1-6.8-3.2-6.8-1.8 0-3.2 2.4-3.2 6.9z"/><path fill="#DB1976" d="M559.5 203v115"/><path fill="none" stroke="#29ABE2" stroke-width="2" stroke-miterlimit="10" d="M559.5 203v42M559.5 275v43"/><path fill="#29ABE2" d="M551.3 209.1l1.4 1.4 6.8-7.2 6.7 7.2 1.4-1.4-8.1-8.8M551.3 310.9l1.4-1.4 6.8 7.2 6.7-7.2 1.4 1.4-8.1 8.8"/><g><path d="M542.4 267.7v-1.4l1.7-1.7c4-4 5.8-6.2 5.8-8.7 0-1.7-.8-3.2-3.1-3.2-1.4 0-2.6.8-3.3 1.4l-.7-1.6c1.1-1 2.6-1.7 4.4-1.7 3.4 0 4.8 2.5 4.8 4.8 0 3.1-2.1 5.5-5.4 8.9l-1.2 1.2v.1h7v1.9h-10zM564 253h-6l-.6 4.3c.4-.1.7-.1 1.3-.1 1.2 0 2.4.3 3.4.9 1.2.7 2.2 2.2 2.2 4.3 0 3.2-2.4 5.7-5.8 5.7-1.7 0-3.1-.5-3.9-1l.5-1.7c.6.4 1.9.9 3.3.9 2 0 3.7-1.4 3.7-3.6 0-2.1-1.4-3.7-4.5-3.7-.9 0-1.6.1-2.2.2l1-8h7.5v1.8zM577.4 259.2c0 5.6-2 8.8-5.4 8.8-3 0-5.1-3-5.2-8.5 0-5.6 2.3-8.6 5.4-8.6 3.3-.1 5.2 3 5.2 8.3zm-8.5.3c0 4.3 1.2 6.8 3.2 6.8 2.2 0 3.2-2.7 3.2-6.9 0-4.1-1-6.8-3.2-6.8-1.8 0-3.2 2.4-3.2 6.9z"/></g><g fill="#6D6D6D"><path d="M512.3 225c.1-.2.2-.2.3-.1.9.5 1.9 1.2 2.8 2.1.1.1.1.1-.1.3l-.4.6c-.1.2-.2.2-.3.1-.9-.9-1.7-1.6-2.7-2.2-.1-.1-.1-.1 0-.3l.4-.5zm1.5 11.1c-.2.4-.4.7-.4.8 0 .1-.1.2-.2.2s-.1 0-.3-.1c-.3-.2-.6-.5-.9-.7.4-.4.7-.8 1.1-1.6.7-1.3 1.3-2.5 2.1-4.4.1.2.3.4.6.6.3.2.3.2.2.6-.7 1.7-1.4 3.1-2.2 4.6zm-.3-15.9c.1-.2.2-.2.3-.1.9.6 1.9 1.4 2.7 2.2.1.1.1.1-.1.3l-.4.5c-.1.2-.2.2-.3.1-.9-.9-1.7-1.6-2.7-2.3-.1-.1-.1-.1 0-.3l.5-.4zm16 16.3c0 .1 0 .2-.2.2h-13c-.1 0-.2 0-.2-.2v-.9c0-.1 0-.2.2-.2H522v-5.2h-4.2s-.1 0-.1-.2v-.9c0-.1 0-.2.1-.2h4.2V225h-4.7c-.1 0-.2 0-.2-.2v-.8c0-.1 0-.2.2-.2h11.3c.1 0 .2 0 .2.2v.9c0 .1 0 .2-.2.2h-5.3v4.2h4.6c.2 0 .2 0 .2.2v.9c0 .1 0 .2-.2.2h-4.6v5.2h6c.1 0 .2 0 .2.2v.5zm-8.6-16.8c.2-.2.2-.2.3-.1 1 .6 2.2 1.4 3.2 2.3.1.1.1.2-.1.3l-.4.5c-.2.2-.2.2-.4.1-1-1-2.1-1.8-3.2-2.4-.1-.1-.1-.1.1-.3l.5-.4zM529.4 247.2c0 .1 0 .2-.2.2h-17.4c-.1 0-.2 0-.2-.2v-.9c0-.1 0-.2.2-.2H517.1c-.3-1-.6-1.7-1.1-2.6-.1-.1 0-.1.2-.2l.6-.2c.2-.1.2 0 .3.1.5.8.9 1.8 1.2 2.9h3.8c.4-.8.7-1.6.9-2.2.1-.3.2-.6.2-1 .4.1.9.2 1.2.3.2.1.2.1.2.2s-.1.2-.1.3c-.1.1-.2.2-.3.4-.3.6-.6 1.3-.9 1.9H529.1c.1 0 .2 0 .2.2v1zm-1.3-4.7c0 .2 0 .2-.2.2H513c-.1 0-.2 0-.2-.2v-.8c0-.1 0-.2.2-.2H519.7v-.1c0-1 0-1.5-.1-2 .5 0 .9 0 1.3.1.2 0 .2.1.2.2s0 .2-.1.4-.1.5-.1 1.4v.1h7c.1 0 .2 0 .2.2v.7zm-2 11.1v3.7c0 .1 0 .2-.2.2h-.9c-.1 0-.2 0-.2-.2v-.9h-8.7v1c0 .1 0 .1-.2.1h-.9c-.1 0-.2 0-.2-.1V251.7v-2.5c0-.1 0-.2.2-.2h10.8c.1 0 .2 0 .2.2v4.4zm-1.2-3.5h-8.7v2h8.7v-2zm0 3.1h-8.7v2.2h8.7v-2.2zM520.4 262.4c0 .1 0 .2-.2.2h-3c.4.6.6 1.2.9 2 0 .1 0 .2-.2.2l-.7.2c-.3.1-.3.1-.3-.1-.2-.8-.6-1.6-.9-2.3h-1.6c-.5.8-1.2 1.6-1.8 2.3-.1.1-.2.2-.3.2-.1 0-.1-.1-.3-.2-.2-.2-.4-.4-.6-.5 1.3-1.2 2.2-2.5 2.8-3.9.2-.4.2-.7.3-1 .5.1.9.2 1.2.3.1 0 .2.1.2.2s-.1.2-.2.2c-.1.1-.2.2-.3.5-.1.3-.3.6-.4.8H520.3c.1 0 .2 0 .2.2v.7zm-5.8 9.3v-2.5c-.6.8-1.4 1.6-2.1 2.2-.1.1-.2.2-.3.2-.1 0-.2-.1-.3-.3-.2-.3-.3-.5-.5-.6 1.9-1.5 3.2-3.1 4.1-4.8.2-.4.4-.8.5-1.1.4.2.8.3 1.1.5l.2.2c0 .1 0 .2-.2.2-.1.1-.3.3-.5.6-.2.4-.5.9-.8 1.4v9.6c0 .1 0 .1-.1.1h-1c-.1 0-.2 0-.2-.1v-5.6zm14.8-3.2c0 .1 0 .2-.2.2H526.1v6.9c0 .7-.1 1.2-.6 1.4-.5.3-1.2.3-2.8.3-.4 0-.4 0-.5-.4-.1-.4-.2-.7-.4-.9.6.1 1.1.1 1.8.1 1.1 0 1.3-.1 1.3-.8v-6.6h-7.7c-.1 0-.2 0-.2-.2v-.9c0-.1 0-.2.2-.2h7.7v-.1c0-1.2 0-1.8-.1-2.4.5 0 .9.1 1.3.1.1 0 .3.1.3.2s-.1.2-.1.4c-.1.2-.1.6-.1 1.7v.1H529.3c.1 0 .2 0 .2.2v.9zm-10.1 1.6c.2-.1.2-.1.3 0 1 .9 1.7 1.8 2.4 3 .1.1 0 .2-.1.3l-.5.4c-.2.2-.3.2-.4 0-.7-1.2-1.4-2.2-2.3-3-.1-.1-.1-.2.1-.3l.5-.4zm10-7.7c0 .1 0 .2-.1.2h-3.9c.4.5.7 1.1.9 1.8 0 .1 0 .2-.2.2l-.6.2c-.3.1-.3.1-.4-.1-.2-.7-.6-1.4-1-2.1h-1.7c-.4.7-.9 1.5-1.5 2.2-.1.1-.2.2-.3.2s-.2-.1-.3-.2c-.2-.2-.4-.3-.7-.4 1.2-1.3 1.9-2.5 2.4-3.9.1-.2.2-.6.2-.9.4.1.9.2 1.2.3.1 0 .2.1.2.2s-.1.2-.2.3c-.1.1-.1.2-.3.5-.1.3-.2.5-.3.8h6.3s.1 0 .1.2v.5zM518.8 288.3c0 .1 0 .2-.2.2h-3.7l-.6 2.1h3.3c.1 0 .2 0 .2.2-.1.3-.1.7-.1 1-.2 2.1-.4 3.5-.8 4.5-.3.6-.8.9-1.6.9-.3 0-.7 0-1-.1-.3 0-.3-.1-.4-.4-.1-.3-.2-.7-.3-.8.6.1 1 .2 1.4.2.5 0 .8-.1.9-.5.3-.9.5-2.4.6-4h-2.7l-.3.8c-.1.1-.1.1-.3.1l-.6-.1c-.2-.1-.2-.1-.2-.2.5-1.2.9-2.5 1.2-3.7h-2c-.1 0-.1 0-.1-.2v-.8c0-.1 0-.2.1-.2H518.4c.1 0 .2 0 .2.2v.8zm-.9-4.4v1.6c0 .1 0 .2-.2.2h-5.1c-.1 0-.2 0-.2-.2v-3.3-1.6c0-.1 0-.2.2-.2H517.7c.1 0 .2 0 .2.2v3.3zm-1.1-2.4h-3.2v3.2h3.2v-3.2zm11.3 2c.2 0 .3 0 .3-.1s.2-.1.2-.1c.2 0 .3.1.6.3s.4.4.4.5c0 .1-.1.2-.2.2-.1.1-.2.2-.3.5-.2.4-.5.9-.9 1.6-.1.2-.2.2-.2.2-.1 0-.1 0-.3-.1-.2-.1-.5-.2-.7-.3.5-.6.8-1.2 1.1-1.7h-7.5v2.3c0 1.6 0 3.5-.2 5.2-.2 1.7-.7 3.5-1.7 5.1l-.2.2c-.1 0-.1-.1-.3-.2-.2-.2-.5-.4-.7-.5 1.2-1.5 1.6-3.2 1.8-5 .2-1.5.2-3.2.2-4.9v-3.1c0-.1 0-.2.1-.2h3.7v-2.6c0-.6 0-1.1-.1-1.5.5 0 .8 0 1.2.1.1 0 .2.1.2.2s-.1.2-.1.3c-.1.1-.1.5-.1 1v.1h3.5c.1 0 .2 0 .2.2v.7c0 .2 0 .2-.2.2h-3.5v1.4h3.7zm-4.4 8.2c-.1.2-.1.5-.1 1-.2 2-.8 3.5-2.9 4.7-.1.1-.2.1-.3.1-.1 0-.2-.1-.3-.2-.2-.2-.4-.4-.6-.5 2.1-.9 2.8-2.1 2.9-4.1v-1.6c.4 0 .8.1 1.1.1.2 0 .3.1.3.2 0 0 0 .2-.1.3zm.3-3.4c0 .5.1.7.3.8.2.1.7.1 1.4.1.8 0 1.4-.1 1.7-.3.3-.2.4-.7.4-1.6.2.2.5.3.7.4.3.1.3.1.3.4-.1.8-.3 1.2-.6 1.5-.3.3-1.2.5-2.4.5-1 0-1.8-.1-2.1-.2-.3-.2-.6-.4-.6-1.3v-1l-1.7.2c-.1 0-.1 0-.2-.1l-.1-.7c0-.1 0-.1.1-.1s.5 0 1.8-.2v-.4c0-.6-.1-1.2-.1-1.4.4 0 .8.1 1.1.1.1 0 .2.1.2.2s0 .1-.1.2-.1.3-.1.9v.2l.8-.1c1.3-.1 1.7-.2 1.8-.3.1 0 .1 0 .1.1l.1.7c0 .1 0 .2-.1.2l-1.8.2-.9.1v.9zm2.2 7.2c0 .4 0 .5.2.6.2.1.4.1.9.1.7 0 .9-.1 1.1-.4.2-.3.3-.9.3-2.1.2.1.4.2.7.4.3.1.3.1.3.5-.1 1.3-.2 1.8-.5 2.1-.3.3-.5.6-1.9.6-.8 0-1.3 0-1.7-.2-.3-.2-.5-.5-.5-1.3v-2.4c0-1 0-1.7-.1-2.2.4 0 .8.1 1.2.1.1 0 .2.1.2.2s-.1.2-.1.4c-.1.2-.1.4-.1 1.5v2.1z"/></g></g></svg>