<svg id="Layer_1" xmlns="http://www.w3.org/2000/svg" viewBox="0 0 387.3 207.9"><style>.st0{fill:#231815;}</style><g id="XMLID_394_"><path id="XMLID_395_" class="st0" d="M55.5 35.9l-.2-.7h2.2l-.7-14 1.2.7.9-.6c.4-.4.8-.8 1.1-1.3l1.1.5c.2.1.3.2.3.4s-.2.4-.4.4l-.5.1-.9.6-1.5.6.1 3.5h.5l1.3-1.3 1.2 1.2c.1.1.2.2.2.4 0 .3-.2.5-.5.5h-2.6l.2 3.8h.3l1.3-1.3 1.2 1.2c.1.1.2.2.2.4s-.2.5-.5.5h-2.4l.2 3.9h3.4V19.8l1 .9h5.2l.5-.6 1 .7c.1 0 .1.1.1.3 0 .2-.2.4-.3.5-.1.1-.2.2-.2.4v13.2h3.2l.3-3.9h-2.3l-.2-.7H73l.3-3.8h-2.7l-.2-.8h2.9l.3-4h-2.9l-.1-.7h3.1l.6-.7.8.8c.2.1.3.3.3.5s-.1.3-.3.4c-.2.1-.3.2-.3.4l-.9 12.6 1.3-1.3 1.2 1.2c.1.1.1.2.1.4 0 .3-.2.5-.5.5H55.5zm6.8 1.1l1.1.6c.2.1.3.3.3.4 0 0 0 .3-.3.3h-.3c-.1 0-.2 0-.3.1-2 2.1-6 3.1-6.5 3.1-.1 0-.3 0-.3-.2 0-.1.1-.2.2-.2 2.8-.8 4.8-2.5 5.9-3.7l.2-.4zm.9-1.9h5.1V21.4h-5.1v13.7zm2.4-11.4l1.1-1.1 1 1c.1.1.1.2.1.4s-.2.5-.5.5h-3.4l-.2-.7h1.9zm-1.4 2.8l.5.4h2l.3-.5.6.5.1.3c-.1.2-.2.2-.3.4v5.3c0 .1-.1.2-.2.3-.5.1-.6.1-.6-.3v-1H65v.9c0 .1-.1.2-.2.2-.5.1-.6.1-.6-.3v-6.2zm.8 4.7h1.7v-3.6H65v3.6zm4.2 6.5c2 .6 4.8 2.3 4.8 3.1 0 .3-.2.6-.5.6-.2 0-.4-.1-.6-.3-1.5-1.3-3.3-2.5-5.3-3.4-.1 0-.2-.1-.2-.2s.1-.2.3-.2l1.5.4z"/><path id="XMLID_403_" class="st0" d="M92.9 26.5l1.3-.5.8 1.1c.1.1.1.2.1.3 0 .3-.3.3-.5.3H94c-1.3 1-2.6 1.8-4 2.4 0 .3 0 .5-.3.5-.2 0-.3.1-.3.3v2.2h6.7l1.4-1.3L99 33c.1.1.2.2.2.4 0 .3-.3.5-.5.5h-9.2v6.4c0 .3-.2.6-.5.9-.3.3-.9.5-1.7.6 0-.9-1-1.4-1.6-1.7-.2 0-.2-.1-.2-.2 0-.2.2-.2.3-.2l2.1.4h.4l.1-.3v-5.9h-9.5l-.2-.7h9.7v-3.4l1.1.1c1.4-.7 2.6-1.6 3.7-2.5h-11l-.3-.7h11zm-11.8-3.3l-.2 1.1c-.2.6-.7 2.2-1.6 2.2-.4 0-.6-.2-.6-.7 0-.1.2-.4.5-.6.8-.8 1.6-1.8 1.7-3.7 0-.1.1-.2.2-.2s.2.1.2.2v.9h7.1v-3.1l1.2.2c.3 0 .5.2.5.4s-.1.3-.3.4c-.2.1-.3.2-.3.4v1.7h7.7l.7-.8.8 1.1c.1.1.2.3.2.5s-.1.5-.4.5h-.4c-.2 0-.3 0-.4.1-.4.6-1.8 2.2-2.1 2.2-.1 0-.2-.1-.2-.2v-.1c.6-.8 1.1-1.6 1.4-2.4H81.1z"/><path id="XMLID_406_" class="st0" d="M106.6 27.5c-2.4 3.4-4.8 5.3-5 5.3-.1 0-.2-.1-.2-.2s0-.1.1-.2c1.9-1.8 3.5-3.9 4.8-6.1l1.5-2.9h-6.2l-.2-.7h6.7c.8-1.8.9-2.1 1-3l1.3.5c.3.1.4.2.4.4 0 .3-.1.3-.5.3-.1 0-.2 0-.2.1l-.8 1.7h9.6l1.4-1.2 1.5 1.1c.1.1.2.2.2.4 0 .3-.2.5-.5.5H109c-.5 1.1-1.2 2.1-1.8 3.1l.4.4h9.7l.5-.6.9.8c.2.1.3.3.3.5s-.1.3-.3.4c-.2.1-.3.2-.3.3v12c0 .7-.5 1.2-2.1 1.5l-.3-.7c-.1-.2-.7-.5-1.5-.7-.2 0-.2-.1-.2-.3 0-.1.1-.2.2-.2h.1c.8.1 1.4.2 1.8.2.5 0 .8 0 .8-.6v-3.8h-9.6v5.6c0 .3-.2.3-.9.5-.2 0-.2-.2-.2-.5V27.5zm1.1.1v3.1h9.6v-3.1h-9.6zm0 3.9v3.4h9.6v-3.4h-9.6z"/><path id="XMLID_410_" class="st0" d="M126 24l1.1 1h6.9v-3.5h-9.4l-.2-.7h17.7l1.4-1.3 1.5 1.2c.1.1.2.2.2.4 0 .3-.2.5-.5.5h-9.5V25h7.2l.5-.6.9.8c.2.1.3.3.3.5s-.1.4-.3.4c-.2.1-.3.2-.3.3v13.8c0 .5-.4 1.2-2.1 1.5l-.3-.6c-.1-.2-.7-.4-1.5-.7-.1 0-.2-.1-.2-.3 0-.1.1-.2.2-.2.7.1 1.2.1 1.6.1.8 0 1.1-.1 1.1-.6V25.7h-7.2V41c0 .3-.5.5-.9.5-.2 0-.3-.1-.3-.5V25.7H127v15.5c0 .3-.2.3-.9.5-.1 0-.2-.2-.2-.5V24zm5.3 4.4c.1.1.2.2.2.3 0 .2-.1.4-.4.4-.2 0-.3.1-.3.3.1 1 .4 1.9.7 2.7.2.6.8 2.2 2.1 3.2.2.3.2.3-.3.3-.3 0-.5.2-.6.5-.1.2-.2.3-.3.3 0 0-.6-.9-1-2l-.6-1.9c-.9 2.2-2.8 3.8-2.9 3.8-.1 0-.2-.1-.2-.2V36c1.6-1.7 2.6-4.9 2.6-5.6l-.2-1.4h-2.2l-.1-.7h2.2l.5-.6.8.7zm8.3-.1c.1.1.2.2.2.3 0 .2-.2.4-.4.4s-.3.1-.3.3c.1 1 .4 1.9.6 2.7.6 1.8 1.3 2.6 2 3.2.1.2.2.3-.3.3-.3 0-.5.2-.6.4-.1.2-.2.3-.3.3s-.7-1-1-2l-.5-1.7c-.8 2-2.9 3.8-3 3.8-.1 0-.2-.1-.2-.2V36c1.5-1.5 2.8-4.8 2.8-5.5l-.1-1.6h-2.3l-.2-.7h2.3l.5-.6.8.7z"/><path id="XMLID_414_" class="st0" d="M149.6 27.8c-.8 1.4-2.2 3.4-2.4 3.4-.1 0-.2 0-.2-.2 0-.1 0-.1.1-.2 2.7-4.1 3.9-8.8 3.9-11l1.3.2c.3 0 .5.2.5.4s-.1.3-.3.3c-.2 0-.3.1-.3.2-.4 1.8-1 3.5-1.7 5.2.6.2.7.2.7.4 0 .1-.1.2-.2.3-.2.1-.3.2-.3.3v14.5c0 .1-.1.2-.3.3-.7.2-.9.2-.9-.3V27.8zm4.8-8l1.2 1.1h10.3l.5-.8 1 .7c.1 0 .1.1.1.2 0 .3-.2.4-.3.5-.2.1-.2.2-.2.2V41c0 .1-.1.2-.3.3-.8.2-.9.2-.9-.3v-1.2h-10.3v1.5c0 .3-.3.4-.9.5-.2 0-.2-.2-.2-.5V19.8zm1.1 19.3h10.3V21.6h-10.3v17.5zm2.1-9.7l1 .7h1.6v-3.5h-3.5l-.2-.7h3.7v-3.3l1.2.2c.3 0 .5.2.5.4s-.1.3-.3.4c-.2.1-.3.2-.3.4v1.9h1.4l1.3-1.3 1.2 1.2c.1.1.2.2.2.4s-.2.5-.5.5h-3.5v3.5h1.4l.5-.8.9.7c.1.1.2.3.2.4 0 .1-.1.3-.3.3-.1.1-.2.2-.2.3v6c0 .3-.1.3-.8.6-.2 0-.3-.2-.3-.6v-1.2h-4v.9c0 .1-.1.2-.3.3-.8.2-.9.2-.9-.4v-7.3zm1.1 5.6h4v-4.2h-4V35z"/><path id="XMLID_420_" class="st0" d="M175.3 24l1.3-1.1 1.2 1c.1.1.2.2.2.4 0 .3-.2.5-.5.5h-7.2l-.2-.7h5.2zm-.8 6.7l1.3-1.1 1.2 1c.1.1.2.2.2.4 0 .3-.2.5-.5.5H171l-.2-.7h3.7zm-3.6 2.5l1 .7h3.6l.5-.8.9.7c.1.1.2.3.2.4 0 .1-.1.3-.3.3-.1 0-.2.1-.2.2v5.9c0 .3-.1.3-.8.6-.2 0-.3-.2-.3-.6v-1.2H172V41c0 .1-.1.2-.3.3-.8.2-.9.2-.9-.4v-7.7zm3.5-5.7l1.3-1.1 1.2 1c.1.1.2.2.2.4s-.1.5-.5.5h-5.4l-.2-.7h3.4zm.1-6.9l1.3-1.1 1.2 1c.1 0 .2.2.2.4 0 .3-.2.5-.5.5h-5.4l-.2-.7h3.4zm-2.4 18.1h3.5v-4.1h-3.5v4.1zm10.8 1.1c.2.1.3.2.3.4 0 .1-.1.4-.3.4 0 0-.4-.1-.5-.1-.8.3-1.7.6-2.7.8-1 .2-1.9.3-2.6.3-.2 0-.3 0-.3-.2 0-.1 0-.2.2-.2 1.7-.1 4.5-1.2 5.1-1.9l.8.5zm-3.7-15.7l-.2-.7h4.7V22h-5.5l-.2-.7h5.7v-1.9l1.2.2c.4 0 .5.2.5.4s-.1.3-.3.4c-.3.1-.3.2-.3 1h3.2l1.4-1.3 1.5 1.2c.1.1.2.2.2.3v.1c0 .2-.2.4-.5.4h-5.8v1.4h2.1l1.4-1.3 1.5 1.2c.1.1.2.2.2.4 0 .3-.2.5-.5.5h-10.3zm10 1.3l.5-.8.9.7c.1.1.2.3.2.4 0 .1-.1.3-.3.3-.1.1-.2.2-.2.3v4c0 .3-.1.3-.8.5-.2 0-.3-.2-.3-.5v-.8h-9.6c0 .7 0 .8-.3 1-.8.2-.9.2-.9-.4v-5.3l1 .7h9.8zm-9.6 3.3h2.4v-2.5h-2.4v2.5zm.4 1.5l1 .7h6.1l.6-.6 1 .7c.1 0 .1.1.1.2 0 0 0 .3-.4.4-.2 0-.3.2-.3.3V39c0 .3-.2.3-.8.5-.3 0-.3-.2-.3-1.2h-6c0 .7 0 .8-.3 1-.7.2-.9.2-.9-.4v-8.7zm1.1 1.4v1.5h6v-1.5h-6zm0 2.3v1.4h6v-1.4h-6zm0 2.1v1.5h6V36h-6zm2.1-7.3h2.4v-2.5h-2.4v2.5zm3.1 10.8c1.7 0 4.2.7 4.2 1.7 0 .3-.2.6-.5.6-.2 0-.4-.1-.6-.2-1.7-1-3.6-1.4-4.4-1.6-.1 0-.2-.1-.2-.2s.1-.2.2-.2h1.3zm.4-10.8h2.4v-2.5h-2.4v2.5z"/><path id="XMLID_438_" class="st0" d="M193.5 28.9l-.2-.7h11.9c.3-.6.7-1.3 1-2l.5-1.8.1-.7 1.3.4c.2.1.3.2.3.4 0 .3-.2.3-.3.3l-.3.1-1 2-.9 1.4h5l1.4-1.3 1.5 1.2c.1.1.2.2.2.4 0 .3-.2.5-.5.5h-20zm.9-6l-.2-.7h8.4v-2.7l1.2.2c.4 0 .5.2.5.4s-.1.3-.3.4-.3.2-.3.4v1.3h5.7l1.5-1.3 1.4 1.2c.1.1.2.2.2.4 0 .3-.2.5-.5.5h-17.6zm2.9 7.7l.9.6h9.7l.6-.7 1 .7c.1 0 .1.1.1.2s-.1.3-.4.4c-.2 0-.3.2-.3.3v9.1c0 .1-.1.3-.2.3-.7.2-.9.2-.9-.3v-1.1h-9.5v.9c0 .1-.1.2-.3.3-.8.2-.9.2-.9-.4V30.6zm2.2-3.3c-.2-1.2-.7-2.5-1.3-3-.1 0-.1-.1-.1-.2s.1-.2.2-.2c.5 0 2.3 2.3 2.3 3 0 .4-.1.9-.5.9-.3-.1-.5-.3-.6-.5zm-1 4.7v3.3h9.5V32h-9.5zm0 4v3.5h9.5V36h-9.5z"/><path id="XMLID_445_" class="st0" d="M224.6 34c1-.7 2.2-1.9 2.2-3.5-.3.1-.5.2-.8.2-1 0-1.6-.8-1.6-1.6 0-.9.5-1.7 1.6-1.7.9 0 2 .6 2 2.4 0 1.9-1.3 3.4-3.1 4.7l-.3-.5z"/><path id="XMLID_447_" class="st0" d="M257.3 39.9c0 .7-.6 1.2-2.1 1.5-.1-.8-.5-1.1-1.9-1.6-.2 0-.2-.1-.2-.2 0 0 0-.2.2-.2h.1c1 .2 1.8.3 2.2.3.2 0 .6 0 .6-.6v-6.6H250V41c0 .4-.8.5-.9.5-.2 0-.3-.1-.3-.5v-8.5h-6.3c0 1.1-.6 4-1.4 5.6-.5 1-1.6 3.2-2 3.2-.1 0-.2-.1-.2-.2V41c1.7-3 2.8-6.4 2.8-16v-5.2l1 .8h13.4l.5-.6.9.8c.2.1.3.3.3.5s-.1.3-.3.4c-.2.1-.3.2-.3.3v17.9zM248.8 27h-6c0 1.7-.1 3.4-.3 4.8h6.2V27zm0-5.6h-5.9v4.9h5.9v-4.9zm1.1 4.9h6.2v-4.9h-6.2v4.9zm0 5.5h6.2V27h-6.2v4.8z"/><path id="XMLID_453_" class="st0" d="M264.8 26.9c-1.2 2-2.7 3.7-2.9 3.7-.1 0-.2-.1-.2-.2s0-.1.1-.2c3-4 4.5-8.5 4.7-10.7l1.3.3c.3 0 .4.2.4.3 0 .1 0 .3-.3.3-.2 0-.3 0-.3.1-.5 1.7-1.2 3.4-2 5 .8.3.9.3.9.5 0 .1-.1.2-.2.3-.2.1-.3.2-.3.3v14.7c0 .1-.1.3-.3.3-.7.2-.9.2-.9-.3V26.9zm9.1-2.9h-2.2l-.7 1.6c-1.1 2.3-2.8 4.4-3.1 4.4-.1 0-.2-.1-.2-.2s0-.1.1-.2c2.7-3.7 3.7-8 3.9-9.5v-.6l1.3.2c.3 0 .4.2.4.4s-.1.3-.3.3c-.2 0-.3 0-.3.1-.3.9-.6 1.9-.9 2.9h8l1.4-1.3 1.4 1.1c.1.1.2.3.2.5s-.1.5-.5.5H275v4.6h4.1l1.4-1.2 1.4 1.1c.2.1.3.3.3.5 0 .3-.2.5-.5.5H275v4.5h4.1l1.4-1.3 1.4 1.1c.2.1.3.3.3.5 0 .3-.2.4-.5.4H275v6.7c0 .3-.8.4-.9.4-.2 0-.3-.1-.3-.4V24z"/><path id="XMLID_456_" class="st0" d="M291.1 38.8c1.5-.3 2.8-.6 4-1h.1c.3 0 .3.3.3.4 0 .1 0 .2-.2.2-3.7 1.5-7.8 2.2-9.1 2.3-.1 0-.2.1-.2.4 0 .2-.2.4-.3.4-.2 0-.4-.1-.4-.4l-.2-.9-.2-.9 1 .1c.9 0 2.8-.1 4.2-.4v-2.6h-4.6l-.2-.7h4.8v-2.5H287v1.1c0 .1-.1.2-.2.3-.8.2-.9.2-.9-.4v-8.5l1 .7h3.2v-2h-4.8l-.2-.7h4.9v-2.1h-.1c-1.5.2-2.8.3-4 .3-.5 0-.7 0-.7-.3 0-.2.1-.3.3-.3 3.3-.3 6.7-.9 8.5-1.9l1.2.7c.2.1.3.2.3.3 0 .1-.2.3-.4.3-.1 0-.4-.1-.5-.1h-.1c-1 .3-2.1.6-3.3.8v2.3h2.5l1.5-1.3 1.4 1.2c.1.1.2.2.2.4 0 .3-.2.5-.5.5h-5.1v2h3l.6-.7 1 .7c.1 0 .1.1.1.2s-.1.3-.4.4c-.2 0-.3.2-.3.3v6.7c0 .1-.1.3-.2.4l-.4.1 1.2 1c.1.1.2.2.2.4 0 .3-.2.5-.5.5h-4.4v2.3zM290 27.2h-3.1v2.3h3.1v-2.3zm0 3h-3.1v2.3h3.1v-2.3zm1.1-.7h3.1v-2.3h-3.1v2.3zm0 3h3.1v-2.3h-3.1v2.3zm0 3.2h2.3l1.3-1.1c-.4.1-.5 0-.5-.4v-.9h-3.1v2.4zm13.9-9.8c.1.1.2.2.2.4 0 .1-.1.3-.3.3-.1 0-.2.2-.2.4v1.6c0 5.3-.5 9-1 10.5-.7 1.7-1.3 2.1-2.7 2.4-.1-1-.9-1.3-1.5-1.4-.1 0-.2-.1-.2-.2s.1-.3.3-.3c1 .3 1.7.4 2.1.4s.8-.7 1-1.2c.3-.6 1-4.1.9-12.2h-3.4l-.1 2.8c-.1 2.1-.7 7-3.2 10-1.4 1.6-2.8 2.3-2.9 2.3-.1 0-.2-.1-.2-.2s0-.2.1-.2c3.6-2.6 4.8-7.8 5.1-12l.1-2.6h-2.5l-.4-.7h2.9v-6l1.3.3c.3 0 .5.2.5.4s-.1.3-.3.4l-.3.2-.1 4.8h3.3l.6-.6.9.4z"/><path id="XMLID_464_" class="st0" d="M312.8 23.6l1.5-1.2 1.4 1.2c.1 0 .2.2.2.4 0 .3-.2.5-.5.5H308l-.2-.7h5zm-4.3 9.1l1.1.8h3.7l.6-.7 1 .7c.1 0 .1.1.1.2s-.1.3-.4.4c-.2 0-.3.2-.3.3v6.8c0 .1-.1.3-.2.3-.7.2-.9.2-.9-.3v-1.7h-3.7v1.7c0 .1-.1.2-.3.3-.8.2-.9.2-.9-.4v-8.4zM312 27l1.5-1.3 1.4 1.2c.1.1.2.2.2.4 0 .3-.3.5-.5.5h-5.9l-.2-.7h3.5zm0 3.3l1.5-1.3 1.4 1.2c.1.1.2.2.2.4 0 .3-.2.5-.5.5h-5.9l-.2-.7h3.5zm0-9.7l1.5-1.2 1.4 1.2c.1 0 .2.2.2.4 0 .3-.2.5-.5.5h-5.8l-.2-.7h3.4zm-2.3 18.3h3.7v-4.6h-3.7v4.6zm17.8 1.2c0 .4-.2 1.2-2.1 1.5-.2-.8-.4-1.1-2.1-1.7-.1 0-.2-.1-.2-.2s.1-.2.2-.2h.1c1.2.3 2 .4 2.5.4.2 0 .6 0 .6-.6V21.4h-9.6l-.2-.7h9.8l.5-.6.9.8c.2.1.3.3.3.5s-.1.3-.3.4c-.2.1-.3.2-.3.3v18zm-5.8-15.5l1.4-1.2 1.5 1.2c.1 0 .2.2.2.4 0 .3-.2.5-.5.5h-7l-.2-.7h4.6zm-4.3 3.1l1 .7h4l.6-.7 1 .7c.1 0 .1.1.1.2s-.1.3-.3.4c-.2 0-.3.2-.3.3v6.8c0 .1-.1.3-.2.3-.7.2-.9.2-.9-.3v-1.4h-3.9v1.8c0 .1-.1.2-.3.3-.7.2-.9.2-.9-.4v-8.7zm1.1 6.4h3.9v-4.9h-3.9v4.9z"/><path id="XMLID_475_" class="st0" d="M331.5 23.3l1 .9h1.2l.7-2.1.3-1.8v-.7l1.4.1c.3 0 .4.2.4.3s-.1.3-.2.3l-.3.2-.8 2.1-.8 1.6h3l.5-.8 1 .7c.1 0 .1.1.1.2 0 .3-.2.4-.3.5-.2.1-.3.2-.3.2v14.1c0 .1-.1.2-.2.3-.8.2-.9.2-.9-.3v-1.4h-4.7V40c0 .3-.3.4-.9.6-.2 0-.2-.2-.2-.6V23.3zm1.1 7.4h4.7v-5.8h-4.7v5.8zm0 6.3h4.7v-5.5h-4.7V37zm11.9 2.3c1.1.4 2 .6 2.5.6s1-.8 1.2-1.4c.3-.6 1.2-4.3 1.2-13.8h-6.9l-.3.8c-1.1 2.7-2.6 4.5-2.8 4.5-.1 0-.2-.1-.2-.2s0-.1.1-.2c2.2-3.6 3.3-7.8 3.3-10.2l1.3.1c.3 0 .4.1.4.3 0 .2-.1.3-.3.3-.2 0-.3.1-.3.2-.3 1.2-.6 2.5-1 3.6h6.6l.6-.6.9.7c.1.1.2.2.2.3 0 .1-.1.3-.3.3-.3.1-.3.2-.3 1.2 0 6.4-.7 11.3-1.3 12.8-.8 1.9-1.5 2.4-2.9 2.5-.1-1-.8-1.4-1.9-1.6-.1 0-.2-.1-.2-.2.1.2.2 0 .4 0zM342 28.9c0-.1 0-.2.2-.2.5 0 3.3 3.1 3.3 4.5 0 .2-.1.8-.5.8s-.5-.4-.6-.5c-.4-1.9-1.3-3.6-2.3-4.5-.1 0-.1 0-.1-.1z"/><path id="XMLID_481_" class="st0" d="M354.2 20.5l1.2 1.1h3.2l.6-.8 1 .7s.1.1.1.2c0 .2-.1.4-.3.5-.2.1-.3.2-.3.2V38c0 .3-.5.5-.8.5-.2 0-.3-.1-.3-.4v-1.4h-3.3V39c0 .3-.3.4-.9.6-.2 0-.2-.2-.2-.6V20.5zm1.2 8.2h3.3v-6.3h-3.3v6.3zm0 7.2h3.3v-6.5h-3.3v6.5zm6.4-7.9l-.2-.7h4.9v-3.9H361l-.2-.7h5.7v-3.2l1.2.2c.3 0 .5.2.5.4s-.1.3-.3.4c-.2.1-.3.2-.3.4v1.9h3.7l1.4-1.2 1.5 1.1c.1.1.2.2.2.4 0 .3-.2.5-.5.5h-6.3v3.9h2.8l1.4-1.3 1.5 1.2c.1.1.2.2.2.4 0 .3-.2.5-.5.5h-11.2zm7.6 3.8v-3l1.2.2c.4 0 .6.2.6.4s-.1.3-.3.4c-.2 0-.3.1-.3.3v1.8h1.3l1.4-1.2 1.3 1.1c.1.1.2.2.2.4 0 .3-.1.5-.5.5h-3.7v7.7c0 .3-.2.6-.5.9-.3.3-.9.5-1.7.6 0-.9-1-1.3-1.5-1.6-.2 0-.2-.1-.2-.3 0-.2.2-.2.3-.1l2.1.3h.4s.1-.2.1-.3v-7.2h-8.2l-.2-.7h8.2zm-3.9 5.7c-.1.3-.4.4-.5.4-.3 0-.5-.3-.5-.4-.5-1.6-1.3-3-2.1-3.5-.1 0-.1-.1-.1-.2s0-.2.2-.2c.5 0 2.7 2 3.1 3.3v.6z"/></g><g id="XMLID_370_"><path id="XMLID_371_" class="st0" d="M12.1 75.5c-1 2-2.2 3.6-2.4 3.6-.1 0-.2 0-.2-.2 0-.1 0-.1.1-.2 2.7-4.2 3.6-9.1 3.6-11.2l1.3.1c.3 0 .5.1.5.3 0 .2-.1.3-.3.3-.2 0-.3.1-.3.2-.3 1.7-.8 3.4-1.5 5.1.7.2.8.2.8.4 0 .1-.1.2-.2.3-.2.1-.3.2-.3.3v14.9c0 .1-.1.2-.3.3-.7.2-.9.2-.9-.3V75.5zm3.5-4.6l1.3.2c.4 0 .5.2.5.4s-.1.4-.3.5c-.2.1-.3.3-.3.4v14.7c0 .1-.1.3-.3.4-.2 0-.6.1-.6.1-.2 0-.3-.1-.3-.2V70.9zm10.9 5.6l1.4-1.3 1.4 1.1c.2.1.3.3.3.5 0 .3-.2.5-.5.5h-4.8c0 1.6-.1 2.9-.3 4h3.3l1.5-1.3 1.4 1.2c.1.1.2.2.2.4 0 .3-.3.5-.5.5h-5.2c1.2 2.8 3.2 4.8 6.1 5.7.1 0 .1.1.1.2s-.2.2-.5.3c-.3.1-.5.3-.6.5-.1.2-.1.3-.2.3s-3.7-1.9-5.4-6.9H24c-.3 1.5-.7 2.4-1.5 3.6-2.1 3-5.9 3.8-6 3.8s-.2-.1-.2-.2 0-.2.1-.2c4.4-1.6 6.1-5 6.5-7H18l-.2-.7h5.1c.1-1 .2-2.4.2-4h-2.8l-.3.4c-.8 1.3-1.7 2.4-2 2.4-.1 0-.2-.1-.2-.2s0-.1.1-.2c.6-.8 1.1-1.8 1.5-2.7.8-1.8.8-2.4.8-3.1l1.3.3c.3 0 .4.2.4.4s-.1.3-.3.3c-.2 0-.3 0-.3.1l-.6 1.5h5.8zM18 73.2l-.2-.7h7.7l.5-3.3h-6.9l-.1-.8h7.1l.6-.7.7.8c.2.1.2.3.2.4 0 .2-.1.4-.3.4-.2 0-.3.2-.3.4l-.4 2.7h.7l1.4-1.3 1.5 1.2c.1.1.2.2.2.4 0 .3-.2.5-.5.5H18z"/><path id="XMLID_376_" class="st0" d="M37.7 72l1.3-1.1 1.2 1c.1.1.2.2.2.4 0 .3-.2.5-.5.5h-7.2l-.2-.8h5.2zm-.8 6.7l1.3-1.1 1.2 1c.1.1.2.2.2.4 0 .3-.2.5-.5.5h-5.6l-.2-.7h3.6zm-3.6 2.5l1 .7h3.6l.5-.8.9.7c.1.1.2.3.2.4 0 .1-.1.3-.3.3-.1 0-.2.1-.2.2v5.9c0 .3-.1.3-.8.6-.2 0-.3-.2-.3-.6v-1.2h-3.5V89c0 .1-.1.2-.3.3-.8.2-.9.2-.9-.4v-7.7zm3.5-5.7l1.3-1.1 1.2 1c.1.1.2.2.2.4s-.1.5-.5.5h-5.4l-.2-.7h3.4zm.1-6.9l1.3-1.1 1.2 1c.1 0 .2.2.2.4 0 .3-.2.5-.5.5h-5.4l-.2-.7h3.4zm-2.4 18.1H38v-4.1h-3.5v4.1zm10.8 1.1c.2.1.3.2.3.4 0 .1-.1.4-.3.4 0 0-.4-.1-.5-.1-.8.3-1.7.6-2.7.8-1 .2-1.9.3-2.6.3-.2 0-.3 0-.3-.2 0-.1 0-.2.2-.2 1.7-.1 4.5-1.2 5.1-1.9l.8.5zm-3.7-15.7l-.2-.7h4.7V70h-5.5l-.2-.7h5.7v-1.9l1.2.2c.4 0 .5.2.5.4s-.1.3-.3.4c-.3.1-.3.2-.3 1h3.2l1.4-1.3 1.5 1.2c.1.1.2.2.2.3v.1c0 .2-.2.4-.5.4h-5.8v1.4h2.1l1.4-1.3 1.5 1.2c.1.1.2.2.2.4 0 .3-.2.5-.5.5H41.6zm10 1.3l.5-.8.9.7c.1.1.2.3.2.4 0 .1-.1.3-.3.3-.1.1-.2.2-.2.3v4c0 .3-.1.3-.8.5-.2 0-.3-.2-.3-.5v-.8H42c0 .7 0 .8-.3 1-.8.2-.9.2-.9-.4v-5.3l1 .7h9.8zM42 76.7h2.4v-2.5H42v2.5zm.4 1.5l1 .7h6.1l.6-.6 1 .7c.1 0 .1.1.1.2 0 0 0 .3-.4.4-.2 0-.3.2-.3.3V87c0 .3-.2.3-.8.5-.3 0-.3-.2-.3-1.2h-6c0 .7 0 .8-.3 1-.7.2-.9.2-.9-.4v-8.7zm1.1 1.4v1.5h6v-1.5h-6zm0 2.3v1.4h6v-1.4h-6zm0 2.1v1.5h6V84h-6zm2.1-7.3H48v-2.5h-2.4v2.5zm3.1 10.8c1.7 0 4.2.7 4.2 1.7 0 .3-.2.6-.5.6-.2 0-.4-.1-.6-.2-1.7-1-3.6-1.4-4.4-1.6-.1 0-.2-.1-.2-.2s.1-.2.2-.2h1.3zm.4-10.8h2.4v-2.5h-2.4v2.5z"/></g><g id="XMLID_363_"><path id="XMLID_364_" class="st0" d="M64.9 75.1c.1.1.2.2.2.3s0 .2-.1.3c-.1.2-.2.4-.2.6 0 .1-.1.4-.1.6 0 .3-.1.8-.1 1.5V86c0 .3-.1.6-.1.8s-.2.2-.3.2c-.1 0-.3-.1-.4-.3-.2-.2-.4-.5-.5-.8s-.3-.5-.3-.7c-.1-.2-.1-.3-.1-.4 0-.1.1-.2.2-.4s.2-.5.2-.8c.1-.3.1-.8.1-1.4v-2.4-2.4c0-.5-.1-1-.1-1.4 0-.4-.1-.7-.2-.9l-.1-.2c-.3.1-.7.1-1 .2s-.8.1-1.3.3-.8.2-1 .3-.4.1-.7.3-.4.2-.5.2c-.1 0-.3 0-.4-.1-.1-.1-.3-.2-.6-.4-.3-.3-.5-.5-.5-.7s-.1-.3 0-.4c0 0 .2-.1.4 0s.5 0 .8 0c.5 0 .9 0 1.2-.1s1.1-.2 2.5-.4l2.4-.4c.8-.1 1.4-.3 1.8-.4.4-.1.8-.2 1.1-.4l.7-.3c.1 0 .2-.1.3-.1.1 0 .3 0 .4.1s.4.2.7.5c.3.2.5.5.6.7.1.2.1.4 0 .4s-.2.1-.3.1c-.1 0-.3 0-.5-.1s-.5-.1-.7-.1c-.4 0-1 0-1.9.1-.8.1-1.3.2-1.5.2l-.5.1c.1.3.3.5.4.6z"/><path id="XMLID_366_" class="st0" d="M77.6 80.6c-.5.1-1 .2-1.4.4s-.7.3-.8.3c-.1 0-.3 0-.4-.1s-.3-.2-.5-.5-.3-.4-.4-.6-.1-.3 0-.3c0-.1.1-.1.3-.1h.9l.5.1h.5c.4 0 .9-.1 1.7-.2l3.2-.4c1-.1 1.9-.2 2.6-.3s1.1-.1 1.4-.2c.3-.1.5-.1.8-.2l.7-.3c.2-.1.4-.1.5-.1.1 0 .2.1.4.3.2.2.4.3.5.5s.3.3.4.6c.1.2.2.4.2.5 0 .1-.1.2-.1.2h-.3c-.3-.1-.6-.1-.8-.2s-.6-.1-1.1-.1c-.3 0-.9 0-1.9.1s-1.7 0-1.9 0l-2.6.3c-1 .1-1.9.2-2.4.3z"/><path id="XMLID_368_" class="st0" d="M98.4 73.3c.1 0 .2.1.3.2l.4.4.8.9c.3.3.5.6.5.7s.1.3.1.3c0 .1-.1.2-.3.3-.2.1-.3.1-.4.2-.1 0-.2.2-.4.3-.2.2-.4.7-.8 1.4s-.8 1.5-1.2 2.3l-1.2 2.2c-.6 1-.9 1.7-1 1.9-.1.2-.2.4-.1.4 0 .1.2.1.5.1.4 0 1-.1 1.9-.2s1.6-.2 2.1-.3 1-.2 1.6-.3c.5-.1 1-.2 1.3-.3s.6-.2.7-.2c.1 0 .2 0 .3-.1.3 0 .5 0 .8.1s.5.3.9.7.5.7.5.9c0 .1-.1.2-.1.2-.1.1-.2.1-.4.1-.1 0-.3-.1-.7-.2s-.9-.2-1.5-.2h-1.7s-1.5.1-2.5.3-1.8.3-2.3.4-.9.2-1.1.3-.5.2-.7.4c-.2.2-.4.3-.5.3-.1 0-.2-.1-.4-.2s-.4-.3-.6-.6-.4-.5-.4-.7-.1-.4 0-.5c0-.1.1-.2.3-.3.2-.1.3-.3.5-.4.1-.1.3-.3.5-.6s.5-.8.8-1.5c.4-.7.8-1.7 1.4-3s1-2.3 1.3-2.9c.2-.6.4-1.1.4-1.4s.1-.5.1-.8v-.6c.1.1.2 0 .3 0z"/></g><g id="XMLID_311_"><path id="XMLID_312_" class="st0" d="M118 82c1-.7 2.2-1.9 2.2-3.5-.3.1-.5.2-.8.2-1 0-1.6-.8-1.6-1.6 0-.9.5-1.7 1.6-1.7.9 0 2 .6 2 2.4 0 1.9-1.3 3.4-3.1 4.7l-.3-.5z"/><path id="XMLID_314_" class="st0" d="M137.2 75.5c-2.4 3.4-4.8 5.3-5 5.3-.1 0-.2-.1-.2-.2s0-.1.1-.2c1.9-1.8 3.5-3.9 4.8-6.1l1.5-2.9h-6.2l-.2-.7h6.7c.8-1.8.9-2.1 1-3l1.3.5c.3.1.4.2.4.4 0 .3-.1.3-.5.3-.1 0-.2 0-.2.1l-.8 1.7h9.6l1.4-1.2 1.5 1.1c.1.1.2.2.2.4 0 .3-.2.5-.5.5h-12.5c-.5 1.1-1.2 2.1-1.8 3.1l.4.4h9.7l.5-.6.9.8c.2.1.3.3.3.5s-.1.3-.3.4c-.2.1-.3.2-.3.3v12c0 .7-.5 1.2-2.1 1.5l-.3-.7c-.1-.2-.7-.5-1.5-.7-.2 0-.2-.1-.2-.3 0-.1.1-.2.2-.2h.1c.8.1 1.4.2 1.8.2.5 0 .8 0 .8-.6v-3.8h-9.6v5.6c0 .3-.2.3-.9.5-.2 0-.2-.2-.2-.5V75.5zm1.2.1v3.1h9.6v-3.1h-9.6zm0 3.9v3.4h9.6v-3.4h-9.6z"/><path id="XMLID_318_" class="st0" d="M167.1 67.7h7.6v1.1h-6.6v15.4h-1V67.7z"/><path id="XMLID_320_" class="st0" d="M186.5 68.3l.6-.7 1 .7c.1 0 .1.1.1.2s-.1.3-.3.4c-.2 0-.3.2-.3.3v6.6c0 .1-.1.3-.2.4-.7.2-.9.2-.9-.4v-1.4h-5.7L180 79h6.7l.6-.6.9.8c.1.1.1.2.1.3 0 .1-.1.3-.3.4-.1 0-.2.2-.2.4-.1 1.7-.2 3.3-.4 4.7-.4 3.2-.9 4.2-3 4.4-.1-.8-.8-1.1-1.6-1.3-.1 0-.2-.1-.2-.2s.1-.3.2-.3h.1c1 .2 1.7.3 2.1.3h.3c.7-.4.8-1.3 1-3 .2-1.2.3-2.9.4-5h-6.9l-.2 1c-.1.4-.3.5-.7.5 0 0-.5-.1-.5-.5v-.1c.6-2.2 1-3.9 1.1-5.2l.3-2.7 1 1h5.5V69h-7.8l-.2-.7h8.2zm7.2-.8l1.3.2c.4 0 .5.2.5.4s-.1.4-.3.5c-.2.1-.3.2-.3.4v20.4c0 .4-.7.5-.9.5s-.2-.1-.2-.2V67.5z"/><path id="XMLID_323_" class="st0" d="M209.9 68.2l.6-.4.9.9c.1 0 .1.1.1.2s0 .2-.1.3l1.6 1.5 1.2-1c.8-.8.9-1.2 1.2-1.9l1 .8c.2.1.2.3.2.4 0 .3-.2.3-.8.3-.3.4-.8.8-1.3 1.2l-1.2.6c.8.6 1.5 1.2 2.3 1.6l.1.1c.5-.3.9-.7 1.3-1.2 1-1.2 1.1-1.5 1.4-2.3l1.1.7c.2.1.3.3.3.4 0 .2-.2.3-.4.3h-.3c-.4.5-.9 1.1-1.6 1.6l-1.3.8c1.4.7 3 1.2 4.7 1.5.1 0 .2 0 .2.1s-.1.2-.4.3c-.3.1-.4.3-.5.6 0 .2-.1.3-.3.3h.1c-4.5-1.7-7.1-3.9-9.2-6.5l-.3.3c-.3.4-2.6 3.2-6 4.9l-.8.3h3.6l.5-.8.9.7c.1.1.2.3.2.4 0 .1-.1.3-.3.3-.1.1-.2.1-.2.2V80c0 .3-.1.3-.8.6-.3 0-.3-.3-.3-1.1h-3.5l-.5 2.3-.1.4h3.9l.5-.8 1 .7c.2.2.3.3.3.5s-.1.5-.4.5c-.2 0-.3.1-.4.3-.1 1-.2 1.9-.4 2.8-.4 1.8-.9 2.9-2.8 3.4-.1-.7-.6-1-1.7-1.4-.1 0-.2-.1-.2-.3 0-.1.1-.2.2-.2h.1c.7.2 1.3.3 1.7.3h.2c1-.3 1.2-.9 1.4-2.5l.4-2.6h-4l-.2.7c-.1.1-.2.2-.5.3-.4 0-.6-.3-.6-.5v-.1l.7-2.6.4-2.7.9.8h3.4v-3.1h-4.2l-.1-.5c-.8.3-1.7.6-2.5.7-.2-.2-.2-.2-.2-.3s0-.1.1-.1c3.6-1.2 7.1-3.2 9.3-6.5h-7.2l-.2-.7h7.8zm-5.1 4.4c-.5 0-.6 0-.7-.3-.2-.8-.7-1.7-1.2-2-.1 0-.1-.1-.1-.2 0 0 .1-.3.2-.3.3 0 2.2 1.1 2.2 2.1-.1.4-.2.7-.4.7zm11.2 8.6l.5-.9.8.6c.3.2.5.5.5.6 0 .2 0 .2-.5.3-.5 1.3-1.1 2.5-1.9 3.5l-.6.6c2.1 1.6 4.3 2 6.1 2.2.1 0 .2.1.2.2s-.2.2-.5.3c-.3.1-.5.3-.6.6 0 .2-.1.3-.2.3-1.7-.5-3-1.1-4-1.8l-1.4-1.1c-.5.5-1.1.9-1.7 1.2-1.8 1.1-4.1 1.7-4.3 1.7s-.2-.1-.2-.2.1-.2.2-.3c1.9-.7 3.8-1.7 5.4-3.1l-.6-.7c-.7-1-1.2-2.1-1.7-3.2h-1.4v-.7h5.9zm-3.5-5.6c0 1.5 0 2.9-1.3 4-.7.6-2 1.1-2.2 1.1-.2 0-.2-.1-.2-.2s0-.1.1-.2c1.3-.6 2.4-1.4 2.4-3.9v-1.9l.9.5h3l.6-.7 1 .8c.1.1.2.2.2.4s-.2.4-.4.4c-.2.1-.2.2-.2.4v1.8c0 .7.2 1 1.1 1 1.1 0 1.3-.2 1.6-.9l.4-1.2c0-.1.1-.2.3-.2s.2.1.2.3l-.1 1.2v.5l.2.3c.1.1.2.3.2.5 0 .4-.6.7-1.2.7h-1.3c-1.7 0-2.5-.5-2.4-1.9v-2.5h-2.9zm-.7 6.3c.8 1.7 1.2 2.4 2.2 3.5l.6-.7c.5-.8 1-1.7 1.3-2.8h-4.1z"/><path id="XMLID_329_" class="st0" d="M224.5 87.7h6.3V72.8h1v16h-7.3v-1.1z"/><path id="XMLID_331_" class="st0" d="M252.4 67.7h7.6v1.1h-6.6v15.4h-1V67.7z"/><path id="XMLID_333_" class="st0" d="M263 83.9l-.2-.7h2.2l-.7-14 1.2.7.9-.6c.4-.4.8-.8 1.1-1.3l1.1.5c.2.1.3.2.3.4s-.2.4-.4.4l-.5.1-.9.6-1.5.6.1 3.5h.5l1.3-1.3 1.2 1.2c.1.1.2.2.2.4 0 .3-.2.5-.5.5h-2.6l.2 3.8h.3l1.3-1.3 1.2 1.2c.1.1.2.2.2.4s-.2.5-.5.5H266l.2 3.9h3.4V67.8l1 .9h5.2l.5-.6 1 .7c.1 0 .1.1.1.3 0 .2-.2.4-.3.5-.1.1-.2.2-.2.4v13.2h3.2l.3-3.9h-2.3l-.2-.7h2.6l.3-3.8h-2.7l-.2-.7h2.9l.3-4h-2.9l-.1-.7h3.1l.6-.7.8.8c.2.1.3.3.3.5s-.1.3-.3.4c-.2.1-.3.2-.3.4l-.9 12.6 1.3-1.3 1.2 1.2c.1.1.1.2.1.4 0 .3-.2.5-.5.5H263zm6.8 1.1l1.1.6c.2.1.3.3.3.4 0 0 0 .3-.3.3h-.3c-.1 0-.2 0-.3.1-2 2.1-6 3.1-6.5 3.1-.1 0-.3 0-.3-.2 0-.1.1-.2.2-.2 2.8-.8 4.8-2.5 5.9-3.7l.2-.4zm.9-1.9h5.1V69.4h-5.1v13.7zm2.4-11.4l1.1-1.1 1 1c.1.1.1.2.1.4s-.2.5-.5.5h-3.4l-.2-.7h1.9zm-1.4 2.8l.5.4h2l.3-.5.6.5.1.3c-.1.2-.2.2-.3.4v5.3c0 .1-.1.2-.2.3-.5.1-.6.1-.6-.3v-1h-1.7v.9c0 .1-.1.2-.2.2-.5.1-.6.1-.6-.3v-6.2zm.8 4.7h1.7v-3.6h-1.7v3.6zm4.2 6.5c2 .6 4.8 2.3 4.8 3.1 0 .3-.2.6-.5.6-.2 0-.4-.1-.6-.3-1.5-1.3-3.3-2.5-5.3-3.4-.1 0-.2-.1-.2-.2s.1-.2.2-.2l1.6.4z"/><path id="XMLID_341_" class="st0" d="M290.6 76.7h-4.2l-.2-.7h4.4v-3.8h-3.2l-.2-.7h3.4v-4.1l1.2.2c.4 0 .5.2.5.4s-.1.3-.3.4c-.2.1-.3.2-.3.4v2.8h1.3l1.3-1.1 1.2 1c.1.1.2.2.2.4 0 .3-.2.5-.5.5h-3.5V76h1.6l1.5-1.3 1.4 1.2c.1.1.2.2.2.4 0 .3-.3.5-.5.5h-4.2v4.1h1.3l1.4-1.2 1.4 1.1c.2.1.2.3.2.5 0 .3-.2.5-.5.5h-3.9v4.8l.7.3c2.5.9 6 .9 8.1.9 1.9 0 4-.1 6.2-.2.1 0 .2 0 .2.1s-.1.2-.4.4c-.3.1-.4.4-.5.7 0 .3-.1.4-.3.4H302c-9.3 0-12.4-1-14.3-5.7l-.2 1c-.6 3.3-1.9 5.2-2.1 5.2-.1 0-.2-.1-.2-.2v-.1c1.6-3.5 1.5-8.1 1.5-8.9v-1.1l1.4.2c.3 0 .5.2.5.3 0 .2-.1.3-.3.4-.2 0-.3.1-.3.3l-.2 1.9c.6 1.3 1.3 2.3 1.9 2.9l.6.6v-9.3zm6.7-8.1l.9.6h5.6l.6-.6 1 .7c.1 0 .1.1.1.2s-.1.3-.4.4c-.2 0-.3.2-.3.3v7.6c0 .4-.5.5-.8.5-.2 0-.3-.2-.3-.5v-1.6h-5.4v7.4c0 .3 0 .3.3.5h5.4c.2 0 .5-.3.6-.8l.6-1.8c0-.1.1-.2.2-.2s.2.1.2.3l-.1 1.4c0 .6 0 .9.2 1s.2.2.2.4-.2.9-.8.9H298c-.5 0-.8-.6-.8-1.2V68.6zm1.1 1.3v5.6h5.4v-5.6h-5.4z"/><path id="XMLID_345_" class="st0" d="M309.8 87.7h6.3V72.8h1v16h-7.3v-1.1z"/><path id="XMLID_347_" class="st0" d="M332 71.3l1 .9h1.2l.8-2.2.3-1.8v-.7l1.4.1c.3 0 .4.2.4.3s-.1.3-.2.3l-.3.2-.8 2.1-.8 1.6h3l.5-.8 1 .7c.1 0 .1.1.1.2 0 .3-.2.4-.3.5-.2.1-.3.2-.3.2V87c0 .1-.1.2-.2.3-.8.2-.9.2-.9-.3v-1.4h-4.7V88c0 .3-.3.4-.9.6-.2 0-.2-.2-.2-.6V71.3zm1.1 7.4h4.7v-5.8h-4.7v5.8zm0 6.3h4.7v-5.5h-4.7V85zm11.9 2.3c1.1.4 2 .6 2.5.6s1-.8 1.2-1.4c.3-.6 1.2-4.3 1.2-13.8H343l-.3.8c-1.1 2.7-2.6 4.5-2.8 4.5-.1 0-.2-.1-.2-.2s0-.1.1-.2c2.2-3.6 3.3-7.8 3.3-10.2l1.3.1c.3 0 .4.1.4.3 0 .2-.1.3-.3.3-.2 0-.3.1-.3.2-.3 1.2-.6 2.5-1 3.6h6.6l.6-.6.9.7c.1.1.2.2.2.3 0 .1-.1.3-.3.3-.3.1-.3.2-.3 1.2 0 6.4-.7 11.3-1.3 12.8-.8 1.9-1.5 2.4-2.9 2.5-.1-1-.8-1.4-1.9-1.6-.1 0-.2-.1-.2-.2.1.2.2 0 .4 0zm-2.5-10.4c0-.1 0-.2.2-.2.5 0 3.3 3.1 3.3 4.5 0 .2-.1.8-.5.8s-.5-.4-.6-.5c-.4-1.9-1.3-3.6-2.3-4.5-.1 0-.1 0-.1-.1z"/><path id="XMLID_353_" class="st0" d="M354.3 74.3l-.2-.7h6.6c0-.2-.6-1.8-1.2-2.1-.1 0-.1-.1-.1-.2s.1-.3.2-.3.8.3 1.3.8c.8.7.8.8.8 1.6h4.7c.4-.8.7-1.6.9-2.4l1.2.4c.3.1.4.2.4.4 0 .1 0 .4-.3.4-.2 0-.3 0-.4.1l-1 1.2h5l1.4-1.2 1.5 1.2c.1 0 .2.2.2.3 0 .3-.1.5-.5.5h-20.5zm2.6 9.4c.1 0 .1.1.1.2 0 2.4-1.1 5-2.3 5-.4 0-.6-.4-.6-.6 0-.2.1-.4.5-.7.7-.6 1.2-1.2 1.5-1.8.3-.6.5-1.2.5-1.9.1-.1.2-.2.3-.2zm-1.6-13.2l-.2-.7h8.6v-2.4l1.2.2c.4 0 .5.2.5.4s-.1.3-.3.4c-.2.1-.3.2-.3.4v1.1h6l1.4-1.2 1.5 1.1c.1.1.2.2.2.4 0 .3-.2.5-.5.5h-18.1zm14 5.4l.6-.6 1 .7c.1 0 .1.1.1.2 0 0 0 .3-.4.4-.2 0-.3.2-.3.3v5.8c0 .1-.1.3-.2.4-.7.2-.9.2-.9-.4v-.9H359v.8c0 .1-.1.2-.3.3-.7.2-.9.2-.9-.4v-7.4l1 .7h10.5zm-10.2.7v1.8h10.2v-1.8h-10.2zm0 2.6v1.9h10.2v-1.9h-10.2zm.5 4l1.5.4c.2 0 .3.2.3.4s-.1.3-.3.3c-.2 0-.3.1-.3.3v3.3c0 .3.1.3.5.5h6.6c.7 0 1-.4 1.2-1.4l.2-1.5c0-.1.1-.2.2-.2s.2.1.2.2l.1 1.6c0 .5.2.9.4 1 .2.1.3.3.3.5 0 .5-.3.6-.8.8h-9.3c-.5-.3-.7-.3-.7-1v-5.2zm5.8 2.8c-.7-1.4-1.6-2.4-2.2-2.6-.1 0-.2-.1-.2-.2s0-.2.2-.2c.4 0 3.2 1.5 3.2 2.8 0 .3 0 .6-.5.6-.2 0-.4-.2-.5-.4zm5.2-2.1c0-.1.1-.2.2-.2.6 0 3.4 2.8 3.4 4.2 0 .4-.2.7-.5.7s-.5-.1-.6-.4c-.5-1.9-1.5-3.6-2.4-4.1 0-.1-.1-.2-.1-.2z"/></g><g id="XMLID_238_"><path id="XMLID_239_" class="st0" d="M12.8 130c.1 0 .2.1.2.2 0 3.3-1.3 5.6-2.2 5.6-.5 0-.6-.4-.6-.7 0-.1.2-.4.5-.6.8-.7 1.3-1.4 1.5-2.1.3-.7.5-1.5.5-2.2-.1-.2 0-.2.1-.2zm13.5-13.3l.6-.6 1 .7c.1 0 .1.1.1.2s0 .3-.3.4c-.2 0-.3.1-.3.3v10.2c0 .1-.1.3-.2.4-.7.2-.9.2-.9-.4v-1.1H14.1v.9c0 .3-.3.4-.9.6-.2 0-.2-.2-.2-.6v-11.8l1 .9h12.3zm-6.7.7h-5.5v3.9h5.5v-3.9zm-5.5 4.6v4h5.5v-4h-5.5zm2.1 7l1.5.5c.2 0 .3.1.3.3 0 .2-.1.3-.3.3-.2 0-.3.1-.3.3v5.1c0 .3.1.3.4.4h6.1c.6 0 1-.4 1.3-1.5l.3-1.8c0-.1.1-.2.2-.2s.2.1.2.2l-.1 1.8c0 .6.1 1 .4 1.2.2.1.3.3.3.5 0 .4-.3.6-.8.8h-8.8c-.5-.3-.7-.3-.7-1V129zm6.7 2.1c0 .1-.1.5-.5.5-.2 0-.4-.1-.5-.3-.5-.8-1.6-2.4-2.8-2.9-.1 0-.2-.1-.2-.2 0-.2.1-.3.2-.3.5 0 3 1.3 3.6 2.5l.2.7zm-2.2-9.8h5.5v-3.9h-5.5v3.9zm0 .7v4h5.5v-4h-5.5zm5.6 8.1s.1-.2.2-.2c.5 0 3.6 3.3 3.6 4.9 0 .1 0 .8-.5.8s-.5-.4-.6-.5c-.6-2.5-1.9-4.3-2.7-4.9v-.1z"/><path id="XMLID_249_" class="st0" d="M42.3 123.1c0 .6-.6 1.3-1.3 1.3s-1.3-.6-1.3-1.3c0-.5.3-1.3 1.3-1.3.5-.1 1.3.4 1.3 1.3zm-1.3 7.5c-.8 0-1.3-.6-1.3-1.3 0-1 .7-1.3 1.3-1.3.5 0 1.3.3 1.3 1.3 0 1.4-.6 2.5-1.8 3.3l-.4-.3c.9-.7 1.3-1.3 1.3-1.8l-.4.1z"/><path id="XMLID_252_" class="st0" d="M69.8 135.9c0 .7-.6 1.2-2.1 1.5-.1-.8-.5-1.1-1.9-1.6-.2 0-.2-.1-.2-.2 0 0 0-.2.2-.2h.1c1 .2 1.8.3 2.2.3.2 0 .6 0 .6-.6v-6.6h-6.2v8.5c0 .4-.8.5-.9.5-.2 0-.3-.1-.3-.5v-8.5H55c0 1.1-.6 4-1.4 5.6-.5 1-1.6 3.2-2 3.2-.1 0-.2-.1-.2-.2v-.1c1.7-3 2.8-6.4 2.8-16v-5.2l1 .8h13.4l.5-.6.9.8c.2.1.3.3.3.5s-.1.3-.3.4c-.2.1-.3.2-.3.3v17.9zM61.2 123h-6c0 1.7-.1 3.4-.3 4.8h6.2V123zm0-5.6h-5.9v4.9h5.9v-4.9zm1.2 4.9h6.2v-4.9h-6.2v4.9zm0 5.5h6.2V123h-6.2v4.8z"/><path id="XMLID_258_" class="st0" d="M77.1 122.9c-1.2 2-2.7 3.7-2.9 3.7-.1 0-.2-.1-.2-.2s0-.1.1-.2c3-4 4.5-8.5 4.7-10.7l1.3.3c.3 0 .4.2.4.3 0 .1 0 .3-.3.3-.2 0-.3 0-.3.1-.5 1.7-1.2 3.4-2 5 .8.3.9.3.9.5 0 .1-.1.2-.2.3-.2.1-.3.2-.3.3v14.7c0 .1-.1.3-.3.3-.7.2-.9.2-.9-.3v-14.4zm9.1-2.9H84l-.7 1.6c-1.1 2.3-2.8 4.4-3.1 4.4-.1 0-.2-.1-.2-.2s0-.1.1-.2c2.7-3.7 3.7-8 3.9-9.5v-.6l1.3.2c.3 0 .4.2.4.4s-.1.3-.3.3c-.2 0-.3 0-.3.1-.3.9-.6 1.9-.9 2.9h8l1.4-1.3 1.4 1.1c.1.1.2.3.2.5s-.1.5-.5.5h-7.5v4.6h4.1l1.4-1.2 1.4 1.1c.2.1.3.3.3.5 0 .3-.2.5-.5.5h-6.7v4.5h4.1l1.4-1.3 1.4 1.1c.2.1.3.3.3.5 0 .3-.2.4-.5.4h-6.7v6.7c0 .3-.8.4-.9.4-.2 0-.3-.1-.3-.4V120z"/><path id="XMLID_261_" class="st0" d="M114.4 127.8l.6-.6 1 .7c.1 0 .1.1.1.2s-.1.4-.3.4c-.2 0-.3.2-.3.3v8.6c0 .3-.5.5-.8.5-.2 0-.3-.2-.3-.5v-1.5h-10.3v1.5c0 .3-.5.4-.9.4-.2 0-.3-.1-.3-.4v-8.6c-2.7 1-5.5 1.3-5.5 1.3-.1 0-.3 0-.3-.2 0-.1 0-.2.1-.2 9.6-2 13.1-6.6 15-10.8H105c-.6.9-1.3 1.8-2 2.5.5.2 1 .6 1.6 1.1.9.8 1.4 1.3 1.4 2.2 0 .1-.1.4-.5.4-.3 0-.5-.2-.5-.3-.9-2-2-2.9-2.3-3.1-2.3 2.2-4.5 3.1-4.6 3.1-.1 0-.2 0-.2-.2 0-.1 0-.1.1-.1 3.5-1.9 6.9-6.2 7.3-9l1.2.4c.3.1.4.2.4.4s-.1.2-.6.4l-.9 1.6h6.9l.5-.9.8.6c.3.2.5.5.5.6s-.1.2-.6.4c-1.8 4-4.6 7-8.6 9h9.5zm-10.3.8v6.6h10.3v-6.6h-10.3z"/><path id="XMLID_264_" class="st0" d="M124.7 119.6l1.5-1.2 1.4 1.2c.1 0 .2.2.2.4 0 .3-.2.5-.5.5H120l-.2-.7h4.9zm-4.2 9.1l1.1.8h3.7l.6-.7 1 .7c.1 0 .1.1.1.2s-.1.3-.4.4c-.2 0-.3.2-.3.3v6.8c0 .1-.1.3-.2.3-.7.2-.9.2-.9-.3v-1.7h-3.7v1.7c0 .1-.1.2-.3.3-.8.2-.9.2-.9-.4v-8.4zm3.5-5.7l1.5-1.3 1.4 1.2c.1.1.2.2.2.4 0 .3-.3.5-.5.5h-5.9l-.2-.7h3.5zm0 3.3l1.5-1.3 1.4 1.2c.1.1.2.2.2.4 0 .3-.2.5-.5.5h-5.9l-.2-.7h3.5zm0-9.7l1.5-1.2 1.4 1.2c.1 0 .2.2.2.4 0 .3-.2.5-.5.5h-5.8l-.2-.7h3.4zm-2.4 18.3h3.7v-4.6h-3.7v4.6zm17.9 1.2c0 .4-.2 1.2-2.1 1.5-.2-.8-.4-1.1-2.1-1.7-.1 0-.2-.1-.2-.2s.1-.2.2-.2h.1c1.2.3 2 .4 2.5.4.2 0 .6 0 .6-.6v-17.9h-9.6l-.2-.7h9.8l.5-.6.9.8c.2.1.3.3.3.5s-.1.3-.3.4c-.2.1-.3.2-.3.3v18zm-5.9-15.5l1.4-1.2 1.5 1.2c.1 0 .2.2.2.4 0 .3-.2.5-.5.5h-7l-.2-.7h4.6zm-4.2 3.1l1 .7h4l.6-.7 1 .7c.1 0 .1.1.1.2s-.1.3-.3.4c-.2 0-.3.2-.3.3v6.8c0 .1-.1.3-.2.3-.7.2-.9.2-.9-.3v-1.4h-3.9v1.8c0 .1-.1.2-.3.3-.7.2-.9.2-.9-.4v-8.7zm1.1 6.4h3.9v-4.9h-3.9v4.9z"/><path id="XMLID_275_" class="st0" d="M143.3 119.3l1 .9h1.2l.7-2.1.3-1.8v-.7l1.4.1c.3 0 .4.2.4.3s-.1.3-.2.3l-.3.2-.8 2.1-.8 1.6h3l.5-.8 1 .7c.1 0 .1.1.1.2 0 .3-.3.4-.3.5-.2.1-.3.2-.3.2v14.1c0 .1-.1.2-.2.3-.8.2-.9.2-.9-.3v-1.4h-4.7v2.2c0 .3-.3.4-.9.6-.2 0-.2-.2-.2-.6v-16.6zm1.1 7.4h4.7v-5.8h-4.7v5.8zm0 6.3h4.7v-5.5h-4.7v5.5zm11.9 2.3c1.1.4 2 .6 2.5.6s1-.8 1.2-1.4c.3-.6 1.2-4.3 1.2-13.8h-6.9l-.3.8c-1.1 2.7-2.6 4.5-2.8 4.5-.1 0-.2-.1-.2-.2s0-.1.1-.2c2.2-3.6 3.3-7.8 3.3-10.2l1.3.1c.3 0 .4.1.4.3 0 .2-.1.3-.3.3-.2 0-.3.1-.3.2-.3 1.2-.6 2.5-1 3.6h6.6l.6-.6.9.7c.1.1.2.2.2.3 0 .1-.1.3-.3.3-.3.1-.3.2-.3 1.2 0 6.4-.7 11.3-1.3 12.8-.8 1.9-1.5 2.4-2.9 2.5-.1-1-.8-1.4-1.9-1.6-.1 0-.2-.1-.2-.2.1.2.2 0 .4 0zm-2.5-10.4c0-.1 0-.2.2-.2.5 0 3.3 3.1 3.3 4.5 0 .2-.1.8-.5.8s-.5-.4-.6-.5c-.4-1.9-1.3-3.6-2.3-4.5-.1 0-.1 0-.1-.1z"/><path id="XMLID_281_" class="st0" d="M165.9 116.5l1.2 1.1h3.2l.6-.8 1 .7s.1.1.1.2c0 .2-.1.4-.3.5-.2.1-.3.2-.3.2V134c0 .3-.5.5-.8.5-.2 0-.3-.1-.3-.4v-1.4H167v2.3c0 .3-.3.4-.9.6-.2 0-.2-.2-.2-.6v-18.5zm1.1 8.2h3.3v-6.3H167v6.3zm0 7.2h3.3v-6.5H167v6.5zm6.4-7.9l-.2-.7h4.9v-3.9h-5.6l-.2-.7h5.7v-3.2l1.2.2c.3 0 .5.2.5.4s-.1.3-.3.4c-.2.1-.3.2-.3.4v1.9h3.7l1.4-1.2 1.5 1.1c.1.1.2.2.2.4 0 .3-.2.5-.5.5h-6.3v3.9h2.8l1.4-1.3 1.5 1.2c.1.1.2.2.2.4 0 .3-.2.5-.5.5h-11.1zm7.6 3.8v-3l1.2.2c.4 0 .6.2.6.4s-.1.3-.3.4c-.2 0-.3.1-.3.3v1.8h1.3l1.4-1.2 1.3 1.1c.1.1.2.2.2.4 0 .3-.1.5-.5.5h-3.7v7.7c0 .3-.2.6-.5.9-.3.3-.9.5-1.7.6 0-.9-1-1.3-1.5-1.6-.2 0-.3-.1-.3-.3 0-.2.2-.2.3-.1l2.1.3h.4s.1-.2.1-.3v-7.2h-8.2l-.2-.7h8.3zm-3.8 5.7c-.1.3-.4.4-.5.4-.3 0-.5-.3-.5-.4-.5-1.6-1.3-3-2.1-3.5-.1 0-.1-.1-.1-.2s0-.2.2-.2c.5 0 2.7 2 3.1 3.3v.6z"/><path id="XMLID_288_" class="st0" d="M190.5 123.5c-1 2-2.2 3.6-2.4 3.6-.1 0-.2 0-.2-.2 0-.1 0-.1.1-.2 2.7-4.2 3.6-9.1 3.6-11.2l1.3.1c.3 0 .5.1.5.3 0 .2-.1.3-.3.3-.2 0-.3.1-.3.2-.3 1.7-.8 3.4-1.5 5.1.7.2.8.2.8.4 0 .1-.1.2-.2.3-.2.1-.3.2-.3.3v14.9c0 .1-.1.2-.3.3-.7.2-.9.2-.9-.3v-13.9zm3.4-4.6l1.3.2c.4 0 .5.2.5.4s-.1.4-.3.5c-.2.1-.3.3-.3.4v14.7c0 .1-.1.3-.3.4-.2 0-.6.1-.6.1-.2 0-.3-.1-.3-.2v-16.5zm11 5.6l1.4-1.3 1.4 1.1c.2.1.3.3.3.5 0 .3-.2.5-.5.5h-4.8c0 1.6-.1 2.9-.3 4h3.3l1.5-1.3 1.4 1.2c.1.1.2.2.2.4 0 .3-.3.5-.5.5H203c1.2 2.8 3.2 4.8 6.1 5.7.1 0 .1.1.1.2s-.2.2-.5.3c-.3.1-.5.3-.6.5-.1.2-.1.3-.2.3s-3.7-1.9-5.4-6.9h-.2c-.3 1.5-.7 2.4-1.5 3.6-2.1 3-5.9 3.8-6 3.8s-.2-.1-.2-.2 0-.2.1-.2c4.4-1.6 6.1-5 6.5-7h-4.8l-.2-.7h5.1c.1-1 .2-2.4.2-4h-2.8l-.3.7c-.8 1.3-1.7 2.4-2 2.4-.1 0-.2-.1-.2-.2s0-.1.1-.2c.6-.8 1.1-1.8 1.5-2.7.8-1.8.8-2.4.8-3.1l1.3.3c.3 0 .4.2.4.4s-.1.3-.3.3c-.2 0-.3 0-.3.1l-.6 1.5h5.8zm-8.5-3.3l-.2-.7h7.7l.5-3.3h-6.9l-.2-.7h7.1l.6-.7.7.8c.2.1.2.3.2.4 0 .2-.1.4-.3.4-.2 0-.3.2-.3.4l-.4 2.7h.7l1.4-1.3 1.5 1.2c.1.1.2.2.2.4 0 .3-.2.5-.5.5h-11.8z"/><path id="XMLID_293_" class="st0" d="M216 120l1.3-1.1 1.2 1c.1.1.2.2.2.4 0 .3-.2.5-.5.5H211l-.2-.7h5.2zm-.8 6.7l1.3-1.1 1.2 1c.1.1.2.2.2.4 0 .3-.2.5-.5.5h-5.6l-.2-.7h3.6zm-3.5 2.5l1 .7h3.6l.5-.8.9.7c.1.1.2.3.2.4 0 .1-.1.3-.3.3-.1 0-.2.1-.2.2v5.9c0 .3-.1.3-.8.6-.2 0-.3-.2-.3-.6v-1.2h-3.5v1.6c0 .1-.1.2-.3.3-.8.2-.9.2-.9-.4v-7.7zm3.5-5.7l1.3-1.1 1.2 1c.1.1.2.2.2.4s-.1.5-.5.5H212l-.2-.7h3.4zm0-6.9l1.3-1.1 1.2 1c.1 0 .2.2.2.4 0 .3-.2.5-.5.5H212l-.2-.7h3.4zm-2.4 18.1h3.5v-4.1h-3.5v4.1zm10.9 1.1c.2.1.3.2.3.4 0 .1-.1.4-.3.4 0 0-.4-.1-.5-.1-.8.3-1.7.6-2.7.8-1 .2-1.9.3-2.6.3-.2 0-.3 0-.3-.2 0-.1 0-.2.2-.2 1.7-.1 4.5-1.2 5.1-1.9l.8.5zm-3.7-15.7l-.2-.7h4.7V118H219l-.2-.7h5.7v-1.9l1.2.2c.4 0 .5.2.5.4s-.1.3-.3.4c-.3.1-.3.2-.3 1h3.2l1.4-1.3 1.5 1.2c.1.1.2.2.2.3v.1c0 .2-.2.4-.5.4h-5.8v1.4h2.1l1.4-1.3 1.5 1.2c.1.1.2.2.2.4 0 .3-.2.5-.5.5H220zm9.9 1.3l.5-.8.9.7c.1.1.2.3.2.4 0 .1-.1.3-.3.3-.1.1-.2.2-.2.3v4c0 .3-.1.3-.8.5-.2 0-.3-.2-.3-.5v-.8h-9.6c0 .7 0 .8-.3 1-.8.2-.9.2-.9-.4v-5.3l1 .7h9.8zm-9.5 3.3h2.4v-2.5h-2.4v2.5zm.3 1.5l1 .7h6.1l.6-.6 1 .7c.1 0 .1.1.1.2 0 0 0 .3-.4.4-.2 0-.3.2-.3.3v7.1c0 .3-.2.3-.8.5-.3 0-.3-.2-.3-1.2h-6c0 .7 0 .8-.3 1-.7.2-.9.2-.9-.4v-8.7zm1.2 1.4v1.5h6v-1.5h-6zm0 2.3v1.4h6v-1.4h-6zm0 2.1v1.5h6V132h-6zm2-7.3h2.4v-2.5h-2.4v2.5zm3.1 10.8c1.7 0 4.2.7 4.2 1.7 0 .3-.2.6-.5.6-.2 0-.4-.1-.6-.2-1.7-1-3.6-1.4-4.4-1.6-.1 0-.2-.1-.2-.2s.1-.2.2-.2h1.3zm.5-10.8h2.4v-2.5h-2.4v2.5z"/></g><g id="XMLID_235_"><path id="XMLID_236_" class="st0" d="M243.2 123.1c.1.1.2.2.2.3s0 .2-.1.3c-.1.2-.2.4-.2.6 0 .1-.1.4-.1.6 0 .3-.1.8-.1 1.5v6.3l-.1 1.2c0 .3-.1.6-.1.8s-.2.2-.3.3c-.1 0-.3-.1-.4-.3-.2-.2-.4-.5-.5-.8s-.3-.5-.3-.7c-.1-.2-.1-.3-.1-.4 0-.1.1-.2.2-.4s.2-.5.2-.8c.1-.3.1-.8.1-1.4v-2.4-2.4c0-.5-.1-1-.1-1.4 0-.4-.1-.7-.2-.9l-.1-.3c-.3.1-.7.1-1 .2s-.8.1-1.3.3-.8.2-1 .3-.4.2-.7.3-.5.2-.5.2c-.1 0-.3 0-.4-.1-.1-.1-.3-.2-.6-.4s-.4-.4-.5-.6-.1-.3 0-.4c0 0 .2-.1.4 0s.5 0 .8 0c.5 0 .9 0 1.2-.1s1.1-.2 2.5-.4l2.4-.4c.8-.1 1.4-.3 1.8-.4.4-.1.8-.2 1.1-.4l.7-.3c.1 0 .2-.1.3-.1.1 0 .3 0 .4.1s.4.2.7.5c.3.2.5.5.6.7.1.2.1.4 0 .4s-.2.1-.3.1c-.1 0-.3 0-.5-.1s-.5-.1-.7-.1c-.4 0-1 0-1.9.1-.8.1-1.3.2-1.5.2l-.5.1c.3.3.4.5.5.6z"/></g><g id="XMLID_232_"><path id="XMLID_233_" class="st0" d="M278.6 111.5c0-.3.2-.6.4-.8.3-.2.7-.1 1.3.3l.7.7c.2.3.6.8 1.2 1.5s.9 1.1 1 1.2l.8.9c.3.3.5.6.5.6.1.1.1.2.2.3v.2s-.1.1-.2.1-.3-.1-.6-.2c-.3-.2-.6-.3-.9-.5s-.6-.4-1-.6-.9-.6-1.8-1.3c-.9-.6-1.4-1.1-1.5-1.4s-.1-.7-.1-1z"/></g><g id="XMLID_227_"><path id="XMLID_228_" class="st0" d="M255.9 128.6c-.5.1-1 .2-1.4.4s-.7.3-.8.3c-.1 0-.3 0-.4-.1s-.3-.2-.5-.5-.3-.4-.4-.6c-.1-.2-.1-.3 0-.3 0-.1.1-.1.3-.1h.9l.5.1h.5c.4 0 .9-.1 1.7-.2l3.2-.4c1-.1 1.9-.2 2.6-.3s1.1-.1 1.4-.2c.3-.1.5-.1.8-.2l.7-.3c.2-.1.4-.1.5-.1.1 0 .2.1.4.3.2.2.4.3.5.5s.3.3.4.6c.1.2.2.4.2.5 0 .1-.1.2-.1.2h-.3c-.3-.1-.6-.1-.8-.2-.3 0-.6-.1-1.1-.1-.3 0-.9 0-1.9.1s-1.5.1-1.7.1l-2.6.3c-1.2 0-2 .1-2.6.2z"/><path id="XMLID_230_" class="st0" d="M276.7 121.3c.1 0 .2.1.3.2l.4.4.8.9c.3.3.5.6.5.7s.1.3.1.3c0 .1-.1.2-.3.3-.2.1-.3.1-.4.2-.1 0-.2.2-.4.3-.2.2-.4.7-.8 1.4s-.8 1.5-1.2 2.3l-1.2 2.2c-.6 1-.9 1.7-1 1.9-.1.2-.2.4-.1.4 0 .1.2.1.5.1.4 0 1-.1 1.9-.2s1.6-.2 2.1-.3 1-.2 1.6-.3c.5-.1 1-.2 1.3-.3s.6-.2.7-.2c.1 0 .2 0 .3-.1.3 0 .5 0 .8.1s.5.3.9.7.5.7.5.9c0 .1-.1.2-.1.2-.1.1-.2.1-.4.1-.1 0-.3-.1-.7-.2s-.9-.2-1.5-.2h-1.7s-1.5.1-2.5.3-1.8.3-2.3.4-.9.2-1.1.3-.5.2-.7.4c-.2.2-.4.3-.5.3-.1 0-.2-.1-.4-.2s-.4-.3-.6-.6-.4-.5-.4-.7-.1-.4 0-.5c0-.1.1-.2.3-.3.2-.1.3-.3.5-.4.1-.1.3-.3.5-.6s.5-.8.8-1.5c.4-.7.8-1.7 1.4-3 .6-1.3 1-2.3 1.3-2.9.2-.6.4-1.1.4-1.4s.1-.5.1-.8v-.6c.1.1.2 0 .3 0z"/></g><g id="XMLID_210_"><path id="XMLID_211_" class="st0" d="M296.3 130c1-.7 2.2-1.9 2.2-3.5-.3.1-.5.2-.8.2-1 0-1.6-.8-1.6-1.6 0-.9.5-1.7 1.6-1.7.9 0 2 .6 2 2.4 0 1.9-1.3 3.4-3.1 4.7l-.3-.5z"/><path id="XMLID_213_" class="st0" d="M313.7 123.5c-2.4 3.4-4.8 5.3-5 5.3-.1 0-.2-.1-.2-.2s0-.1.1-.2c1.9-1.8 3.5-3.9 4.8-6.1l1.5-2.9h-6.2l-.2-.7h6.7c.8-1.8.9-2.1 1-3l1.3.5c.3.1.4.2.4.4 0 .3-.1.3-.5.3-.1 0-.2 0-.2.1l-.8 1.7h9.6l1.4-1.2 1.5 1.1c.1.1.2.2.2.4 0 .3-.2.5-.5.5h-12.5c-.5 1.1-1.2 2.1-1.8 3.1l.4.4h9.7l.5-.6.9.8c.2.1.3.3.3.5s-.1.3-.3.4c-.2.1-.2.2-.2.3v12c0 .7-.5 1.2-2.1 1.5l-.3-.7c-.1-.2-.7-.5-1.5-.7-.2 0-.2-.1-.2-.3 0-.1.1-.2.2-.2h.1c.8.1 1.4.2 1.8.2.5 0 .8 0 .8-.6v-3.8h-9.6v5.6c0 .3-.2.3-.9.5-.2 0-.2-.2-.2-.5v-13.9zm1.2.1v3.1h9.6v-3.1h-9.6zm0 3.9v3.4h9.6v-3.4h-9.6z"/><path id="XMLID_217_" class="st0" d="M343.6 115.7h7.6v1.1h-6.6v15.4h-1v-16.5z"/><path id="XMLID_219_" class="st0" d="M354.2 131.9l-.2-.7h2.2l-.7-14 1.2.7.9-.6c.4-.4.8-.8 1.1-1.3l1.1.5c.2.1.3.2.3.4s-.2.4-.4.4l-.5.1-.9.6-1.5.6.1 3.5h.5l1.3-1.3 1.2 1.2c.1.1.2.2.2.4 0 .3-.2.5-.5.5H357l.2 3.8h.3l1.3-1.3 1.2 1.2c.1.1.2.2.2.4s-.2.5-.5.5h-2.4l.2 3.9h3.4v-15.3l1 .9h5.2l.5-.6 1 .7c.1 0 .1.1.1.3 0 .2-.2.4-.3.5-.1.1-.2.2-.2.4v13.2h3.2l.3-3.9h-2.3l-.2-.7h2.6l.3-3.8h-2.7l-.2-.7h2.9l.3-4h-2.9l-.1-.7h3.1l.6-.7.8.8c.2.1.3.3.3.5s-.1.3-.3.4c-.2.1-.3.2-.3.4l-.9 12.6 1.3-1.3 1.2 1.2c.1.1.1.2.1.4 0 .3-.2.5-.5.5h-20.6zm6.8 1.1l1.1.6c.2.1.3.3.3.4 0 0 0 .3-.3.3h-.3c-.1 0-.2 0-.3.1-2 2.1-6 3.1-6.5 3.1-.1 0-.3 0-.3-.2 0-.1.1-.2.2-.2 2.8-.8 4.8-2.5 5.9-3.7l.2-.4zm.9-1.9h5.1v-13.7h-5.1v13.7zm2.4-11.4l1.1-1.1 1 1c.1.1.1.2.1.4s-.2.5-.5.5h-3.4l-.2-.7h1.9zm-1.4 2.8l.5.4h2l.3-.5.6.5.1.3c-.1.2-.2.2-.3.4v5.3c0 .1-.1.2-.2.3-.5.1-.6.1-.6-.3v-1h-1.7v.9c0 .1-.1.2-.2.2-.5.1-.6.1-.6-.3v-6.2zm.8 4.7h1.7v-3.6h-1.7v3.6zm4.2 6.5c2 .6 4.8 2.3 4.8 3.1 0 .3-.2.6-.5.6-.2 0-.4-.1-.6-.3-1.5-1.3-3.3-2.5-5.3-3.4-.1 0-.2-.1-.2-.2s.1-.2.2-.2l1.6.4z"/></g><g id="XMLID_154_"><path id="XMLID_155_" class="st0" d="M18 165.3l1.4-1.3 1.5 1.2c.1.1.2.2.2.4 0 .3-.2.5-.5.5H15c-.7 2-1.6 4-2.7 5.8l1.4-.2c1.6-.3 3.1-.8 4.3-1.2-.3-.5-.7-1.3-1.3-1.8-.1 0-.1-.1-.1-.1s0-.2.2-.2c.6 0 3.1 2.8 3.1 4.2 0 .1-.1.7-.5.7s-.5-.3-.5-.5l-.5-1.7c-2.8 1.3-6.1 2-7 2.2-.1 0-.2.2-.2.4s-.2.4-.4.4-.3-.1-.4-.4l-.5-1.8.8.1 1.2-.1c.3-.3 1-2.5 1.3-3.4l.6-2.4H10l-.2-.7H18zm-3.7 12h-4l-.2-.7h4.1v-3.3l1.2.2c.4 0 .5.2.5.4s-.1.3-.3.4c-.2.1-.3.2-.3.4v2h2.2l1.3-1.1 1.2 1c.1 0 .2.2.2.3 0 .3-.1.5-.5.5h-4.3v4.8c1.6-.5 3.2-1.2 4.7-1.9h.1c.2 0 .2.2.2.3 0 .1 0 .1-.1.2-2.7 1.7-5.8 3-9.2 3.7-.1 0-.2.2-.2.4 0 .3-.3.5-.4.5-.2 0-.3-.2-.4-.6l-.4-1.6H11c.8-.1 1.9-.3 3.4-.6v-5.3zm13.9-7.8c-.2 2.9-.7 6.7-2.6 9.9 1.1 1.5 2.5 3.4 5.2 4.4.1 0 .2.1.2.2s-.2.2-.5.3c-.3 0-.5.2-.6.5-.1.2-.1.3-.2.3h-.1c-1-.7-2.8-2.2-4.5-4.8-2.2 3.3-5.3 4.5-8 4.9H17c-.1 0-.2-.1-.2-.2s.1-.2.2-.2c5-1.5 7.1-4.8 7.5-5.6-1.3-2.7-2.1-6-2.3-7.7-.6 1.4-1.7 3.2-2 3.2-.1 0-.2-.1-.2-.2s0-.1.1-.2c.9-1.7 1.7-3.5 2.2-5.2.5-1.8.8-3.4.8-4.7l-.1-.6 1.3.1c.3 0 .5.1.5.3 0 .2-.1.3-.3.3-.2 0-.3.1-.3.2-.2 1.4-.6 2.9-1 4.2h4.6l1.4-1.3 1.4 1.1c.2.2.2.3.2.5 0 .3-.3.4-.5.4h-2.1zm-5.7 1.1c.4 2.2.9 4 1.5 5.4.3.8.6 1.5 1 2.2 1.6-3.2 2-6.6 2.1-8.7h-4.2l-.1.4-.3.7z"/><path id="XMLID_160_" class="st0" d="M33.9 183.7h6.3v-14.9h1v16h-7.3v-1.1z"/><path id="XMLID_162_" class="st0" d="M62 163.7h7.6v1.1H63v15.4h-1v-16.5z"/><path id="XMLID_164_" class="st0" d="M72.6 179.9l-.2-.7h2.2l-.7-14 1.2.7.9-.6c.4-.4.8-.8 1.1-1.3l1.1.5c.2.1.3.2.3.4s-.2.4-.4.4l-.5.1-.9.6-1.5.6.1 3.5h.5l1.3-1.3 1.2 1.2c.1.1.2.2.2.4 0 .3-.2.5-.5.5h-2.6l.2 3.8h.3l1.3-1.3 1.2 1.2c.1.1.2.2.2.4s-.2.5-.5.5h-2.4l.2 3.9h3.4v-15.3l1 .9h5.2l.5-.6 1 .7c.1 0 .1.1.1.3 0 .2-.2.4-.3.5-.1.1-.2.2-.2.4v13.2h3.2l.3-3.9h-2.3l-.2-.7h2.6l.3-3.8h-2.7l-.2-.7h2.9l.3-4h-2.9l-.1-.7h3.1l.6-.7.8.8c.2.1.3.3.3.5s-.1.3-.3.4c-.2.1-.3.2-.3.4l-.9 12.6 1.3-1.3 1.2 1.2c.1.1.1.2.1.4 0 .3-.2.5-.5.5H72.6zm6.8 1.1l1.1.6c.2.1.3.3.3.4 0 0 0 .3-.3.3h-.3c-.1 0-.2 0-.3.1-2 2.1-6 3.1-6.5 3.1-.1 0-.3 0-.3-.2 0-.1.1-.2.2-.2 2.8-.8 4.8-2.5 5.9-3.7l.2-.4zm.9-1.9h5.1v-13.7h-5.1v13.7zm2.4-11.4l1.1-1.1 1 1c.1.1.1.2.1.4s-.2.5-.5.5H81l-.2-.7h1.9zm-1.4 2.8l.5.4h2l.3-.5.6.5.1.3c-.1.2-.2.2-.3.4v5.3c0 .1-.1.2-.2.3-.5.1-.6.1-.6-.3v-1H82v.9c0 .1-.1.2-.2.2-.5.1-.6.1-.6-.3v-6.2zm.8 4.7h1.7v-3.6h-1.7v3.6zm4.2 6.5c2 .6 4.8 2.3 4.8 3.1 0 .3-.2.6-.5.6-.2 0-.4-.1-.6-.3-1.5-1.3-3.3-2.5-5.3-3.4-.1 0-.2-.1-.2-.2s.1-.2.3-.2l1.5.4z"/><path id="XMLID_172_" class="st0" d="M96.3 176.4v-1.1l1.4.2c.3 0 .5.2.5.4s-.1.3-.3.4c-.2 0-.3.1-.3.3l-.2 2.1c.7 1.4 1.1 2.1 1.8 2.8v-8.8h-3.7l-.2-.7h3.9v-3.6h-2.9l-.2-.7h3.1v-4.1l1.2.2c.4 0 .5.2.5.4s-.1.3-.3.4c-.2 0-.3.2-.3.4v2.7h.6l1.3-1.1 1.2 1c.1 0 .2.2.2.4 0 .3-.2.5-.5.5h-2.7v3.6h1l1.3-1.1 1.2 1c.1.1.2.2.2.4 0 .1 0 .5-.5.5h-3.2v4.2h.9l1.3-1.1 1.1.9c.2.2.2.3.2.5 0 .3-.3.4-.5.4h-3v4.7c2.3 1.3 5.7 1.6 10.2 1.6 1.8 0 3.6-.1 5.6-.2.1 0 .2 0 .2.1s-.1.2-.4.4c-.3.1-.4.4-.5.6 0 .3-.2.4-.3.4h-2.5c-10.5 0-13.5-1.1-15.5-5.7l-.1.8c-.3 1.9-.9 3.6-1.8 5.1-.1.1-.1.1-.2.1s-.2-.1-.2-.2v-.1c.8-2.2 1.1-4.7 1.1-5.4l.3-3.6zm13.4 6.7c0 .1-.1.2-.2.3-.8.2-.9.2-.9-.3v-4.5c-.6.5-1.3.9-2 1.2l-2 .8c-.1 0-.2.2-.2.5s-.2.5-.4.5-.3-.1-.4-.5l-.5-1.5h1.2l.5-.1v-13.2h-1.6l-.2-.7h6.6l1.5-1.3 1.4 1.2c.1.1.2.2.2.4 0 .3-.2.5-.5.5h-2.5v16.7zm-3.8-13.5h2.7v-3.5h-2.7v3.5zm0 4.5h2.7v-3.8h-2.7v3.8zm0 4.9c.8-.2 1.8-.7 2.7-1.1v-3.1h-2.7v4.2zm7.9-4.9c.3-1.4.5-3.1.7-5.1v-.3h-3.8l-.2-.7h3.9l.6-.8 1 .9c.2.1.2.3.2.4 0 .2-.1.3-.3.3-.2 0-.3.1-.3.3-.3 3.4-.7 5.3-1.4 7.2l.9 1.9c.3.7 1 2.4 1 3.5 0 .4-.2.7-.6.7-.5 0-.5-.5-.6-.7-.4-1.3-.8-2.6-1.3-4-1 2.4-3.1 4.2-3.2 4.2-.1 0-.2-.1-.2-.2 0 0 0-.1.1-.2 1-1.2 1.8-2.4 2.3-3.6l.5-1.4c-.7-1.6-1.4-3-2.2-4.2 0-.1-.1-.1-.1-.2s.1-.2.2-.2c0 0 .1 0 .2.1l1.6 2.1.8 1.2.2-1.2z"/><path id="XMLID_179_" class="st0" d="M119.4 183.7h6.3v-14.9h1v16h-7.3v-1.1z"/><path id="XMLID_181_" class="st0" d="M141.6 167.3l1 .9h1.2l.7-2.1.3-1.8v-.7l1.4.1c.3 0 .4.2.4.3s-.1.3-.2.3l-.3.2-.8 2.1-.8 1.6h3l.5-.8 1 .7c.1 0 .1.1.1.2 0 .3-.3.4-.3.5-.2.1-.3.2-.3.2v14.1c0 .1-.1.2-.2.3-.8.2-.9.2-.9-.3v-1.4h-4.7v2.2c0 .3-.3.4-.9.6-.2 0-.2-.2-.2-.6v-16.6zm1.1 7.4h4.7v-5.8h-4.7v5.8zm0 6.3h4.7v-5.5h-4.7v5.5zm11.9 2.3c1.1.4 2 .6 2.5.6s1-.8 1.2-1.4c.3-.6 1.2-4.3 1.2-13.8h-6.9l-.3.8c-1.1 2.7-2.6 4.5-2.8 4.5-.1 0-.2-.1-.2-.2s0-.1.1-.2c2.2-3.6 3.3-7.8 3.3-10.2l1.3.1c.3 0 .4.1.4.3 0 .2-.1.3-.3.3-.2 0-.3.1-.3.2-.3 1.2-.6 2.5-1 3.6h6.6l.6-.6.9.7c.1.1.2.2.2.3 0 .1-.1.3-.3.3-.3.1-.3.2-.3 1.2 0 6.4-.7 11.3-1.3 12.8-.8 1.9-1.5 2.4-2.9 2.5-.1-1-.8-1.4-1.9-1.6-.1 0-.2-.1-.2-.2.1.2.2 0 .4 0zm-2.5-10.4c0-.1 0-.2.2-.2.5 0 3.3 3.1 3.3 4.5 0 .2-.1.8-.5.8s-.5-.4-.6-.5c-.4-1.9-1.3-3.6-2.3-4.5-.1 0-.1 0-.1-.1z"/><path id="XMLID_187_" class="st0" d="M163.9 170.3l-.2-.7h6.6c0-.2-.6-1.8-1.2-2.1-.1 0-.1-.1-.1-.2s.1-.3.2-.3.8.3 1.3.8c.8.7.8.8.8 1.6h4.7c.4-.8.7-1.6.9-2.4l1.2.4c.3.1.4.2.4.4 0 .1 0 .4-.3.4-.2 0-.3 0-.4.1l-1 1.2h5l1.4-1.2 1.5 1.2c.1 0 .2.2.2.3 0 .3-.1.5-.5.5h-20.5zm2.6 9.4c.1 0 .1.1.1.2 0 2.4-1.1 5-2.3 5-.4 0-.6-.4-.6-.6 0-.2.1-.4.5-.7.7-.6 1.2-1.2 1.5-1.8.3-.6.5-1.2.5-1.9.1-.1.2-.2.3-.2zm-1.6-13.2l-.2-.7h8.6v-2.4l1.2.2c.4 0 .5.2.5.4s-.1.3-.3.4c-.2.1-.3.2-.3.4v1.1h6l1.4-1.2 1.5 1.1c.1.1.2.2.2.4 0 .3-.2.5-.5.5h-18.1zm14 5.4l.6-.6 1 .7c.1 0 .1.1.1.2 0 0 0 .3-.4.4-.2 0-.3.2-.3.3v5.8c0 .1-.1.3-.2.4-.7.2-.9.2-.9-.4v-.9h-10.2v.8c0 .1-.1.2-.3.3-.7.2-.9.2-.9-.4v-7.4l1 .7h10.5zm-10.2.7v1.8h10.2v-1.8h-10.2zm0 2.6v1.9h10.2v-1.9h-10.2zm.5 4l1.5.4c.2 0 .3.2.3.4s-.1.3-.3.3c-.2 0-.3.1-.3.3v3.3c0 .3.1.3.5.5h6.6c.7 0 1-.4 1.2-1.4l.2-1.5c0-.1.1-.2.2-.2s.2.1.2.2l.1 1.6c0 .5.2.9.4 1 .2.1.3.3.3.5 0 .5-.3.6-.8.8H170c-.5-.3-.7-.3-.7-1v-5.2zm5.8 2.8c-.7-1.4-1.6-2.4-2.2-2.6-.1 0-.2-.1-.2-.2s0-.2.2-.2c.4 0 3.2 1.5 3.2 2.8 0 .3 0 .6-.5.6-.2 0-.4-.2-.5-.4zm5.3-2.1c0-.1.1-.2.2-.2.6 0 3.4 2.8 3.4 4.2 0 .4-.2.7-.5.7s-.5-.1-.6-.4c-.5-1.9-1.5-3.6-2.4-4.1-.1-.1-.1-.2-.1-.2z"/><path id="XMLID_197_" class="st0" d="M189.5 178c.1 0 .2.1.2.2 0 3.3-1.3 5.6-2.2 5.6-.5 0-.6-.4-.6-.7 0-.1.2-.4.5-.6.8-.7 1.3-1.4 1.5-2.1.3-.7.5-1.5.5-2.2-.1-.2 0-.2.1-.2zm13.4-13.3l.6-.6 1 .7c.1 0 .1.1.1.2s0 .3-.3.4c-.2 0-.3.1-.3.3v10.2c0 .1-.1.3-.2.4-.7.2-.9.2-.9-.4v-1.1h-12.2v.9c0 .3-.3.4-.9.6-.2 0-.2-.2-.2-.6v-11.8l1 .9h12.3zm-6.6.7h-5.5v3.9h5.5v-3.9zm-5.6 4.6v4h5.5v-4h-5.5zm2.2 7l1.5.5c.2 0 .3.1.3.3 0 .2-.1.3-.3.3-.2 0-.3.1-.3.3v5.1c0 .3.1.3.4.4h6.1c.6 0 1-.4 1.3-1.5l.3-1.8c0-.1.1-.2.2-.2s.2.1.2.2l-.1 1.8c0 .6.1 1 .4 1.2.2.1.3.3.3.5 0 .4-.3.6-.8.8h-8.8c-.5-.3-.7-.3-.7-1V177zm6.7 2.1c0 .1-.1.5-.5.5-.2 0-.4-.1-.5-.3-.5-.8-1.6-2.4-2.8-2.9-.1 0-.2-.1-.2-.2 0-.2.1-.3.2-.3.5 0 3 1.3 3.6 2.5l.2.7zm-2.2-9.8h5.5v-3.9h-5.5v3.9zm0 .7v4h5.5v-4h-5.5zm5.6 8.1s.1-.2.2-.2c.5 0 3.6 3.3 3.6 4.9 0 .1 0 .8-.5.8s-.5-.4-.6-.5c-.6-2.5-1.9-4.3-2.7-4.9v-.1z"/><path id="XMLID_207_" class="st0" d="M222.5 174.5c0 1.5-1.4 2.9-2.8 2.9-1.5 0-2.8-1.4-2.8-2.9 0-1.6 1.2-3 2.8-3 1.3.1 2.8 1.3 2.8 3zm-2.8-2.1c-1.1 0-2 .9-2 2.1 0 1 .7 2.1 2 2.1 1 0 2-1 2-2.1 0-.6-.2-1.1-.6-1.5-.4-.4-.8-.6-1.4-.6z"/></g></svg>