<svg xmlns="http://www.w3.org/2000/svg" viewBox="0 0 760 640"><path fill="none" stroke="#999" stroke-width="2" stroke-miterlimit="10" d="M20.5 601h340m40 0h340"/><path fill="#999" d="M19.5 593h2v16h-2zm720 0h2v16h-2z"/><path d="M375.2 610v-4.2H368v-1.4l7-10h2.3v9.7h2.2v1.7h-2.2v4.2h-2.1zm0-5.9v-5.2c0-.8 0-1.6.1-2.4h-.1c-.5.9-.9 1.6-1.3 2.3L370 604h5.2zm15-7.9h-6l-.6 4c.4 0 .7-.1 1.3-.1 1.2 0 2.4.3 3.4.8 1.2.7 2.2 2 2.2 4 0 3-2.4 5.3-5.8 5.3-1.7 0-3.1-.5-3.9-1l.5-1.6c.6.4 1.9.9 3.3.9 2 0 3.7-1.3 3.7-3.4 0-2-1.4-3.5-4.5-3.5-.9 0-1.6.1-2.2.2l1-7.5h7.5v1.9z"/><path fill="none" stroke="#999" stroke-width="2" stroke-miterlimit="10" d="M20.5 578h220m40 0h220"/><path fill="#999" d="M19.5 570h2v16h-2zm480 0h2v16h-2z"/><path d="M249.1 584.6c.6.4 2 1 3.5 1 2.7 0 3.6-1.7 3.5-3 0-2.2-2-3.1-4-3.1h-1.2v-1.6h1.2c1.5 0 3.5-.8 3.5-2.6 0-1.2-.8-2.4-2.7-2.4-1.2 0-2.4.6-3.1 1l-.6-1.5c.8-.6 2.4-1.2 4.1-1.2 3.1 0 4.5 1.8 4.5 3.7 0 1.6-1 3-2.9 3.7 1.9.4 3.5 1.8 3.5 4 0 2.5-1.9 4.7-5.7 4.7-1.8 0-3.3-.6-4.1-1.1l.5-1.6zm22.2-5.6c0 5.3-2 8.2-5.4 8.2-3 0-5.1-2.9-5.2-8 0-5.2 2.3-8.1 5.4-8.1 3.3 0 5.2 3 5.2 7.9zm-8.5.3c0 4.1 1.2 6.4 3.2 6.4 2.2 0 3.2-2.5 3.2-6.5 0-3.8-1-6.4-3.2-6.4-1.8 0-3.2 2.2-3.2 6.5z"/><g><path fill="none" stroke="#999" stroke-width="2" stroke-miterlimit="10" d="M500.5 578h100m40 0h100"/><path fill="#999" d="M499.5 570h2v16h-2zm240 0h2v16h-2z"/><path d="M613.2 573.4l-2.8 1.5-.4-1.6 3.4-1.8h1.8V587h-2v-13.6zm17-.2h-6l-.6 4c.4 0 .7-.1 1.3-.1 1.2 0 2.4.3 3.4.8 1.2.7 2.2 2 2.2 4 0 3-2.4 5.3-5.8 5.3-1.7 0-3.1-.5-3.9-1l.5-1.6c.6.4 1.9.9 3.3.9 2 0 3.7-1.3 3.7-3.4 0-2-1.4-3.5-4.5-3.5-.9 0-1.6.1-2.2.2l1-7.5h7.5v1.9z"/></g><g><path fill="none" stroke="#999" stroke-width="2" stroke-miterlimit="10" d="M660.5 58h30m20 0h30"/><path fill="#999" d="M659.5 50h2v16h-2zm80 0h2v16h-2z"/><path fill="none" d="M694.5 46.5h13.9v30.4h-13.9z"/><path d="M704.9 52.8h-6l-.6 4c.4 0 .7-.1 1.3-.1 1.2 0 2.4.3 3.4.8 1.2.7 2.2 2 2.2 4 0 3-2.4 5.3-5.8 5.3-1.7 0-3.1-.5-3.9-1l.5-1.6c.6.4 1.9.9 3.3.9 2 0 3.7-1.3 3.7-3.4 0-2-1.4-3.5-4.5-3.5-.9 0-1.6.1-2.2.2l1-7.5h7.5v1.9z"/><g><path fill="none" stroke="#999" stroke-width="2" stroke-miterlimit="10" d="M516.5 58h62m20 0h62"/><path fill="#999" d="M515.5 50h2v16h-2zm144 0h2v16h-2z"/><path d="M583.8 65.5c.5 0 1 0 1.7-.1 1.2-.2 2.4-.7 3.3-1.5 1-.9 1.8-2.3 2.1-4.2h-.1c-.9 1.1-2.1 1.7-3.7 1.7-2.8 0-4.6-2.1-4.6-4.8 0-3 2.1-5.5 5.3-5.5s5.2 2.6 5.2 6.6c0 3.4-1.2 5.8-2.7 7.3-1.2 1.2-2.9 1.9-4.5 2.1-.8.1-1.4.1-1.9.1v-1.7zm.8-9c0 1.9 1.2 3.3 3 3.3 1.4 0 2.5-.7 3.1-1.6.1-.2.2-.4.2-.8 0-2.7-1-4.7-3.2-4.7-1.8 0-3.1 1.6-3.1 3.8z"/></g></g><g><path fill="#eee" d="M516.5 177.1h144v144h-144z"/><path fill="none" stroke="#999" stroke-width="2" stroke-miterlimit="10" d="M516.5 321h144m-144-144h144"/><path fill="#eee" d="M516.5 352.1h144v144h-144z"/><path fill="none" stroke="#999" stroke-width="2" stroke-miterlimit="10" d="M516.5 496h144m-144-144h144"/><path fill="#eee" d="M660.5 321.1h80v80h-80z"/><path fill="none" stroke="#999" stroke-width="2" stroke-miterlimit="10" d="M660.5 321h80m-80 80h80"/><g><path fill="#eee" d="M516.5 128h144v32h-144z"/><path fill="none" stroke="#999" stroke-width="2" stroke-miterlimit="10" d="M516.5 128h144m-144 32h144"/></g><g fill="none" stroke="#ccc" stroke-miterlimit="10"><path d="M180 560V80m161 480V80M20.5 239.5h480m-480 161h480"/></g><g fill="none" stroke="#999" stroke-width="2" stroke-miterlimit="10"><path d="M20.5 80.1h720v480h-720z"/><path d="M20.5 80.1h480v480h-480zM660.5 560V80m-144 480V80"/></g></g><g><path d="M546.6 207.8c3.1 0 7.7-.6 13.9-1.7 12.5-2.7 27.3-4.9 44-7 12.7-1.7 19.8-3.1 21.4-4.4.8-.3 2.1-.4 3.9-.4 1.5 0 3.1.6 4.9 1.8 3.8 2.8 5.8 5.2 5.8 7.3 0 1-.7 1.5-2.2 1.5-.1 0-1.7-.1-4.5-.3-2.4-.4-3.7-.7-3.9-.7-6.5 0-17.2 1-32.2 3.1 2 2.1 3 3.9 3 5.2s-.3 2.8-.7 4.6c-1.1 3.9-1.4 18.4-.8 43.3.4 21 .1 33.3-.6 37-.8 2.8-2 4.2-3.5 4.2-1.3 0-3-2.1-4.9-6.2s-3-7.5-3-9.8c0-1.3.4-3.7 1.3-7 .7-2.2 1-17.2 1-44.6 0-11.4-1.1-19.7-3.2-25-13.2 2.1-22.8 4.2-28.8 6.6-3.1 1.3-5.2 2-6.2 2-2.4 0-5.5-1.3-9.6-3.7-3.4-2.4-5.1-4.4-5.1-5.9 0-.7.6-1.1 1.7-1.1h1.7c2.6.8 4.9 1.2 6.6 1.2zm50.2 205.8c17-1.8 28.1-3.7 33.2-5.5 2.5-1.3 4.1-1.7 4.5-1.5 1.1-.1 3.5 1.3 7 4.4 2.5 2.5 3.8 4.4 3.8 5.5l.1.3c0 1-.6 1.4-1.8 1.4h-2.4c-1.7-.1-3.7.4-5.8.4-5.3-.1-14.2.6-26.7 2-19.3 2.1-36.1 3.8-50.9 4.9-6.3.1-11 1-14.2 2.2-2.1.6-3.2.8-3.7.8-2 0-4.4-1.4-7.2-4.4s-4.2-5.5-4.4-7.6l-.1-.4c-.1-1.4.3-2.1 1.5-2.1l.1-.1c.1 0 1.7.3 2.4.4 3.2 1.3 9 2 17.4 2 14.4-.1 30.1-.9 47.2-2.7zm-387.4-136c.2-3.6.4-8.5.7-14.6.3-6.2.5-14.9.5-26.1-.2-7.2-.4-12.9-.8-17.1-.4-4.2-1-8.1-1.9-11.7-.9-3.6-1.6-6.2-2.2-7.7l-2.6-5.9c-2.7.3-5 .5-7 .7-2 .2-5.8.5-11.4 1.1-5.5.5-10 .7-13.5.6-7.3-.2-14.6-1.3-21.7-3.4-7.1-2.1-11.8-4.5-13.9-7.3-2.2-2.7-2.9-4.8-2.1-6.1.8-1.3 3.1-2.1 7-2.5l12-.9c10.5-.8 16.5-1.2 18-1.4l28.8-2.1c12.2-.9 25.5-2.3 40.1-4.2l53-7c14.5-1.7 24.8-3.4 30.9-4.9l15-3.5 14.1-3.5c3.3-.3 6.4-.1 9.3.7 2.9.8 6.8 2 11.6 3.6s8.8 3.3 12 4.9c3.1 1.6 4.6 3.3 4.6 5-.1 1.7-1.4 3.8-4 6.1s-8.4 4.1-17.5 5.4l-14.8 2.1c-13.8 2-22.3 3.2-25.5 3.5l-12.9 1.4-12.9 1.6c3.8 1.7 7 3.5 9.6 5.3 2.7 1.8 4.1 3.5 4.5 5.2.3 1.6 0 3.8-.9 6.4-.8 2.2-1.6 4.5-2.3 7-.8 2.5-1.5 5.5-2.1 9-.6 3.5-1.1 8.4-1.4 14.6-.3 6.3-.5 9.5-.5 9.8l-1.6 26c6.9-.5 13.2-.9 18.9-1.3 5.7-.4 10-.8 13-1.3s11.5-1.8 25.7-4.1c14.1-2.3 24.6-4.5 31.5-6.8 6.9-2.3 11.8-3.2 14.8-2.9 1.7.3 4.5 1.3 8.2 3 3.8 1.7 9 4.5 15.8 8.2s11.9 7.1 15.2 10.2c3.4 3 5.1 5.5 5.3 7.3.2 1.8-.3 3.9-1.4 6.2l-7.5 11c-1.4 2-2.5 4.1-3.3 6.3-.8 2.2-1.4 5-1.9 8.4l-15.9 116c-1.1 7.7-2.6 14.3-4.6 20-2 5.7-4.8 11.7-8.6 17.9s-7.2 10.6-10.3 13.1c-3.1 2.5-5.5 3.6-7 3.3-1.7-.2-3.3-1.1-4.7-2.7s-3.6-6-6.6-13.1c-3-7.1-6.3-13.6-10.1-19.6l-5.4-8.2-47.1 1.6-117.6 9.5-55.8 3.5-.5 8c-.3 3.9-1.1 6.7-2.3 8.4-1.3 1.7-2.5 2.8-3.6 3.2-1.2.4-2.7.1-4.6-.8-2.2-.9-4.3-3-6.4-6.2s-3.4-7.1-3.9-11.8l-14.1-118.4c-.6-4.7-1.5-9.7-2.7-15.1s-2.7-10-4.6-13.9c-1.9-3.9-4.5-7.7-7.9-11.4-3.4-3.7-5-6.4-5-8.3s.7-3.5 2.1-4.8c1.4-1.3 3.4-2.2 5.9-2.6 2.5-.4 5.5-.4 8.9-.1 5 .6 9.1 1.4 12.2 2.3l11 3.5 76.7-7.6zm95.1 36.4c-.5 7.5.2 13.8 1.9 18.8s4 8.6 6.8 10.9c2.8 2.3 7 3.5 12.4 3.6 1.4.2 4.1.1 8.1-.1s6.7-.4 8.1-.6c1.4-.2 4.2-.7 8.3-1.8 4.1-1 7.3-1.4 9.5-1.3 1.9.3 4 1 6.3 2s4.8 2.5 7.3 4.5 4.3 4.3 5.5 7c1.2 2.7 1.4 4.9.8 6.4-.8 1.9-3.9 3.4-9.3 4.7-5.4 1.3-11.2 1.9-17.5 1.9l-24.1.5c-6.4.2-13-.7-19.7-2.7-6.7-2-11.7-4.7-15-8.3-3.3-3.6-5.9-7.9-8-13-2-5.1-3.4-10.3-4-15.6-.6-5.3-.8-11.8-.5-19.5l.7-26.2c-7 .8-13.7 1.5-19.9 2.1-6.3.6-13.3 1.3-21.1 2.1l-9.4.9c-.8 5.8-1.6 11.3-2.5 16.6-.9 5.3-2.7 11.9-5.6 19.8-2.9 7.9-6.4 15.1-10.4 21.6-4.1 6.5-8.2 11.8-12.3 16.1-4.1 4.2-8.4 8-12.8 11.2l-8.9 6.6c-2.3 1.7-4.1 2.2-5.2 1.5-1.1-.7-1.6-1.4-1.4-2.2.2-.8 1.2-2.6 3.3-5.4l4.7-6.3c2-2.7 4.1-5.8 6.3-9.4 2.2-3.6 4.8-9.2 8-16.8 3.1-7.6 5.6-14.7 7.5-21.3 1.9-6.6 3.4-14.6 4.7-23.8l.7-5.4c-4.2.6-7.3 1-9.4 1.2l-15.7 1.6L136 302l.5 9.8 11.2 120.5 120.9-8.2 46.4-5.2c18.9-1.9 31.2-3.3 36.8-4.2s9.8-1.4 12.4-1.4c3.6.2 8 1.1 13.1 2.8 5.2 1.7 8.9 3.3 11.2 4.7l6.3 4 8.9-56 4.9-67c0-1.7.1-5 .4-10s-.4-8.4-2-10.4c-1.1-1.1-2.9-2.1-5.3-2.9-2.4-.9-5.8-1.3-10.1-1.4-4.3-.1-6.8-.1-7.4-.1-3 .2-16.4 1.2-40.3 3l-28.4 2.1-9.4.9-1.6 31zm-21.8-43.6l1.2-53.9c0-5-.2-9.1-.7-12.3-.5-3.2-1.2-7.2-2.1-12.1l-1.2-5.2c-5 .6-11 1.3-17.9 2-7 .7-13.2 1.3-18.9 1.8l-15.5 1.4c3.6 1.7 6.2 3.3 7.7 4.8 1.6 1.5 2.5 2.9 2.8 4.3.3 1.4.1 3.6-.7 6.6-.8 3-1.3 5.2-1.4 6.8-.2 1.6-.3 7.7-.5 18.3l-1.4 22.3-.5 10.1-.7 10.1 49.8-5z"/></g></svg>