<svg xmlns="http://www.w3.org/2000/svg" width="391.666" height="175" viewBox="0 0 391.666 175"><path d="M59.665 32.618l-.16-.72h2.19l-.66-13.97 1.184.72.885-.648c.41-.384.82-.768 1.07-1.296l1.14.504c.23.072.32.216.32.36 0 .168-.16.384-.387.384l-.548.144-.89.6-1.55.647.138 3.457h.547l1.255-1.296 1.162 1.152c.114.096.16.24.16.384 0 .264-.228.48-.456.48H62.42l.183 3.77h.342l1.255-1.273 1.162 1.152c.114.07.16.214.16.36 0 .24-.205.502-.456.502H62.63l.228 3.864h3.352V16.583l1.003.864h5.22l.547-.624 1.026.744c.09.048.137.144.137.264 0 .218-.16.386-.32.458-.136.072-.227.216-.227.36v13.25h3.192l.25-3.865h-2.304l-.183-.744h2.555l.296-3.77h-2.665l-.183-.72h2.92l.273-3.96h-2.918l-.138-.72h3.077l.593-.72.8.77c.158.12.25.286.25.454 0 .192-.092.336-.274.384-.182.072-.296.216-.296.36l-.89 12.553h.046l1.254-1.32 1.186 1.153c.09.096.137.24.137.36 0 .264-.182.504-.455.504l-20.45.002zm6.77 1.128l1.073.648c.182.12.296.264.296.408 0 .024-.046.312-.32.312l-.317-.048c-.09 0-.183.024-.25.072-2.03 2.136-5.996 3.144-6.452 3.144-.137 0-.25-.048-.25-.192 0-.12.068-.192.182-.24 2.805-.792 4.833-2.473 5.86-3.72l.18-.384zm.913-1.85h5.106V18.193h-5.106v13.705zm2.416-11.447l1.117-1.106 1.005.96c.09.096.137.24.137.36 0 .216-.16.528-.455.528h-3.35l-.16-.744h1.71zm-1.413 2.805l.55.384h1.96l.342-.457.64.48.09.264c-.137.216-.16.24-.296.408v5.28c0 .12-.068.24-.205.288-.5.12-.57.144-.57-.264v-.96h-1.73v.935c0 .096-.07.192-.16.24-.548.12-.617.144-.617-.264v-6.335zm.776 4.704h1.73v-3.6h-1.73v3.6zm4.24 6.53c2.007.6 4.787 2.303 4.787 3.12 0 .287-.205.6-.523.6-.206 0-.39-.097-.616-.337-1.46-1.344-3.283-2.497-5.312-3.433-.138-.047-.183-.143-.183-.24.02-.12.112-.167.25-.167l1.595.457zm23.69-11.21l1.253-.503.75 1.056c.07.096.09.192.09.264 0 .264-.34.264-.48.264l-.5.098c-1.253 1.008-2.575 1.848-3.965 2.424 0 .29 0 .457-.296.48-.207.05-.298.145-.298.29v2.183h6.68l1.436-1.272 1.458 1.153c.114.072.184.216.184.384 0 .336-.273.456-.524.456h-9.23v6.36c0 .288-.185.6-.503.937-.296.312-.91.528-1.732.624 0-.937-.98-1.368-1.64-1.656-.16-.047-.23-.143-.23-.24 0-.215.183-.215.32-.167l2.143.36.388-.048.115-.288v-5.88h-9.482l-.183-.72h9.666v-3.432l1.072.144c1.368-.697 2.6-1.56 3.67-2.545H86.3l-.342-.72h11.097zM85.29 19.97l-.205 1.128c-.16.576-.73 2.232-1.62 2.232-.387 0-.592-.24-.592-.672 0-.144.182-.36.48-.6.843-.84 1.618-1.848 1.687-3.72 0-.096.067-.168.183-.168.09 0 .16.072.16.168v.912h7.09v-3.072l1.186.216c.34.048.5.192.5.384s-.113.336-.272.384c-.183.072-.273.192-.273.36v1.728h7.66l.73-.816.818 1.128c.138.144.23.288.23.456 0 .192-.115.456-.388.456-.068 0-.343-.048-.41-.048-.16 0-.297.048-.388.144-.435.552-1.824 2.16-2.053 2.16-.113 0-.205-.12-.205-.24 0-.048.02-.072.02-.096.594-.792 1.07-1.608 1.438-2.424H85.292zm25.42 4.32c-2.37 3.432-4.766 5.255-4.97 5.255-.114 0-.183-.096-.183-.192 0-.072.043-.144.112-.216 1.87-1.848 3.51-3.913 4.787-6.12l1.526-2.857h-6.224l-.183-.744h6.724c.798-1.776.89-2.064 1.05-2.953l1.253.48c.25.072.365.216.365.36 0 .312-.137.312-.48.312-.113 0-.182.024-.204.072l-.8 1.73h9.575l1.437-1.25 1.46 1.128c.113.072.18.216.18.384 0 .31-.227.48-.522.48h-12.493c-.547 1.08-1.163 2.134-1.824 3.12l.41.36h9.69l.502-.65.89.77c.183.143.296.31.296.503 0 .168-.115.336-.297.408-.182.073-.25.193-.25.29v12.024c0 .672-.455 1.152-2.074 1.464l-.273-.673c-.137-.216-.66-.456-1.504-.744-.16-.047-.228-.143-.228-.287.02-.12.09-.168.205-.168h.067c.8.12 1.392.192 1.824.192.478 0 .842-.05.842-.6v-3.84h-9.552v5.615c0 .288-.205.336-.912.528-.16 0-.228-.168-.228-.528l.002-13.656zm1.14.07v3.12h9.553v-3.12h-9.552zm0 3.866v3.384h9.553v-3.384h-9.552zm18.265-7.466l1.14 1.008h6.862v-3.48h-9.395l-.183-.744h17.667l1.435-1.272 1.46 1.152c.113.072.183.216.183.384 0 .312-.23.48-.525.48h-9.506v3.48h7.157l.5-.648.89.768c.184.144.296.312.296.48 0 .192-.113.36-.296.432-.182.072-.272.192-.272.288V36.89c0 .528-.365 1.2-2.053 1.464l-.273-.624c-.137-.192-.66-.432-1.527-.696-.137-.048-.205-.144-.205-.288.022-.12.09-.168.183-.168h.046c.66.072 1.208.12 1.62.12.75 0 1.093-.072 1.093-.624V22.49h-7.16v15.24c0 .288-.5.456-.865.456-.182 0-.272-.144-.272-.456V22.49h-6.862v15.456c0 .288-.204.336-.934.528-.138 0-.205-.168-.205-.528l-.004-17.186zm5.357 4.368c.114.072.184.168.184.288 0 .168-.138.384-.39.384-.204.024-.295.144-.295.288.137.984.388 1.896.707 2.736.23.624.775 2.16 2.098 3.24.16.264.16.264-.296.312-.272.024-.5.192-.615.456-.092.192-.183.312-.25.312-.047 0-.616-.864-1.05-1.968l-.593-1.872c-.89 2.208-2.78 3.792-2.895 3.792-.094 0-.16-.144-.16-.216 0-.048.02-.072.043-.096 1.55-1.705 2.645-4.945 2.645-5.593l-.16-1.414h-2.234l-.137-.72h2.165l.5-.576.73.648zm8.275-.095c.11.072.18.192.18.312 0 .168-.16.36-.387.384-.184 0-.296.12-.296.262.137.984.364 1.896.614 2.736.64 1.823 1.3 2.567 2.03 3.24.137.215.206.335-.296.335-.25 0-.502.168-.64.408-.09.193-.182.313-.25.313-.067 0-.66-1.032-1.002-1.968l-.5-1.728c-.82 1.967-2.873 3.768-3.033 3.768-.09 0-.16-.144-.16-.216 0-.05.022-.097.044-.12 1.528-1.537 2.804-4.777 2.804-5.497l-.138-1.584h-2.302l-.16-.72h2.28l.5-.577.71.647zm10.032-.456c-.775 1.44-2.166 3.36-2.395 3.36-.068 0-.183-.048-.183-.192 0-.072.022-.144.067-.216 2.738-4.13 3.923-8.81 3.923-11.043l1.3.168c.318.024.48.168.48.36s-.138.288-.32.288-.296.072-.296.168c-.388 1.753-.958 3.48-1.664 5.16.615.217.685.217.685.41 0 .095-.068.215-.205.263-.16.096-.25.216-.25.312v14.497c0 .144-.092.24-.274.288-.73.193-.866.217-.866-.287V24.577zm4.718-8.04l1.23 1.104h10.258l.548-.766 1.05.72c.066.048.09.12.09.24 0 .288-.183.432-.32.456-.16.07-.227.167-.227.24v19.225c0 .12-.116.24-.25.312-.754.192-.89.216-.89-.288v-1.226h-10.35v1.488c0 .288-.253.36-.914.528-.16 0-.228-.19-.228-.527V16.537zm1.14 19.296h10.352V18.36h-10.35v17.473zm2.074-9.72l1.003.72h1.573v-3.505h-3.512l-.182-.72h3.693v-3.264l1.184.24c.342.048.5.192.5.384s-.113.312-.295.36c-.16.072-.25.216-.25.384v1.896h1.366l1.253-1.296 1.185 1.152c.114.096.16.24.16.384 0 .216-.16.48-.48.48h-3.487v3.504h1.437l.523-.816.912.672c.137.096.183.264.183.408-.022.144-.113.264-.25.312-.138.072-.23.168-.23.264v6.05c0 .31-.09.335-.842.55-.183 0-.295-.167-.295-.55v-1.2h-4.035v.91c0 .12-.068.24-.25.337-.776.19-.867.214-.867-.386V26.11zm1.12 5.688h4.034v-4.246h-4.035V31.8zm16.598-11.064l1.322-1.08 1.186.96c.092.072.16.216.16.36 0 .312-.228.48-.5.48h-7.228l-.16-.72h5.22zm-.8 6.744l1.323-1.08 1.163.96c.113.072.183.216.183.384 0 .312-.227.48-.5.48h-5.61l-.18-.744h3.624zm-3.577 2.474l1.003.72h3.625l.5-.816.913.672c.137.096.183.264.183.408-.024.144-.115.288-.253.336-.113.048-.205.144-.205.24v5.856c0 .312-.09.336-.843.552-.184 0-.297-.168-.297-.552v-1.176h-3.488v1.56c0 .12-.09.24-.273.336-.775.192-.866.216-.866-.384l-.002-7.752zm3.487-5.738l1.32-1.08 1.164.96c.114.072.184.192.184.36 0 .216-.114.48-.5.48h-5.427l-.183-.72h3.442zm.09-6.863l1.323-1.08 1.163.984c.113.048.183.192.183.36 0 .312-.227.48-.5.48h-5.45l-.16-.744h3.444zm-2.438 18.097h3.488v-4.057h-3.488v4.057zm10.873 1.128c.16.096.25.24.25.36 0 .096-.09.36-.34.36-.047 0-.39-.072-.457-.072-.774.336-1.687.648-2.713.84-1.048.216-1.915.288-2.6.288-.183 0-.272-.048-.272-.192s.045-.24.16-.24c1.732-.096 4.467-1.2 5.06-1.944l.912.6zm-3.692-15.674l-.183-.72h4.674v-1.44h-5.472l-.183-.72h5.656V16.08l1.185.216c.366.048.5.192.5.384s-.09.336-.27.384c-.273.096-.273.192-.273.96h3.214l1.44-1.272 1.46 1.152c.11.072.156.192.156.336 0 .048 0 .096-.02.144-.023.216-.206.36-.48.36h-5.768v1.44h2.143l1.438-1.272 1.46 1.152c.112.072.18.192.18.36 0 .288-.204.48-.52.48h-10.332zm9.94 1.248l.5-.84.912.696c.137.096.183.264.183.384-.022.144-.113.288-.25.336-.14.072-.23.168-.23.264v3.984c0 .288-.09.312-.843.528-.184 0-.273-.168-.273-.528v-.816h-9.552c0 .744 0 .816-.273.96-.776.192-.868.216-.868-.384v-5.328l1.003.744h9.688zm-9.552 3.265h2.417v-2.544h-2.417v2.544zm.364 1.537l1.003.72h6.108l.594-.648 1.05.72c.09.048.136.144.136.24 0 .024 0 .288-.365.384-.183.048-.272.168-.272.288v7.057c.047.288-.16.336-.796.504-.32 0-.32-.218-.32-1.154h-5.995c0 .744 0 .816-.273.96-.73.192-.866.216-.866-.384l-.002-8.69zm1.14 1.44v1.536h5.997v-1.536h-5.996zm0 2.255v1.44h5.997v-1.44h-5.996zm0 2.16v1.51h5.997v-1.51h-5.996zm2.05-7.394h2.418v-2.544h-2.417v2.544zm3.08 10.85c1.663.047 4.24.72 4.24 1.655 0 .265-.206.553-.48.553-.158 0-.365-.072-.594-.192-1.71-.983-3.646-1.44-4.422-1.607-.135-.024-.226-.12-.226-.24s.067-.168.205-.168h1.277zm.478-10.85h2.438v-2.544h-2.438v2.544zm6.728.264l-.182-.72h11.924c.32-.575.662-1.27.96-2.015l.522-1.776.092-.746 1.344.408c.23.096.343.216.343.36 0 .312-.25.312-.295.312l-.342.12-1.05 1.968-.91 1.368h4.99l1.437-1.27 1.46 1.15c.114.073.184.217.184.36 0 .265-.186.48-.526.48h-19.95zm.89-6l-.184-.72h8.435v-2.687l1.162.216c.364.046.522.19.522.382s-.114.336-.296.384c-.182.048-.273.192-.273.36v1.344h5.7l1.46-1.27 1.436 1.15c.112.073.184.217.184.36 0 .265-.183.48-.5.48h-17.646zm2.987 7.73l.865.648h9.71l.595-.672 1.047.744c.093.048.14.12.14.216s-.092.336-.365.408c-.16.048-.273.168-.273.288v9.12c.02.145-.094.265-.23.337-.685.19-.89.24-.89-.338v-1.128h-9.46v.912c0 .12-.092.24-.272.336-.753.168-.868.192-.868-.384l-.002-10.49zm2.187-3.386c-.16-1.25-.73-2.544-1.3-3.048-.067-.048-.092-.12-.092-.192 0-.072.068-.192.205-.192.547 0 2.304 2.304 2.304 2.977 0 .406-.068.934-.55.934-.293 0-.522-.264-.567-.48zm-1.048 4.752v3.312h9.46v-3.312h-9.46zm0 4.034v3.504h9.46V32.81h-9.46zm26.104-2.017c1.027-.744 2.19-1.944 2.19-3.528-.253.144-.48.24-.753.24-1.002 0-1.642-.768-1.642-1.584 0-.934.547-1.726 1.644-1.726.89 0 1.96.6 1.96 2.4 0 1.92-1.275 3.433-3.056 4.705l-.34-.506zm32.74 5.905c0 .72-.64 1.224-2.076 1.488-.068-.816-.48-1.128-1.87-1.608-.16-.048-.204-.144-.204-.24 0-.048 0-.192.185-.192h.063c1.027.192 1.78.288 2.19.288.226 0 .57 0 .57-.552V29.33h-6.247v8.496c0 .36-.822.456-.867.456-.186 0-.274-.144-.274-.456v-8.52h-6.313c0 1.08-.64 3.983-1.392 5.64-.456 1.032-1.62 3.216-2.027 3.216-.113 0-.16-.144-.16-.216 0-.048.022-.096.047-.144 1.73-3 2.804-6.36 2.804-16.01v-5.16l1.027.816h13.403l.525-.648.89.768c.182.144.294.312.294.504s-.11.336-.294.408c-.184.072-.272.192-.272.288v17.93zm-8.527-12.89h-5.95c-.044 1.73-.136 3.36-.27 4.8h6.224v-4.8h-.002zm0-5.616h-5.903v4.896h5.903v-4.896zm1.14 4.896h6.247v-4.896h-6.246v4.896zm0 5.52h6.247v-4.8h-6.246v4.8zm14.866-4.92c-1.162 2.016-2.688 3.696-2.918 3.696-.065 0-.182-.096-.182-.192 0-.072.045-.144.09-.216 3.01-3.96 4.492-8.545 4.674-10.705l1.277.266c.295.048.432.168.432.336 0 .097 0 .337-.317.337-.187 0-.297.047-.297.12-.525 1.727-1.21 3.383-2.01 4.967.776.264.868.288.868.456 0 .097-.066.217-.23.29-.16.095-.25.215-.25.287v14.69c0 .143-.09.263-.27.287-.73.192-.868.216-.868-.288V23.687zm9.098-2.903h-2.232l-.662 1.56c-1.07 2.257-2.758 4.37-3.078 4.37-.112 0-.182-.097-.182-.193 0-.072.045-.144.092-.216 2.69-3.696 3.715-7.993 3.92-9.53V16.2l1.322.194c.296.048.433.192.433.384s-.137.312-.297.312c-.182 0-.317.047-.317.143-.25.936-.57 1.92-.94 2.856h7.98l1.415-1.274 1.39 1.08c.138.144.228.312.228.456 0 .168-.09.456-.454.456h-7.48v4.607h4.105l1.412-1.25 1.366 1.08c.16.145.252.313.252.457 0 .288-.205.456-.457.456h-6.68v4.513h4.105l1.412-1.27 1.366 1.08c.16.144.253.336.253.48 0 .29-.205.432-.457.432h-6.678v6.72c0 .337-.822.433-.867.433-.18 0-.27-.144-.27-.432v-17.33zm17.237 14.76c1.46-.264 2.826-.625 4.015-.984.045 0 .067-.022.112-.022.298 0 .298.336.298.384 0 .097-.048.193-.16.217-3.715 1.487-7.797 2.16-9.097 2.303-.092 0-.184.145-.207.385-.02.24-.157.384-.342.384-.205 0-.362-.12-.432-.385l-.23-.912-.25-.888.98.12c.936.024 2.78-.12 4.172-.36v-2.592h-4.582l-.184-.744h4.766V29.98h-3.055v1.128c0 .12-.09.216-.25.312-.752.192-.89.216-.89-.36v-8.52l1.004.743h3.19v-1.99h-4.765l-.186-.745h4.947v-2.088h-.114c-1.524.192-2.85.288-3.988.288-.48 0-.684 0-.684-.288 0-.168.09-.264.25-.264 3.283-.264 6.748-.864 8.55-1.92l1.186.672c.158.096.25.216.25.312 0 .12-.16.336-.41.336-.067 0-.41-.096-.478-.096s-.114 0-.14.024c-1 .337-2.097.6-3.28.77v2.255h2.484l1.46-1.272 1.435 1.152c.115.072.187.216.187.384 0 .31-.23.48-.502.48h-5.062v1.99h3.03l.595-.67 1.05.72c.09.047.137.143.137.24 0 .12-.092.335-.365.407-.183.048-.298.168-.298.288v6.673c.022.144-.066.288-.205.36l-.365.072 1.188.96c.112.07.182.215.182.383 0 .312-.23.48-.522.48h-4.423v2.352zM294.137 24h-3.054v2.28h3.055V24zm0 2.978h-3.054v2.304h3.055v-2.304zm1.14-.697h3.056V24h-3.056v2.28zm0 3.003h3.056V26.98h-3.056v2.303zm0 3.168h2.26l1.318-1.08c-.432.073-.522.025-.522-.43V30h-3.056v2.45zm13.884-9.817c.115.072.16.216.16.36-.02.144-.137.264-.295.288-.115.05-.23.217-.23.433 0 .552.023 1.104.023 1.632 0 5.256-.455 9.05-.98 10.49-.684 1.728-1.32 2.135-2.735 2.352-.065-.96-.91-1.272-1.524-1.44-.114-.024-.186-.096-.186-.216 0-.145.113-.263.25-.263h.047c.98.264 1.69.408 2.1.408.41 0 .82-.744 1.003-1.224.25-.6.98-4.056.865-12.192h-3.372l-.093 2.76c-.137 2.112-.686 7.032-3.17 10.01-1.367 1.583-2.778 2.255-2.895 2.255-.092 0-.205-.072-.205-.216 0-.072.045-.168.113-.192 3.646-2.592 4.81-7.777 5.06-12.05l.07-2.567h-2.51l-.387-.744h2.94l.02-6.025 1.32.263c.32.048.48.192.48.384s-.113.336-.318.384l-.32.17-.064 4.824h3.305l.615-.624.916.742zm7.732-2.28l1.46-1.25 1.437 1.153c.11.048.18.192.18.36 0 .312-.23.48-.5.48h-7.317l-.184-.744h4.92zm-4.24 9.12l1.115.84h3.67l.594-.67 1.05.72c.094.047.14.143.14.24 0 .12-.09.335-.364.407-.184.048-.273.168-.273.288v6.77c0 .143-.092.263-.23.335-.728.192-.888.216-.888-.336v-1.704h-3.673v1.68c0 .12-.09.24-.27.312-.753.192-.866.216-.866-.36l-.002-8.52zm3.533-5.737l1.46-1.272 1.437 1.152c.113.072.183.216.183.384 0 .336-.27.456-.523.456h-5.856l-.185-.72h3.486zm0 3.288l1.46-1.272 1.437 1.152c.113.072.183.216.183.36 0 .264-.183.48-.523.48h-5.856l-.185-.72h3.486zm0-9.67l1.46-1.25 1.437 1.153c.113.048.183.192.183.36 0 .312-.23.48-.523.48h-5.79l-.16-.744h3.393zM313.79 35.64h3.673v-4.608h-3.673v4.608zm17.897 1.248c0 .408-.23 1.176-2.074 1.464-.16-.816-.39-1.104-2.143-1.68-.14-.048-.23-.12-.23-.24s.067-.192.206-.192h.066c1.188.264 2.006.384 2.463.384.205 0 .57 0 .57-.552v-17.88H320.9l-.16-.744h9.805l.5-.648.89.768c.185.144.298.312.298.504s-.113.336-.297.408c-.158.072-.252.192-.252.288V36.89h.003zm-5.883-15.506l1.438-1.248 1.46 1.152c.114.048.184.192.184.36 0 .312-.23.48-.523.48h-7.02l-.186-.744h4.647zm-4.263 3.12l1.005.744h3.967l.616-.672 1.026.72c.09.048.137.144.137.24 0 .12-.114.336-.342.408-.184.048-.297.168-.297.288V33c.02.143-.09.287-.23.335-.683.192-.89.24-.89-.336v-1.416h-3.854v1.848c0 .12-.09.24-.27.336-.73.19-.868.215-.868-.385v-8.88h.004zm1.14 6.362h3.856V25.97h-3.854v4.896zm12.93-10.847l1.05.912h1.23l.686-2.138.27-1.824v-.745l1.37.12c.272.048.41.168.41.336s-.068.29-.23.336l-.32.192-.796 2.11-.774 1.61h2.985l.55-.77 1.05.72c.066.05.09.12.09.24 0 .313-.25.433-.317.457-.184.072-.25.168-.25.24V35.88c0 .12-.115.24-.23.312-.796.168-.89.168-.89-.288V34.49h-4.74v2.232c0 .312-.273.384-.91.552-.16 0-.23-.192-.23-.552V20.017zm1.14 7.463h4.742v-5.833h-4.74v5.833zm0 6.29h4.742v-5.544h-4.74v5.544zm11.902 2.304c1.14.384 1.982.6 2.46.6.524 0 .958-.816 1.188-1.368.252-.648 1.188-4.296 1.188-13.753H346.6l-.297.768c-1.117 2.667-2.576 4.49-2.78 4.49-.067 0-.16-.07-.16-.19 0-.073.022-.145.07-.217 2.21-3.576 3.282-7.777 3.282-10.153l1.32.095c.296.024.434.146.434.336s-.115.338-.273.338c-.184 0-.297.072-.297.168-.27 1.224-.638 2.472-1.048 3.648h6.61l.615-.624.91.743c.113.096.16.216.16.336-.022.142-.137.262-.272.31-.25.072-.25.192-.25 1.224 0 6.433-.662 11.28-1.255 12.817-.752 1.873-1.526 2.377-2.918 2.52-.114-.96-.844-1.366-1.938-1.606-.113-.024-.183-.096-.183-.192 0-.12.093-.288.273-.288h.05zM346.12 25.68c0-.07.046-.215.183-.215.55 0 3.26 3.096 3.26 4.536 0 .218-.09.794-.52.794-.436 0-.55-.384-.57-.48-.436-1.944-1.276-3.648-2.26-4.464-.07-.05-.093-.098-.093-.17zm12.268-8.4l1.23 1.105h3.214l.57-.768 1.05.72c.044.024.065.12.065.24 0 .24-.092.408-.297.48-.183.072-.25.168-.25.216v15.48c0 .29-.523.457-.82.457-.23 0-.317-.144-.317-.432V33.36h-3.306v2.328c0 .312-.274.384-.912.552-.16 0-.23-.192-.23-.552V17.28h.003zm1.14 8.137h3.307v-6.29h-3.306v6.29zm0 7.225h3.307v-6.48h-3.306v6.48zm6.383-7.897l-.182-.72h4.947V20.16h-5.562l-.184-.744h5.745v-3.24l1.186.215c.343.05.503.194.503.386s-.115.336-.272.384c-.184.07-.272.19-.272.36v1.895h3.738l1.438-1.25 1.46 1.13c.112.07.182.215.182.383 0 .312-.23.48-.523.48h-6.29v3.865h2.757l1.436-1.272 1.46 1.154c.114.072.183.216.183.36 0 .264-.186.48-.524.48h-11.22v.002h-.006zm7.616 3.77v-3.05l1.162.17c.39.047.594.215.594.43 0 .217-.114.337-.318.36-.205.05-.296.145-.296.29v1.8h1.322l1.412-1.177 1.322 1.056c.09.072.158.216.158.36 0 .264-.138.504-.5.504h-3.718v7.656c0 .288-.184.6-.502.937-.295.314-.912.53-1.73.626 0-.888-.958-1.32-1.526-1.56-.184-.05-.252-.145-.252-.265 0-.19.205-.167.297-.143l2.053.288.41-.048c.045-.048.113-.168.113-.312V29.26h-8.23l-.183-.745h8.413zm-3.852 5.71c-.07.265-.365.36-.48.36-.343 0-.5-.287-.548-.407-.455-1.56-1.3-3-2.143-3.528-.068-.048-.093-.12-.093-.192 0-.12.046-.216.184-.216.455 0 2.733 1.968 3.078 3.336v.648zM16.252 62.216c-.958 2.016-2.234 3.624-2.395 3.624-.067 0-.182-.048-.182-.192 0-.072.022-.144.068-.216 2.667-4.225 3.646-9.097 3.646-11.185l1.297.096c.32.024.456.144.456.336 0 .19-.113.334-.296.334-.16 0-.273.072-.273.168-.343 1.704-.844 3.408-1.48 5.064.683.192.75.216.75.408 0 .096-.067.216-.204.288-.16.096-.25.216-.25.312V76.11c0 .145-.09.24-.272.29-.73.19-.866.215-.866-.29V62.217zm3.466-4.51l1.276.19c.364.05.547.193.547.385 0 .17-.112.36-.34.458-.23.096-.343.264-.343.432v14.736c0 .144-.09.288-.25.384-.206.048-.593.144-.64.144-.158 0-.25-.072-.25-.192V57.705zm10.966 5.543l1.392-1.274 1.39 1.08c.16.144.252.312.252.456 0 .264-.183.456-.48.456h-4.833c-.046 1.56-.137 2.927-.25 3.96h3.306l1.46-1.273 1.437 1.152c.114.07.184.215.184.383 0 .336-.273.456-.523.456h-5.2c1.232 2.783 3.215 4.8 6.065 5.664.092.024.138.096.138.192s-.182.192-.5.264-.548.264-.617.504c-.066.192-.136.288-.204.288-.09 0-3.717-1.873-5.403-6.913h-.23c-.317 1.463-.706 2.423-1.55 3.647-2.05 3-5.903 3.792-5.995 3.792s-.16-.12-.16-.24c0-.073.044-.17.137-.193 4.443-1.56 6.086-4.967 6.45-7.007h-4.77l-.182-.72h5.06c.138-.985.206-2.353.206-3.985H24.46l-.342.672c-.775 1.296-1.732 2.376-1.96 2.376-.092 0-.205-.096-.205-.216 0-.072.046-.144.09-.216.616-.84 1.14-1.775 1.482-2.71.752-1.825.752-2.377.752-3.12l1.322.263c.294.048.432.192.432.36 0 .216-.138.312-.32.312-.183 0-.318.047-.318.12l-.593 1.463h5.883zm-8.503-3.314l-.18-.72h7.728l.456-3.312h-6.907l-.16-.72h7.113l.638-.72.73.816c.16.12.228.265.228.41 0 .215-.068.36-.297.43-.185.05-.298.17-.298.36l-.364 2.737h.683l1.437-1.272 1.458 1.152c.114.072.183.192.183.36 0 .288-.204.48-.523.48H22.18zm19.653-1.2l1.32-1.08 1.188.96c.093.072.16.216.16.36 0 .312-.227.48-.5.48h-7.23l-.16-.72h5.22zm-.796 6.744l1.32-1.08 1.164.96c.116.072.186.216.186.384 0 .312-.23.48-.502.48h-5.61l-.18-.744h3.624zm-3.58 2.474l1.004.72h3.627l.5-.816.913.672c.136.096.182.264.182.408-.022.144-.114.288-.25.336-.115.048-.206.144-.206.24v5.856c0 .312-.09.336-.843.552-.183 0-.296-.168-.296-.552v-1.176H38.6v1.56c0 .12-.092.24-.274.336-.775.192-.866.216-.866-.384l-.002-7.752zm3.487-5.738l1.322-1.08 1.163.96c.112.072.18.192.18.36 0 .216-.112.48-.5.48h-5.426l-.182-.72h3.44zm.093-6.863l1.32-1.08 1.164.984c.116.048.186.192.186.36 0 .312-.23.48-.502.48h-5.45l-.16-.744h3.444zm-2.44 18.097h3.49v-4.057h-3.49v4.057zm10.875 1.128c.16.096.25.24.25.36 0 .096-.09.36-.342.36-.046 0-.388-.072-.456-.072-.775.336-1.688.648-2.713.84-1.046.216-1.913.288-2.6.288-.18 0-.27-.048-.27-.192s.045-.24.16-.24c1.73-.096 4.467-1.2 5.06-1.944l.913.6zm-3.695-15.674l-.182-.72h4.673v-1.44h-5.47l-.185-.72h5.654V54.08l1.186.216c.364.048.5.192.5.384s-.09.336-.272.384c-.27.096-.27.192-.27.96h3.214l1.436-1.272 1.458 1.152c.114.072.16.192.16.336 0 .048 0 .096-.023.144-.02.216-.204.36-.48.36H51.41v1.44h2.143l1.437-1.272 1.46 1.152c.113.072.182.192.182.36 0 .288-.206.48-.525.48h-10.33zm9.94 1.248l.5-.84.913.696c.137.096.183.264.183.384-.022.144-.113.288-.25.336-.138.072-.23.168-.23.264v3.984c0 .288-.09.312-.843.528-.183 0-.273-.168-.273-.528v-.816h-9.552c0 .744 0 .816-.273.96-.774.192-.867.216-.867-.384v-5.328l1.003.744h9.69zm-9.55 3.265h2.416v-2.544h-2.417v2.544zm.363 1.537l1.004.72h6.108l.593-.648 1.05.72c.09.048.137.144.137.24 0 .024 0 .288-.365.384-.183.048-.272.168-.272.288v7.057c.045.288-.16.336-.8.504-.317 0-.317-.218-.317-1.154H47.67c0 .744 0 .816-.273.96-.73.192-.866.216-.866-.384v-8.69zm1.14 1.44v1.536h5.995v-1.536H47.67zm0 2.255v1.44h5.995v-1.44H47.67zm0 2.16v1.51h5.995v-1.51H47.67zm2.052-7.394h2.417v-2.544h-2.42v2.544zm3.077 10.85c1.662.047 4.24.72 4.24 1.655 0 .265-.207.553-.48.553-.16 0-.366-.072-.594-.192-1.71-.983-3.647-1.44-4.422-1.607-.137-.024-.23-.12-.23-.24s.07-.168.206-.168h1.28zm.476-10.85h2.44v-2.544h-2.44v2.544zM62.354 61.385c.388 0 .967-.075 1.74-.225 1.564-.356 3.41-.656 5.502-.938 1.582-.225 2.48-.413 2.672-.582.105-.038.265-.056.492-.056.193 0 .387.075.615.244.475.375.72.694.72.975 0 .13-.087.207-.28.207-.018 0-.21-.02-.562-.038-.3-.056-.457-.094-.492-.094-.807 0-2.143.13-4.023.413.246.283.37.527.37.696s-.036.375-.09.62c-.14.524-.175 2.456-.103 5.775.053 2.795.018 4.446-.07 4.933-.105.375-.246.562-.44.562-.156 0-.367-.28-.613-.825s-.37-.995-.37-1.314c0-.17.055-.487.16-.938.088-.3.123-2.288.123-5.945 0-1.52-.142-2.625-.404-3.338-1.653.28-2.85.562-3.605.88-.387.17-.65.264-.772.264-.3 0-.687-.17-1.195-.49-.422-.32-.633-.58-.633-.788 0-.094.07-.15.21-.15h.212c.346.097.63.152.838.152zM86.63 65.66c2.127-.243 3.516-.486 4.147-.73.316-.17.51-.225.562-.207.14-.02.436.17.877.582.316.337.475.58.475.73l.02.038c0 .13-.07.188-.23.188h-.3c-.21-.017-.456.058-.72.058-.668-.02-1.775.075-3.34.262-2.408.28-4.52.505-6.363.656-.79.02-1.37.13-1.776.3-.264.075-.403.113-.457.113-.245 0-.545-.19-.896-.584-.35-.394-.526-.73-.544-1.013l-.02-.056c-.017-.188.036-.28.194-.28l.02-.02c.018 0 .21.038.3.057.402.168 1.124.262 2.18.262 1.775 0 3.743-.113 5.87-.356zm17.19-4.912c.405.544.616.957.616 1.238 0 .13-.123.263-.37.413-.122.092-.263.26-.402.485l-4.43 8.177c-.09.168-.142.28-.142.318 0 .095.07.132.21.132.897-.02 2.25-.15 4.097-.394 1.845-.244 3.162-.488 3.936-.713.404-.112.686-.168.826-.168.315 0 .737.188 1.248.543.527.413.792.788.792 1.104 0 .244-.142.375-.423.375-.124 0-.3-.04-.51-.133-.617-.17-1.44-.244-2.444-.244-1.636.038-3.357.225-5.203.563-1.424.225-2.427.47-3.04.75l-.405.225c-.194 0-.44-.187-.74-.562-.298-.32-.456-.563-.456-.732 0-.207.105-.394.3-.563.28-.3.49-.58.65-.825.702-1.22 1.44-2.588 2.214-4.145.914-1.894 1.547-3.282 1.898-4.145.334-.788.492-1.5.492-2.12 0-.187.07-.28.21-.28.317.004.67.228 1.073.698zM122.167 68.793c1.025-.744 2.188-1.944 2.188-3.528-.25.144-.48.24-.752.24-1.003 0-1.64-.768-1.64-1.584 0-.934.546-1.726 1.64-1.726.89 0 1.96.6 1.96 2.4 0 1.92-1.275 3.433-3.055 4.705l-.34-.506zm19.223-6.503c-2.372 3.432-4.766 5.255-4.97 5.255-.115 0-.184-.096-.184-.192 0-.072.046-.144.114-.216 1.87-1.848 3.51-3.913 4.787-6.12l1.528-2.857h-6.225l-.183-.744h6.725c.8-1.776.89-2.064 1.05-2.953l1.254.48c.25.072.364.216.364.36 0 .312-.137.312-.48.312-.113 0-.18.024-.204.072l-.798 1.73h9.575l1.436-1.25 1.457 1.128c.114.072.182.216.182.384 0 .31-.23.48-.524.48h-12.493c-.547 1.08-1.163 2.134-1.824 3.12l.41.36h9.687l.502-.65.89.77c.18.143.294.31.294.503 0 .168-.114.336-.296.408-.183.073-.25.193-.25.29v12.024c0 .672-.457 1.152-2.076 1.464l-.272-.673c-.138-.216-.66-.456-1.504-.744-.16-.047-.23-.143-.23-.287.023-.12.092-.168.206-.168h.068c.798.12 1.39.192 1.823.192.48 0 .844-.05.844-.6v-3.84h-9.554v5.615c0 .288-.204.336-.91.528-.16 0-.23-.168-.23-.528l.003-13.656zm1.138.07v3.12h9.553v-3.12h-9.55zm0 3.866v3.384h9.553v-3.384h-9.55zm28.75-11.74h7.592v1.105h-6.565V71h-1.026V54.487zm19.334.6l.616-.67 1.026.743c.09.046.137.12.137.214 0 .12-.09.336-.34.408-.183.048-.296.168-.296.288v6.578c.02.144-.09.288-.23.36-.706.192-.888.24-.888-.36v-1.392h-5.654l-.818 4.608h6.7l.616-.625.912.79c.09.072.137.17.137.29 0 .142-.114.31-.297.36-.112.046-.227.19-.227.406-.068 1.728-.23 3.288-.434 4.656-.434 3.168-.89 4.224-3.032 4.368-.068-.767-.752-1.127-1.643-1.27-.113-.025-.182-.097-.182-.217 0-.144.09-.288.228-.288h.07c.957.216 1.663.336 2.096.336.137 0 .23 0 .32-.022.66-.408.796-1.296 1.046-3.048.183-1.225.32-2.905.41-5.018H184l-.185 1.008c-.113.384-.296.456-.684.456-.02 0-.454-.072-.454-.48v-.072c.616-2.184.98-3.936 1.117-5.208l.296-2.736 1.047.96h5.494v-4.705h-7.772l-.16-.72h7.912v.002h.002zm7.25-.837l1.256.166c.364.048.547.192.547.384 0 .193-.113.385-.343.48-.23.073-.342.24-.342.41v20.377c0 .408-.73.528-.89.528s-.228-.072-.228-.216V54.25zm16.168.743l.594-.432.864.866c.068.048.113.144.113.24 0 .144-.043.192-.135.312l1.62 1.536 1.163-1.008c.752-.792.934-1.25 1.207-1.944l1.05.793c.16.144.228.264.228.384 0 .263-.205.263-.752.263-.296.433-.75.84-1.3 1.2l-1.227.65c.752.6 1.524 1.15 2.3 1.56l.116.072c.454-.288.89-.72 1.343-1.2 1.024-1.176 1.117-1.488 1.39-2.28l1.095.72c.185.12.253.264.253.36 0 .24-.23.264-.39.264l-.34.047c-.366.528-.89 1.056-1.55 1.56l-1.277.793c1.438.696 3.033 1.248 4.72 1.536.14 0 .228.048.228.12 0 .096-.112.216-.386.336-.273.143-.435.335-.457.55-.045.217-.138.313-.273.313h-.068c-4.534-1.656-7.11-3.936-9.186-6.504l-.274.264c-.317.432-2.575 3.216-6.02 4.872l-.797.312h3.6l.523-.816.912.673c.137.096.184.264.184.408-.023.145-.116.29-.253.337-.137.072-.227.144-.227.24v4.272c0 .31-.092.335-.844.55-.297 0-.297-.287-.297-1.08h-3.487l-.457 2.305-.113.432h3.94l.48-.77.98.67c.227.17.342.338.342.53 0 .168-.14.456-.412.48-.205 0-.342.12-.365.288-.09.984-.25 1.92-.433 2.808-.39 1.824-.912 2.88-2.853 3.384-.09-.745-.592-1.01-1.664-1.37-.137-.023-.205-.143-.205-.287.023-.144.115-.216.23-.216h.067c.73.168 1.32.264 1.71.264.066 0 .136-.022.203-.022.96-.264 1.232-.937 1.438-2.473l.366-2.568h-3.99l-.182.72c-.068.12-.23.24-.457.264-.39 0-.64-.287-.64-.503 0-.048 0-.096.022-.144l.66-2.64.433-2.712.937.817h3.44V62.29h-4.195l-.112-.456c-.844.312-1.688.552-2.53.744-.183-.168-.206-.192-.206-.264s.023-.096.092-.12c3.645-1.2 7.135-3.168 9.3-6.48h-7.182l-.16-.72h7.55zm-5.11 4.343c-.546 0-.614 0-.728-.336-.23-.816-.707-1.656-1.21-1.968-.09-.024-.136-.096-.136-.168 0-.048.068-.264.23-.264.27 0 2.165 1.104 2.165 2.112.003.36-.134.6-.32.624zm11.218 8.594l.547-.912.797.624c.297.24.48.48.48.648 0 .192-.045.192-.547.312-.48 1.344-1.117 2.52-1.894 3.504l-.613.624c2.144 1.56 4.31 2.016 6.087 2.16.092 0 .157.072.157.168 0 .096-.18.24-.52.312-.32.12-.548.336-.593.576-.048.216-.14.312-.23.312h-.02c-1.665-.528-3.032-1.128-4.036-1.848l-1.39-1.128c-.503.456-1.095.888-1.665 1.248-1.756 1.104-4.147 1.68-4.284 1.68-.14 0-.23-.096-.23-.24 0-.12.07-.216.186-.264 1.938-.72 3.828-1.656 5.355-3.12l-.59-.745c-.663-.982-1.233-2.062-1.665-3.19h-1.414l-.044-.72h6.133zm-3.512-5.57c0 1.464 0 2.928-1.344 3.96-.707.6-2.03 1.08-2.166 1.08-.185 0-.185-.143-.185-.19 0-.073.047-.145.14-.217 1.3-.648 2.417-1.392 2.417-3.937v-1.944l.89.528h3.033l.59-.744.96.768c.137.12.227.24.227.384 0 .216-.205.36-.387.408-.16.072-.25.216-.25.36v1.8c0 .72.182 1.008 1.117 1.008 1.117 0 1.32-.216 1.55-.936l.364-1.2c.024-.145.14-.192.274-.192.137 0 .185.096.185.288l-.094 1.224v.504l.183.264c.136.096.206.288.206.528 0 .408-.617.72-1.232.72h-1.274c-1.665 0-2.485-.456-2.417-1.92V62.36h-2.787zm-.638 6.29c.775 1.703 1.232 2.423 2.214 3.455l.567-.672c.545-.768 1.002-1.704 1.344-2.784h-4.127zm12.612 5.83h6.27V59.578h1.024v16.01H228.6V74.48zm27.974-19.993h7.59v1.104H257.6V71h-1.024l-.002-16.513zm10.578 16.13l-.157-.72h2.188l-.66-13.97 1.187.72.885-.647c.41-.384.82-.768 1.07-1.296l1.14.504c.23.072.32.216.32.36 0 .168-.16.384-.39.384l-.546.144-.89.6-1.55.648.135 3.457h.547l1.254-1.294 1.164 1.152c.114.096.16.24.16.384 0 .265-.228.48-.456.48h-2.643l.184 3.77h.342l1.254-1.272 1.16 1.152c.116.072.16.216.16.36 0 .24-.204.504-.454.504h-2.438l.23 3.864h3.352V54.583l1.002.864h5.22l.548-.624 1.025.744c.092.048.137.144.137.264 0 .218-.16.386-.318.458-.137.072-.23.216-.23.36v13.25h3.19l.25-3.865h-2.302l-.182-.744h2.553l.297-3.77h-2.668l-.182-.72h2.918l.272-3.96h-2.918l-.137-.72h3.076l.596-.72.797.77c.16.12.252.286.252.454 0 .192-.092.336-.272.384-.185.072-.297.216-.297.36l-.89 12.553h.045l1.255-1.32 1.187 1.153c.093.096.138.24.138.36 0 .264-.182.504-.455.504l-20.45.002zm6.77 1.13l1.073.647c.182.12.297.264.297.408 0 .024-.047.312-.32.312l-.318-.048c-.092 0-.182.024-.25.072-2.028 2.136-5.995 3.144-6.45 3.144-.14 0-.25-.048-.25-.192 0-.12.065-.192.182-.24 2.803-.792 4.832-2.473 5.86-3.72l.177-.384zm.913-1.85h5.104V56.192h-5.106v13.705zm2.416-11.448l1.12-1.106 1.003.96c.09.096.137.24.137.36 0 .216-.16.528-.458.528h-3.35l-.16-.744h1.71zm-1.41 2.805l.547.384h1.96l.34-.457.64.48.093.264c-.14.216-.16.24-.298.408v5.28c0 .12-.068.24-.205.288-.5.12-.57.144-.57-.264v-.96h-1.73v.935c0 .096-.067.192-.16.24-.546.12-.616.144-.616-.264v-6.335zm.774 4.704h1.732v-3.6h-1.732v3.6zm4.242 6.53c2.006.6 4.787 2.303 4.787 3.12 0 .287-.205.6-.522.6-.204 0-.39-.097-.614-.337-1.46-1.344-3.283-2.497-5.312-3.433-.137-.047-.182-.143-.182-.24.022-.12.114-.167.25-.167l1.595.457zm13.862-9H290.5l-.183-.72h4.398V59h-3.236l-.186-.72h3.42v-4.104l1.188.216c.363.048.523.192.523.384s-.115.336-.297.384c-.183.072-.274.192-.274.36v2.76h1.275l1.322-1.08 1.186.96c.114.072.184.192.184.36 0 .312-.23.48-.503.48h-3.465v3.768h1.597l1.46-1.272 1.437 1.152c.112.072.184.216.184.384 0 .336-.273.456-.503.456h-4.17v4.056h1.344l1.414-1.248 1.39 1.056c.16.144.252.336.252.48 0 .264-.184.456-.48.456h-3.92v4.776l.728.288c2.508.888 5.95.888 8.07.888 1.938 0 4.034-.072 6.225-.216.137 0 .23.048.23.12 0 .096-.116.216-.366.36-.273.144-.435.384-.48.672-.045.264-.137.408-.25.408-1.277.024-2.463.048-3.58.048-9.276 0-12.444-.96-14.34-5.712l-.158 1.008c-.595 3.312-1.94 5.233-2.144 5.233-.093 0-.206-.094-.206-.24 0-.046 0-.07.02-.12 1.572-3.454 1.552-8.062 1.527-8.927v-1.056l1.393.24c.297.048.457.168.457.336 0 .192-.115.312-.32.36-.158.048-.273.144-.273.264l-.182 1.896c.615 1.32 1.254 2.304 1.87 2.904l.638.552v-8.88h-.004zm6.678-8.16l.937.6h5.562l.594-.65 1.045.72c.093.05.14.145.14.217 0 .072-.07.336-.365.408-.183.048-.296.168-.272.288v7.61c0 .36-.502.503-.797.503-.227 0-.342-.168-.342-.504v-1.585h-5.354v7.417c0 .312.045.336.317.456h5.403c.23 0 .48-.264.64-.816l.593-1.776c.045-.144.138-.192.25-.192.093 0 .16.096.16.264l-.092 1.44c0 .552.02.864.158.96.138.096.206.24.206.408s-.158.888-.845.888H302.2c-.503 0-.8-.576-.8-1.152V55.33zm1.14 1.318v5.568h5.357v-5.568h-5.356zm11.356 17.832h6.27V59.578h1.024v16.01h-7.295l.003-1.106zm22.254-16.463l1.05.912h1.23l.685-2.138.273-1.824v-.745l1.37.12c.27.048.408.168.408.336s-.066.29-.23.336l-.316.192-.797 2.11-.774 1.61h2.985l.547-.77 1.05.72c.067.05.092.12.092.24 0 .313-.252.433-.318.457-.185.072-.25.168-.25.24V73.88c0 .12-.116.24-.23.312-.798.168-.89.168-.89-.288V72.49h-4.74v2.232c0 .312-.274.384-.91.552-.16 0-.23-.192-.23-.552V58.017h-.003zm1.138 7.463h4.742v-5.833h-4.742v5.833zm0 6.29h4.742v-5.544h-4.742v5.544zm11.9 2.304c1.142.384 1.985.6 2.464.6.523 0 .957-.816 1.187-1.368.25-.648 1.186-4.296 1.186-13.753h-6.883l-.297.768c-1.118 2.667-2.577 4.49-2.782 4.49-.068 0-.16-.07-.16-.19 0-.073.023-.145.068-.217 2.21-3.576 3.282-7.777 3.282-10.153l1.322.095c.297.024.435.145.435.336s-.115.338-.273.338c-.184 0-.297.072-.297.168-.273 1.224-.64 2.472-1.05 3.648h6.61l.616-.624.91.743c.117.096.16.216.16.336-.02.142-.136.262-.27.31-.25.072-.25.192-.25 1.224 0 6.433-.66 11.28-1.255 12.817-.752 1.873-1.527 2.377-2.918 2.52-.113-.96-.844-1.366-1.938-1.606-.116-.024-.186-.096-.186-.192 0-.12.092-.288.273-.288h.05zm-2.528-10.393c0-.07.045-.214.183-.214.545 0 3.26 3.096 3.26 4.536 0 .217-.094.793-.525.793-.434 0-.547-.384-.57-.48-.434-1.944-1.274-3.648-2.256-4.464-.074-.05-.095-.097-.095-.17zm11.79-2.616l-.185-.744h6.565c0-.24-.64-1.752-1.207-2.064-.092-.024-.14-.096-.14-.168 0-.096.07-.264.23-.264.138 0 .775.288 1.347.84.774.72.774.768.774 1.632h4.72c.363-.768.683-1.608.863-2.448l1.164.408c.25.072.363.192.363.36 0 .072-.048.384-.343.384-.16 0-.297.048-.365.144l-1.004 1.176h4.97l1.44-1.248 1.458 1.152c.09.048.158.192.158.336 0 .264-.138.504-.5.504h-20.31zm2.595 9.434c.07 0 .14.072.14.192 0 2.376-1.14 5.017-2.256 5.017-.39 0-.57-.36-.57-.624 0-.168.068-.384.502-.696.705-.576 1.21-1.176 1.46-1.8.272-.6.478-1.248.546-1.896 0-.144.07-.19.18-.19zm-1.616-13.273l-.183-.744h8.596v-2.4l1.186.218c.366.048.526.192.526.384s-.115.337-.298.385c-.182.072-.272.216-.272.36v1.056h5.973l1.438-1.247 1.46 1.128c.112.073.183.217.183.385 0 .31-.23.48-.523.48h-18.083zm14.022 5.447l.592-.648 1.05.72c.092.048.137.144.137.24 0 .024 0 .288-.363.384-.183.048-.296.168-.296.288v5.833c.02.142-.092.286-.205.36-.73.19-.912.24-.912-.36v-.94H363.28v.817c0 .12-.093.24-.273.336-.73.192-.865.216-.865-.384v-7.37l1.002.72h10.3zm-10.168.72v1.825h10.168v-1.824h-10.168zm0 2.546v1.896h10.168v-1.896h-10.168zm.478 4.03l1.504.433c.183.05.27.17.27.36 0 .194-.136.314-.34.338s-.32.144-.32.288v3.312c0 .288.07.312.456.456h6.61c.685 0 1.05-.432 1.163-1.368l.203-1.512c0-.12.092-.192.205-.192.136 0 .204.073.204.217l.067 1.63c.02.528.185.888.435 1.03.184.12.317.314.317.48 0 .458-.272.6-.772.84h-9.348c-.522-.262-.66-.334-.66-1.03l.003-5.28zm5.79 2.833c-.684-1.44-1.618-2.374-2.233-2.64-.092-.046-.158-.094-.158-.19s.045-.24.228-.24c.39 0 3.17 1.488 3.17 2.784 0 .264-.047.6-.48.6-.276 0-.457-.12-.526-.312zm5.243-2.157c0-.096.067-.24.204-.24.57 0 3.396 2.833 3.396 4.225 0 .384-.16.744-.524.744-.272 0-.455-.095-.57-.43-.478-1.897-1.526-3.554-2.393-4.13-.068-.05-.115-.12-.115-.168zM16.923 107.72c.09 0 .16.073.16.193 0 3.336-1.322 5.642-2.234 5.642-.503 0-.618-.408-.618-.673 0-.144.184-.384.48-.624.75-.72 1.274-1.44 1.55-2.136.273-.72.455-1.464.5-2.208.002-.12.048-.193.16-.193zm13.473-13.27l.615-.65 1.028.722c.09.05.137.145.137.24 0 .07-.045.336-.342.407-.184.046-.296.144-.296.263v10.152c.022.145-.092.288-.23.36-.706.19-.888.24-.888-.36v-1.128H18.2v.912c0 .31-.272.383-.91.55-.16 0-.23-.19-.23-.55V93.536l1.05.912h12.286zm-6.655.74H18.2v3.866h5.54V95.19zm-5.54 4.585v3.96h5.54v-3.96H18.2zm2.168 6.938l1.504.456c.184.046.274.142.274.334s-.137.312-.342.336-.296.145-.296.313v5.09c0 .264.09.312.433.432h6.087c.64 0 1.05-.384 1.254-1.512l.274-1.752c0-.096.09-.166.23-.166.136 0 .203.07.203.216l-.067 1.848c0 .6.113 1.008.364 1.176.204.12.342.312.342.504 0 .408-.273.553-.775.815h-8.82c-.547-.264-.66-.336-.66-1.03l-.002-7.06zm6.7 2.137c0 .12-.066.48-.522.48-.205 0-.387-.098-.48-.29-.478-.767-1.55-2.423-2.85-2.88-.09-.047-.16-.096-.16-.167 0-.168.092-.265.23-.265.547 0 3.01 1.27 3.646 2.496l.138.626zm-2.188-9.793h5.54v-3.865h-5.54v3.865zm0 .718v3.96h5.54v-3.96h-5.54zm5.54 8.066c0-.046.066-.214.227-.214.524 0 3.647 3.312 3.647 4.92 0 .072 0 .792-.5.792-.457 0-.548-.384-.57-.456-.64-2.543-1.916-4.32-2.69-4.872-.092-.047-.115-.094-.115-.167zm16.005-7.007c0 .624-.593 1.344-1.254 1.344s-1.275-.647-1.275-1.344c0-.504.342-1.344 1.277-1.344.48 0 1.255.502 1.255 1.342zm-1.254 7.513c-.82 0-1.275-.553-1.275-1.32 0-1.008.685-1.344 1.277-1.344.48 0 1.255.336 1.255 1.344 0 1.367-.593 2.473-1.778 3.287l-.365-.287c.89-.672 1.32-1.27 1.32-1.823l-.432.143zm28.728 5.352c0 .72-.64 1.224-2.074 1.487-.068-.815-.48-1.13-1.87-1.607-.16-.048-.204-.145-.204-.24 0-.048 0-.19.182-.19H70c1.025.19 1.777.288 2.188.288.23 0 .57 0 .57-.554v-6.553h-6.246v8.495c0 .36-.82.456-.866.456-.183 0-.272-.145-.272-.455v-8.52H59.06c0 1.078-.64 3.982-1.392 5.64-.456 1.03-1.62 3.217-2.03 3.217-.113 0-.16-.145-.16-.217 0-.05.024-.096.047-.145 1.732-3 2.805-6.358 2.805-16.008v-5.16l1.025.815H72.76l.523-.648.89.766c.18.146.295.312.295.504 0 .194-.114.34-.296.41-.184.07-.273.19-.273.288v17.93h-.003zm-8.525-12.89h-5.95c-.045 1.73-.137 3.36-.273 4.8h6.225l-.002-4.8zm0-5.617H59.47v4.898h5.903V95.19zm1.14 4.9h6.246v-4.897H66.51v4.896zm0 5.52h6.246v-4.8H66.51v4.8zm14.707-4.922c-1.163 2.018-2.69 3.696-2.918 3.696-.068 0-.183-.096-.183-.192 0-.07.044-.144.09-.215 3.01-3.96 4.49-8.545 4.672-10.705l1.277.265c.295.048.432.168.432.336 0 .096 0 .336-.32.336-.182 0-.295.046-.295.12-.523 1.727-1.208 3.382-2.006 4.966.776.265.867.288.867.456 0 .098-.068.216-.23.288-.158.097-.25.217-.25.29v14.687c0 .146-.09.266-.272.29-.73.19-.866.214-.866-.29v-14.33zm9.094-2.903H88.08l-.66 1.562c-1.072 2.256-2.76 4.366-3.08 4.366-.113 0-.18-.096-.18-.19 0-.072.044-.146.09-.217 2.69-3.695 3.716-7.992 3.92-9.53v-.574l1.323.192c.296.047.433.19.433.383 0 .19-.137.312-.296.312-.184 0-.32.046-.32.144-.25.936-.568 1.92-.934 2.854h7.98l1.413-1.272 1.39 1.08c.137.144.23.312.23.455 0 .17-.093.458-.458.458h-7.477v4.606h4.103l1.413-1.25 1.37 1.08c.16.146.25.313.25.457 0 .29-.204.457-.455.457h-6.68v4.512h4.104l1.413-1.27 1.368 1.08c.16.142.25.334.25.477 0 .288-.203.434-.454.434h-6.68v6.72c0 .338-.82.434-.866.434-.18 0-.272-.145-.272-.432v-17.33h-.004zm28.204 7.822l.616-.646 1.026.723c.09.05.137.145.137.24 0 .145-.114.36-.342.385-.183.047-.296.168-.273.286v8.57c0 .287-.48.478-.798.478-.23 0-.342-.167-.342-.478v-1.514h-10.26v1.466c0 .264-.547.432-.865.432-.183 0-.273-.146-.273-.432v-8.642c-2.69.983-5.517 1.344-5.54 1.344-.137 0-.25-.05-.25-.168 0-.097.045-.168.136-.217 9.644-2.038 13.108-6.55 14.955-10.848h-7.317c-.593.912-1.3 1.752-2.006 2.496.5.217 1.05.6 1.62 1.105.934.768 1.39 1.344 1.39 2.184 0 .12-.137.43-.5.43-.274 0-.48-.167-.525-.335-.935-2.04-1.982-2.88-2.302-3.072-2.257 2.186-4.514 3.12-4.56 3.12-.068 0-.205-.048-.205-.192 0-.07.045-.117.113-.143 3.488-1.92 6.86-6.24 7.317-9.05l1.208.385c.25.07.387.19.387.36v.023c-.045.215-.113.238-.593.358l-.866 1.61h6.908l.547-.913.8.624c.32.24.48.48.48.648s-.07.19-.57.36c-1.847 3.983-4.583 6.983-8.57 9.022h9.32v.007zm-10.236.723v6.602h10.26v-6.602h-10.26zm20.566-8.978l1.46-1.248 1.436 1.15c.113.05.183.193.183.36 0 .313-.228.48-.5.48h-7.32l-.18-.743h4.92v.003zm-4.24 9.12l1.116.84h3.67l.592-.67 1.05.72c.09.05.137.145.137.24 0 .12-.09.336-.365.407-.182.046-.272.166-.272.286v6.77c0 .145-.092.265-.23.336-.728.19-.888.217-.888-.336v-1.705h-3.67v1.683c0 .12-.092.24-.274.312-.752.19-.866.217-.866-.36v-8.523zm3.534-5.736l1.46-1.27 1.436 1.15c.113.07.183.217.183.385 0 .338-.272.458-.522.458h-5.858l-.184-.72h3.486zm0 3.287l1.46-1.27 1.436 1.15c.113.072.183.217.183.36 0 .263-.18.48-.522.48h-5.858l-.184-.722h3.486v.004zm0-9.67l1.46-1.25 1.436 1.153c.113.05.183.192.183.36 0 .312-.226.48-.522.48h-5.79l-.16-.744h3.395zm-2.394 18.288h3.67v-4.604h-3.67v4.606zm17.895 1.25c0 .408-.228 1.176-2.074 1.465-.16-.815-.39-1.104-2.145-1.68-.137-.05-.23-.12-.23-.24s.07-.19.206-.19h.07c1.186.263 2.005.383 2.46.383.206 0 .57 0 .57-.552V95.19h-9.643l-.16-.74h9.804l.5-.65.89.77c.184.145.297.313.297.505 0 .19-.113.336-.296.408-.16.07-.25.19-.25.287v18.12zm-5.88-15.505l1.435-1.248 1.46 1.152c.113.047.183.19.183.36 0 .31-.227.48-.522.48h-7.02l-.184-.746h4.65zm-4.264 3.12l1 .744h3.967l.616-.673 1.025.72c.09.048.137.144.137.24 0 .12-.114.336-.343.407-.182.05-.296.168-.296.29V110c.022.145-.09.29-.228.337-.685.192-.89.24-.89-.336v-1.414h-3.853v1.85c0 .118-.09.238-.274.335-.73.19-.864.216-.864-.384v-8.88zm1.14 6.362h3.852v-4.896h-3.854v4.897zm12.768-10.85l1.05.91h1.23l.684-2.135.272-1.824v-.743l1.368.12c.273.048.41.167.41.335s-.068.288-.23.336l-.317.192-.798 2.112-.775 1.606h2.987l.545-.768 1.05.72c.067.048.09.12.09.24 0 .312-.25.432-.318.456-.184.07-.25.168-.25.24v14.063c0 .12-.115.24-.23.312-.798.166-.89.166-.89-.29v-1.417h-4.74v2.23c0 .313-.275.387-.913.555-.16 0-.228-.193-.228-.555v-16.7zm1.14 7.463h4.74v-5.834h-4.74v5.834zm0 6.29h4.74v-5.545h-4.74v5.545zm11.898 2.304c1.14.384 1.983.6 2.463.6.52 0 .956-.814 1.183-1.367.25-.647 1.186-4.297 1.186-13.754h-6.885l-.296.77c-1.118 2.664-2.577 4.488-2.78 4.488-.07 0-.16-.07-.16-.19 0-.07.02-.144.066-.216 2.21-3.575 3.283-7.776 3.283-10.152l1.32.097c.297.023.434.145.434.335 0 .192-.114.336-.272.336-.184 0-.297.07-.297.168-.272 1.226-.64 2.474-1.05 3.648h6.612l.615-.624.912.745c.113.096.158.216.158.336-.02.145-.137.266-.272.313-.25.072-.25.192-.25 1.226 0 6.432-.66 11.28-1.253 12.814-.752 1.873-1.527 2.377-2.918 2.52-.116-.96-.847-1.367-1.94-1.606-.114-.023-.18-.097-.18-.192 0-.12.09-.287.27-.287l.045-.005zm-2.53-10.394c0-.072.047-.216.184-.216.547 0 3.26 3.097 3.26 4.536 0 .216-.09.792-.523.792-.434 0-.547-.384-.57-.48-.433-1.942-1.277-3.646-2.257-4.464-.07-.048-.093-.096-.093-.168zm12.108-8.4l1.23 1.105h3.215l.57-.768 1.047.72c.045.022.067.12.067.24 0 .24-.09.407-.296.48-.184.07-.252.167-.252.214v15.483c0 .288-.523.456-.82.456-.23 0-.32-.146-.32-.433v-1.418h-3.305v2.327c0 .312-.272.385-.91.553-.16 0-.23-.193-.23-.554l.003-18.405zm1.14 8.137h3.307v-6.29h-3.304v6.29zm0 7.224h3.307v-6.477h-3.304v6.48zm6.383-7.894l-.184-.722h4.947V97.16h-5.562l-.183-.744h5.745v-3.24l1.187.217c.342.047.5.19.5.383 0 .19-.113.336-.272.385-.183.074-.272.193-.272.36v1.897h3.737l1.438-1.25 1.46 1.13c.113.07.18.215.18.383 0 .31-.227.48-.522.48h-6.292v3.862h2.758l1.436-1.27 1.46 1.15c.113.072.183.217.183.36 0 .263-.182.48-.522.48H177.55v.003h-.003zm7.615 3.77v-3.05l1.163.168c.388.05.593.217.593.432 0 .218-.114.336-.32.36-.205.048-.295.144-.295.288v1.8h1.322l1.414-1.176 1.32 1.056c.09.072.16.217.16.36 0 .265-.138.504-.5.504H186.3v7.656c0 .288-.183.6-.502.937-.295.313-.91.53-1.73.626 0-.89-.96-1.32-1.527-1.562-.183-.048-.25-.144-.25-.265 0-.19.205-.17.296-.146l2.05.288.41-.047c.046-.05.115-.168.115-.312v-7.176h-8.23l-.182-.743h8.408v.004zm-3.852 5.71c-.067.266-.365.36-.48.36-.342 0-.5-.288-.546-.408-.456-1.56-1.3-3-2.144-3.528-.068-.048-.09-.12-.09-.19 0-.12.044-.217.18-.217.457 0 2.737 1.968 3.08 3.336v.644zm13.293-10.01c-.958 2.017-2.233 3.624-2.394 3.624-.07 0-.185-.048-.185-.19 0-.072.022-.146.068-.218 2.667-4.225 3.647-9.097 3.647-11.185l1.3.096c.318.024.458.144.458.337 0 .19-.115.336-.297.336-.16 0-.27.07-.27.168-.343 1.703-.845 3.407-1.48 5.063.684.192.75.216.75.408 0 .096-.066.216-.203.288-.16.096-.25.216-.25.312v14.856c0 .147-.093.24-.275.29-.728.19-.864.217-.864-.29v-13.894h-.003zm3.465-4.51l1.275.19c.365.047.547.19.547.385 0 .17-.113.36-.342.457-.23.097-.342.265-.342.433v14.736c0 .144-.09.287-.25.384-.205.048-.595.146-.64.146-.157 0-.25-.072-.25-.192l.002-16.54zm10.965 5.543l1.39-1.273 1.392 1.08c.16.144.252.312.252.455 0 .264-.184.455-.48.455h-4.833c-.045 1.56-.137 2.93-.25 3.96h3.305l1.457-1.27 1.438 1.152c.112.07.182.214.182.382 0 .336-.272.457-.522.457h-5.197c1.228 2.782 3.212 4.8 6.06 5.663.093.023.14.097.14.19 0 .1-.184.193-.5.267-.32.07-.55.265-.616.505-.068.19-.14.287-.205.287-.093 0-3.718-1.873-5.405-6.912h-.227c-.32 1.463-.707 2.424-1.55 3.646-2.055 3-5.905 3.792-5.997 3.792-.092 0-.16-.12-.16-.24 0-.07.046-.167.138-.19 4.445-1.56 6.088-4.97 6.453-7.008h-4.766l-.183-.72h5.063c.137-.985.205-2.354.205-3.985h-2.807l-.34.673c-.775 1.296-1.73 2.376-1.96 2.376-.09 0-.204-.096-.204-.217 0-.07.045-.145.09-.215.615-.84 1.142-1.776 1.482-2.713.75-1.826.75-2.377.75-3.12l1.323.263c.298.048.435.19.435.36 0 .216-.137.31-.32.31-.182 0-.317.05-.317.12l-.595 1.465h5.878zm-8.504-3.315l-.184-.72h7.73l.453-3.312h-6.906l-.16-.72h7.113l.64-.722.728.817c.16.12.23.264.23.406 0 .217-.07.36-.298.434-.185.048-.295.168-.295.36l-.365 2.734h.684l1.438-1.27 1.458 1.15c.115.073.182.193.182.36 0 .29-.205.48-.522.48H200.53v.005zm19.653-1.2l1.322-1.08 1.186.96c.095.07.16.218.16.36 0 .313-.225.48-.5.48h-7.225l-.16-.72h5.22zm-.797 6.745l1.322-1.08 1.162.96c.112.07.184.217.184.385 0 .312-.23.48-.502.48h-5.61l-.18-.745h3.624zm-3.58 2.474l1.004.72h3.625l.5-.814.912.672c.137.096.184.264.184.408-.02.144-.11.287-.25.336-.112.047-.202.144-.202.24v5.854c0 .312-.093.336-.845.552-.184 0-.297-.168-.297-.552v-1.177h-3.488v1.56c0 .12-.09.24-.272.337-.775.192-.865.217-.865-.384v-7.752h-.003zm3.488-5.738l1.322-1.08 1.16.96c.116.072.186.192.186.36 0 .216-.113.48-.5.48h-5.426l-.185-.722 3.445.002zm.092-6.864l1.322-1.08 1.162.984c.112.05.184.192.184.36 0 .312-.23.48-.502.48h-5.45l-.16-.744h3.444zm-2.44 18.098h3.49v-4.058h-3.49v4.058zm10.874 1.128c.16.096.25.238.25.36 0 .096-.09.358-.342.358-.045 0-.387-.072-.455-.072-.774.336-1.688.648-2.713.84-1.05.218-1.916.29-2.6.29-.185 0-.273-.05-.273-.192s.045-.24.16-.24c1.732-.096 4.467-1.2 5.062-1.943l.91.597zm-3.692-15.673l-.185-.722h4.675v-1.438h-5.472l-.184-.722h5.654V93.08l1.186.217c.365.048.5.192.5.385 0 .19-.09.336-.27.385-.274.096-.274.19-.274.96h3.213l1.44-1.272 1.46 1.152c.11.072.156.19.156.336 0 .048 0 .096-.02.144-.024.216-.206.36-.48.36h-5.77v1.44h2.144l1.437-1.272 1.46 1.152c.112.07.18.19.18.358 0 .288-.204.48-.52.48h-10.33zm9.938 1.247l.502-.84.912.695c.138.096.185.264.185.385-.023.145-.115.287-.252.336-.138.07-.23.168-.23.265v3.983c0 .287-.09.312-.843.527-.182 0-.273-.168-.273-.527v-.815h-9.55c0 .746 0 .817-.273.96-.775.193-.867.218-.867-.383V98.41l1.004.742h9.687zm-9.55 3.265h2.417v-2.544h-2.418v2.544zm.364 1.537l1.002.72h6.11l.593-.646 1.05.72c.09.048.136.144.136.24 0 .022 0 .288-.363.384-.184.048-.272.168-.272.288v7.057c.045.288-.16.336-.797.504-.32 0-.32-.214-.32-1.15h-5.996c0 .745 0 .816-.27.96-.73.19-.867.218-.867-.383v-8.69h-.003zm1.14 1.44v1.536h5.995v-1.537h-5.996zm0 2.254v1.44h5.995v-1.44h-5.996zm0 2.16v1.515h5.995v-1.514h-5.996zm2.052-7.39h2.416v-2.545h-2.416v2.544zm3.076 10.848c1.664.047 4.24.72 4.24 1.655 0 .267-.205.554-.48.554-.16 0-.364-.072-.594-.19-1.71-.984-3.646-1.44-4.422-1.608-.137-.023-.227-.12-.227-.238 0-.12.065-.168.205-.168h1.276v-.004zm.48-10.85h2.438v-2.543h-2.438v2.544zM240.68 100.385c.386 0 .966-.074 1.74-.225 1.562-.355 3.41-.656 5.5-.938 1.583-.227 2.48-.414 2.673-.582.104-.04.264-.058.492-.058.192 0 .387.075.615.244.475.375.72.692.72.975 0 .134-.087.21-.28.21-.018 0-.21-.02-.56-.037-.303-.058-.458-.096-.493-.096-.812 0-2.146.13-4.025.413.246.28.37.523.37.69 0 .17-.036.376-.09.62-.14.525-.175 2.457-.104 5.776.054 2.794.02 4.445-.07 4.933-.104.373-.245.56-.438.56-.158 0-.37-.28-.615-.825-.243-.544-.366-.993-.366-1.312 0-.17.05-.487.153-.938.09-.3.123-2.288.123-5.944 0-1.52-.14-2.624-.4-3.337-1.653.28-2.852.562-3.606.88-.386.17-.646.265-.77.265-.302 0-.688-.17-1.195-.49-.422-.317-.633-.58-.633-.787 0-.093.067-.15.21-.15h.212c.343.098.624.153.835.153zm33.984-11.67c.25.186.463.43.676.695.986 1.266 1.74 2.164 2.244 2.695l.832.938c.29.39.48.593.54.652.19.185.25.326.175.43-.02.04-.06.062-.154.062-.115 0-.328-.082-.656-.246l-.93-.467c-.386-.205-.714-.39-.966-.572l-1.78-1.285c-.83-.613-1.333-1.082-1.523-1.43-.175-.307-.23-.593-.214-.897 0-.694.54-1.388 1.76-.57zM264.957 104.66c2.127-.243 3.516-.486 4.146-.728.316-.17.512-.227.562-.207.14-.02.438.168.88.582.314.336.474.58.474.73l.02.036c0 .13-.07.188-.23.188h-.3c-.21-.017-.457.06-.72.06-.67-.02-1.776.074-3.34.26-2.41.283-4.52.508-6.364.658-.79.02-1.37.132-1.775.3-.263.075-.4.114-.456.114-.246 0-.545-.187-.895-.58-.354-.397-.528-.732-.546-1.015l-.02-.057c-.02-.188.034-.28.192-.28l.018-.02c.02 0 .21.036.3.057.403.168 1.124.263 2.182.263 1.772 0 3.743-.113 5.87-.357zm17.19-4.912c.403.544.614.957.614 1.236 0 .133-.12.265-.367.414-.123.095-.264.264-.404.486l-4.43 8.178c-.09.168-.14.28-.14.317 0 .093.067.13.21.13.895-.02 2.25-.15 4.095-.395 1.846-.245 3.164-.488 3.94-.713.4-.112.685-.168.822-.168.316 0 .738.188 1.248.543.527.412.79.787.79 1.104 0 .245-.14.376-.42.376-.124 0-.3-.036-.51-.13-.616-.17-1.442-.245-2.444-.245-1.634.04-3.353.227-5.202.564-1.424.225-2.426.47-3.04.75l-.404.225c-.193 0-.44-.19-.738-.563-.3-.317-.457-.562-.457-.73 0-.207.104-.395.3-.562.28-.3.49-.582.65-.824.7-1.22 1.44-2.59 2.213-4.145.914-1.894 1.547-3.28 1.898-4.145.335-.787.49-1.5.49-2.118 0-.188.07-.28.214-.28.317 0 .67.225 1.073.696zM300.492 107.793c1.024-.744 2.188-1.943 2.188-3.527-.25.145-.48.24-.752.24-1.002 0-1.64-.77-1.64-1.585 0-.935.546-1.726 1.64-1.726.89 0 1.96.6 1.96 2.398 0 1.923-1.274 3.435-3.054 4.706l-.342-.503zm17.398-6.503c-2.37 3.433-4.767 5.255-4.97 5.255-.114 0-.184-.096-.184-.19 0-.072.045-.146.113-.218 1.867-1.848 3.51-3.912 4.785-6.12l1.526-2.855h-6.224l-.184-.744h6.727c.8-1.776.89-2.063 1.05-2.953l1.252.48c.25.07.365.216.365.358 0 .312-.14.312-.48.312-.112 0-.182.023-.204.07l-.8 1.73h9.576l1.436-1.25 1.46 1.128c.112.072.183.216.183.384 0 .312-.23.48-.525.48h-12.492c-.547 1.08-1.162 2.136-1.822 3.12l.41.36h9.69l.5-.647.89.768c.185.144.298.312.298.505 0 .168-.114.336-.298.407-.183.072-.25.192-.25.288v12.025c0 .672-.457 1.15-2.074 1.464l-.273-.673c-.137-.215-.66-.455-1.504-.743-.16-.046-.23-.142-.23-.286.023-.12.095-.168.206-.168h.067c.8.12 1.392.19 1.824.19.48 0 .844-.048.844-.6v-3.84h-9.55v5.614c0 .288-.205.335-.912.528-.16 0-.23-.168-.23-.53v-13.653.004zm1.14.07v3.12h9.552v-3.12h-9.553zm0 3.865v3.385h9.552v-3.385h-9.553zm28.75-11.74h7.59v1.105h-6.564V110h-1.025V93.486zm10.58 16.133l-.16-.722h2.19l-.663-13.97 1.188.722.887-.648c.41-.384.82-.768 1.07-1.296l1.14.504c.23.072.318.216.318.36 0 .168-.157.384-.387.384l-.547.144-.89.6-1.553.648.138 3.457h.55l1.255-1.294 1.162 1.152c.113.096.158.24.158.384 0 .265-.228.48-.455.48h-2.647l.183 3.77h.344l1.254-1.272 1.162 1.152c.113.072.158.216.158.36 0 .24-.205.504-.455.504h-2.44l.23 3.864h3.352V93.583l1.002.864h5.222l.547-.624 1.024.743c.092.05.138.145.138.265 0 .218-.158.386-.318.458-.137.072-.23.216-.23.36v13.25h3.192l.25-3.865h-2.304l-.183-.744h2.554l.297-3.77h-2.668l-.183-.72h2.918l.274-3.96h-2.918l-.137-.72h3.074l.595-.724.796.77c.16.12.252.288.252.456 0 .19-.093.337-.274.385-.184.072-.297.217-.297.36l-.89 12.553h.045l1.254-1.32 1.186 1.152c.092.097.137.24.137.358 0 .266-.184.506-.456.506l-20.45.004zm6.77 1.128l1.07.646c.184.12.296.266.296.408 0 .024-.045.312-.317.312l-.32-.05c-.09 0-.184.024-.25.072-2.03 2.138-5.996 3.146-6.453 3.146-.137 0-.25-.05-.25-.192 0-.12.066-.192.183-.24 2.806-.792 4.835-2.473 5.86-3.72l.18-.382zm.91-1.85h5.106V95.19h-5.105v13.706zm2.417-11.447l1.117-1.106 1.002.962c.093.096.138.238.138.358 0 .216-.158.526-.455.526h-3.355l-.157-.74h1.707zm-1.413 2.805l.547.385h1.963l.342-.456.64.48.092.264c-.138.217-.158.24-.296.408v5.28c0 .12-.066.24-.203.288-.503.12-.57.144-.57-.264v-.96h-1.732v.936c0 .096-.067.192-.16.24-.547.12-.614.144-.614-.266v-6.336l-.005.002zm.776 4.704h1.732v-3.6h-1.732v3.6zm4.24 6.53c2.008.6 4.787 2.303 4.787 3.12 0 .285-.205.6-.523.6-.205 0-.39-.097-.614-.337-1.46-1.344-3.283-2.497-5.312-3.435-.137-.048-.182-.145-.182-.24.02-.12.112-.167.25-.167l1.594.458zM22.104 137.023l1.437-1.27 1.46 1.15c.115.07.185.217.185.36 0 .264-.183.48-.523.48h-5.47c-.685 2.04-1.62 3.982-2.736 5.783l1.39-.215c1.643-.334 3.08-.77 4.333-1.176-.274-.527-.685-1.296-1.3-1.8-.068-.022-.09-.07-.09-.146 0-.047.044-.215.204-.215.57 0 3.077 2.832 3.077 4.225 0 .096-.067.72-.547.72-.365 0-.523-.336-.547-.48l-.523-1.702c-2.827 1.296-6.087 2.04-7.045 2.207-.09 0-.183.168-.183.385 0 .216-.16.384-.365.384-.16 0-.297-.12-.388-.36l-.547-1.75.798.07 1.23-.095c.252-.264 1.004-2.473 1.3-3.432l.64-2.4h-3.74l-.182-.72h8.135zm-3.625 12.075H14.51l-.182-.744h4.15v-3.336l1.162.24c.365.047.524.167.524.36 0 .19-.114.335-.296.383-.184.074-.25.218-.25.36v1.994h2.165l1.32-1.058 1.188.96c.09.05.16.192.16.336 0 .267-.138.507-.5.507H19.62v4.82c1.596-.504 3.17-1.15 4.72-1.896.045-.023.09-.05.136-.05.16 0 .23.193.23.29 0 .07-.046.145-.14.19-2.688 1.705-5.767 3-9.186 3.696-.09.022-.16.167-.205.384-.023.312-.25.456-.365.456-.16 0-.318-.192-.41-.552l-.433-1.562h1.163c.752-.07 1.892-.312 3.35-.624v-5.158h-.002v.004zm13.88-7.802c-.203 2.88-.73 6.673-2.6 9.865 1.14 1.538 2.51 3.386 5.177 4.394.138.05.205.12.205.217-.02.098-.228.19-.523.266-.32.048-.55.24-.616.48-.068.214-.137.31-.23.31-.02 0-.044 0-.066-.023-1.004-.672-2.828-2.208-4.492-4.823-2.234 3.31-5.334 4.464-7.98 4.895-.044.022-.066.022-.09.022-.113 0-.205-.12-.205-.238 0-.1.07-.17.16-.194 4.97-1.464 7.09-4.85 7.48-5.616-1.3-2.687-2.053-6.048-2.325-7.655-.638 1.393-1.732 3.168-1.983 3.168-.067 0-.205-.07-.205-.19 0-.073.023-.12.068-.192.935-1.68 1.664-3.455 2.166-5.23.457-1.8.753-3.385.8-4.682l-.07-.623 1.323.072c.32 0 .48.12.48.312s-.092.31-.274.335-.297.096-.297.168c-.206 1.44-.57 2.88-1.003 4.25h4.584l1.39-1.272 1.392 1.08c.183.168.228.337.228.505 0 .336-.272.407-.456.407h-2.033v-.004zm-5.765 1.056c.41 2.16.89 3.984 1.482 5.45.272.767.638 1.51 1.003 2.183 1.573-3.215 1.983-6.575 2.1-8.688h-4.173l-.114.385-.297.67zm11.403 13.128h6.27v-14.903h1.025v16.01h-7.295v-1.107zm28.177-19.994h7.59v1.104h-6.563V152h-1.026v-16.514zm10.58 16.132l-.16-.722h2.19l-.66-13.97 1.184.722.89-.648c.407-.384.82-.768 1.07-1.296l1.14.504c.227.072.317.216.317.36 0 .168-.16.384-.387.384l-.546.144-.89.602-1.55.646.138 3.457h.547l1.252-1.294 1.163 1.152c.113.096.16.24.16.384 0 .265-.23.48-.456.48h-2.646l.183 3.77h.342l1.253-1.272 1.163 1.152c.113.072.16.216.16.36 0 .24-.205.504-.456.504h-2.438l.23 3.864h3.35v-15.313l1.003.864h5.22l.547-.624 1.026.743c.09.05.137.144.137.264 0 .216-.16.384-.318.456-.138.07-.23.215-.23.358v13.25h3.193l.25-3.864h-2.302l-.184-.744h2.553l.297-3.77h-2.667l-.184-.72h2.918l.276-3.96h-2.918l-.138-.72h3.077l.594-.723.8.77c.16.12.25.288.25.456 0 .19-.09.336-.273.384-.182.072-.296.217-.296.36l-.89 12.553h.047l1.254-1.32 1.187 1.152c.092.097.138.24.138.358 0 .266-.184.506-.456.506l-20.453.002zm6.77 1.128l1.073.646c.182.12.296.266.296.408 0 .024-.046.312-.318.312l-.32-.05c-.09 0-.18.024-.25.072-2.028 2.138-5.995 3.146-6.45 3.146-.138 0-.25-.05-.25-.192 0-.12.067-.192.18-.24 2.806-.792 4.834-2.473 5.86-3.72l.18-.382zm.913-1.85h5.106V137.19h-5.106v13.706zm2.417-11.447l1.117-1.106 1.003.962c.09.096.137.238.137.358 0 .216-.16.526-.456.526h-3.35l-.16-.74h1.71zm-1.414 2.805l.55.385h1.96l.342-.456.64.48.09.264c-.137.217-.16.24-.296.408v5.28c0 .12-.068.24-.205.288-.5.12-.57.144-.57-.264v-.962h-1.73v.938c0 .096-.07.192-.16.24-.548.12-.617.144-.617-.266v-6.334zm.778 4.704h1.732v-3.6h-1.733v3.6zm4.24 6.53c2.007.6 4.788 2.303 4.788 3.12 0 .285-.205.6-.524.6-.204 0-.387-.097-.614-.337-1.46-1.344-3.282-2.497-5.312-3.435-.137-.048-.183-.145-.183-.24.023-.12.115-.167.25-.167l1.598.458zm10.032-5.328v-1.057l1.368.217c.32.048.456.168.456.36s-.09.31-.296.358c-.183.048-.296.145-.296.264l-.183 2.064c.682 1.392 1.092 2.064 1.8 2.81v-8.786h-3.694l-.182-.72h3.875v-3.577h-2.897l-.16-.744h3.056v-4.08l1.185.22c.365.047.524.19.524.383s-.115.336-.297.384c-.182.05-.273.192-.273.36v2.735h.595l1.3-1.08 1.185.984c.114.048.183.192.183.36 0 .312-.23.48-.524.48h-2.737v3.575h1.026l1.32-1.08 1.164.96c.113.07.182.217.182.385 0 .12 0 .457-.5.457h-3.192v4.25h.866l1.255-1.058 1.14.864c.184.168.23.336.23.504 0 .336-.273.407-.457.407h-3.032v4.702c2.325 1.346 5.745 1.608 10.213 1.608 1.754 0 3.623-.07 5.56-.192.114 0 .182.05.182.146 0 .072-.09.216-.364.358-.275.146-.435.36-.48.648-.046.288-.16.432-.25.432-.867.024-1.688.024-2.463.024-10.51 0-13.473-1.056-15.48-5.688l-.066.77c-.32 1.896-.866 3.553-1.755 5.062-.068.072-.138.098-.205.098-.136 0-.183-.12-.183-.216 0-.05 0-.072.023-.12.843-2.16 1.07-4.656 1.14-5.426l.13-3.402zm13.338 6.695c0 .12-.092.24-.23.312-.797.19-.888.214-.888-.314v-4.537c-.638.454-1.322.89-2.03 1.247l-2.028.79c-.09.05-.16.22-.16.458 0 .312-.228.455-.364.455-.16 0-.296-.143-.434-.525l-.5-1.536 1.162-.05.524-.12v-13.2h-1.573l-.182-.72h6.61l1.46-1.27 1.436 1.15c.116.07.185.214.185.357 0 .265-.183.48-.5.48h-2.485l-.002 17.02zm-3.83-13.537h2.713v-3.48H110v3.48zm0 4.513h2.713v-3.77H110v3.77zm0 4.92c.844-.168 1.847-.672 2.713-1.128v-3.072H110v4.2zm7.933-4.92c.276-1.368.526-3.072.663-5.112l.046-.262h-3.83l-.16-.72h3.897l.616-.816.957.913c.158.12.227.265.227.408 0 .17-.09.29-.296.337-.18.048-.317.144-.317.264-.273 3.36-.707 5.258-1.39 7.25l.91 1.92c.274.672 1.004 2.448 1.004 3.48 0 .408-.206.672-.57.672-.456 0-.523-.528-.57-.744-.364-1.296-.798-2.64-1.345-3.96-1.048 2.4-3.054 4.2-3.235 4.2-.114 0-.184-.12-.184-.215 0-.05.024-.12.07-.168 1.025-1.227 1.8-2.45 2.302-3.626l.524-1.393c-.686-1.56-1.44-2.976-2.21-4.25-.047-.07-.07-.116-.07-.166 0-.096.07-.216.183-.216.045 0 .114.023.16.072l1.572 2.11.752 1.152.297-1.125zm5.567 9.647h6.27v-14.903h1.025v16.01h-7.295v-1.107zm22.253-16.464l1.048.912h1.23l.685-2.136.272-1.824v-.743l1.368.12c.273.048.41.167.41.335s-.068.288-.228.336l-.32.192-.797 2.112-.775 1.606h2.986l.545-.768 1.05.72c.067.048.09.12.09.24 0 .312-.25.432-.318.456-.184.07-.25.168-.25.24v14.063c0 .12-.115.24-.23.312-.798.166-.89.166-.89-.29v-1.417h-4.74v2.23c0 .313-.275.387-.913.555-.16 0-.228-.193-.228-.555l.002-16.7zm1.14 7.464h4.74v-5.834h-4.74v5.834zm0 6.29h4.74v-5.545h-4.74v5.545zm11.9 2.304c1.14.384 1.98.6 2.46.6.524 0 .96-.814 1.186-1.367.25-.647 1.187-4.297 1.187-13.754h-6.885l-.296.77c-1.116 2.664-2.575 4.488-2.78 4.488-.068 0-.16-.07-.16-.19 0-.07.022-.144.067-.216 2.21-3.575 3.28-7.776 3.28-10.152l1.323.097c.296.023.433.145.433.335 0 .192-.113.336-.272.336-.184 0-.296.07-.296.168-.275 1.226-.64 2.474-1.05 3.648h6.61l.616-.624.912.745c.114.096.16.216.16.336-.023.145-.14.266-.274.313-.25.072-.25.192-.25 1.226 0 6.432-.66 11.28-1.254 12.814-.752 1.873-1.527 2.377-2.918 2.52-.114-.96-.844-1.367-1.938-1.606-.113-.023-.182-.097-.182-.192 0-.12.09-.287.273-.287l.044-.005zm-2.533-10.394c0-.072.045-.216.183-.216.547 0 3.26 3.097 3.26 4.536 0 .216-.09.792-.523.792s-.547-.384-.57-.48c-.433-1.942-1.276-3.646-2.257-4.464-.07-.048-.093-.096-.093-.168zm11.79-2.616l-.184-.744h6.565c0-.24-.64-1.752-1.208-2.063-.09-.022-.137-.096-.137-.168 0-.098.067-.266.228-.266.14 0 .777.286 1.348.84.774.72.774.77.774 1.632h4.72c.365-.77.685-1.607.866-2.447l1.163.406c.25.072.365.192.365.36 0 .07-.045.384-.342.384-.16 0-.296.05-.365.147l-1.003 1.176h4.97l1.437-1.248 1.46 1.152c.09.047.16.19.16.336 0 .264-.138.504-.502.504h-20.312v-.003zm2.6 9.434c.07 0 .137.07.137.19 0 2.376-1.14 5.02-2.258 5.02-.388 0-.57-.36-.57-.625 0-.168.068-.384.502-.696.707-.574 1.208-1.176 1.46-1.8.272-.6.478-1.248.546-1.896 0-.144.068-.19.182-.19zm-1.62-13.273l-.183-.744h8.594v-2.397l1.187.216c.364.05.523.19.523.384 0 .19-.113.336-.296.385-.183.07-.272.215-.272.357v1.058h5.973l1.436-1.248 1.457 1.127c.114.072.184.217.184.385 0 .31-.23.48-.523.48h-18.08v-.004zm14.02 5.447l.592-.648 1.047.722c.09.048.138.146.138.24 0 .022 0 .286-.365.384-.182.048-.295.168-.295.288v5.833c.022.146-.092.29-.205.36-.73.19-.912.24-.912-.36v-.936H172.88v.816c0 .12-.09.24-.273.335-.73.19-.866.216-.866-.385v-7.368l1.005.72h10.302zm-10.168.72v1.824h10.165v-1.823H172.88zm0 2.546v1.896h10.165v-1.896H172.88zm.477 4.03l1.505.433c.183.05.273.17.273.36s-.137.314-.342.34c-.206.022-.32.144-.32.286v3.312c0 .287.07.312.457.455h6.612c.684 0 1.05-.433 1.163-1.367l.205-1.512c0-.12.09-.192.206-.192.137 0 .204.072.204.217l.068 1.632c.022.527.182.887.433 1.03.185.12.32.313.32.48 0 .456-.27.6-.773.84h-9.348c-.524-.263-.66-.335-.66-1.03v-5.28zm5.79 2.833c-.684-1.437-1.62-2.374-2.233-2.64-.092-.046-.16-.095-.16-.19s.046-.24.23-.24c.387 0 3.167 1.488 3.167 2.785 0 .264-.044.6-.48.6-.272 0-.454-.12-.523-.313zm5.245-2.16c0-.094.068-.24.205-.24.57 0 3.397 2.836 3.397 4.23 0 .383-.16.743-.524.743-.27 0-.455-.098-.57-.434-.478-1.897-1.525-3.554-2.393-4.128-.07-.05-.114-.12-.114-.17zm9.212-1.92c.09 0 .16.073.16.193 0 3.336-1.322 5.642-2.234 5.642-.5 0-.615-.408-.615-.673 0-.144.183-.384.48-.624.75-.72 1.275-1.44 1.55-2.136.273-.72.455-1.464.5-2.208 0-.12.046-.193.16-.193zm13.476-13.27l.612-.65 1.027.722c.09.05.135.145.135.24 0 .07-.045.336-.342.407-.184.046-.297.144-.297.263v10.152c.023.145-.09.288-.227.36-.708.19-.893.24-.893-.36v-1.128h-12.22v.912c0 .31-.272.383-.91.55-.16 0-.228-.19-.228-.55v-11.834l1.05.912h12.29zm-6.66.74h-5.54v3.866h5.54v-3.865zm-5.538 4.585v3.96h5.54v-3.96h-5.54zm2.166 6.938l1.504.456c.182.046.273.142.273.334s-.138.312-.343.336-.297.145-.297.313v5.09c0 .264.092.312.437.432h6.086c.637 0 1.05-.384 1.254-1.512l.27-1.752c0-.096.094-.166.23-.166s.205.07.205.216l-.068 1.848c0 .6.113 1.008.363 1.176.205.12.342.312.342.504 0 .408-.27.553-.772.815h-8.822c-.546-.264-.662-.336-.662-1.03v-7.06h-.002zm6.702 2.137c0 .12-.068.48-.523.48-.205 0-.387-.098-.48-.29-.48-.767-1.55-2.423-2.852-2.88-.09-.047-.16-.096-.16-.167 0-.168.093-.265.23-.265.546 0 3.01 1.27 3.645 2.496l.14.626zm-2.188-9.793h5.54v-3.865h-5.54v3.865zm0 .718v3.96h5.54v-3.96h-5.54zm5.54 8.066c0-.046.067-.214.228-.214.522 0 3.646 3.312 3.646 4.92 0 .072 0 .792-.502.792-.455 0-.547-.384-.57-.456-.637-2.543-1.914-4.32-2.688-4.872-.09-.047-.115-.094-.115-.167zm19.562-3.55c0 1.487-1.367 2.928-2.78 2.928-1.528 0-2.804-1.416-2.804-2.928 0-1.584 1.23-2.952 2.803-2.952 1.298-.002 2.78 1.246 2.78 2.952zm-2.782-2.09c-1.14 0-1.982.89-1.982 2.09 0 .98.73 2.087 1.982 2.087 1.027 0 1.984-.96 1.984-2.088 0-.604-.185-1.08-.595-1.49-.406-.408-.86-.6-1.387-.6z" fill="#040000"/></svg>