<svg xmlns="http://www.w3.org/2000/svg" viewBox="0 0 760 640"><g stroke-miterlimit="10"><g fill="none" stroke="#CCC"><path d="M180 560V80M341 560V80M20.5 239.5h480M20.5 400.5h480"/></g><g fill="none" stroke="#999" stroke-width="2"><path d="M20.5 80.1h720v480h-720z"/><path d="M20.5 80.1h480v480h-480zM620.5 560V80"/></g><g fill="#EEE" stroke="#999" stroke-width="2"><path d="M500.5 200.1h120v120h-120zM500.5 320h120M500.5 200h120"/></g><g fill="#EEE" stroke="#999" stroke-width="2"><path d="M500.5 320.1h120v120h-120zM500.5 440h120M500.5 320h120"/></g><g fill="#EEE" stroke="#999" stroke-width="2"><path d="M500.5 170h120v30h-120zM500.5 200h120M500.5 170h120"/></g></g><path fill="none" stroke="#999" stroke-width="2" stroke-miterlimit="10" d="M20.5 601h330M410.5 601h330"/><path fill="#999" d="M19.5 593h2v16h-2zM739.5 593h2v16h-2z"/><path d="M361.2 596.4l-2.8 1.5-.4-1.6 3.4-1.8h1.8V610h-2v-13.6zM378.2 596.2h-6l-.6 4c.4 0 .7-.1 1.3-.1 1.2 0 2.4.3 3.4.8 1.2.7 2.2 2 2.2 4 0 3-2.4 5.3-5.8 5.3-1.7 0-3.1-.5-3.9-1l.5-1.6c.6.4 1.9.9 3.3.9 2 0 3.7-1.3 3.7-3.4 0-2-1.4-3.5-4.5-3.5-.9 0-1.6.1-2.2.2l1-7.5h7.5v1.9zM391.6 602c0 5.3-2 8.2-5.4 8.2-3 0-5.1-2.9-5.2-8 0-5.2 2.3-8.1 5.4-8.1 3.3 0 5.2 3 5.2 7.9zm-8.5.3c0 4.1 1.2 6.4 3.2 6.4 2.2 0 3.2-2.5 3.2-6.5 0-3.8-1-6.4-3.2-6.4-1.8 0-3.2 2.2-3.2 6.5zM403.9 602c0 5.3-2 8.2-5.4 8.2-3 0-5.1-2.9-5.2-8 0-5.2 2.3-8.1 5.4-8.1 3.4 0 5.2 3 5.2 7.9zm-8.4.3c0 4.1 1.2 6.4 3.2 6.4 2.2 0 3.2-2.5 3.2-6.5 0-3.8-1-6.4-3.2-6.4-1.9 0-3.2 2.2-3.2 6.5z"/><g><path fill="none" stroke="#999" stroke-width="2" stroke-miterlimit="10" d="M20.5 578h210M290.5 578h210"/><path fill="#999" d="M19.5 570h2v16h-2zM499.5 570h2v16h-2z"/><g><path d="M241.2 573.4l-2.8 1.5-.4-1.6 3.4-1.8h1.8V587h-2v-13.6zM259.3 579c0 5.3-2 8.2-5.4 8.2-3 0-5.1-2.9-5.2-8 0-5.2 2.3-8.1 5.4-8.1 3.3 0 5.2 3 5.2 7.9zm-8.5.3c0 4.1 1.2 6.4 3.2 6.4 2.2 0 3.2-2.5 3.2-6.5 0-3.8-1-6.4-3.2-6.4-1.8 0-3.2 2.2-3.2 6.5zM271.6 579c0 5.3-2 8.2-5.4 8.2-3 0-5.1-2.9-5.2-8 0-5.2 2.3-8.1 5.4-8.1 3.3 0 5.2 3 5.2 7.9zm-8.5.3c0 4.1 1.2 6.4 3.2 6.4 2.2 0 3.2-2.5 3.2-6.5 0-3.8-1-6.4-3.2-6.4-1.8 0-3.2 2.2-3.2 6.5zM283.9 579c0 5.3-2 8.2-5.4 8.2-3 0-5.1-2.9-5.2-8 0-5.2 2.3-8.1 5.4-8.1 3.4 0 5.2 3 5.2 7.9zm-8.4.3c0 4.1 1.2 6.4 3.2 6.4 2.2 0 3.2-2.5 3.2-6.5 0-3.8-1-6.4-3.2-6.4-1.9 0-3.2 2.2-3.2 6.5z"/></g></g><g><path fill="none" stroke="#999" stroke-width="2" stroke-miterlimit="10" d="M500.5 578h90M650.5 578h90"/><path fill="#999" d="M499.5 570h2v16h-2zM739.5 570h2v16h-2z"/><g><path d="M611.9 573.2h-6l-.6 4c.4 0 .7-.1 1.3-.1 1.2 0 2.4.3 3.4.8 1.2.7 2.2 2 2.2 4 0 3-2.4 5.3-5.8 5.3-1.7 0-3.1-.5-3.9-1l.5-1.6c.6.4 1.9.9 3.3.9 2 0 3.7-1.3 3.7-3.4 0-2-1.4-3.5-4.5-3.5-.9 0-1.6.1-2.2.2l1-7.5h7.5v1.9zM625.3 579c0 5.3-2 8.2-5.4 8.2-3 0-5.1-2.9-5.2-8 0-5.2 2.3-8.1 5.4-8.1 3.3 0 5.2 3 5.2 7.9zm-8.5.3c0 4.1 1.2 6.4 3.2 6.4 2.2 0 3.2-2.5 3.2-6.5 0-3.8-1-6.4-3.2-6.4-1.8 0-3.2 2.2-3.2 6.5zM637.6 579c0 5.3-2 8.2-5.4 8.2-3 0-5.1-2.9-5.2-8 0-5.2 2.3-8.1 5.4-8.1 3.3 0 5.2 3 5.2 7.9zm-8.5.3c0 4.1 1.2 6.4 3.2 6.4 2.2 0 3.2-2.5 3.2-6.5 0-3.8-1-6.4-3.2-6.4-1.8 0-3.2 2.2-3.2 6.5z"/></g></g><g><path fill="none" stroke="#999" stroke-width="2" stroke-miterlimit="10" d="M620.5 58h40M700.5 58h40"/><path fill="#999" d="M619.5 50h2v16h-2zM739.5 50h2v16h-2z"/><g><path d="M662.6 67v-1.3l1.7-1.6c4-3.8 5.8-5.8 5.8-8.2 0-1.6-.8-3-3.1-3-1.4 0-2.6.7-3.3 1.3l-.7-1.5c1.1-.9 2.6-1.6 4.4-1.6 3.4 0 4.8 2.3 4.8 4.5 0 2.9-2.1 5.2-5.4 8.4l-1.2 1.2h7V67h-10zM684.2 53.2h-6l-.6 4c.4 0 .7-.1 1.3-.1 1.2 0 2.4.3 3.4.8 1.2.7 2.2 2 2.2 4 0 3-2.4 5.3-5.8 5.3-1.7 0-3.1-.5-3.9-1l.5-1.6c.6.4 1.9.9 3.3.9 2 0 3.7-1.3 3.7-3.4 0-2-1.4-3.5-4.5-3.5-.9 0-1.6.1-2.2.2l1-7.5h7.5v1.9zM697.6 59c0 5.3-2 8.2-5.4 8.2-3 0-5.1-2.9-5.2-8 0-5.2 2.3-8.1 5.4-8.1 3.3 0 5.2 3 5.2 7.9zm-8.5.3c0 4.1 1.2 6.4 3.2 6.4 2.2 0 3.2-2.5 3.2-6.5 0-3.8-1-6.4-3.2-6.4-1.8 0-3.2 2.2-3.2 6.5z"/></g></g><g><path fill="none" stroke="#999" stroke-width="2" stroke-miterlimit="10" d="M500.5 58h40M580.5 58h40"/><path fill="#999" d="M499.5 50h2v16h-2zM619.5 50h2v16h-2z"/><g><path d="M542.6 67v-1.3l1.7-1.6c4-3.8 5.8-5.8 5.8-8.2 0-1.6-.8-3-3.1-3-1.4 0-2.6.7-3.3 1.3l-.7-1.5c1.1-.9 2.6-1.6 4.4-1.6 3.4 0 4.8 2.3 4.8 4.5 0 2.9-2.1 5.2-5.4 8.4l-1.2 1.2h7V67h-10zM564.2 53.2h-6l-.6 4c.4 0 .7-.1 1.3-.1 1.2 0 2.4.3 3.4.8 1.2.7 2.2 2 2.2 4 0 3-2.4 5.3-5.8 5.3-1.7 0-3.1-.5-3.9-1l.5-1.6c.6.4 1.9.9 3.3.9 2 0 3.7-1.3 3.7-3.4 0-2-1.4-3.5-4.5-3.5-.9 0-1.6.1-2.2.2l1-7.5h7.5v1.9zM577.6 59c0 5.3-2 8.2-5.4 8.2-3 0-5.1-2.9-5.2-8 0-5.2 2.3-8.1 5.4-8.1 3.3 0 5.2 3 5.2 7.9zm-8.5.3c0 4.1 1.2 6.4 3.2 6.4 2.2 0 3.2-2.5 3.2-6.5 0-3.8-1-6.4-3.2-6.4-1.8 0-3.2 2.2-3.2 6.5z"/></g></g><g><path d="M560.5 190c-1.4 0-2.6-.5-3.6-1.4-1-1-1.4-2.2-1.4-3.6s.5-2.5 1.4-3.5c1-1 2.2-1.5 3.6-1.5s2.5.5 3.5 1.5 1.5 2.1 1.5 3.5-.5 2.6-1.5 3.6c-1 .9-2.1 1.4-3.5 1.4zM316.2 207.8c5.9-6.2 9.4-10.4 10.3-12.4.9-2 1.3-3.9 1.2-5.5-.2-1.6-1.6-3.1-4.2-4.3-2.7-1.2-10.5-.5-23.7 2.1l-75.2 15.5c-10.2 2.2-21.7 5.2-34.7 9.1-13 3.9-22 5.4-27 4.5-3-.5-8-2.4-15.2-5.7-7.2-3.4-12.2-6.5-15.1-9.5-2.9-3-4.1-5.1-3.5-6.3.5-1.2 2.2-2.3 5-3l15-1.2 28.6-2.8c8.9-.8 21.6-2.6 38.1-5.4 16.5-2.8 31.4-5.6 44.8-8.3 13.4-2.7 23.6-5 30.6-6.7 7-1.7 13.6-3.4 19.8-5.2 6.2-1.7 11.8-3.6 17-5.7s8.8-3.2 11-3.4c4.1-.2 8.7 1 13.8 3.4 5.2 2.4 11.9 5.9 20.2 10.5 8.3 4.6 14.6 9.7 19.1 15.4s6.1 10.1 5 13.4c-.9 2.8-5.9 6-14.8 9.5s-15.4 6.2-19.3 8.1-12.3 6.6-25 14.3c-12.7 7.7-20.2 12.3-22.5 13.8l-22.3 15.7-13.1 9.1c2.3 3.8 4 7 5 9.6 1 2.7 1.5 7.9 1.4 15.7-.1 7.8.4 17.8 1.5 30 1.4 19.8 2.4 35.3 2.9 46.3s1 26.4 1.4 46.3c.4 19.8.5 33.7.4 41.5-.5 11.2-1.8 21.2-3.9 29.9s-4.5 14.9-7.1 18.8c-2.7 3.8-6.5 8.9-11.6 15.2-5.1 6.3-9.1 9.6-12 9.8-2.9.2-5.6-.7-8.1-2.7-1.6-1.1-3.6-3.8-6-8.2-2.4-4.4-6.1-9.7-10.9-16.1-4.8-6.3-8.5-10.9-11-13.8-2.5-2.9-4.8-5.4-7-7.6l-8.7-8.2c-2.5-2.2-3.4-4-2.7-5.4s3.1-1.6 7.1-.5l10.8 3c3.1.9 7.3 2.5 12.5 4.8s9.3 3.1 12.1 2.5c2.5-.3 4.4-1.2 5.7-2.7 1.3-1.5 2.8-3.9 4.6-7.4 1.7-3.4 3-12 4-25.5l2.3-34.2c.3-7.3.4-17.3.2-29.8-.3-13.1-.8-23.7-1.4-31.8-.6-8-1.8-17.8-3.6-29.2-1.8-11.4-3.5-19.9-5-25.4-1.6-5.5-3.2-9.8-4.9-12.8l-8.2-12.9c-.3-.6-.5-1.5-.6-2.6-.1-1.1.5-2.2 1.6-3.4s3.3-1.8 6.4-2c.5 0 4 .2 10.5.7l8.4.7 50-51.6zM541.6 217.1c2 1.8 2.9 3.4 2.9 4.8 0 .4-.4.9-.9 2-2.6 3.6-5.2 9.3-7.9 16.6-1.3 3.8-2 6-2 6.7 0 .9.6 1.4 1.9 1.4l2.6-.6 16.3-4.2c3-10.4 4.7-21 5-31.6.2-3.5 1.8-5.3 4.7-5.3 4.1 0 7 1.8 7 4.7 0 2.2-.8 6.7-2.5 13.5-1.6 6.7-3.2 12.2-4.5 16.3l16.3-4.1c1.9-.6 3.9-1.6 6-2.9 2-1.1 3.2-1.6 3.4-1.6 1.1 0 3 1.1 5.7 3.3 2.7 2.1 4.1 3.8 4.1 4.8 0 .4-.1.9-.5 1.5-.4 1.3-.8 5.4-1.3 12.5-2.1 22.9-7.6 38.6-16.5 47.3-3.9 3.9-7.1 5.7-9.8 5.7-2 0-3.3-.7-3.6-2.2-.5-1.3-2.1-3.5-4.8-6.4-2.8-2.9-4.2-4.6-4.2-4.9.1-.4.2-.5.5-.5l3.5.8c2.7.8 4.9 1.2 6.8 1.2 2.9 0 5.6-1.2 7.9-3.4 2.7-2.9 5.5-9.4 8.4-19.3s4.3-19.1 4.3-27.2c0-2.5-.9-3.8-2.8-3.9-3.4 0-11.8 1.9-25.4 5.5-9 25.4-21.6 43-37.5 53-1.9 1.2-2.9 1.8-3.2 1.8-.4 0-.5-.1-.5-.5s.5-1.2 1.3-2.2c6.1-6.2 12.1-14.3 17.9-24.3 5.5-9 9.6-17.5 12.2-25.1-11.6 3.2-18.6 5.5-21.1 6.8-1.9.9-3 1.4-3.5 1.4-.6 0-1.8-.8-3.4-2.3-1.6-1.6-2.5-2.7-2.5-3.3s.4-1.8 1.1-3.3c3.6-5.3 6.4-11.1 8.3-17.3 2.5-6.3 3.8-11.5 3.8-15.5 0-1.5.5-2.3 1.4-2.3 1.5-.1 3.1.9 5.1 2.6zM519.9 360.5c.8.4 2.3.5 4.3.5s4-.2 6.2-.6l28.2-4.5-.4-8.4c0-6.2-.8-10.8-2.3-13.7-.6-.6-.9-1.1-.9-1.3 0-2 1.1-2.9 3.3-2.9 1.6 0 3.6.4 5.9 1.2 2.9 1.3 4.5 2.5 4.5 3.5 0 .4-.2.8-.8 1.3-.7 1.8-1.1 3.9-1.1 6.3l-.1 12.9 20.7-3.3c3.6-.7 6.2-1.3 7.5-1.6 1.4-.4 2.3-.6 2.8-.6 1.1 0 2.5.7 4.3 2.1 2.1 1.8 3.2 3 3.2 4 0 1.3-1.1 2-3.3 2h-4.2c-5 .4-15.5 1.5-31.2 3.8l-.2 20c0 4.1-1.5 6.2-4.7 6.2-.6 0-1.6-.5-3.2-1.5-1.4-.6-2.6-.9-3.4-.9-4 0-7.5 1.5-10.5 4.5-2.9 2.9-4.5 6.7-4.5 11.5 0 10.7 8.4 18.5 22.5 18.5 9.6 0 17.8-3 24.7-9.3 1.8-1.8 3.3-2.6 4.8-2.6 1.8 0 3.3 1.3 3.3 2.7 0 4.5-3.4 8.6-10.2 12.4-6.4 3.4-14.1 5.2-22.6 5.2-8.8 0-16.3-2.6-22.5-7.6-6-5.3-8.9-11.7-8.9-19.3 0-5.5 1.9-10.5 5.6-15 4.5-4.5 10.9-6.9 19.2-7.5 2.5-.2 3.6-2.3 3.3-6.4l-.4-9.5c-16.2 2.5-25.7 4.2-28.4 5.4-1.3.8-2.5 1.2-3.6 1.2-1.5 0-3.8-1.1-6.8-3.2-2.9-2.2-4.5-3.8-4.5-4.3 0-1.3.4-1.9.9-1.9s1.9.1 3.5.7z"/></g></svg>